<svg width="14" height="16" viewBox="0 0 14 16" fill="none" xmlns="http://www.w3.org/2000/svg">
<path fill-rule="evenodd" clip-rule="evenodd" d="M0.333252 3.99996C0.333252 3.63177 0.631729 3.33329 0.999919 3.33329H12.9999C13.3681 3.33329 13.6666 3.63177 13.6666 3.99996C13.6666 4.36815 13.3681 4.66663 12.9999 4.66663H0.999919C0.631729 4.66663 0.333252 4.36815 0.333252 3.99996Z" fill="#848687"/>
<path fill-rule="evenodd" clip-rule="evenodd" d="M5.66659 1.99996C5.48977 1.99996 5.32021 2.0702 5.19518 2.19522C5.07016 2.32025 4.99992 2.48982 4.99992 2.66663V3.33329H8.99992V2.66663C8.99992 2.48982 8.92968 2.32025 8.80466 2.19522C8.67963 2.0702 8.51006 1.99996 8.33325 1.99996H5.66659ZM10.3333 3.33329V2.66663C10.3333 2.13619 10.1225 1.62748 9.74747 1.25241C9.37239 0.87734 8.86369 0.666626 8.33325 0.666626H5.66659C5.13615 0.666626 4.62744 0.87734 4.25237 1.25241C3.8773 1.62748 3.66659 2.13619 3.66659 2.66663V3.33329H2.33325C1.96506 3.33329 1.66659 3.63177 1.66659 3.99996V13.3333C1.66659 13.8637 1.8773 14.3724 2.25237 14.7475C2.62744 15.1226 3.13615 15.3333 3.66659 15.3333H10.3333C10.8637 15.3333 11.3724 15.1226 11.7475 14.7475C12.1225 14.3724 12.3333 13.8637 12.3333 13.3333V3.99996C12.3333 3.63177 12.0348 3.33329 11.6666 3.33329H10.3333ZM2.99992 4.66663V13.3333C2.99992 13.5101 3.07016 13.6797 3.19518 13.8047C3.32021 13.9297 3.48977 14 3.66659 14H10.3333C10.5101 14 10.6796 13.9297 10.8047 13.8047C10.9297 13.6797 10.9999 13.5101 10.9999 13.3333V4.66663H2.99992Z" fill="#848687"/>
<path fill-rule="evenodd" clip-rule="evenodd" d="M5.66659 6.66663C6.03478 6.66663 6.33325 6.9651 6.33325 7.33329V11.3333C6.33325 11.7015 6.03478 12 5.66659 12C5.2984 12 4.99992 11.7015 4.99992 11.3333V7.33329C4.99992 6.9651 5.2984 6.66663 5.66659 6.66663Z" fill="#848687"/>
<path fill-rule="evenodd" clip-rule="evenodd" d="M8.33325 6.66663C8.70144 6.66663 8.99992 6.9651 8.99992 7.33329V11.3333C8.99992 11.7015 8.70144 12 8.33325 12C7.96506 12 7.66659 11.7015 7.66659 11.3333V7.33329C7.66659 6.9651 7.96506 6.66663 8.33325 6.66663Z" fill="#848687"/>
</svg>
