<?xml version="1.0" encoding="utf-8"?>
<!-- Generator: Adobe Illustrator 16.0.0, SVG Export Plug-In . SVG Version: 6.00 Build 0)  -->
<!DOCTYPE svg PUBLIC "-//W3C//DTD SVG 1.1//EN" "http://www.w3.org/Graphics/SVG/1.1/DTD/svg11.dtd">
<svg version="1.1" id="Layer_1" xmlns="http://www.w3.org/2000/svg" xmlns:xlink="http://www.w3.org/1999/xlink" x="0px" y="0px"
	 width="150px" height="93.795px" viewBox="0 0 150 93.795" enable-background="new 0 0 150 93.795" xml:space="preserve">
<rect fill="#FFFFFF" width="150" height="93.795"/>
<g>
	<path fill="#5F6163" d="M126.479,65.549c-0.041-3.039,0.188-6.083-0.127-9.112c-0.235-2.299-1.148-4.264-3.521-5.043
		c-2.563-0.844-5.046-0.722-7.159,1.232c-0.648,0.602-1.08,1.378-1.62,2.124c0-0.295,0-0.591,0-0.885c0-6.863,0-13.725,0-20.589
		c0-3.821-0.014-7.642,0.017-11.465c0.006-0.602-0.156-0.792-0.768-0.769c-1.208,0.047-2.423,0.051-3.633,0
		c-0.609-0.027-0.881,0.197-1.125,0.744c-5.027,11.305-10.082,22.598-15.113,33.9c-0.236,0.535-0.498,0.762-1.117,0.752
		c-2.662-0.035-5.33-0.041-7.992,0.002c-0.688,0.013-0.803-0.23-0.738-0.823c0.281-2.628,1.193-4.999,2.775-7.118
		c1.426-1.914,3.363-3.225,5.306-4.539c2.563-1.732,5.177-3.406,7.106-5.895c3.662-4.723,2.771-11.609-1.957-14.971
		c-2.787-1.979-5.938-2.401-9.233-1.907c-3.899,0.584-7.093,2.379-9.353,5.692c-0.242,0.358-0.309,0.587,0.065,0.929
		c0.853,0.782,1.663,1.612,2.46,2.448c0.324,0.338,0.48,0.35,0.77-0.06c2.346-3.342,5.61-4.585,9.598-4.161
		c2.216,0.235,3.822,1.513,4.352,3.506c0.565,2.143,0.203,4.085-1.256,5.811c-1.035,1.227-2.292,2.182-3.578,3.113
		c-2.438,1.765-5.053,3.346-7.082,5.591c-4.209,4.66-5.509,10.312-5.271,16.438c0.028,0.761,0.313,0.922,1.062,0.921
		c9.581-0.031,19.163-0.016,28.742-0.038c0.678-0.001,0.839,0.183,0.83,0.845c-0.033,3.23-0.007,6.461-0.021,9.689
		c-0.004,0.46,0.069,0.673,0.604,0.656c1.315-0.041,2.638-0.036,3.956-0.002c0.533,0.019,0.62-0.197,0.605-0.662
		c-0.023-1.104-0.008-2.209-0.008-3.311c0.002-2.775-0.019-5.548,0.006-8.314c0.021-2.541,1.205-4.413,3.14-5.057
		c2.225-0.746,4.11,0.223,4.454,2.309c0.088,0.525,0.125,1.068,0.125,1.604c0.01,4.227,0.021,8.45-0.01,12.676
		c-0.006,0.646,0.188,0.824,0.813,0.797c1.047-0.049,2.1-0.047,3.146,0c0.598,0.025,0.785-0.144,0.772-0.76
		C126.459,69.75,126.507,67.649,126.479,65.549z M108.042,56.44c-2.717-0.045-5.435-0.018-8.149-0.022
		c-0.259,0-0.531,0.071-0.781-0.069c0.154-0.627,9.16-22.856,9.787-23.845c0,0.232,0,0.461,0,0.693c0,7.449-0.012,14.9,0.018,22.35
		C108.916,56.241,108.771,56.457,108.042,56.44z"/>
	<path fill="#8EC641" d="M74.802,45.551c-1.636-9.241-6.825-15.58-15.598-18.936c-2.196-0.84-4.501-1.261-6.858-1.284
		c-0.746-0.008-1.036-0.234-0.963-1.015c0.075-0.8-0.046-1.62,0.035-2.418c0.083-0.815-0.275-0.922-0.957-0.877
		c-2.424,0.162-4.79,0.58-7.085,1.411c-9.16,3.315-15.334,11.84-15.578,21.576c-0.016,0.603-0.234,0.715-0.759,0.698
		c-0.968-0.031-1.939,0.023-2.906-0.022c-0.56-0.026-0.678,0.194-0.647,0.697c0.09,1.478,0.229,2.951,0.563,4.394
		c2.485,10.738,11.392,18.069,22.528,18.527c0.455,0.02,0.608,0.145,0.595,0.6c-0.03,0.994,0.018,1.992-0.018,2.986
		c-0.019,0.521,0.125,0.734,0.67,0.674c0.881-0.096,1.775-0.092,2.65-0.221c10.979-1.613,19.206-10.361,20.224-21.457
		c0.059-0.632-0.201-1.531,0.237-1.826c0.462-0.311,1.292-0.07,1.959-0.07c0-0.019,0-0.034,0-0.055c0.485,0,0.973-0.037,1.453,0.012
		c0.606,0.063,0.738-0.211,0.684-0.741C74.938,47.318,74.956,46.421,74.802,45.551z M52.417,62.608
		c-8.571,1.836-17.422-4.146-18.917-12.78c-1.573-9.082,4.16-17.307,13.237-18.888c3.316-0.579,6.531-0.09,9.558,1.451l0,0
		c0.682,0.304,1.333,0.663,1.925,1.123c3.946,2.659,6.295,6.368,6.921,11.056C66.292,53.192,60.868,60.801,52.417,62.608z"/>
	<path fill="#606163" d="M97.624,67.801c-0.699,0.003-1.399,0.019-2.099-0.008c-0.412-0.015-0.565,0.113-0.565,0.547
		c0,0.431,0.151,0.575,0.565,0.543c0.348-0.024,0.699,0.005,1.049-0.005c0.3-0.006,0.427,0.091,0.412,0.426
		c-0.063,1.331-1.762,2.637-3.057,2.327c-1.459-0.349-2.563-1.853-2.619-3.571c-0.063-1.879,0.883-3.455,2.355-3.914
		c1.471-0.457,2.475,0.28,3.373,1.364c0.803-0.805,0.803-0.805,0.068-1.508c-1.555-1.489-3.824-1.469-5.352,0.054
		c-1.841,1.836-1.996,5.254-0.326,7.244c0.838,1,1.862,1.566,3.223,1.479c2.23-0.146,3.586-2.395,3.498-4.568
		C98.139,67.808,97.912,67.799,97.624,67.801z"/>
	<path fill="#606163" d="M89.436,70.157c-0.605,0.084-0.547-0.307-0.547-0.691c0.004-2.169,0.004-4.34,0.004-6.507
		c-0.056-0.01-0.104-0.022-0.158-0.039c-1.512,2.599-3.014,5.198-4.541,7.789c-0.299,0.507-0.025,0.515,0.359,0.511
		c0.862-0.012,1.723,0.027,2.582-0.016c0.566-0.028,0.875,0.083,0.775,0.732c-0.053,0.354-0.061,0.674,0.497,0.674
		c0.585-0.002,0.495-0.358,0.479-0.691c-0.023-0.445-0.012-0.797,0.607-0.72c0.359,0.048,0.328-0.267,0.33-0.507
		C89.83,70.413,89.84,70.103,89.436,70.157z M87.447,70.153c-0.535-0.021-1.067-0.004-1.777-0.004
		c0.734-1.271,1.411-2.438,2.084-3.604c0.051,0.016,0.102,0.031,0.15,0.046c0,1.03-0.01,2.062,0.006,3.093
		C87.916,70.031,87.791,70.166,87.447,70.153z"/>
	<path fill="#606163" d="M82.855,71.507c-0.834,0.024-1.666,0.008-2.545,0.008c0-0.133-0.021-0.199,0.002-0.231
		c0.777-1.132,1.551-2.259,2.346-3.375c0.4-0.563,0.635-1.185,0.715-1.856c0.176-1.523-0.823-2.898-2.268-3.132
		c-1.303-0.209-2.401,0.726-2.772,2.24c-0.14,0.575,0.056,0.612,0.526,0.61c0.422-0.004,0.438-0.261,0.529-0.553
		c0.221-0.695,0.684-1.216,1.442-1.195c0.778,0.021,1.239,0.545,1.478,1.281c0.289,0.899-0.216,1.562-0.664,2.219
		c-1.125,1.658-2.279,3.295-3.516,5.072c1.688,0,3.21-0.014,4.73,0.01c0.427,0.008,0.549-0.131,0.552-0.553
		C83.415,71.621,83.271,71.493,82.855,71.507z"/>
	<path fill="#606163" d="M106.756,66.547c-0.417-0.366-0.52-0.047-0.712,0.202c-0.142,0.18-0.204,0.534-0.589,0.26
		c-1.923-1.367-4.152,0.258-4.146,2.59c-0.019,1.407,0.724,2.652,1.817,3.045c1.013,0.366,2.157,0.058,2.819-0.797
		c0.806-1.039,0.938-2.222,0.512-3.422c-0.178-0.49-0.116-0.799,0.232-1.121C106.93,67.083,107.156,66.896,106.756,66.547z
		 M103.998,71.708c-0.88,0.007-1.693-0.958-1.705-2.021c-0.01-1.146,0.76-2.045,1.732-2.023c0.939,0.02,1.666,0.896,1.658,2.012
		C105.674,70.744,104.878,71.703,103.998,71.708z"/>
	<path fill="#5F6163" d="M100.21,69.631c0-0.834-0.015-1.667,0.007-2.5c0.01-0.387-0.184-0.43-0.496-0.429
		c-0.301,0.003-0.505,0.02-0.503,0.417c0.019,1.668,0.015,3.335,0.003,5.002c-0.003,0.336,0.088,0.489,0.45,0.479
		c0.333-0.011,0.563-0.035,0.547-0.468C100.193,71.3,100.21,70.465,100.21,69.631z"/>
	<path fill="#646567" d="M99.77,63.226c-0.479-0.012-0.703,0.35-0.697,0.795c0.008,0.442,0.216,0.791,0.72,0.758
		c0.461-0.023,0.588-0.379,0.615-0.741C100.382,63.583,100.214,63.231,99.77,63.226z"/>
	<path fill="#656668" d="M105.09,66.028c0.156,0.152,0.307,0.328,0.547,0.146c0.271-0.21,0.055-0.373-0.062-0.536
		c-0.247-0.352-0.503-0.697-0.767-1.039c-0.07-0.095-0.117-0.252-0.361-0.184c-0.119,0.091-0.324,0.193-0.453,0.359
		c-0.18,0.227,0.105,0.31,0.215,0.422C104.49,65.487,104.799,65.751,105.09,66.028z"/>
	<path fill="#FFFFFF" d="M58.219,33.515c-2.087,3.599-4.167,7.2-6.266,10.791c-0.179,0.306-0.119,0.501,0.045,0.79
		c0.835,1.457,0.566,3.141-0.631,4.164c-1.167,0.994-2.951,1.015-4.157,0.044c-1.208-0.973-1.535-2.699-0.706-4.151
		c0.232-0.405,0.094-0.629-0.078-0.929c-1.291-2.231-2.575-4.464-3.87-6.691c-0.254-0.438-0.432-0.873-0.167-1.364
		c0.444-0.818,1.469-0.75,1.997,0.156c1.284,2.203,2.551,4.417,3.826,6.624c0.563,0.972,1.464,0.966,2.028-0.019
		c2.019-3.512,4.036-7.025,6.055-10.537c-3.025-1.541-6.241-2.029-9.558-1.451c-9.079,1.58-14.811,9.806-13.238,18.889
		c1.495,8.635,10.346,14.613,18.917,12.781c8.452-1.809,13.875-9.418,12.723-18.039C64.513,39.883,62.166,36.173,58.219,33.515z"/>
	<path fill="#5F6163" d="M56.086,33.205c-1.889,3.284-3.791,6.564-5.688,9.845c-0.622,1.079-1.688,1.098-2.331,0.024
		c-1.242-2.076-2.428-4.185-3.649-6.273c-0.517-0.881-0.957-1.103-1.494-0.802c-0.545,0.304-0.566,0.791-0.046,1.688
		c1.188,2.047,2.352,4.105,3.566,6.134c0.353,0.59,0.41,1.063,0.114,1.713c-0.517,1.135-0.37,2.279,0.446,3.253
		c0.762,0.915,1.801,1.134,2.926,0.924c1.841-0.347,2.849-2.344,2.046-4.144c-0.311-0.698-0.278-1.255,0.098-1.889
		c1.812-3.05,3.538-6.152,5.347-9.204c0.209-0.353,0.316-0.818,0.798-0.958c-0.592-0.46-1.243-0.819-1.925-1.123l0,0l0,0
		C56.452,32.719,56.229,32.955,56.086,33.205z"/>
	<path fill="#5F6163" d="M48.213,42.947c-1.275-2.208-2.542-4.42-3.826-6.623c-0.528-0.906-1.553-0.975-1.997-0.156
		c-0.266,0.491-0.087,0.927,0.167,1.364c1.295,2.227,2.58,4.46,3.87,6.69c0.173,0.299,0.31,0.525,0.078,0.93
		c-0.831,1.452-0.503,3.178,0.706,4.15c1.206,0.973,2.991,0.951,4.157-0.044c1.197-1.022,1.468-2.706,0.631-4.164
		c-0.164-0.287-0.224-0.483-0.045-0.79c2.099-3.591,4.179-7.192,6.266-10.791c-0.481,0.14-0.588,0.606-0.798,0.958
		c-1.81,3.052-3.536,6.153-5.348,9.204c-0.376,0.634-0.409,1.191-0.098,1.89c0.804,1.8-0.205,3.795-2.044,4.142
		c-1.125,0.211-2.164-0.011-2.926-0.922c-0.814-0.972-0.963-2.118-0.446-3.253c0.297-0.65,0.238-1.123-0.113-1.713
		c-1.214-2.029-2.378-4.087-3.565-6.134c-0.521-0.897-0.499-1.384,0.046-1.688c0.537-0.301,0.979-0.08,1.494,0.802
		c1.221,2.089,2.407,4.198,3.648,6.273c0.643,1.073,1.709,1.054,2.332-0.024c1.897-3.28,3.799-6.561,5.688-9.845
		c0.144-0.25,0.366-0.485,0.209-0.813l0,0c-2.019,3.512-4.036,7.025-6.055,10.537C49.676,43.913,48.775,43.919,48.213,42.947z"/>
</g>
</svg>
