<?xml version="1.0" encoding="utf-8"?>
<!-- Generator: Adobe Illustrator 16.0.0, SVG Export Plug-In . SVG Version: 6.00 Build 0)  -->
<!DOCTYPE svg PUBLIC "-//W3C//DTD SVG 1.1//EN" "http://www.w3.org/Graphics/SVG/1.1/DTD/svg11.dtd">
<svg version="1.1" id="Layer_1" xmlns="http://www.w3.org/2000/svg" xmlns:xlink="http://www.w3.org/1999/xlink" x="0px" y="0px"
	 width="150px" height="93.795px" viewBox="0 0 150 93.795" enable-background="new 0 0 150 93.795" xml:space="preserve">
<g>
	<path fill="none" d="M34.47,54.431c0.867-0.002,1.734,0.004,2.601-0.006c0.532-0.006,0.742-0.277,0.605-0.799
		c-0.636-2.418-1.271-4.836-1.991-7.57c-0.686,2.691-1.272,5.07-1.909,7.436C33.59,54.183,33.809,54.433,34.47,54.431z"/>
	<path fill="none" d="M53.311,42.43c-3.93-0.06-7.325,3.396-7.362,7.491c-0.038,4.209,3.233,7.707,7.244,7.746
		c3.953,0.037,7.305-3.379,7.35-7.49C60.589,45.962,57.348,42.491,53.311,42.43z"/>
	<path fill="#DF5635" d="M80.072,39.683c-0.435-0.383-3.039,0.002-3.405,0.512c-1.036,1.445-2.07,2.893-3.078,4.356
		c-0.469,0.683-0.851,0.713-1.328,0.005c-0.765-1.133-1.71-2.168-2.327-3.372c-0.792-1.548-2.004-1.742-3.498-1.61
		c-0.559,0.049-0.815,0.172-0.812,0.783c0.038,6.703,0.056,13.406,0.079,20.109c0.942-0.01,1.886-0.02,2.828-0.029
		c0.058-0.002,0.115-0.002,0.172-0.002c0-4.994,0-9.986,0-14.979c0.115-0.041,0.23-0.08,0.345-0.119
		c1.282,1.764,2.563,3.527,3.9,5.367c1.336-1.854,2.582-3.58,3.897-5.406c0.011-0.014,0.021-0.027,0.031-0.043
		c0.008,0.016,0.009,0.027,0.017,0.043c0.345,0.666,0.222,1.166,0.226,1.639c0.041,4.512,0.065,9.025,0.095,13.539
		c0.061-0.002,0.121-0.002,0.182-0.004c0.939-0.014,1.879-0.029,2.818-0.043c0.01-6.615,0.021-13.229,0.023-19.842
		C80.238,40.28,80.351,39.929,80.072,39.683z"/>
	<path fill="#DF5635" d="M50.819,39.866c-4.965,1.181-8.148,5.542-7.917,10.846c0.223,5.086,3.978,9.014,9.362,9.791
		c0.554,0.002,1.107,0.004,1.661,0.006c0.182-0.018,0.363-0.033,0.544-0.055c6.009-0.729,10.112-6.396,9.011-12.447
		C62.436,42.265,56.578,38.498,50.819,39.866z M53.193,57.667c-4.011-0.039-7.282-3.537-7.244-7.746
		c0.037-4.096,3.432-7.551,7.362-7.491c4.037,0.062,7.278,3.532,7.232,7.747C60.499,54.288,57.146,57.704,53.193,57.667z"/>
	<g>
		<path fill="none" d="M21.428,49.704c-1.846-0.031-1.846-0.031-1.847,1.859c0,0.684,0,1.365,0,2.049
			c0,1.047,0.022,2.094-0.007,3.139c-0.018,0.615,0.156,0.957,0.841,0.898c0.452-0.039,0.913,0.018,1.363-0.031
			c2.183-0.23,3.653-1.924,3.568-4.084C25.255,51.229,23.733,49.741,21.428,49.704z"/>
		<path fill="none" d="M20.876,46.735c1.912,0.068,2.662-0.522,2.7-2.039c0.039-1.516-0.663-2.14-2.669-2.168
			c-0.665-0.063-1.689-0.286-1.803,1.099C18.993,44.978,18.432,46.647,20.876,46.735z"/>
		<path fill="#DF5635" d="M26.045,48.511c-0.611-0.541-0.363-0.822-0.073-1.314c1.97-3.349-0.263-7.443-4.156-7.582
			c-1.726-0.062-3.456,0.016-5.184,0.029c-0.094-0.008-0.188-0.016-0.281-0.023c0,6.947,0,13.893,0,20.84
			c-0.042,0.541,6.046,0.123,6.053,0.047c2.945-0.561,4.962-2.248,5.799-5.119C28.993,52.681,28.116,50.345,26.045,48.511z
			 M19.104,43.627c0.114-1.385,1.139-1.161,1.803-1.099c2.006,0.028,2.708,0.652,2.669,2.168c-0.039,1.517-0.788,2.107-2.7,2.039
			C18.432,46.647,18.993,44.978,19.104,43.627z M21.778,57.618c-0.45,0.049-0.911-0.008-1.363,0.031
			c-0.685,0.059-0.858-0.283-0.841-0.898c0.029-1.045,0.008-2.092,0.007-3.139c0-0.684,0-1.365,0-2.049
			c0.001-1.891,0.001-1.891,1.847-1.859c2.305,0.037,3.827,1.525,3.918,3.83C25.432,55.694,23.961,57.388,21.778,57.618z"/>
	</g>
	<path fill="#50A5B0" d="M100.996,44.546c-0.994,0.4-2.025,0.207-3.119,0.313c2.834,3.465,2.592,8.125-0.452,10.842
		c-2.99,2.67-7.227,2.557-9.996-0.268c-2.854-2.908-3.002-7.734-0.065-10.643c2.226-2.203,4.56-4.43,8.383-4.689
		c-6.4-1.678-12.225,1.928-13.357,7.883c-1.187,6.238,2.94,11.758,9.361,12.523c0.553-0.002,1.106-0.002,1.66-0.004
		c0.181-0.023,0.363-0.039,0.543-0.07c7.152-1.229,11.056-8.543,7.961-14.943C101.72,45.087,101.625,44.293,100.996,44.546z"/>
	<g>
		<path fill="none" d="M35.685,46.056c-0.686,2.691-1.272,5.07-1.909,7.436c-0.186,0.691,0.032,0.941,0.693,0.939
			c0.867-0.002,1.734,0.004,2.601-0.006c0.532-0.006,0.742-0.277,0.605-0.799C37.04,51.208,36.404,48.79,35.685,46.056z"/>
		<path fill="#DF5635" d="M42.675,60.733c-0.003-0.303-3.592-13.607-5.18-20.014c-0.273-1.105-0.855-1.168-1.736-1.144
			c-0.869,0.023-1.579-0.089-1.879,1.136c-1.596,6.5-3.305,12.973-4.974,19.453c-0.072,0.189-0.143,0.379-0.215,0.568
			c1.097,0,2.194,0,3.291,0c-0.007-0.1-0.014-0.199-0.021-0.301c0.875-3.029,0.875-3.029,3.522-3.029
			c3.087-0.002,3.087-0.002,3.927,3.025c-0.008,0.102-0.017,0.203-0.025,0.305C40.481,60.733,41.578,60.733,42.675,60.733z
			 M37.071,54.425c-0.867,0.01-1.734,0.004-2.601,0.006c-0.661,0.002-0.879-0.248-0.693-0.939c0.637-2.365,1.223-4.744,1.909-7.436
			c0.719,2.734,1.355,5.152,1.991,7.57C37.813,54.147,37.603,54.419,37.071,54.425z"/>
	</g>
	<path fill="#DF5635" d="M106.318,39.585c-0.223,0.037-1.483,0.194-1.48,0.786c0.036,6.698,0.055,13.397,0.077,20.095
		c1.001-0.01,2.001-0.02,3.001-0.031c0.011-1.275,0.031-2.551,0.032-3.826c0.003-5.15-0.056-10.303,0.039-15.451
		C108.013,39.776,107.58,39.37,106.318,39.585z"/>
	<path fill="#54A8B2" d="M95.926,46.382c-0.507,0.523-1.029,1.031-1.546,1.547c-1.774,1.764-1.771,1.76-3.534,0.031
		c-0.281-0.275-0.486-0.664-1.118-0.777c-0.069,0.105-0.203,0.291-0.319,0.488c-0.195,0.328,0.078,0.5,0.26,0.684
		c0.8,0.811,1.609,1.611,2.412,2.418c0.272,0.275,0.526,0.514,0.907,0.129c1.249-1.264,2.507-2.518,3.768-3.77
		c0.294-0.293,0.241-0.535-0.031-0.812C96.416,46.011,96.186,46.112,95.926,46.382z"/>
	<path fill="#53A7B2" d="M98.741,35.545c-1.066-0.08-1.644-1.36-2.507-0.435c-0.658,0.707-1.074,1.639-1.639,2.533
		C96.665,38.214,97.349,36.561,98.741,35.545z"/>
	<path fill="#E05938" d="M37.937,36.614c1.223-1.152,1.184-1.241-0.37-1.794c-0.524-0.187-0.743-0.024-0.983,0.37
		c-0.47,0.771-0.96,1.529-1.534,2.438C36.691,37.789,36.691,37.789,37.937,36.614z"/>
	<path fill="#DF5636" d="M97.607,40.907c-2.242-0.421-4.229,0.027-6.096,1.252c-0.121,0.11-0.242,0.221-0.363,0.332
		c0.367,0.047,0.367,0.047,0.947-0.107c1.051-0.045,2.102-0.012,3.104,0.316c1.077,0.354,2.104,0.877,3.195,1.168
		c2.231,0.595,4.078-0.988,4.002-3.423C100.866,41.419,99.201,41.204,97.607,40.907z"/>
	<g>
		<path fill="#A5A5A5" d="M110.546,58.849c-0.562,0.012-0.823,0.451-0.786,0.922c0.033,0.43,0.396,0.73,0.877,0.66
			c0.449-0.066,0.692-0.385,0.78-0.869C111.241,59.2,111.015,58.837,110.546,58.849z"/>
		<path fill="#A5A5A5" d="M139.497,55.79c-0.541-2.658-2.254-3.26-4.389-1.537c-0.27,0.217-0.409,0.533-0.87,0.129
			c-1.611-1.41-1.875-1.404-3.803-0.354c-0.222,0.121-0.446,0.434-0.547-0.082c-0.056-0.283-0.111-0.576-0.475-0.518
			c-0.438,0.068-0.37,0.455-0.371,0.76c-0.003,2.182,0.003,4.363,0.006,6.545c0.183,0,0.602,0,0.785,0
			c0.07-1.293-0.06-2.234,0.046-3.352c0.09-0.947,0.104-1.924,0.899-2.619c0.577-0.506,1.248-0.82,1.998-0.467
			c0.669,0.314,0.971,0.893,0.955,1.664c-0.032,1.592-0.018,3.184-0.022,4.773c0.274,0,0.642,0,0.916,0
			c0.249-1.295,0.077-2.422,0.153-3.635c0.04-0.641,0.05-1.273,0.413-1.83c0.509-0.781,1.177-1.293,2.158-1.039
			c0.929,0.242,1.274,0.949,1.28,1.855c0.011,1.453,0.016,2.908,0.022,4.361c0.038,0.027,0.058,0.055,0.074,0.08
			c0.037,0.021,0.068,0.043,0.111,0.063c0.469,0.031,0.783-0.109,0.761-0.658C139.544,58.552,139.723,57.165,139.497,55.79z"/>
		<path fill="#A5A5A5" d="M122.511,53.442c-1.866,0.818-2.578,2.971-1.803,4.957c0.538,1.377,2.396,2.602,4.521,1.928
			c2.057-0.652,2.978-2.951,2.174-4.932C126.642,53.517,124.389,52.618,122.511,53.442z M123.943,59.636
			c-1.563-0.02-2.626-1.195-2.594-2.863c0.029-1.516,1.204-2.744,2.627-2.75c1.519-0.006,2.826,1.27,2.827,2.756
			C126.804,58.339,125.486,59.655,123.943,59.636z"/>
		<path fill="#A5A5A5" d="M115.722,53.993c0.891-0.104,1.704,0.176,2.396,0.756c0.25,0.209,0.486,0.471,0.816,0.17
			c0.376-0.346,0.014-0.564-0.181-0.783c-1.054-1.191-3.082-1.357-4.804-0.404c-1.309,0.723-2.039,2.557-1.697,3.965
			c0.438,1.807,1.748,2.676,3.36,3.037c0.183,0,0.365,0,0.548,0c1.506-0.361,1.776-0.387,2.438-1.09
			c0.237-0.252,0.661-0.471,0.322-0.883c-0.295-0.357-0.562-0.059-0.805,0.148c-0.139,0.117-0.272,0.254-0.433,0.332
			c-1.253,0.607-2.477,0.576-3.613-0.266c-1.026-0.758-1.137-1.871-0.845-2.967C113.549,54.8,114.486,54.138,115.722,53.993z"/>
	</g>
</g>
</svg>
