<?xml version="1.0" encoding="utf-8"?>
<!-- Generator: Adobe Illustrator 16.0.0, SVG Export Plug-In . SVG Version: 6.00 Build 0)  -->
<!DOCTYPE svg PUBLIC "-//W3C//DTD SVG 1.1//EN" "http://www.w3.org/Graphics/SVG/1.1/DTD/svg11.dtd">
<svg version="1.1" id="Layer_1" xmlns="http://www.w3.org/2000/svg" xmlns:xlink="http://www.w3.org/1999/xlink" x="0px" y="0px"
	 width="150px" height="93.795px" viewBox="0 0 150 93.795" enable-background="new 0 0 150 93.795" xml:space="preserve">
<rect fill="#7A4EF0" width="150" height="93.795"/>
<g>
	<path fill-rule="evenodd" clip-rule="evenodd" fill="#FEFEFE" d="M88.168,40.681c1.312,0.741,2.743,0.323,4.118,0.39
		c1.345,0.064,1.813,0.634,1.448,1.916c-0.019,0.063-0.032,0.129-0.052,0.193c-1.756,5.59-0.206,4.907-6.201,4.942
		c-2.526,0.015-5.053-0.226-7.581-0.292c-1.594-0.043-1.566-1.14-1.568-2.235c-0.006-5.4-0.005-10.801,0.002-16.201
		c0.001-1.279,0.079-2.528-1.352-3.266c-0.742-0.382-0.441-1.192-0.292-1.82c0.511-2.14,1.101-4.26,1.587-6.405
		c0.24-1.063,0.891-1.39,1.868-1.392c1.733-0.003,3.469,0.031,5.199-0.057c1.658-0.083,2.219,0.644,2.206,2.255
		c-0.053,6.266-0.028,12.534-0.017,18.801c0.003,0.923-0.139,1.874,0.321,2.749C88.101,40.294,88.204,40.435,88.168,40.681z"/>
	<path fill-rule="evenodd" clip-rule="evenodd" fill="#FEFEFE" d="M42.63,80.233c-2.105-0.871-2.27-3.452-0.331-5.177
		c0.712-2.716,0.154-5.485,0.34-8.225c0.041-0.608-0.029-1.224-0.009-1.836c0.026-0.787,0.073-1.607-0.788-2.039
		c-0.911-0.457-1.492,0.161-2.085,0.699c-0.326,1.446,0.055,3.486-2.555,3c-0.48-0.089-1.078-0.2-1.094-0.695
		c-0.087-2.722-0.965-5.51,0.551-8.125c0.808-0.442,1.683-0.207,2.522-0.211c4.899-0.026,9.798-0.022,14.697-0.002
		c0.642,0.003,1.325-0.214,1.928,0.21c0.739,0.521,0.829,1.288,0.823,2.11c-0.014,1.91-0.196,3.849,1.235,5.453
		c0.42,0.472,0.321,1.11-0.355,1.233c-0.958,0.177-2.05,0.333-2.591-0.808c-0.215-0.454-0.186-1.028-0.247-1.551
		c-0.091-0.773-0.35-1.448-1.188-1.636c-0.819-0.183-1.598-0.127-1.989,0.809c0.328,2.942,0.079,5.896,0.136,8.845
		c0.018,0.92,0.049,1.831,0.243,2.732c1.705,1.412,1.91,2.97,0.677,5.126c-0.046,0.047-0.093,0.137-0.137,0.135
		C49.152,80.178,45.889,80.68,42.63,80.233z"/>
	<path fill-rule="evenodd" clip-rule="evenodd" fill="#FEFEFE" d="M65.869,58.135c1.133,0,2.268-0.029,3.4,0.011
		c0.77,0.026,1.804-0.196,2.068,0.772c0.307,1.125,0.7,2.543-0.347,3.383c-1.255,1.009-0.988,1.994-0.568,3.174
		c0.648,1.821,1.235,3.664,1.879,5.486c0.237,0.67,0.379,1.564,1.323,1.521c0.795-0.036,0.955-0.823,1.18-1.449
		c0.609-1.693,1.208-3.39,1.825-5.081c0.479-1.32,1.04-2.502-0.412-3.769c-0.859-0.75-0.524-2.184-0.196-3.236
		c0.324-1.049,1.437-0.749,2.265-0.779c1.266-0.046,2.535-0.055,3.8-0.002c1.729,0.071,2.324,1.084,1.609,2.672
		c-0.367,0.815-1.057,1.366-1.703,1.939c-2.991,2.645-4.457,5.941-4.171,9.94c0.171,2.406-0.997,4.376-1.924,6.428
		c-0.331,0.733-1.028,0.956-1.813,1.037c-4.681,0.49-4.977,0.318-6.807-4.114c-1.501-3.636-3.015-7.266-4.508-10.904
		c-0.433-1.058-0.89-2.022-1.932-2.697c-1.239-0.801-0.88-2.142-0.672-3.294c0.208-1.159,1.257-1,2.103-1.021
		c1.2-0.03,2.4-0.008,3.601-0.008C65.869,58.141,65.869,58.138,65.869,58.135z"/>
	<path fill-rule="evenodd" clip-rule="evenodd" fill="#FEFEFE" d="M63.432,35.799c-1.334-1.035-1.484-2.311-0.981-3.869
		c0.469-1.452,0.753-2.969,1.048-4.471c0.248-1.267,0.952-1.803,2.229-1.759c1.397,0.048,2.799,0.061,4.195-0.003
		c1.586-0.072,2.084,0.671,2.052,2.177c-0.076,3.596-0.052,7.192-0.051,10.789c0,0.791-0.112,1.608,0.336,2.338L72.258,41
		c1.501,1.357,1.655,4.736,0.283,6.27c-0.087,0.098-0.182,0.195-0.288,0.27c-0.958,0.68-7.768,0.21-8.749-0.6
		c-0.542-1.752-0.319-3.566-0.193-5.319C63.451,39.674,63.367,37.738,63.432,35.799z"/>
	<path fill-rule="evenodd" clip-rule="evenodd" fill="#FEFEFE" d="M55.806,57.833c-6.383,0.001-12.765,0.002-19.147,0.003
		c0.498-0.413,1.099-0.417,1.695-0.417c5.42-0.002,10.841-0.008,16.262,0.013C55.023,57.434,55.577,57.208,55.806,57.833z"/>
	<path fill-rule="evenodd" clip-rule="evenodd" fill="#FEFEFE" d="M42.63,80.233c3.304-0.377,6.612-0.175,9.92-0.086
		C49.251,81.047,45.941,80.773,42.63,80.233z"/>
	<path fill="#FEFEFE" d="M120.797,40.891c-0.719-0.432-0.554-1.447-0.553-2.244c0.001-3.803-0.011-7.605,0.038-11.408
		c0.017-1.338-0.465-1.986-1.869-1.922c-1.397,0.064-2.805,0.086-4.201,0.009c-1.75-0.096-2.354,0.684-2.324,2.382
		c0.069,3.935,0.048,7.873,0.012,11.808c-0.021,2.239-0.8,2.858-2.969,2.602c-1.771-0.208-2.579-1.202-2.589-2.945
		c-0.021-3.735-0.059-7.47-0.083-11.206c-0.005-0.861,0.141-1.747-0.463-2.495c-2.467-0.785-4.935-0.781-7.402-0.002
		c-1.485,2.541-1.391,5.517-2.256,8.229c-0.132,0.414,0.083,0.826,0.456,1.027c1.165,0.627,1.107,1.698,1.109,2.783
		c0.004,2.8-0.025,5.601,0.51,8.374c0.313,1.617,1.07,2.419,2.862,2.302c2.26-0.146,4.535-0.045,6.803-0.047
		c0.875,0,1.731-0.024,2.464-0.621c1.054-0.857,1.524-0.338,1.75,0.765c0.423,2.062,1.771,2.85,3.782,2.736
		c0.8-0.044,1.602-0.061,2.401-0.045c1.256,0.023,2.012-0.561,2.293-1.776c0.347-1.495,0.662-2.997,1.051-4.48
		C121.992,43.29,122.535,41.935,120.797,40.891z"/>
	<path fill="#FDFDFD" d="M68.009,15.286c-0.911,0.014-1.893-0.191-2.67,0.51c-0.905,0.816-1.904,5.905-1.417,7.123
		c2.35,0.711,4.695,0.783,7.035-0.047c0.825-0.729,0.831-1.771,1.05-2.733C73.125,15.221,73.126,15.211,68.009,15.286z"/>
	<g>
		<path fill="#FEFEFE" d="M59.404,39.879c-0.538-2.031-1.316-3.952-3.01-5.294c-1.435-1.137-1.453-2.045-0.128-3.38
			c2.938-2.959,3.01-6.584,1.674-10.237c-1.208-3.301-4.256-4.167-7.294-4.343c-4.452-0.258-8.928-0.084-13.394-0.117
			c-1.096-0.008-1.714,0.424-1.961,1.541c-0.475,2.146-0.983,4.291-1.601,6.399c-0.352,1.201,0.044,1.912,1.052,2.444
			c-0.039,0.25,0.069,0.377,0.322,0.382c0.456,0.804,0.316,1.688,0.317,2.543c0.008,6.126-0.006,12.253-0.001,18.379
			c0,0.73,0.013,1.47,0.124,2.188c0.092,0.592,0.296,1.187,1.127,1.106c4.579-0.44,9.184,0.155,13.764-0.376
			c5.88-0.682,7.547-2.104,8.999-7.826C59.824,42.153,59.8,41.017,59.404,39.879z M46.885,25.374
			c1.791,0.037,3.063,1.009,3.054,2.437c-0.009,1.408-1.295,2.366-3.099,2.399c-1.727,0.032-2.138-0.995-2.099-2.503
			C44.682,26.28,45.192,25.339,46.885,25.374z M49.669,41.038c-0.912,0.943-3.646,1.233-4.436,0.47
			c-0.648-0.626-0.79-3.647-0.054-4.358c1.3-1.258,2.62-0.526,3.889,0.176c0.002-0.002,0.003-0.003,0.005-0.005
			C50.591,38.293,50.837,39.832,49.669,41.038z"/>
	</g>
	<g>
		<path fill="#FEFEFE" d="M90.188,63.033c-5.037-0.009-8.922,3.679-8.989,8.533c-0.072,5.19,3.669,8.983,8.897,9.021
			c4.98,0.037,8.775-3.81,8.805-8.926C98.928,67.015,94.916,63.044,90.188,63.033z M82.686,69.421
			c-0.02-1.502,0.92-2.261,2.271-2.516c1.533,0.208,2.505,1.005,2.455,2.476c-0.048,1.438-1.019,2.375-2.478,2.359
			C83.549,71.726,82.703,70.816,82.686,69.421z M88.284,75.494c-0.06,1.374-0.882,2.215-2.277,2.312
			c-1.272,0.087-2.631-1.324-2.481-2.593c0.165-1.388,1.074-2.061,2.453-2.202C87.376,73.247,88.35,73.96,88.284,75.494z
			 M88.038,66.254c-0.034-1.511,1.104-2.129,2.497-2.319c1.391,0.224,2.474,0.918,2.374,2.417c-0.092,1.368-0.997,2.399-2.475,2.348
			C88.998,68.648,88.068,67.649,88.038,66.254z M91.961,79.001c-1.373-0.246-2.143-1.177-2.016-2.541
			c0.135-1.468,1.131-2.18,2.594-2.218c1.331,0.304,2.187,1.04,2.176,2.461C94.707,77.997,93.238,79.229,91.961,79.001z
			 M95.567,73.079c-1.517-0.128-2.6-0.768-2.593-2.302c0.006-1.434,0.905-2.45,2.373-2.458c1.469-0.006,2.348,1.013,2.404,2.439
			C97.81,72.191,96.834,72.868,95.567,73.079z"/>
	</g>
	<g>
		<path fill="#FEFEFE" d="M102.613,77.436c-0.042,0.195-0.114,0.365-0.219,0.51c-0.103,0.145-0.239,0.258-0.409,0.339
			c-0.169,0.082-0.379,0.122-0.629,0.122c-0.228,0-0.434-0.04-0.616-0.122c-0.182-0.081-0.335-0.218-0.46-0.411
			c-0.064-0.092-0.112-0.19-0.144-0.297c-0.031-0.105-0.055-0.215-0.069-0.329c-0.014-0.112-0.021-0.225-0.021-0.336
			c0-0.112,0-0.224,0-0.334v-1.354c0-0.119,0.001-0.237,0.004-0.353c0.002-0.115,0.012-0.229,0.027-0.343
			c0.017-0.112,0.044-0.223,0.083-0.33s0.095-0.211,0.168-0.312c0.12-0.158,0.272-0.272,0.455-0.341
			c0.185-0.07,0.372-0.104,0.565-0.104c0.227,0,0.422,0.038,0.589,0.115c0.166,0.075,0.301,0.18,0.407,0.313
			c0.105,0.134,0.185,0.292,0.234,0.474c0.051,0.184,0.076,0.38,0.076,0.593v0.145h-0.745c0-0.102-0.005-0.206-0.015-0.315
			c-0.009-0.107-0.033-0.209-0.071-0.303c-0.04-0.095-0.096-0.172-0.171-0.231c-0.073-0.061-0.176-0.09-0.305-0.09
			c-0.137,0-0.241,0.029-0.315,0.09c-0.074,0.06-0.13,0.136-0.166,0.228c-0.037,0.093-0.059,0.192-0.065,0.301
			c-0.008,0.108-0.011,0.212-0.011,0.313v1.607c0,0.101,0.002,0.211,0.007,0.331c0.004,0.121,0.026,0.231,0.062,0.332
			c0.037,0.102,0.093,0.188,0.17,0.258c0.076,0.071,0.186,0.105,0.326,0.105c0.14,0,0.249-0.035,0.329-0.109
			c0.079-0.072,0.138-0.161,0.173-0.268s0.058-0.222,0.065-0.346c0.008-0.126,0.012-0.237,0.012-0.34h0.742v0.159
			C102.678,77.028,102.656,77.24,102.613,77.436z"/>
		<path fill="#FEFEFE" d="M105.888,76.803c0,0.207-0.014,0.407-0.042,0.597c-0.028,0.19-0.105,0.373-0.23,0.544
			c-0.122,0.17-0.275,0.29-0.46,0.358c-0.185,0.069-0.379,0.104-0.581,0.104c-0.203,0-0.396-0.035-0.579-0.104
			c-0.184-0.068-0.338-0.188-0.463-0.358c-0.125-0.162-0.202-0.344-0.231-0.544s-0.044-0.399-0.044-0.597v-1.758
			c0-0.203,0.017-0.401,0.048-0.594c0.032-0.193,0.107-0.374,0.228-0.54c0.12-0.17,0.272-0.291,0.459-0.363
			c0.187-0.07,0.38-0.106,0.583-0.106c0.207,0,0.4,0.036,0.581,0.106c0.18,0.072,0.334,0.193,0.46,0.363
			c0.125,0.162,0.202,0.342,0.23,0.54s0.042,0.396,0.042,0.594V76.803z M105.146,75.059c0-0.11-0.004-0.223-0.009-0.336
			c-0.007-0.113-0.035-0.22-0.087-0.321c-0.049-0.087-0.117-0.152-0.203-0.196c-0.085-0.043-0.177-0.064-0.273-0.064
			c-0.141,0-0.251,0.026-0.327,0.082s-0.133,0.128-0.169,0.218c-0.037,0.089-0.059,0.188-0.065,0.297
			c-0.008,0.107-0.01,0.215-0.01,0.321v1.73c0,0.105,0.002,0.213,0.01,0.321c0.007,0.108,0.028,0.207,0.065,0.297
			c0.036,0.09,0.093,0.162,0.169,0.217c0.076,0.056,0.187,0.082,0.327,0.082c0.139,0,0.247-0.026,0.324-0.082
			c0.078-0.055,0.135-0.127,0.17-0.217c0.036-0.09,0.058-0.188,0.065-0.297s0.013-0.216,0.013-0.321V75.059z"/>
		<path fill="#FEFEFE" d="M109.374,78.335V74.79l-0.848,3.545h-0.414l-0.829-3.545v3.545h-0.71v-4.823h1.092l0.667,3.029
			l0.671-3.029h1.077v4.823H109.374z"/>
	</g>
</g>
</svg>
