<?xml version="1.0" encoding="utf-8"?>
<!-- Generator: Adobe Illustrator 16.0.0, SVG Export Plug-In . SVG Version: 6.00 Build 0)  -->
<!DOCTYPE svg PUBLIC "-//W3C//DTD SVG 1.1//EN" "http://www.w3.org/Graphics/SVG/1.1/DTD/svg11.dtd">
<svg version="1.1" id="Layer_1" xmlns="http://www.w3.org/2000/svg" xmlns:xlink="http://www.w3.org/1999/xlink" x="0px" y="0px"
	 width="150px" height="93.795px" viewBox="0 0 150 93.795" enable-background="new 0 0 150 93.795" xml:space="preserve">
<rect fill="#27417C" width="150" height="93.795"/>
<g>
	<g>
		<g>
			<linearGradient id="SVGID_1_" gradientUnits="userSpaceOnUse" x1="32.146" y1="33.375" x2="32.146" y2="52.2212">
				<stop  offset="0" style="stop-color:#FBE51F"/>
				<stop  offset="1" style="stop-color:#F0951C"/>
			</linearGradient>
			<path fill="url(#SVGID_1_)" d="M26.586,50.821V29.903h6.146c1.782,0,3.063,0.418,3.845,1.256
				c0.724,0.787,1.101,2.208,1.129,4.262c0,1.116-0.105,1.993-0.314,2.631c-0.2,0.608-0.553,1.018-1.058,1.227
				c0.505,0.238,0.857,0.707,1.058,1.405c0.181,0.578,0.286,1.744,0.314,3.499c0,2.521-0.386,4.266-1.158,5.232
				c-0.791,0.938-2.177,1.406-4.159,1.406H26.586z M31.589,37.872c0.629,0,1.072-0.135,1.329-0.403
				c0.2-0.239,0.314-0.718,0.343-1.435c0-0.928-0.105-1.531-0.314-1.811c-0.229-0.328-0.629-0.492-1.2-0.492h-0.829v4.141H31.589z
				 M30.917,46.844h0.586c0.667,0,1.139-0.185,1.415-0.554c0.2-0.328,0.314-1.096,0.343-2.303c0-0.906-0.114-1.579-0.343-2.018
				c-0.267-0.389-0.658-0.584-1.172-0.584h-0.829V46.844z"/>
			<linearGradient id="SVGID_2_" gradientUnits="userSpaceOnUse" x1="44.9946" y1="33.375" x2="44.9946" y2="52.2212">
				<stop  offset="0" style="stop-color:#FBE51F"/>
				<stop  offset="1" style="stop-color:#F0951C"/>
			</linearGradient>
			<path fill="url(#SVGID_2_)" d="M39.878,38.171c0-2.191,0.391-3.702,1.172-4.529c0.81-0.877,2.125-1.316,3.944-1.316
				c1.839,0,3.159,0.43,3.959,1.286c0.743,0.867,1.129,2.388,1.158,4.56v7.072c0,2.174-0.386,3.693-1.158,4.561
				c-0.763,0.828-2.082,1.256-3.959,1.287c-1.849,0-3.164-0.43-3.944-1.287c-0.782-0.857-1.172-2.377-1.172-4.561V38.171z
				 M44.823,28.005h3.215l-1.786,3.215h-2.601L44.823,28.005z M45.938,45.856v-8.298c0-0.877-0.072-1.396-0.214-1.556
				c-0.143-0.229-0.386-0.344-0.729-0.344c-0.353,0-0.596,0.115-0.729,0.344c-0.105,0.16-0.171,0.679-0.2,1.556v8.298
				c0,0.828,0.067,1.361,0.2,1.6c0.124,0.199,0.367,0.299,0.729,0.299c0.324,0,0.567-0.1,0.729-0.299
				C45.866,47.257,45.938,46.724,45.938,45.856z"/>
			<linearGradient id="SVGID_3_" gradientUnits="userSpaceOnUse" x1="57.4927" y1="33.375" x2="57.4927" y2="52.2213">
				<stop  offset="0" style="stop-color:#FBE51F"/>
				<stop  offset="1" style="stop-color:#F0951C"/>
			</linearGradient>
			<path fill="url(#SVGID_3_)" d="M52.426,32.595h3.888v0.986c0.286-0.379,0.676-0.697,1.172-0.957
				c0.419-0.199,0.919-0.299,1.5-0.299c1.286,0,2.201,0.419,2.744,1.256c0.267,0.379,0.472,0.938,0.614,1.675
				c0.143,0.737,0.214,1.63,0.214,2.677v12.889h-4.13V37.559c0-0.867-0.067-1.386-0.2-1.556c-0.134-0.229-0.381-0.344-0.743-0.344
				c-0.353,0-0.596,0.115-0.729,0.344c-0.105,0.16-0.171,0.679-0.2,1.556v13.263h-4.13V32.595z"/>
			<linearGradient id="SVGID_4_" gradientUnits="userSpaceOnUse" x1="69.4692" y1="33.375" x2="69.4692" y2="52.2212">
				<stop  offset="0" style="stop-color:#FBE51F"/>
				<stop  offset="1" style="stop-color:#F0951C"/>
			</linearGradient>
			<path fill="url(#SVGID_4_)" d="M74.765,32.595v14.98c0,0.918-0.038,1.582-0.114,1.99c-0.048,0.398-0.177,0.807-0.386,1.225
				c-0.353,0.699-0.958,1.227-1.815,1.586c-0.734,0.338-1.777,0.523-3.13,0.553c-0.838,0-1.744-0.1-2.715-0.299
				c-0.877-0.219-1.687-0.529-2.43-0.928l1.343-2.436c0.219,0.1,0.776,0.303,1.672,0.611c0.495,0.121,0.962,0.18,1.4,0.18
				c0.724,0,1.263-0.154,1.615-0.463c0.352-0.309,0.529-0.797,0.529-1.465v-0.555c-0.305,0.381-0.729,0.703-1.272,0.973
				c-0.4,0.209-0.896,0.314-1.486,0.314c-1.134,0-1.963-0.379-2.487-1.137c-0.477-0.697-0.729-1.963-0.758-3.797v-5.996
				c0-2.104,0.272-3.554,0.815-4.352c0.572-0.837,1.477-1.256,2.715-1.256c0.562,0,1.053,0.1,1.472,0.299
				c0.438,0.22,0.829,0.539,1.172,0.957v-0.986H74.765z M70.734,43.839v-6.28c0-0.856-0.072-1.376-0.214-1.556
				c-0.115-0.229-0.357-0.344-0.729-0.344c-0.353,0-0.596,0.115-0.729,0.344c-0.143,0.18-0.214,0.699-0.214,1.556v6.28
				c0,0.807,0.071,1.34,0.214,1.6c0.133,0.189,0.376,0.299,0.729,0.328c0.353,0,0.595-0.109,0.729-0.328
				C70.663,45.22,70.734,44.686,70.734,43.839z"/>
			<linearGradient id="SVGID_5_" gradientUnits="userSpaceOnUse" x1="82.7539" y1="33.375" x2="82.7539" y2="52.2212">
				<stop  offset="0" style="stop-color:#FBE51F"/>
				<stop  offset="1" style="stop-color:#F0951C"/>
			</linearGradient>
			<path fill="url(#SVGID_5_)" d="M77.022,40.13c0-2.631,0.27-4.346,0.808-5.143c0.539-0.798,1.488-1.197,2.852-1.197
				c0.504,0,0.971,0.096,1.4,0.285c0.391,0.18,0.725,0.443,1,0.792v-1.958h-1.914v-1.66h1.914v-1.346h4.117v1.346h1.285v1.66h-1.285
				v17.912h-3.889v-0.943c-0.361,0.391-0.762,0.684-1.199,0.883c-0.439,0.18-0.986,0.27-1.645,0.27
				c-1.191,0-2.068-0.418-2.629-1.256c-0.277-0.439-0.477-1.008-0.602-1.705c-0.123-0.697-0.195-1.555-0.214-2.571V40.13z
				 M81.211,45.856c0,0.828,0.066,1.361,0.199,1.6c0.123,0.199,0.367,0.299,0.729,0.299c0.324,0,0.566-0.1,0.729-0.299
				c0.145-0.199,0.215-0.732,0.215-1.6v-6.787c0-0.877-0.07-1.411-0.215-1.601c-0.133-0.188-0.375-0.299-0.729-0.329
				c-0.334,0-0.576,0.109-0.729,0.329c-0.105,0.189-0.172,0.724-0.199,1.601V45.856z"/>
			<linearGradient id="SVGID_6_" gradientUnits="userSpaceOnUse" x1="94.459" y1="33.375" x2="94.459" y2="52.2212">
				<stop  offset="0" style="stop-color:#FBE51F"/>
				<stop  offset="1" style="stop-color:#F0951C"/>
			</linearGradient>
			<path fill="url(#SVGID_6_)" d="M89.771,38.082v-1.196c0-1.525,0.391-2.666,1.172-3.424s1.98-1.137,3.602-1.137
				c1.725,0,2.973,0.419,3.744,1.256c0.771,0.777,1.172,2.104,1.201,3.978v13.263h-3.916v-0.986
				c-0.391,0.438-0.781,0.768-1.172,0.986c-0.496,0.199-0.986,0.299-1.473,0.299c-1.125,0-1.992-0.363-2.602-1.092
				c-0.6-0.717-0.9-1.779-0.9-3.185v-2.691c0-1.425,0.309-2.512,0.922-3.259c0.615-0.748,2.285-1.725,5.01-2.932v-0.613
				c0-0.697-0.066-1.146-0.201-1.346c-0.113-0.229-0.355-0.344-0.729-0.344c-0.352,0-0.596,0.115-0.729,0.344
				c-0.143,0.16-0.215,0.609-0.215,1.346v0.733H89.771z M94.602,28.005h3.217l-1.787,3.215H93.43L94.602,28.005z M95.359,41.267
				c-0.686,0.439-1.162,0.877-1.43,1.316c-0.295,0.458-0.443,1.195-0.443,2.213v0.269v0.792c0,0.838,0.072,1.371,0.215,1.6
				c0.123,0.199,0.367,0.299,0.729,0.299c0.324,0,0.566-0.1,0.729-0.299c0.105-0.209,0.172-0.742,0.201-1.6V41.267z"/>
			<linearGradient id="SVGID_7_" gradientUnits="userSpaceOnUse" x1="106.6709" y1="33.375" x2="106.6709" y2="52.2213">
				<stop  offset="0" style="stop-color:#FBE51F"/>
				<stop  offset="1" style="stop-color:#F0951C"/>
			</linearGradient>
			<path fill="url(#SVGID_7_)" d="M111.639,38.321h-4.045v-1.675c0-0.269-0.096-0.503-0.287-0.702
				c-0.17-0.189-0.414-0.285-0.729-0.285c-0.295,0-0.529,0.096-0.699,0.285c-0.145,0.159-0.215,0.443-0.215,0.852
				c0,0.608,0.662,1.386,1.986,2.332c0.352,0.27,0.734,0.554,1.143,0.854c1.029,0.777,1.811,1.654,2.344,2.631
				c0.439,0.828,0.672,1.898,0.701,3.215c0,1.805-0.41,3.129-1.229,3.977c-0.754,0.828-2.029,1.256-3.83,1.287
				c-1.953,0-3.322-0.404-4.102-1.213c-0.783-0.826-1.174-2.268-1.174-4.32v-2.242h4.131v2.541c0,0.828,0.066,1.361,0.201,1.6
				c0.143,0.199,0.391,0.299,0.742,0.299c0.361,0,0.625-0.129,0.787-0.389c0.123-0.219,0.199-0.646,0.229-1.285
				c0-0.697-0.096-1.24-0.287-1.63c-0.152-0.349-0.57-0.808-1.258-1.376c-0.391-0.328-0.705-0.572-0.943-0.732
				c-2.361-1.894-3.543-3.662-3.543-5.308c0-1.575,0.414-2.745,1.242-3.514c0.848-0.798,2.105-1.196,3.773-1.196
				c1.801,0,3.088,0.389,3.859,1.166c0.801,0.748,1.201,1.965,1.201,3.648V38.321z"/>
			<linearGradient id="SVGID_8_" gradientUnits="userSpaceOnUse" x1="118.6826" y1="33.375" x2="118.6826" y2="52.2211">
				<stop  offset="0" style="stop-color:#FBE51F"/>
				<stop  offset="1" style="stop-color:#F0951C"/>
			</linearGradient>
			<path fill="url(#SVGID_8_)" d="M113.566,38.171c0-2.191,0.391-3.702,1.172-4.529c0.811-0.877,2.125-1.316,3.945-1.316
				c1.838,0,3.158,0.43,3.959,1.286c0.742,0.867,1.129,2.388,1.156,4.56v7.072c0,2.174-0.385,3.693-1.156,4.561
				c-0.764,0.828-2.082,1.256-3.959,1.287c-1.85,0-3.164-0.43-3.945-1.287s-1.172-2.377-1.172-4.561V38.171z M116.896,28.005h3.572
				l1.701,3.215h-2.645l-0.842-1.406l-0.844,1.406h-2.645L116.896,28.005z M118.512,24.058h3.215l-1.785,3.215h-2.602
				L118.512,24.058z M119.627,45.856v-8.298c0-0.877-0.072-1.396-0.215-1.556c-0.143-0.229-0.387-0.344-0.729-0.344
				c-0.354,0-0.596,0.115-0.729,0.344c-0.105,0.16-0.172,0.679-0.201,1.556v8.298c0,0.828,0.066,1.361,0.201,1.6
				c0.123,0.199,0.365,0.299,0.729,0.299c0.324,0,0.566-0.1,0.729-0.299C119.555,47.257,119.627,46.724,119.627,45.856z"/>
		</g>
		<g>
			<g>
				
					<radialGradient id="SVGID_9_" cx="-33.9497" cy="57.6963" r="13.2656" gradientTransform="matrix(0.9344 -0.3561 0.3561 0.9344 56.8714 -27.5063)" gradientUnits="userSpaceOnUse">
					<stop  offset="0" style="stop-color:#FFFFFF"/>
					<stop  offset="0.2693" style="stop-color:#FDFDFD"/>
					<stop  offset="0.4233" style="stop-color:#F4F4F4"/>
					<stop  offset="0.5482" style="stop-color:#E6E6E6"/>
					<stop  offset="0.6577" style="stop-color:#D3D3D3"/>
					<stop  offset="0.7569" style="stop-color:#B9B9B9"/>
					<stop  offset="0.8487" style="stop-color:#999999"/>
					<stop  offset="0.9332" style="stop-color:#747474"/>
					<stop  offset="1" style="stop-color:#525252"/>
				</radialGradient>
				<path fill="url(#SVGID_9_)" d="M40.737,32.514c-0.009,0.003-0.02,0.007-0.028,0.011c-2.436,0.928-4.368,2.75-5.441,5.135
					c-1.081,2.404-1.16,5.086-0.221,7.551c0.94,2.469,2.789,4.421,5.202,5.495c2.382,1.063,5.027,1.136,7.454,0.211
					c0.014-0.005,0.028-0.011,0.042-0.016c2.446-0.944,4.388-2.8,5.465-5.223c1.073-2.413,1.152-5.067,0.224-7.476
					C51.455,33.071,45.879,30.572,40.737,32.514z"/>
				<g>
					<path fill="#8C8C8C" d="M54.061,41.162c0-0.003,0-0.007,0.002-0.011h-0.002c-0.053-1-0.258-1.994-0.627-2.949
						c-0.461-1.197-1.12-2.248-1.924-3.137h0.003c-0.02-0.021-0.039-0.043-0.062-0.063c-2.64-2.87-6.802-3.966-10.714-2.488
						c-0.009,0.003-0.02,0.007-0.028,0.011c-2.196,0.837-3.979,2.4-5.094,4.445l-0.011,0.004c0.002,0.002,0.004,0.005,0.004,0.008
						c-0.12,0.221-0.234,0.445-0.34,0.678c-1.081,2.404-1.16,5.086-0.221,7.551c0.94,2.469,2.789,4.421,5.202,5.495
						c2.382,1.063,5.027,1.136,7.454,0.211c0.014-0.005,0.028-0.011,0.042-0.016c2.446-0.944,4.388-2.8,5.465-5.223
						C53.855,44.226,54.139,42.685,54.061,41.162z M47.703,50.791c-0.014,0.008-0.026,0.011-0.041,0.017
						c-1.741,0.664-3.593,0.805-5.379,0.433c-0.311-0.349-0.499-0.92-0.566-1.313l-0.114,0.02c0.063,0.366,0.229,0.888,0.501,1.258
						c-0.614-0.141-1.219-0.344-1.808-0.605c-1.071-0.477-2.026-1.129-2.842-1.922c0.334,0.158,0.739,0.292,1.096,0.285
						l-0.002-0.116c-0.469,0.009-1.032-0.237-1.375-0.454c-0.867-0.918-1.555-2.008-2.017-3.224
						c-0.292-0.763-0.483-1.547-0.577-2.336c0.07-0.492,0.775-1.034,0.782-1.039L35.293,41.7c-0.026,0.02-0.529,0.408-0.74,0.848
						c-0.146-1.641,0.126-3.299,0.821-4.843c0.091-0.2,0.19-0.396,0.292-0.587c0.088,0.194,0.232,0.486,0.299,0.563l0.086-0.076
						c-0.06-0.068-0.236-0.426-0.315-0.617c1.104-2.003,2.858-3.535,5.014-4.355c0.009-0.004,0.02-0.008,0.028-0.011
						c2.493-0.94,5.156-0.87,7.498,0.198c0.918,0.419,1.753,0.977,2.486,1.648c-1.02-0.688-2.669-1.518-3.552-1.695l-0.022,0.112
						c1.111,0.226,3.392,1.502,4.138,2.138c0.851,0.917,1.531,2.006,2.001,3.223c0.364,0.943,0.57,1.927,0.621,2.918
						c-0.016,1.307-0.654,3.512-1.064,4.311l0.102,0.053c0.339-0.659,0.748-2.021,0.95-3.189c-0.081,1.116-0.357,2.229-0.83,3.293
						C52.039,48.025,50.121,49.859,47.703,50.791z"/>
					<path fill="#8C8C8C" d="M36.997,42.803l-0.114,0.011c0.114,1.232,1.217,3.54,2.031,4.255l0.076-0.086
						C38.191,46.279,37.111,44.015,36.997,42.803z"/>
					<path fill="#8C8C8C" d="M41.532,33.622l-0.049-0.105c-1.472,0.677-2.682,1.807-3.596,3.361l0.099,0.059
						C38.889,35.403,40.081,34.288,41.532,33.622z"/>
					<path fill="#8C8C8C" d="M51.606,38.659c-0.683,0.34-1.456,0.723-1.833,1.01l0.07,0.092c0.366-0.279,1.136-0.662,1.815-0.997
						c0.306-0.153,0.596-0.298,0.811-0.413l-0.056-0.101C52.203,38.364,51.912,38.509,51.606,38.659z"/>
					<path fill="#8C8C8C" d="M49.083,43.802c0.61,0.74,1.431,1.981,1.753,2.827l0.109-0.04c-0.327-0.858-1.157-2.113-1.773-2.859
						L49.083,43.802z"/>
					<path fill="#8C8C8C" d="M44.344,50.03l-0.033,0.11c0.965,0.278,2.713,0.2,4.162-0.352c0.218-0.083,0.427-0.176,0.628-0.279
						l-0.055-0.103C47.584,50.171,45.434,50.345,44.344,50.03z"/>
					<path fill="#8C8C8C" d="M44.945,44.271c-0.362,0.816-1.73,2.793-2.351,3.467l0.086,0.079c0.639-0.696,1.998-2.657,2.371-3.498
						L44.945,44.271z"/>
					<path fill="#8C8C8C" d="M43.259,40.292c-0.923-0.209-2.636-0.47-4.217-0.545l-0.005,0.113c1.574,0.078,3.278,0.336,4.196,0.544
						L43.259,40.292z"/>
					<path fill="#8C8C8C" d="M46.399,37.439c-0.25-1.177-0.693-2.745-1.12-3.599l-0.102,0.053c0.42,0.845,0.862,2.4,1.11,3.57
						L46.399,37.439z"/>
				</g>
				<g>
					<path fill="#21693D" d="M35.94,37.464l2.23-0.85c0,0,0.209,1.594,0.869,3.188c-0.883,0.927-1.732,2.328-2.038,3.153
						l-1.79-1.068C35.21,41.888,34.607,40.012,35.94,37.464z"/>
					<path fill="#21693D" d="M45.816,32.054c0,0,1.22,0.387,1.691,0.866c-0.647,0.167-1.628,0.685-2.242,1.144
						c-1.372-0.539-3.104-0.489-3.972-0.371l0.336-1.412C41.629,32.28,43.751,31.601,45.816,32.054z"/>
					<path fill="#21693D" d="M38.439,48.947c0,0-0.088-1.228,0.468-2.042c1.059,0.543,2.462,0.784,3.914,0.665
						c0.491,1.104,1.25,1.953,1.755,2.533c0,0-1.739,0.802-2.404,0.83C41.249,50.709,39.684,50.138,38.439,48.947z"/>
					<path fill="#21693D" d="M49.856,49.717c0,0-0.512-0.02-1.007-0.216c0.751-0.479,1.806-2.302,1.982-3.05
						c0.949-0.311,1.727-0.657,2.182-1.187l0.16,0.418C53.173,45.683,51.993,48.386,49.856,49.717z"/>
					<path fill="#21693D" d="M49.946,39.662c0.148,1.647-0.29,2.912-0.702,4.25c-1.386,0.253-3.389,0.493-4.247,0.384
						c-0.644-1.541-1.405-3.035-1.751-3.948l3.097-2.896C46.343,37.452,49.686,39.192,49.946,39.662z"/>
					<path fill="#21693D" d="M53.259,37.919c0.468,1.215,0.58,1.935,0.682,2.791c-0.445-1.068-1.078-2.076-1.626-2.361
						c0.078-1.279-0.798-3.219-0.798-3.219S52.672,36.379,53.259,37.919z"/>
				</g>
			</g>
		</g>
	</g>
	<rect x="26.201" y="52.929" fill="#F0941D" width="37.588" height="2.188"/>
	<rect x="74.666" y="52.929" fill="#F0941D" width="49.133" height="2.188"/>
	<g>
		<path fill="#FFFFFF" d="M32.208,63.787l1.327-4.088c0.051-0.164,0.152-0.246,0.302-0.246c0.225,0,0.337,0.106,0.337,0.317
			c0,0.021-0.002,0.045-0.006,0.072l-0.018,0.078l-1.6,4.837c-0.055,0.145-0.166,0.216-0.332,0.216
			c-0.166,0-0.275-0.078-0.326-0.233l-1.404-4.046l-1.41,4.046c-0.052,0.155-0.16,0.233-0.326,0.233
			c-0.166,0-0.276-0.071-0.332-0.216l-1.6-4.837l-0.018-0.078c-0.004-0.027-0.006-0.052-0.006-0.072
			c0-0.211,0.112-0.317,0.337-0.317c0.15,0,0.253,0.082,0.308,0.246l1.321,4.088l1.416-4.1c0.06-0.156,0.162-0.234,0.308-0.234
			s0.247,0.078,0.302,0.234L32.208,63.787z"/>
		<path fill="#FFFFFF" d="M39.41,63.787l1.327-4.088c0.051-0.164,0.152-0.246,0.302-0.246c0.225,0,0.337,0.106,0.337,0.317
			c0,0.021-0.002,0.045-0.006,0.072l-0.018,0.078l-1.6,4.837c-0.055,0.145-0.166,0.216-0.332,0.216
			c-0.166,0-0.275-0.078-0.326-0.233l-1.404-4.046l-1.41,4.046c-0.052,0.155-0.16,0.233-0.326,0.233
			c-0.166,0-0.276-0.071-0.332-0.216l-1.6-4.837l-0.018-0.078c-0.004-0.027-0.006-0.052-0.006-0.072
			c0-0.211,0.112-0.317,0.337-0.317c0.15,0,0.253,0.082,0.308,0.246l1.321,4.088l1.416-4.1c0.06-0.156,0.162-0.234,0.308-0.234
			s0.247,0.078,0.302,0.234L39.41,63.787z"/>
		<path fill="#FFFFFF" d="M46.611,63.787l1.327-4.088c0.051-0.164,0.152-0.246,0.302-0.246c0.225,0,0.337,0.106,0.337,0.317
			c0,0.021-0.002,0.045-0.006,0.072l-0.018,0.078l-1.6,4.837c-0.055,0.145-0.166,0.216-0.332,0.216
			c-0.166,0-0.275-0.078-0.326-0.233l-1.404-4.046l-1.41,4.046c-0.052,0.155-0.16,0.233-0.326,0.233
			c-0.166,0-0.276-0.071-0.332-0.216l-1.6-4.837l-0.018-0.078c-0.004-0.027-0.006-0.052-0.006-0.072
			c0-0.211,0.112-0.317,0.337-0.317c0.15,0,0.253,0.082,0.308,0.246l1.321,4.088l1.416-4.1c0.06-0.156,0.162-0.234,0.308-0.234
			s0.247,0.078,0.302,0.234L46.611,63.787z"/>
		<path fill="#FFFFFF" d="M49.606,63.919c0.339,0,0.509,0.172,0.509,0.516s-0.17,0.516-0.509,0.516c-0.34,0-0.51-0.172-0.51-0.516
			S49.266,63.919,49.606,63.919z"/>
		<path fill="#FFFFFF" d="M52.115,64.608c0,0.243-0.123,0.365-0.367,0.365c-0.241,0-0.361-0.122-0.361-0.365v-7.637
			c0-0.244,0.12-0.365,0.361-0.365c0.245,0,0.367,0.121,0.367,0.365v3.561c0.494-0.751,1.216-1.127,2.168-1.127
			c0.75,0,1.378,0.264,1.884,0.791c0.518,0.536,0.776,1.209,0.776,2.021c0,0.807-0.258,1.479-0.776,2.014
			c-0.505,0.531-1.133,0.797-1.884,0.797c-0.952,0-1.674-0.377-2.168-1.133V64.608z M55.652,60.64
			c-0.379-0.407-0.871-0.611-1.475-0.611c-0.612,0-1.112,0.216-1.499,0.647c-0.375,0.416-0.563,0.93-0.563,1.541
			s0.188,1.123,0.563,1.534c0.387,0.432,0.887,0.647,1.499,0.647c0.604,0,1.096-0.204,1.475-0.611
			c0.375-0.407,0.563-0.932,0.563-1.57C56.214,61.573,56.027,61.048,55.652,60.64z"/>
		<path fill="#FFFFFF" d="M62.355,64.207c-0.525,0.547-1.188,0.82-1.99,0.82s-1.465-0.273-1.991-0.82
			c-0.517-0.54-0.776-1.203-0.776-1.99c0-0.791,0.259-1.455,0.776-1.99c0.525-0.548,1.189-0.821,1.991-0.821s1.465,0.273,1.99,0.821
			c0.518,0.535,0.776,1.199,0.776,1.99C63.131,63.004,62.873,63.667,62.355,64.207z M61.811,60.658
			c-0.391-0.412-0.873-0.617-1.445-0.617c-0.573,0-1.055,0.205-1.446,0.617c-0.395,0.416-0.592,0.935-0.592,1.559
			c0,0.619,0.198,1.137,0.592,1.552c0.391,0.412,0.873,0.618,1.446,0.618c0.572,0,1.054-0.206,1.445-0.618
			c0.395-0.415,0.592-0.933,0.592-1.552C62.403,61.593,62.206,61.074,61.811,60.658z"/>
		<path fill="#FFFFFF" d="M69.095,64.608c0,0.243-0.123,0.365-0.368,0.365c-0.241,0-0.361-0.122-0.361-0.365v-2.728
			c0-1.203-0.566-1.804-1.7-1.804c-0.525,0-0.958,0.178-1.297,0.533c-0.347,0.363-0.521,0.841-0.521,1.433v2.565
			c0,0.243-0.123,0.365-0.367,0.365c-0.241,0-0.361-0.122-0.361-0.365v-4.789c0-0.244,0.12-0.366,0.361-0.366
			c0.245,0,0.367,0.122,0.367,0.366v0.641c0.403-0.703,1.062-1.055,1.979-1.055c0.691,0,1.244,0.231,1.659,0.695
			c0.407,0.456,0.61,1.045,0.61,1.769V64.608z"/>
		<path fill="#FFFFFF" d="M74.856,63.721c-0.458,0.756-1.169,1.133-2.133,1.133c-0.762,0-1.396-0.247-1.901-0.743
			c-0.529-0.511-0.794-1.173-0.794-1.983c0-0.812,0.265-1.473,0.794-1.984c0.505-0.491,1.139-0.737,1.901-0.737
			c0.494,0,0.944,0.122,1.351,0.365c0.34,0.204,0.601,0.458,0.782,0.762v-0.713c0-0.244,0.122-0.366,0.367-0.366
			c0.241,0,0.361,0.122,0.361,0.366v4.627c0,0.867-0.223,1.547-0.669,2.038c-0.478,0.523-1.185,0.785-2.121,0.785
			c-0.442,0-0.861-0.054-1.256-0.162c-0.34-0.096-0.642-0.226-0.907-0.39c-0.142-0.08-0.213-0.186-0.213-0.317
			c0-0.18,0.093-0.27,0.278-0.27c0.079,0,0.184,0.032,0.314,0.096c0.541,0.296,1.135,0.443,1.783,0.443
			c0.715,0,1.246-0.206,1.593-0.617c0.312-0.367,0.468-0.885,0.468-1.553V63.721z M71.313,63.673
			c0.375,0.388,0.869,0.582,1.481,0.582c0.577,0,1.066-0.21,1.469-0.63c0.395-0.415,0.593-0.915,0.593-1.498
			c0-0.58-0.198-1.077-0.593-1.493c-0.403-0.419-0.892-0.629-1.469-0.629c-0.612,0-1.106,0.191-1.481,0.575
			c-0.379,0.392-0.569,0.907-0.569,1.547C70.745,62.771,70.934,63.285,71.313,63.673z"/>
		<path fill="#FFFFFF" d="M81.406,63.895c-0.498,0.756-1.221,1.133-2.168,1.133c-0.752,0-1.379-0.266-1.885-0.797
			c-0.518-0.535-0.776-1.207-0.776-2.014c0-0.812,0.259-1.484,0.776-2.021c0.506-0.527,1.133-0.791,1.885-0.791
			c0.947,0,1.67,0.376,2.168,1.127v-3.561c0-0.244,0.121-0.365,0.367-0.365c0.24,0,0.361,0.121,0.361,0.365v7.637
			c0,0.243-0.121,0.365-0.361,0.365c-0.246,0-0.367-0.122-0.367-0.365V63.895z M77.869,63.787c0.379,0.407,0.871,0.611,1.475,0.611
			c0.613,0,1.111-0.216,1.5-0.647c0.375-0.411,0.563-0.923,0.563-1.534s-0.188-1.125-0.563-1.541
			c-0.389-0.432-0.887-0.647-1.5-0.647c-0.604,0-1.096,0.204-1.475,0.611c-0.376,0.408-0.563,0.934-0.563,1.577
			C77.306,62.855,77.493,63.38,77.869,63.787z"/>
		<path fill="#FFFFFF" d="M87.842,64.608c0,0.243-0.121,0.365-0.361,0.365s-0.361-0.122-0.361-0.365v-0.27
			c-0.406,0.459-1.012,0.688-1.813,0.688c-0.641,0-1.156-0.153-1.547-0.461c-0.383-0.3-0.574-0.684-0.574-1.151
			c0-0.491,0.203-0.885,0.609-1.181c0.408-0.3,0.949-0.449,1.625-0.449c0.371,0,0.717,0.067,1.035,0.204
			c0.289,0.123,0.51,0.275,0.664,0.455v-0.72c0-1.131-0.586-1.696-1.76-1.696c-0.486,0-0.982,0.106-1.492,0.318l-0.072,0.023
			c-0.035,0.009-0.068,0.013-0.1,0.013c-0.209,0-0.314-0.103-0.314-0.306c0-0.116,0.061-0.206,0.178-0.271
			c0.521-0.268,1.141-0.401,1.861-0.401c1.615,0,2.422,0.77,2.422,2.308V64.608z M86.604,62.624
			c-0.32-0.191-0.699-0.287-1.137-0.287c-1.035,0-1.553,0.359-1.553,1.078c0,0.712,0.502,1.067,1.506,1.067
			c0.457,0,0.85-0.096,1.178-0.288c0.348-0.203,0.521-0.463,0.521-0.779C87.119,63.096,86.947,62.832,86.604,62.624z"/>
		<path fill="#FFFFFF" d="M91.121,65.027c-0.809,0-1.488-0.233-2.037-0.701c-0.1-0.075-0.148-0.17-0.148-0.281
			c0-0.18,0.094-0.27,0.279-0.27c0.055,0,0.107,0.01,0.16,0.029c0.039,0.017,0.078,0.042,0.117,0.078
			c0.482,0.384,1.037,0.575,1.666,0.575c0.904,0,1.355-0.293,1.355-0.881c0-0.275-0.135-0.495-0.402-0.659
			c-0.115-0.068-0.264-0.132-0.445-0.192c-0.074-0.027-0.164-0.056-0.266-0.083l-0.279-0.084c-0.785-0.22-1.342-0.468-1.67-0.743
			c-0.305-0.26-0.457-0.59-0.457-0.989c0-0.947,0.695-1.421,2.086-1.421c0.576,0,1.123,0.142,1.641,0.426
			c0.217,0.111,0.326,0.235,0.326,0.371c0,0.188-0.1,0.282-0.303,0.282c-0.063,0-0.16-0.038-0.289-0.114
			c-0.459-0.243-0.92-0.365-1.387-0.365c-0.912,0-1.369,0.266-1.369,0.797c0,0.443,0.494,0.808,1.482,1.091
			c0.352,0.104,0.625,0.196,0.822,0.276c0.266,0.1,0.48,0.205,0.646,0.317c0.379,0.26,0.568,0.611,0.568,1.055
			C93.219,64.532,92.52,65.027,91.121,65.027z"/>
		<path fill="#FFFFFF" d="M98.602,64.207c-0.525,0.547-1.189,0.82-1.99,0.82c-0.803,0-1.467-0.273-1.99-0.82
			c-0.518-0.54-0.777-1.203-0.777-1.99c0-0.791,0.26-1.455,0.777-1.99c0.523-0.548,1.188-0.821,1.99-0.821
			c0.801,0,1.465,0.273,1.99,0.821c0.518,0.535,0.775,1.199,0.775,1.99C99.377,63.004,99.119,63.667,98.602,64.207z M98.057,60.658
			c-0.391-0.412-0.873-0.617-1.445-0.617c-0.574,0-1.055,0.205-1.445,0.617c-0.396,0.416-0.594,0.935-0.594,1.559
			c0,0.619,0.197,1.137,0.594,1.552c0.391,0.412,0.871,0.618,1.445,0.618c0.572,0,1.055-0.206,1.445-0.618
			c0.395-0.415,0.592-0.933,0.592-1.552C98.648,61.593,98.451,61.074,98.057,60.658z"/>
		<path fill="#FFFFFF" d="M100.814,63.919c0.34,0,0.51,0.172,0.51,0.516s-0.17,0.516-0.51,0.516s-0.51-0.172-0.51-0.516
			S100.475,63.919,100.814,63.919z"/>
		<path fill="#FFFFFF" d="M106.352,59.711c0.359,0.188,0.635,0.43,0.828,0.726c0.051,0.071,0.078,0.144,0.078,0.216
			c0,0.208-0.119,0.312-0.355,0.312c-0.053,0-0.102-0.016-0.148-0.048c-0.031-0.021-0.068-0.054-0.107-0.103
			c-0.426-0.515-0.959-0.772-1.6-0.772c-0.588,0-1.078,0.212-1.469,0.635c-0.387,0.416-0.58,0.93-0.58,1.541
			c0,0.607,0.193,1.119,0.58,1.534c0.391,0.424,0.881,0.636,1.469,0.636c0.641,0,1.174-0.258,1.6-0.773
			c0.039-0.044,0.076-0.078,0.107-0.102c0.047-0.032,0.096-0.049,0.148-0.049c0.236,0,0.355,0.104,0.355,0.313
			c0,0.071-0.027,0.146-0.078,0.222c-0.193,0.291-0.469,0.531-0.828,0.719c-0.396,0.208-0.83,0.312-1.305,0.312
			c-0.793,0-1.455-0.268-1.984-0.803s-0.793-1.205-0.793-2.008c0-0.808,0.264-1.479,0.793-2.015
			c0.529-0.531,1.191-0.797,1.984-0.797C105.521,59.405,105.955,59.507,106.352,59.711z"/>
		<path fill="#FFFFFF" d="M112.557,64.207c-0.525,0.547-1.189,0.82-1.99,0.82c-0.803,0-1.467-0.273-1.99-0.82
			c-0.518-0.54-0.777-1.203-0.777-1.99c0-0.791,0.26-1.455,0.777-1.99c0.523-0.548,1.188-0.821,1.99-0.821
			c0.801,0,1.465,0.273,1.99,0.821c0.518,0.535,0.775,1.199,0.775,1.99C113.332,63.004,113.074,63.667,112.557,64.207z
			 M112.012,60.658c-0.391-0.412-0.873-0.617-1.445-0.617c-0.574,0-1.055,0.205-1.445,0.617c-0.396,0.416-0.594,0.935-0.594,1.559
			c0,0.619,0.197,1.137,0.594,1.552c0.391,0.412,0.871,0.618,1.445,0.618c0.572,0,1.055-0.206,1.445-0.618
			c0.395-0.415,0.592-0.933,0.592-1.552C112.604,61.593,112.406,61.074,112.012,60.658z"/>
		<path fill="#FFFFFF" d="M123.395,64.608c0,0.243-0.121,0.365-0.367,0.365c-0.24,0-0.361-0.122-0.361-0.365v-2.728
			c0-1.203-0.559-1.804-1.676-1.804c-0.521,0-0.943,0.178-1.268,0.533c-0.336,0.359-0.504,0.837-0.504,1.433v2.565
			c0,0.243-0.121,0.365-0.361,0.365s-0.361-0.122-0.361-0.365v-2.728c0-1.203-0.559-1.804-1.676-1.804
			c-0.521,0-0.947,0.178-1.275,0.533c-0.33,0.359-0.496,0.837-0.496,1.433v2.565c0,0.243-0.123,0.365-0.367,0.365
			c-0.242,0-0.361-0.122-0.361-0.365v-4.789c0-0.244,0.119-0.366,0.361-0.366c0.244,0,0.367,0.122,0.367,0.366v0.641
			c0.402-0.703,1.047-1.055,1.93-1.055c0.961,0,1.631,0.412,2.01,1.234c0.469-0.822,1.189-1.234,2.162-1.234
			c0.691,0,1.242,0.231,1.652,0.695c0.395,0.452,0.592,1.041,0.592,1.769V64.608z"/>
	</g>
</g>
</svg>
