<?xml version="1.0" encoding="utf-8"?>
<!-- Generator: Adobe Illustrator 16.0.0, SVG Export Plug-In . SVG Version: 6.00 Build 0)  -->
<!DOCTYPE svg PUBLIC "-//W3C//DTD SVG 1.1//EN" "http://www.w3.org/Graphics/SVG/1.1/DTD/svg11.dtd">
<svg version="1.1" id="Layer_1" xmlns="http://www.w3.org/2000/svg" xmlns:xlink="http://www.w3.org/1999/xlink" x="0px" y="0px"
	 width="150px" height="93.795px" viewBox="0 0 150 93.795" enable-background="new 0 0 150 93.795" xml:space="preserve">
<rect y="0" fill="#FFFFFF" width="150" height="93.796"/>
<g>
	<g>
		<g>
			<path fill="#7D7D7D" d="M27.402,57.187h4.527c-0.543,1.771-1.6,3.211-3.168,4.315c-1.57,1.108-3.29,1.661-5.162,1.661
				c-1.129,0-2.239-0.225-3.337-0.664c-1.096-0.441-2.071-1.066-2.926-1.883c-0.855-0.813-1.516-1.787-1.978-2.924
				c-0.464-1.135-0.694-2.323-0.694-3.568c0-2.432,0.871-4.496,2.61-6.193c1.74-1.698,3.849-2.543,6.324-2.543
				c1.872,0,3.601,0.564,5.19,1.695c1.591,1.13,2.637,2.588,3.14,4.369h-4.527c-0.442-0.732-0.977-1.273-1.599-1.621
				c-0.626-0.347-1.38-0.521-2.266-0.521c-1.448,0-2.615,0.459-3.5,1.383c-0.886,0.924-1.329,2.086-1.329,3.49
				c0,1.465,0.469,2.676,1.403,3.627c0.937,0.951,2.139,1.43,3.607,1.43c0.743,0,1.444-0.186,2.099-0.559
				C26.472,58.31,27,57.81,27.402,57.187z"/>
			<path fill="#7D7D7D" d="M42.584,45.387c2.434,0,4.502,0.867,6.203,2.606c1.7,1.736,2.55,3.84,2.55,6.313
				c0,2.449-0.875,4.539-2.626,6.268c-1.75,1.729-3.853,2.591-6.308,2.591c-2.415,0-4.499-0.873-6.25-2.621
				c-1.75-1.748-2.624-3.827-2.624-6.238c0-2.49,0.874-4.601,2.624-6.326C37.904,46.25,40.048,45.387,42.584,45.387z M42.403,49.31
				c-0.645,0-1.263,0.129-1.856,0.393c-0.595,0.26-1.122,0.632-1.584,1.111c-0.927,0.922-1.39,2.086-1.39,3.49
				c0,1.364,0.463,2.528,1.39,3.491c0.925,0.962,2.072,1.442,3.44,1.442c1.407,0,2.575-0.471,3.501-1.414
				c0.925-0.941,1.39-2.114,1.39-3.521c0-1.385-0.469-2.563-1.404-3.536C44.954,49.795,43.792,49.31,42.403,49.31z"/>
			<path fill="#7D7D7D" d="M36.875,43.967l3.864-4.166h3.199l3.925,4.166h-3.925l-1.629-1.932l-1.872,1.932H36.875z"/>
			<path fill="#7D7D7D" d="M65.646,57.187h4.526c-0.542,1.771-1.601,3.211-3.169,4.315c-1.57,1.108-3.29,1.661-5.161,1.661
				c-1.128,0-2.238-0.225-3.336-0.664c-1.098-0.441-2.072-1.066-2.927-1.883c-0.856-0.813-1.516-1.787-1.978-2.924
				c-0.464-1.135-0.694-2.323-0.694-3.568c0-2.432,0.87-4.496,2.61-6.193c1.74-1.698,3.849-2.543,6.324-2.543
				c1.871,0,3.602,0.564,5.191,1.695c1.589,1.13,2.636,2.588,3.139,4.369h-4.526c-0.443-0.732-0.979-1.273-1.601-1.621
				c-0.626-0.347-1.379-0.521-2.264-0.521c-1.45,0-2.616,0.459-3.501,1.383c-0.887,0.924-1.328,2.086-1.328,3.49
				c0,1.465,0.468,2.676,1.403,3.627c0.936,0.951,2.138,1.43,3.606,1.43c0.743,0,1.444-0.186,2.099-0.559
				C64.712,58.31,65.242,57.81,65.646,57.187z"/>
			<path fill="#7D7D7D" d="M92.566,57.187h4.527c-0.545,1.771-1.6,3.211-3.17,4.315c-1.57,1.108-3.291,1.661-5.16,1.661
				c-1.129,0-2.238-0.225-3.338-0.664c-1.097-0.441-2.072-1.066-2.927-1.883c-0.854-0.813-1.515-1.787-1.978-2.924
				c-0.463-1.135-0.694-2.323-0.694-3.568c0-2.432,0.872-4.496,2.61-6.193c1.742-1.698,3.852-2.543,6.324-2.543
				c1.869,0,3.601,0.564,5.191,1.695c1.59,1.13,2.637,2.588,3.139,4.369h-4.527c-0.441-0.732-0.977-1.273-1.6-1.621
				c-0.625-0.347-1.378-0.521-2.262-0.521c-1.449,0-2.616,0.459-3.503,1.383c-0.885,0.924-1.327,2.086-1.327,3.49
				c0,1.465,0.467,2.676,1.403,3.627c0.935,0.951,2.139,1.43,3.605,1.43c0.744,0,1.444-0.186,2.097-0.559
				C91.635,58.31,92.164,57.81,92.566,57.187z"/>
			<path fill="#7D7D7D" d="M107.748,45.387c2.436,0,4.5,0.867,6.201,2.606c1.701,1.736,2.553,3.84,2.553,6.313
				c0,2.449-0.877,4.539-2.627,6.268c-1.748,1.729-3.854,2.591-6.309,2.591c-2.414,0-4.498-0.873-6.248-2.621
				c-1.752-1.748-2.625-3.827-2.625-6.238c0-2.49,0.873-4.601,2.625-6.326C103.068,46.25,105.213,45.387,107.748,45.387z
				 M107.566,49.31c-0.645,0-1.264,0.129-1.855,0.393c-0.594,0.26-1.121,0.632-1.586,1.111c-0.924,0.922-1.389,2.086-1.389,3.49
				c0,1.364,0.465,2.528,1.389,3.491c0.926,0.962,2.072,1.442,3.441,1.442c1.408,0,2.574-0.471,3.5-1.414
				c0.928-0.941,1.391-2.114,1.391-3.521c0-1.385-0.471-2.563-1.402-3.536C110.119,49.795,108.955,49.31,107.566,49.31z"/>
			<path fill="#7D7D7D" d="M102.039,43.967l3.863-4.166h3.199l3.926,4.166h-3.926l-1.629-1.932l-1.871,1.932H102.039z"/>
			<path fill="#7D7D7D" d="M130.809,57.187h4.527c-0.543,1.771-1.602,3.211-3.17,4.315c-1.568,1.108-3.289,1.661-5.162,1.661
				c-1.127,0-2.238-0.225-3.334-0.664c-1.1-0.441-2.072-1.066-2.928-1.883c-0.855-0.813-1.516-1.787-1.979-2.924
				c-0.463-1.135-0.693-2.323-0.693-3.568c0-2.432,0.869-4.496,2.609-6.193c1.738-1.698,3.85-2.543,6.324-2.543
				c1.871,0,3.602,0.564,5.191,1.695c1.59,1.13,2.637,2.588,3.139,4.369h-4.525c-0.445-0.732-0.979-1.273-1.602-1.621
				c-0.625-0.347-1.377-0.521-2.264-0.521c-1.449,0-2.613,0.459-3.502,1.383c-0.885,0.924-1.328,2.086-1.328,3.49
				c0,1.465,0.469,2.676,1.404,3.627c0.934,0.951,2.139,1.43,3.607,1.43c0.744,0,1.441-0.186,2.096-0.559
				C129.875,58.31,130.404,57.81,130.809,57.187z"/>
		</g>
		<g id="green_1_">
			<path fill="#67B458" d="M45.357,36.232l1.35-3.551c0.262-0.689,0.493-1.175,0.691-1.454c0.197-0.28,0.46-0.462,0.782-0.547
				c0.593-0.155,0.963,0.06,1.116,0.641c0.124,0.472-0.178,1.167-0.905,2.088l-2.614,3.351c-0.178,0.224-0.308,0.347-0.392,0.369
				c-0.129,0.034-0.207-0.009-0.241-0.129C45.124,36.917,45.195,36.662,45.357,36.232z"/>
			<path fill="#67B458" d="M47.036,37.891l2.442-2.912c0.476-0.566,0.853-0.947,1.131-1.146c0.279-0.199,0.585-0.285,0.92-0.258
				c0.606,0.047,0.89,0.371,0.841,0.97c-0.038,0.487-0.55,1.045-1.538,1.675l-3.571,2.304c-0.243,0.152-0.407,0.227-0.492,0.22
				c-0.133-0.012-0.195-0.077-0.187-0.202C46.588,38.458,46.741,38.241,47.036,37.891z"/>
			<path fill="#67B458" d="M48.602,39.966l3.487-1.849c0.678-0.359,1.191-0.579,1.537-0.66c0.346-0.083,0.674-0.045,0.983,0.109
				c0.567,0.284,0.713,0.705,0.433,1.264c-0.228,0.453-0.938,0.789-2.137,1.009l-4.338,0.825c-0.292,0.053-0.478,0.058-0.558,0.02
				c-0.124-0.063-0.157-0.15-0.1-0.266C47.949,40.337,48.181,40.188,48.602,39.966z"/>
		</g>
		<g id="orange_1_">
			<path fill="#F07D22" d="M111.658,36.503l1.408-3.716c0.275-0.722,0.516-1.229,0.725-1.52c0.207-0.292,0.479-0.483,0.818-0.572
				c0.617-0.162,1.006,0.062,1.166,0.67c0.129,0.492-0.186,1.221-0.943,2.183l-2.734,3.505c-0.188,0.235-0.322,0.364-0.412,0.386
				c-0.135,0.036-0.219-0.011-0.252-0.134C111.41,37.217,111.484,36.951,111.658,36.503z"/>
			<path fill="#F07D22" d="M113.412,38.235l2.553-3.044c0.498-0.592,0.893-0.99,1.184-1.2c0.291-0.207,0.613-0.296,0.963-0.269
				c0.637,0.051,0.928,0.389,0.881,1.016c-0.043,0.509-0.578,1.091-1.613,1.751l-3.732,2.412c-0.254,0.161-0.426,0.238-0.516,0.23
				c-0.139-0.012-0.203-0.082-0.193-0.21C112.941,38.831,113.102,38.602,113.412,38.235z"/>
			<path fill="#F07D22" d="M115,40.03l3.514-1.858c0.682-0.363,1.197-0.583,1.547-0.667s0.678-0.044,0.99,0.111
				c0.572,0.286,0.717,0.709,0.436,1.273c-0.229,0.456-0.945,0.795-2.15,1.016l-4.369,0.83c-0.295,0.054-0.482,0.06-0.563,0.021
				c-0.125-0.065-0.156-0.153-0.1-0.269C114.344,40.406,114.576,40.255,115,40.03z"/>
		</g>
	</g>
</g>
</svg>
