<?xml version="1.0" encoding="utf-8"?>
<!-- Generator: Adobe Illustrator 16.0.0, SVG Export Plug-In . SVG Version: 6.00 Build 0)  -->
<!DOCTYPE svg PUBLIC "-//W3C//DTD SVG 1.1//EN" "http://www.w3.org/Graphics/SVG/1.1/DTD/svg11.dtd">
<svg version="1.1" id="Layer_1" xmlns="http://www.w3.org/2000/svg" xmlns:xlink="http://www.w3.org/1999/xlink" x="0px" y="0px"
	 width="150px" height="93.795px" viewBox="0 0 150 93.795" enable-background="new 0 0 150 93.795" xml:space="preserve">
<g>
	<linearGradient id="SVGID_1_" gradientUnits="userSpaceOnUse" x1="90.0664" y1="36.8984" x2="90.0664" y2="56.4241">
		<stop  offset="0" style="stop-color:#016433"/>
		<stop  offset="1" style="stop-color:#007137"/>
	</linearGradient>
	<path fill="url(#SVGID_1_)" d="M90.061,43.939c0.005-0.002,0.01-0.004,0.015-0.005c-0.009-0.017-0.011-0.032-0.018-0.05
		C90.06,43.903,90.058,43.922,90.061,43.939z"/>
	<linearGradient id="SVGID_2_" gradientUnits="userSpaceOnUse" x1="52.4966" y1="36.8984" x2="52.4966" y2="56.4236">
		<stop  offset="0" style="stop-color:#016433"/>
		<stop  offset="1" style="stop-color:#007137"/>
	</linearGradient>
	<path fill="url(#SVGID_2_)" d="M82.551,36.072c0-0.389-0.207-0.543-0.572-0.543c-2.028,0.002-4.06-0.002-6.09,0.005
		c-0.236,0-0.498,0.006-0.55,0.332c0,0.001,0,0.001,0,0.001c-0.122,0.172-0.078,0.369-0.078,0.556
		c0.006,1.581,0.025,3.162,0.026,4.743c0.002,1.534-0.014,3.066-0.022,4.602c-0.004,0.064-0.008,0.13-0.011,0.194
		c-0.122,0.304-0.217,0.029-0.265-0.03c-0.421-0.531-0.833-1.074-1.246-1.615c0,0,0,0,0.001,0c-0.122-0.182-0.24-0.367-0.368-0.545
		c-1.87-2.557-3.743-5.109-5.609-7.668c-0.266-0.365-0.599-0.543-1.055-0.543c-1.777-0.002-3.553-0.021-5.33-0.029
		c-0.787-0.004-0.898,0.1-0.895,0.876c0.005,1.601,0.02,3.2,0.031,4.802c0.007,1.2,0.014,2.398,0.021,3.6
		c0,1.539,0,3.075-0.001,4.612c-0.059,0.277,0.035,0.576-0.124,0.85c-0.224-0.086-0.223-0.334-0.354-0.482
		c-0.03-0.051-0.072-0.1-0.085-0.156c-0.248-0.891-0.494-1.785-0.869-2.636c-0.001,0-0.001,0-0.002,0
		c-0.316-1.063-0.659-2.12-1.067-3.149c0-0.001,0.001-0.001,0.001-0.003c-0.187-0.574-0.369-1.152-0.563-1.725
		c-0.677-1.996-1.356-3.991-2.04-5.985c-0.086-0.249-0.142-0.562-0.495-0.563c-1.096-0.01-2.192-0.004-3.289-0.004
		c-0.033,0.051-0.066,0.1-0.1,0.149c0.614,0.575,1.232,1.147,1.842,1.728c0.08,0.078,0.254,0.141,0.171,0.299
		c-0.06,0.113-0.203,0.064-0.308,0.064c-1.537,0.002-3.074,0-4.611,0c-0.06,0-0.131,0.012-0.151-0.089
		c0.651-0.696,1.305-1.399,2.009-2.153c-1.088,0-2.077,0.024-3.063-0.012c-0.462-0.016-0.666,0.186-0.797,0.582
		c-0.346,1.045-0.71,2.085-1.063,3.129c-0.592,1.751-1.182,3.505-1.772,5.259c0-0.001-0.001-0.001-0.001-0.001
		c-0.296,0.567-0.394,1.22-0.797,1.871c-0.102-0.664-0.189-1.219-0.274-1.775c0,0,0.001,0,0.001-0.001
		c-0.002-0.063,0.003-0.128-0.007-0.19c-0.788-4.726-4.415-8.146-9.207-8.654c-3.492-0.369-7-0.142-10.5-0.24
		c-0.397-0.012-0.58,0.189-0.578,0.59c0.015,2.991,0.024,5.983,0.034,8.977c0,0,0,0-0.001,0c0,1.09,0,2.178,0,3.267
		c0,0.002,0.001,0,0.002,0.002c0,0,0,0-0.001,0c0,0.896,0,1.795-0.001,2.691c0.001,0,0.002,0,0.003,0
		c-0.001,0.002-0.002,0.002-0.003,0.002c-0.003,0.896-0.006,1.793-0.01,2.691c0.001,0,0.001,0,0.002,0c0,0-0.001,0-0.001,0
		c-0.007,1.168-0.017,2.334-0.021,3.502c-0.003,0.861,0.08,0.93,0.926,0.906c2.252-0.064,4.504-0.109,6.756-0.182
		c1.5-0.051,3.011-0.006,4.497-0.229c1.856-0.275,3.397-1.242,4.83-2.402c0.202-0.164,0.389-0.357,0.671-0.453
		c-0.028,0.189-0.05,0.338-0.072,0.486c-0.253,0.736-0.508,1.473-0.755,2.209c-0.167,0.496-0.129,0.564,0.381,0.563
		c2.175-0.002,4.35-0.018,6.526-0.027c0.269,0,0.483-0.104,0.565-0.357c0.255-0.787,0.569-1.557,0.696-2.383
		c-0.001,0-0.003,0-0.004,0c0.001,0,0.002,0,0.003-0.002c0.363-0.945,0.363-0.945,1.422-0.945c1.533,0,3.065,0,4.597,0
		c0.791,0,0.839,0.037,1.064,0.764c0.001,0.002,0.002,0.002,0.004,0.002c-0.001,0-0.002,0-0.003,0
		c0.143,0.523,0.274,1.049,0.434,1.566c0.35,1.135,0.049,1.42,1.846,1.4c3.359-0.039,6.718-0.002,10.077,0.004
		c0.769,0.002,0.919-0.148,0.916-0.932c-0.003-0.799-0.027-1.598-0.026-2.396c0.005-2.352,0.018-4.701,0.027-7.051
		c-0.001,0.002-0.001,0.006-0.002,0.008c0-0.002,0-0.006,0.001-0.008c0.052-0.113,0.02-0.416,0.256-0.131
		c0.294,0.354,0.57,0.725,0.853,1.086c0,0,0,0,0.001,0h0c0.605,0.834,1.21,1.668,1.817,2.5c0,0,0,0-0.001,0
		c0.605,0.887,1.224,1.762,1.892,2.6c0,0,0,0,0.001,0h0c0.59,0.885,1.208,1.752,1.863,2.59c0.001,0.002,0.002,0.002,0.003,0.002
		c-0.001,0-0.003,0-0.004,0c0.303,0.432,0.603,0.863,0.912,1.289c0.2,0.277,0.48,0.422,0.818,0.424
		c1.92,0.006,3.84,0.004,5.76,0.002c0.372,0,0.559-0.189,0.555-0.563c-0.006-0.48-0.011-0.961-0.017-1.439h0.001
		c0-0.896,0-1.795,0-2.691c-0.001,0-0.002,0-0.003,0.002c0.001-0.002,0.001-0.002,0.002-0.002c0-0.896,0-1.795,0-2.689
		c0-0.002,0.001-0.002,0.001-0.002c0-0.834,0-1.668,0-2.5c-0.003,0-0.006,0-0.009,0c0.003,0,0.005,0,0.008-0.002
		c0-0.865,0-1.729,0-2.593h0.001c0-0.867,0-1.732,0-2.597c-0.001,0-0.002,0.001-0.003,0.001c0.001,0,0.001-0.001,0.001-0.001
		C82.539,40.744,82.543,38.408,82.551,36.072z M51.095,44.081c0.059,0.074,0.127,0.138,0.204,0.188
		c-0.093,0.112-0.047,0.24-0.011,0.36c0.242,0.805,0.484,1.607,0.713,2.417c0.042,0.146,0.095,0.294,0.261,0.351
		c-0.111,0.169-0.029,0.347,0.008,0.519c0.067,0.316-0.037,0.496-0.375,0.502c-0.556,0.012-1.11,0.012-1.665,0
		c-0.305-0.006-0.428-0.15-0.361-0.461c0.032-0.152,0.116-0.324-0.029-0.453c0.001,0,0.002,0,0.004-0.002
		c0.149-0.064,0.203-0.202,0.245-0.34c0.261-0.825,0.514-1.651,0.761-2.479c0.03-0.104,0.058-0.215-0.012-0.311
		C50.918,44.275,50.978,44.159,51.095,44.081z M30.045,42.535c0.093-0.325,0.314-0.413,0.627-0.348
		c0.656,0.135,1.321,0.227,1.974,0.377c1.092,0.254,1.85,0.893,2.232,1.957c0.06,0.168,0.125,0.333,0.271,0.43
		c-0.066,0.366,0.076,2.63,0.186,2.909c-0.094,0.031-0.167,0.09-0.184,0.205c-0.131,0.852-0.455,1.615-0.969,2.305
		c-0.013,0.018-0.004,0.047,0.001,0.074c-0.122-0.006-0.233,0.033-0.33,0.1c-0.949,0.648-2.025,0.846-3.146,0.895
		c-0.461,0.02-0.569-0.063-0.597-0.527c-0.01-0.16-0.004-0.32-0.004-0.482c-0.001-2.434,0.002-4.868-0.004-7.304
		c0-0.193,0.035-0.402-0.058-0.58C30.044,42.541,30.044,42.538,30.045,42.535z"/>
	<linearGradient id="SVGID_3_" gradientUnits="userSpaceOnUse" x1="106.3145" y1="36.8984" x2="106.3145" y2="56.4236">
		<stop  offset="0" style="stop-color:#016433"/>
		<stop  offset="1" style="stop-color:#007137"/>
	</linearGradient>
	<path fill="url(#SVGID_3_)" d="M127.529,55.481c-0.001,0-0.002,0-0.003,0c0.002,0,0.003,0,0.005-0.002
		c-0.002-0.93-0.002-1.857-0.002-2.787c0-1.025,0-2.051,0-3.076c0-1.186,0-2.37,0-3.556c0-0.001,0-0.001,0-0.002
		c0-1.378,0-2.755,0-4.134c-0.001,0-0.001,0-0.002,0c0-2.038,0-4.075,0-6.208c-0.648,0.688-1.243,1.288-1.803,1.922
		c-0.691,0.784-1.572,0.926-2.535,0.797c-0.48-0.063-0.492-0.125-0.203-0.502c0.359-0.47,0.729-0.933,1.082-1.408
		c0.213-0.287,0.488-0.539,0.638-0.892c-0.078-0.022-0.122-0.043-0.166-0.047c-1.373-0.121-2.75,0.037-4.124-0.047
		c-0.423-0.024-0.523,0.261-0.52,0.635c0.01,1.281,0.004,2.563,0.002,3.845c0,0.244,0.014,0.491-0.113,0.736
		c-0.178-0.162-0.215-0.357-0.282-0.531c-1.001-2.582-2.942-3.981-5.61-4.461c-1.699-0.305-3.418-0.164-5.127-0.174
		c-6.357-0.029-12.717-0.02-19.074-0.027c-1.312-0.002-2.625-0.027-3.938-0.028c-0.529-0.001-0.691,0.143-0.679,0.646
		c0.038,1.807,0.022,3.616-0.005,5.424c-0.008,0.553,0.164,0.703,0.726,0.705c1.169,0.004,2.338,0.014,3.507-0.007
		c0.438-0.008,0.672,0.138,0.676,0.589c-0.002,1.696-0.008,3.395-0.008,5.093c0,3.201,0.004,6.402-0.002,9.605
		c-0.002,0.379,0.045,0.668,0.523,0.668c2.242-0.006,4.484-0.002,6.725-0.004c0.34,0,0.535-0.135,0.53-0.518
		c-0.017-1.295-0.015-2.592-0.021-3.889c-0.001,0-0.001,0-0.002,0c0-0.994,0-1.988,0-2.98c0-1.025,0-2.053,0-3.076
		c0-1.378,0-2.757,0-4.134c-0.001,0-0.001,0-0.002,0c0.008-0.257,0.018-0.512,0.019-0.766c0.002-0.388,0.155-0.591,0.577-0.584
		c1.024,0.014,2.051,0.012,3.074,0c0.301-0.004,0.489,0.106,0.58,0.389c0,1.088,0.002,2.178,0.004,3.266
		c0.001,0,0.002,0,0.003,0.001c-0.001,0-0.001,0-0.001,0c0,0.931,0,1.859,0,2.789c0,0,0.001,0,0.002,0c-0.001,0-0.002,0-0.002,0
		c0,1.09,0,2.18,0,3.27c0,1.152-0.002,2.307-0.002,3.459c-0.006,0.723-0.01,1.441-0.021,2.162c-0.007,0.426,0.22,0.617,0.62,0.617
		c2.066,0.006,4.134,0.008,6.201,0.006c0.402,0,0.623-0.197,0.615-0.623c-0.016-0.814-0.022-1.635-0.033-2.449
		c0.082-0.775-0.051-1.568,0.132-2.422c0.274,0.383,0.491,0.688,0.709,0.992c0.002,0.002,0.003,0.002,0.005,0.002
		c-0.002,0-0.004,0-0.006,0c0.455,0.734,0.912,1.469,1.369,2.203c0.001,0,0.003,0,0.005,0.002c-0.003,0-0.005,0-0.007,0
		c0.32,0.551,0.65,1.096,0.953,1.656c0.25,0.463,0.631,0.643,1.14,0.637c1.04-0.012,2.079-0.01,3.118-0.01
		c3.421,0,6.843-0.008,10.265,0.012c0.44,0.004,0.533-0.123,0.513-0.531C127.518,56.983,127.535,56.231,127.529,55.481z
		 M90.061,43.939c-0.003-0.018-0.001-0.036-0.003-0.055c0.007,0.018,0.009,0.033,0.018,0.05
		C90.07,43.936,90.065,43.938,90.061,43.939z M118.381,53.136c-0.371-0.514-0.67-1.072-1.046-1.58
		c-0.058-0.076-0.136-0.133-0.242-0.121c-0.005,0.002-0.01,0.004-0.015,0.006c0.036-0.115-0.036-0.232-0.11-0.344
		c-0.159-0.238-0.317-0.477-0.46-0.727c-0.472-0.84-0.472-0.828,0.36-1.342c0.258-0.158,0.591-0.252,0.688-0.596
		c0.148-0.014,0.284-0.064,0.403-0.172c0.776-0.695,1.358-1.519,1.685-2.514c0.016-0.048,0.032-0.097,0.042-0.146
		c0.029,0.06,0.029,0.141,0.036,0.221c0.015,0.162,0.012,0.333,0.131,0.449c-0.096,0.083-0.133,0.197-0.138,0.314
		c-0.026,1.022-0.036,2.044,0.005,3.065c0.004,0.096,0.043,0.188,0.103,0.266c0.009,0.008,0.021,0.006,0.029,0.014
		c-0.117,0.109-0.142,0.26-0.146,0.406c-0.017,0.736-0.017,1.473,0,2.209c0.004,0.154,0.024,0.311,0.153,0.42
		c-0.139,0.129-0.12,0.322-0.127,0.498c-0.012,0.422,0.004,0.844-0.01,1.35c-0.326-0.338-0.52-0.662-0.748-0.959
		c-0.148-0.191-0.238-0.463-0.537-0.498c-0.006,0.002-0.012,0.004-0.017,0.008C118.442,53.288,118.437,53.21,118.381,53.136z
		 M109.538,42.246c0.071-0.16,0.187-0.26,0.362-0.271c0.582-0.039,1.152-0.021,1.668,0.307c0.13,0.083,0.261,0.166,0.41,0.211
		c0.017,0.412,0.201,0.8,0.15,1.228c-0.07,0.613-0.37,1.101-0.885,1.255c-0.354,0.107-0.719,0.154-1.088,0.178
		c-0.29,0.018-0.45-0.098-0.491-0.395c-0.076-0.539-0.176-1.074-0.162-1.623c0.006-0.213,0.047-0.443-0.127-0.623
		C109.45,42.437,109.495,42.342,109.538,42.246z"/>
</g>
</svg>
