<?xml version="1.0" encoding="utf-8"?>
<!-- Generator: Adobe Illustrator 16.0.0, SVG Export Plug-In . SVG Version: 6.00 Build 0)  -->
<!DOCTYPE svg PUBLIC "-//W3C//DTD SVG 1.1//EN" "http://www.w3.org/Graphics/SVG/1.1/DTD/svg11.dtd">
<svg version="1.1" id="Layer_1" xmlns="http://www.w3.org/2000/svg" xmlns:xlink="http://www.w3.org/1999/xlink" x="0px" y="0px"
	 width="150px" height="93.795px" viewBox="0 0 150 93.795" enable-background="new 0 0 150 93.795" xml:space="preserve">
<g>
	<g enable-background="new    ">
		<path fill="#0088CC" d="M73.963,48.701v2.397H66.4v0.408c0,0.914,0.28,1.47,0.841,1.668c0.437,0.124,0.931,0.186,1.483,0.186
			h0.333c1.483,0,3.003-0.161,4.56-0.482h0.024v3.387c0,0.04-0.708,0.177-2.125,0.407c-0.889,0.1-1.911,0.148-3.064,0.148
			c-2.966,0-4.881-1.002-5.747-3.003c-0.321-0.791-0.482-1.619-0.482-2.483v-3.238c0-2.373,0.997-3.951,2.991-4.734
			c0.882-0.288,1.825-0.432,2.83-0.432c2.793,0,4.605,0.91,5.438,2.731C73.803,46.378,73.963,47.391,73.963,48.701z M69.787,48.071
			c0-0.94-0.202-1.496-0.605-1.668c-0.305-0.206-0.675-0.31-1.112-0.31c-1.112,0-1.668,0.523-1.668,1.57v0.631h3.386V48.071z"/>
		<path fill="#0088CC" d="M75.682,48.75c0-2.018,0.168-3.323,0.506-3.917c0.561-1.252,2.044-1.879,4.449-1.879
			c0.998,0.025,1.986,0.194,2.967,0.507l0.012-0.408l0.012-3.571c0.01-0.627,0.016-1.224,0.025-1.792l4.127-0.729v19.327
			c-1.07,0.174-2.035,0.306-2.891,0.396c-0.947,0.09-1.834,0.136-2.658,0.136c-2.43,0-4.156-0.47-5.178-1.409
			c-0.477-0.502-0.766-0.918-0.865-1.248c-0.338-0.544-0.506-1.898-0.506-4.065V48.75z M79.857,51.407
			c0,0.313,0.033,0.593,0.1,0.841c0.223,0.773,0.939,1.161,2.15,1.161l1.496-0.049v-6.303c-0.619-0.388-1.262-0.581-1.928-0.581
			l-0.605,0.024c-0.809,0.149-1.213,0.655-1.213,1.521V51.407z"/>
		<path fill="#0088CC" d="M89.547,50.95v-7.798h4.227v8.564c0,0.849,0.404,1.363,1.211,1.545c0.346,0.032,0.619,0.04,0.816,0.023
			c0.65-0.04,1.256-0.234,1.816-0.58l0.023-9.553h4.203v13.495h-3.461l-0.209-0.359c-0.025-0.049-0.047-0.094-0.063-0.136
			c-0.041-0.106-0.078-0.222-0.111-0.346l-1.223,0.532c-0.371,0.131-0.742,0.234-1.113,0.309c-0.471,0.099-0.939,0.156-1.41,0.173
			c-0.963,0.05-1.738-0.037-2.322-0.26c-0.75-0.288-1.377-0.831-1.879-1.631C89.717,54.229,89.547,52.902,89.547,50.95z"/>
		<path fill="#0088CC" d="M106.762,52.939c0.33,0.066,0.586,0.189,0.766,0.371c0.215,0.165,0.363,0.407,0.445,0.729
			c0.057,0.206,0.086,0.457,0.086,0.753c0,0.347-0.029,0.626-0.086,0.841c-0.082,0.329-0.23,0.564-0.445,0.705
			c-0.18,0.173-0.449,0.296-0.803,0.37c-0.264,0.058-0.553,0.086-0.865,0.086c-0.314,0-0.598-0.028-0.854-0.086
			c-0.354-0.074-0.617-0.197-0.789-0.37c-0.215-0.141-0.367-0.376-0.459-0.705c-0.064-0.23-0.098-0.511-0.098-0.841
			c0-0.279,0.033-0.531,0.098-0.753c0.092-0.322,0.244-0.564,0.459-0.729c0.172-0.182,0.42-0.305,0.74-0.371
			c0.223-0.04,0.523-0.062,0.902-0.062C106.246,52.878,106.549,52.899,106.762,52.939z"/>
		<path fill="#0088CC" d="M119.02,56.647h-5.314l-4.781-13.495h4.537l2.879,9.07l2.805-9.07h4.51L119.02,56.647z"/>
		<path fill="#0088CC" d="M136.568,48.75v7.897h-4.176v-8.65c0-0.841-0.396-1.347-1.188-1.52c-0.346-0.034-0.619-0.042-0.814-0.025
			c-0.33,0.049-0.6,0.104-0.805,0.161c-0.346,0.099-0.668,0.239-0.963,0.42v9.615h-4.152v-13.52h3.447l0.248,0.531
			c0.049,0.124,0.09,0.243,0.123,0.359c0.025-0.008,0.078-0.033,0.16-0.074l0.248-0.136c0.256-0.124,0.51-0.231,0.766-0.322
			c0.361-0.14,0.729-0.251,1.1-0.333c0.461-0.099,0.926-0.156,1.396-0.173c0.947-0.041,1.705,0.042,2.273,0.247
			c0.742,0.281,1.352,0.816,1.83,1.607C136.4,45.459,136.568,46.765,136.568,48.75z"/>
	</g>
	<g>
		<path fill="#82E2FF" d="M17.27,56.875c0-5.794,0-11.587,0-17.381c-1.304,0.364-2.588,0.846-3.838,1.451c0,7.147,0,14.294,0,21.441
			c6.262-3.029,13.354-3.029,19.616,0C28.011,57.597,22.306,55.604,17.27,56.875z"/>
		<path fill="#82E2FF" d="M49.783,39.494c0,5.794,0,11.587,0,17.381c-5.037-1.271-10.741,0.722-15.778,5.512
			c6.262-3.029,13.354-3.029,19.616,0c0-7.147,0-14.294,0-21.441C52.372,40.34,51.087,39.858,49.783,39.494z"/>
		<path fill="#59C3EC" d="M22.446,35.23c-1.767-0.278-3.509-0.218-5.177,0.202c0,1.354,0,2.708,0,4.062
			c1.701-0.474,3.437-0.742,5.177-0.806C22.446,37.536,22.446,36.384,22.446,35.23z"/>
		<polygon fill="#0EA8E4" points="33.047,40.945 33.047,40.945 33.047,40.945 		"/>
		<polygon fill="#0EA8E4" points="33.047,40.945 33.047,40.945 33.047,40.945 		"/>
		<path fill="#2DADEC" d="M22.446,52.851c0-4.721,0-9.441,0-14.162c-1.74,0.063-3.476,0.332-5.177,0.806c0,5.794,0,11.587,0,17.381
			c5.037-1.271,10.741,0.722,15.778,5.512C29.664,56.313,25.83,52.865,22.446,52.851z"/>
		<polygon fill="#0EA8E4" points="33.047,40.945 33.047,40.945 33.047,40.945 		"/>
		<path fill="#59C3EC" d="M49.783,39.494c0-1.354,0-2.707,0-4.062c-1.668-0.42-3.41-0.48-5.177-0.202c0,1.153,0,2.306,0,3.458
			C46.347,38.752,48.082,39.021,49.783,39.494z"/>
		<path fill="#2DADEC" d="M49.783,56.875c0-5.794,0-11.587,0-17.381c-1.702-0.474-3.437-0.742-5.177-0.806c0,4.721,0,9.441,0,14.162
			c-3.384,0.015-7.217,3.462-10.601,9.536C39.042,57.597,44.747,55.604,49.783,56.875z"/>
		<polygon fill="#0EA8E4" points="33.047,40.945 33.047,40.945 33.047,40.945 		"/>
		<path fill="#59C3EC" d="M22.446,31.408c0,1.274,0,2.548,0,3.822c3.566,0.562,7.233,2.512,10.601,5.715
			C29.664,34.871,25.83,31.423,22.446,31.408z"/>
		<path fill="#1F95DA" d="M33.047,40.945L33.047,40.945c-3.368-3.203-7.035-5.153-10.601-5.715c0,1.153,0,2.306,0,3.458
			C26.048,38.56,29.668,39.311,33.047,40.945z"/>
		<path fill="#1084DA" d="M33.047,40.945c-3.379-1.635-7-2.386-10.601-2.257c0,4.721,0,9.441,0,14.162
			c3.384,0.015,7.217,3.462,10.601,9.536C33.047,55.239,33.047,48.093,33.047,40.945L33.047,40.945z"/>
		<path fill="#59C3EC" d="M44.606,31.408c-3.384,0.015-7.217,3.463-10.601,9.537c3.368-3.203,7.035-5.153,10.601-5.715
			C44.606,33.956,44.606,32.683,44.606,31.408z"/>
		<path fill="#1F95DA" d="M44.606,38.688c0-1.152,0-2.305,0-3.458c-3.566,0.562-7.233,2.512-10.601,5.715l0,0
			C37.384,39.311,41.005,38.56,44.606,38.688z"/>
		<path fill="#1084DA" d="M44.606,52.851c0-4.721,0-9.441,0-14.162c-3.602-0.129-7.222,0.622-10.601,2.257l0,0
			c0,7.147,0,14.294,0,21.441C37.389,56.313,41.223,52.865,44.606,52.851z"/>
	</g>
</g>
</svg>
