<?xml version="1.0" encoding="utf-8"?>
<!-- Generator: Adobe Illustrator 16.0.0, SVG Export Plug-In . SVG Version: 6.00 Build 0)  -->
<!DOCTYPE svg PUBLIC "-//W3C//DTD SVG 1.1//EN" "http://www.w3.org/Graphics/SVG/1.1/DTD/svg11.dtd">
<svg version="1.1" id="Layer_1" xmlns="http://www.w3.org/2000/svg" xmlns:xlink="http://www.w3.org/1999/xlink" x="0px" y="0px"
	 width="150px" height="93.795px" viewBox="0 0 150 93.795" enable-background="new 0 0 150 93.795" xml:space="preserve">
<rect fill="#3C5A9A" width="150" height="93.795"/>
<g>
	<path fill="#FFFFFF" d="M71.555,36.157c1.646-0.274,3.277-0.547,4.944-0.825c0,2.584,0,5.109,0,7.644
		c0.67-0.142,1.306-0.32,1.954-0.401c1.59-0.201,3.177-0.213,4.729,0.303c1.469,0.491,2.286,1.548,2.53,3.038
		c0.134,0.823,0.199,1.666,0.207,2.499c0.017,1.654,0.015,3.309-0.063,4.962c-0.073,1.589-0.526,3.048-1.857,4.085
		c-0.879,0.686-1.912,1.02-2.992,1.198c-2.163,0.362-4.326,0.286-6.491,0.021c-0.889-0.107-1.773-0.252-2.662-0.359
		c-0.244-0.028-0.332-0.129-0.32-0.36c0.008-0.151,0-0.308,0-0.46c0-6.951,0-13.899,0.002-20.852
		C71.533,36.497,71.545,36.344,71.555,36.157z M76.508,54.72c0.967,0.115,1.899,0.16,2.82-0.021
		c0.988-0.195,1.492-0.732,1.537-1.753c0.066-1.534,0.086-3.073,0.049-4.604c-0.025-1.055-0.491-1.508-1.514-1.679
		c-0.976-0.163-1.866,0.132-2.723,0.555c-0.09,0.044-0.16,0.218-0.162,0.335c-0.012,1.381-0.008,2.764-0.008,4.146
		C76.508,52.69,76.508,53.683,76.508,54.72z"/>
	<path fill="#FFFFFF" d="M133.408,58.675c-0.346,0-0.629,0-0.909,0c-1.36,0-2.72-0.01-4.079,0.008
		c-0.295,0.002-0.461-0.093-0.611-0.35c-1.33-2.245-2.681-4.48-4.023-6.717c-0.036-0.063-0.073-0.118-0.162-0.26
		c0,2.477,0,4.865,0,7.295c-0.159,0.007-0.284,0.019-0.407,0.019c-1.396,0.001-2.788-0.011-4.187,0.011
		c-0.328,0.004-0.426-0.09-0.422-0.414c0.016-1.572,0.008-3.145,0.008-4.718c0-5.638,0-11.276,0-16.915
		c0-0.49,0.004-0.48,0.498-0.561c1.359-0.222,2.721-0.457,4.076-0.683c0.115-0.019,0.234-0.02,0.395-0.035c0,4.743,0,9.462,0,14.179
		c0.027,0.009,0.055,0.017,0.081,0.023c0.125-0.189,0.251-0.377,0.373-0.566c1.256-1.987,2.512-3.97,3.762-5.962
		c0.157-0.249,0.321-0.373,0.644-0.368c1.466,0.021,2.933,0.008,4.396,0.008c0.165,0,0.327,0,0.571,0
		c-0.087,0.163-0.14,0.273-0.201,0.376c-1.489,2.355-2.978,4.713-4.478,7.06c-0.164,0.258-0.19,0.439-0.021,0.719
		c1.524,2.513,3.032,5.041,4.541,7.561C133.296,58.457,133.332,58.528,133.408,58.675z"/>
	<path fill="#FFFFFF" d="M69.533,54.241c0.008,0.126,0.021,0.228,0.021,0.33c0.001,1.121-0.004,2.248,0.006,3.367
		c0.001,0.24-0.051,0.338-0.314,0.396c-2.24,0.495-4.507,0.635-6.791,0.533c-1.076-0.047-2.125-0.275-3.111-0.739
		c-1.801-0.846-2.813-2.292-3.153-4.213c-0.123-0.692-0.138-1.407-0.153-2.114c-0.02-1.228-0.042-2.457,0.009-3.686
		c0.06-1.369,0.428-2.653,1.362-3.712c0.803-0.913,1.841-1.424,3.009-1.672c1.997-0.431,3.987-0.432,5.937,0.222
		c2.022,0.675,3.211,2.126,3.46,4.21c0.194,1.631,0.158,3.285,0.225,4.979c-0.244,0-0.381,0-0.52,0c-2.707,0-5.413,0.006-8.12-0.008
		c-0.316,0-0.427,0.096-0.394,0.397c0.025,0.248,0.009,0.5,0.055,0.741c0.16,0.834,0.621,1.31,1.486,1.367
		c1.022,0.07,2.054,0.103,3.076,0.034c1.233-0.083,2.457-0.288,3.683-0.437C69.375,54.231,69.444,54.241,69.533,54.241z
		 M63.015,48.78c0.33,0,0.661,0,0.993,0c1.075,0,1.075,0,0.964-1.073c-0.077-0.736-0.469-1.252-1.199-1.388
		c-0.489-0.089-1.013-0.086-1.505-0.018c-0.604,0.085-1.032,0.47-1.157,1.092c-0.072,0.353-0.067,0.722-0.102,1.084
		c-0.021,0.232,0.079,0.309,0.308,0.306C61.881,48.772,62.449,48.78,63.015,48.78z"/>
	<path fill="#FFFFFF" d="M117.357,50.644c-0.063,1.114-0.059,2.195-0.209,3.254c-0.355,2.504-1.822,4.059-4.271,4.647
		c-2.022,0.489-4.05,0.476-6.045-0.155c-2.159-0.683-3.394-2.199-3.751-4.406c-0.131-0.809-0.141-1.645-0.146-2.469
		c-0.008-1.205-0.033-2.414,0.07-3.611c0.249-2.835,1.826-4.595,4.643-5.191c1.943-0.411,3.896-0.386,5.806,0.238
		c2.114,0.69,3.337,2.183,3.677,4.345C117.309,48.407,117.29,49.549,117.357,50.644z M112.303,50.683c-0.004,0-0.006,0-0.007,0
		c0-0.783,0.015-1.563-0.003-2.341c-0.02-0.749-0.496-1.359-1.207-1.579c-0.589-0.184-1.188-0.197-1.781-0.049
		c-0.809,0.202-1.354,0.786-1.365,1.563c-0.025,1.593-0.025,3.189,0,4.783c0.012,0.762,0.49,1.36,1.235,1.541
		c0.437,0.108,0.911,0.146,1.362,0.116c1.117-0.075,1.756-0.788,1.762-1.907C112.307,52.099,112.303,51.39,112.303,50.683z"/>
	<path fill="#FFFFFF" d="M101.688,50.817c-0.08,1.031-0.084,2.229-0.289,3.396c-0.426,2.417-1.978,3.824-4.314,4.365
		c-1.902,0.443-3.813,0.425-5.704-0.114c-2.237-0.64-3.563-2.125-3.979-4.405c-0.103-0.555-0.139-1.125-0.147-1.688
		c-0.019-1.323-0.045-2.647,0.011-3.97c0.07-1.688,0.563-3.229,1.895-4.384c0.898-0.782,1.979-1.183,3.136-1.373
		c1.911-0.315,3.81-0.292,5.656,0.368c2.053,0.735,3.196,2.248,3.509,4.362C101.617,48.454,101.609,49.56,101.688,50.817z
		 M92.248,50.658c-0.01,0-0.018,0-0.023,0c0,0.71,0,1.419,0.002,2.128c0,0.104,0.01,0.213,0.021,0.316
		c0.089,0.736,0.447,1.291,1.182,1.478c0.469,0.119,0.979,0.169,1.463,0.129c1.051-0.09,1.713-0.798,1.719-1.771
		c0.012-1.513,0.009-3.027-0.002-4.539c-0.004-0.803-0.487-1.422-1.26-1.648c-0.615-0.182-1.231-0.183-1.85-0.006
		c-0.74,0.214-1.213,0.765-1.245,1.54C92.223,49.076,92.248,49.867,92.248,50.658z"/>
	<path fill="#FFFFFF" d="M36.445,57.831c-0.939,0.298-1.834,0.637-2.756,0.857c-1.097,0.261-2.22,0.314-3.329,0.006
		c-1.747-0.485-2.703-1.688-3.049-3.418c-0.169-0.851-0.157-1.715,0.022-2.566c0.333-1.582,1.337-2.523,2.885-2.854
		c0.721-0.152,1.471-0.197,2.21-0.228c0.993-0.036,1.986-0.021,2.978-0.001c0.305,0.006,0.4-0.096,0.369-0.386
		c-0.023-0.245-0.027-0.493-0.021-0.743c0.024-1.276-0.603-1.548-1.609-1.592c-1.604-0.069-3.213-0.056-4.819-0.076
		c-0.14-0.002-0.28,0-0.477,0c0.032-0.391,0.053-0.749,0.088-1.107c0.091-0.938,0.183-1.877,0.296-2.814
		c0.01-0.088,0.172-0.225,0.263-0.224c2.068,0.012,4.137,0.011,6.203,0.083c0.661,0.021,1.331,0.19,1.973,0.374
		c1.773,0.504,2.674,1.775,2.924,3.537c0.104,0.734,0.145,1.48,0.148,2.221c0.017,3.132,0.001,6.265,0.014,9.398
		c0.003,0.333-0.079,0.447-0.429,0.438c-1.112-0.021-2.224-0.021-3.334,0.004c-0.329,0.006-0.438-0.129-0.468-0.417
		C36.509,58.14,36.466,57.955,36.445,57.831z M34.293,52.985c0,0.002,0,0.004,0,0.006c-0.366,0-0.731-0.01-1.098,0.003
		c-0.722,0.022-1.027,0.354-1.011,1.069c0.018,0.82,0.392,1.203,1.212,1.25c0.793,0.049,1.513-0.196,2.196-0.56
		c0.094-0.052,0.167-0.22,0.174-0.338c0.021-0.377-0.001-0.754,0.011-1.134c0.009-0.238-0.092-0.307-0.315-0.299
		C35.073,52.994,34.683,52.985,34.293,52.985z"/>
	<path fill="#FFFFFF" d="M27.695,34.889c0,0.992,0,1.878,0,2.763c0,0.378-0.01,0.757,0.001,1.134
		c0.008,0.231-0.068,0.313-0.304,0.309c-0.649-0.012-1.301-0.009-1.951,0.003c-0.222,0.004-0.449,0.032-0.664,0.084
		c-0.422,0.104-0.688,0.386-0.701,0.826c-0.025,0.87-0.008,1.742-0.008,2.658c1.179,0,2.389,0,3.647,0
		c-0.063,0.665-0.117,1.284-0.18,1.901c-0.063,0.622-0.145,1.241-0.194,1.866c-0.022,0.283-0.101,0.411-0.422,0.403
		c-0.955-0.022-1.912-0.007-2.899-0.007c0,3.945,0,7.863,0,11.814c-1.657,0-3.281,0-4.954,0c-0.013-0.162-0.035-0.33-0.035-0.5
		c-0.001-3.631-0.005-7.259,0.006-10.888c0.001-0.331-0.067-0.455-0.425-0.438c-0.656,0.033-1.317,0.01-2.022,0.01
		c0-0.171,0-0.296,0-0.421c0-1.063-0.005-2.126,0-3.191c0.002-0.595-0.07-0.537,0.524-0.542c0.532-0.003,1.064-0.016,1.596,0.002
		c0.259,0.009,0.322-0.091,0.322-0.327c0.005-0.981-0.011-1.963,0.047-2.942c0.072-1.228,0.408-2.374,1.341-3.258
		c0.695-0.66,1.555-1.034,2.479-1.103C24.475,34.934,26.057,34.938,27.695,34.889z"/>
	<path fill="#FFFFFF" d="M54.651,47.143c-0.792-0.123-1.522-0.248-2.255-0.348c-1.254-0.171-2.511-0.31-3.768-0.04
		c-0.794,0.171-1.259,0.674-1.273,1.48c-0.032,1.637-0.031,3.279,0,4.918c0.014,0.758,0.451,1.314,1.201,1.416
		c0.904,0.119,1.833,0.166,2.743,0.106c1.031-0.065,2.053-0.284,3.079-0.431c0.067-0.01,0.138-0.003,0.239-0.003
		c0.013,0.092,0.035,0.183,0.035,0.271c0.001,1.146-0.003,2.291,0.003,3.438c0.001,0.224-0.047,0.324-0.292,0.379
		c-1.841,0.417-3.699,0.662-5.584,0.542c-1.664-0.106-3.241-0.504-4.533-1.657c-1.092-0.972-1.708-2.232-1.807-3.654
		c-0.122-1.752-0.161-3.521-0.065-5.27c0.107-1.986,0.912-3.677,2.694-4.759c0.984-0.601,2.075-0.881,3.212-1.003
		c2.057-0.223,4.071,0.06,6.071,0.508c0.114,0.024,0.286,0.167,0.286,0.256C54.657,44.558,54.651,45.819,54.651,47.143z"/>
</g>
</svg>
