<?xml version="1.0" encoding="utf-8"?>
<!-- Generator: Adobe Illustrator 16.0.0, SVG Export Plug-In . SVG Version: 6.00 Build 0)  -->
<!DOCTYPE svg PUBLIC "-//W3C//DTD SVG 1.1//EN" "http://www.w3.org/Graphics/SVG/1.1/DTD/svg11.dtd">
<svg version="1.1" id="Layer_1" xmlns="http://www.w3.org/2000/svg" xmlns:xlink="http://www.w3.org/1999/xlink" x="0px" y="0px"
	 width="150px" height="93.795px" viewBox="0 0 150 93.795" enable-background="new 0 0 150 93.795" xml:space="preserve">
<g>
	<linearGradient id="SVGID_1_" gradientUnits="userSpaceOnUse" x1="44.9478" y1="31.7461" x2="35.598" y2="61.6821">
		<stop  offset="0" style="stop-color:#F8E432"/>
		<stop  offset="1" style="stop-color:#EF861B"/>
	</linearGradient>
	<path fill="url(#SVGID_1_)" d="M59.612,47.1c-1.267-7.151-5.282-12.057-12.07-14.652c-1.7-0.652-3.483-0.976-5.306-0.994
		c-0.578-0.007-0.802-0.181-0.747-0.786c0.059-0.619-0.035-1.254,0.028-1.871c0.064-0.63-0.212-0.714-0.741-0.679
		c-1.875,0.125-3.707,0.45-5.482,1.092c-7.088,2.565-11.866,9.162-12.055,16.694c-0.012,0.468-0.18,0.555-0.587,0.541
		c-0.748-0.024-1.5,0.017-2.248-0.018c-0.434-0.019-0.525,0.15-0.5,0.539c0.069,1.143,0.177,2.286,0.435,3.401
		c1.923,8.31,8.815,13.981,17.433,14.338c0.352,0.013,0.47,0.109,0.46,0.463c-0.023,0.77,0.014,1.543-0.014,2.31
		c-0.015,0.404,0.096,0.568,0.519,0.522c0.681-0.074,1.373-0.071,2.05-0.171c8.497-1.249,14.862-8.019,15.649-16.603
		c0.046-0.489-0.155-1.185,0.184-1.414c0.357-0.24,1-0.055,1.516-0.055c0-0.015,0-0.023,0-0.042c0.375,0,0.753-0.029,1.125,0.009
		c0.468,0.048,0.571-0.163,0.528-0.569C59.716,48.466,59.73,47.772,59.612,47.1z M42.29,60.3c-6.632,1.42-13.481-3.209-14.638-9.89
		c-1.217-7.029,3.219-13.392,10.243-14.617c2.565-0.448,5.054-0.069,7.396,1.123l0,0c0.528,0.235,1.031,0.513,1.489,0.869
		c3.054,2.057,4.871,4.928,5.355,8.555C53.025,53.015,48.829,58.898,42.29,60.3z"/>
	<path fill="#FFFFFF" d="M46.78,37.787c-1.616,2.784-3.225,5.57-4.85,8.35c-0.138,0.236-0.091,0.386,0.036,0.611
		c0.646,1.127,0.438,2.432-0.489,3.222c-0.902,0.771-2.283,0.786-3.216,0.033c-0.935-0.752-1.188-2.088-0.547-3.211
		c0.18-0.313,0.074-0.486-0.06-0.719c-1-1.726-1.993-3.455-2.995-5.177c-0.197-0.338-0.334-0.675-0.129-1.055
		c0.344-0.634,1.137-0.581,1.546,0.121c0.993,1.704,1.974,3.417,2.959,5.125c0.437,0.751,1.133,0.748,1.57-0.014
		c1.562-2.719,3.122-5.438,4.686-8.155c-2.341-1.191-4.83-1.57-7.396-1.123c-7.025,1.223-11.461,7.588-10.244,14.617
		c1.157,6.681,8.006,11.308,14.638,9.89c6.54-1.398,10.736-7.287,9.845-13.958C51.65,42.713,49.833,39.842,46.78,37.787z"/>
	<path fill="#5F6163" d="M45.128,37.546c-1.461,2.541-2.933,5.08-4.401,7.617c-0.481,0.836-1.306,0.85-1.803,0.02
		c-0.961-1.606-1.879-3.239-2.825-4.854c-0.399-0.682-0.74-0.853-1.155-0.62c-0.423,0.235-0.439,0.611-0.037,1.306
		c0.92,1.584,1.821,3.176,2.76,4.747c0.274,0.456,0.317,0.822,0.089,1.325c-0.401,0.879-0.287,1.764,0.345,2.516
		c0.59,0.708,1.394,0.879,2.264,0.717c1.424-0.268,2.204-1.815,1.583-3.207c-0.241-0.541-0.215-0.972,0.076-1.462
		c1.402-2.361,2.738-4.76,4.137-7.123c0.162-0.273,0.245-0.633,0.618-0.741c-0.458-0.356-0.962-0.634-1.49-0.869l0,0l0,0
		C45.412,37.17,45.239,37.353,45.128,37.546z"/>
	<path fill="#5F6163" d="M39.036,45.084c-0.986-1.708-1.967-3.42-2.959-5.125c-0.41-0.701-1.203-0.755-1.546-0.121
		c-0.206,0.38-0.067,0.718,0.129,1.055c1.002,1.724,1.997,3.451,2.994,5.177c0.134,0.231,0.24,0.408,0.061,0.721
		c-0.644,1.124-0.389,2.459,0.547,3.211c0.933,0.753,2.314,0.735,3.216-0.035c0.926-0.79,1.135-2.094,0.489-3.222
		c-0.127-0.223-0.174-0.373-0.036-0.612c1.625-2.779,3.233-5.565,4.849-8.349c-0.372,0.108-0.456,0.468-0.618,0.741
		c-1.4,2.361-2.736,4.762-4.138,7.122c-0.291,0.49-0.317,0.922-0.076,1.462c0.622,1.393-0.159,2.938-1.582,3.207
		c-0.871,0.162-1.675-0.009-2.265-0.715c-0.629-0.752-0.746-1.639-0.346-2.519c0.23-0.502,0.185-0.869-0.087-1.324
		c-0.939-1.57-1.84-3.163-2.758-4.747c-0.404-0.694-0.386-1.071,0.036-1.306c0.415-0.233,0.757-0.062,1.155,0.621
		c0.945,1.617,1.862,3.249,2.823,4.854c0.497,0.831,1.322,0.815,1.805-0.019c1.467-2.537,2.94-5.077,4.401-7.617
		c0.112-0.194,0.283-0.375,0.162-0.629l0,0c-1.562,2.717-3.123,5.436-4.685,8.153C40.168,45.833,39.472,45.837,39.036,45.084z"/>
</g>
<g>
	<path d="M78.346,44.67c-0.011-0.97,0.061-1.942-0.038-2.909c-0.076-0.733-0.369-1.361-1.125-1.609
		c-0.82-0.27-1.612-0.23-2.286,0.393c-0.207,0.192-0.346,0.439-0.516,0.678c0-0.094,0-0.188,0-0.283c0-2.191,0-4.381,0-6.573
		c0-1.221-0.006-2.44,0.004-3.661c0.002-0.192-0.048-0.252-0.244-0.246c-0.387,0.015-0.774,0.016-1.161,0
		c-0.194-0.009-0.281,0.063-0.358,0.238c-1.606,3.608-3.219,7.214-4.825,10.822c-0.076,0.171-0.159,0.243-0.357,0.24
		c-0.85-0.011-1.701-0.012-2.551,0c-0.219,0.005-0.256-0.073-0.234-0.262c0.088-0.839,0.38-1.596,0.885-2.273
		c0.457-0.611,1.074-1.029,1.695-1.449c0.818-0.553,1.653-1.088,2.268-1.882c1.169-1.507,0.884-3.706-0.624-4.779
		c-0.891-0.632-1.896-0.767-2.948-0.609c-1.244,0.187-2.265,0.76-2.986,1.817c-0.077,0.114-0.1,0.188,0.02,0.297
		c0.272,0.249,0.531,0.514,0.786,0.782c0.103,0.107,0.153,0.111,0.246-0.02c0.749-1.067,1.791-1.464,3.064-1.329
		c0.708,0.075,1.22,0.483,1.39,1.119c0.18,0.685,0.064,1.305-0.401,1.855c-0.33,0.391-0.731,0.696-1.142,0.993
		c-0.778,0.564-1.613,1.069-2.261,1.785c-1.344,1.488-1.759,3.293-1.683,5.248c0.008,0.243,0.1,0.295,0.339,0.295
		c3.059-0.01,6.117-0.006,9.176-0.013c0.217,0,0.269,0.059,0.263,0.27c-0.008,1.032,0,2.063-0.004,3.094
		c-0.002,0.146,0.021,0.214,0.191,0.209c0.419-0.014,0.843-0.012,1.265,0c0.168,0.005,0.196-0.063,0.191-0.211
		c-0.006-0.353-0.002-0.706-0.002-1.058c0-0.886-0.006-1.771,0.002-2.655c0.006-0.811,0.384-1.408,1.003-1.614
		c0.71-0.238,1.31,0.071,1.422,0.737c0.027,0.168,0.038,0.342,0.038,0.512c0.004,1.35,0.008,2.698-0.002,4.047
		c-0.003,0.207,0.061,0.263,0.259,0.254c0.335-0.016,0.672-0.015,1.003,0c0.191,0.008,0.253-0.046,0.248-0.242
		C78.341,46.011,78.355,45.341,78.346,44.67z M72.461,41.762c-0.868-0.014-1.735-0.007-2.603-0.007
		c-0.083,0-0.169,0.023-0.249-0.022c0.05-0.2,2.926-7.296,3.125-7.613c0,0.075,0,0.147,0,0.221c0,2.378-0.003,4.757,0.007,7.136
		C72.739,41.699,72.693,41.767,72.461,41.762z"/>
	<path d="M69.134,45.389c-0.223,0.001-0.446,0.006-0.669-0.002c-0.132-0.005-0.181,0.035-0.181,0.174
		c0,0.137,0.048,0.183,0.181,0.173c0.11-0.008,0.223,0.001,0.334-0.002c0.096-0.002,0.137,0.029,0.132,0.136
		c-0.021,0.425-0.562,0.842-0.976,0.743c-0.466-0.111-0.818-0.592-0.836-1.14c-0.02-0.601,0.282-1.104,0.751-1.25
		c0.47-0.146,0.791,0.089,1.077,0.436c0.256-0.258,0.256-0.258,0.021-0.482c-0.497-0.475-1.22-0.469-1.709,0.017
		c-0.587,0.587-0.637,1.678-0.104,2.314c0.268,0.319,0.594,0.499,1.029,0.471c0.711-0.046,1.145-0.765,1.117-1.457
		C69.299,45.391,69.227,45.389,69.134,45.389z"/>
	<path d="M66.52,46.141c-0.192,0.027-0.174-0.098-0.174-0.221c0.001-0.692,0.001-1.385,0.001-2.077
		c-0.018-0.003-0.033-0.007-0.05-0.012c-0.483,0.83-0.962,1.659-1.45,2.486c-0.095,0.162-0.007,0.165,0.115,0.163
		c0.275-0.003,0.55,0.009,0.825-0.005c0.181-0.009,0.279,0.026,0.248,0.234c-0.017,0.113-0.02,0.216,0.159,0.216
		c0.187-0.001,0.158-0.115,0.153-0.222c-0.007-0.142-0.005-0.254,0.193-0.229c0.114,0.015,0.103-0.085,0.104-0.161
		C66.646,46.223,66.649,46.124,66.52,46.141z M65.886,46.14c-0.171-0.007-0.341-0.001-0.568-0.001
		c0.235-0.406,0.451-0.778,0.666-1.15c0.016,0.004,0.033,0.009,0.048,0.014c0,0.329-0.002,0.659,0.002,0.988
		C66.036,46.101,65.996,46.145,65.886,46.14z"/>
	<path d="M64.42,46.572c-0.266,0.008-0.532,0.003-0.813,0.003c0-0.042-0.008-0.063,0-0.073c0.247-0.363,0.496-0.723,0.75-1.077
		c0.127-0.18,0.203-0.379,0.228-0.592c0.056-0.486-0.262-0.925-0.725-1.001c-0.415-0.067-0.766,0.233-0.885,0.715
		c-0.044,0.182,0.018,0.194,0.168,0.194c0.135-0.001,0.14-0.084,0.17-0.177c0.069-0.221,0.218-0.388,0.458-0.381
		c0.247,0.006,0.395,0.174,0.473,0.41c0.092,0.288-0.07,0.498-0.212,0.708c-0.36,0.529-0.729,1.052-1.124,1.619
		c0.539,0,1.024-0.005,1.51,0.002c0.136,0.004,0.175-0.041,0.176-0.176C64.598,46.609,64.553,46.568,64.42,46.572z"/>
	<path d="M72.05,44.989c-0.134-0.118-0.167-0.015-0.228,0.064c-0.046,0.058-0.065,0.17-0.188,0.083
		c-0.615-0.436-1.326,0.083-1.324,0.828c-0.006,0.449,0.232,0.847,0.58,0.972c0.323,0.117,0.689,0.019,0.9-0.254
		c0.257-0.332,0.299-0.71,0.165-1.092c-0.057-0.157-0.038-0.255,0.074-0.358C72.105,45.16,72.178,45.101,72.05,44.989z
		 M71.169,46.637c-0.281,0.002-0.541-0.306-0.544-0.646c-0.003-0.366,0.242-0.653,0.553-0.645c0.299,0.006,0.532,0.286,0.529,0.642
		C71.705,46.329,71.45,46.635,71.169,46.637z"/>
	<path d="M69.96,45.974c0-0.267-0.005-0.532,0.002-0.799c0.003-0.123-0.059-0.137-0.159-0.137c-0.096,0-0.161,0.006-0.16,0.133
		c0.005,0.533,0.004,1.065,0,1.597c0,0.107,0.028,0.157,0.144,0.152c0.106-0.004,0.18-0.01,0.175-0.15
		C69.955,46.507,69.96,46.24,69.96,45.974z"/>
	<path d="M69.82,43.928c-0.153-0.003-0.225,0.113-0.223,0.254c0.004,0.141,0.07,0.252,0.231,0.242
		c0.147-0.007,0.188-0.122,0.196-0.236C70.015,44.043,69.961,43.931,69.82,43.928z"/>
	<path d="M71.517,44.823c0.051,0.048,0.099,0.105,0.175,0.047c0.087-0.067,0.018-0.12-0.019-0.171
		c-0.079-0.112-0.16-0.223-0.245-0.332c-0.023-0.031-0.038-0.081-0.116-0.06c-0.038,0.03-0.104,0.062-0.145,0.115
		c-0.058,0.073,0.033,0.099,0.069,0.135C71.328,44.65,71.425,44.735,71.517,44.823z"/>
</g>
<g>
	<path d="M87.452,46.984l2.108,11.061c0.142,0.732,0.422,1.25,0.845,1.546v2.623h-5.999v-2.623c0.344-0.281,0.515-0.75,0.515-1.406
		h-2.343c0,0.656,0.188,1.125,0.563,1.406v2.623h-5.202V59.45c0.345-0.344,0.577-0.859,0.703-1.547l1.969-10.919H87.452z
		 M84.406,55.232l-0.704-4.451l-0.701,4.451H84.406z"/>
	<path d="M93.288,51.377h6.141l1.498,5.858l1.595-5.858h5.857v2.672c-0.313,0.234-0.492,0.569-0.539,1.007
		c-0.016,0.08-0.023,0.477-0.023,1.196v5.856c0,0.532,0.008,0.861,0.023,0.984c0.078,0.36,0.257,0.61,0.539,0.75v2.765h-5.718
		v-2.765c0.343-0.124,0.516-0.468,0.516-1.03v-4.312l-2.108,8.106h-1.359L97.6,58.642v3.467c0,0.5,0.015,0.828,0.046,0.984
		c0.059,0.36,0.223,0.61,0.494,0.75v2.765h-4.852v-2.765c0.344-0.077,0.515-0.359,0.515-0.843v-7.968
		c0-0.529-0.171-0.858-0.515-0.983V51.377z"/>
	<path d="M111.683,48.06h11.482v5.296h-4.499V52.36c0-0.634-0.428-0.95-1.283-0.95h-0.428v2.789h3.116v2.953h-3.116v2.952
		l0.38,0.047c0.887,0,1.331-0.391,1.331-1.173v-1.124h4.499v5.436h-11.482v-2.765c0.282-0.154,0.422-0.438,0.422-0.843v-7.686
		c0-0.563-0.14-0.983-0.422-1.266V48.06z"/>
	<g>
		<path d="M68.61,60.313v-2.01h7.812v1.513c0,2.15-0.721,3.82-2.157,5.008c-1.44,1.189-3.453,1.784-6.041,1.784
			c-1.27,0-2.445-0.163-3.521-0.491c-1.077-0.327-1.993-0.83-2.748-1.508c-0.756-0.677-1.266-1.509-1.531-2.495
			c-0.265-0.987-0.397-2.315-0.397-3.987c0-3.019,0.587-5.226,1.76-6.62c1.174-1.396,3.022-2.094,5.545-2.094
			c1.416,0,2.717,0.303,3.908,0.906v-0.63h4.389v5.4h-4.389c0-2.319-0.974-3.479-2.919-3.479c-0.738,0-1.288,0.152-1.651,0.458
			c-0.361,0.306-0.624,0.895-0.784,1.768c-0.16,0.872-0.241,2.203-0.241,3.991c0,1.951,0.074,3.377,0.217,4.274
			c0.145,0.898,0.401,1.508,0.771,1.828c0.37,0.32,0.95,0.479,1.738,0.479c1.141,0,1.881-0.344,2.218-1.032
			c0.337-0.688,0.506-1.71,0.506-3.064H68.61z"/>
	</g>
</g>
<g>
	<path fill="#D5459F" d="M88.53,46.984l2.109,11.061c0.141,0.732,0.421,1.25,0.845,1.546v2.623h-6v-2.623
		C85.828,59.31,86,58.841,86,58.185h-2.343c0,0.656,0.188,1.125,0.563,1.406v2.623h-5.202V59.45
		c0.345-0.344,0.577-0.859,0.702-1.547l1.97-10.919H88.53z M85.484,55.232l-0.703-4.451l-0.702,4.451H85.484z"/>
	<path fill="#8FC647" d="M94.367,51.377h6.141l1.498,5.858l1.595-5.858h5.857v2.672c-0.313,0.234-0.492,0.569-0.54,1.007
		c-0.016,0.08-0.022,0.477-0.022,1.196v5.856c0,0.532,0.007,0.861,0.022,0.984c0.078,0.36,0.258,0.61,0.54,0.75v2.765h-5.719v-2.765
		c0.344-0.124,0.517-0.468,0.517-1.03v-4.312l-2.109,8.106h-1.358l-2.109-7.966v3.467c0,0.5,0.015,0.828,0.045,0.984
		c0.06,0.36,0.224,0.61,0.494,0.75v2.765h-4.851v-2.765c0.343-0.077,0.515-0.359,0.515-0.843v-7.968
		c0-0.529-0.172-0.858-0.515-0.983V51.377z"/>
	<path fill="#F6C439" d="M112.762,48.06h11.481v5.296h-4.498V52.36c0-0.634-0.428-0.95-1.283-0.95h-0.428v2.789h3.116v2.953h-3.116
		v2.952l0.379,0.047c0.888,0,1.332-0.391,1.332-1.173v-1.124h4.498v5.436h-11.481v-2.765c0.282-0.154,0.421-0.438,0.421-0.843
		v-7.686c0-0.563-0.139-0.983-0.421-1.266V48.06z"/>
	<g>
		<path fill="#3695D1" d="M69.689,60.313v-2.01h7.812v1.513c0,2.15-0.721,3.82-2.157,5.008c-1.44,1.189-3.454,1.784-6.042,1.784
			c-1.27,0-2.444-0.163-3.521-0.491c-1.077-0.327-1.993-0.83-2.748-1.508c-0.756-0.677-1.267-1.509-1.531-2.495
			c-0.265-0.987-0.398-2.315-0.398-3.987c0-3.019,0.587-5.226,1.76-6.62c1.174-1.396,3.022-2.094,5.546-2.094
			c1.415,0,2.717,0.303,3.907,0.906v-0.63h4.389v5.4h-4.389c0-2.319-0.974-3.479-2.918-3.479c-0.738,0-1.289,0.152-1.651,0.458
			c-0.361,0.306-0.624,0.895-0.784,1.768c-0.16,0.872-0.241,2.203-0.241,3.991c0,1.951,0.074,3.377,0.217,4.274
			C67.084,63,67.34,63.609,67.71,63.93c0.37,0.32,0.95,0.479,1.738,0.479c1.142,0,1.881-0.344,2.218-1.032
			c0.337-0.688,0.505-1.71,0.505-3.064H69.689z"/>
	</g>
</g>
<g>
	
		<ellipse transform="matrix(0.9488 0.3159 -0.3159 0.9488 15.3929 -28.2907)" fill="#F77B06" cx="94.953" cy="33.331" rx="8.355" ry="3.45"/>
	<path fill="#F77B06" d="M87.296,36.433c0,0-5.528,5.922-6.405,2.253c0,0,0.169-9.872,6.776-12.164c0,0,3.253-0.877,3.817,2.461
		C91.484,28.982,91.577,32.387,87.296,36.433z"/>
	<g>
		<circle fill="#FFFFFF" cx="89.605" cy="35.27" r="1.635"/>
		<path fill="#F77B06" d="M89.605,37.309c-1.126,0-2.04-0.915-2.04-2.04c0-1.125,0.914-2.04,2.04-2.04
			c1.125,0,2.039,0.915,2.039,2.04C91.645,36.394,90.73,37.309,89.605,37.309z M89.605,34.039c-0.679,0-1.23,0.552-1.23,1.23
			c0,0.678,0.552,1.23,1.23,1.23c0.678,0,1.23-0.552,1.23-1.23C90.836,34.591,90.283,34.039,89.605,34.039z"/>
	</g>
	<g>
		<circle fill="#FFFFFF" cx="89.705" cy="29.905" r="0.864"/>
		<g>
			<circle fill="#FFFFFF" cx="87.322" cy="28.651" r="0.863"/>
			<circle fill="#FFFFFF" cx="86.131" cy="30.989" r="0.863"/>
			<circle fill="#FFFFFF" cx="88.513" cy="32.243" r="0.863"/>
		</g>
	</g>
	<path fill="#F77B06" d="M100.227,40.248c0,0,2.053,7.838,4.566,5.024c0,0,4.538-8.768-0.188-13.923c0,0-2.446-2.316-4.528,0.354
		C100.076,31.702,98.378,34.655,100.227,40.248z"/>
	<g>
		<circle fill="#FFFFFF" cx="99.136" cy="38.368" r="1.635"/>
		<path fill="#F77B06" d="M97.097,38.368c0-1.125,0.914-2.04,2.039-2.04s2.04,0.915,2.04,2.04s-0.915,2.04-2.04,2.04
			S97.097,39.492,97.097,38.368z M97.905,38.368c0,0.678,0.552,1.23,1.23,1.23s1.23-0.552,1.23-1.23s-0.552-1.23-1.23-1.23
			S97.905,37.689,97.905,38.368z"/>
	</g>
	<g>
		<circle fill="#FFFFFF" cx="101.418" cy="34.947" r="0.863"/>
		<g>
			<circle fill="#FFFFFF" cx="103.8" cy="33.693" r="0.863"/>
			<circle fill="#FFFFFF" cx="104.991" cy="36.031" r="0.863"/>
			<circle fill="#FFFFFF" cx="102.609" cy="37.285" r="0.863"/>
		</g>
	</g>
	<path fill="#F77B06" d="M96.103,30.422l-0.699-0.517c0.393-0.258,0.655-1.071,0.664-1.703c0.003-0.286,0.008-0.56,0.043-0.794
		c0.089-0.597,0.395-1.046,0.712-1.443c0.47-0.588,0.855-0.604,1.302-0.624c0.098-0.004,0.205-0.009,0.328-0.02
		c0.391-0.035,0.797-0.05,1.204-0.064c0.539-0.019,1.098-0.039,1.614-0.111c0.667-0.093,1.26-0.603,1.812-1.557l0.699,0.406
		c-0.685,1.184-1.469,1.822-2.399,1.953c-0.558,0.078-1.137,0.098-1.697,0.118c-0.393,0.014-0.783,0.027-1.161,0.062
		c-0.136,0.012-0.256,0.017-0.363,0.022c-0.394,0.017-0.466,0.021-0.706,0.321c-0.285,0.356-0.486,0.672-0.543,1.056
		c-0.031,0.203-0.032,0.439-0.035,0.686C96.866,28.977,96.854,29.928,96.103,30.422z"/>
</g>
<path fill="#43A9E0" d="M128.028,33.724c1.012,2.104-0.084,4.732-2.446,5.867l-10.453,5.027c-2.363,1.135-5.096,0.35-6.108-1.754
	l0,0c-1.011-2.104,0.081-4.73,2.444-5.866l10.453-5.027C124.28,30.835,127.017,31.621,128.028,33.724L128.028,33.724z"/>
<g>
	<circle fill="#43A9E0" cx="111.951" cy="41.992" r="4.607"/>
	<path fill="#FFFFFF" d="M111.951,45.532c-1.952,0-3.539-1.588-3.539-3.54s1.587-3.54,3.539-3.54c1.951,0,3.539,1.588,3.539,3.54
		S113.902,45.532,111.951,45.532z M111.951,38.992c-1.653,0-3,1.346-3,3s1.347,3,3,3c1.654,0,2.999-1.346,2.999-3
		S113.605,38.992,111.951,38.992z"/>
	<g>
		<path fill="#FFFFFF" d="M112.976,42.719c0.093,0.131,0.064,0.313-0.066,0.407l0,0c-0.132,0.095-0.315,0.065-0.41-0.067
			l-1.573-2.189c-0.094-0.131-0.065-0.313,0.066-0.408l0,0c0.13-0.095,0.313-0.065,0.408,0.066L112.976,42.719z"/>
		<path fill="#FFFFFF" d="M111.026,42.818c-0.132,0.095-0.313,0.065-0.408-0.065l0,0c-0.094-0.132-0.065-0.314,0.065-0.409
			l2.19-1.575c0.132-0.095,0.314-0.065,0.409,0.066l0,0c0.094,0.131,0.065,0.313-0.067,0.408L111.026,42.818z"/>
	</g>
</g>
<g>
	<circle fill="#43A9E0" cx="124.862" cy="35.811" r="4.607"/>
	<path fill="#FFFFFF" d="M124.851,39.351c-1.952-0.007-3.534-1.601-3.527-3.552s1.601-3.534,3.552-3.527s3.533,1.601,3.526,3.553
		C128.395,37.775,126.801,39.358,124.851,39.351z M124.873,32.811c-1.653-0.006-3.004,1.335-3.011,2.99
		c-0.006,1.655,1.336,3.005,2.99,3.011c1.653,0.006,3.003-1.335,3.01-2.99C127.867,34.167,126.527,32.817,124.873,32.811z"/>
	<g>
		<circle fill="#FFFFFF" cx="123.625" cy="35.51" r="0.599"/>
		<g>
			<circle fill="#FFFFFF" cx="125.279" cy="34.647" r="0.598"/>
			<circle fill="#FFFFFF" cx="126.1" cy="36.27" r="0.599"/>
			<circle fill="#FFFFFF" cx="124.446" cy="37.134" r="0.598"/>
		</g>
	</g>
</g>
<path fill="#43A9E0" d="M117.268,35.217c-0.51-0.23-0.962-0.743-1.381-1.568c-0.322-0.636-0.148-1.393,0.056-1.915
	c0.11-0.287,0.291-0.526,0.465-0.756c0.222-0.292,0.412-0.543,0.42-0.829c0.006-0.222-0.055-0.513-0.141-0.677
	c-0.078-0.148-0.227-0.266-0.396-0.401c-0.123-0.097-0.246-0.197-0.358-0.312l0.577-0.566c0.09,0.091,0.188,0.168,0.284,0.244
	c0.212,0.168,0.452,0.359,0.61,0.659c0.148,0.284,0.242,0.716,0.232,1.074c-0.015,0.546-0.315,0.944-0.583,1.296
	c-0.146,0.194-0.286,0.378-0.356,0.559c-0.117,0.303-0.284,0.867-0.088,1.257c0.327,0.645,0.661,1.047,0.992,1.196L117.268,35.217z"
	/>
<path fill="#FFFFFF" d="M117.423,39.136c0,0.127-0.103,0.23-0.23,0.23l0,0c-0.127,0-0.23-0.103-0.23-0.23v-1.503
	c0-0.127,0.104-0.23,0.23-0.23l0,0c0.128,0,0.23,0.103,0.23,0.23V39.136z"/>
<path fill="#FFFFFF" d="M119.384,38.154c0,0.127-0.104,0.23-0.23,0.23l0,0c-0.128,0-0.231-0.103-0.231-0.23v-1.503
	c0-0.127,0.104-0.23,0.231-0.23l0,0c0.127,0,0.23,0.103,0.23,0.23V38.154z"/>
</svg>
