<svg xmlns="http://www.w3.org/2000/svg" width="150" height="93.8"><path fill="none" d="M30.2 39.3c-1.7.5-3.4 1-5 1.7a17.8 17.8 0 0 0-9.8 8.6c-2.1 4.4-1.6 8.6 1.5 11.9 1.5 1.5 3.4 2.6 5.4 3.4 3.9 1.7 8 1.2 12 1.2l-.5-.3c0-.1.1-.2.3-.2.9 0 1.7-.5 2.5-.6 3.2-.5 6-1.8 9.1-2.7l1.5-.7-3.6.6c-.2 0-.5.2-.6 0 0-.3.2-.4.4-.5.9-.4 2-.6 1.8-2.1l.3-.4c.3-.3.4-.5.4-1 0-.4.2-.9.5-1.3a36.4 36.4 0 0 1 3.8-4.2c-.7-.8.3-.9.5-1l4.2-2.8c-2.6 1-5.3.1-8 .5l1-.6-1.3.1c-1.2.2-2.3 0-3.3-.6-5-2.7-10.2-2.5-15.3-.4-1.8.7-3.2 2-4 3.8-1.1 2.5-.3 4.5 2.3 5.5 1.5.6 3 .2 3.9-1 .8-1.2.7-2-.6-3.5-1.6-2-1-4 1.6-4.7 1.8-.4 3.6-.2 5.3.2 3.4.8 5.2 3.7 4.4 7-1.2 5.7-5.4 9-11.2 9-5 0-7.8-2.4-8.6-7-.3-1.8 0-3.6.7-5.2.3-.6 1-1.3 1.4-1.9.4-.6 2.3-.9.8-2.2v-.2c0-.7 1.4-1.5 2-1.3.2-.5-.2-1 .2-1.3 1.2-1.1 2.3-2.5 3.8-3.2 3.6-1.6 7.2-1.6 10.7 0 1.5.6 3 1.2 4.5 1.5 2.3.4 4.7-.2 7.3.2-.9-.7-1.7-.8-2.4-1.2.6-.5 1.4 0 2-.5-.3-.3-.8.2-1-.4 2.7 0 8.4-2 9.7-3.6a15.4 15.4 0 0 1-8.5 1.4 18 18 0 0 1-6.7-2c-.3-.2-.5-.4-.5-.8l.2-.1c.4 0 .2.5.6.4.1-.6-.2-1-.7-1.3a11 11 0 0 0-7-1.7c-.9.2-1.3-.6-2-.3l-.3-.2c.3-1-.4-.5-.7-.5-2.8 0-5.4.8-7.9 2-1 .5-2 1-3.4 1.2 5.3-3 10.6-5.8 15.5-9l-3.6 1.2c-2.5.7-5 1.5-7.8 1.8-2 .3-4 1.3-5.8 2.2-.4.3-.8.6-1.5.7 1.3-1.5 3-2.5 4.2-3.8-2.7 1.6-5.2 3.5-8 5-.1-.3.3-.6.2-1-.4 0-.6.3-.8.6-.4.7-.8 1.3-1.5 1.9-1.1.8-2 1.9-3.2 2.7l-.3.3c.2 1-.8 1.2-1.2 1.8-.2.3-.6.4-.8.9l.8.2c2.8.6 5.6-.1 8.2-1.3a17.8 17.8 0 0 1 12-1z" clip-rule="evenodd"/><linearGradient id="a" x1="51.4" x2="23.5" y1="46.6" y2="46.6" gradientUnits="userSpaceOnUse"><stop offset="0" stop-color="#e42120"/><stop offset="1" stop-color="#ad1c1d"/></linearGradient><path fill="url(#a)" fill-rule="evenodd" d="M30.2 39.3c-2.1-.7-4.3-.8-6.4-.6-2 .2-3.8.8-5.5 1.5a13.3 13.3 0 0 1-8.2 1.3l-.8-.2c.2-.5.6-.6.8-1 .4-.5 1.4-.7 1.2-1.7l.3-.3c1.2-.8 2-1.9 3.2-2.7.7-.6 1-1.2 1.5-2 .2-.2.4-.5.8-.4.1.3-.3.6-.2.9 2.8-1.5 5.3-3.4 8-5-1.3 1.3-2.8 2.3-4.2 3.8.7 0 1-.4 1.5-.7 1.9-.9 3.8-2 5.8-2.2 2.7-.3 5.3-1.1 7.8-1.8l3.6-1.1c-5 3.1-10.2 5.8-15.5 8.9 1.4-.2 2.4-.7 3.4-1.2 2.5-1.2 5.1-2 8-2 .2 0 1-.4.6.5l.2.2c.8-.3 1.2.5 2 .3a11 11 0 0 1 7.1 1.7c.5.3.8.7.7 1.3-.4 0-.2-.5-.6-.4l-.2.1c0 .4.2.6.5.8a18 18 0 0 0 6.7 2c3 .4 5.7-.1 8.5-1.4-1.3 1.5-7 3.6-9.8 3.6.3.6.8.1 1.2.4-.7.4-1.5 0-2.1.5.7.4 1.5.5 2.4 1.2-2.6-.4-5 .2-7.3-.2-1.6-.3-3-1-4.5-1.6A12.5 12.5 0 0 0 30 42c-1.5.7-2.6 2-3.8 3.2-.4.4 0 .8-.1 1.3-.7-.2-2 .6-2.2 1.3v.2c1.6 1.3-.3 1.6-.7 2.2-.5.6-1.1 1.3-1.4 2-.6 1.5-1 3.3-.7 5.1.9 4.6 3.7 7 8.6 7 5.8 0 10-3.3 11.2-9 .8-3.3-1-6.2-4.4-7-1.7-.4-3.5-.6-5.3-.2-2.6.6-3.2 2.7-1.6 4.7 1.3 1.5 1.4 2.3.6 3.5-.9 1.2-2.4 1.6-3.9 1-2.6-1-3.4-3-2.3-5.5a7.2 7.2 0 0 1 4-3.8c5.1-2.1 10.3-2.3 15.3.4 1 .6 2.1.8 3.3.6.4 0 .9-.2 1.4-.1l-1 .6c2.6-.4 5.3.4 7.9-.5l-4.2 2.8c-.2.1-1.2.2-.5 1l-.5.5a36.4 36.4 0 0 0-3.3 3.7 2 2 0 0 0-.5 1.3c0 .5 0 .7-.4 1l-.3.4c.3 1.5-1 1.7-1.8 2.1-.2.1-.4.2-.4.4.1.3.4.2.6.1l3.6-.6-1.5.7c-3 .9-5.9 2.2-9 2.7-.9.1-1.7.5-2.6.6-.2 0-.3 0-.3.2l.5.3c-4 0-8.1.5-12-1.2-2-.8-3.9-1.9-5.4-3.4-3-3.3-3.6-7.5-1.5-12 2-4.2 5.5-6.7 9.7-8.5 1.7-.7 3.4-1.2 5.1-1.7z" clip-rule="evenodd"/><g fill="#DD161A"><path d="M137.7 50l-.4.1c.1 0 .2-.2.4-.1.3 1.2.8 1.8 1.6 2-.8-.2-1.3-.8-1.6-2zM104 44.5h7.1-7.2zM77.9 42.7h-6.4c-.5 0-.6.3-.6.8s.2.7.7.7h4.2c1.3 0 1.4 0 1.2 1.3a6 6 0 0 1-4.8 5.2c-2.8.6-5.5-.5-7-2.7a9.7 9.7 0 0 1-1.1-7.3c.6-2.7 2-4.8 4.7-5.5 3.5-1 6.4.5 7.7 3.8.3.8 1 .4 1.4.4.6 0 .2-.6.2-.9a6 6 0 0 0-1-2c-3-4.3-10.5-4-13.4.7a10.8 10.8 0 0 0-1.2 8.2c.7 3.3 2.5 5.8 6 6.6 3.3.7 6.3.2 8.3-3h.3c.2.7 0 1.5.2 2.2 0 .4 0 .7.6.7.5 0 .6-.2.6-.7v-7.8c0-.4-.1-.7-.6-.7z"/><path d="M140.3 50.6c-1 0-1.1-.6-1.1-1.4v-6.5c0-2.6-1.3-4-3.8-4.2h-2c-2.4.3-4 1.7-4.2 3.5 0 .3-.1.8.4.8.4 0 .9.2 1-.5 1-2.3 3.3-3.3 5.6-2.2 1 .5 1.6 1.6 1.4 2.8-.2 1-1 1.2-1.9 1.4-1.6.2-3.3.2-4.8.8-1.6.6-2.4 1.7-2.3 3.5 0 1.7.8 2.9 2.4 3.4 2 .6 4.8.4 6.3-1.8.1-.2.2-.3.4-.2.3 1.2.8 1.8 1.6 2h.8c.4-.2.6-.4.6-.8 0-.3 0-.6-.4-.6zm-8.4.2c-1.1-.4-1.9-1.4-1.8-2.4 0-1 .6-1.8 1.8-2.2 1.7-.7 3.6-.6 5.4-1.2.3 0 .3.2.3.4v1c0 3.2-2.8 5.4-5.7 4.4zM108.3 45.8H104h8.6-4.3zM107.7 38.5a5.4 5.4 0 0 0-5.4 3.5 9.3 9.3 0 0 0-.3 5.8 6 6 0 0 0 9.1 3.5c1.1-.7 1.7-1.8 2-3 .2-.4 0-.6-.4-.6-.6 0-1 .1-1.2.7-.4 1.2-1.2 2-2.4 2.4-3 .9-5.5-.9-5.8-4.4 0-.6.3-.6.7-.6h8.6c.6 0 .8-.2.8-.7 0-1-.2-2-.6-3a5.2 5.2 0 0 0-5.1-3.6zm3.4 6h-7.2c-.3 0-.7 0-.6-.5.4-2.4 2.3-4.8 5.3-4.1 1.7.4 3.2 2.3 3.2 4 0 .6-.3.6-.7.6zM92.6 50.6c-1 0-1-.6-1-1.3v-6.6c0-2.6-1.4-4-4-4.2h-1.8c-2.3.2-3.9 1.5-4.2 3.4 0 .3-.3.8.3.9.5 0 1 .1 1.2-.5.8-2.4 3.7-3.4 5.8-2 .9.5 1.3 1.6 1 2.7-.2 1-1 1.1-1.8 1.3-1.7.2-3.5.2-5.1 1-1.4.5-2 1.5-2 3-.1 1.5.4 2.7 1.8 3.4 2.1 1.2 5.1.6 6.7-1.3.1-.2.2-.4.6-.5.2 1.7 1 2.3 2.4 2 .4 0 .5-.3.5-.6s0-.7-.4-.7zm-2.7-3c-.4 2.5-3.6 4.1-5.9 3.1-1-.4-1.6-1.3-1.5-2.4 0-1.1.7-1.7 1.6-2 1.2-.6 2.4-.7 3.6-.8l2.2-.6c0 1 .2 2 0 2.8zM123 38.6c-2.4-.5-4.4 0-6 2v-.8c0-.6 0-1-.7-1s-.8.3-.8 1V51c0 .6 0 1 .8 1 .6 0 .8-.3.8-1v-6.4c0-1.1.2-2.2.9-3.2a4 4 0 0 1 4.3-1.5c1.4.3 2 1.2 2.3 3v8.2c0 .6.2.9.8.8.5 0 .7-.1.7-.7v-9c-.1-2-1.2-3.1-3.1-3.6zM100.4 38.7c-1.9.2-3 1.2-4.1 2.7v-1.8c0-.5-.1-.8-.7-.8s-.8.2-.8.8v11.5c0 .5.1.8.8.8.6 0 .7-.3.7-.8v-5.7c0-3 1.3-4.6 4.3-5.2.4-.1.6-.2.6-.7 0-.7-.1-.9-.8-.8z"/></g><path d="M70.2 60c-.2.2-.6.3-1 .3l-.6-.1-.5-.4-.4-.6v-.7-.7c0-.2.3-.5.4-.6l.6-.4.7-.2c.3 0 .6 0 .8.2v.4l-.8-.2-.6.1-.4.3-.2.5a1.9 1.9 0 0 0 0 1.1c0 .2 0 .4.2.5l.4.3.5.1c.4 0 .7 0 1-.3v.5zM72.5 60.3l-.7-.1-.5-.4-.4-.6v-.7-.8l.4-.6.5-.4h1.5l.5.4.3.6a2.4 2.4 0 0 1 0 1.5l-.3.6-.6.4h-.7zm0-3.3H72a1 1 0 0 0-.4.4l-.2.4a2 2 0 0 0 0 1.3l.2.4.4.3.5.1h.6c.2 0 .2-.2.3-.4l.3-.4v-.6c0-.5 0-.9-.3-1.1-.2-.3-.5-.4-.9-.4zM77.5 60.2v-2c0-.8-.3-1.2-.9-1.2a1 1 0 0 0-.8.3l-.2.4v2.5H75v-3.5h.4v.6c.3-.5.7-.7 1.2-.7.4 0 .7.1.9.4.2.2.3.6.3 1v2.2h-.4zM81.3 60.2v-2c0-.8-.3-1.2-.8-1.2a1 1 0 0 0-.8.3l-.2.4-.1.5v2H79v-3.5h.4v.6c.3-.5.7-.7 1.2-.7.4 0 .7.1.9.4.2.2.3.6.3 1v2.2h-.5zM83 58.5l.1.6.3.4c0 .2.2.3.3.3l.5.1c.4 0 .8-.1 1.2-.4v.4a2 2 0 0 1-1.9.3l-.5-.4-.3-.6a2.6 2.6 0 0 1 0-1.5l.3-.6.5-.3.7-.2.6.1.4.4.3.5V58.5H83zm2.1-.4c0-.3 0-.6-.2-.8a.9.9 0 0 0-.7-.3 1 1 0 0 0-.7.3c-.2.1-.2.2-.3.4l-.1.4h2zM88 60.2a1 1 0 0 1-.5 0c-.6 0-.9-.2-.9-.9v-2.2H86v-.4h.6v-.9l.5-.1v1h.9v.4h-1v2.1c0 .3 0 .4.2.5 0 .2.2.2.4.2l.4-.1v.4zM88.9 55.8h-.2l-.1-.3v-.2l.3-.1a.3.3 0 0 1 .2 0v.2h.1V55.8c0 .1-.1 0-.2 0l-.1.1zm-.2 4.4v-3.5h.4v3.5h-.4zM92.6 60.2v-2c0-.8-.3-1.2-.8-1.2a1 1 0 0 0-.8.3l-.2.4-.1.5v2h-.4v-3.5h.4v.6c.3-.5.7-.7 1.2-.7.4 0 .7.1.9.4.2.2.3.6.3 1v2.2h-.5zM97 60c0 .6-.1 1-.4 1.4-.3.3-.8.5-1.4.5-.4 0-.7-.1-1-.3v-.4c.3.2.7.3 1 .3 1 0 1.4-.5 1.4-1.5v-.4c-.3.5-.7.7-1.3.7l-.6-.1-.4-.4-.3-.5-.1-.8v-.7l.4-.7a1.4 1.4 0 0 1 1.2-.5c.5 0 .8.2 1 .6v-.5h.5v3.2zm-.4-2v-.3a1 1 0 0 0-1-.7l-.6.1a1 1 0 0 0-.3.3l-.3.5V59l.2.4a1 1 0 0 0 .8.4h.5l.4-.3.2-.4V58zM103.3 60.2h-.5l-.7-2.6v-.3a2.5 2.5 0 0 1-.2.3l-.8 2.6h-.4l-1-3.5h.4l.8 2.7v.3a1.7 1.7 0 0 1 .1-.3l.9-2.7h.3l.8 2.7V59.6l.1-.2.8-2.7h.4l-1 3.5zM106.4 60.3l-.7-.1a1.5 1.5 0 0 1-.8-1l-.2-.7c0-.3 0-.6.2-.8l.3-.6.6-.4h1.4l.5.4c.1.2.3.3.3.6a2.5 2.5 0 0 1 0 1.5l-.3.6-.6.4h-.7zm0-3.3h-.5a1 1 0 0 0-.4.4l-.2.4-.1.7v.6l.3.4.4.3.6.1h.5l.4-.4.2-.4v-.6c0-.5 0-.9-.2-1.1s-.5-.4-1-.4zM110.8 57.1a.7.7 0 0 0-.4 0 .7.7 0 0 0-.6.2l-.1.2-.2.4v2.3h-.5v-3.5h.5v.7l.1-.3.3-.3a.9.9 0 0 1 .5-.2h.4v.5zM111.4 60.2V55h.4v5.2h-.4zM115.4 60.2v-.6c0 .2-.2.4-.5.5l-.7.2-.6-.1-.5-.4-.3-.5v-.8-.8l.4-.6a1.5 1.5 0 0 1 1.1-.5c.6 0 1 .2 1.1.6V55h.5v5.2h-.5zm0-2.1a1.1 1.1 0 0 0-.3-.8 1 1 0 0 0-.8-.3l-.4.1a1 1 0 0 0-.4.3l-.2.5-.1.6v.6l.3.4a1 1 0 0 0 .8.4h.5l.3-.3.3-.4V58zM121.9 60c0 .6-.2 1-.5 1.4-.3.3-.7.5-1.4.5-.3 0-.7-.1-1-.3v-.4c.3.2.7.3 1 .3 1 0 1.4-.5 1.4-1.5v-.4c-.3.5-.7.7-1.2.7l-.6-.1-.5-.4-.3-.5-.1-.8.1-.7.3-.7a1.5 1.5 0 0 1 1.2-.5c.5 0 .9.2 1.1.6v-.5h.5v3.2zm-.5-2a1 1 0 0 0-.6-1 1.1 1.1 0 0 0-1 0 1 1 0 0 0-.3.4l-.3.5a2.2 2.2 0 0 0 0 1.2c0 .2.2.3.3.4a1 1 0 0 0 .8.4h.4l.4-.3.2-.4.1-.5V58zM125 60.2v-.6l-.5.5-.6.2h-.5a.9.9 0 0 1-.6-.5v-.5c0-.3 0-.6.3-.8.1-.2.4-.3.8-.3l1.1-.2c0-.7-.3-1-.8-1-.4 0-.8.1-1.1.4V57a1.6 1.6 0 0 1 .5-.3 2.4 2.4 0 0 1 .7 0c.4 0 .7 0 .9.2.2.3.3.6.3 1v2.3h-.5zm-.9-1.7h-.4l-.3.2-.1.2a.9.9 0 0 0 0 .6.6.6 0 0 0 .3.4h.3a1 1 0 0 0 .8-.3l.2-.4.1-.5v-.3l-.9.1zM131 60.2v-2l-.1-.6-.2-.3-.2-.2a1 1 0 0 0-.4-.1h-.4c-.2 0-.2.2-.3.3l-.2.4v2.5h-.5v-2.1c0-.7-.3-1.1-.8-1.1h-.4l-.3.3-.2.4v2.5h-.5v-3.5h.5v.6a1.2 1.2 0 0 1 1.7-.5 1 1 0 0 1 .4.6c0-.3.2-.5.4-.6l.7-.2c.8 0 1.2.5 1.2 1.4v2.2h-.5zM132.6 58.5l.1.6c0 .2.2.3.3.4 0 .2.2.3.3.3l.5.1c.4 0 .8-.1 1.2-.4v.4a2 2 0 0 1-2 .3l-.4-.4-.3-.6a2.5 2.5 0 0 1 0-1.5l.3-.6c.2-.1.3-.3.5-.3l.7-.2.6.1.4.4.3.5V58.5h-2.5zm2.1-.4c0-.3 0-.6-.2-.8a.9.9 0 0 0-.7-.3 1 1 0 0 0-.7.3c-.2.1-.3.2-.3.4l-.2.4h2.1zM137.8 57.1a.7.7 0 0 0-.4 0 .7.7 0 0 0-.6.2l-.1.2a2 2 0 0 0-.2.7v2h-.5v-3.5h.5v.7l.1-.3.3-.3a1 1 0 0 1 .7-.2h.2v.5zM138.3 59.6a1.4 1.4 0 0 0 .4.2 1.4 1.4 0 0 0 .5.1c.5 0 .8-.2.8-.6v-.2l-.2-.2-.3-.1-.3-.2-.4-.2-.3-.2-.2-.3v-.3-.4l.4-.3.4-.2H140.3v.5l-.8-.2h-.3l-.3.1a.5.5 0 0 0-.1.7l.1.2.2.1.4.2.4.2.3.2.2.3v.7l-.3.3-.4.2a2 2 0 0 1-.5 0l-1-.1v-.5z"/></svg>