<?xml version="1.0" encoding="utf-8"?>
<!-- Generator: Adobe Illustrator 16.0.0, SVG Export Plug-In . SVG Version: 6.00 Build 0)  -->
<!DOCTYPE svg PUBLIC "-//W3C//DTD SVG 1.1//EN" "http://www.w3.org/Graphics/SVG/1.1/DTD/svg11.dtd">
<svg version="1.1" id="Layer_1" xmlns="http://www.w3.org/2000/svg" xmlns:xlink="http://www.w3.org/1999/xlink" x="0px" y="0px"
	 width="150px" height="93.795px" viewBox="0 0 150 93.795" enable-background="new 0 0 150 93.795" xml:space="preserve">
<g>
	<polygon fill-rule="evenodd" clip-rule="evenodd" fill="#0084C7" points="120.646,35.934 120.406,35.729 120.168,35.574 
		119.913,35.421 119.657,35.318 119.368,35.215 119.079,35.164 118.772,35.13 118.482,35.13 118.143,35.13 117.836,35.164 
		117.274,35.318 117.002,35.421 116.765,35.574 116.339,35.934 116.117,36.122 115.946,36.344 115.691,36.84 115.59,37.097 
		115.538,37.388 115.487,37.695 115.487,38.038 115.487,38.328 115.538,38.619 115.59,38.875 115.691,39.149 115.794,39.389 
		115.946,39.628 116.117,39.85 116.339,40.073 116.339,40.124 116.525,40.295 116.747,40.449 116.984,40.586 117.24,40.706 
		117.496,40.792 117.785,40.86 118.074,40.894 118.398,40.911 118.721,40.877 119.045,40.842 119.334,40.774 119.641,40.688 
		119.759,40.62 119.896,40.569 120.168,40.449 120.406,40.295 120.646,40.124 120.833,39.885 121.003,39.645 121.156,39.372 
		121.292,39.081 121.292,36.96 121.156,36.652 121.003,36.396 120.833,36.138 120.646,35.934 120.646,35.934 	"/>
	<polygon fill-rule="evenodd" clip-rule="evenodd" fill="#0084C7" points="121.156,43.887 116.186,43.887 116.186,65.609 
		121.156,65.609 121.156,43.887 121.156,43.887 	"/>
	<path fill-rule="evenodd" clip-rule="evenodd" fill="#FAD05F" d="M95.878,45.7l0.8,2.736l0.544-0.325l0.579-0.273l0.596-0.222
		l0.63-0.172l0.613-0.137l0.646-0.086l0.665-0.051h0.697l0.494-0.017l0.493,0.052l0.425,0.051l0.427,0.12l0.374,0.121l0.357,0.187
		l0.322,0.224l0.29,0.256l0.256,0.256l0.222,0.291l0.187,0.326l0.068,0.17l0.085,0.205l0.119,0.394l0.085,0.428l0.051,0.463
		l0.018,0.529v0.376l-0.018,0.069l-0.034,0.102l-0.102,0.205h-0.034h-0.018v0.018l-0.033,0.034l-0.068,0.052l-0.17,0.035
		l-1.294,0.016l-0.613,0.034l-0.578,0.069l-0.596,0.051l-0.545,0.086l-0.544,0.102l-0.511,0.138l-0.511,0.119l-0.477,0.153
		l-0.921,0.36l-0.442,0.188l-0.408,0.223l-0.408,0.223l-0.357,0.256l-0.357,0.24l-0.323,0.273l-0.307,0.273l-0.255,0.309
		l-0.494,0.632l-0.374,0.701l-0.324,0.736l-0.119,0.393l-0.085,0.428l-0.136,0.873l-0.033,0.94l0.016,0.599l0.068,0.582l0.035,0.273
		l0.067,0.29l0.17,0.547l0.188,0.496l0.255,0.496l0.29,0.463l0.357,0.443l0.408,0.428l0.46,0.377l0.493,0.308l0.527,0.273
		l0.528,0.205l0.596,0.154l0.597,0.086l0.663,0.051l0.409-0.033l0.425-0.035l0.188-0.033l0.204-0.018l0.408-0.068l0.358-0.104
		l0.374-0.119l0.341-0.137l0.17-0.086l0.187-0.068l0.307-0.188l0.323-0.206l0.136-0.119l0.154-0.103l0.306-0.24l0.272-0.273
		l0.272-0.273l0.256-0.308l0.255-0.309l0.051-0.102l0.086-0.052l0.102-0.034h0.136h0.086l0.17,0.018l0.17,0.068l0.068,0.154
		l0.067,0.188l0.323,1.967h3.763l-0.067-0.497l-0.052-0.495l-0.033-0.564l-0.034-0.564l-0.034-0.633l-0.017-0.65v-0.7v-0.701v-7.817
		l-0.018-0.563l-0.017-0.531l-0.051-0.512l-0.034-0.48l-0.086-0.495l-0.068-0.445l-0.102-0.444l-0.103-0.411l-0.137-0.41
		l-0.137-0.377l-0.17-0.376l-0.153-0.341l-0.187-0.343l-0.187-0.308l-0.221-0.308l-0.205-0.256l-0.272-0.273l-0.272-0.24
		l-0.289-0.239l-0.29-0.205l-0.323-0.205l-0.323-0.171l-0.697-0.291l-0.393-0.137l-0.374-0.103l-0.408-0.103l-0.408-0.068
		l-0.443-0.068l-0.442-0.034l-0.937-0.017h-0.97l-0.937,0.068l-0.902,0.103l-0.834,0.188l-0.817,0.222l-0.766,0.291l-0.732,0.326
		L95.878,45.7L95.878,45.7L95.878,45.7z M100.525,55.842l0.426-0.255l0.51-0.223l0.546-0.188l0.629-0.139l0.646-0.119l0.732-0.051
		l0.767-0.035l0.851,0.018l0.067-0.018l0.103,0.018l0.067,0.051l0.086,0.086l0.103,0.12l0.034,0.085l0.017,0.121v2.976l-0.017,0.171
		v0.188l-0.034,0.359l-0.035,0.153l-0.018,0.068v0.086l-0.033,0.137l-0.017,0.068v0.086l-0.068,0.153l-0.051,0.172l-0.137,0.341
		l-0.153,0.309l-0.17,0.308l-0.204,0.273l-0.119,0.137l-0.102,0.154l-0.239,0.257l-0.136,0.12l-0.119,0.137l-0.307,0.188
		l-0.307,0.188l-0.17,0.07l-0.085,0.033l-0.068,0.053l-0.307,0.137l-0.34,0.084l-0.323,0.068l-0.341,0.052h-0.17h-0.086
		l-0.067,0.018l-0.408-0.018l-0.357-0.052l-0.357-0.068l-0.307-0.084l-0.307-0.137l-0.255-0.156l-0.238-0.188l-0.204-0.188
		l-0.205-0.257l-0.153-0.257l-0.153-0.291l-0.103-0.308l-0.103-0.359l-0.051-0.375l-0.033-0.395v-0.41l0.018-0.581l0.084-0.53
		l0.137-0.496l0.221-0.445l0.256-0.428l0.324-0.358l0.169-0.188l0.205-0.154L100.525,55.842L100.525,55.842L100.525,55.842z"/>
	<path fill-rule="evenodd" clip-rule="evenodd" fill="#E31F21" d="M89.137,65.129V43.768H60.522v21.361H89.137L89.137,65.129
		L89.137,65.129z M85.035,60.751v4.156H64.948v-3.933h0.034l0.103-0.035l7.541-6.071l2.281,1.933l2.025-1.78L85.035,60.751
		L85.035,60.751L85.035,60.751z M85.035,60.016l-7.679-5.37l7.679-6.654V60.016L85.035,60.016L85.035,60.016z M83.759,43.99
		l-1.039,0.992l-0.494,0.479l-0.459,0.478l-0.478,0.445l-0.442,0.445l-0.426,0.411L80.03,47.65l-0.408,0.376l-0.376,0.376
		l-0.697,0.701l-0.664,0.634l-0.306,0.291l-0.273,0.29l-0.288,0.239l-0.257,0.239l-0.458,0.445L76.08,51.43l-0.188,0.188
		l-0.187,0.153l-0.153,0.172l-0.29,0.239l-0.119,0.085l-0.084,0.104l-0.103,0.051l-0.068,0.068l-0.085,0.068l-8.647-8.603
		L83.759,43.99L83.759,43.99L83.759,43.99z M72.183,54.491l-7.234,5.78l0.017-11.921L72.183,54.491L72.183,54.491L72.183,54.491z"/>
	<polygon fill-rule="evenodd" clip-rule="evenodd" fill="#008DCF" points="50.121,35.968 54.343,31.777 54.104,31.589 
		53.867,31.418 53.73,31.315 53.662,31.265 53.611,31.229 53.356,31.059 53.049,30.854 52.743,30.665 52.573,30.546 52.42,30.443 
		52.08,30.238 51.637,29.999 51.177,29.777 50.666,29.554 50.139,29.349 49.542,29.126 48.93,28.921 48.266,28.716 47.585,28.511 
		46.649,28.237 45.713,28.015 44.76,27.826 43.807,27.673 42.803,27.536 41.798,27.45 40.776,27.399 39.754,27.382 39.125,27.382 
		38.529,27.416 37.355,27.501 36.214,27.621 35.108,27.81 34.035,28.015 32.997,28.289 31.993,28.597 31.04,28.956 30.103,29.349 
		29.201,29.793 28.333,30.272 27.907,30.528 27.517,30.819 26.716,31.401 25.967,32.034 25.235,32.701 24.571,33.419 23.907,34.138 
		23.277,34.891 22.698,35.643 22.171,36.429 21.677,37.216 21.235,38.038 20.826,38.875 20.468,39.748 20.128,40.603 19.839,41.492 
		19.601,42.398 19.414,43.34 19.26,44.263 19.158,45.222 19.09,46.196 19.073,47.206 19.073,48.026 19.124,48.847 19.209,49.668 
		19.329,50.488 19.481,51.293 19.668,52.115 19.89,52.901 20.162,53.722 20.451,54.509 20.792,55.296 21.149,56.065 21.575,56.852 
		22.018,57.604 22.511,58.391 23.039,59.145 23.6,59.931 24.163,60.666 24.792,61.385 25.116,61.709 25.474,62.034 26.205,62.667 
		26.971,63.231 27.363,63.489 27.789,63.763 28.656,64.224 29.099,64.445 29.576,64.668 30.035,64.84 30.528,65.027 31.533,65.369 
		32.043,65.506 32.588,65.644 33.694,65.9 34.836,66.088 35.415,66.156 36.027,66.242 37.269,66.345 38.58,66.413 40.641,66.311 
		41.679,66.225 42.734,66.121 44.845,65.848 45.917,65.678 47.006,65.489 54.343,63.745 54.343,57.297 54.36,55.979 54.445,54.747 
		54.497,54.474 54.598,54.252 54.734,54.046 54.922,53.892 56.301,52.559 45.492,52.559 41.355,54.833 49.083,54.406 49.083,62.94 
		48.504,63.146 48.199,63.249 48.146,63.249 48.113,63.266 48.045,63.3 47.909,63.368 47.245,63.573 46.888,63.677 46.546,63.796 
		46.156,63.898 45.729,64.001 45.271,64.07 45.032,64.104 44.964,64.104 44.93,64.104 44.913,64.12 44.811,64.155 44.3,64.189 
		44.027,64.206 43.771,64.24 43.483,64.24 43.21,64.257 42.632,64.291 41.577,64.224 40.572,64.138 39.568,64.001 38.631,63.83 
		37.695,63.591 36.811,63.335 35.941,63.026 35.108,62.685 34.273,62.273 33.508,61.829 32.742,61.333 32.043,60.82 31.346,60.238 
		30.682,59.622 30.052,58.955 29.457,58.271 28.86,57.553 28.316,56.834 27.805,56.083 27.345,55.329 26.903,54.543 26.512,53.755 
		26.154,52.936 25.831,52.115 25.542,51.26 25.286,50.404 25.065,49.514 24.912,48.642 24.758,47.718 24.673,46.795 24.622,45.854 
		24.605,44.913 24.605,44.024 24.656,43.168 24.741,42.33 24.86,41.527 24.979,40.723 25.167,39.97 25.371,39.217 25.627,38.516 
		25.882,37.798 26.188,37.131 26.512,36.48 26.886,35.865 27.278,35.25 27.703,34.668 28.163,34.104 28.656,33.59 29.132,33.06 
		29.644,32.564 30.154,32.103 30.716,31.709 31.261,31.315 31.856,30.956 32.453,30.632 33.083,30.375 33.712,30.119 34.375,29.896 
		35.04,29.708 35.738,29.554 36.436,29.434 37.167,29.349 37.916,29.297 38.7,29.281 39.823,29.297 40.896,29.349 41.372,29.417 
		41.849,29.52 42.308,29.64 42.75,29.777 43.177,29.879 43.602,30.016 43.993,30.152 44.385,30.323 45.1,30.683 45.44,30.87 
		45.781,31.093 46.411,31.47 47.006,31.862 47.551,32.273 48.079,32.701 48.283,32.89 48.504,33.094 48.913,33.504 49.27,33.881 
		49.338,33.967 49.423,34.07 49.594,34.275 48.317,36.396 50.121,35.968 50.121,35.968 	"/>
	<polygon fill-rule="evenodd" clip-rule="evenodd" fill="#009842" points="130.927,32.821 126.518,32.821 126.518,65.609 
		130.927,65.609 130.927,32.821 130.927,32.821 	"/>
</g>
</svg>
