<?xml version="1.0" encoding="utf-8"?>
<!-- Generator: Adobe Illustrator 16.0.0, SVG Export Plug-In . SVG Version: 6.00 Build 0)  -->
<!DOCTYPE svg PUBLIC "-//W3C//DTD SVG 1.1//EN" "http://www.w3.org/Graphics/SVG/1.1/DTD/svg11.dtd">
<svg version="1.1" id="Layer_1" xmlns="http://www.w3.org/2000/svg" xmlns:xlink="http://www.w3.org/1999/xlink" x="0px" y="0px"
	 width="150px" height="93.795px" viewBox="0 0 150 93.795" enable-background="new 0 0 150 93.795" xml:space="preserve">
<rect fill="#FFFFFF" width="150" height="93.795"/>
<g>
	<path fill="#6D6E71" d="M130.889,36.317h0.734c0.006,0.009,0.009,0.019,0.011,0.026c0.12,0.262,0.239,0.522,0.351,0.786
		c0.119,0.295,0.229,0.595,0.356,0.887c0.007,0.009,0.009,0.018,0.013,0.028c0.094-0.216,0.242-0.563,0.338-0.776
		c0.088-0.199,0.182-0.402,0.271-0.602c0.034-0.077,0.042-0.093,0.042-0.12c0-0.067-0.063-0.067-0.131-0.067l-0.271,0.013
		l0.271-0.175h0.98l-0.065,0.067c-0.072,0.064-0.104,0.11-0.104,0.236c0,0.043,0.006,0.085,0.01,0.132
		c0.02,0.193,0.033,0.386,0.049,0.579c0.021,0.255,0.047,0.51,0.095,0.761c0.04,0.206,0.083,0.28,0.229,0.391
		c-0.164,0.03-0.272,0.046-0.438,0.046c-0.065,0-0.185,0-0.29-0.079c-0.127-0.099-0.146-0.256-0.165-0.534
		c-0.021-0.191-0.036-0.381-0.054-0.571c-0.014-0.181-0.021-0.362-0.035-0.543l-0.006-0.036l-0.02,0.039
		c-0.105,0.233-0.203,0.472-0.313,0.706c-0.242,0.559-0.264,0.595-0.313,0.745l0.03,0.092c-0.088,0.022-0.438,0.138-0.565,0.188
		c-0.102-0.273-0.44-1.163-0.721-1.77c-0.029,0.257-0.055,0.515-0.076,0.772c-0.01,0.086-0.062,0.66-0.062,0.712
		c0,0.067,0.019,0.086,0.138,0.098l0.271,0.04l-0.154,0.096h-0.568l0.078-0.096c0.019-0.021,0.029-0.04,0.037-0.067
		c0.021-0.049,0.029-0.135,0.039-0.258c0.021-0.187,0.053-0.371,0.068-0.558c0.013-0.117,0.068-0.688,0.085-0.819
		c0.005-0.031,0.008-0.064,0.008-0.096c0-0.079-0.028-0.119-0.124-0.119c-0.043,0-0.234,0.005-0.281,0.005L130.889,36.317
		L130.889,36.317z"/>
	<path fill="#6D6E71" d="M130.753,36.317l-0.134,0.313l-0.139,0.062c0.01-0.03,0.035-0.145,0.035-0.156
		c0-0.07-0.084-0.074-0.17-0.074l-0.432,0.004c-0.037,1.196-0.037,1.3-0.037,1.463c0,0.086,0,0.156,0.012,0.261
		c0.008,0.132,0.051,0.159,0.188,0.168l0.262,0.028l-0.195,0.099h-1.021l0.068-0.099c0.063-0.102,0.078-0.116,0.078-0.184
		c0-0.068,0-0.384,0-0.455c0-0.129,0-0.26,0-0.389c0.01-0.264,0.021-0.528,0.021-0.789c0-0.043-0.004-0.093-0.004-0.104h-0.372
		c-0.188,0.006-0.188,0.011-0.293,0.165l-0.163,0.062l0.163-0.374L130.753,36.317L130.753,36.317z"/>
	<path fill="#EF3E35" d="M126.782,53.828c-0.433,0.235-0.864,0.511-1.296,0.708c-1.297,0.589-2.633,0.746-3.813,0.746
		c-1.256,0-3.221-0.079-5.222-1.532c-2.789-1.963-4.006-5.341-4.006-8.285c0-6.087,4.945-9.071,8.99-9.071
		c1.412,0,2.863,0.354,4.045,1.1c1.961,1.296,2.476,2.984,2.746,3.888l-9.229,3.73l-3.021,0.236
		c0.979,4.986,4.354,7.891,8.088,7.891c2.004,0,3.457-0.707,4.791-1.373L126.782,53.828L126.782,53.828z M123.091,42.127
		c0.745-0.275,1.14-0.511,1.14-1.061c0-1.571-1.768-3.377-3.89-3.377c-1.571,0-4.516,1.218-4.516,5.459
		c0,0.667,0.077,1.373,0.118,2.08L123.091,42.127L123.091,42.127z"/>
	<path fill="#2FB457" d="M111.506,54.692h-6.949c0.901-1.178,1.063-1.297,1.063-2.082v-6.399c0-3.063,0.04-7.422,0.151-11.507
		c0.041-2.002,0.196-4.515,0.235-6.321h-3.063l2.945-1.414h5.61c-1.217,0.707-1.606,0.942-1.771,2.317
		c-0.313,3.023-0.354,7.813-0.354,13.39v9.072c0,1.53,0.272,1.767,1.569,1.884c0.67,0.079,1.336,0.118,2.004,0.196L111.506,54.692
		L111.506,54.692z"/>
	<path fill="#0075BF" d="M98.626,38.317c0.901,0.746,2.788,2.317,2.788,5.302c0,2.905-1.648,4.28-3.298,5.575
		c-0.511,0.512-1.101,1.062-1.101,1.925c0,0.864,0.59,1.335,1.021,1.688l1.413,1.1c1.729,1.453,3.299,2.789,3.299,5.5
		c0,3.689-3.573,7.421-10.328,7.421c-5.693,0-8.441-2.711-8.441-5.617c0-1.414,0.707-3.416,3.023-4.791
		c2.436-1.491,5.732-1.688,7.499-1.808c-0.549-0.706-1.177-1.451-1.177-2.668c0-0.67,0.195-1.063,0.394-1.532
		c-0.434,0.039-0.864,0.079-1.259,0.079c-4.161,0-6.518-3.103-6.518-6.166c0-1.806,0.824-3.809,2.513-5.262
		c2.239-1.846,4.907-2.159,7.03-2.159h8.088l-2.514,1.413H98.626L98.626,38.317z M95.837,55.752
		c-0.313-0.039-0.51-0.039-0.901-0.039c-0.354,0-2.476,0.078-4.123,0.627c-0.858,0.315-3.379,1.257-3.379,4.046
		s2.711,4.789,6.914,4.789c3.771,0,5.771-1.805,5.771-4.238C100.118,58.933,98.822,57.874,95.837,55.752L95.837,55.752z
		 M96.979,48.292c0.901-0.903,0.98-2.16,0.98-2.866c0-2.828-1.688-7.227-4.947-7.227c-1.021,0-2.121,0.511-2.75,1.296
		c-0.669,0.825-0.863,1.886-0.863,2.906c0,2.631,1.531,6.991,4.908,6.991C95.288,49.392,96.35,48.919,96.979,48.292L96.979,48.292z"
		/>
	<path fill="#FFDF1C" d="M74.279,55.203c-6.244,0-9.581-4.869-9.581-9.267c0-5.145,4.203-9.543,10.169-9.543
		c5.773,0,9.387,4.516,9.387,9.268C84.254,50.294,80.68,55.203,74.279,55.203L74.279,55.203z M79.188,52.022
		c0.942-1.258,1.185-2.828,1.185-4.359c0-3.455-1.647-10.053-6.52-10.053c-1.295,0-2.591,0.511-3.534,1.335
		c-1.53,1.375-1.806,3.103-1.806,4.791c0,3.888,1.924,10.289,6.675,10.289C76.714,54.024,78.285,53.278,79.188,52.022L79.188,52.022
		z"/>
	<path fill="#EF3E35" d="M53.388,55.203c-6.244,0-9.582-4.869-9.582-9.267c0-5.145,4.203-9.543,10.171-9.543
		c5.772,0,9.385,4.516,9.385,9.268C63.363,50.294,59.79,55.203,53.388,55.203L53.388,55.203z M58.296,52.022
		c0.943-1.258,1.178-2.828,1.178-4.359c0-3.455-1.649-10.053-6.518-10.053c-1.296,0-2.592,0.511-3.535,1.335
		c-1.531,1.375-1.806,3.103-1.806,4.791c0,3.888,1.925,10.289,6.676,10.289C55.823,54.024,57.393,53.278,58.296,52.022
		L58.296,52.022z"/>
	<path fill="#0075BF" d="M41.31,53.832l-5.265,1.215c-2.135,0.331-4.05,0.627-6.075,0.627c-10.161,0-14.026-7.476-14.026-13.327
		c0-7.143,5.486-13.77,14.873-13.77c1.989,0,3.903,0.295,5.633,0.773c2.761,0.773,4.049,1.73,4.86,2.283l-3.056,2.908l-1.288,0.294
		l0.92-1.473c-1.252-1.214-3.535-3.46-7.878-3.46c-5.817,0-10.199,4.418-10.199,10.86c0,6.92,5.008,13.436,13.033,13.436
		c2.357,0,3.571-0.477,4.675-0.92v-5.926l-5.559,0.293l2.946-1.583h7.805l-0.957,0.921c-0.258,0.221-0.295,0.294-0.369,0.589
		c-0.037,0.331-0.073,1.396-0.073,1.767V53.832L41.31,53.832z"/>
</g>
</svg>
