<?xml version="1.0" encoding="utf-8"?>
<!-- Generator: Adobe Illustrator 16.0.0, SVG Export Plug-In . SVG Version: 6.00 Build 0)  -->
<!DOCTYPE svg PUBLIC "-//W3C//DTD SVG 1.1//EN" "http://www.w3.org/Graphics/SVG/1.1/DTD/svg11.dtd">
<svg version="1.1" id="Layer_1" xmlns="http://www.w3.org/2000/svg" xmlns:xlink="http://www.w3.org/1999/xlink" x="0px" y="0px"
	 width="150px" height="93.795px" viewBox="0 0 150 93.795" enable-background="new 0 0 150 93.795" xml:space="preserve">
<g>
	<g>
		<path fill-rule="evenodd" clip-rule="evenodd" fill="#79C042" d="M114,35.51c1.115-2.769,2.162-5.367,3.209-7.966
			c0.13-0.322,0.259-0.646,0.396-0.964c0.386-0.896,1.102-1.218,2.045-0.948c0.594,0.169,0.178,0.499,0.094,0.711
			c-1.152,2.905-2.328,5.802-3.493,8.702c-0.427,1.063-0.861,2.123-1.25,3.2c-0.191,0.529-0.463,0.761-1.061,0.754
			c-0.567-0.008-0.772-0.261-0.96-0.734c-1.571-3.973-3.158-7.939-4.762-11.898c-0.209-0.516-0.228-0.707,0.432-0.763
			c0.949-0.08,1.507,0.153,1.863,1.135c0.935,2.577,1.987,5.112,2.996,7.662C113.635,34.718,113.784,35.024,114,35.51z"/>
		<path fill-rule="evenodd" clip-rule="evenodd" fill="#79C042" d="M101.78,33.085c0-1.634-0.025-3.269,0.013-4.902
			c0.015-0.622-0.15-0.879-0.81-0.84c-0.832,0.051-1.672-0.032-2.503,0.024c-0.8,0.054-0.673-0.456-0.695-0.939
			c-0.024-0.518,0.032-0.834,0.703-0.826c2.851,0.034,5.702,0.034,8.554,0.003c0.906-0.01,0.605,0.634,0.692,1.08
			c0.113,0.587-0.199,0.732-0.71,0.673c-0.138-0.016-0.279-0.013-0.417-0.001c-0.923,0.079-2.117-0.41-2.701,0.214
			c-0.571,0.611-0.164,1.792-0.172,2.722c-0.025,2.642-0.051,5.286,0.018,7.927c0.022,0.846-0.402,0.782-0.947,0.776
			c-0.559-0.005-1.085,0.113-1.046-0.8C101.832,36.495,101.78,34.789,101.78,33.085z"/>
	</g>
	<circle fill-rule="evenodd" clip-rule="evenodd" fill="#79C042" cx="72.601" cy="54.415" r="26.799"/>
	<g>
		<path fill-rule="evenodd" clip-rule="evenodd" fill="#FEFEFE" d="M88.589,64.514c-4.867-0.018-8.729-3.901-8.728-8.779
			c0.001-4.895,3.935-8.793,8.855-8.775c4.848,0.018,8.693,4.004,8.653,8.968C97.33,60.741,93.454,64.531,88.589,64.514z"/>
		<path fill-rule="evenodd" clip-rule="evenodd" fill="#FEFEFE" d="M62.079,55.767c0,2.508-0.021,5.017,0.015,7.523
			c0.009,0.64-0.169,0.818-0.815,0.823c-2.411,0.017-2.411,0.043-2.411-2.364c0-1.394-0.035-2.788,0.016-4.179
			c0.024-0.687-0.255-0.811-0.858-0.793c-1.322,0.038-2.648,0.045-3.97-0.003c-0.659-0.023-0.824,0.213-0.812,0.836
			c0.035,1.845-0.015,3.692,0.027,5.537c0.015,0.688-0.117,0.974-0.897,0.969c-2.408-0.015-2.409,0.021-2.409-2.358
			c0-4.459,0.014-8.917-0.014-13.375c-0.004-0.714,0.08-1.044,0.936-1.03c2.37,0.04,2.37-0.005,2.37,2.41
			c0,1.079,0.021,2.16-0.008,3.238c-0.013,0.505,0.174,0.662,0.666,0.653c1.428-0.023,2.856-0.033,4.284,0.004
			c0.595,0.015,0.685-0.258,0.679-0.756c-0.02-1.567,0.018-3.136-0.02-4.702c-0.015-0.62,0.156-0.831,0.811-0.84
			c2.414-0.034,2.413-0.06,2.413,2.346C62.079,51.727,62.079,53.747,62.079,55.767z"/>
		<path fill-rule="evenodd" clip-rule="evenodd" fill="#FEFEFE" d="M64.092,55.582c0-2.543,0.003-5.085-0.003-7.628
			c-0.001-0.441-0.024-0.833,0.621-0.808c2.293,0.092,4.597-0.176,6.882,0.196c3.583,0.583,5.876,2.883,6.507,6.512
			c0.678,3.899-1.053,7.721-4.24,9.336c-1.132,0.572-2.337,0.9-3.61,0.912c-1.775,0.017-3.553-0.027-5.327,0.027
			c-0.744,0.022-0.848-0.291-0.842-0.921C64.108,60.667,64.092,58.124,64.092,55.582z"/>
		<path fill-rule="evenodd" clip-rule="evenodd" fill="#78C042" d="M83.143,55.704c0.017-3.208,2.361-5.606,5.479-5.603
			c3.081,0.004,5.487,2.467,5.493,5.623c0.006,3.226-2.406,5.68-5.551,5.646C85.468,61.339,83.126,58.892,83.143,55.704z"/>
		<path fill-rule="evenodd" clip-rule="evenodd" fill="#78C042" d="M65.431,55.4c0-1.494-0.022-2.989,0.006-4.483
			c0.039-2.006,1.31-2.755,3.064-1.771c2.665,1.494,5.315,3.017,7.94,4.579c1.689,1.005,1.68,2.476-0.008,3.475
			c-2.598,1.539-5.212,3.053-7.843,4.536c-1.866,1.052-3.131,0.295-3.158-1.854c-0.02-1.494-0.004-2.988-0.004-4.482
			C65.429,55.4,65.43,55.4,65.431,55.4z"/>
	</g>
	
		<rect x="57.413" y="38.767" transform="matrix(0.9304 0.3664 -0.3664 0.9304 18.7942 -18.7466)" fill-rule="evenodd" clip-rule="evenodd" fill="#FFFFFF" width="2.726" height="2.728"/>
	
		<rect x="60.095" y="28.618" transform="matrix(0.9304 0.3665 -0.3665 0.9304 15.4962 -20.5956)" fill-rule="evenodd" clip-rule="evenodd" fill="#FFFFFF" width="3.797" height="3.797"/>
	
		<rect x="59.612" y="28.18" transform="matrix(0.9304 0.3665 -0.3665 0.9304 15.3019 -20.449)" fill-rule="evenodd" clip-rule="evenodd" fill="#79C042" width="3.797" height="3.797"/>
	
		<rect x="51.81" y="36.284" transform="matrix(0.9304 0.3666 -0.3666 0.9304 17.6215 -16.9526)" fill-rule="evenodd" clip-rule="evenodd" fill="#FFFFFF" width="3.269" height="3.269"/>
	
		<rect x="50.135" y="40.427" transform="matrix(0.9304 0.3666 -0.3666 0.9304 19.0235 -16.0502)" fill-rule="evenodd" clip-rule="evenodd" fill="#FFFFFF" width="3.269" height="3.269"/>
	<g>
		
			<rect x="46.189" y="17.343" transform="matrix(0.9305 0.3664 -0.3664 0.9305 10.1606 -16.1216)" fill-rule="evenodd" clip-rule="evenodd" fill="#79C042" width="2.727" height="2.728"/>
		
			<rect x="57.208" y="19.381" transform="matrix(0.9304 0.3664 -0.3664 0.9304 11.6761 -20.0199)" fill-rule="evenodd" clip-rule="evenodd" fill="#79C042" width="2.726" height="2.728"/>
		
			<rect x="56.744" y="14.881" transform="matrix(0.9304 0.3664 -0.3664 0.9304 9.9949 -20.163)" fill-rule="evenodd" clip-rule="evenodd" fill="#79C042" width="2.726" height="2.728"/>
		
			<rect x="54.407" y="28.019" transform="matrix(0.9304 0.3664 -0.3664 0.9304 14.6465 -18.3928)" fill-rule="evenodd" clip-rule="evenodd" fill="#79C042" width="2.726" height="2.728"/>
		
			<rect x="42.82" y="37.861" transform="matrix(0.9304 0.3664 -0.3664 0.9304 17.447 -13.4622)" fill-rule="evenodd" clip-rule="evenodd" fill="#79C042" width="2.726" height="2.728"/>
		
			<rect x="36.383" y="36.92" transform="matrix(0.9304 0.3665 -0.3665 0.9304 16.5682 -11.1098)" fill-rule="evenodd" clip-rule="evenodd" fill="#79C042" width="2.326" height="2.328"/>
		
			<rect x="43.452" y="29.353" transform="matrix(0.9304 0.3665 -0.3665 0.9304 14.2872 -14.2269)" fill-rule="evenodd" clip-rule="evenodd" fill="#79C042" width="2.326" height="2.328"/>
		
			<rect x="45.08" y="24.628" transform="matrix(0.9305 0.3663 -0.3663 0.9305 12.4735 -15.0183)" fill-rule="evenodd" clip-rule="evenodd" fill="#79C042" width="1.461" height="1.462"/>
		
			<rect x="43.653" y="21.153" transform="matrix(0.9305 0.3663 -0.3663 0.9305 11.1015 -14.737)" fill-rule="evenodd" clip-rule="evenodd" fill="#79C042" width="1.461" height="1.462"/>
		
			<rect x="46.306" y="34.563" transform="matrix(0.9305 0.3663 -0.3663 0.9305 16.1983 -14.777)" fill-rule="evenodd" clip-rule="evenodd" fill="#79C042" width="1.461" height="1.462"/>
		
			<rect x="51.737" y="20.444" transform="matrix(0.9304 0.3665 -0.3665 0.9304 11.8585 -18.0601)" fill-rule="evenodd" clip-rule="evenodd" fill="#79C042" width="3.512" height="3.513"/>
		
			<rect x="36.899" y="29.893" transform="matrix(0.9304 0.3666 -0.3666 0.9304 14.4665 -12.085)" fill-rule="evenodd" clip-rule="evenodd" fill="#79C042" width="4.302" height="4.302"/>
		
			<rect x="57.758" y="23.652" transform="matrix(0.9304 0.3666 -0.3666 0.9304 13.4072 -20.0147)" fill-rule="evenodd" clip-rule="evenodd" fill="#79C042" width="3.268" height="3.268"/>
		
			<rect x="48.221" y="28.102" transform="matrix(0.9304 0.3666 -0.3666 0.9304 14.3719 -16.2064)" fill-rule="evenodd" clip-rule="evenodd" fill="#79C042" width="3.269" height="3.269"/>
		
			<rect x="50.135" y="35.536" transform="matrix(0.9304 0.3666 -0.3666 0.9304 17.2307 -16.3907)" fill-rule="evenodd" clip-rule="evenodd" fill="#79C042" width="3.269" height="3.269"/>
		
			<rect x="47.358" y="40.427" transform="matrix(0.9304 0.3666 -0.3666 0.9304 18.8302 -15.032)" fill-rule="evenodd" clip-rule="evenodd" fill="#79C042" width="3.269" height="3.269"/>
	</g>
	
		<rect x="54.576" y="32.229" transform="matrix(0.9304 0.3666 -0.3666 0.9304 16.3276 -18.2487)" fill-rule="evenodd" clip-rule="evenodd" fill="#FFFFFF" width="3.269" height="3.269"/>
	
		<rect x="52.901" y="31.481" transform="matrix(0.9304 0.3666 -0.3666 0.9304 15.9368 -17.6868)" fill-rule="evenodd" clip-rule="evenodd" fill="#79C042" width="3.269" height="3.269"/>
</g>
</svg>
