<?xml version="1.0" encoding="utf-8"?>
<!-- Generator: Adobe Illustrator 16.0.0, SVG Export Plug-In . SVG Version: 6.00 Build 0)  -->
<!DOCTYPE svg PUBLIC "-//W3C//DTD SVG 1.1//EN" "http://www.w3.org/Graphics/SVG/1.1/DTD/svg11.dtd">
<svg version="1.1" id="Layer_1" xmlns="http://www.w3.org/2000/svg" xmlns:xlink="http://www.w3.org/1999/xlink" x="0px" y="0px"
	 width="150px" height="93.938px" viewBox="0 0 150 93.938" enable-background="new 0 0 150 93.938" xml:space="preserve">
<linearGradient id="SVGID_1_" gradientUnits="userSpaceOnUse" x1="247.7852" y1="26.5459" x2="98.4528" y2="-65.7866" gradientTransform="matrix(1 0 0 -1 -98.3599 27.5684)">
	<stop  offset="0" style="stop-color:#4B499E"/>
	<stop  offset="0.0143" style="stop-color:#514A9E"/>
	<stop  offset="0.2106" style="stop-color:#90499C"/>
	<stop  offset="0.3002" style="stop-color:#A7499B"/>
	<stop  offset="0.3323" style="stop-color:#A94797"/>
	<stop  offset="0.3778" style="stop-color:#B0448E"/>
	<stop  offset="0.4314" style="stop-color:#B84080"/>
	<stop  offset="0.4912" style="stop-color:#C23B6D"/>
	<stop  offset="0.5553" style="stop-color:#CE3154"/>
	<stop  offset="0.6036" style="stop-color:#D82640"/>
	<stop  offset="0.8766" style="stop-color:#FAA526"/>
	<stop  offset="1" style="stop-color:#F8DE23"/>
</linearGradient>
<rect y="0.142" fill="url(#SVGID_1_)" width="150" height="93.796"/>
<g>
	<g>
		<path fill="#FFFFFF" d="M36.671,31.913H23.882c-4.823,0-8.732,3.909-8.732,8.732v12.79c0,4.821,3.909,8.731,8.732,8.731h12.789
			c4.822,0,8.732-3.91,8.732-8.731v-12.79C45.403,35.822,41.494,31.913,36.671,31.913 M42.618,53.659
			c0,3.201-2.595,5.795-5.797,5.795H23.734c-3.202,0-5.797-2.594-5.797-5.795V40.571c0-3.203,2.595-5.796,5.797-5.796h13.087
			c3.202,0,5.797,2.594,5.797,5.796V53.659z"/>
		<path fill="#FFFFFF" d="M30.277,39.265c-4.336,0-7.85,3.513-7.85,7.848c0,4.336,3.514,7.85,7.85,7.85
			c4.335,0,7.85-3.514,7.85-7.848C38.127,42.778,34.612,39.265,30.277,39.265 M30.277,52.204c-2.81,0-5.089-2.277-5.089-5.088
			s2.279-5.089,5.089-5.089s5.088,2.278,5.088,5.089C35.366,49.926,33.087,52.204,30.277,52.204"/>
		<path fill="#FFFFFF" d="M38.388,37.138c-1.009,0-1.829,0.818-1.829,1.829c0,1.009,0.818,1.829,1.829,1.829
			c1.011,0,1.829-0.819,1.829-1.829C40.217,37.956,39.398,37.138,38.388,37.138"/>
	</g>
	<path fill="#FFFFFF" d="M57.292,37.469c0.236-0.066,0.486-0.025,0.72,0.028c0.352,0.088,0.717,0.185,1.005,0.415
		c0.147,0.115,0.28,0.286,0.266,0.483c-0.002,3.369,0,6.739,0,10.109c-0.011,1.104,0.061,2.222-0.144,3.313
		c-0.154,0.888-0.498,1.771-1.133,2.425c-0.209,0.237-0.448,0.451-0.727,0.604c-0.234,0.125-0.492,0.238-0.765,0.216
		c-0.062-0.067-0.115-0.146-0.102-0.241c0.021-0.264,0.118-0.512,0.204-0.758c0.257-0.841,0.329-1.725,0.36-2.602
		c0.022-4.104,0.03-8.211,0.051-12.318c0.001-0.106-0.007-0.211-0.024-0.317c-0.157,0.006-0.256,0.137-0.363,0.234
		c-0.495,0.482-0.904,1.054-1.195,1.681c-0.382,0.8-0.576,1.678-0.655,2.557c-0.068,0.572-0.021,1.155,0.113,1.714
		c0.115,0.43,0.289,0.854,0.569,1.206c0.121,0.14,0.161,0.357,0.06,0.52c-0.15,0.155-0.384,0.072-0.559,0.017
		c-0.591-0.21-1.1-0.617-1.49-1.104c-0.467-0.59-0.664-1.351-0.678-2.093c0.044-0.656,0.223-1.296,0.46-1.909
		c0.345-0.904,0.859-1.745,1.514-2.459c0.425-0.446,0.897-0.85,1.408-1.196C56.534,37.777,56.894,37.572,57.292,37.469
		 M79.557,37.631c0.193-0.163,0.467-0.14,0.701-0.111c0.422,0.068,0.842,0.173,1.232,0.344c0.121,0.049,0.226,0.13,0.32,0.22
		c-0.037,0.919-0.074,1.838-0.123,2.757c0.926,0.042,1.851,0.093,2.774,0.149c0.161,0.006,0.377,0.052,0.404,0.244
		c0.036,0.285-0.007,0.588-0.14,0.843c-0.08,0.134-0.191,0.296-0.367,0.287c-0.898,0.014-1.797,0.042-2.695,0.056
		c-0.049,1.291-0.083,2.583-0.129,3.875c-0.023,1.178-0.133,2.36-0.006,3.538c0.056,0.455,0.115,0.928,0.338,1.338
		c0.09,0.18,0.254,0.334,0.46,0.356c0.267,0.025,0.528-0.084,0.729-0.256c0.316-0.272,0.535-0.636,0.723-1.004
		c0.22-0.424,0.375-0.877,0.52-1.328c0.055-0.2,0.012-0.409,0.03-0.61c0.012-1.081,0.183-2.165,0.552-3.182
		c0.279-0.737,0.674-1.463,1.297-1.965c0.68-0.568,1.676-0.755,2.499-0.409c0.533,0.207,0.964,0.626,1.231,1.126
		c0.035-0.237-0.021-0.496,0.086-0.715c0.15-0.243,0.468-0.253,0.722-0.232c0.339,0.039,0.679,0.122,0.979,0.291
		c0.182,0.104,0.363,0.271,0.369,0.497c-0.059,1.969-0.139,3.941-0.078,5.915c0.02,0.426,0.078,0.852,0.173,1.27
		c0.077,0.303,0.175,0.63,0.426,0.835c0.235,0.182,0.576,0.122,0.799-0.054c0.36-0.281,0.567-0.701,0.751-1.108
		c0.047-0.117,0.114-0.237,0.09-0.367c-0.136-1.183-0.16-2.382,0.03-3.562c0.136-0.791,0.373-1.573,0.781-2.269
		c0.414-0.708,1.014-1.326,1.763-1.679c0.145-0.061,0.288-0.136,0.446-0.149c0.737-0.006,1.501,0.239,2.024,0.772
		c0.135,0.146,0.25,0.313,0.354,0.483c0.048-0.222-0.001-0.457,0.078-0.671c0.116-0.249,0.438-0.264,0.678-0.232
		c0.399,0.066,0.81,0.153,1.168,0.354c0.22,0.131,0.22,0.414,0.209,0.638c-0.021,2.221-0.052,4.44-0.067,6.662
		c0.504-0.711,0.965-1.453,1.359-2.23c0.483-0.943,0.895-1.935,1.102-2.979c-0.275-0.249-0.53-0.555-0.609-0.927
		c-0.072-0.303-0.005-0.614,0.079-0.909c0.134-0.44,0.463-0.849,0.919-0.977c0.348-0.097,0.743-0.105,1.068,0.069
		c0.246,0.13,0.386,0.4,0.426,0.667c0.046,0.272,0.005,0.549-0.047,0.816c0.595-0.093,1.188-0.189,1.771-0.337
		c0.401-0.092,0.829-0.164,1.23-0.037c0.287,0.083,0.496,0.343,0.564,0.629c0.071,0.304,0.096,0.634-0.021,0.93
		c-0.158,0.393-0.193,0.817-0.281,1.229c-0.188,1.089-0.434,2.203-0.251,3.311c0.067,0.494,0.169,0.988,0.36,1.449
		c0.121,0.245,0.271,0.514,0.55,0.6c0.272,0.072,0.55-0.067,0.762-0.232c0.347-0.313,0.574-0.747,0.681-1.197
		c-0.234-1.162-0.291-2.367-0.104-3.54c0.135-0.881,0.387-1.749,0.813-2.535c0.334-0.593,0.801-1.139,1.424-1.438
		c0.691-0.342,1.55-0.342,2.224,0.04c0.419,0.217,0.737,0.581,0.976,0.98c0.037-0.239-0.024-0.505,0.104-0.723
		c0.19-0.237,0.536-0.222,0.812-0.184c0.4,0.07,0.84,0.168,1.121,0.487c0.182,0.202,0.094,0.486,0.094,0.728
		c-0.031,1.295-0.086,2.589-0.084,3.884c0.008,0.988-0.028,1.996,0.233,2.959c0.078,0.247,0.177,0.51,0.394,0.667
		c0.24,0.175,0.584,0.138,0.813-0.036c0.314-0.238,0.525-0.582,0.709-0.926c0.145-0.309,0.319-0.607,0.396-0.941
		c0.006-2.177,0.019-4.355,0.021-6.534c-0.016-0.184,0.053-0.398,0.235-0.477c0.134-0.082,0.291-0.021,0.435-0.005
		c0.385,0.072,0.791,0.084,1.146,0.265c0.133,0.066,0.273,0.183,0.262,0.345c-0.002,1.077,0.001,2.153-0.002,3.229
		c-0.001,0.124,0,0.248,0.014,0.373c0.317-0.98,0.651-1.959,1.03-2.918c0.147-0.354,0.304-0.709,0.498-1.043
		c0.146-0.266,0.487-0.311,0.763-0.293c0.586,0.043,1.204,0.295,1.516,0.82c0.111,0.191,0.16,0.415,0.16,0.632
		c-0.012,1.12,0.051,2.239,0.133,3.354c0.023,0.346,0.029,0.698,0.086,1.041c0.035-0.027,0.06-0.062,0.064-0.105
		c0.114-0.827,0.321-1.635,0.555-2.437c0.263-0.885,0.552-1.766,0.92-2.614c0.093-0.212,0.187-0.453,0.402-0.567
		c0.313-0.171,0.689-0.118,1.018-0.021c0.369,0.126,0.753,0.257,1.053,0.52c0.219,0.184,0.395,0.449,0.402,0.743
		c-0.092,1.732-0.176,3.473-0.047,5.206c0.037,0.477,0.095,0.955,0.215,1.419c0.07,0.264,0.16,0.526,0.326,0.747
		c0.156,0.207,0.453,0.318,0.701,0.218c0.221-0.085,0.368-0.29,0.479-0.489c0.26-0.48,0.335-1.029,0.481-1.549
		c0.035-0.16,0.105-0.334,0.273-0.387c0.12-0.076,0.244,0.02,0.34,0.09c0.123,0.111,0.086,0.295,0.088,0.443
		c-0.033,0.836-0.166,1.711-0.656,2.412c-0.39,0.578-1.095,0.953-1.799,0.871c-0.646-0.031-1.246-0.401-1.593-0.943
		c-0.442-0.668-0.618-1.469-0.733-2.248c-0.207-1.557-0.153-3.132-0.113-4.694c-0.064,0.042-0.106,0.105-0.137,0.172
		c-0.438,0.874-0.733,1.811-0.967,2.756c-0.307,1.229-0.496,2.484-0.539,3.75c0.006,0.164-0.123,0.287-0.271,0.322
		c-0.348,0.143-0.76,0.172-1.104,0.004c-0.351-0.162-0.604-0.48-0.763-0.828c-0.169-0.355-0.233-0.75-0.291-1.138
		c-0.206-1.608-0.276-3.232-0.358-4.85c0.012-0.116-0.121-0.041-0.182-0.03c-0.788,1.373-1.189,2.93-1.391,4.488
		c-0.125,0.908-0.168,1.826-0.182,2.74c0,0.166-0.093,0.323-0.236,0.404c-0.271,0.153-0.598,0.146-0.897,0.123
		c-0.356-0.035-0.737-0.068-1.04-0.279c-0.129-0.082-0.214-0.229-0.22-0.383c-0.022-0.298-0.026-0.596-0.054-0.893
		c-0.164,0.238-0.299,0.498-0.494,0.715c-0.313,0.369-0.717,0.682-1.193,0.795c-0.674,0.152-1.426-0.068-1.895-0.583
		c-0.381-0.411-0.588-0.954-0.686-1.502c-0.339,0.737-0.887,1.396-1.615,1.772c-0.353,0.191-0.746,0.299-1.146,0.34
		c-0.438,0.053-0.896,0-1.289-0.203c-0.583-0.295-1.018-0.829-1.281-1.417c-0.308,0.692-0.84,1.358-1.602,1.562
		c-0.752,0.207-1.563-0.1-2.102-0.637c-0.688-0.671-1.049-1.616-1.154-2.559c-0.06-0.455-0.039-0.918-0.006-1.375
		c0.067-1.021,0.181-2.046,0.445-3.04c0.006-0.055,0.006-0.11,0.002-0.164c-0.549-0.025-1.1-0.006-1.646,0.009
		c-0.271,0.93-0.674,1.819-1.125,2.676c-0.78,1.464-1.734,2.83-2.809,4.095c0.014,1.217,0.051,2.436-0.009,3.649
		c-0.06,0.963-0.203,1.94-0.604,2.828c-0.308,0.659-0.787,1.26-1.438,1.604c-0.483,0.27-1.036,0.412-1.586,0.445
		c-0.687-0.049-1.397-0.219-1.935-0.673c-0.377-0.31-0.635-0.755-0.733-1.233c-0.069-0.414-0.093-0.852,0.044-1.257
		c0.243-0.761,0.73-1.414,1.256-2.005c0.531-0.602,1.145-1.122,1.725-1.676c0.463-0.434,0.93-0.868,1.396-1.301
		c0.01-0.336-0.045-0.674-0.054-1.012c-0.216,0.28-0.407,0.582-0.677,0.814c-0.672,0.65-1.644,0.986-2.57,0.865
		c-0.645-0.112-1.172-0.563-1.561-1.066c-0.146-0.186-0.276-0.383-0.39-0.59c-0.342,0.679-0.836,1.367-1.592,1.605
		c-0.755,0.213-1.609-0.095-2.104-0.691c-0.326-0.4-0.535-0.893-0.604-1.401c-0.317,0.681-0.804,1.3-1.451,1.693
		c-0.417,0.258-0.896,0.407-1.384,0.446c-0.529,0.065-1.08-0.063-1.518-0.369c-0.793-0.555-1.182-1.492-1.414-2.396
		c-0.121,0.4-0.322,0.776-0.525,1.143c-0.209,0.326-0.43,0.651-0.713,0.92c-0.331,0.322-0.748,0.584-1.215,0.645
		c-0.535,0.07-1.099-0.093-1.51-0.443c-0.336-0.283-0.584-0.656-0.765-1.056c-0.339-0.728-0.467-1.528-0.534-2.321
		c-0.417,0.922-0.91,1.832-1.642,2.547c-0.56,0.57-1.269,1.008-2.052,1.197c-0.614,0.157-1.258,0.143-1.888,0.086
		c-0.543-0.056-1.095-0.162-1.575-0.433c-0.231-0.14-0.467-0.327-0.537-0.599c-0.044-0.301,0.126-0.571,0.291-0.805
		c0.161-0.215,0.341-0.443,0.603-0.539c0.243-0.078,0.453,0.117,0.642,0.239c0.293,0.259,0.626,0.492,1.013,0.575
		c0.38,0.1,0.833-0.023,1.057-0.357c0.204-0.313,0.263-0.695,0.283-1.062c-0.005-0.69-0.446-1.277-0.912-1.746
		c-0.438-0.418-0.895-0.815-1.345-1.216c-0.642,1.093-1.33,2.159-1.979,3.245c-0.387,0.697-0.857,1.361-1.451,1.897
		c-0.43,0.386-0.945,0.714-1.525,0.792c-0.39,0.059-0.785-0.136-1.022-0.439c-0.312-0.396-0.444-0.896-0.52-1.385
		c-0.118-0.875-0.074-1.763-0.061-2.644c0.015-1.121,0.073-2.242,0.111-3.361c0.006-0.24,0.035-0.48,0.011-0.72
		c-0.076,0.018-0.165,0.02-0.212,0.089c-1.074,1.207-1.742,2.708-2.26,4.222c-0.44,1.326-0.757,2.691-0.963,4.07
		c-0.174,0.141-0.404,0.182-0.621,0.145c-0.262-0.037-0.529-0.004-0.789-0.059c-0.231-0.061-0.395-0.263-0.486-0.477
		c-0.189-0.438-0.212-0.924-0.207-1.395c0.022-2.65,0.038-5.301,0.058-7.95c-0.005-0.128,0.029-0.291,0.167-0.336
		c0.275-0.088,0.566-0.013,0.839,0.045c0.307,0.08,0.64,0.159,0.87,0.392c0.118,0.112,0.069,0.286,0.078,0.429
		c-0.006,1.47-0.028,2.941-0.021,4.411c0.483-1.302,0.959-2.625,1.71-3.803c0.167-0.242,0.329-0.493,0.535-0.704
		c0.357-0.417,0.849-0.782,1.418-0.794c0.428-0.017,0.817,0.183,1.193,0.364c0.345,0.175,0.682,0.429,0.824,0.803
		c0.092,0.219,0.056,0.463,0.052,0.693c-0.038,1.265-0.075,2.531-0.119,3.795c-0.008,0.516-0.05,1.031-0.019,1.549
		c0.014,0.246,0.042,0.494,0.128,0.726c0.053,0.13,0.129,0.28,0.282,0.304c0.145,0.018,0.265-0.088,0.369-0.174
		c0.232-0.213,0.423-0.469,0.61-0.72c0.529-0.737,0.984-1.524,1.439-2.31c0.265-0.486,0.543-0.966,0.79-1.462
		c-0.087-0.146-0.221-0.261-0.296-0.414c-0.292-0.474-0.375-1.067-0.221-1.602c0.14-0.521,0.467-0.985,0.896-1.31
		c0.304-0.213,0.657-0.354,1.022-0.427c0.348-0.089,0.732-0.038,1.04,0.148c0.212,0.13,0.321,0.38,0.329,0.622
		c0.02,0.456-0.149,0.895-0.363,1.29c-0.206,0.39-0.476,0.745-0.76,1.083c0.905,0.662,1.848,1.292,2.631,2.104
		c0.409,0.432,0.75,0.965,0.819,1.568c0.047,0.311,0.004,0.625-0.043,0.936c0.854-0.746,1.516-1.764,1.688-2.894
		c0.023-1.727,0.018-3.457,0.036-5.184c-0.791-0.015-1.582-0.017-2.373-0.037c-0.155-0.093-0.187-0.293-0.194-0.459
		c0.002-0.396,0.112-0.811,0.385-1.111c0.041-0.063,0.119-0.042,0.186-0.048c0.703,0.009,1.408,0.019,2.111,0.028
		c0.035-0.8,0.055-1.601,0.084-2.401C79.404,38.075,79.396,37.817,79.557,37.631 M88.178,44.303
		c-0.464,0.092-0.809,0.465-1.025,0.865c-0.287,0.541-0.424,1.149-0.512,1.75c-0.106,0.788-0.141,1.583-0.099,2.375
		c0.045,0.608,0.126,1.234,0.407,1.785c0.156,0.299,0.396,0.578,0.725,0.693c0.215,0.084,0.467,0.075,0.67-0.035
		c0.42-0.216,0.703-0.613,0.913-1.023c0.372-0.756,0.531-1.596,0.613-2.428c0.067-0.868,0.092-1.751-0.116-2.603
		c-0.111-0.404-0.279-0.811-0.594-1.1C88.9,44.34,88.525,44.22,88.178,44.303 M98.016,44.333c-0.556,0.152-0.94,0.634-1.189,1.128
		c-0.362,0.771-0.51,1.622-0.574,2.466c-0.041,0.944-0.05,1.92,0.241,2.829c0.146,0.432,0.397,0.875,0.829,1.07
		c0.27,0.127,0.597,0.1,0.85-0.059c0.215-0.139,0.4-0.32,0.549-0.527c0.344-0.473,0.547-1.029,0.688-1.592
		c0.203-0.836,0.271-1.699,0.267-2.559c-0.006-0.587-0.059-1.181-0.241-1.742c-0.121-0.342-0.306-0.685-0.611-0.896
		C98.592,44.29,98.284,44.25,98.016,44.333 M115.089,44.405c-0.483,0.076-0.854,0.455-1.073,0.873
		c-0.396,0.746-0.515,1.599-0.588,2.426c-0.062,0.935-0.088,1.885,0.133,2.803c0.109,0.445,0.295,0.9,0.66,1.199
		c0.236,0.189,0.568,0.297,0.865,0.188c0.387-0.13,0.656-0.463,0.875-0.792c0.496-0.824,0.68-1.789,0.771-2.732
		c0.07-0.858,0.09-1.74-0.123-2.581c-0.104-0.414-0.285-0.83-0.612-1.115C115.753,44.456,115.41,44.343,115.089,44.405
		 M99.182,54.762c-0.855,0.845-1.647,1.794-2.125,2.91c-0.173,0.398-0.264,0.85-0.141,1.273c0.083,0.331,0.346,0.611,0.678,0.698
		c0.413,0.108,0.885,0.108,1.258-0.124c0.336-0.223,0.557-0.581,0.689-0.957c0.253-0.719,0.303-1.486,0.34-2.244
		c0.012-0.738,0.031-1.477,0.036-2.217C99.648,54.293,99.428,54.542,99.182,54.762"/>
</g>
</svg>
