<svg xmlns="http://www.w3.org/2000/svg" width="150" height="93.8"><linearGradient id="a" x1="97.2" x2="251.1" y1="-49.9" y2="-49.9" gradientTransform="matrix(1 0 0 -1 -98.4 -3)" gradientUnits="userSpaceOnUse"><stop offset="0" stop-color="#f88708"/><stop offset="1" stop-color="#f88708"/></linearGradient><path fill="url(#a)" d="M0 0h150v93.8H0z"/><g fill-rule="evenodd" clip-rule="evenodd"><path fill="#F89F16" d="M72 79.5c-1.5 0-3-.3-4.4-.6a29.6 29.6 0 0 1-7-2.5 32.2 32.2 0 0 1-6.6-4.5 32.2 32.2 0 0 1-5-5.6 33.8 33.8 0 0 1-3-5.4l-1.3-3.7-.8-3.8v-1l-.2-2.2v-.4a8.6 8.6 0 0 1 0-1.6c.1-.8 0-1.6.2-2.3-.1-1 .2-2 .4-3a28.8 28.8 0 0 1 2.3-6.7c.5-1 1-2.1 1.7-3.1a.8.8 0 0 1 .3-.3h3.6c.4 0 0 .3 0 .5-.1.4-.4.8-.7 1.1a28 28 0 0 0-4.4 9.8A27.6 27.6 0 0 0 49 61.9c1 2.4 2.5 4.6 4.3 6.6l1.6 1.7.5.5c.5.6 1.1 1 1.7 1.5a28.5 28.5 0 0 0 12.3 5.6 25.8 25.8 0 0 0 9.8 0 36 36 0 0 0 4.3-1 29.5 29.5 0 0 0 10.7-6.1l.3-.4 2-2.2c2.7-3.3 4.7-7 5.7-11.2a27.6 27.6 0 0 0-2.4-19.3 29 29 0 0 0-2.8-4.3l-.2-.5a38.4 38.4 0 0 1 4 0c.6.5.9 1.2 1.2 1.9a27 27 0 0 1 2 4.3c.6 1.7 1.1 3.5 1.4 5.3 0 .6.2 1 .1 1.6.2.7 0 1.5.2 2.3v1.5l-.1 2.4v.3c0 1-.2 1.9-.4 2.8a25.7 25.7 0 0 1-.8 2.9l-.9 2.4c-.5 1.3-1.2 2.6-1.9 3.8a27.8 27.8 0 0 1-3.6 5 31.9 31.9 0 0 1-6 5.2 32.7 32.7 0 0 1-4.8 2.6 28.3 28.3 0 0 1-9.8 2.4c-.7 0-1.4 0-2.1.2h-1.2c-.7-.2-1.4-.1-2-.2z"/><path fill="#E0581C" d="M55.3 70.8l-1.6-1.7A27.1 27.1 0 0 1 47.1 57a31 31 0 0 1-.2-12.3 30.5 30.5 0 0 1 4.3-10l.9-1.3.5-.6c.2-.1.3-.2.5-.1h.5c12.8-.4 25.6-.2 38.5-.2l4.3.2h.4a31.4 31.4 0 0 1 3.3 5 26.7 26.7 0 0 1 3 11.7c0 1.8 0 3.7-.3 5.5a28.3 28.3 0 0 1-2.5 7.6 30.4 30.4 0 0 1-3.2 5l-2.5 2.8c-.8.9-1.7 1.6-2.7 2.3a28.1 28.1 0 0 1-9.4 4.6 27 27 0 0 1-4.7 1 26.4 26.4 0 0 1-5.2 0 35.2 35.2 0 0 1-8.2-1.8 28 28 0 0 1-9-5.6zm6-55.2h12.8c.2 0 .4 0 .5.2.2.2.2.4.2.6v14c0 .2 0 .4-.2.6v.2H62.1l-.6.1-.6.1H50c-.7 0-1.2-.3-1.6-1a.2.2 0 0 1 .2 0c.2 0 .3.2.4.3.3.3.7.5 1.2.5h10.6c.5 0 .5-.1.5-.6V15.8a.3.3 0 0 1 0-.2z"/><path fill="#F89F16" d="M74.6 31V15.8c.5-.2 1-.1 1.4-.1H87.8V30.5c0 .7 0 .7-.6.7H75.5l-.6-.1h-.3z"/><path fill="#FDCF4B" d="M100 15.7c.3 0 .5.2.6.5 0 .2.4.4.3.8V30c0 .5-.4.9-.9 1l-1 .2H88.7c-.2 0-.4 0-.6-.2V16.4c0-.6.1-.7.7-.7H100z"/><path fill="#FBBA31" d="M88.2 31.1c0 .2.3 0 .5 0h11.5c-.3.2-.5.4-.8.3H88.2l-.5-.1c0-.1.2-.2.1-.3V16.3c0-.2 0-.4.2-.6h.1V31.1z"/><path fill="#F9A30E" d="M74.9 31.1h12.3c.4 0 .6-.1.6-.5v-15l.1.5V31.2h-13V31z"/><path fill="#B94818" d="M48.5 30.4v-.2l-.1-.4V17.1v-.4c.2-.6.7-1.1 1.3-1.1h11.7c-.3.3-.5.2-.8.2H49.7l-.4.2-.2.1c-.2.2-.4.5-.4.8V30.2a.4.4 0 0 1-.2.2z"/><path fill="#FBBD3F" d="M100.9 16.9a1.4 1.4 0 0 1-.3-.7c.3.2.5.5.5 1V30h-.2c-.2-.2-.1-.4-.1-.6v-12-.6z"/><path fill="#FAA916" d="M87.8 31.2V15.7a.1.1 0 0 1 .1 0v15.5z"/><path fill="#E0581C" d="M48.4 16.7v13.5-12.8-.7z"/><path fill="#F89A09" d="M87.8 31.2h.1l-.2.1H75.4c-.2 0-.4.1-.5-.1h13z"/><path fill="#E46109" d="M61.6 31.4c0-.2.2-.2.3-.2h12.6c0 .2-.3.1-.5.1H61.6z"/><path fill="#FAB036" d="M88 15.7c0-.2.3-.1.4-.1H100c0 .2-.2.2-.3.2-.3-.1-.5 0-.8 0H88.2a.5.5 0 0 1-.2-.1z"/><path fill="#F9AF2D" d="M88.2 31.4c0-.2.3-.1.4-.1h10.8-11.3z"/><path fill="#F8980F" d="M52.6 32.8c0 .3-.3.4-.5.6l.2-.6h-3.7l.1-.1h3.9z"/><path fill="#F8980E" d="M100.8 32.8H97l.3-.1h3.6z"/><path fill="#F89C10" d="M43.7 49.8c.2.6.2 1.3.2 2v.7c-.3-1-.2-1.8-.2-2.7z"/><path fill="#F89C0F" d="M105.5 52.4c0-.9 0-1.8.2-2.6 0 .8.1 1.7-.2 2.6zm.2-4.2c-.3-.8-.2-1.5-.2-2.3.3.7.3 1.5.2 2.3z"/><path fill="#F89B0F" d="M43.9 45.9c0 .8 0 1.5-.2 2.3 0-.8-.1-1.6.2-2.3z"/><path fill="#F89C0D" d="M72 79.5c.7 0 1.4-.1 2.1.2-.7 0-1.4 0-2-.2zm3.3.2c.7-.3 1.4-.1 2.1-.2-.7.2-1.4.2-2.1.2z"/><path fill="#FBB836" d="M100.9 30.1h.1c0 .5-.3.9-.8 1l.7-1z"/><path fill="#F18B18" d="M55.3 70.8c.8.5 1.4 1 2 1.6a29.5 29.5 0 0 0 11.4 5.2l4.5.6 4.1-.1 2.4-.3a29.4 29.4 0 0 0 14.9-7.5c-.3.6-.9 1-1.4 1.3a30.3 30.3 0 0 1-5 3.4 30.8 30.8 0 0 1-7.2 2.7c-1.2.2-2.5.5-3.8.5-1 0-2 .3-2.9.2-1.4 0-2.8-.2-4.2-.4l-2.6-.5a22.4 22.4 0 0 1-3-1 35.5 35.5 0 0 1-3.7-1.7 31.8 31.8 0 0 1-4.4-3c-.4-.3-.8-.6-1-1z"/><path fill="#8C0E19" d="M92.6 32.7a25.7 25.7 0 0 1 5.7 7.6l.1.2.9 2.2.3.8c0 .1-.3.3 0 .3 0 .2.2.3.1.5v0c.2.3.3.7.3 1a.1.1 0 0 1 0 .2h-.1v-.1.8l.2.5v.3l.1 1.6a31.8 31.8 0 0 1-.4 4.7c-.3 2-1 4.1-2 6A25.4 25.4 0 0 1 74.2 74a25.9 25.9 0 0 1-9.4-2 25 25 0 0 1-12-10.3 19.2 19.2 0 0 1-1.6-3.4l-.8-2.2c-.4-1.4-.8-2.8-.8-4.3l-.2-2.2c0-1.2 0-2.4.2-3.6l-.1.6v.6c-.2.2-.2.4-.2.7a.9.9 0 0 1-.1.3.1.1 0 0 1-.1.1c0-1 .2-2.1.4-3.2a24.5 24.5 0 0 1 2.8-6.7 25.4 25.4 0 0 1 4-5.2l.6-.4h.1a60289.5 60289.5 0 0 0 35.7 0z"/><path fill="#740D16" d="M49.2 47.1v-.7c.5 0 .3.4.2.5v3a21.3 21.3 0 0 0 1.8 8.4 25.4 25.4 0 0 0 9.4 11.4 24.2 24.2 0 0 0 6.3 3 26.4 26.4 0 0 0 13.3.6 24.6 24.6 0 0 0 6-2.2 26.4 26.4 0 0 0 5.9-4 25 25 0 0 0 3.5-4 23.5 23.5 0 0 0 4.3-11.7l.2-2.8-.1-1.6c.1 0 0-.3.3-.3v.1c.4 1.9.5 3.8.4 5.6a20.8 20.8 0 0 1-.4 3.1c0 .2-.2 0-.2 0 0 .2 0 .2.2.3l-.5 2.2a26.5 26.5 0 0 1-1.8 4.5 29.4 29.4 0 0 1-2.8 4.5l-2 2a30.6 30.6 0 0 1-4.4 3.6c-1 .7-2.2 1.3-3.4 1.8-.4 0-.8.4-1.2.5l-2 .7c-.3 0-.6.3-1 .3h-1s.2 0 .1.2l-3 .4c-1.1.2-2.2.3-3.3.2-1.2 0-2.5-.1-3.7-.4v-.1c.1-.2.3 0 .5 0a1.6 1.6 0 0 0-.7 0c-.6-.1-1.2-.4-1.9-.3a26.4 26.4 0 0 1-9.5-4.6 21.8 21.8 0 0 1-2.2-1.9 29.1 29.1 0 0 1-3.4-4.1c-.9-1.2-1.5-2.4-2.1-3.7l-.2-.5-1.4-4v-.9l-.2-.5v-.6l-.2-.7v-1.6c-.1-1-.1-2.1 0-3.2v-1.8c.2-.2.1-.5.2-.7z"/><path fill="#8C0E19" d="M56.8 32.7c.2-.2.4-.1.5-.1h35.3c-.2.2-.4.1-.6.1H56.8z"/><path fill="#C1441A" d="M100.2 55.6l.3-1.2.2-3.1a31 31 0 0 0-.4-4.2v-.4-.2c.4 1 .4 2 .5 2.9a22 22 0 0 1 0 3.5c0 .9-.1 1.7-.4 2.5L100 58a25.4 25.4 0 0 1-2 5 27 27 0 0 1-2.5 4h-.2l1.5-2.2a24.4 24.4 0 0 0 3.5-9z"/><path fill="#C6451B" d="M56.5 69.4l2.4 2a24.6 24.6 0 0 0 8.8 4.3h.5c.6.2 1.3.2 1.9.5v.1c-.6.1-1.2-.1-1.7-.3a27.5 27.5 0 0 1-4-1.3 29.2 29.2 0 0 1-4.8-2.7 22 22 0 0 1-2.7-2.2c-.2 0-.3-.2-.4-.4z"/><path fill="#912118" d="M49.2 55.1v.7l.2.4c0 .6.3 1.2.4 1.8.3 1.1.8 2 1 3.1-.5-.7-.7-1.6-1-2.4l-.5-2.1-.5-2.9c-.2-1.5-.2-3 0-4.4l.1-1.1c.2.4 0 .8.1 1.1v.4 1c-.1 1 0 2.1 0 3.2v.5l.2.7z"/><path fill="#BA3E1A" d="M70 76.3h.3c1.7.2 3.4.4 5 .3 1.7 0 3.4-.1 5-.6.3-.2.6-.1.8-.2.5 0 .8-.3 1.2-.2l-2.3.7c-.4 0-.8 0-1.1.2h-.5l-1.4.1c-.2.2-.4 0-.6.1H72.4l-1.3-.2h-.5l-.5-.2z"/><path fill="#BE401A" d="M100.3 46.5v.2a.6.6 0 0 0-.1 0 .3.3 0 0 1-.1-.2c0-.4-.3-.7-.1-1l-.3-1.2a1.1 1.1 0 0 0-.2-.5v-.2c-.2-.9-.6-1.8-1-2.7a1 1 0 0 1 0-.4l.7 1.7.8 2.7c.1.5.3 1 .3 1.6z"/><path fill="#AE361A" d="M51 61.6l1.4 2.6.7 1c-.3 0-.4-.4-.6-.6L51 61.8v-.2z"/><path fill="#C0411A" d="M85.4 74.4c1.1-.5 2.2-1.1 3.2-1.8h.2c-.3.5-1 .7-1.4 1-.7.3-1.3.7-2 .9v-.1z"/><path fill="#BF421A" d="M82.3 75.7v-.1l1.9-.7c.2 0 .3-.2.5-.1-.1.3-.5.2-.7.3-.5.2-1 .5-1.7.6z"/><path fill="#C6451B" d="M73.3 76.7h2.8c-.3.2-.7.1-1 .1-.6 0-1.2.2-1.8 0z"/><path fill="#972618" d="M84.7 74.8h-.5l1.2-.4-.7.4z"/><path fill="#C6451B" d="M72.4 76.6l.6.1h-.6zm4 .1h.6-.6zm-5.8-.3l.5.1h-.5zm7.8.1h.5-.5z"/><path fill="#8C0E19" d="M48.5 16.7c.2-.3.3-.6.6-.7h.1a.6.6 0 0 1 .4-.2h11.5c.2.2.1.4.1.5v14.8H50.3h10.9v-5V16c-.1-.3-.4-.2-.6-.2h-11c.2-.2.4-.1.6-.1h11.2c.1.1 0 .3 0 .4v14.6c0 .5 0 .6-.5.6H50.5c-.9 0-1.5-.2-2-.9v-.1c.2-.2.1-.4.1-.6V17.3v-.6z"/><path fill="#FEFDFD" d="M67.6 26h2.9c.3 0 .5.1.4.5 0 1.1.1 1-.9 1h-4.2c-.4 0-.5-.2-.5-.5v-7c0-.4.1-.5.4-.5h4.8c.3 0 .5.1.5.5 0 1.1.1 1-1 1h-2.2c-.4 0-.5 0-.5.4 0 1.4-.2 1.2 1.2 1.2h1.4c.3 0 .5.1.5.5 0 1 0 1-1 1h-1.7c-.3 0-.4 0-.4.3v1.2c0 .2 0 .3.2.4 0-.1 0 0 0 0z"/><path fill="#E05412" d="M67.6 26h-.1v-1.4c0-.1 0-.3.2-.3h2.5l.1.2h-2c-.6 0-.6 0-.6.6 0 .3 0 .5.4.5h2.7-3v.2h3-2.7c-.2 0-.4 0-.5.2z"/><path fill="#E1581B" d="M71 27.7h-5.7v-.1H71v.1z"/><path fill="#E05511" d="M71 21.2h-2.7c-.5 0-.6.1-.6.6 0 .4.1.5.6.5h2.1a.7.7 0 0 1-.5.2h-2c-.3 0-.4-.1-.4-.3 0-1 0-1 1-1h2.4z"/><path fill="#DF4800" d="M65.3 19.3H71v.1h-5.6v-.1z"/><path fill="#E05617" d="M64.8 27.2v-7.5 7.5z"/><path fill="#DE4A01" d="M70.6 22.7V24v-1.3z"/><path fill="#DF510A" d="M71.3 20.8v-1.2 1.2z"/><path fill="#DF5310" d="M71.3 27.3v-1.1 1.1z"/><path fill="#FBCD8B" d="M79.7 27.4c-.6.2-1.3 0-2 .1-.3 0-.3-.3-.3-.6v-6.8c0-.4 0-.6.5-.7h1.7c.2.1.3.2.1.4h-1.2c-.5 0-.6 0-.6.5V27c.4.4.9.1 1.3.2.3 0 .3-.2.3-.4v-3.2-.8c0-.1.1-.3.3-.3.1 0 .2 0 .3.2l.8 1.3v.3l-.4-.3a.2.2 0 0 1 0-.2l-.2-.3c-.2 0-.3-.2-.4-.3v3.7c0 .2 0 .4-.2.5z"/><path fill="#F9B143" d="M82.8 19.5c.7-.2 1.4 0 2 0 .2 0 .3.1.3.3v7.4c0 .2-.1.3-.4.3H83c-.3 0-.5 0-.5-.4.6.3 1.1.2 1.7.2.3 0 .4-.1.4-.5v-6.7c0-.3-.1-.4-.4-.4h-1.1-.2-.2v-.2z"/><path fill="#FCE4C3" d="M83 19.6h1.6c.2 0 .3 0 .3.3v7c0 .4-.1.6-.5.6a5.2 5.2 0 0 0-1 0c-.3 0-.6-.1-.8-.4l-.3-.5-.2-.2a5.7 5.7 0 0 0-.9-1.4c0-.2-.2-.4-.3-.5a8.8 8.8 0 0 0 0-.2V24c.2 0 .3.3.4.5l1.4 2c.3.5 1.1.8 1.7.6.3-.1.2-.3.2-.5v-6.3c0-.6 0-.6-.6-.6h-.6c-.2 0-.4 0-.4-.2z"/><path fill="#F89B00" d="M77.5 27.5c-.2 0-.2-.2-.2-.4v-7.2c0-.1 0-.3.2-.4v8z"/><path fill="#FAC881" d="M82.8 19.6h.1c.2.2.1.4.1.6v4c0 .2-.2.3-.4.1a.9.9 0 0 1-.2-.2L80 20.3a.6.6 0 0 1-.1-.3c.3 0 .4 0 .4.3l1 1.4v.1a17.7 17.7 0 0 0 .1.3l.2.2.1.2.4.6.1.2.4.6c.2-.2.1-.4.1-.6v-3l.1-.7z"/><path fill="#F9A40E" d="M82.8 19.6v3.9c0 .1.1.4-.2.4V20c0-.2 0-.4.2-.5v.1z"/><path fill="#F9A21D" d="M77.5 27.5v-8c0-.1.2 0 .4 0-.3 0-.3.2-.3.5v7c0 .2 0 .4.2.5h-.3z"/><path fill="#F89B00" d="M85.2 27.3v-7.7 7.7z"/><path fill="#F89C03" d="M80 23l.3.5c0 .2-.1.3-.3 0v3.9h-.2v-4.1l.1-.3z"/><path fill="#F9A21D" d="M80 23c-.2.1-.1.3-.1.5v4h-.2v-4.7c.2 0 .2.1.2.2zm0-3c-.2 0-.2-.2-.2-.3l-.2-.2a.6.6 0 0 1 .4 0l.1.4z"/><path fill="#F89E03" d="M80.3 20.3L80 20h.2c.3.1.3.3.1.4z"/><path fill="#F89D01" d="M82.2 23.3v-.4c.1.2.1.3 0 .4z"/><path fill="#F89E03" d="M81.7 22.5v-.2-.1c.2 0 .1.2 0 .3z"/><path fill="#F89C02" d="M82.1 26.4v.2h-.2c0-.2.1-.2.2-.2z"/><path fill="#F89C01" d="M80.2 20h-.1v-.5l.1.4z"/><path fill="#F89D01" d="M80.4 23.8l.1.2s0 .1-.1 0c-.1 0 0-.1 0-.2z"/><path fill="#F89D02" d="M81 24.5v.5c-.2-.3-.3-.4 0-.5zm.2.5l-.1.2V25c0-.1 0 0 .1 0z"/><path fill="#F89E02" d="M81.3 21.8v-.4.4z"/><path fill="#F89D02" d="M82.3 26.6v.4c-.2-.2 0-.3 0-.4z"/><path fill="#F89C00" d="M81.4 22.1l.1-.2c.1.1 0 .2 0 .2z"/><path fill="#F89B01" d="M81.5 25.9v-.1s0-.1 0 0h.1z"/><path fill="#FDD04B" d="M98.3 27.3c0 .2-.1.2-.3.2-.6.2-1.3.2-2 0-.2 0-.3-.1-.3-.3V25c0-.4 0-.6-.5-.5h-2c-.2.1-.1.3-.1.4v2l-.1.4c-.7.2-1.5.1-2.2 0h-.1V20v-.5l.1-.2a9.4 9.4 0 0 1 2 0l.2.1c.2.4 0 .9 0 1.3v1.4c0 .2.1.4.4.4h2.2l.2-.1v-2.6c0-.2 0-.4.3-.5a8.8 8.8 0 0 1 2 0s.2 0 .2.2v7.7z"/><path fill="#FDD34F" d="M88.2 15.7H99.5c-.2.3-.4.2-.6.2H88.8c-.4 0-.6 0-.6.5v14c0 .2.2.5 0 .7l-.1-.4V16v-.4z"/><path fill="#FDD24E" d="M100.9 16.9V30c-.3 0-.2-.2-.2-.4V17.3c0-.2 0-.4.2-.4z"/><path fill="#FDCC3A" d="M90.7 19.6v7.7c-.4.1-.2-.2-.2-.3V19.8s0-.3.2-.2z"/><path fill="#FDCC37" d="M95.8 22.5c0 .2 0 .2-.2.2h-2.3c-.3 0-.3-.2-.3-.4v-2.8c.2.1.2.4.2.5v2c0 .4.1.5.5.5h2z"/><path fill="#FDCC48" d="M99.5 15.8H88.8l-.6-.1h11.5-.2z"/><path fill="#FDCD43" d="M98.3 27.3v-7.7c.2.1.1.3.1.4v7.3z"/><path fill="#FDCB32" d="M93 27.4v-2.7c0-.1 0-.3.2-.1v2.3c0 .2 0 .4-.2.5z"/><path fill="#FDCC38" d="M96 27.5h2l-.2.2h-1.5c-.1 0-.2 0-.3-.2z"/><path fill="#FDCE37" d="M92.9 19.4h-2a4.6 4.6 0 0 1 2 0zm5.1 0h-2a4.1 4.1 0 0 1 2 0z"/><path fill="#FDCC48" d="M88.2 15.7V31c-.2-.2-.1-.4-.1-.6V15.7z"/><path fill="#85001A" d="M48.5 16.7c.3 0 .2.2.2.4v12.8c0 .1 0 .3-.2.4v-13-.6z"/><path fill="#88011A" d="M49.2 16h.2v.1L49 16h.1z"/><path fill="#C3888C" d="M70 56.1l.5-.7h.1v.3c-.4.9-.1 1.7-.2 2.6 0 .2.1.2.3.2h10.1c1.2 0 1.4.1 1.4 1.3v3.5c0 .5 0 .5.5.5h4.9c.4 0 .5 0 .5-.5v-3.6c0-1 .2-1.2 1.2-1.2 1.2 0 1.2.3 1.2-1.2v-3c0-.4-.1-.5-.7-.5h-1c-.5 0-.7-.2-.7-.8V38.7c0-.6 0-.6-.6-.6h-5.8c-.4 0-.7 0-.9.5 0 .1-.2.3-.4.3-.3 0 0-.2 0-.3l.1-.4h.2V38l.5-.2H88c.4 0 .5.1.5.5v15c.3.2.7.1 1 .1l1 .1h.2c.2.1.2.3.2.5v4.4c0 .4-.2.6-.5.6h-1.7c-.2 0-.2 0-.2.2V64c0 .2-.2.3-.5.3h-5.8l-.3-.1V59.5v-.3c0-.4-.3-.2-.5-.2H70.7c-.2 0-.5 0-.6-.3-.3-.5-.1-1-.1-1.5v-1z"/><path fill="#AC565D" d="M67.5 64l-6.2.1c-.5 0-.4-.3-.4-.6v-20c-.3-.2-.7-.1-1-.1l-.9-.1c-.3 0-.5-.1-.5-.5V38l.1-.2c.2-.2.4-.2.6-.2h7.6c.2 0 .4 0 .5.2-.2.3-.5.3-.8.3h-6.9c-.7 0-.7 0-.7.7V42c0 .7 0 .8.7.8h1c.4 0 .6.2.6.7v19.7c0 .5 0 .5.6.5h4.7c.7 0 .7 0 .7-.7V38.3v-.4h.3c.2 0 .2.3.2.5v25c0 .3 0 .5-.2.7z"/><path fill="#89001A" d="M56.8 32.7h35.8H56.8z"/><path fill="#8E0000" d="M67.6 37.8l.1.1.1.6v25l-.1.5h-.1c-.1 0 0-.3 0-.4V38.3v-.5z"/><path fill="#931F21" d="M67.6 37.8v26.3h-.1V37.8z"/><path fill="#8D101B" d="M67.7 64V37.9h.1V64h-.1z"/><path fill="#8A0615" d="M67.8 64V37.9c.2.1 0 .3 0 .5v25c0 .3.2.4 0 .6z"/><path fill="#860202" d="M59 43.3h1.5c.1 0 .3-.1.4.2-.2.1-.1.3-.1.5v20c-.2-.2-.1-.4-.1-.5V44c0-.5-.1-.7-.6-.7h-1.5l.4-.1z"/><path fill="#850000" d="M90.5 53.5h-1.7c-.1 0-.3 0-.3-.2.2-.1.1-.4.1-.6V38h.1v14.8c0 .5.1.7.6.6h1.4c0 .2-.2.1-.2.2z"/><path fill="#810202" d="M67.5 37.8H58.6c0-.3.2-.3.4-.3h8c.3 0 .5 0 .5.3z"/><path fill="#7E0E17" d="M51.2 58.3c-.5-.8-.7-1.7-1-2.6a36.6 36.6 0 0 1-.9-4.8v-3-1c.1-.1.3-.4 0-.5l.1-.6h.2a24 24 0 0 0-.2 4 38.6 38.6 0 0 0 1.1 6.4l.6 1.6v.5z"/><path fill="#8A0615" d="M81.7 59.3v4.1l-.2.6v-4c0-.7 0-.7-.6-.7H70.7l-.5-.1c0-.1.2 0 .2 0H81.8z"/><path fill="#810102" d="M80.8 37.6h7.6-7.6z"/><path fill="#D7AEB1" d="M74.9 48l.3-.5.2-.3c-.1-.2 0-.3.1-.4l.4-.5.4-.7c0-.2.2-.3.3-.5l.7-1.1h.1c.1.2 0 .3-.1.5l-3.5 5.9c0 .1-.1.3-.4.3l.1-.4.2-.4c0-.2.1-.2.2-.3a.4.4 0 0 1 0-.2l.2-.2a.2.2 0 0 1 .1-.1l.3-.4v-.1l.4-.6z"/><path fill="#860000" d="M81.7 59.1H70.2h11.6z"/><path fill="#942226" d="M88.7 59h1.6c.3 0 .5-.3.5-.7V54l-.1-.5c.2 0 .2.2.2.4v4.7c0 .2 0 .4-.2.4-.7 0-1.3.2-2 0zM82 64a624.3 624.3 0 0 1 6.4.2H82V64z"/><path fill="#8E0000" d="M82 64.2h6.3c0 .1-.2 0-.4 0h-5.6c-.1 0-.3.1-.4 0zm-20.8 0h6.2-6.2z"/><path fill="#8A0615" d="M67.3 64.5h-6.1 6zm14.9-.1h6-6z"/><path fill="#8C0000" d="M70 56.1v2.5c-.1.4-.1 0-.1 0V56s0-.2.1-.1v.2z"/><path fill="#9C2F34" d="M80.4 38.6v.4c-.5 1-1 1.9-1.6 2.7h-.2v-.4l.3-.3.1-.1.1-.3c.3-.1.3-.3.3-.5 0-.1 0-.3.3-.4 0 0 0-.2.2-.3l.1-.4c.3 0 .2-.4.4-.4z"/><path fill="#8E0000" d="M81.7 59.1h.1v5-4.9z"/><path fill="#942226" d="M81.8 64.1v-5h.1v5z"/><path fill="#962025" d="M73.5 50.3c0 .1-.1.2 0 .4l-.1.2-1.1 1.9c-.1.1-.2.3-.4.2v-.3l.3-.4.2-.4c.3 0 .2-.3.2-.4l.2-.3h.1c.1-.2 0-.3.2-.4l.1-.1.1-.4h.2z"/><path fill="#CB989C" d="M70.6 55.6v-.2c-.1 0 0-.1 0-.2l.2-.2.4-.8c0-.2 0-.4.3-.4l.1-.3h.2l-.1.5-.8 1.3c0 .1-.1.3-.3.3z"/><path fill="#740D16" d="M100 45.4l.2 1.1c-.2 0-.1.2-.2.2-.2-.1 0-.3-.1-.5a1.4 1.4 0 0 1 0-.8h.1z"/><path fill="#93171E" d="M77.4 44h-.1c0-.5.2-.9.6-1.1 0 .4-.1.8-.5 1z"/><path fill="#6B0015" d="M49 47.9a3 3 0 0 1 0 1.7v-.3V48z"/><path fill="#8B040A" d="M71.5 53.8c-.2 0-.2.3-.3.4-.2 0-.2-.2-.1-.3l.3-.4v.3z"/><path fill="#901215" d="M71.7 53.5c-.2-.2 0-.3 0-.4 0-.1 0-.3.2-.4v.4c.1.2 0 .3-.2.4z"/><path fill="#7E0E17" d="M49 48.2v1.2-1.2z"/><path fill="#9D2E33" d="M78 42.9v-.4c.1-.1 0-.3.2-.3h.2c0 .3-.1.6-.4.7z"/><path fill="#720016" d="M100 46.7c0-.1 0-.3.2-.2v.2c0 .1 0 .3-.2.3v-.3z"/><path fill="#840419" d="M50 43.5v.5-.5z"/><path fill="#790317" d="M99.9 45.4v.8c-.2-.3 0-.6-.1-.8h.1z"/><path fill="#740D16" d="M49.6 45.8h-.2c0-.2 0-.3.2-.5v.5z"/><path fill="#820319" d="M99.5 43.6v.4c-.2 0-.2-.2-.2-.3 0-.1.1 0 .2 0z"/><path fill="#9C2F34" d="M78.5 41.8l.1-.1c.2.3 0 .4-.2.5a.3.3 0 0 0 0-.2c-.1 0 0-.2 0-.2z"/><path fill="#8F0F15" d="M75.5 46.8l-.1.4c-.2 0-.2-.1-.2-.2 0-.2.2-.2.3-.2z"/><path fill="#890004" d="M80 39v.3c-.2 0-.2-.2-.1-.3 0-.1.1 0 .1 0z"/><path fill="#7E0E17" d="M49.2 47.1c0 .2.1.5-.2.7.1-.2 0-.5.2-.7z"/><path fill="#8B0004" d="M74 49.5c-.1.1-.1.1-.2 0 0-.1 0-.3.2-.4v.4z"/><path fill="#890003" d="M73.3 50.3v.4c-.2-.2-.3-.4 0-.4z"/><path fill="#8C0C11" d="M74 49l.1-.2c.2 0 0 .2.1.3H74z"/><path fill="#8C0C0F" d="M73.8 49.6h.1l-.2.3v-.3h.1z"/><path fill="#8E0D10" d="M73.1 50.8c0 .1 0 .3-.2.3.1 0-.2-.4.2-.3z"/><path fill="#880007" d="M72.8 51.1c0 .2 0 .3-.2.3 0 0 0-.3.2-.3z"/><path fill="#8E0C12" d="M72.4 52s0 .2-.2.3c.1-.1-.1-.4.2-.4z"/><path fill="#880002" d="M79.7 39.7c-.2.1 0 .4-.3.4 0-.2 0-.4.3-.4z"/><path fill="#890005" d="M78.9 41c0 .1 0 .3-.2.3 0-.2-.1-.4.2-.3z"/><path fill="#790017" d="M49.8 44.5v.6-.6z"/><path fill="#7A0117" d="M99.7 44.3v.6c0-.2-.2-.4 0-.6z"/><path fill="#972127" d="M76.6 45.1c0 .2-.2.4-.3.5 0-.2 0-.4.3-.5z"/><path fill="#931920" d="M75.9 46.3c0 .2-.2.4-.3.5v-.3l.3-.2z"/><path fill="#8F0E16" d="M74.9 48c-.2-.1-.2-.3 0-.4v.4z"/><path fill="#8B070D" d="M74.5 48.6c-.2 0-.2 0-.2-.2.2 0 .2.1.2.2z"/><path fill="#8A0608" d="M80.6 38.2l-.2.3a.2.2 0 0 1 0-.3h.2z"/><path fill="#8E0E14" d="M79.8 39.4c0 .1 0 .2-.2.3.1-.1-.1-.4.2-.3z"/><path fill="#8F0F16" d="M70.8 55l-.2-.2.1-.1v.2zm-.2.2v.2h-.1c-.1 0-.2-.1-.1-.2 0-.1.1 0 .2 0z"/><path fill="#880004" d="M78.2 42.2l-.1.3c0-.2-.3-.3 0-.3z"/><path fill="#890003" d="M75.6 46.5v.3a.3.3 0 0 1 0-.4v.1z"/><path fill="#890000" d="M80.7 38v.1s-.2 0-.1-.2l.1.1z"/><path fill="#880005" d="M78.5 41.8l-.1.3-.1-.3h.2z"/><path fill="#880108" d="M79.2 40.6l-.1.3c-.2-.1-.2-.2-.1-.3h.2z"/><path fill="#8F0F15" d="M75.2 47.4H75v-.1l.2.1z"/><path fill="#8B080D" d="M71.7 53.1v.3c-.2 0-.2-.2-.1-.3h.1z"/><path fill="#790D16" d="M49 49.4v4.5c-.2-.6 0-1.2-.2-1.9v-1.3c.2-.4 0-.7.1-1v-.3z"/><path fill="#780A16" d="M70.3 76.2H70c-.6-.2-1.3-.1-2-.5.7 0 1.3.2 2 .3l.2.1v.1z"/><path fill="#6C0115" d="M100.4 47.9v1.6c0-.5-.4-1 0-1.7z"/><path fill="#770A16" d="M81.1 75.8l-.7.2H80v-.2h1.1z"/><path fill="#6C0015" d="M100.4 53v1.3c-.2-.2-.2-.2 0-1.4z"/><path fill="#6D0015" d="M73.1 76.3h-1.4H73z"/><path fill="#6F0416" d="M100.2 55.6v.2l-.2-.1V55c.3.2.1.4.2.6z"/><path fill="#6D0015" d="M77.8 76.3h-1.5 1.5z"/><path fill="#6C0015" d="M49 54v-1.2c.2.6 0 1 .1 1.6V54z"/><path fill="#6B0015" d="M78.5 76.2a.8.8 0 0 1 .7 0h-.7zm-8.2 0L70 76h.7-.5z"/><path fill="#790D16" d="M49 54.4h.1c.2.2.1.5.1.7a1.5 1.5 0 0 1-.2-.7zm.4 1.8a.5.5 0 0 1-.2-.4c.2 0 .2.2.2.4z"/><path fill="#7E0E17" d="M49 49.7c-.1.3 0 .6-.2 1l.1-1z"/><path fill="#FEFDFD" d="M57.6 26l.4.6.2.2.2.3c.1.2 0 .4-.2.4h-2.1c-.4 0-.4-.4-.6-.7L54.4 25c-.3-.2-.3-.6-.7-.6-.2.1-.2.3-.2.5v2c0 .5-.1.7-.7.7H52c-.5 0-.6-.2-.6-.7v-6.7c0-.6 0-.7.7-.7h1c.3 0 .5.2.5.5v1.8c0 .2 0 .5.2.5.2.1.3-.1.5-.3l.2-.2c0-.1 0-.4.3-.5l.3-.7c.1-.1.3-.2.3-.4.2-.6.6-.8 1.2-.7H58c.3 0 .3.2.2.4-.4.4-.6.9-1 1.2a.5.5 0 0 0 0 .1l-.3.4-.1.2h-.2l-.5.7v.1c-.3 0-.3.2-.4.4 0 .3.3.4.2.6l.2.2.5.8.5.7.5.7z"/><path fill="#9C333C" d="M54.2 22c0 .2-.2.3-.3.4 0 .2-.2.2-.3.2-.2 0-.2-.2-.2-.4V20c0-.4-.1-.5-.5-.5h-1.2c-.2 0-.3.1-.3.4V27c0 .3.1.4.4.3h1.1c.4 0 .5 0 .5-.4v-2.3c0-.4 0-.6.5-.4l-.1.2a.8.8 0 0 0-.1.2v2.2l-.1.5-.1.1a4.7 4.7 0 0 1-2.2 0c-.2-.2-.2-.5-.2-.7v-6.6c0-.3 0-.5.2-.7a5.2 5.2 0 0 1 2.3 0c.1.3 0 .6 0 .8v1.8c0 .2.2 0 .3 0h.3z"/><path fill="#87001A" d="M61.2 31.1V16.5l-.1-.6h.2V31h-.1z"/><path fill="#81001A" d="M61.3 15.9H50.2l-.6-.1h11.7z"/><path fill="#910714" d="M61.2 31.1l-.3.1H50.2l-.2-.1h11.2z"/><path fill="#90111D" d="M51.2 27.4h-.1V20v-.4h.1v7.8z"/><path fill="#950008" d="M51.2 27.4v-7.9 8z"/><path fill="#890013" d="M51.1 19.6v7.7c-.2 0-.1-.3-.1-.4V20l.1-.5z"/><path fill="#931D23" d="M55.5 26.9c.3.5.8.6 1.4.6h1c.6 0 .6 0 .3-.6H58.5c.2.7.2.7-.5.7h-1.7c-.5 0-.7-.3-.8-.7z"/><path fill="#BA757A" d="M58.1 19.5h-1.7c-.4 0-.7.2-1 .6l-.3.6h-.2c0-.1 0-.2.2-.3l.1-.2.2-.3.1-.3a.9.9 0 0 1 .6-.1h2z"/><path fill="#840000" d="M51.3 27.5h2.2c0 .2-.1.2-.3.2h-1.6c-.1 0-.3 0-.3-.2z"/><path fill="#90161A" d="M58.1 19.5c.2 0 .3-.2.2.2 0 .3-.4.6-.5 1l-.2.1v.1l-.3.3H57c.2-.5.7-.9 1-1.3 0-.2.1-.2 0-.4z"/><path fill="#931A21" d="M54.4 25l1.1 1.8h-.2a76.9 76.9 0 0 1-1-1.6V25z"/><path fill="#890506" d="M53.9 22.1c0 .1 0 .3-.2.4l-.1-.2v-2.2-.6c.3.3.1.7.2 1 0 .5-.1 1.1 0 1.6z"/><path fill="#880203" d="M53.7 24.5v-.1c.2 0 .2 0 .2.2-.2.7 0 1.5-.1 2.3l-.1.5v-3z"/><path fill="#8F1718" d="M53.7 24.5v3h-.1v-2.6-.4zm0-5v2.3l-.1.5v-2.8z"/><path fill="#921A1E" d="M57.6 26l-.5-.7c.1-.1.2 0 .2 0 0 .3.5.3.3.7z"/><path fill="#8F1718" d="M53.9 24.6l-.1-.2v-.1c.3.1.4.4.6.7-.3 0-.3-.4-.5-.4z"/><path fill="#8D0810" d="M56.6 21.8h.1c.2-.2.3-.1.2.1-.1 0 0 .3-.2.2v-.3z"/><path fill="#8F1015" d="M54.4 21.6c-.1 0-.2.1-.2 0 0-.2 0-.3.2-.3h.1c.1.2 0 .2-.1.3z"/><path fill="#CE9CA0" d="M55 20.7c0 .2 0 .5-.4.6 0-.2.3-.3.2-.5h.1z"/><path fill="#93161D" d="M56 23.6c-.1-.2-.5-.3-.3-.6l.2.2v.3z"/><path fill="#CE9CA0" d="M54.4 21.6l.2-.3c0 .2 0 .4-.2.5v-.2z"/><path fill="#8B0001" d="M55 20.4v.2c-.2 0-.2-.2 0-.3v.1z"/><path fill="#8A0009" d="M57 21.9c0-.1-.1-.2-.3-.2v-.1c.2 0 .2-.2.4-.1a.5.5 0 0 1-.2.4z"/><path fill="#8F0A0B" d="M56 22.6v-.1c.2 0 .3-.1.4 0v.2c-.2.1-.3-.2-.4-.1z"/><path fill="#890001" d="M54.5 21.3a84 84 0 0 0-.1 0V21c.2 0 .1.2.1.3z"/><path fill="#8A010C" d="M58.5 27l-.2-.2v-.2c.2 0 .2.2.2.3z"/><path fill="#8A0001" d="M57.3 25.3h-.2V25c.2 0 .2.2.2.3z"/><path fill="#8B0003" d="M56.6 24.6l.1-.3h.1c0 .2 0 .2-.2.3z"/><path fill="#8B0004" d="M56 23.5v-.3l.1.2c0 .2 0 .1-.1 0z"/><path fill="#8A0003" d="M55.5 19.6c0 .2 0 .3-.2.3.1 0 0-.3.2-.3z"/><path fill="#880005" d="M55.3 20.1a.1.1 0 0 1 0 .1c-.2 0-.3-.1-.2-.2h.1v.1z"/><path fill="#8A0001" d="M58 26.6l.1-.3c.1.2 0 .2-.1.3z"/><path fill="#890005" d="M57.1 21.2h.1c0 .2.2.3 0 .3s-.1-.2 0-.3z"/><path fill="#8A0307" d="M57.3 21.2c0-.1 0-.2.2-.3 0 .2 0 .3-.2.3z"/><path fill="#8B0508" d="M56.1 23.8s.1-.2.2-.1c0 .2-.1.1-.2.1z"/><path fill="#890007" d="M57.6 20.8c0-.1 0-.2.2-.2v.3h-.2z"/><path fill="#8A090D" d="M54.9 20.7v.1h-.3c.1-.2.2 0 .3 0z"/><path fill="#FEFEFD" d="M79.8 19.7l.1.2 2.7 4.3s.1.2.2.1c.2 0 .1-.1.1-.2v-4.5h1.5c.3 0 .4.1.4.5v6.8c0 .3-.1.4-.5.4-1 .2-1.6-.1-2-1.1-.4-.8-1-1.4-1.5-2.1l-.8-1.3s0-.3-.2-.2c-.2 0-.2.2-.2.3v3.4c0 1 0 1-1 1-.8 0-.8 0-.8-.9v-6.3c0-.4 0-.6.5-.5l1.5.1zM98 23.5V27c0 .3 0 .5-.4.5-1.5 0-1.5 0-1.5-1.5v-1.4c0-.2-.1-.4-.4-.3h-2.5c-.3 0-.3.1-.3.4V27c0 .3 0 .5-.4.4h-1.3c-.3 0-.4 0-.4-.4v-7c0-.4.1-.5.4-.5.6 0 1.2-.2 1.6.1.3.3 0 1 0 1.5v1.4c0 .2.2.3.4.3h2.5c.3 0 .4-.2.4-.4V20c0-.3 0-.5.4-.5 1.5 0 1.5 0 1.5 1.5v2.5z"/><path fill="#FEFEFE" d="M78.4 42.2l.3-.5 1.6-2.8.2-.2c.3-.7.8-.8 1.5-.8h5.6c.5 0 .7 0 .7.6V53c0 .6 0 .6.6.6h1.3c.3 0 .4.1.4.4v4.3c0 .3-.1.4-.4.4h-1.3c-.4 0-.6.2-.6.6v4.3c0 .3-.1.4-.4.4h-5.5c-.4 0-.4-.2-.4-.4v-4.2c0-.7 0-.7-.6-.7H70.6c-.3 0-.4 0-.4-.4a9.1 9.1 0 0 0 0-1.4c0-.5 0-1 .4-1.3l1.1-2 .3-.6 1.4-2.4c.5-.3.7-.9 1-1.4l2.8-4.8.2-.5.6-1 .4-.7zm-11.1-4.4l.1.6v25.1c0 .5-.1.5-.5.5h-5.3c-.4 0-.5 0-.5-.5V43.8c0-.7 0-.7-.7-.7h-1.2c-.4 0-.5-.2-.5-.5v-4.3c0-.3.2-.4.5-.4h8.1z"/><path fill="#8C0E19" d="M74 49l.2.1-.2.3v-.3zM57.1 21.3v.3l-.3.1a1 1 0 0 1 .3-.4z"/><path fill="#E1BFC3" d="M82.3 50v3.1c0 .5-.1.6-.5.6h-3.4l-.5-.1c-.1-.2.1-.4.2-.5l3.8-6.4c0-.1 0-.2.2-.2s.2.1.2.2v3.4z"/><path fill="#8C0E19" d="M79.6 51l.1-.3h.2l.1-.1c.1-.1 0-.2 0-.4l.2-.3c.2 0 .1 0 .1-.1l.1-.1c.2 0 .1-.2 0-.2l.3-.4.2-.1c.1-.1.2-.2 0-.3l.2-.3h.1c.2 0 0-.1 0-.2l.2-.3.4-.6h.2V52.7c0 .7 0 .7-.6.7H79c-.3 0-.5 0-.5-.3V53c0-.2.3-.3.2-.6l.2-.4s.3 0 .2-.2c0-.3.3-.5.4-.8.1 0 0 0 0 0h.1z"/><path fill="#8A0709" d="M78.6 53c0 .2 0 .3.4.3h2.5c.3 0 .4 0 .4-.4v-5.6l.1-.4c.2 0 .2.1.2.2V53.5h-4-.1c0-.3.2-.3.3-.5 0 0 0-.1.2 0z"/><path fill="#880D0E" d="M82.1 53.5v-6-.6-.1 6.7z"/><path fill="#8A030B" d="M80 50.7v.2c-.2 0-.2 0-.3-.2l.1-.2c.1 0 .2 0 .2.2z"/><path fill="#8C070E" d="M79 51.8l.3.1c0 .3-.2.1-.3.1v-.2z"/><path fill="#8C0104" d="M80.3 49.8c.1 0 .2.2 0 .3v-.2-.1z"/><path fill="#8A0004" d="M81 48.7l.1.2c0 .1 0 .2-.2.2v-.4z"/><path fill="#8A0001" d="M79.6 51c.1 0 .2 0 .1.2l-.2-.2z"/><path fill="#901317" d="M78.6 53h-.2c0-.2.1-.3.3-.5v.4h-.1z"/><path fill="#8A070D" d="M80.5 49.5s.3 0 .2.2c-.1.2-.2 0-.3 0v-.2z"/><path fill="#992529" d="M81.4 47.9a.7.7 0 0 1 0 .4h-.2l.2-.4z"/><path fill="#880002" d="M78.7 53v-.5c.3.1 0 .3 0 .4z"/><path fill="#8C0E19" d="M80 50.7l-.2-.2.3-.3v.5z"/><path fill="#992529" d="M82 46.9v.4h-.2c0-.2 0-.3.2-.4z"/><path fill="#941E24" d="M81 48.8v.3h-.3l.2-.3z"/><path fill="#880006" d="M80 50.7v-.5c.4.2.3.3 0 .5z"/><path fill="#870004" d="M81.2 48.4l.1-.1v.3c-.1 0 0-.2 0-.2z"/></g></svg>