<?xml version="1.0" encoding="utf-8"?>
<!-- Generator: Adobe Illustrator 16.0.0, SVG Export Plug-In . SVG Version: 6.00 Build 0)  -->
<!DOCTYPE svg PUBLIC "-//W3C//DTD SVG 1.1//EN" "http://www.w3.org/Graphics/SVG/1.1/DTD/svg11.dtd">
<svg version="1.1" id="Layer_1" xmlns="http://www.w3.org/2000/svg" xmlns:xlink="http://www.w3.org/1999/xlink" x="0px" y="0px"
	 width="150px" height="93.795px" viewBox="0 0 150 93.795" enable-background="new 0 0 150 93.795" xml:space="preserve">
<g>
	<path fill="#2B4A5F" d="M32.544,52.379H23.29V32.067h-1.716v22.026c3.387,0,6.774,0,10.161,0L32.544,52.379z"/>
	<path fill="#2B4A5F" d="M51.491,48.093c-0.117-0.08-0.235-0.154-0.352-0.223c-0.113-0.064-0.25-0.137-0.411-0.215
		c-0.325-0.156-0.685-0.3-1.073-0.427l2.988,6.865h1.715l-2.501-5.747L51.491,48.093z"/>
	<path fill="#2B4A5F" d="M37.678,48.362c0.297-0.567,0.985-1.078,1.907-1.525c1.46-0.707,3.499-1.144,5.769-1.144
		c2.009,0,4.833,0.393,6.653,1.654L53.072,46c-0.357-0.257-0.76-0.495-1.203-0.709c-0.489-0.236-1.031-0.447-1.615-0.626
		l-5.484-12.598h-1.715l-9.588,22.026h1.715L37.678,48.362z M43.913,34.038l4.431,10.179c-0.94-0.159-1.946-0.245-2.99-0.245
		c-2.418,0-4.633,0.462-6.295,1.215L43.913,34.038z"/>
	<path fill="#2B4A5F" d="M87.982,48.093c-0.117-0.08-0.235-0.154-0.353-0.223c-0.112-0.064-0.25-0.137-0.411-0.215
		c-0.325-0.156-0.685-0.3-1.073-0.427l2.989,6.865h1.715l-2.501-5.747L87.982,48.093z"/>
	<path fill="#2B4A5F" d="M74.169,48.362c0.296-0.567,0.984-1.078,1.906-1.525c1.461-0.707,3.499-1.144,5.77-1.144
		c2.01,0,4.833,0.393,6.654,1.654L89.563,46c-0.356-0.257-0.76-0.495-1.202-0.709c-0.489-0.236-1.031-0.447-1.615-0.626
		l-5.483-12.598h-1.715l-9.589,22.026h1.716L74.169,48.362z M80.404,34.038l4.431,10.179c-0.94-0.159-1.946-0.245-2.99-0.245
		c-2.418,0-4.633,0.462-6.294,1.215L80.404,34.038z"/>
	<path fill="#2B4A5F" d="M120.694,45.693c2.01,0,4.833,0.393,6.654,1.654L128.412,46c-0.356-0.257-0.76-0.495-1.203-0.709
		c-0.488-0.236-1.03-0.447-1.613-0.626l-5.484-12.598h-1.715l-9.589,22.026h1.716l2.495-5.731c0.297-0.567,0.984-1.078,1.906-1.525
		C116.385,46.13,118.424,45.693,120.694,45.693z M119.254,34.038l4.431,10.179c-0.939-0.159-1.946-0.245-2.99-0.245
		c-2.418,0-4.633,0.462-6.294,1.215L119.254,34.038z"/>
	<path fill="#2B4A5F" d="M126.832,48.093c-0.117-0.08-0.235-0.154-0.353-0.223c-0.112-0.064-0.25-0.137-0.411-0.215
		c-0.325-0.156-0.685-0.3-1.073-0.427l2.989,6.865h1.716l-2.503-5.747L126.832,48.093z"/>
	<polygon fill="#2B4A5F" points="67.607,33.783 55.825,53.118 56.229,54.094 68.228,54.094 69.038,52.379 58.007,52.379 
		69.728,33.783 69.728,32.067 55.733,32.067 56.543,33.783 	"/>
	<path fill="#2B4A5F" d="M104.177,53.301c2.093-0.751,3.729-2.045,4.906-3.896c1.134-1.779,1.723-3.885,1.764-6.325
		c-0.041-2.439-0.63-4.546-1.764-6.325c-1.177-1.851-2.813-3.145-4.906-3.896c-1.456-0.527-3.799-0.793-7.022-0.793H92.68v11.013
		v11.014h4.475C100.378,54.095,102.721,53.828,104.177,53.301z M94.368,52.478V33.707h2.628c3.14,0,5.313,0.207,6.528,0.618
		c1.707,0.59,3.058,1.642,4.034,3.167c0.979,1.53,1.669,3.396,1.669,5.6s-0.69,4.07-1.669,5.6c-0.977,1.526-2.327,2.578-4.034,3.168
		c-1.216,0.412-3.389,0.617-6.528,0.617H94.368z"/>
	<rect x="20.149" y="58.311" fill="#EA6E1A" width="90.697" height="7.417"/>
	<path fill="#EA6E1A" d="M114.467,63.698c-0.508,0-0.87,0.377-0.87,0.913c0,0.522,0.348,0.914,0.855,0.914
		c0.536,0,0.87-0.392,0.87-0.914C115.322,64.075,114.975,63.698,114.467,63.698z"/>
	<path fill="#EA6E1A" d="M119.976,62.292c-0.232,0.639-0.435,1.218-0.594,1.798h-0.044c-0.146-0.58-0.333-1.159-0.565-1.798
		l-1.377-3.941h-1.363l2.668,7.015h1.218l2.754-7.015h-1.334L119.976,62.292z"/>
	<path fill="#EA6E1A" d="M127.371,58.19c-1.159,0-1.971,0.652-2.318,1.319h-0.029l-0.072-1.159h-1.131
		c0.044,0.579,0.058,1.173,0.058,1.898v5.116h1.275v-4.218c0-0.218,0.029-0.435,0.087-0.594c0.218-0.711,0.87-1.305,1.711-1.305
		c1.203,0,1.623,0.941,1.623,2.072v4.044h1.276v-4.188C129.851,58.771,128.343,58.19,127.371,58.19z"/>
</g>
</svg>
