<?xml version="1.0" encoding="utf-8"?>
<!-- Generator: Adobe Illustrator 16.0.0, SVG Export Plug-In . SVG Version: 6.00 Build 0)  -->
<!DOCTYPE svg PUBLIC "-//W3C//DTD SVG 1.1//EN" "http://www.w3.org/Graphics/SVG/1.1/DTD/svg11.dtd">
<svg version="1.1" id="Layer_1" xmlns="http://www.w3.org/2000/svg" xmlns:xlink="http://www.w3.org/1999/xlink" x="0px" y="0px"
	 width="150px" height="93.795px" viewBox="0 0 150 93.795" enable-background="new 0 0 150 93.795" xml:space="preserve">
<g>
	<path fill="#F25022" d="M18.566,34.846h11.466c-0.001,3.822,0,7.644-0.001,11.466c-3.821,0-7.644,0-11.465,0V34.846L18.566,34.846z
		"/>
	<path fill="#FEFEFE" d="M30.032,34.846h1.171c0,3.822-0.001,7.644,0,11.466c3.821,0,7.644-0.001,11.465,0
		c0.001-3.822,0-7.644,0-11.466h88.766v8.917c-0.819,0.002-1.637-0.007-2.453,0.005c-0.02-1.036-0.003-2.07-0.011-3.104
		c-0.817,0.247-1.631,0.508-2.453,0.742c-0.02,0.785,0,1.571-0.009,2.356c-1.21-0.001-2.42,0.001-3.63-0.001
		c0.017-0.619-0.042-1.242,0.047-1.856c0.075-0.485,0.354-0.969,0.828-1.158c0.595-0.244,1.26-0.082,1.827,0.167
		c-0.003-0.708,0.006-1.417-0.005-2.125c-1.191-0.328-2.557-0.263-3.614,0.424c-0.681,0.438-1.177,1.135-1.398,1.909
		c-0.263,0.858-0.13,1.764-0.171,2.643c-0.573-0.004-1.146-0.009-1.72,0.004c0.007,0.662,0.004,1.325,0.003,1.987
		c0.574,0.011,1.148-0.003,1.725,0.008c-0.005,2.789-0.001,5.576-0.001,8.363c0.826,0,1.654,0,2.479,0c0-2.789,0-5.576,0-8.365
		c1.21-0.002,2.42-0.002,3.63,0c0.003,1.777-0.003,3.554,0.003,5.33c0.011,0.828,0.152,1.713,0.7,2.365
		c0.474,0.58,1.227,0.844,1.955,0.898c0.767,0.053,1.559-0.041,2.268-0.348v4.939H42.668c0-3.822,0-7.643,0-11.467
		c-3.821,0-7.644,0-11.465,0.002c-0.001,3.822,0,7.643,0,11.465h-1.171c0-3.822,0.001-7.643,0-11.465
		c-3.822-0.002-7.645,0-11.466-0.002v-1.169c3.821,0,7.644,0,11.465,0C30.032,42.49,30.031,38.668,30.032,34.846L30.032,34.846z"/>
	<path fill="#80BA01" d="M31.203,34.846h11.465c0,3.822,0.001,7.644,0,11.466c-3.821-0.001-7.644,0-11.465,0
		C31.202,42.49,31.203,38.668,31.203,34.846L31.203,34.846z"/>
	<path fill="#777777" d="M121.961,39.214c1.058-0.687,2.423-0.752,3.614-0.424c0.011,0.708,0.002,1.417,0.005,2.125
		c-0.567-0.249-1.232-0.411-1.827-0.167c-0.474,0.188-0.753,0.673-0.828,1.158c-0.089,0.615-0.03,1.237-0.047,1.856
		c1.21,0.003,2.42,0,3.63,0.001c0.009-0.785-0.011-1.571,0.009-2.356c0.822-0.234,1.636-0.496,2.453-0.742
		c0.008,1.034-0.009,2.068,0.011,3.104c0.816-0.012,1.634-0.003,2.453-0.005v2.013c-0.822-0.033-1.642-0.009-2.464-0.012
		c0.003,1.158,0,2.316,0.003,3.474c0.011,0.641-0.036,1.285,0.038,1.924c0.047,0.377,0.183,0.793,0.537,0.988
		c0.59,0.332,1.341,0.188,1.886-0.176v2.033c-0.709,0.307-1.501,0.4-2.268,0.348c-0.729-0.055-1.481-0.318-1.955-0.898
		c-0.548-0.652-0.689-1.537-0.7-2.365c-0.006-1.775,0-3.553-0.003-5.33c-1.21-0.002-2.42-0.002-3.63,0c0,2.789,0,5.576,0,8.365
		c-0.825,0-1.653,0-2.479,0c0-2.787-0.004-5.574,0.001-8.363c-0.576-0.011-1.15,0.003-1.725-0.008
		c0.001-0.662,0.004-1.325-0.003-1.987c0.573-0.014,1.146-0.008,1.72-0.004c0.041-0.879-0.092-1.784,0.171-2.643
		C120.784,40.35,121.28,39.652,121.961,39.214L121.961,39.214z"/>
	<path fill="#777777" d="M68.868,39.359c0.501-0.076,1.042,0.096,1.373,0.486c0.389,0.429,0.46,1.11,0.173,1.611
		c-0.318,0.563-1.031,0.827-1.651,0.691c-0.644-0.116-1.181-0.714-1.151-1.382C67.593,40.064,68.18,39.438,68.868,39.359
		L68.868,39.359z"/>
	<path fill="#777777" d="M49.865,39.667c1.202,0,2.403,0,3.606,0c1.122,2.851,2.253,5.697,3.376,8.547
		c0.288,0.713,0.557,1.436,0.857,2.141c1.444-3.56,2.908-7.113,4.342-10.679c1.156-0.02,2.313-0.004,3.47-0.007
		c-0.003,4.819-0.001,9.639,0,14.459c-0.835-0.004-1.67,0.006-2.504-0.006c0.01-3.557,0-7.114,0.005-10.671
		c0.001-0.159-0.005-0.318-0.015-0.479c-0.05,0.075-0.093,0.152-0.131,0.231c-1.434,3.642-2.894,7.271-4.318,10.917
		c-0.594,0.02-1.188,0-1.782,0.01c-1.479-3.641-2.938-7.291-4.409-10.934c-0.039-0.075-0.079-0.148-0.125-0.22
		c-0.03,1.559-0.005,3.12-0.013,4.678c0.001,2.158-0.001,4.316,0.001,6.475c-0.787,0.002-1.574,0-2.36,0
		C49.864,49.308,49.863,44.488,49.865,39.667L49.865,39.667z"/>
	<path fill="#777777" d="M75.693,43.754c1.196-0.341,2.487-0.327,3.684,0.011c0.246,0.069,0.484,0.164,0.707,0.295
		c-0.014,0.789,0,1.579-0.008,2.37c-0.8-0.61-1.814-0.998-2.83-0.869c-0.808,0.073-1.577,0.491-2.06,1.144
		c-0.621,0.808-0.764,1.882-0.657,2.871c0.08,0.773,0.4,1.549,1.002,2.061c0.625,0.555,1.502,0.754,2.32,0.691
		c0.808-0.094,1.571-0.436,2.225-0.914c0.007,0.748-0.003,1.498,0.006,2.246c-1.015,0.604-2.229,0.76-3.39,0.701
		c-1.188-0.063-2.371-0.512-3.23-1.348c-0.934-0.9-1.44-2.184-1.5-3.467c-0.062-1.338,0.211-2.732,0.98-3.848
		C73.587,44.746,74.595,44.071,75.693,43.754L75.693,43.754z"/>
	<path fill="#777777" d="M92.493,43.575c1.19-0.151,2.445-0.084,3.55,0.418c0.959,0.433,1.736,1.231,2.166,2.189
		c0.459,1.02,0.57,2.164,0.493,3.269c-0.076,1.078-0.415,2.16-1.09,3.018c-0.691,0.91-1.732,1.527-2.847,1.756
		c-0.953,0.199-1.951,0.199-2.903-0.002c-1.141-0.244-2.196-0.906-2.865-1.867c-0.785-1.117-1.008-2.535-0.908-3.871
		c0.068-1.134,0.42-2.278,1.145-3.168C90.027,44.322,91.243,43.733,92.493,43.575L92.493,43.575z"/>
	<path fill="#777777" d="M102.781,43.596c1.146-0.202,2.345-0.054,3.431,0.357c0.003,0.76,0,1.52,0.001,2.28
		c-0.757-0.522-1.685-0.802-2.604-0.771c-0.462,0.019-0.973,0.215-1.185,0.655c-0.168,0.436-0.052,1.008,0.359,1.268
		c0.704,0.47,1.543,0.671,2.271,1.093c0.573,0.32,1.13,0.742,1.421,1.35c0.546,1.139,0.315,2.641-0.646,3.49
		c-0.916,0.857-2.237,1.094-3.45,1.047c-0.862-0.055-1.729-0.225-2.521-0.578c0.004-0.801-0.005-1.598,0.004-2.396
		c0.667,0.484,1.436,0.83,2.249,0.971c0.568,0.094,1.185,0.098,1.712-0.158c0.507-0.25,0.598-0.969,0.296-1.408
		c-0.279-0.338-0.692-0.525-1.083-0.709c-0.729-0.328-1.497-0.604-2.14-1.094c-0.45-0.354-0.792-0.85-0.926-1.408
		c-0.198-0.824-0.136-1.753,0.344-2.473C100.86,44.272,101.812,43.769,102.781,43.596L102.781,43.596z"/>
	<path fill="#777777" d="M112.259,43.572c1.236-0.153,2.551-0.07,3.68,0.5c0.986,0.492,1.749,1.382,2.13,2.411
		c0.299,0.787,0.404,1.635,0.386,2.475c0.002,1.252-0.336,2.537-1.122,3.529c-0.734,0.963-1.861,1.586-3.049,1.783
		c-1.16,0.188-2.389,0.139-3.492-0.297c-1.118-0.439-2.049-1.338-2.52-2.443c-0.49-1.127-0.543-2.395-0.389-3.6
		c0.159-1.205,0.704-2.382,1.635-3.183C110.279,44.08,111.26,43.7,112.259,43.572L112.259,43.572z"/>
	<path fill="#777777" d="M85.629,43.922c0.685-0.411,1.554-0.445,2.301-0.195c-0.004,0.828,0,1.655-0.002,2.482
		c-0.489-0.316-1.099-0.452-1.676-0.395c-0.704,0.081-1.262,0.62-1.551,1.241c-0.314,0.656-0.373,1.398-0.354,2.115
		c0,1.654,0,3.305,0,4.957c-0.815,0-1.63,0-2.444,0c-0.002-3.453,0.003-6.906-0.002-10.359c0.815-0.011,1.632-0.007,2.447-0.003
		c-0.003,0.594,0,1.187-0.002,1.78C84.612,44.902,85.007,44.275,85.629,43.922L85.629,43.922z"/>
	<path fill="#777777" d="M67.837,43.766c0.822-0.002,1.646-0.011,2.467,0.004c-0.009,3.453-0.001,6.906-0.004,10.357
		c-0.82,0-1.642,0-2.462,0C67.836,50.675,67.839,47.22,67.837,43.766L67.837,43.766z"/>
	<path fill="#FEFEFE" d="M93.232,45.544c0.746-0.051,1.539,0.16,2.075,0.703c0.572,0.563,0.795,1.38,0.855,2.16
		c0.044,0.854,0.009,1.742-0.349,2.533c-0.237,0.533-0.671,0.982-1.219,1.197c-0.64,0.246-1.36,0.26-2.021,0.088
		c-0.673-0.178-1.243-0.664-1.554-1.281c-0.399-0.799-0.459-1.721-0.377-2.594c0.075-0.797,0.353-1.615,0.958-2.163
		C92.041,45.777,92.641,45.576,93.232,45.544L93.232,45.544z"/>
	<path fill="#FEFEFE" d="M112.928,45.545c0.699-0.049,1.448,0.113,1.986,0.586c0.496,0.412,0.771,1.028,0.897,1.649
		c0.142,0.729,0.142,1.484,0.021,2.217c-0.096,0.545-0.283,1.09-0.641,1.521c-0.36,0.434-0.897,0.697-1.449,0.779
		c-0.595,0.088-1.219,0.045-1.774-0.193c-0.599-0.254-1.063-0.771-1.307-1.369c-0.295-0.709-0.354-1.498-0.295-2.258
		c0.057-0.736,0.265-1.491,0.752-2.064C111.562,45.879,112.242,45.584,112.928,45.545L112.928,45.545z"/>
	<path fill="#FEFEFE" d="M128.97,45.765c0.822,0.003,1.642-0.021,2.464,0.012v6.199c-0.545,0.363-1.296,0.508-1.886,0.176
		c-0.354-0.195-0.49-0.611-0.537-0.988c-0.074-0.639-0.027-1.283-0.038-1.924C128.97,48.081,128.973,46.923,128.97,45.765
		L128.97,45.765z"/>
	<path fill="#02A4EF" d="M18.566,47.481c3.821,0.002,7.644,0,11.466,0.002c0.001,3.822,0,7.643,0,11.465H18.566V47.481
		L18.566,47.481z"/>
	<path fill="#FFB902" d="M31.203,47.483c3.821-0.002,7.644-0.002,11.465-0.002c0,3.824,0,7.645,0,11.467H31.203
		C31.203,55.126,31.202,51.306,31.203,47.483L31.203,47.483z"/>
</g>
</svg>
