<?xml version="1.0" encoding="utf-8"?>
<!-- Generator: Adobe Illustrator 16.0.0, SVG Export Plug-In . SVG Version: 6.00 Build 0)  -->
<!DOCTYPE svg PUBLIC "-//W3C//DTD SVG 1.1//EN" "http://www.w3.org/Graphics/SVG/1.1/DTD/svg11.dtd">
<svg version="1.1" id="Layer_1" xmlns="http://www.w3.org/2000/svg" xmlns:xlink="http://www.w3.org/1999/xlink" x="0px" y="0px"
	 width="150px" height="93.795px" viewBox="0 0 150 93.795" enable-background="new 0 0 150 93.795" xml:space="preserve">
<rect fill="#F68A23" width="150" height="93.795"/>
<g>
	<path fill="#FFFFFF" d="M43.919,41.994c-3.117,5.778-6.088,11.29-9.143,16.952c-2.976-5.662-5.873-11.176-8.893-16.925
		c-0.337,2.194-0.633,4.144-0.932,6.091c-0.508,3.3-1.046,6.595-1.499,9.902c-0.112,0.813-0.417,1.004-1.18,0.975
		c-1.334-0.059-1.317-0.01-1.118-1.324c0.94-6.219,1.867-12.438,2.802-18.654c0.194-1.293,0.393-2.586,0.633-4.161
		c3.456,6.504,6.801,12.795,10.23,19.247c3.516-6.424,6.956-12.707,10.519-19.213c0.354,2.619,0.686,4.97,0.991,7.324
		c0.683,5.258,1.339,10.521,2.043,15.777c0.099,0.746,0.017,1.049-0.836,1.009c-1.379-0.067-1.372-0.015-1.557-1.423
		C45.31,52.481,44.632,47.391,43.919,41.994z"/>
	<path fill="#FFFFFF" d="M122.934,47.882c0,3.309-0.035,6.622,0.023,9.928c0.018,0.948-0.234,1.207-1.186,1.198
		c-0.908-0.011-1.135-0.259-1.129-1.151c0.041-6.654,0.002-13.307,0.045-19.959c0.006-0.898-0.261-1.111-1.104-1.068
		c-1.374,0.07-2.756-0.028-4.13,0.036c-0.824,0.039-0.728-0.455-0.692-0.938c0.032-0.454-0.277-1.09,0.654-1.084
		c4.291,0.025,8.588,0.023,12.877,0.001c0.859-0.004,0.617,0.575,0.622,1.013c0.006,0.444,0.218,1.024-0.634,1.001
		c-1.473-0.037-2.949,0.028-4.424-0.026c-0.729-0.028-0.949,0.175-0.941,0.924C122.957,41.13,122.934,44.506,122.934,47.882z"/>
	<g>
		<path fill="#FFFFFF" d="M68.299,34.415c-7.055,0.005-12.689,5.499-12.697,12.386c-0.008,7.154,5.45,12.585,12.642,12.58
			c7.142-0.003,12.719-5.461,12.723-12.443C80.971,39.959,75.354,34.409,68.299,34.415z M68.201,57.403
			c-5.757-0.008-10.381-4.766-10.331-10.627c0.05-5.897,4.642-10.411,10.549-10.373c5.824,0.038,10.267,4.61,10.242,10.545
			C78.637,52.87,74.092,57.411,68.201,57.403z"/>
		<path fill="#FFFFFF" d="M109.798,58.017c-1.124-2.4-2.19-4.824-3.28-7.238c-2.437-5.39-4.871-10.779-7.385-16.341
			c-0.176,0.339-0.265,0.503-0.345,0.673c-2.067,4.41-4.138,8.821-6.204,13.233c-1.525,3.258-3.048,6.518-4.566,9.779
			c-0.115,0.248-0.414,0.512-0.177,0.789c0.306,0.361,2.196-0.063,2.415-0.521c1.141-2.391,2.285-4.779,3.396-7.183
			c0.231-0.507,0.494-0.744,1.091-0.735c2.815,0.032,5.632,0.026,8.446,0.002c0.528-0.002,0.81,0.143,1.029,0.657
			c0.948,2.19,2.012,4.332,2.906,6.541c0.426,1.048,1,1.386,2.109,1.333C110.186,58.962,110.129,58.726,109.798,58.017z
			 M94.916,48.399c1.371-3.051,2.717-6.047,4.16-9.266c1.344,3.173,2.617,6.176,3.931,9.266
			C100.277,48.399,97.646,48.399,94.916,48.399z"/>
	</g>
</g>
</svg>
