<?xml version="1.0" encoding="utf-8"?>
<!-- Generator: Adobe Illustrator 16.0.0, SVG Export Plug-In . SVG Version: 6.00 Build 0)  -->
<!DOCTYPE svg PUBLIC "-//W3C//DTD SVG 1.1//EN" "http://www.w3.org/Graphics/SVG/1.1/DTD/svg11.dtd">
<svg version="1.1" id="Layer_1" xmlns="http://www.w3.org/2000/svg" xmlns:xlink="http://www.w3.org/1999/xlink" x="0px" y="0px"
	 width="149.923px" height="94.071px" viewBox="0 0 149.923 94.071" enable-background="new 0 0 149.923 94.071"
	 xml:space="preserve">
<rect x="-0.077" y="0.275" fill="#383838" width="150" height="93.795"/>
<g>
	<path fill="#B4B3B3" d="M35.665,51.313c1.832-4.015,4.901-7.218,7.271-11.031c-0.814-0.121-1.55-0.211-2.28-0.342
		c-2.738-0.485-4.533-2.64-4.533-5.424c0-2.852,1.903-5.219,4.554-5.75c1.042-0.21,2.082-0.2,3.128-0.2
		c2.744-0.003,5.488,0.034,8.231-0.011c2.951-0.048,5.618,0.48,7.274,3.294c2.479-3.498,5.057-4.576,7.933-3.388
		c1.114,0.46,2.047,1.157,2.715,2.144c0.688,1.018,1.064,2.164,1.059,3.414c-0.003,1.175-0.544,2.212-0.948,3.265
		c0.474,0.233,0.49-0.125,0.599-0.292c1.51-2.337,3.901-3.391,6.554-2.612c1.294,0.377,2.374-0.17,3.536-0.32
		c4.968-0.633,8.874,1.543,10.838,6.154c0.041,0.097,0.104,0.185,0.229,0.414c0.755-1.55,1.67-2.857,2.877-3.942
		c2.832-2.542,6.1-3.295,9.757-2.343c0.723,0.189,1.362,0.245,2.106,0.048c4.021-1.065,7.559,1.617,7.588,5.758
		c0.035,4.803,0.047,9.605-0.01,14.406c-0.084,7.061-4.781,11.712-11.826,11.781c-1.815,0.02-3.631,0.014-5.446,0.006
		c-2.482-0.006-4.454-1.328-5.255-3.514c-0.848-2.316-0.273-4.849,1.574-6.357c0.657-0.539,0.779-0.826,0.129-1.426
		c-0.426-0.394-0.699-0.953-1.109-1.543c-0.42,1.063-0.696,2.055-1.313,2.912c-2.168,3.01-7.098,3.061-9.313,0.076
		c-0.254-0.341-0.438-1.259-1.106-0.232c-2.193,3.367-7.693,3.231-9.706-0.217c-0.112-0.19-0.176-0.465-0.465-0.512
		c-2.61,4.169-7.673,4.295-10.602,0.273c-1.54,2.017-3.594,2.826-6.103,2.781c-3.59-0.065-7.183-0.023-10.775-0.015
		c-3.226,0.011-5.749-1.083-6.917-4.344c-0.038-0.099-0.162-0.169-0.246-0.248c0-0.082,0-0.162,0-0.243
		c0.195-0.729,0.195-1.454,0-2.182C35.665,51.477,35.665,51.395,35.665,51.313z"/>
	<path fill="#CBC9C9" d="M35.665,51.556c0.387,0.728,0.391,1.453,0,2.182C35.665,53.009,35.665,52.282,35.665,51.556z"/>
	<path fill="#FFFFFF" d="M48.24,57.114c-2.058,0-4.116,0.063-6.169-0.02c-1.854-0.072-3.503-0.699-4.388-2.491
		c-0.864-1.75-0.572-3.46,0.514-5.013c2.145-3.066,4.341-6.097,6.515-9.145c0.271-0.381,0.715-0.714,0.494-1.27
		c-0.263-0.665-0.87-0.443-1.366-0.471c-0.843-0.043-1.707,0.044-2.53-0.104c-2.609-0.472-3.863-2.086-3.72-4.645
		c0.122-2.152,1.888-3.863,4.31-3.916c3.91-0.082,7.825-0.127,11.733,0.006c4.22,0.144,6.175,4.075,3.802,7.584
		c-1.981,2.933-4.118,5.762-6.185,8.637c-0.141,0.196-0.272,0.4-0.419,0.593c-0.272,0.36-0.558,0.725-0.304,1.203
		c0.235,0.441,0.685,0.354,1.079,0.355c0.967,0.01,1.94-0.061,2.903,0.019c3.076,0.256,4.408,1.587,4.577,4.396
		c0.13,2.227-2.106,4.225-4.677,4.27C52.354,57.146,50.296,57.116,48.24,57.114z"/>
	<path fill="#FFFFFF" d="M112.709,48.118c-0.165,2.417,0.271,5.405-0.252,8.371c-0.927,5.266-4.522,8.333-9.897,8.388
		c-1.896,0.021-3.791,0.018-5.688,0.008c-2.112-0.008-3.506-1.109-4.098-3.226c-0.451-1.611,0.41-3.578,1.984-4.543
		c1.566-0.957,1.533-0.929,0.337-2.213c-2.737-2.939-3.362-6.516-2.881-10.339c0.401-3.173,1.813-5.85,4.526-7.65
		c2.41-1.597,5.06-1.984,7.83-1.026c0.666,0.23,1.222,0.305,1.945,0.044c3.295-1.198,6.135,0.847,6.188,4.37
		c0,0.079,0.003,0.16,0.003,0.241C112.709,42.881,112.709,45.221,112.709,48.118z"/>
	<path fill="#FFFFFF" d="M71.264,46.348c0-2.058-0.021-4.116,0.006-6.173c0.037-3.199,2.665-5.279,5.727-4.333
		c1.523,0.47,2.766-0.238,4.123-0.39c4.998-0.561,9.486,2.648,9.529,7.831c0.023,3.066,0.021,6.134,0.002,9.202
		c-0.014,2.786-1.806,4.697-4.402,4.749c-2.583,0.051-4.51-1.938-4.545-4.761c-0.031-2.541-0.018-5.086-0.004-7.628
		c0.002-0.607-0.032-1.221-0.805-1.217c-0.771,0.004-0.668,0.667-0.67,1.177c-0.008,2.542,0.021,5.084-0.012,7.627
		c-0.038,3.201-2.207,5.094-5.345,4.705c-1.922-0.235-3.547-2.112-3.593-4.252C71.23,50.706,71.265,48.525,71.264,46.348
		C71.268,46.348,71.266,46.348,71.264,46.348z"/>
	<path fill="#FFFFFF" d="M60.364,46.052c0.172-2.194-0.351-4.498,0.268-6.686c0.447-1.585,0.781-2.934,0.089-4.625
		c-0.698-1.709,0.534-3.816,2.161-4.676c1.77-0.935,3.936-0.671,5.275,0.639c1.411,1.382,1.848,3.361,0.916,5.087
		c-0.521,0.961-0.618,1.737-0.037,2.667c0.295,0.471,0.323,1.066,0.322,1.641c-0.011,4.235,0.015,8.47-0.016,12.707
		c-0.018,2.455-1.949,4.414-4.318,4.472c-2.414,0.06-4.135-1.624-4.465-4.166C60.256,50.774,60.506,48.439,60.364,46.052z"/>
	<path fill="#FFFFFF" d="M59.436,37.786c-0.962,3.507-0.241,7.11-0.574,10.805c-1.814-1.525-3.921-1.655-6.209-1.635
		c2.104-3.341,4.62-6.18,6.542-9.426C59.412,37.485,59.543,37.526,59.436,37.786z"/>
	<path fill="#EDEBEA" d="M59.436,37.786c-0.079-0.087-0.162-0.174-0.241-0.259c0.147-0.296,0.107-0.687,0.521-0.945
		C60.04,37.114,59.685,37.441,59.436,37.786z"/>
	<path fill="#159CD8" d="M50.185,36.507c-2.801,0-5.377,0.018-7.956-0.006c-1.525-0.016-2.354-0.643-2.475-1.774
		c-0.145-1.37,0.703-2.463,2.172-2.486c3.955-0.061,7.913-0.108,11.865,0.019c2.379,0.075,3.202,2.224,1.745,4.325
		c-1.47,2.122-3.015,4.191-4.523,6.284c-1.809,2.507-3.616,5.015-5.594,7.763c2.182,0,4.096-0.012,6.009,0.002
		c1.209,0.006,2.421,0.002,3.626,0.082c1.134,0.076,1.764,0.773,1.809,1.896c0.043,1.103-0.554,1.824-1.593,2.146
		c-0.376,0.119-0.789,0.164-1.187,0.166c-3.874,0.012-7.75,0-11.625,0.01c-1.149,0.002-2.22-0.211-2.814-1.291
		c-0.632-1.148-0.134-2.186,0.55-3.143c3.167-4.43,6.336-8.858,9.504-13.286C49.813,37.051,49.92,36.889,50.185,36.507z"/>
	<path fill="#EE3176" d="M105.845,53.4c-1.037,1.008-2.193,1.679-3.613,1.794c-3.604,0.297-6.021-1.242-7.295-4.656
		c-1.511-4.044-0.609-8.587,2.223-11.2c2.547-2.348,6.242-2.331,8.709,0.046c0.347,0.012,0.302-0.325,0.408-0.503
		c0.58-0.97,1.467-1.259,2.49-1.047c1.068,0.222,1.682,0.976,1.736,2.055c0.066,1.329,0.035,2.663,0.038,3.995
		c0.004,3.108,0.002,6.214,0.002,9.322c-0.002,1.051-0.06,2.09-0.267,3.127c-0.772,3.885-3.195,6.104-7.147,6.328
		c-2.136,0.123-4.276,0.068-6.416,0.044c-1.095-0.012-1.896-0.893-1.886-1.949c0.011-1.03,0.85-1.93,1.91-1.953
		c1.531-0.031,3.066,0,4.601-0.014C104.964,58.757,106.31,57.181,105.845,53.4z"/>
	<path fill="#F27C21" d="M77.823,39.339c2.258-2.061,4.758-2.134,7.295-1.108c2.469,0.997,3.354,3.102,3.359,5.645
		c0.006,2.824,0.014,5.651-0.004,8.475c-0.008,1.735-0.822,2.677-2.262,2.679c-1.42,0.005-2.27-0.936-2.294-2.676
		c-0.041-2.702,0.017-5.409-0.042-8.111c-0.041-1.836-1.254-2.906-3.053-2.843c-1.633,0.057-2.748,1.151-2.784,2.888
		c-0.054,2.661-0.013,5.327-0.034,7.989c-0.012,1.149-0.29,2.214-1.507,2.646c-1.54,0.547-3.006-0.438-3.028-2.131
		c-0.06-4.236-0.042-8.476-0.005-12.711c0.009-1.101,0.566-1.96,1.708-2.209C76.383,37.606,77.313,38.026,77.823,39.339z"/>
	<path fill="#4CA947" d="M67.194,46.45c0,1.98,0.017,3.957-0.006,5.934c-0.019,1.701-0.78,2.608-2.159,2.652
		c-1.448,0.051-2.354-0.837-2.378-2.58c-0.053-3.994-0.047-7.99-0.007-11.985c0.016-1.706,0.949-2.708,2.313-2.69
		c1.388,0.019,2.218,1.012,2.232,2.739C67.209,42.496,67.194,44.472,67.194,46.45z"/>
	<path fill="#4DAA47" d="M67.353,34.002c-0.023,1.235-1.142,2.302-2.368,2.257c-1.263-0.045-2.244-1.116-2.195-2.396
		c0.046-1.225,1.042-2.175,2.275-2.171C66.331,31.694,67.379,32.753,67.353,34.002z"/>
	<path fill="#FFFFFF" d="M105.942,46.592c0.043,1.027-0.162,1.999-0.728,2.874c-1.416,2.179-4.392,2.125-5.659-0.146
		c-0.984-1.764-1.004-3.63-0.152-5.453c0.58-1.241,1.525-2.041,3.013-2.025c1.475,0.017,2.374,0.833,3.004,2.055
		C105.854,44.741,105.981,45.65,105.942,46.592z"/>
</g>
</svg>
