<?xml version="1.0" encoding="utf-8"?>
<!-- Generator: Adobe Illustrator 16.0.0, SVG Export Plug-In . SVG Version: 6.00 Build 0)  -->
<!DOCTYPE svg PUBLIC "-//W3C//DTD SVG 1.1//EN" "http://www.w3.org/Graphics/SVG/1.1/DTD/svg11.dtd">
<svg version="1.1" id="Layer_1" xmlns="http://www.w3.org/2000/svg" xmlns:xlink="http://www.w3.org/1999/xlink" x="0px" y="0px"
	 width="150px" height="93.795px" viewBox="0 0 150 93.795" enable-background="new 0 0 150 93.795" xml:space="preserve">
<rect fill="#2582BE" width="150" height="93.795"/>
<g>
	<g>
		<path fill-rule="evenodd" clip-rule="evenodd" fill="#FEFEFE" d="M57.446,49.928c0.09,7.161-5.884,13.17-13.18,13.252
			c-7.338,0.084-13.388-5.771-13.476-13.044c-0.087-7.302,5.771-13.349,13.022-13.442C51.375,36.596,57.351,42.398,57.446,49.928z"
			/>
		<path fill-rule="evenodd" clip-rule="evenodd" fill="#FEFEFE" d="M53.468,62.808c2.708-1.634,3.793-4.293,4.435-7.178
			c0.892-4.007,0.667-7.986-0.631-11.882c-0.522-1.564-1.292-2.998-2.666-4.035c0.415-0.082,0.429-0.083,0.917,0.169
			c1.596,0.822,2.877,2.015,3.775,3.547c2.951,5.039,3.259,10.186,0.327,15.342c-1.075,1.891-2.627,3.327-4.79,3.964
			C54.181,62.929,53.948,62.937,53.468,62.808z"/>
		<path fill-rule="evenodd" clip-rule="evenodd" fill="#FEFEFE" d="M33.603,39.671c-2.165,1.811-2.932,4.277-3.41,6.857
			c-0.667,3.6-0.612,7.186,0.521,10.702c0.572,1.771,1.39,3.416,2.795,4.703c0.371,0.34,0.794,0.605,1.333,0.871
			c-0.575,0.167-1.028,0.063-1.474-0.067c-2.092-0.611-3.557-2.016-4.7-3.789c-1.554-2.409-2.192-5.078-2.08-7.928
			c0.128-3.235,1.065-6.194,3.138-8.735c0.857-1.049,1.882-1.9,3.116-2.485C33.065,39.694,33.289,39.597,33.603,39.671z"/>
		<path fill-rule="evenodd" clip-rule="evenodd" fill="#FEFEFE" d="M61.33,56.283c0.939-0.523,1.297-1.419,1.528-2.363
			c0.413-1.688,0.333-3.367-0.21-5.02c-0.242-0.734-0.606-1.405-1.225-1.952c0.268-0.11,0.433,0.046,0.593,0.147
			c1.232,0.782,1.894,1.96,2.187,3.345c0.373,1.769,0.195,3.449-1.021,4.891C62.703,55.898,62.081,56.232,61.33,56.283z"/>
		<path fill-rule="evenodd" clip-rule="evenodd" fill="#FEFEFE" d="M26.753,46.937c-2.178,1.952-2.251,7.861-0.035,9.313
			c-0.69-0.062-1.261-0.389-1.698-0.912c-1.324-1.592-1.435-3.416-0.918-5.32c0.33-1.217,0.983-2.238,2.079-2.925
			C26.341,46.994,26.498,46.847,26.753,46.937z"/>
		<path fill="#FEFEFE" d="M56.357,33.072c-7.181-6.664-18.779-6.247-25.462,0.906c-2.465,2.639-3.896,5.769-4.228,9.381
			c-0.172,0.746-0.089,1.501-0.074,2.253c0.01,0.071-0.024,0.2,0.1,0.165c0.105-0.031,0.072-0.164,0.074-0.259l0,0l0,0
			c0.001-0.132,0.001-0.264,0.001-0.396c0.476-3.725,2.073-6.92,4.795-9.468c4.861-4.55,10.648-6,17.061-4.406
			c5.737,1.426,9.803,4.958,11.975,10.535c0.437,1.124,0.664,2.308,0.842,3.567c0.059-0.111,0.095-0.15,0.1-0.193
			c0.014-0.13,0.021-0.262,0.021-0.391C61.523,40.114,59.746,36.216,56.357,33.072z"/>
		<path fill-rule="evenodd" clip-rule="evenodd" fill="#2581BD" d="M40.594,49.416c0-1.519-0.003-3.037,0.001-4.557
			c0.003-0.798,0.406-1.04,1.091-0.651c2.679,1.527,5.355,3.059,8.03,4.592c0.687,0.394,0.687,0.871,0,1.267
			c-2.689,1.544-5.378,3.083-8.072,4.618c-0.635,0.361-1.043,0.119-1.046-0.613C40.59,52.519,40.594,50.968,40.594,49.416z"/>
	</g>
	<g>
		<path fill-rule="evenodd" clip-rule="evenodd" fill="#FEFEFE" d="M86.855,59.59c-1.163,0.513-2.205,0.357-3.035-0.555
			c-0.504-0.555-0.933-1.185-1.345-1.813c-2.316-3.527-4.618-7.065-6.944-10.631c-0.282,0.221-0.15,0.51-0.151,0.743
			c-0.012,3.258-0.009,6.516-0.007,9.773c0.001,0.515,0,1.026-0.197,1.514c-0.289,0.341-0.538,0.715-0.854,1.032
			c-1.346,0.519-2.341-0.021-2.597-1.422c-0.059-0.324-0.074-0.659-0.074-0.989c-0.005-4.772-0.003-9.545-0.003-14.316
			c0-0.03-0.001-0.061,0-0.09c0.014-1.682,0.515-2.554,1.656-2.89c1.189-0.35,2.009,0.073,2.951,1.506
			c2.456,3.731,4.916,7.46,7.376,11.189c0.147,0.223,0.31,0.435,0.474,0.666c0.287-0.247,0.149-0.535,0.149-0.779
			c0.013-3.503-0.006-7.007,0.017-10.51c0.012-1.693,0.864-2.395,2.385-2.045c0.392,0.307,0.754,0.642,1.04,1.054
			c0.169,0.363,0.205,0.75,0.205,1.145c-0.002,5.058,0,10.116-0.005,15.173c-0.001,0.574-0.063,1.143-0.399,1.641
			C87.294,59.198,87.023,59.34,86.855,59.59z"/>
		<path fill-rule="evenodd" clip-rule="evenodd" fill="#FEFEFE" d="M106.417,51.765c1.426-0.065,2.188,0.764,1.957,2.205
			c-0.291,1.82-1.299,3.201-2.72,4.337c-2.842,2.271-9.248,2.226-11.976-1.051c-1.314-1.578-2.164-3.354-2.404-5.373
			c-0.359-3.029-0.142-5.971,1.824-8.52c0.584-0.54,1.135-1.113,1.691-1.68c3.305-2.641,8.706-2.431,11.756,0.469
			c0.893,0.848,1.556,1.843,1.771,3.085c0.162,0.928-0.276,1.8-1.042,2.085c-0.793,0.296-1.569,0.019-2.101-0.782
			c-0.317-0.477-0.573-0.994-0.897-1.465c-2.02-2.94-6.35-2.856-8.06,0.277c-1.583,2.899-1.551,5.987-0.159,8.971
			c0.823,1.767,2.443,2.452,4.327,2.421c1.987-0.032,3.437-0.971,4.287-2.8c0.299-0.644,0.379-1.411,1.015-1.873
			C105.963,52.046,106.202,51.935,106.417,51.765z"/>
		<path fill-rule="evenodd" clip-rule="evenodd" fill="#FEFEFE" d="M118.959,59.604c-1.435,0.625-2.625,0.016-2.877-1.492
			c-0.059-0.354-0.048-0.721-0.049-1.081c-0.003-4.277-0.015-8.554,0.013-12.831c0.004-0.636-0.174-0.831-0.808-0.803
			c-1.143,0.049-2.289,0.016-3.433,0.013c-0.422-0.001-0.849,0.007-1.217-0.255c-0.19-0.249-0.419-0.463-0.648-0.675
			c-0.403-1.501,0.238-2.306,1.913-2.319c2.713-0.021,5.426-0.006,8.14-0.005c1.446,0,2.895-0.033,4.34,0.013
			c1.472,0.047,2.012,0.722,1.812,2.133c-0.275,0.238-0.398,0.601-0.682,0.833c-0.397,0.275-0.853,0.276-1.308,0.276
			c-1.027,0.001-2.059,0.058-3.081-0.018c-0.848-0.062-1.126,0.152-1.114,1.065c0.056,4.2,0.026,8.402,0.023,12.602
			c-0.001,0.665,0.003,1.334-0.381,1.925C119.396,59.2,119.112,59.334,118.959,59.604z"/>
		<path fill-rule="evenodd" clip-rule="evenodd" fill="#FEFEFE" d="M94.79,41.684c-0.415,0.709-0.97,1.278-1.691,1.68
			C93.537,42.677,94.097,42.113,94.79,41.684z"/>
		<path fill-rule="evenodd" clip-rule="evenodd" fill="#FEFEFE" d="M87.695,41.026c-0.413-0.286-0.771-0.626-1.04-1.054
			C87.214,40.115,87.548,40.479,87.695,41.026z"/>
		<path fill-rule="evenodd" clip-rule="evenodd" fill="#FEFEFE" d="M125.463,43.135c0.128-0.359,0.274-0.703,0.682-0.833
			C126.063,42.699,125.838,42.978,125.463,43.135z"/>
		<path fill-rule="evenodd" clip-rule="evenodd" fill="#FEFEFE" d="M106.417,51.765c-0.108,0.421-0.4,0.409-0.729,0.308
			C105.873,51.832,106.12,51.738,106.417,51.765z"/>
		<path fill-rule="evenodd" clip-rule="evenodd" fill="#FEFEFE" d="M109.94,42.48c0.366,0.081,0.588,0.3,0.648,0.675
			C110.261,43.037,110.047,42.81,109.94,42.48z"/>
	</g>
</g>
</svg>
