<svg xmlns="http://www.w3.org/2000/svg" width="150" height="93.8"><path fill="#232323" d="M0 0h150v93.8H0z"/><path fill="none" d="M20.52 42.55c.5.03.73-.45 1.04-.9-.22-.3-.42-.74-.84-.76-.5-.02-.88.4-.94.83-.07.43.34.8.74.83zM18.96 44.16c-.01-.38-.4-.8-.85-.74-.45.05-.88.42-.86.9.02.4.4.69.86.78.4-.22.86-.49.85-.95zM13.02 50.07c.48 0 .74-.45.98-.9-.26-.32-.46-.78-.93-.72-.41.06-.8.4-.84.82-.04.45.37.8.79.8zM15.6 47.61c.38-.26.9-.48.83-.98-.06-.38-.43-.81-.9-.68-.4.1-.83.42-.8.87.04.43.41.7.88.8zM24.84 51.84c.43-.46.49-.77 0-1.23-1.03-.97-2.03-1.99-3.03-3-1.63-1.62-1.64-1.63-3.25 0-.35.34-.79.62-.98 1.17.18.2.36.43.56.64l2.49 2.48c2.17 2.19 2.16 2.18 4.21-.06zM22.2 57.42c-.49.11-.88.46-.94.88-.07.4.34.81.76.84.5.04.86-.44.94-.84.08-.42-.38-.67-.76-.88zM27.19 52.43a.98.98 0 0 0-.92.88c-.02.41.4.8.81.8.49 0 .74-.47.97-.87-.17-.41-.43-.82-.86-.8zM29.75 49.95c-.5-.04-.75.43-1 .82.16.43.44.82.86.81.43 0 .8-.39.87-.79.1-.47-.33-.81-.73-.84zM24.72 54.95c-.5-.03-.88.42-.95.83-.07.41.36.8.77.84.5.04.72-.46 1.01-.86-.18-.38-.42-.79-.83-.81z"/><path fill="#F6F6F6" d="M33.8 49.67c-.34-.35-.48-1.23-1.45-.72-.53.27-1.18-.24-.88-.94.38-.92-.42-1.12-.8-1.48-.54-.53-.74.25-1.01.5-.82.72-1.59 1.5-2.32 2.3-.47.52-.8.58-1.32.04-1.3-1.37-2.64-2.7-4-4.02-.48-.45-.51-.76-.02-1.21.8-.74 1.57-1.53 2.32-2.32.3-.3.94-.63.51-1.1-.35-.38-.52-1.3-1.52-.8a.65.65 0 0 1-.9-.86c.44-1-.39-1.24-.81-1.58-.5-.38-.76.33-1.04.6-3.95 3.9-7.87 7.81-11.8 11.72v.25c.66.34.97 1.36 2.03.99.2-.08.72.41.6.67-.43.97.45 1.19.85 1.68.32.5.54.1.75-.1l2.45-2.44c.32-.32.6-.71 1.14-.55 1.43 1.43 2.83 2.88 4.28 4.28.46.45.52.75.02 1.2-.78.72-1.52 1.47-2.23 2.24-.28.3-.98.55-.67 1.03.31.47.54 1.24 1.5 1 .55-.15 1.05.23.88.95-.2.81.51 1.07.94 1.42.47.39.7-.27.95-.52 3.7-3.67 7.4-7.35 11.06-11.05.31-.3 1.04-.63.5-1.18zm-18.28-3.72c.48-.13.85.3.9.68.08.5-.44.72-.81.98-.47-.1-.85-.36-.88-.79-.03-.45.4-.77.8-.87zm-3.3 3.32c.04-.41.44-.76.85-.82.47-.06.67.4.92.72-.23.45-.49.9-.97.9-.42 0-.82-.35-.8-.8zm7.55-7.55c.07-.43.46-.85.95-.83.41.02.62.45.84.76-.3.45-.55.93-1.04.9-.4-.03-.81-.4-.75-.83zm-2.52 2.6c-.02-.48.4-.85.86-.9.45-.06.84.36.85.74.01.45-.46.72-.86.94-.45-.1-.83-.38-.85-.78zm3.38 7.58l-2.49-2.48c-.2-.2-.38-.43-.56-.64.2-.55.63-.83.98-1.17 1.62-1.63 1.62-1.62 3.25 0 1 1.01 2 2.03 3.03 3 .49.46.43.77 0 1.23-2.05 2.24-2.04 2.25-4.21.06zm2.33 6.4c-.08.4-.43.88-.94.84-.42-.03-.83-.45-.77-.84.07-.42.46-.77.95-.88.38.2.84.46.76.88zm1.57-1.68c-.4-.03-.83-.43-.76-.84.07-.41.45-.86.95-.83.41.02.65.43.83.8-.3.4-.51.91-1.02.87zm2.55-2.51c-.42 0-.83-.39-.8-.8a.98.98 0 0 1 .91-.88c.43-.01.69.4.86.8-.23.41-.48.88-.97.88zm3.4-3.32c-.07.4-.44.79-.87.8-.42 0-.7-.39-.86-.82.25-.39.5-.86 1-.82.4.03.82.37.73.84z"/><g fill="#F6F6F6"><path d="M44.5 39.82c1.33 0 2.38.3 3.13.92a3.13 3.13 0 0 1 1.12 2.56c0 .63-.13 1.2-.4 1.7-.26.5-.65.9-1.17 1.23a4.12 4.12 0 0 1-2.03.6c-.3.02-.64.03-1.02.03h-1.17v2.55a23.57 23.57 0 0 0 .1 2.38h-3.02l.03-.34v-.23c.02-.1.02-.23.03-.4 0-.17.02-.37.04-.6a38.1 38.1 0 0 0 .03-.8v-7.24a20.08 20.08 0 0 0-.14-2.36h4.46zm-1.56 5.43l.65.03c.77.04 1.35-.12 1.75-.48.4-.37.6-.87.6-1.5 0-.62-.2-1.11-.6-1.45-.39-.35-.95-.52-1.68-.52h-.72v3.92zM52.4 39.82l-.03.28c-.04.32-.07.68-.08 1.06V44.68h3.43v-2.49a22.5 22.5 0 0 0-.11-2.37h3.02a3.54 3.54 0 0 0-.05.58l-.03.4c0 .17-.02.36-.04.58l-.02.48v7.57a25.84 25.84 0 0 0 .12 2.36h-2.99l.07-1.22.03-1.16V46.3h-3.44v3.12a27.87 27.87 0 0 0 .09 2.06l.02.32H49.4a19.11 19.11 0 0 0 .11-2.36v-7.24a9.43 9.43 0 0 0-.03-.8l-.05-.99-.01-.26c0-.08-.01-.19-.04-.32h3.03zM63.24 39.82a23.1 23.1 0 0 0-.09 2.39V49.93l.03.62a17.36 17.36 0 0 0 .08 1.24h-3l.02-.29.05-.66.02-.62v-.81l.02-7.22a22.25 22.25 0 0 0-.12-2.37h2.99zM64.75 50.54c.05-.42.09-.8.11-1.13l.4-7.2.03-.54a13.1 13.1 0 0 0-.03-1.85h3.07l2.88 7.07 2.84-7.07h2.99v.28a5.92 5.92 0 0 1-.02.65 39.95 39.95 0 0 0 .03 1.44l.43 7.22.07.75.1 1.04.09.59h-3.08c.03-.25.04-.46.04-.65v-.63-.58c0-.19 0-.36-.02-.52l-.32-6.32-2.98 7.38H69.8l-3-7.31-.33 6.25a33.06 33.06 0 0 0-.04 1.44v.44c0 .12 0 .28.02.5h-1.89c.08-.42.14-.83.2-1.25zM83.88 51.5l.03-.76.03-.52.05-.8-.03-7.23v-.62c0-.18 0-.36-.02-.55l-.03-.56-.05-.64h4.98a6.6 6.6 0 0 1 1.46.17 2.7 2.7 0 0 1 2.17 2.72c0 .73-.21 1.33-.65 1.8-.44.47-1.06.77-1.85.9.94.12 1.66.44 2.15.96s.73 1.2.73 2.04a3.35 3.35 0 0 1-1.4 2.73c-.29.2-.61.34-.97.44-.46.14-1 .2-1.63.2h-5l.03-.28zm3.7-6.73c1.4 0 2.1-.6 2.1-1.78 0-.59-.16-1.03-.5-1.32-.32-.3-.82-.43-1.49-.4l-.96.03v3.47h.85zm.38 5.5c.67 0 1.17-.16 1.5-.5.34-.34.51-.83.51-1.49 0-1.35-.76-2.02-2.3-2.02h-.92v4.02h1.21zM93.16 51.5l.22-.58a47.77 47.77 0 0 0 .56-1.5l3.02-8.83-.15-.77h2.82l3.2 9.59.13.34.17.47a29.74 29.74 0 0 1 .46 1.18l.17.39h-3.47a28.37 28.37 0 0 1-.31-1.4 31.34 31.34 0 0 0-.27-.98l-.24-.71h-3.53l-.24.71-.13.4a8.45 8.45 0 0 0-.3 1.11l-.14.58-.06.29h-2.04l.13-.29zm3.1-13.48a10.1 10.1 0 0 0 .75-.97l.18-.27.17-.24c.07-.08.13-.17.19-.28l.22-.36h1.26a11.7 11.7 0 0 0 1.2 1.79 10.19 10.19 0 0 0 .65.75h-1.44l-1.03-1.65-1.05 1.65H95.9l.36-.42zm.18 9.1h2.59l-1.26-4.22-1.33 4.23zm3.76-11.3a21.65 21.65 0 0 0 .63-1.42l.13-.37h1.76l-1.9 2.54H99.8l.4-.75zM103.12 39.82h8.35v1.8a19.28 19.28 0 0 0-1.94-.17h-.86v7.96a8.63 8.63 0 0 0 .03.81 55.4 55.4 0 0 0 .11 1.57h-3.05c.03-.14.04-.25.04-.32l.01-.25.03-.46c0-.16.02-.34.04-.54l.02-.5v-8.27h-.83a20.14 20.14 0 0 0-1.95.17v-1.8zM119.67 39.82l-.04.28c-.04.32-.07.68-.08 1.06V44.68h3.43v-2.49a22.57 22.57 0 0 0-.11-2.37h3.02a4.46 4.46 0 0 0-.05.58l-.03.4c0 .17-.02.36-.04.58l-.02.48v7.57a24.34 24.34 0 0 0 .12 2.36h-2.99l.07-1.22.03-1.16V46.3h-3.44v3.12a27.87 27.87 0 0 0 .11 2.38h-2.99a19.11 19.11 0 0 0 .11-2.36v-7.24a9.43 9.43 0 0 0-.03-.8l-.05-.99a2.4 2.4 0 0 1-.01-.26c0-.08-.01-.19-.04-.32h3.03zM130.53 39.82a66.97 66.97 0 0 0-.1 2.36v5.8c0 .5.04.88.12 1.15.12.4.34.7.68.9.33.2.76.3 1.29.3.49 0 .9-.1 1.25-.3.34-.19.6-.46.76-.81.11-.26.17-.65.17-1.15v-5.88a10.7 10.7 0 0 0-.03-.8 19.9 19.9 0 0 1-.03-.47l-.01-.38a5.83 5.83 0 0 0-.07-.72h1.86l-.02.34-.02.24a42.45 42.45 0 0 0-.1 1.8v5.99c0 1.24-.37 2.17-1.11 2.8-.75.64-1.85.96-3.3.96a5.5 5.5 0 0 1-1.77-.27 3.75 3.75 0 0 1-1.33-.75 3.25 3.25 0 0 1-.84-1.19c-.2-.46-.29-.98-.29-1.57v-6-.26l-.03-.53-.03-.47-.01-.36a7.3 7.3 0 0 0-.06-.73h3.02zm1.34-1.05v-1.19h.11a.9.9 0 0 0 .65-.23.79.79 0 0 0 .24-.6c0-.23-.07-.4-.2-.55a.73.73 0 0 0-.55-.2c-.21 0-.38.06-.52.19s-.22.32-.27.56l-.71-.85c.3-.22.58-.39.85-.49a2.54 2.54 0 0 1 1.66-.03c.23.08.43.2.6.34a1.47 1.47 0 0 1 .51 1.16c0 .41-.13.76-.38 1.03-.26.28-.62.46-1.08.55v.31h-.91z"/></g><g fill="#F6F6F6"><path d="M41.62 59.08l.53-.68c.07-.09.1-.17.1-.25 0-.14-.05-.22-.15-.24-.03 0-.05-.02-.05-.02 0-.01.02-.02.07-.02l.44.02.42-.02c.05 0 .07 0 .07.02l-.04.03-.23.1a2.43 2.43 0 0 0-.5.46l-.6.69.86 1.11a6.2 6.2 0 0 0 .34.36c.07.06.14.1.2.13.02 0 .03.02.03.02l-.02.02h-.23l-.38-.02h-.25l-.33.02c-.03 0-.05 0-.05-.02 0-.01.01-.02.04-.02l.05-.02.04-.03a.14.14 0 0 0 .05-.11.32.32 0 0 0-.05-.13 1.8 1.8 0 0 0-.08-.14l-.6-.86-.38.52-.2.29a.52.52 0 0 0-.08.23c0 .12.06.2.18.25.02 0 .03.01.03.02s-.02.02-.05.02h-.14a5.64 5.64 0 0 0-.63 0h-.08c-.04 0-.06 0-.06-.02l.06-.04c.1-.06.19-.14.3-.23l.26-.27.73-.85-.62-.89-.11-.16-.14-.17a.83.83 0 0 0-.3-.26c-.04-.01-.06-.02-.06-.04s.03-.01.08-.01l.5.01.48-.01.08.01c0 .02-.01.03-.04.03-.1.02-.16.06-.16.15 0 .03.02.08.06.14l.6.88zM44.58 59.3l-.01.29c0 .4.09.7.27.9.15.17.36.26.6.26a1 1 0 0 0 .67-.24c.19-.16.32-.38.4-.65h.09c-.15.67-.56 1-1.22 1-.39 0-.7-.11-.96-.35a1.16 1.16 0 0 1-.38-.9c0-.36.13-.66.38-.9.25-.23.57-.35.96-.35.28 0 .53.08.74.23.25.18.4.41.42.7h-1.96zm1.39-.1a.82.82 0 0 0-.17-.54c-.12-.14-.29-.21-.52-.21-.2 0-.35.08-.48.23-.1.14-.18.32-.2.53h1.37zM48.25 59c.16-.43.46-.64.92-.64.47 0 .74.21.82.64.13-.43.43-.64.9-.64.11 0 .21.02.3.05.11.03.2.08.28.15.18.17.27.45.27.83v.97c0 .23.06.36.17.4l.04.01c.02 0 .02.02.02.02l-.02.02h-.04l-.41-.02-.31.01h-.14L51 60.8c0-.01 0-.02.03-.03.15-.04.23-.26.23-.64v-.92a.9.9 0 0 0-.13-.5.5.5 0 0 0-.43-.22c-.25 0-.43.13-.55.39a1.97 1.97 0 0 0-.14.71v.77c0 .24.06.38.19.4.04 0 .06.02.06.04l-.02.01H50.08a5.74 5.74 0 0 0-.64 0h-.14c0-.02.01-.03.03-.03.15-.05.22-.23.22-.55V59.2a.9.9 0 0 0-.12-.5.5.5 0 0 0-.44-.22c-.25 0-.43.13-.55.39a1.97 1.97 0 0 0-.14.71v.64c0 .16.01.28.04.36.03.1.1.16.18.18.01 0 .02.01.02.03 0 .01-.02.02-.06.02l-.18-.01H47.66c0-.02.01-.03.03-.04.06-.02.1-.1.12-.23l.02-.22v-1.4-.05c0-.04 0-.07-.02-.1-.02-.08-.06-.13-.13-.14h-.02l-.03-.01-.02-.01c0-.02 0-.02.02-.03l.05-.01c.23-.05.42-.1.57-.15V59zM55.31 58.96c0-.19-.04-.3-.15-.33l-.05-.02-.02-.01c0-.02 0-.03.02-.03l.04-.01c.22-.03.41-.08.58-.15v.6c.17-.44.5-.65.96-.65.3 0 .57.11.8.33.25.24.38.55.38.92 0 .33-.12.62-.36.87a1.1 1.1 0 0 1-.82.38c-.22 0-.4-.04-.55-.12a1.17 1.17 0 0 1-.19-.13 3.3 3.3 0 0 1-.17-.16v.47a5.05 5.05 0 0 0 .03.45c.03.15.08.24.16.26l.07.02.03.03c0 .01-.02.02-.08.02l-.52-.01h-.39-.01v-.01c0-.01.01-.02.05-.03.08-.02.13-.07.16-.14.02-.06.03-.2.03-.4v-2.15zm.53 1.23a.9.9 0 0 0 .2.35c.07.07.16.13.26.17a.73.73 0 0 0 .5 0c.1-.04.18-.1.26-.17.08-.1.15-.2.2-.35.05-.16.08-.35.08-.58 0-.22-.03-.41-.08-.58a.88.88 0 0 0-.2-.34.68.68 0 0 0-.5-.21.68.68 0 0 0-.51.2.89.89 0 0 0-.21.35c-.06.17-.09.36-.09.58 0 .23.03.42.09.58zM59.11 58.05c0-.22-.05-.33-.14-.35h-.05c-.02 0-.03-.01-.03-.02l.02-.02.06-.01.61-.15v1.49h.01c.12-.42.41-.63.88-.63a1 1 0 0 1 .67.22c.2.17.3.43.3.76v.88c0 .2 0 .34.03.42.03.06.08.1.15.12.04.01.06.02.06.04h-.48a6.36 6.36 0 0 0-.36 0h-.16c0-.02.02-.03.04-.03.17-.02.25-.2.25-.55v-.88c0-.24-.05-.43-.15-.59a.58.58 0 0 0-.52-.27.6.6 0 0 0-.56.35c-.1.2-.16.48-.16.84v.55c0 .17.02.3.04.36.03.1.09.16.18.18.04 0 .05.01.05.02 0 .02-.01.03-.04.03h-.1l-.05-.01a6.66 6.66 0 0 0-.7 0h-.1c-.03 0-.04 0-.04-.02 0 0 .02-.02.05-.02.1-.02.17-.08.2-.18.03-.07.04-.19.04-.36v-2.17zM62.87 58.9c0-.1-.02-.17-.06-.22a.15.15 0 0 0-.05-.05l-.03-.01-.07-.03-.03-.01.03-.01.05-.01.62-.15v1.81c0 .16.02.28.04.36.04.1.1.15.2.17.03 0 .05.02.05.04 0 .01-.03.02-.07.02h-.1l-.05-.01a6.26 6.26 0 0 0-.66 0h-.16c0-.03.01-.04.04-.05.1-.02.17-.07.2-.17.03-.08.05-.2.05-.36V58.9zm-.08-1.05c0-.18.1-.27.27-.27.18 0 .27.09.27.27 0 .18-.09.27-.27.27-.18 0-.27-.1-.27-.27zM65.23 59c.15-.43.46-.64.92-.64.47 0 .74.21.82.64.13-.43.43-.64.9-.64.11 0 .21.02.3.05.1.03.2.08.28.15.17.17.26.45.26.83v.97c0 .23.06.36.18.4l.04.01.02.02-.02.02h-.04l-.41-.02a6.65 6.65 0 0 0-.37.01h-.09L68 60.8c0-.01 0-.02.03-.03.15-.04.23-.26.23-.64v-.92a.9.9 0 0 0-.13-.5.5.5 0 0 0-.44-.22c-.24 0-.42.13-.55.39a1.97 1.97 0 0 0-.14.71v.77c0 .24.07.38.2.4.04 0 .05.02.05.04l-.01.01H67.06a5.74 5.74 0 0 0-.64 0h-.14c0-.02.01-.03.03-.03.15-.05.22-.23.22-.55V59.2a.9.9 0 0 0-.12-.5.5.5 0 0 0-.44-.22c-.25 0-.43.13-.55.39a2.06 2.06 0 0 0-.14.71v.64c0 .16.02.28.04.36.03.1.1.16.18.18.01 0 .02.01.02.03 0 .01-.02.02-.06.02l-.19-.01H64.64c0-.02 0-.03.03-.04.06-.02.1-.1.12-.23l.02-.22v-1.4-.05l-.02-.1c-.02-.08-.06-.13-.13-.14h-.02l-.03-.01-.02-.01c0-.02 0-.02.02-.03l.05-.01c.23-.05.42-.1.57-.15V59zM72.53 58.72c.25-.24.57-.36.96-.36.4 0 .71.12.97.36.25.23.38.53.38.9s-.13.66-.38.89c-.26.24-.58.35-.97.35s-.7-.11-.96-.35a1.16 1.16 0 0 1-.38-.9c0-.36.13-.66.38-.9zm.18 1.3c.02.15.06.27.12.37.14.26.36.39.66.39.31 0 .53-.13.67-.39.06-.1.1-.22.12-.37a2.29 2.29 0 0 0-.12-1.19.7.7 0 0 0-.67-.38.7.7 0 0 0-.66.38c-.06.1-.1.23-.12.38a2.55 2.55 0 0 0 0 .81zM76.51 59.07h.01a.98.98 0 0 1 .28-.5c.15-.14.37-.2.65-.2a1 1 0 0 1 .67.21c.2.17.3.43.3.77v.87c0 .2 0 .34.03.42.03.06.08.1.15.12l.06.04h-.48a6.34 6.34 0 0 0-.36 0h-.16c0-.02.02-.03.04-.03.17-.02.25-.2.25-.55v-.88c0-.23-.05-.43-.15-.59a.58.58 0 0 0-.52-.27.6.6 0 0 0-.56.35c-.1.2-.16.49-.16.84v.55c0 .17.01.3.04.36.02.1.09.16.18.18.03 0 .05.01.05.03 0 .01-.01.02-.04.02H76.64a6.68 6.68 0 0 0-.64 0h-.16c-.03 0-.04 0-.04-.02s.02-.03.05-.03c.1-.02.17-.08.2-.18.03-.07.04-.19.04-.36V59.1c0-.28-.05-.44-.16-.48l-.08-.05.09-.02.3-.06.27-.08v.66zM80.31 60.22c0 .17.02.29.04.35.04.1.11.16.22.2.02 0 .03.02.03.03H80.49a7.64 7.64 0 0 0-.73 0h-.2c0-.01 0-.02.03-.03.11-.05.19-.12.22-.2.02-.07.04-.18.04-.35v-2.17c0-.2-.06-.32-.16-.34h-.04l-.03-.03c0-.01.01-.02.03-.02l.04-.01.62-.15v2.72zM81.85 58.9c0-.1-.01-.17-.05-.22a.16.16 0 0 0-.05-.05l-.03-.01-.07-.03-.03-.01.03-.01.05-.01.62-.15v1.81c0 .16.02.28.04.36.04.1.1.15.2.17.03 0 .05.02.05.04 0 .01-.03.02-.07.02h-.1l-.05-.01a6.3 6.3 0 0 0-.66 0h-.16c0-.03.01-.04.04-.05.1-.02.17-.07.2-.17.03-.08.04-.2.04-.36V58.9zm-.07-1.05c0-.18.09-.27.27-.27.18 0 .27.09.27.27 0 .18-.09.27-.27.27-.18 0-.27-.1-.27-.27zM84.22 59.07a.98.98 0 0 1 .28-.5c.16-.14.37-.2.65-.2a1 1 0 0 1 .67.21c.2.17.3.43.3.77v.87c0 .2 0 .34.04.42.02.06.07.1.14.12l.06.04H85.89a6.34 6.34 0 0 0-.37 0H85.37c0-.02.01-.03.04-.03.16-.02.24-.2.24-.55v-.88c0-.23-.05-.43-.15-.59a.58.58 0 0 0-.51-.27.6.6 0 0 0-.57.35c-.1.2-.15.49-.15.84v.55c0 .17 0 .3.03.36.03.1.1.16.19.18.03 0 .05.01.05.03 0 .01-.02.02-.05.02H84.34a6.68 6.68 0 0 0-.7 0h-.1c-.02 0-.04 0-.04-.02s.02-.03.05-.03c.1-.02.18-.08.21-.18.02-.07.04-.19.04-.36V59.1c0-.28-.06-.44-.16-.48l-.08-.05.08-.02.3-.06c.11-.02.2-.05.28-.08v.66zM87.84 59.3l-.01.29c0 .4.09.7.27.9.16.17.36.26.6.26a1 1 0 0 0 .68-.24c.18-.16.3-.38.39-.65h.1c-.16.67-.57 1-1.22 1-.4 0-.71-.11-.97-.35a1.16 1.16 0 0 1-.38-.9c0-.36.13-.66.38-.9.26-.23.58-.35.97-.35.27 0 .52.08.74.23.24.18.38.41.41.7h-1.96zm1.39-.1a.83.83 0 0 0-.16-.54c-.12-.14-.3-.21-.52-.21a.6.6 0 0 0-.48.23c-.11.14-.18.32-.21.53h1.37zM95.38 59c-.03.07-.04.11-.06.11l-.01-.01v-.02l-.01-.02a.96.96 0 0 0-.29-.43.83.83 0 0 0-.55-.18.69.69 0 0 0-.62.37c-.13.21-.19.47-.19.8 0 .37.1.66.28.87.16.17.36.26.6.26a1.1 1.1 0 0 0 .91-.6l.07.07c-.25.43-.6.64-1.04.64-.39 0-.71-.12-.96-.35a1.16 1.16 0 0 1-.39-.9c0-.36.13-.66.39-.9.25-.23.57-.35.96-.35a2.17 2.17 0 0 1 1.01.27l-.1.36zM96.75 58.05c0-.22-.05-.33-.15-.35h-.05l-.02-.02.02-.02.06-.01.6-.15v1.49h.02c.11-.42.4-.63.87-.63a1 1 0 0 1 .68.22c.2.17.3.43.3.76v.88c-.01.2 0 .34.03.42.02.06.07.1.15.12.03.01.05.02.05.04h-.47a6.34 6.34 0 0 0-.36 0h-.16c0-.02.01-.03.04-.03.16-.02.25-.2.25-.55v-.88c0-.24-.05-.43-.16-.59a.58.58 0 0 0-.51-.27.6.6 0 0 0-.56.35c-.1.2-.16.48-.16.84v.55c0 .17.01.3.03.36.03.1.1.16.19.18.03 0 .05.01.05.02 0 .02-.01.03-.04.03h-.1l-.05-.01a6.63 6.63 0 0 0-.7 0h-.1c-.03 0-.04 0-.04-.02 0 0 .01-.02.05-.02.1-.02.17-.08.2-.18.03-.07.04-.19.04-.36v-2.17zM102.52 60.4c0 .18.05.3.16.35l.03.01.02.02s-.03.02-.07.02h-.49c-.06-.15-.1-.3-.1-.47h-.01a.87.87 0 0 1-.84.53c-.27 0-.49-.06-.66-.17a.66.66 0 0 1-.3-.58c0-.17.06-.3.17-.42.1-.09.24-.17.41-.22a2.49 2.49 0 0 1 .75-.12h.46v-.16c0-.22-.06-.4-.16-.53-.12-.14-.28-.21-.5-.21-.41 0-.69.17-.83.52l-.02.04v.02l-.02.02-.02-.05-.12-.4c.17-.1.35-.16.52-.2.15-.02.33-.04.55-.04.3 0 .54.06.73.17.22.13.34.33.34.6v1.27zm-.9-3.05l.56.78h-.22l-.52-.45-.52.45h-.22l.56-.78h.35zm.43 2.08h-.27c-.14 0-.25.01-.36.03a1 1 0 0 0-.32.12c-.21.12-.31.32-.31.6 0 .16.05.3.16.4.1.12.24.17.4.17a.6.6 0 0 0 .55-.34c.05-.09.09-.2.12-.32.02-.1.03-.22.03-.34v-.32zm-.22-1.9l.64-.69a.54.54 0 0 1 .1-.08.23.23 0 0 1 .12-.04c.14 0 .21.07.21.21 0 .06-.03.12-.1.16l-.74.44h-.23zM103.8 58.7c-.02 0-.04-.02-.04-.05 0-.02.03-.04.1-.06.26-.1.47-.31.64-.65.01-.03.03-.05.05-.05l.02.02v.63h.5l-.03.15h-.47v1.29c0 .27.03.47.1.59.03.08.1.14.2.17l.04.04s-.02.02-.07.02h-.55c-.12-.06-.19-.18-.19-.34V58.7h-.3zM108.97 60.22c0 .17 0 .29.03.35.04.1.11.16.23.2l.02.03H109.1a7.67 7.67 0 0 0-.73 0H108.2l.03-.03c.11-.05.19-.12.22-.2.02-.07.04-.18.04-.35v-2.17c0-.2-.05-.32-.16-.34h-.04l-.02-.03c0-.01 0-.02.02-.02l.04-.01.63-.15v2.72zM112.72 58.83v1.39c0 .32.08.5.25.54.02 0 .03.01.03.02 0 0-.02.02-.06.02h-.55c-.06-.16-.1-.33-.11-.53h-.01c-.15.4-.44.6-.89.6-.33 0-.58-.08-.72-.22-.17-.16-.25-.41-.25-.77v-.92c0-.2-.04-.33-.14-.36-.05-.01-.07-.02-.07-.04l.07-.01a2.97 2.97 0 0 0 .61-.14v1.48c0 .23.05.43.15.59.12.18.3.27.52.27.22 0 .4-.1.53-.28.11-.16.17-.36.17-.6v-.9a.78.78 0 0 0-.04-.28.19.19 0 0 0-.1-.1l-.05-.04.03-.01.31-.06.32-.07v.3a.86.86 0 0 0 .18-.26c-.2-.07-.27-.2-.2-.37.06-.17.18-.23.34-.16.18.06.22.2.14.41a.9.9 0 0 1-.27.36l-.19.14zM116.33 58.77c.22.23.32.5.32.84 0 .37-.12.67-.38.9-.25.24-.57.36-.96.36-.4 0-.71-.12-.97-.36a1.16 1.16 0 0 1-.38-.9c0-.36.13-.66.38-.9.26-.23.58-.35.97-.35.37 0 .68.11.93.33a.82.82 0 0 0 .18-.24c-.2-.07-.27-.2-.2-.37.06-.17.18-.23.34-.16.18.06.22.2.14.42a.9.9 0 0 1-.27.35l-.1.08zm-1.8 1.25c.01.15.05.27.11.37a.7.7 0 0 0 .67.39c.3 0 .53-.13.66-.39.06-.1.1-.22.13-.37a2.39 2.39 0 0 0 0-.81 1.31 1.31 0 0 0-.13-.38.7.7 0 0 0-.66-.38.7.7 0 0 0-.67.38c-.06.1-.1.23-.12.38a2.32 2.32 0 0 0 0 .81zm1.05 1.31c0 .18-.09.27-.27.27-.18 0-.27-.09-.27-.27 0-.18.09-.27.27-.27.18 0 .27.09.27.27zM118.33 59.07a.98.98 0 0 1 .28-.5c.16-.14.37-.2.65-.2a1 1 0 0 1 .67.21c.2.17.3.43.3.77v.87c0 .2 0 .34.04.42.02.06.07.1.14.12l.06.04H120a6.34 6.34 0 0 0-.37 0H119.48c0-.02 0-.03.03-.03.17-.02.25-.2.25-.55v-.88c0-.23-.05-.43-.15-.59a.58.58 0 0 0-.52-.27.6.6 0 0 0-.56.35c-.1.2-.16.49-.16.84v.55c0 .17.02.3.04.36.03.1.09.16.18.18.04 0 .05.01.05.03 0 .01 0 .02-.04.02H118.45a6.66 6.66 0 0 0-.7 0h-.1c-.02 0-.04 0-.04-.02s.02-.03.05-.03c.1-.02.18-.08.21-.18.02-.07.04-.19.04-.36V59.1c0-.28-.06-.44-.16-.48l-.08-.05.08-.02.3-.06c.11-.02.2-.05.28-.08v.66zM123.88 58.5l-.03-.02-.02-.02-.1-.08a.5.5 0 0 0-.29-.08c-.14 0-.23.05-.27.14l.25.14.2.14a.69.69 0 0 1 .07.88.89.89 0 0 1-.29.26 1.5 1.5 0 0 1-.73.19h-.16l-.14.01c-.1.02-.15.06-.15.11 0 .07.07.11.2.13l.19.03h.1l.26.01.2.02c.15.02.29.05.4.09.14.04.25.1.33.19.08.1.13.2.13.35 0 .2-.14.37-.4.5a2 2 0 0 1-.93.2c-.43 0-.77-.05-1.02-.16-.22-.1-.34-.22-.34-.36 0-.12.04-.22.1-.3a.63.63 0 0 1 .24-.17c.08-.03.17-.06.28-.08l.24-.03v-.01h-.06l-.07-.02a.87.87 0 0 1-.15-.04c-.12-.04-.18-.1-.18-.18 0-.1.08-.18.23-.25a1.27 1.27 0 0 1 .33-.08V60a.97.97 0 0 1-.56-.26.65.65 0 0 1-.22-.54c0-.14.04-.27.12-.39.07-.1.17-.19.3-.26a1.5 1.5 0 0 1 1-.16l.15.03c.16-.15.3-.26.42-.32.13-.05.3-.08.52-.08l-.15.48zm-1.31 2.15h-.15a1.2 1.2 0 0 0-.3.06c-.21.07-.32.21-.32.42 0 .2.1.34.33.41.08.03.18.05.3.06h.14l.13.01c.25 0 .46-.04.63-.12.18-.09.27-.2.27-.36 0-.18-.1-.32-.33-.4a2.2 2.2 0 0 0-.57-.08h-.13zm.58-.9c.1-.14.17-.32.19-.55a.94.94 0 0 0-.19-.54.58.58 0 0 0-.48-.21c-.2 0-.36.07-.48.21a.94.94 0 0 0-.19.54c.02.23.08.41.2.55.1.14.27.2.47.2.2 0 .37-.06.48-.2zM129.49 59l-.06.11-.01-.01v-.02l-.02-.02a.96.96 0 0 0-.28-.43.83.83 0 0 0-.55-.18.7.7 0 0 0-.63.37c-.12.21-.18.47-.18.8 0 .37.1.66.28.87.16.17.36.26.6.26a1.08 1.08 0 0 0 .91-.6l.07.07c-.25.43-.6.64-1.04.64-.4 0-.71-.12-.97-.35a1.16 1.16 0 0 1-.38-.9c0-.36.13-.66.38-.9.26-.23.58-.35.97-.35a2.17 2.17 0 0 1 1.01.27l-.1.36zM132.94 60.4c0 .18.05.3.16.35l.03.01.02.02s-.02.02-.07.02h-.49c-.06-.15-.1-.3-.1-.47h-.01a.87.87 0 0 1-.84.53c-.27 0-.49-.06-.66-.17a.66.66 0 0 1-.3-.58c0-.17.05-.3.17-.42.1-.09.24-.17.41-.22a2.48 2.48 0 0 1 .75-.12h.46v-.16c0-.22-.06-.4-.16-.53-.12-.14-.28-.21-.5-.21-.41 0-.69.17-.83.52l-.02.04v.02l-.02.02-.02-.05-.12-.4c.17-.1.35-.16.52-.2.15-.02.33-.04.55-.04.3 0 .54.06.73.17.22.13.34.33.34.6v1.27zm-.47-.97h-.27c-.13 0-.25.01-.36.03-.13.03-.23.07-.32.12-.21.12-.32.32-.32.6 0 .16.06.3.17.4.1.12.24.17.4.17a.6.6 0 0 0 .55-.34c.05-.09.09-.2.11-.32.03-.1.04-.22.04-.34v-.32zM134.6 58.72c.25-.24.57-.36.96-.36s.7.12.96.36c.26.23.39.53.39.9s-.13.66-.39.89c-.25.24-.57.35-.96.35-.4 0-.71-.11-.96-.35a1.16 1.16 0 0 1-.39-.9c0-.36.13-.66.38-.9zm.17 1.3c.03.15.07.27.12.37.14.26.36.39.67.39a.7.7 0 0 0 .67-.39c.05-.1.1-.22.12-.37a2.29 2.29 0 0 0-.12-1.19.7.7 0 0 0-.67-.38.7.7 0 0 0-.67.38c-.05.1-.1.23-.12.38a2.44 2.44 0 0 0 0 .81z"/></g><path fill="#F6F6F6" d="M40.03 54.11h96.88v.84H40.03z"/></svg>