<svg xmlns="http://www.w3.org/2000/svg" width="150" height="93.8"><path fill="#232323" d="M0 0h150v93.8H0z"/><path fill="#FFF" d="M41.8 50.8l.3.4h-1.8l.2-.4v-9.6c0-.1 0-.3-.2-.4h3.4c.6 0 1.2.2 1.8.5.7.6 1.1 1.3 1.2 2.3 0 .8-.2 1.6-.8 2.3s-1.2 1-2 1c-.4 0-.7-.1-1-.3.5 0 .9-.2 1.2-.4.8-.5 1.2-1.3 1.3-2.4 0-.8-.2-1.5-.8-2a2 2 0 0 0-1.4-.6h-1.4v9.6zM59 41.2v9.6l.2.4h-1.8l.2-.4v-5.1h-6.8v5c0 .2.1.3.3.5h-1.8l.2-.4v-9.6c0-.1 0-.3-.2-.4H51c-.2.1-.3.3-.3.4v4h6.8v-4c0-.1 0-.3-.2-.4h1.8c-.2.1-.2.3-.2.4zM63.4 41.2v9.6l.2.4h-1.8l.2-.4v-9.6c0-.1 0-.3-.2-.4h1.8c-.2.1-.2.3-.2.4zM71.8 51.4l-4-8.9-.8 8.3c0 .2.1.3.4.4h-1.2.1c.2-.2.2-.3.2-.5l1-9.2-.2-.4a1 1 0 0 0-.4-.3h1.7v.4l3.6 8 3.6-8c0-.1 0-.3-.3-.4h1.9l-.2.4 1 9.6s0 .2.3.4h-1.9c.2-.1.2-.3.2-.4L76 42l-4.2 9.3zM86.7 51.4l-4-8.9-.8 8.3c0 .2.1.3.4.4H81h.1c.2-.2.2-.3.2-.5l1-9.2-.2-.4a1 1 0 0 0-.4-.3h1.7v.4l3.6 8 3.6-8c0-.1 0-.3-.3-.4h1.9l-.2.4 1 9.6s0 .2.3.4h-1.9c.2-.1.2-.3.2-.4L91 42l-4.2 9.3zM107.4 46c0 1.5-.6 2.8-1.7 3.8a5.6 5.6 0 0 1-4 1.6c-1.6 0-3-.5-4-1.6A5.1 5.1 0 0 1 96 46c0-1.5.5-2.8 1.6-3.8a6 6 0 0 1 8.1 0c1.1 1 1.7 2.3 1.7 3.8zm-1.3.1c0-1.5-.3-2.7-1-3.6-.9-1-2-1.5-3.4-1.5a4 4 0 0 0-3.3 1.4c-.8 1-1.2 2.2-1.2 3.6 0 1.3.4 2.5 1.3 3.5a4 4 0 0 0 3.2 1.5c1.2 0 2.2-.5 3.1-1.5s1.3-2 1.3-3.4zM111.5 41.2v9.6s0 .2.3.4h-1.9l.3-.4v-9.6c0-.1 0-.3-.3-.4h1.9c-.2.1-.3.3-.3.4z"/><path fill="#DACB46" d="M114.3 51.1l.9-1 .8 1-.8 1-.9-1zM125.3 51.4l-6-6.3v5.8c0 .2 0 .3.2.3h-.8c.2 0 .3-.2.3-.3v-6.1l-.4-.6h1.4a.4.4 0 0 0 0 .4l5 5.2v-5.2c0-.2 0-.3-.2-.4h.8c-.2.1-.3.2-.3.4v6.8zM128.3 44.6v3h2s.2 0 .2-.2v.9c0-.2-.2-.3-.3-.3h-1.9v3h2l.4-.3-.1.5h-3.3l.2-.3v-6.3l-.2-.4h3.2v.6c0-.2-.2-.2-.3-.2h-1.9zM136.1 44.6v6.3c0 .1 0 .2.2.3H135l.1-.3v-6.3h-2.5c-.1 0-.2 0-.3.2v-.6h6.5v.6c-.1-.2-.2-.2-.3-.2H136z"/><g fill="#44E2FF"><path d="M41 57.4l.7-1a32.4 32.4 0 0 0-1.1-1.6l-.3-.2a13.7 13.7 0 0 0 1.1 0l-.1.2v.2l.7 1a43.9 43.9 0 0 0 .7-1.2l-.1-.2h1c-.2 0-.3.1-.3.2l-.3.3-.9 1.2a39.6 39.6 0 0 0 1.5 1.8 12 12 0 0 0-1.1 0V58v-.2l-.6-1a63.2 63.2 0 0 0-.8 1.2l.1.2a9.9 9.9 0 0 0-1 0c.2 0 .3-.1.5-.3l.3-.4zM46.4 56.5h-2.3v.3c0 .3 0 .6.3.8s.4.3.7.3c.5 0 1-.1 1.2-.5l-.5.6-.8.2c-.3 0-.6-.2-.9-.4-.3-.3-.4-.6-.4-1s.1-.7.4-1c.2-.2.6-.3 1-.3.3 0 .6 0 .8.3.3.2.4.4.5.7zm-.5-.2c0-.2-.2-.3-.4-.5s-.3-.1-.5-.1l-.5.1c-.2.1-.2.3-.3.5H46zM51.2 58v.1h-.8l.1-.5v-1.1c0-.2 0-.4-.2-.5a.6.6 0 0 0-.5-.3c-.2 0-.3 0-.5.2l-.2.5v1.2c0 .4 0 .5.3.5a10.7 10.7 0 0 0-1 0c.2 0 .3-.1.3-.5v-1.1l-.2-.5a.6.6 0 0 0-.5-.3c-.2 0-.4 0-.5.2l-.3.5v1.2c0 .4.1.5.4.5a10.2 10.2 0 0 0-1 0l.2-.2V56v-.3l-.2-.2h.6v.4c.2-.3.5-.4.9-.4l.5.1.4.4a1 1 0 0 1 .9-.5c.3 0 .5.1.7.3.2.1.3.4.3.6v1.2c0 .3.1.5.3.5zM55.6 56.7c0 .4-.2.7-.4 1-.3.3-.6.4-1 .4-.2 0-.5 0-.7-.3v1c0 .3.1.4.3.4a9.5 9.5 0 0 0-1 0c.1 0 .2 0 .3-.2v-2.8-.5c0-.2-.2-.2-.2-.2h.6v.2l.8-.2c.3 0 .7 0 1 .3.2.3.3.6.3 1zm-.5 0c0-.3 0-.5-.2-.7a.8.8 0 0 0-.6-.3c-.4 0-.6 0-.8.4v1.4c.2.2.4.4.7.4.3 0 .5-.1.7-.4.2-.2.2-.5.2-.8zM58.6 58v.1h-.8v-1.6-.5l-.6-.3c-.2 0-.4 0-.5.2l-.3.5v1.2c0 .4.2.5.4.5a10.2 10.2 0 0 0-1 0c.2 0 .3-.1.3-.5v-2.5l-.1-.3-.2-.2.7-.1v1.4c.1-.3.4-.4.8-.4.3 0 .5.1.7.3.2.1.3.3.3.6v1.2c0 .3 0 .5.3.5zM59.6 58v.1a10.2 10.2 0 0 0-1 0c.2 0 .3-.1.3-.5V56v-.3l-.2-.2c.2 0 .4 0 .7-.2V58l.2.2zm-.2-3.1l-.1.2h-.5v-.2-.2l.3-.1h.2v.3zM64.5 58v.1h-.8v-1.6-.5a.6.6 0 0 0-.6-.3c-.2 0-.4 0-.5.2l-.3.5v1.2c0 .4.2.5.4.5a10.7 10.7 0 0 0-1 0c.1 0 .2-.1.2-.5v-1.1l-.1-.5a.6.6 0 0 0-.5-.3c-.2 0-.4 0-.5.2l-.3.5v1.2c0 .4.1.5.3.5a10.2 10.2 0 0 0-1 0c.1 0 .2 0 .3-.2V56v-.3l-.2-.2h.6v.4c.2-.3.5-.4.8-.4l.6.1.3.4a1 1 0 0 1 1-.5c.3 0 .5.1.7.3.2.1.3.4.3.6v1.2c0 .3 0 .5.3.5zM70.9 58v.1H70v-1.6L70 56a.7.7 0 0 0-1 0c-.2 0-.3.2-.3.4v1.2c0 .4.1.5.3.5a10.7 10.7 0 0 0-1 0c.2 0 .3-.1.3-.5v-1.1c0-.2 0-.4-.2-.5a.6.6 0 0 0-.4-.3c-.3 0-.4 0-.6.2l-.2.5v1.2c0 .4 0 .5.3.5a10.2 10.2 0 0 0-1 0s.2 0 .2-.2V56v-.3l-.2-.2h.7v.4c.2-.3.4-.4.8-.4l.6.1c.2.1.2.3.3.4a1 1 0 0 1 1-.5c.2 0 .5.1.7.3.2.1.2.4.2.6v1.2c0 .3.1.5.4.5zM73 55.7l.2.1c.3.3.4.6.4 1s-.1.7-.4 1-.6.4-1 .4-.7-.2-1-.4c-.2-.3-.3-.6-.3-1s.1-.7.4-1c.2-.2.5-.4 1-.4l.7.3.2-.2-.2-.1V55l.1-.1h.2l.2.2v.2l-.4.3zm.2 1.1c0-.3-.1-.6-.3-.8s-.4-.4-.7-.4c-.2 0-.5.1-.6.4s-.3.5-.3.8c0 .3 0 .6.3.8.1.3.4.4.6.4.3 0 .5-.1.7-.4.2-.2.3-.5.3-.8zm-.3-2.3l-.1.1a47.6 47.6 0 0 0-.5.5H72h.1l.2-.4.1-.1h.5zM74.8 58v.1a10.2 10.2 0 0 0-1 0c.2 0 .3-.1.3-.5V56v-.3l-.2-.2c.2 0 .4 0 .6-.2V58l.3.2zm-.3-3.1v.2a.3.3 0 0 1-.5 0v-.2-.2l.2-.1h.3v.3zM79.3 57.4l-.5.5a1.5 1.5 0 0 1-1.8-.1c-.2-.3-.4-.7-.3-1.1 0-.4.2-.7.5-1l1-.2c.3 0 .7 0 1 .2a4.3 4.3 0 0 0 0 .6c0-.2-.2-.4-.4-.5l-.6-.1a1 1 0 0 0-.7.2 1 1 0 0 0-.4.8c0 .3 0 .6.3.9s.4.3.8.3h.4l.7-.5zM82.2 58v.1h-.8v-1.6c0-.2 0-.4-.2-.5l-.4-.3c-.2 0-.4 0-.6.2l-.2.5v1.2c0 .4 0 .5.3.5a10.2 10.2 0 0 0-1 0c.2 0 .3-.1.3-.5v-2.5-.3l-.2-.2.6-.1v1.4c.2-.3.5-.4.8-.4.3 0 .6.1.8.3l.2.6v1.2c0 .3.1.5.4.5z"/><path d="M84.8 58v.1H84a.4.4 0 0 1-.2-.3s-.1.2-.3.2l-.5.1a1 1 0 0 1-.7-.2.7.7 0 0 1 0-1l.4-.2.4-.1.5-.2c.2 0 .2-.1.2-.3l-.1-.3a.6.6 0 0 0-.4-.2h-.2l-.3.2-.4.2c-.1 0-.2 0-.2-.2l.7-.3h.4c.3 0 .5 0 .7.2s.2.3.2.5v1.6l.2.2.2.1h.1zm-.7-2.8h-.3-.2l-.3-.4-.3.4h-.2-.3l.3-.1.5-.5.6.5h.2zm-.2 2v-.6l-.8.2-.4.2c0 .2-.1.3 0 .4l.1.4.4.1h.2c.2 0 .3-.1.4-.3l.1-.3zm.5-3.1a35.3 35.3 0 0 0-.5.6h-.3l.3-.5h.1l.4-.1zM87 57.6s0 .2-.2.3l-.4.2h-.2c-.3 0-.4 0-.6-.2a.7.7 0 0 1-.2-.5v-1.7h-.5c.3-.2.6-.5.9-1v.8h.9l-.4.2h-.5v1.6l.1.5.4.2c.3 0 .5-.2.7-.4zM89.7 58v.1a10.2 10.2 0 0 0-1 0c.2 0 .3-.1.3-.5v-2.5-.3l-.3-.2.7-.1v3.1c0 .4 0 .5.3.5zM92.4 55.7V57.9l.2.2H92v-.4a1 1 0 0 1-.8.4 1 1 0 0 1-.7-.3.8.8 0 0 1-.3-.6V56c0-.3-.1-.5-.3-.5h.7V57.1c0 .2 0 .4.2.6l.4.2c.2 0 .4 0 .6-.2l.2-.4V56c0-.3 0-.5-.3-.5h.7v-.1c-.2-.1-.2-.2-.1-.3l.1-.1h.2l.2.2v.2l-.4.3zM95 55.7v.1c.4.3.5.6.5 1s-.1.7-.4 1c-.3.2-.6.4-1 .4-.3 0-.7-.2-1-.4s-.3-.6-.3-1 .1-.7.4-1 .6-.4 1-.4l.7.3.2-.2-.2-.1V55l.1-.1h.2l.2.2v.2l-.4.3zm0 1.1c0-.3 0-.6-.2-.8a.8.8 0 0 0-.7-.4c-.2 0-.4.1-.6.4s-.3.5-.3.8c0 .3 0 .6.3.8.2.3.4.4.6.4.3 0 .5-.1.7-.4.2-.2.3-.5.3-.8zm-.6 1.8l-.1.2H94h-.2v-.2-.2h.4v.2zM98.6 58v.1h-.8v-1.6l-.1-.5a.6.6 0 0 0-.5-.3c-.2 0-.4 0-.5.2l-.3.5v1.2c0 .4.1.5.3.5a10.2 10.2 0 0 0-1 0c.2 0 .3-.1.3-.5V56v-.3l-.2-.2h.6v.4c.2-.3.5-.4.8-.4.4 0 .6 0 .8.3.2.1.3.3.3.6v1.2c0 .3 0 .5.3.5zM101.6 55.5l-.1.1h-.6-.1-.2l.3.6c0 .2 0 .4-.3.6l-.7.2h-.5-.1v.1c0 .1 0 .2.2.2h.8l.6.3c.2.1.2.3.2.5 0 .3-.1.6-.5.7a1.8 1.8 0 0 1-1.5.2c-.3-.2-.5-.4-.5-.7 0-.2 0-.3.2-.4l.4-.3c-.2 0-.3-.2-.3-.3V57l.3-.1c-.2-.2-.4-.4-.4-.7 0-.2.2-.4.4-.5l.6-.3c.3 0 .5 0 .7.2a.8.8 0 0 1 .6-.2h.5zm-1.3 2.3l-.8-.1-.4.2-.1.3c0 .2 0 .4.2.5l.8.2c.2 0 .4-.1.5-.3.2-.1.3-.3.3-.4 0-.2-.2-.4-.5-.4zm.2-1.6c0-.1 0-.3-.2-.4a.6.6 0 0 0-.4-.2c-.2 0-.3 0-.5.2l-.1.4.1.4c.2.2.3.2.5.2.1 0 .3 0 .4-.2l.2-.4zM106 57.4h-.1c-.1.3-.3.4-.5.5a1.5 1.5 0 0 1-1.7-.1c-.3-.3-.4-.7-.4-1.1 0-.4.2-.7.5-1l1-.2c.3 0 .7 0 1 .2a4.3 4.3 0 0 0 0 .6c0-.2-.2-.4-.3-.5l-.7-.1a1 1 0 0 0-.7.2 1 1 0 0 0-.4.8c0 .3 0 .6.3.9s.5.3.8.3h.5l.6-.5z"/><path d="M108.6 58v.1h-.7a.4.4 0 0 1-.2-.3s-.1.2-.3.2l-.5.1a1 1 0 0 1-.7-.2.7.7 0 0 1 0-1l.3-.2.5-.1.5-.2c.1 0 .2-.1.2-.3l-.1-.3a.6.6 0 0 0-.4-.2h-.2l-.3.2-.4.2c-.1 0-.2 0-.2-.2l.7-.3h.4c.2 0 .5 0 .7.2s.2.3.2.5v1.6l.2.2.2.1h.1zm-.9-.7v-.7l-.8.2-.4.2-.1.4c0 .2 0 .3.2.4l.4.1h.2c.2 0 .3-.1.4-.3l.1-.3zM111.4 56.8c0 .4-.2.7-.4 1-.3.2-.6.4-1 .4s-.7-.2-1-.4-.3-.6-.3-1 0-.7.3-1 .6-.4 1-.4.7.2 1 .4c.2.3.4.6.4 1zm-.5 0c0-.3 0-.6-.2-.8a.8.8 0 0 0-.7-.4c-.2 0-.5.1-.6.4s-.3.5-.3.8c0 .3 0 .6.3.8.1.3.4.4.6.4.3 0 .5-.1.7-.4.2-.2.2-.5.2-.8z"/></g><g><path fill="#FFF" d="M23 59.9A11.9 11.9 0 1 1 23 36a11.9 11.9 0 0 1 0 23.8zm0-23a11 11 0 1 0 0 22 11 11 0 0 0 0-22z"/><path fill="#FFF" d="M27.6 45.7l1.7 1.9h-2.6L25 45.7h-1.8l1.8 1.9h-2.7l-1.7-1.9h-1.3l1.7 1.9h-2.6l-1.8-1.9h-.1V55h13.1v-9.3z"/><g fill="#FFF"><path d="M25.1 44l2.6-.3 1.5-2.1-2.6.4zM21.2 44.5l2.6-.3 1.5-2.1-2.6.3zM16.8 45l2.7-.3 1.5-2.1-2.7.3z"/></g></g></svg>