<?xml version="1.0" encoding="utf-8"?>
<!-- Generator: Adobe Illustrator 16.0.0, SVG Export Plug-In . SVG Version: 6.00 Build 0)  -->
<!DOCTYPE svg PUBLIC "-//W3C//DTD SVG 1.1//EN" "http://www.w3.org/Graphics/SVG/1.1/DTD/svg11.dtd">
<svg version="1.1" id="Layer_1" xmlns="http://www.w3.org/2000/svg" xmlns:xlink="http://www.w3.org/1999/xlink" x="0px" y="0px"
	 width="150px" height="93.795px" viewBox="0 0 150 93.795" enable-background="new 0 0 150 93.795" xml:space="preserve">
<rect fill="#FFFFFF" width="150" height="93.795"/>
<g>
	<path fill="#E12826" d="M44.861,63.944l0.782-3.039l3.039,0.781L47.9,64.725L44.861,63.944z M40.991,53.026l-4.007,15.572
		l15.57,4.008l4.007-15.572L40.991,53.026z"/>
	<path fill="#E12826" d="M72.751,35.936l1.056-4.105l4.106,1.056l-1.058,4.104L72.751,35.936z M67.523,21.189L62.11,42.221
		l21.033,5.413l5.412-21.032L67.523,21.189z"/>
	<g>
		<g>
			<defs>
				<rect id="SVGID_1_" x="18.81" y="53.026" width="112.381" height="19.58"/>
			</defs>
			<clipPath id="SVGID_2_">
				<use xlink:href="#SVGID_1_"  overflow="visible"/>
			</clipPath>
			<path clip-path="url(#SVGID_2_)" fill="#E12826" d="M29.32,54.772c4.057,0,5.848,2.416,5.848,4.812
				c0,1.489-0.647,2.742-1.834,3.561c1.726,1.965,2.784,4.619,3.107,7.705h-7.38c-0.302-4.271-1.208-5.957-3.13-5.957v5.957H18.81
				V54.772H29.32z M25.931,61.181h0.194c1.295,0,1.921-0.475,1.921-1.511c0-0.69-0.345-1.597-1.684-1.597h-0.431V61.181z"/>
		</g>
		<g>
			<defs>
				<rect id="SVGID_3_" x="18.81" y="53.026" width="112.381" height="19.58"/>
			</defs>
			<clipPath id="SVGID_4_">
				<use xlink:href="#SVGID_3_"  overflow="visible"/>
			</clipPath>
			<path clip-path="url(#SVGID_4_)" fill="#E12826" d="M68.279,54.772c5.201,0,6.236,2.633,6.236,4.487
				c0,1.316-0.474,2.525-2.093,3.452c2.028,1.08,2.525,2.311,2.525,3.691c0,2.48-1.748,4.445-5.503,4.445H58.222V54.772H68.279z
				 M65.343,61.138h0.172c1.555,0,2.137-0.432,2.137-1.574c0-0.887-0.432-1.555-1.877-1.555h-0.432V61.138z M65.343,67.309h0.215
				c1.641,0,2.267-0.453,2.267-1.66c0-1.059-0.496-1.813-1.985-1.813h-0.497V67.309z"/>
		</g>
		<g>
			<defs>
				<rect id="SVGID_5_" x="18.81" y="53.026" width="112.381" height="19.58"/>
			</defs>
			<clipPath id="SVGID_6_">
				<use xlink:href="#SVGID_5_"  overflow="visible"/>
			</clipPath>
			<polygon clip-path="url(#SVGID_6_)" fill="#E12826" points="77.129,54.772 84.251,54.772 84.251,66.813 90.488,66.813 
				90.488,70.85 77.129,70.85 			"/>
		</g>
		<g>
			<defs>
				<rect id="SVGID_7_" x="18.81" y="53.026" width="112.381" height="19.58"/>
			</defs>
			<clipPath id="SVGID_8_">
				<use xlink:href="#SVGID_7_"  overflow="visible"/>
			</clipPath>
			<path clip-path="url(#SVGID_8_)" fill="#E12826" d="M92.667,70.85h16.078V54.772H92.667V70.85z M102.275,64.377h-3.139v-3.138
				h3.139V64.377z"/>
		</g>
		<g>
			<defs>
				<rect id="SVGID_9_" x="18.81" y="53.026" width="112.381" height="19.58"/>
			</defs>
			<clipPath id="SVGID_10_">
				<use xlink:href="#SVGID_9_"  overflow="visible"/>
			</clipPath>
			<polygon clip-path="url(#SVGID_10_)" fill="#E12826" points="110.666,54.772 118.438,54.772 120.811,57.728 123.076,54.772 
				130.803,54.772 124.718,62.668 131.189,70.85 123.4,70.85 120.854,67.655 118.395,70.85 110.666,70.85 116.947,62.711 			"/>
		</g>
	</g>
</g>
</svg>
