<?xml version="1.0" encoding="utf-8"?>
<!-- Generator: Adobe Illustrator 16.0.0, SVG Export Plug-In . SVG Version: 6.00 Build 0)  -->
<!DOCTYPE svg PUBLIC "-//W3C//DTD SVG 1.1//EN" "http://www.w3.org/Graphics/SVG/1.1/DTD/svg11.dtd">
<svg version="1.1" id="Layer_1" xmlns="http://www.w3.org/2000/svg" xmlns:xlink="http://www.w3.org/1999/xlink" x="0px" y="0px"
	 width="150px" height="93.795px" viewBox="0 0 150 93.795" enable-background="new 0 0 150 93.795" xml:space="preserve">
<g>
	<g>
		<path fill-rule="evenodd" clip-rule="evenodd" fill="#E22826" d="M23.736,53.468c-2.526,0-5.053-0.007-7.579,0.004
			c-0.617,0.003-1.154-0.159-1.585-0.606c-0.364-0.377-0.527-0.821-0.378-1.347c0.646-2.283,1.292-4.567,1.94-6.851
			c0.137-0.485,0.5-0.74,0.947-0.89c0.377-0.127,0.772-0.161,1.171-0.161c3.017,0.002,6.033,0.009,9.049-0.007
			c0.477-0.002,0.602,0.097,0.395,0.564c-0.336,0.757-0.644,1.529-0.922,2.309c-0.139,0.392-0.363,0.498-0.757,0.494
			c-2.055-0.015-4.11,0.004-6.165-0.013c-0.422-0.003-0.66,0.102-0.753,0.547c-0.101,0.478-0.252,0.948-0.428,1.403
			c-0.18,0.472-0.026,0.575,0.438,0.568c3.223-0.042,6.447-0.055,9.671-0.097c1.129-0.015,2.263,0.097,3.386-0.102
			C32.71,49.188,33.22,49,33.669,48.67c1.158-0.853,1.294-2.364,0.306-3.405c-0.567-0.598-1.274-0.997-1.99-1.379
			c-0.866-0.462-1.718-0.945-2.492-1.553c-2.553-2.004-3.17-4.667-1.762-7.597c1.611-3.353,5.368-5.369,9.059-4.854
			c0.652,0.091,1.299,0.222,1.95,0.326c0.342,0.054,0.439,0.186,0.279,0.529c-0.447,0.956-0.879,1.919-1.287,2.893
			c-0.141,0.336-0.333,0.373-0.658,0.33c-0.727-0.098-1.458-0.205-2.195-0.1c-1.464,0.208-2.733,1.56-2.835,3.034
			c-0.051,0.747,0.333,1.294,0.872,1.751c0.797,0.676,1.724,1.148,2.628,1.653c0.594,0.332,1.168,0.69,1.706,1.107
			c2.808,2.174,3.292,5.972,1.125,8.805c-1.498,1.957-3.584,2.8-5.935,3.134c-1.52,0.215-3.05,0.079-4.575,0.104
			c-1.376,0.022-2.752,0.005-4.129,0.005C23.736,53.456,23.736,53.462,23.736,53.468z"/>
		<path fill-rule="evenodd" clip-rule="evenodd" fill="#E22826" d="M18.198,60.502c-1.511-0.003-2.697-1.173-2.702-2.664
			c-0.005-1.513,1.2-2.699,2.734-2.691c1.487,0.007,2.698,1.222,2.684,2.695C20.901,59.328,19.699,60.507,18.198,60.502z"/>
		<path fill-rule="evenodd" clip-rule="evenodd" fill="#E22826" d="M31.044,60.505c-1.515-0.002-2.683-1.177-2.68-2.695
			c0.003-1.506,1.187-2.669,2.711-2.663c1.483,0.007,2.676,1.175,2.691,2.638C33.782,59.307,32.581,60.507,31.044,60.505z"/>
		<g>
			<path fill="#E22826" d="M90.69,29.821c-1.206,0.027-2.413,0.028-3.619,0c-0.454-0.011-0.607,0.148-0.686,0.586
				c-0.375,2.075-0.798,4.142-1.178,6.216c-0.074,0.405-0.21,0.472-0.6,0.387c-2.203-0.48-4.315-0.15-6.311,0.862
				c-3.942,2.002-6.02,6.4-5.636,10.649c0.154,1.71,0.768,3.233,2.209,4.289c1.758,1.288,4.479,1.161,6.408-0.253
				c0.643-0.472,1.165-1.056,1.767-1.634c-0.054,0.655-0.089,1.312-0.169,1.964c-0.043,0.354,0.061,0.468,0.414,0.463
				c1.15-0.017,2.301-0.023,3.449,0.001c0.409,0.009,0.504-0.157,0.524-0.524c0.143-2.66,0.638-5.27,1.143-7.878
				c0.937-4.844,1.85-9.693,2.797-14.536C91.306,29.894,91.156,29.811,90.69,29.821z M84.311,41.486
				c-0.313,1.395-0.535,2.81-0.834,4.207c-0.227,1.06-0.658,2.04-1.346,2.894c-0.398,0.492-0.876,0.883-1.47,1.113
				c-1.096,0.428-2.195-0.016-2.699-1.077c-0.227-0.476-0.353-1.156-0.348-2.175c0.128-1.866,0.771-3.806,2.542-5.205
				c1.102-0.871,2.344-1.052,3.677-0.59C84.24,40.794,84.422,40.989,84.311,41.486z"/>
			<path fill="#E22826" d="M106.389,42.668c-0.189-3.144-2.176-5.361-5.138-5.921c-2.401-0.454-4.707-0.09-6.792,1.222
				c-2.995,1.882-4.386,4.715-4.634,8.168c-0.1,1.394,0.073,2.754,0.757,4c1.322,2.411,3.495,3.289,5.467,3.338
				c3.032,0.003,5.204-0.739,6.86-2.171C105.545,49.026,106.594,46.056,106.389,42.668z M100.368,47.638
				c-0.323,0.603-0.727,1.146-1.27,1.566c-0.837,0.648-1.766,0.837-2.759,0.431c-1.004-0.411-1.429-1.278-1.515-2.276
				c-0.18-2.073,0.294-4.004,1.513-5.713c0.575-0.808,1.33-1.384,2.378-1.438c1.383-0.07,2.306,0.625,2.615,1.975
				c0.088,0.384,0.159,0.775,0.131,1.175C101.398,44.86,101.083,46.3,100.368,47.638z"/>
			<path fill="#E22826" d="M68.812,37.224c-1.51-0.335-2.96-0.091-4.337,0.59c-0.893,0.442-1.63,1.08-2.266,1.841
				c-0.093,0.111-0.194,0.288-0.362,0.186c-0.147-0.089,0.006-0.237,0.021-0.359c0.063-0.542,0.126-1.084,0.207-1.625
				c0.042-0.283-0.027-0.424-0.341-0.422c-1.168,0.008-2.337,0.007-3.506,0c-0.275-0.002-0.399,0.1-0.436,0.386
				c-0.105,0.802-0.219,1.605-0.366,2.4c-0.79,4.259-1.585,8.517-2.398,12.771c-0.093,0.488-0.03,0.68,0.52,0.664
				c1.206-0.035,2.413-0.03,3.619-0.001c0.429,0.011,0.591-0.144,0.665-0.547c0.334-1.854,0.699-3.701,1.04-5.553
				c0.298-1.617,0.619-3.223,1.519-4.641c0.482-0.759,1.053-1.43,1.904-1.793c1.329-0.567,2.36,0.072,2.439,1.503
				c0.038,0.682-0.04,1.357-0.164,2.024c-0.524,2.814-1.057,5.625-1.602,8.435c-0.082,0.42,0.004,0.591,0.46,0.569
				c0.62-0.029,1.243-0.007,1.865-0.008c0.584-0.001,1.171-0.036,1.752,0.01c0.504,0.04,0.676-0.152,0.762-0.635
				c0.378-2.111,0.804-4.217,1.199-6.326c0.349-1.868,0.793-3.726,0.718-5.648C71.644,39.044,70.579,37.617,68.812,37.224z"/>
			<path fill="#E22826" d="M45.5,47.099c0.489,0.02,0.98,0.005,1.47,0.005c1.982-0.11,3.954-0.275,5.788-1.127
				c2.005-0.932,3.019-2.62,2.84-4.697c-0.185-2.159-1.459-3.68-3.633-4.225c-2.274-0.569-4.464-0.259-6.502,0.888
				c-3.523,1.983-5.573,6.403-4.895,10.411c0.438,2.591,1.83,4.374,4.412,5.02c2.818,0.704,5.57,0.296,8.241-0.785
				c0.273-0.11,0.356-0.271,0.322-0.563c-0.098-0.823-0.197-1.649-0.232-2.476c-0.023-0.527-0.196-0.531-0.613-0.352
				c-1.48,0.636-3.037,0.865-4.642,0.757c-1.619-0.11-2.74-1.037-2.952-2.392C45.046,47.204,45.143,47.084,45.5,47.099z
				 M45.921,42.509c0.82-1.602,2.361-2.464,3.908-2.187c0.717,0.128,1.164,0.521,1.266,1.111c0.104,0.608-0.205,1.184-0.848,1.515
				c-1.126,0.58-2.366,0.561-3.496,0.656c-0.106,0-0.125-0.001-0.144,0C45.427,43.631,45.383,43.561,45.921,42.509z"/>
		</g>
	</g>
	<path fill="#58B84E" d="M134.617,56.575c-1.471,0.018-2.941-0.004-4.411,0.022c-1.55,0.027-2.868,1.016-3.24,2.518
		c-0.666,2.688-1.261,5.395-1.897,8.089c-0.089,0.371,0.038,0.481,0.382,0.479c0.716-0.008,1.433-0.003,2.309-0.003
		c0.706-0.029,1.576,0.071,2.438-0.063c1.439-0.222,2.474-1.022,2.837-2.422c0.705-2.715,1.295-5.462,1.94-8.193
		C135.055,56.664,134.95,56.572,134.617,56.575z M133.308,60.32c-0.098,0.25-0.352,0.164-0.547,0.171
		c-0.377,0.013-0.755,0.025-1.13,0.001c-0.379-0.025-0.538,0.146-0.607,0.498c-0.181,0.904-0.386,1.804-0.576,2.706
		c-0.106,0.5-0.41,0.836-0.862,1.048c-0.134,0.063-0.289,0.148-0.427,0.046c-0.143-0.107-0.085-0.279-0.054-0.423
		c0.215-1.012,0.437-2.023,0.656-3.034c0.176-0.809,0.176-0.816-0.641-0.837c-0.379-0.009-0.711-0.085-0.918-0.438
		c-0.265-0.453-0.129-0.717,0.386-0.725c0.641-0.01,1.281-0.003,1.921-0.003c0,0.001,0,0.002,0,0.003
		c0.622,0,1.243,0.001,1.864-0.002c0.297-0.001,0.565,0.072,0.756,0.31C133.285,59.838,133.407,60.068,133.308,60.32z"/>
	<path fill="#1F4F9E" d="M117.881,57.052c0.092-0.388-0.015-0.493-0.4-0.489c-1.376,0.017-2.751-0.004-4.126,0.008
		c-1.736,0.016-3.102,0.992-3.491,2.58c-0.66,2.688-1.261,5.388-1.896,8.081c-0.078,0.33,0.015,0.449,0.348,0.445
		c0.754-0.01,1.508-0.003,2.447-0.003c0.717-0.033,1.626,0.086,2.523-0.068c1.318-0.228,2.304-0.957,2.638-2.255
		C116.631,62.599,117.226,59.818,117.881,57.052z M114.801,60.494c-0.865-0.006-1.733,0.022-2.598-0.009
		c-0.519-0.019-0.533,0.334-0.551,0.662c-0.023,0.402,0.32,0.229,0.497,0.234c0.753,0.021,1.507,0.021,2.26,0.005
		c0.476-0.01,0.463,0.203,0.26,0.507c-0.29,0.432-0.698,0.683-1.227,0.697c-0.488,0.015-0.981,0.04-1.467,0.002
		c-0.503-0.04-0.791,0.097-0.815,0.644c-0.009,0.203-0.087,0.404-0.146,0.602c-0.128,0.423-0.414,0.713-0.805,0.896
		c-0.151,0.071-0.34,0.177-0.483,0.087c-0.185-0.115-0.037-0.313-0.005-0.465c0.269-1.251,0.54-2.5,0.823-3.747
		c0.198-0.868,0.709-1.274,1.601-1.287c0.584-0.008,1.167-0.001,1.751-0.001c0,0.001,0,0.002,0,0.004
		c0.659,0,1.318,0.009,1.978-0.004c0.389-0.007,0.417,0.161,0.243,0.441C115.814,60.249,115.382,60.498,114.801,60.494z"/>
	<g>
		<path fill-rule="evenodd" clip-rule="evenodd" fill="#E53127" d="M63.928,57.779c0.313,0.028,0.602,0.113,0.75,0.416
			c0.144,0.293,0.1,0.59-0.096,0.848c-0.124,0.162-0.294,0.289-0.42,0.451c-0.192,0.244-0.46,0.352-0.672,0.147
			c-0.244-0.235,0.11-0.361,0.225-0.514c0.138-0.186,0.33-0.37,0.162-0.592c-0.164-0.219-0.369-0.073-0.535,0.059
			c-0.15,0.119-0.283,0.083-0.39-0.051c-0.115-0.142,0.009-0.244,0.091-0.338C63.276,57.941,63.576,57.805,63.928,57.779z"/>
		<path fill-rule="evenodd" clip-rule="evenodd" fill="#E53127" d="M84.004,57.778c0.322,0.025,0.598,0.118,0.755,0.422
			c0.154,0.302,0.098,0.591-0.101,0.842c-0.161,0.205-0.368,0.375-0.541,0.571c-0.186,0.209-0.406,0.136-0.552,0.013
			c-0.192-0.161,0.033-0.286,0.125-0.408c0.08-0.104,0.184-0.188,0.257-0.296c0.089-0.128,0.141-0.273,0.006-0.408
			c-0.107-0.108-0.244-0.104-0.363-0.036c-0.189,0.109-0.416,0.34-0.566,0.05c-0.143-0.271,0.176-0.4,0.355-0.539
			C83.56,57.846,83.784,57.802,84.004,57.778z"/>
		<path fill="#E53127" d="M58.174,58.442c-0.75-0.144-1.495-0.098-2.247-0.021c-0.332,0.033-0.508,0.136-0.557,0.486
			c-0.072,0.521-0.201,1.032-0.284,1.553c-0.058,0.365-0.136,0.632-0.617,0.596c-0.431-0.031-0.31,0.391-0.377,0.63
			c-0.07,0.247,0.129,0.275,0.309,0.265c0.329-0.018,0.378,0.152,0.318,0.427c-0.076,0.348-0.14,0.699-0.205,1.05
			c-0.261,1.433-0.26,1.433,1.206,1.434c0.245,0,0.49,0.016,0.733-0.003c2.402-0.177,3.891-1.712,3.832-3.942
			C60.25,59.591,59.479,58.693,58.174,58.442z M56.151,63.966c-0.429-0.004-0.659-0.103-0.5-0.58
			c0.023-0.069,0.023-0.147,0.04-0.221c0.08-0.366,0.063-0.807,0.267-1.079c0.231-0.31,0.702-0.107,1.066-0.129
			c0.469-0.027,0.383-0.402,0.42-0.663c0.051-0.351-0.255-0.242-0.433-0.249c-0.892-0.035-0.936-0.042-0.76-0.683
			c0.108-0.396-0.131-1.021,0.589-1.106c0.95-0.113,1.772,0.254,2.063,0.929c0.129,0.3,0.169,0.614,0.154,0.883
			C59.033,62.834,57.848,63.983,56.151,63.966z"/>
		<path fill="#E53127" d="M71.946,60.089c-0.539,0.006-0.983,0.226-1.357,0.601c-0.138,0.138-0.231,0.234-0.36-0.031
			c-0.264-0.547-0.75-0.616-1.296-0.55c-0.478,0.059-0.818,0.355-1.245,0.688c-0.057-0.32,0.052-0.685-0.414-0.632
			c-0.253,0.029-0.542-0.061-0.609,0.327c-0.229,1.315-0.47,2.63-0.702,3.944c-0.021,0.123-0.069,0.263,0.07,0.36
			c0.308,0.218,0.958-0.028,1.03-0.396c0.091-0.462,0.17-0.925,0.249-1.389c0.093-0.543,0.21-1.076,0.563-1.519
			c0.257-0.322,0.571-0.61,1.01-0.435c0.458,0.182,0.356,0.619,0.298,0.983c-0.123,0.762-0.286,1.517-0.413,2.276
			c-0.031,0.183-0.235,0.508,0.181,0.491c0.306-0.012,0.757,0.229,0.861-0.343c0.104-0.574,0.217-1.146,0.329-1.719
			c0.099-0.503,0.24-0.989,0.599-1.38c0.244-0.266,0.529-0.452,0.898-0.319c0.39,0.142,0.372,0.496,0.322,0.813
			c-0.128,0.817-0.29,1.629-0.423,2.446c-0.03,0.18-0.183,0.478,0.14,0.497c0.297,0.019,0.778,0.237,0.876-0.223
			c0.242-1.137,0.587-2.266,0.541-3.446C73.068,60.452,72.629,60.081,71.946,60.089z"/>
		<path fill="#E53127" d="M78.811,60.085c-0.541,0.009-0.955,0.294-1.438,0.662c0.146-0.714,0.271-1.336,0.402-1.957
			c0.155-0.739,0.077-0.819-0.67-0.734c-0.227,0.025-0.342,0.12-0.383,0.334c-0.063,0.333-0.135,0.664-0.2,0.997
			c-0.26,1.35-0.545,2.694-0.768,4.049c-0.129,0.784,0.241,1.284,0.939,1.438c2.102,0.463,4.098-1.654,3.528-3.742
			C80.027,60.421,79.543,60.073,78.811,60.085z M79.101,62.07c-0.082,0.845-0.375,1.584-1.228,1.93
			c-0.612,0.25-0.989-0.043-0.965-0.783c0.069-0.577,0.176-1.229,0.616-1.756c0.295-0.354,0.677-0.577,1.142-0.395
			C79.115,61.242,79.14,61.671,79.101,62.07z"/>
		<path fill="#E53127" d="M64.247,60.084c-1.985-0.104-3.545,1.362-3.489,3.295c0.019,0.638,0.216,1.212,0.875,1.448
			c0.637,0.229,1.224,0.082,1.708-0.406c0.129-0.131,0.25-0.27,0.455-0.49c0,0.202,0.009,0.277-0.002,0.351
			c-0.055,0.35-0.004,0.577,0.445,0.562c0.371-0.013,0.59-0.054,0.583-0.518c-0.016-1.002,0.242-1.974,0.435-2.95
			C65.499,60.15,65.494,60.149,64.247,60.084z M64.108,61.513c-0.092,0.439-0.195,0.879-0.322,1.309
			c-0.097,0.325-0.275,0.615-0.516,0.861c-0.253,0.259-0.548,0.414-0.91,0.289c-0.394-0.137-0.39-0.508-0.434-0.8
			c-0.003-1.063,0.747-2.066,1.627-2.216C64.087,60.865,64.218,60.988,64.108,61.513z"/>
		<path fill="#E53127" d="M84.213,60.081c-2.04-0.042-3.537,1.533-3.349,3.523c0.085,0.892,0.695,1.394,1.568,1.307
			c0.615-0.062,1.002-0.459,1.469-1.044c-0.026,0.267-0.035,0.357-0.045,0.447c-0.029,0.272-0.077,0.55,0.351,0.517
			c0.314-0.024,0.677,0.116,0.678-0.459c0.003-1,0.244-1.975,0.434-2.953C85.569,60.123,85.559,60.108,84.213,60.081z M84.175,61.52
			c-0.082,0.404-0.162,0.812-0.276,1.209c-0.098,0.344-0.269,0.662-0.52,0.927c-0.263,0.275-0.573,0.455-0.958,0.304
			c-0.38-0.15-0.405-0.504-0.406-0.854c0.005-1.007,0.73-1.985,1.596-2.148C84.164,60.853,84.287,60.97,84.175,61.52z"/>
		<path fill="#E53127" d="M88.515,60.096c-1.448,0.144-2.466,1.371-2.444,2.946c0.017,1.165,0.758,1.89,1.926,1.88
			c1.442-0.011,2.516-1.083,2.672-2.671C90.803,60.894,89.872,59.961,88.515,60.096z M88.906,63.671
			c-0.275,0.309-0.615,0.496-1.053,0.345c-0.458-0.16-0.611-0.529-0.628-0.969c-0.021-0.56,0.129-1.081,0.455-1.537
			c0.292-0.406,0.675-0.687,1.199-0.521c0.547,0.171,0.629,0.639,0.613,1.267C89.474,62.708,89.297,63.236,88.906,63.671z"/>
	</g>
	<g>
		<path fill-rule="evenodd" clip-rule="evenodd" fill="#1F1D1E" d="M101.287,57.777c0.273,0.026,0.551,0.099,0.699,0.376
			c0.155,0.285,0.136,0.587-0.053,0.854c-0.107,0.152-0.262,0.271-0.377,0.418c-0.206,0.264-0.501,0.461-0.752,0.213
			c-0.255-0.252,0.159-0.375,0.279-0.551c0.121-0.176,0.284-0.356,0.135-0.554c-0.168-0.222-0.373-0.094-0.533,0.055
			c-0.142,0.133-0.261,0.113-0.389-0.012c-0.169-0.165-0.018-0.272,0.075-0.377C100.609,57.932,100.916,57.804,101.287,57.777z"/>
		<path fill-rule="evenodd" clip-rule="evenodd" fill="#1F1D1E" d="M105.026,59.511c-0.391-0.032-0.579-0.265-0.556-0.635
			c0.026-0.39,0.273-0.625,0.662-0.625c0.373-0.001,0.602,0.232,0.588,0.607C105.705,59.277,105.446,59.494,105.026,59.511z"/>
		<path fill="#1F1D1E" d="M96.144,60.084c-0.49,0.031-0.895,0.255-1.392,0.7c0.157-0.79,0.279-1.414,0.405-2.037
			c0.146-0.719,0.137-0.718-0.583-0.697c-0.294,0.009-0.453,0.09-0.478,0.408c-0.021,0.241-0.101,0.477-0.148,0.717
			c-0.266,1.327-0.547,2.652-0.79,3.984c-0.217,1.18,0.278,1.752,1.479,1.764c1.916,0.02,3.411-1.851,2.987-3.735
			C97.457,60.447,96.898,60.034,96.144,60.084z M95.483,63.9c-0.295,0.187-0.635,0.288-0.959,0.073
			c-0.32-0.21-0.278-0.546-0.226-0.869c0.105-0.636,0.225-1.269,0.703-1.75c0.299-0.301,0.668-0.462,1.076-0.285
			c0.383,0.166,0.426,0.543,0.423,1.031C96.43,62.765,96.182,63.459,95.483,63.9z"/>
		<path fill="#1F1D1E" d="M103.14,60.959c0.528-0.151,0.785-0.942,0.563-1.431c-0.136-0.297-0.349-0.116-0.534-0.1
			c-0.199,0.017-0.336,0.04-0.311,0.332c0.059,0.682-0.18,0.872-0.777,0.572c-1.573-0.789-3.704,0.263-3.778,2.599
			c-0.016,1.279,0.788,2.057,2.055,1.989c1.632-0.087,2.852-1.72,2.504-3.363C102.8,61.272,102.723,61.079,103.14,60.959z
			 M101.096,63.724c-0.261,0.267-0.58,0.423-0.968,0.311c-0.414-0.118-0.606-0.435-0.653-0.833
			c-0.075-0.644,0.104-1.233,0.488-1.747c0.286-0.384,0.668-0.629,1.171-0.464c0.524,0.171,0.595,0.622,0.609,1.073
			C101.704,62.701,101.539,63.271,101.096,63.724z"/>
		<path fill="#1F1D1E" d="M105.11,60.184c-0.342-0.019-0.812-0.226-0.919,0.414c-0.212,1.241-0.441,2.481-0.708,3.713
			c-0.098,0.452,0.01,0.599,0.484,0.503c0.45,0.148,0.588-0.123,0.661-0.535c0.21-1.166,0.456-2.326,0.656-3.494
			C105.317,60.591,105.594,60.209,105.11,60.184z"/>
	</g>
	<g>
		<path fill="#EA7024" d="M126.655,53.793c-1.45,0.02-2.901-0.012-4.352,0.014c-1.547,0.027-2.895,1.063-3.256,2.583
			c-1.072,4.505-2.097,9.021-3.155,13.53c-0.104,0.442,0.059,0.523,0.443,0.515c0.734-0.017,1.469-0.004,2.203-0.005
			c0.622,0,1.243,0.002,1.865,0c1.794-0.006,3.127-1.005,3.537-2.738c1.053-4.452,2.071-8.912,3.115-13.366
			C127.149,53.932,127.09,53.786,126.655,53.793z M124.264,61.66c-0.237,0.629-0.742,0.931-1.408,0.941
			c-0.772,0.012-1.547,0.024-2.318-0.003c-0.406-0.014-0.574,0.146-0.631,0.531c-0.088,0.603-0.213,1.201-0.822,1.526
			c-0.193,0.104-0.42,0.282-0.62,0.131c-0.16-0.122-0.023-0.356,0.014-0.533c0.311-1.475,0.643-2.944,0.938-4.422
			c0.078-0.393,0.246-0.537,0.643-0.519c0.582,0.026,1.167,0.007,1.752,0.007c0,0.001,0,0.004,0,0.006
			c0.584,0,1.169-0.011,1.753,0.002c0.732,0.017,1.076,0.397,0.982,1.124C124.493,60.86,124.407,61.274,124.264,61.66z"/>
		<path fill-rule="evenodd" clip-rule="evenodd" fill="#EA7024" d="M121.724,61.396c-0.3,0-0.601,0.013-0.899-0.005
			c-0.193-0.012-0.511,0.11-0.464-0.283c0.034-0.287,0.035-0.623,0.479-0.618c0.675,0.008,1.35-0.002,2.023,0.004
			c0.198,0.003,0.466-0.031,0.412,0.295c-0.041,0.256-0.007,0.602-0.428,0.603c-0.374,0.001-0.748,0-1.123,0
			C121.724,61.394,121.724,61.395,121.724,61.396z"/>
	</g>
	<g>
		<path fill="#1F4F9E" d="M134.721,67.733L134.721,67.733h-0.023c-0.317-0.006-0.605-0.128-0.811-0.345
			c-0.204-0.214-0.31-0.504-0.299-0.817c0.021-0.614,0.515-1.099,1.123-1.103c0.309,0,0.596,0.12,0.814,0.34
			c0.219,0.221,0.338,0.506,0.336,0.807C135.858,67.242,135.357,67.733,134.721,67.733z M134.72,65.688
			c-0.497,0.003-0.896,0.396-0.913,0.892c-0.009,0.253,0.076,0.487,0.239,0.659c0.164,0.173,0.396,0.271,0.655,0.275l0.02,0.109
			v-0.109c0.514,0,0.92-0.395,0.922-0.9c0.001-0.241-0.096-0.472-0.272-0.649C135.192,65.786,134.962,65.688,134.72,65.688z"/>
		<g>
			<path fill="#1F4F9E" d="M134.494,66.236c0.055-0.009,0.137-0.016,0.228-0.016c0.111,0,0.189,0.017,0.244,0.059
				c0.045,0.036,0.07,0.089,0.07,0.158c0,0.097-0.07,0.164-0.135,0.187v0.004c0.053,0.021,0.082,0.071,0.101,0.142
				c0.024,0.085,0.048,0.185,0.063,0.213h-0.177c-0.012-0.021-0.03-0.083-0.053-0.176c-0.019-0.095-0.051-0.121-0.121-0.122h-0.052
				v0.298h-0.169V66.236z M134.663,66.562h0.066c0.086,0,0.136-0.043,0.136-0.108c0-0.07-0.046-0.105-0.125-0.106
				c-0.041,0-0.065,0.004-0.077,0.007V66.562z"/>
		</g>
	</g>
</g>
</svg>
