<?xml version="1.0" encoding="utf-8"?>
<!-- Generator: Adobe Illustrator 16.0.0, SVG Export Plug-In . SVG Version: 6.00 Build 0)  -->
<!DOCTYPE svg PUBLIC "-//W3C//DTD SVG 1.1//EN" "http://www.w3.org/Graphics/SVG/1.1/DTD/svg11.dtd">
<svg version="1.1" id="Layer_1" xmlns="http://www.w3.org/2000/svg" xmlns:xlink="http://www.w3.org/1999/xlink" x="0px" y="0px"
	 width="150px" height="93.795px" viewBox="0 0 150 93.795" enable-background="new 0 0 150 93.795" xml:space="preserve">
<g>
	<path fill="#EA501F" d="M51.702,76.314c-0.22-0.148-0.289-0.451-0.137-0.686c0.151-0.22,0.452-0.289,0.686-0.138
		c0.138,0.097,0.289,0.193,0.453,0.29c1.125,0.685,2.182,1.029,3.046,1.029c0.782,0,1.427-0.303,1.825-0.893l0,0
		c0.027-0.041,0.055-0.068,0.055-0.096c0.109-0.193,0.206-0.386,0.261-0.575c0.109-0.399,0.096-0.81-0.069-1.182
		c-0.165-0.399-0.508-0.768-1.029-1.085l0,0c-0.343-0.206-0.782-0.396-1.303-0.548c-1.332-0.371-2.305-0.905-2.841-1.604
		c-0.576-0.782-0.617-1.716,0-2.855c0.412-0.754,1.25-1.22,2.319-1.302c0.919-0.069,2.031,0.148,3.156,0.727
		c0.247,0.124,0.344,0.424,0.22,0.658c-0.123,0.248-0.425,0.344-0.658,0.22c-0.96-0.495-1.88-0.672-2.635-0.616
		c-0.727,0.052-1.29,0.341-1.523,0.796c-0.412,0.754-0.412,1.343-0.068,1.795c0.384,0.522,1.194,0.933,2.305,1.25
		c0.604,0.165,1.111,0.396,1.536,0.657l0,0c0.7,0.427,1.167,0.961,1.414,1.537c0.261,0.592,0.288,1.235,0.109,1.839
		c-0.082,0.275-0.206,0.564-0.371,0.823c-0.041,0.055-0.068,0.109-0.083,0.138l0,0c-0.59,0.878-1.523,1.318-2.648,1.318
		c-1.042,0-2.264-0.386-3.553-1.167C52.045,76.535,51.88,76.438,51.702,76.314z"/>
	<path fill="#EA501F" d="M60.47,67.136c0-0.262,0.219-0.465,0.494-0.465c0.274,0,0.494,0.203,0.494,0.465v10.195
		c0,0.262-0.22,0.468-0.494,0.468c-0.275,0-0.494-0.206-0.494-0.468V67.136z"/>
	<path fill="#EA501F" d="M61.485,73.49c-0.179,0.204-0.48,0.245-0.7,0.066c-0.206-0.177-0.247-0.479-0.069-0.7
		c0.755-0.916,1.605-1.48,2.442-1.729c0.604-0.176,1.194-0.189,1.702-0.053c0.535,0.149,1.001,0.452,1.331,0.917
		c0.316,0.44,0.494,1.002,0.494,1.674v3.651c0,0.275-0.22,0.495-0.494,0.495c-0.274,0-0.494-0.22-0.494-0.495v-3.651
		c0-0.465-0.11-0.837-0.302-1.109c-0.192-0.262-0.453-0.44-0.782-0.537c-0.344-0.096-0.741-0.079-1.167,0.042
		C62.789,72.268,62.103,72.735,61.485,73.49z"/>
	<path fill="#EA501F" d="M71.529,70.979c0.947,0,1.798,0.383,2.416,0.999l0,0c0.618,0.62,1.001,1.471,1.001,2.417
		c0,0.944-0.384,1.796-1.001,2.415c-0.618,0.616-1.468,1.002-2.416,1.002c-0.946,0-1.797-0.386-2.415-1.002l0,0
		c-0.617-0.619-1.001-1.471-1.001-2.415c0-0.946,0.384-1.797,1.001-2.417l0,0C69.732,71.362,70.596,70.979,71.529,70.979
		L71.529,70.979z M73.258,72.667c-0.439-0.44-1.056-0.716-1.729-0.716c-0.672,0-1.276,0.275-1.729,0.716l0,0
		c-0.439,0.438-0.713,1.055-0.713,1.729c0,0.672,0.274,1.289,0.713,1.727l0,0c0.439,0.44,1.057,0.716,1.729,0.716
		c0.673,0,1.276-0.275,1.729-0.716c0.439-0.438,0.713-1.055,0.713-1.727C73.971,73.722,73.697,73.104,73.258,72.667z"/>
	<path fill="#EA501F" d="M76.345,71.472c0-0.275,0.22-0.492,0.494-0.492s0.493,0.217,0.493,0.492v0.617
		c0.041-0.041,0.069-0.083,0.11-0.11l0,0c0.617-0.616,1.468-0.999,2.415-0.999c0.946,0,1.797,0.383,2.414,0.999l0,0
		c0.618,0.62,1.002,1.471,1.002,2.417c0,0.944-0.384,1.796-1.002,2.415c-0.617,0.616-1.468,1.002-2.414,1.002
		c-0.947,0-1.798-0.386-2.415-1.002l0,0c-0.041-0.041-0.069-0.083-0.11-0.11v4.488c0,0.272-0.219,0.492-0.493,0.492
		s-0.494-0.22-0.494-0.492V71.472L76.345,71.472z M81.572,72.667c-0.438-0.44-1.057-0.716-1.729-0.716
		c-0.673,0-1.276,0.275-1.729,0.716l0,0c-0.438,0.438-0.713,1.055-0.713,1.729c0,0.672,0.274,1.289,0.713,1.727l0,0
		c0.439,0.44,1.057,0.716,1.729,0.716c0.672,0,1.276-0.275,1.729-0.716c0.438-0.438,0.714-1.055,0.714-1.727
		C82.286,73.722,82.011,73.104,81.572,72.667z"/>
	<path fill="#EA501F" d="M87.912,70.979c0.837,0,1.604,0.327,2.166,0.905c0.469,0.466,0.66,0.931,0.823,1.427
		c0.427,1.385-0.382,1.329-0.63,1.329h-4.542c0.04,0.331,0.123,0.631,0.22,0.906c0.179,0.427,0.44,0.74,0.768,0.961
		c0.345,0.22,0.782,0.33,1.291,0.33c0.548,0,1.192-0.151,1.907-0.454c0.246-0.11,0.535,0.014,0.646,0.262
		c0.108,0.248-0.014,0.534-0.262,0.644c-0.823,0.345-1.592,0.51-2.277,0.523c-0.7,0.011-1.318-0.151-1.825-0.481
		c-0.508-0.331-0.946-0.782-1.153-1.413c-0.465-1.387-0.479-2.758,0.701-4.033C86.293,71.293,87.075,70.979,87.912,70.979
		L87.912,70.979z M89.393,72.584c-0.397-0.385-0.919-0.619-1.48-0.619c-0.563,0-1.085,0.234-1.481,0.619
		c-0.289,0.287-0.523,0.645-0.646,1.055h4.266C89.901,73.229,89.682,72.871,89.393,72.584z"/>
	<path fill="#EA501F" d="M95.403,70.979c0.837,0,1.604,0.327,2.168,0.905c0.467,0.466,0.659,0.931,0.823,1.427
		c0.426,1.385-0.384,1.329-0.632,1.329h-4.541c0.041,0.331,0.123,0.631,0.219,0.906c0.179,0.427,0.44,0.74,0.77,0.961
		c0.343,0.22,0.781,0.33,1.29,0.33c0.548,0,1.193-0.151,1.906-0.454c0.246-0.11,0.535,0.014,0.646,0.262s-0.014,0.534-0.262,0.644
		c-0.823,0.345-1.591,0.51-2.276,0.523c-0.699,0.011-1.317-0.151-1.826-0.481c-0.508-0.331-0.946-0.782-1.153-1.413
		c-0.465-1.387-0.479-2.758,0.701-4.033C93.784,71.293,94.566,70.979,95.403,70.979L95.403,70.979z M96.885,72.584
		c-0.396-0.385-0.92-0.619-1.481-0.619s-1.085,0.234-1.481,0.619c-0.289,0.287-0.523,0.645-0.646,1.055h4.268
		C97.394,73.229,97.174,72.871,96.885,72.584z"/>
	<path fill="#EA501F" d="M55.174,26.37h10.332c0.315-3.498,1.289-6.641,2.689-9.068c1.852-3.212,4.486-5.188,7.463-5.188
		c2.978,0,5.599,1.989,7.465,5.188c1.399,2.414,2.374,5.57,2.688,9.068H96.13c1.223,0,2.319,1.002,2.224,2.224l-2.072,28.911
		c-0.262,3.621-2.538,5.694-5.845,5.694H60.881c-3.677,0-5.625-2.566-5.845-5.694l-2.085-28.897
		C52.868,27.387,53.952,26.37,55.174,26.37L55.174,26.37z M68.085,26.37h15.12c-0.302-3.032-1.139-5.721-2.332-7.778
		c-1.373-2.402-3.238-3.897-5.215-3.897c-1.989,0-3.841,1.495-5.241,3.911C69.224,20.649,68.401,23.352,68.085,26.37z"/>
	<path fill="#FFFFFF" d="M68.154,53.059c-0.48-0.329-0.604-0.975-0.275-1.454c0.33-0.48,0.975-0.604,1.455-0.275
		c0.302,0.207,0.618,0.412,0.96,0.618c2.415,1.468,4.638,2.195,6.489,2.195c1.674,0,3.033-0.632,3.897-1.907l0,0
		c0.055-0.097,0.109-0.151,0.123-0.191c0.247-0.399,0.426-0.825,0.55-1.236c0.246-0.851,0.205-1.729-0.138-2.524
		c-0.371-0.837-1.084-1.646-2.195-2.318l0,0c-0.741-0.453-1.661-0.851-2.771-1.152c-2.827-0.796-4.912-1.922-6.038-3.431
		c-1.235-1.66-1.33-3.664-0.014-6.093c0.878-1.604,2.676-2.607,4.954-2.784c1.961-0.152,4.321,0.314,6.722,1.536
		c0.521,0.261,0.728,0.892,0.453,1.413c-0.274,0.522-0.893,0.728-1.413,0.453c-2.045-1.043-3.993-1.441-5.612-1.317
		c-1.55,0.124-2.73,0.727-3.251,1.688c-0.878,1.605-0.865,2.867-0.151,3.828c0.823,1.111,2.539,1.976,4.926,2.648
		c1.289,0.371,2.388,0.836,3.292,1.386l0,0c1.496,0.905,2.498,2.044,3.033,3.279c0.549,1.275,0.618,2.62,0.247,3.938
		c-0.165,0.591-0.426,1.18-0.782,1.757c-0.082,0.124-0.138,0.221-0.179,0.288l0,0c-1.276,1.88-3.237,2.813-5.625,2.827
		c-2.236,0-4.843-0.823-7.587-2.498C68.881,53.539,68.524,53.318,68.154,53.059z"/>
</g>
</svg>
