<?xml version="1.0" encoding="utf-8"?>
<!-- Generator: Adobe Illustrator 16.0.0, SVG Export Plug-In . SVG Version: 6.00 Build 0)  -->
<!DOCTYPE svg PUBLIC "-//W3C//DTD SVG 1.1//EN" "http://www.w3.org/Graphics/SVG/1.1/DTD/svg11.dtd">
<svg version="1.1" id="Layer_1" xmlns="http://www.w3.org/2000/svg" xmlns:xlink="http://www.w3.org/1999/xlink" x="0px" y="0px"
	 width="150px" height="93.795px" viewBox="0 0 150 93.795" enable-background="new 0 0 150 93.795" xml:space="preserve">
<path fill-rule="evenodd" clip-rule="evenodd" fill="#237F75" d="M33.114,63.574c-3.451,0.001-6.901,0.013-10.351-0.003
	c-2.716-0.012-3.953-1.277-3.952-3.992c0.002-6.276,0.067-12.554-0.024-18.83c-0.039-2.657,1.61-3.952,3.813-3.955
	c7.01-0.007,14.021-0.027,21.031,0.036c2.632,0.024,3.786,1.318,3.788,3.927c0.004,6.35,0.003,12.7,0.002,19.05
	c0,2.412-1.29,3.739-3.737,3.759C40.162,63.595,36.638,63.573,33.114,63.574z M33.828,40.715c-1.83,0.019-3.258,0.285-4.571,1.031
	c-2.73,1.553-3.605,5.003-1.891,7.607c0.887,1.348,2.24,2.079,3.723,2.593c1.211,0.42,2.44,0.791,3.637,1.248
	c0.549,0.21,1.091,0.573,0.997,1.289c-0.1,0.754-0.729,0.974-1.359,1.075c-1.734,0.28-3.299-0.107-4.554-1.378
	c-0.468-0.474-0.817-0.456-1.312-0.081c-0.789,0.599-1.585,1.201-2.442,1.691c-0.92,0.526-0.728,0.921-0.078,1.534
	c2.938,2.776,8.937,3.604,12.493,1.682c3.598-1.946,3.872-7.045,0.502-9.33c-0.952-0.646-2.011-1.049-3.099-1.393
	c-1.013-0.319-2.034-0.62-3.032-0.982c-0.545-0.198-0.977-0.607-0.879-1.244c0.096-0.632,0.622-0.882,1.202-0.951
	c1.173-0.14,2.288,0.069,3.212,0.831c0.515,0.425,0.854,0.383,1.287-0.086c0.597-0.646,1.212-1.286,1.889-1.844
	c0.701-0.578,0.534-0.963-0.083-1.456C37.709,41.149,35.645,40.781,33.828,40.715z"/>
<path fill-rule="evenodd" clip-rule="evenodd" fill="#237F75" d="M97.462,57.55c0.298-0.895,0.605-1.786,0.893-2.684
	c0.793-2.479,1.604-4.953,2.351-7.446c0.214-0.716,0.539-0.978,1.303-0.992c2.405-0.046,2.413-0.084,3.121,2.232
	c0.814,2.663,1.614,5.331,2.415,7.999c0.093,0.309,0.124,0.642,0.415,0.867c0.421-0.288,0.397-0.776,0.517-1.178
	c0.592-2.003,1.095-4.034,1.741-6.019c0.313-0.962,0.227-1.524-0.844-1.731c-0.522-0.102-0.778-0.394-0.811-0.99
	c-0.046-0.877,0.18-1.238,1.146-1.204c1.722,0.06,3.448-0.034,5.173-0.041c0.399-0.001,0.987-0.176,0.966,0.534
	c-0.018,0.575,0.334,1.404-0.512,1.604c-1.262,0.3-1.565,1.211-1.887,2.268c-1.17,3.858-2.419,7.691-3.592,11.549
	c-0.216,0.712-0.506,0.979-1.282,0.968c-2.615-0.037-2.61-0.004-3.337-2.479c-0.805-2.742-1.62-5.482-2.436-8.222
	c-0.05-0.166-0.145-0.319-0.324-0.705c-0.543,1.706-1.018,3.207-1.5,4.706c-0.629,1.955-1.294,3.899-1.879,5.867
	c-0.195,0.656-0.515,0.826-1.169,0.826c-2.578-0.003-2.571,0.019-3.318-2.504c-1.061-3.584-2.148-7.161-3.188-10.751
	c-0.201-0.695-0.485-1.212-1.235-1.356c-1.051-0.202-0.897-1.011-0.825-1.725c0.084-0.84,0.783-0.485,1.218-0.5
	c1.797-0.065,3.595-0.08,5.394-0.089c0.358-0.001,0.929-0.186,0.912,0.457c-0.016,0.592,0.438,1.471-0.509,1.682
	c-1.45,0.321-1.299,1.131-0.983,2.23c0.645,2.242,1.173,4.518,1.75,6.779C97.25,57.518,97.356,57.533,97.462,57.55z"/>
<path fill-rule="evenodd" clip-rule="evenodd" fill="#237F75" d="M68.203,57.23c0-2.629,0.001-5.153,0-7.678
	c0-0.656-0.568-0.685-0.985-0.858c-0.51-0.214-0.969-0.348-0.978-1.106c-0.01-0.901,0.236-1.212,1.172-1.182
	c1.686,0.055,3.375-0.041,5.063-0.042c0.39-0.001,0.996-0.195,0.974,0.522c-0.017,0.569,0.375,1.43-0.484,1.6
	c-1.498,0.296-1.468,1.286-1.456,2.446c0.039,3.743-0.008,7.487,0.026,11.23c0.008,0.846-0.256,1.035-1.111,1.142
	c-2.213,0.276-3.622-0.387-4.697-2.48c-1.317-2.566-3.064-4.913-4.629-7.352c-0.191-0.297-0.408-0.577-0.613-0.865
	c-0.415,0.252-0.28,0.577-0.282,0.843c-0.011,2.055,0.039,4.112-0.024,6.165c-0.025,0.833,0.298,1.163,1.049,1.354
	c0.988,0.251,1.248,0.862,1.001,1.881c-0.117,0.483-0.448,0.406-0.759,0.407c-1.909,0.007-3.817,0.001-5.726,0.008
	c-0.432,0.002-0.875-0.007-0.807-0.596c0.064-0.551-0.407-1.396,0.526-1.553c1.302-0.217,1.417-0.987,1.391-2.102
	c-0.072-2.972-0.054-5.946-0.005-8.918c0.013-0.786-0.183-1.196-0.976-1.414c-0.907-0.25-1.189-0.977-0.934-1.864
	c0.114-0.396,0.385-0.388,0.675-0.393c1.578-0.03,3.156-0.028,4.732-0.093c0.635-0.026,0.899,0.332,1.184,0.787
	c1.925,3.079,3.86,6.152,5.807,9.217C67.522,56.631,67.61,57.028,68.203,57.23z"/>
<path fill-rule="evenodd" clip-rule="evenodd" fill="#237F75" d="M81.799,63.264c-1.909,0-3.818,0.012-5.727-0.01
	c-0.384-0.004-1.021,0.23-0.97-0.5c0.041-0.573-0.45-1.45,0.568-1.632c1.206-0.214,1.403-0.91,1.375-2.013
	c-0.075-2.971-0.063-5.946-0.004-8.919c0.018-0.88-0.207-1.396-1.091-1.563c-0.625-0.117-0.895-0.449-0.902-1.143
	c-0.008-0.795,0.192-1.081,1.044-1.076c3.67,0.022,7.341-0.01,11.011-0.072c0.816-0.014,1.138,0.22,1.06,1.053
	c-0.062,0.655-0.012,1.321-0.013,1.981c-0.001,1.458-0.467,1.798-1.924,1.478c-0.428-0.094-0.523-0.411-0.576-0.704
	c-0.179-1.008-0.771-1.281-1.723-1.178c-0.689,0.076-1.395,0.046-2.09,0.006c-0.685-0.04-1.031,0.165-0.99,0.917
	c0.044,0.805,0.038,1.615,0.003,2.422c-0.028,0.657,0.216,0.923,0.89,0.903c1.174-0.034,2.354,0.054,3.522-0.021
	c1.015-0.065,0.901,0.559,0.899,1.188c-0.002,0.659,0.154,1.357-0.934,1.294c-1.134-0.066-2.275,0.021-3.412-0.012
	c-0.695-0.02-1.005,0.203-0.971,0.942c0.048,1.026,0.042,2.057,0.003,3.083c-0.026,0.687,0.262,0.905,0.91,0.871
	c0.696-0.036,1.4-0.062,2.091,0.007c1.186,0.116,1.989-0.083,2.268-1.493c0.201-1.02,1.227-0.453,1.877-0.501
	c0.635-0.046,0.441,0.555,0.45,0.912c0.024,0.99-0.023,1.983,0.016,2.973c0.024,0.629-0.206,0.827-0.825,0.817
	C85.689,63.244,83.744,63.263,81.799,63.264z"/>
<path fill-rule="evenodd" clip-rule="evenodd" fill="#237F75" d="M116.948,60.429c0-0.221,0.001-0.44,0-0.66
	c-0.003-1.715,0.33-1.96,2.056-1.672c0.591,0.098,0.595,0.533,0.607,0.885c0.038,1.138,0.724,1.437,1.702,1.591
	c1.123,0.178,2.194,0.138,3.229-0.32c0.632-0.279,1.101-0.723,1.162-1.474c0.064-0.787-0.429-1.206-1.025-1.547
	c-0.835-0.477-1.769-0.701-2.668-1.012c-0.9-0.311-1.799-0.624-2.638-1.089c-1.794-0.993-2.645-2.511-2.451-4.542
	c0.188-1.979,1.301-3.313,3.154-3.987c2.866-1.042,5.706-0.547,8.537,0.206c0.47,0.125,0.531,0.426,0.509,0.827
	c-0.052,0.915-0.085,1.83-0.142,2.744c-0.023,0.39,0.019,0.927-0.581,0.835c-0.616-0.095-1.408,0.444-1.829-0.497
	c-0.267-0.596-0.134-1.464-1.026-1.674c-1.193-0.28-2.383-0.428-3.561,0.089c-0.615,0.271-1.053,0.691-1.119,1.377
	c-0.064,0.673,0.378,1.084,0.889,1.408c0.973,0.619,2.104,0.843,3.163,1.25c0.615,0.236,1.244,0.443,1.84,0.724
	c1.709,0.803,2.861,2.01,2.883,4.041c0.022,2.157-0.899,3.751-2.813,4.726c-2.461,1.254-5.061,0.993-7.646,0.544
	C116.941,62.811,116.949,62.771,116.948,60.429z"/>
<path fill-rule="evenodd" clip-rule="evenodd" fill="#237F75" d="M64.1,43.437c-1.832-0.025-2.934-1.15-2.925-2.988
	c0.008-1.866,1.174-2.987,3.072-2.952c1.841,0.034,2.935,1.144,2.941,2.984C67.195,42.309,65.99,43.462,64.1,43.437z M62.619,40.464
	c0,1.286,0.636,2.125,1.586,2.097c0.881-0.026,1.552-0.903,1.566-2.047c0.016-1.268-0.598-2.1-1.565-2.122
	C63.233,38.37,62.619,39.172,62.619,40.464z"/>
<path fill-rule="evenodd" clip-rule="evenodd" fill="#237F75" d="M73.644,40.487c0.001,0.733-0.01,1.465,0.006,2.198
	c0.008,0.396-0.104,0.628-0.55,0.612c-0.387-0.014-0.753-0.015-0.746-0.554c0.004-0.293-0.046-0.59-0.01-0.878
	c0.113-0.917-0.283-1.221-1.182-1.193c-1.384,0.042-1.392,0.003-1.394,1.408c0,0.183-0.014,0.366-0.003,0.549
	c0.024,0.425-0.075,0.685-0.593,0.687c-0.519,0.001-0.726-0.183-0.719-0.702c0.019-1.429,0.016-2.857,0.009-4.286
	c-0.002-0.426,0.102-0.691,0.605-0.708c0.546-0.018,0.737,0.242,0.688,0.729c-0.1,1.007,0.144,1.546,1.356,1.486
	c0.952-0.047,1.351-0.295,1.244-1.263c-0.033-0.299-0.146-0.752,0.248-0.871c0.474-0.142,1.069-0.287,1.044,0.588
	C73.626,39.021,73.642,39.754,73.644,40.487z"/>
<path fill-rule="evenodd" clip-rule="evenodd" fill="#237F75" d="M55.219,41.943c0.807,0.295,1.485,0.705,2.276,0.672
	c0.484-0.02,1.046-0.083,1.154-0.637c0.126-0.648-0.492-0.713-0.929-0.85c-0.453-0.141-0.938-0.191-1.376-0.362
	c-0.651-0.252-1.116-0.687-1.115-1.467c0.001-0.77,0.441-1.217,1.085-1.499c1.024-0.447,2.083-0.351,3.126-0.094
	c0.637,0.156,0.558,0.643,0.403,1.193c-0.702-0.312-1.372-0.614-2.125-0.545c-0.456,0.042-0.939,0.129-1.005,0.661
	c-0.067,0.538,0.454,0.602,0.819,0.72c0.52,0.168,1.068,0.252,1.586,0.426c0.602,0.203,1,0.639,1.047,1.286
	c0.046,0.631-0.242,1.154-0.78,1.479c-1.229,0.744-2.533,0.625-3.819,0.201C54.983,42.936,55.251,42.419,55.219,41.943z"/>
<path fill-rule="evenodd" clip-rule="evenodd" fill="#237F75" d="M77.888,37.633c0.604-0.105,0.941,0.103,1.149,0.713
	c0.469,1.384,1.036,2.735,1.527,4.112c0.087,0.243,0.489,0.643-0.028,0.8c-0.38,0.115-0.854,0.191-1.177-0.291
	c-0.829-1.239-2.097-1.237-2.948,0.005c-0.333,0.484-0.802,0.383-1.174,0.25c-0.405-0.144-0.083-0.496,0.007-0.738
	c0.511-1.37,1.057-2.728,1.546-4.106C76.989,37.819,77.26,37.483,77.888,37.633z M77.914,39.259
	c-0.356,0.604-0.896,1.158-0.511,1.839c0.087,0.155,0.903,0.16,0.996,0.004C78.808,40.413,78.159,39.874,77.914,39.259z"/>
<path fill-rule="evenodd" clip-rule="evenodd" fill="#FFFFFF" d="M33.828,40.715c1.817,0.066,3.882,0.434,5.642,1.837
	c0.617,0.493,0.784,0.878,0.083,1.456c-0.677,0.558-1.292,1.198-1.889,1.844c-0.433,0.469-0.772,0.511-1.287,0.086
	c-0.924-0.762-2.039-0.971-3.212-0.831c-0.58,0.069-1.106,0.319-1.202,0.951c-0.097,0.637,0.334,1.046,0.879,1.244
	c0.999,0.362,2.019,0.663,3.032,0.982c1.088,0.344,2.147,0.747,3.099,1.393c3.369,2.285,3.095,7.384-0.502,9.33
	c-3.556,1.923-9.555,1.095-12.493-1.682c-0.649-0.613-0.842-1.008,0.078-1.534c0.856-0.49,1.653-1.093,2.442-1.691
	c0.495-0.375,0.844-0.393,1.312,0.081c1.254,1.271,2.82,1.658,4.554,1.378c0.63-0.102,1.259-0.321,1.359-1.075
	c0.095-0.716-0.447-1.079-0.997-1.289c-1.197-0.457-2.425-0.828-3.637-1.248c-1.483-0.514-2.836-1.245-3.723-2.593
	c-1.714-2.604-0.839-6.054,1.891-7.607C30.57,41,31.998,40.733,33.828,40.715z"/>
</svg>
