<?xml version="1.0" encoding="utf-8"?>
<!-- Generator: Adobe Illustrator 16.0.0, SVG Export Plug-In . SVG Version: 6.00 Build 0)  -->
<!DOCTYPE svg PUBLIC "-//W3C//DTD SVG 1.1//EN" "http://www.w3.org/Graphics/SVG/1.1/DTD/svg11.dtd">
<svg version="1.1" id="Layer_1" xmlns="http://www.w3.org/2000/svg" xmlns:xlink="http://www.w3.org/1999/xlink" x="0px" y="0px"
	 width="150px" height="93.795px" viewBox="0 0 150 93.795" enable-background="new 0 0 150 93.795" xml:space="preserve">
<g>
	<path fill="#E22C22" d="M52.688,58.484c2.809-3.567,5.442-4.447,9.688-3.26c0.519,0.146,0.934-0.008,1.381-0.124
		c1.324-0.344,2.769-0.718,3.95-0.043c1.03,0.589,1.709,0.388,2.673,0.035c3.433-1.257,6.73,0.732,5.712,4.888
		c-0.188,0.767-0.53,1.534-0.406,2.388c0.688-0.09,0.573-0.615,0.663-1.004c0.761-3.212,1.521-6.423,2.273-9.636
		c0.557-2.375,0.55-2.394,2.972-2.56c0.53-0.035,0.786-0.141,0.783-0.73c-0.019-3.695-0.009-7.391-0.009-11.192
		c-2.963,1.534-5.859,1.473-8.865-0.019c0,2.841,0,5.509,0,8.179c-1.144-2.288-2.327-4.474-4.269-6.153
		c-1.987-1.722-4.271-2.779-6.91-2.551c-5.793,0.5-8.567,4.474-10.556,9.365c0-2.524-0.028-5.048,0.016-7.57
		c0.014-0.802-0.137-1.139-1.048-1.117c-2.697,0.063-5.396,0.057-8.093,0.003c-0.858-0.019-1.089,0.231-1.081,1.084
		c0.042,4.351,0.028,8.704,0.012,13.055c-0.003,0.92,0.258,2.198-1.166,2.164c-1.343-0.032-1.018-1.292-1.023-2.144
		c-0.027-4.352-0.032-8.704,0.004-13.056c0.007-0.837-0.208-1.123-1.089-1.105c-2.828,0.057-5.657,0.037-8.486,0.01
		c-0.678-0.007-1.01,0.105-1.006,0.912c0.031,7.007-0.044,14.015,0.04,21.019c0.056,4.631,2.409,6.857,6.677,6.582
		c1.481-0.096,2.747-0.769,3.925-1.616c0.619-0.444,1.208-0.93,1.925-1.488c0.028,0.519,0.107,0.868,0.053,1.196
		c-0.192,1.16,0.256,1.47,1.411,1.425c2.564-0.095,5.137-0.09,7.701,0c1.084,0.039,1.272-0.342,1.248-1.311
		c-0.063-2.512-0.021-5.025-0.021-7.875C52.15,57.167,52.407,57.797,52.688,58.484z M62.088,48.854
		c0.362-0.805,0.91-0.683,1.32,0.046c0.441,0.783,0.381,1.674,0.514,2.522c-0.119,0.81-0.101,1.646-0.479,2.402
		c-0.153,0.307-0.305,0.642-0.737,0.63c-0.365-0.01-0.537-0.296-0.645-0.564C61.381,52.212,61.348,50.504,62.088,48.854z"/>
	<path fill="#E22C22" d="M128.203,53.68c-0.198-0.317-0.589-0.654-0.358-1.042c0.189-0.319,0.641-0.156,0.975-0.158
		c3.047-0.009,6.094-0.025,9.139,0.01c0.745,0.009,1.072-0.137,1.105-0.977c0.17-4.327-1.271-8.045-4.242-11.131
		c-3.531-3.667-8.273-4.188-12.556-1.422c-0.699,0.452-0.947,0.144-1.386-0.253c-2.477-2.247-5.713-2.112-8.036,0.288
		c-0.212,0.221-0.274,0.665-0.784,0.6c0-0.224-0.032-0.444,0.006-0.653c0.225-1.252-0.252-1.629-1.531-1.572
		c-2.519,0.111-5.049,0.086-7.57,0.008c-1.019-0.032-1.223,0.308-1.212,1.252c0.047,4.353,0.021,8.705,0.021,13.057
		c0,1.639,0,3.277,0,5.104c3.319-2.756,6.67-3.27,10.375-0.764c0-1.846,0-3.499,0-5.324c0.922,1.066,1.742,1.966,2.896,2.293
		c0.841,0.238,1.028,0.701,1.112,1.46c0.382,3.401,1.522,6.507,3.789,9.127c4.103,4.746,10.647,5.08,15.128,0.744
		c2.61-2.526,3.916-5.625,3.965-9.366c-0.966,0.428-1.765,0.861-2.615,1.142C133.045,57.216,129.811,56.247,128.203,53.68z
		 M127.547,46.908c-0.014-0.784,0.434-1.591,1.359-1.589c0.918,0.001,1.375,0.819,1.389,1.586c0.019,1.05-0.945,0.19-1.354,0.603
		C128.505,47.118,127.565,47.928,127.547,46.908z"/>
	<path fill="#0F70B3" d="M110.629,63.536c-1.827-0.041-3.655-0.006-5.482-0.021c-0.778-0.006-1.378-0.246-1.354-1.19
		c0.023-0.904,0.581-0.977,1.321-0.984c1.477-0.014,2.958-0.084,4.363-0.627c1.428-0.55,2.16-1.486,2.099-2.663
		c-0.06-1.151-0.941-2.002-2.429-2.346c-4.493-1.034-8.273,2.075-8.242,6.761c0.002,0.338,0.431,0.869-0.149,1.001
		c-0.618,0.14-1.318,0.204-1.908-0.162c-0.476-0.296-0.247-0.767-0.171-1.185c0.212-1.153,0.519-2.3,0.603-3.461
		c0.14-1.918-0.872-2.908-2.802-2.928c-1.47-0.017-2.668,0.665-3.825,1.553c-0.152-0.514,0.461-1.373-0.638-1.33
		c-0.818,0.032-1.746-0.29-1.981,1.051c-0.328,1.879-0.891,3.716-1.243,5.592c-0.28,1.485-1.372,0.889-2.139,0.881
		c-0.986-0.011-0.679-0.826-0.561-1.379c0.351-1.655,0.77-3.299,1.123-4.955c0.082-0.376,0.39-0.836-0.168-1.151
		c-1.06-0.6-2.577,0.029-2.847,1.198c-0.417,1.819-0.808,3.646-1.241,5.461c-0.08,0.331-0.003,0.756-0.576,0.88
		c-1.786,0.394-2.381-0.138-1.98-1.87c0.78-3.384,1.566-6.767,2.333-10.153c0.097-0.424,0.423-0.939-0.259-1.221
		c-1.286-0.525-2.459,0.1-2.777,1.485c-0.802,3.469-1.601,6.938-2.403,10.407c-0.304,1.311-0.918,1.664-2.322,1.306
		c-1.305-0.333-0.397-1.203-0.35-1.785c0.077-0.946,0.412-1.865,0.543-2.81c0.234-1.706-0.583-2.771-2.279-3.019
		c-1.775-0.257-3.207,0.497-4.63,1.795c-0.074-1.459-0.894-1.842-1.963-1.802c-0.775,0.027-1.561,0.13-2.313,0.315
		c-0.767,0.19-1.429,0.243-2.239-0.03c-4.474-1.517-8.814,1.514-8.886,6.121c-0.029,1.885,0.873,3.142,2.582,3.596
		c4.749,1.262,8.645-1.695,8.635-6.583c0-0.632,0.001-1.194,0.796-1.139c0.834,0.059,0.596,0.731,0.5,1.198
		c-0.367,1.786-0.781,3.563-1.18,5.342c-0.064,0.288-0.3,0.651-0.002,0.846c0.614,0.405,1.333,0.267,2.025,0.223
		c0.573-0.037,0.826-0.366,0.939-0.896c0.253-1.189,0.515-2.377,0.809-3.556c0.297-1.187,0.967-2.134,2.011-2.78
		c0.515-0.318,1.087-0.665,1.697-0.267c0.631,0.414,0.464,1.066,0.346,1.663c-0.254,1.278-0.582,2.544-0.781,3.83
		c-0.199,1.29,0.417,1.991,1.72,2.042c0.999,0.038,2.002,0.007,3.001,0.007c4.653,0.002,9.307-0.006,13.96,0.01
		c0.818,0.001,1.259-0.253,1.381-1.151c0.153-1.114,0.465-2.21,0.747-3.303c0.326-1.27,1.011-2.301,2.167-2.972
		c0.501-0.29,1.063-0.527,1.602-0.201c0.59,0.36,0.439,1.015,0.344,1.55c-0.214,1.195-0.553,2.371-0.753,3.568
		c-0.248,1.481,0.481,2.464,1.927,2.479c4.438,0.044,8.877,0.02,13.314,0.013c0.49-0.002,0.942-0.123,1.22-0.605
		C112.349,64.33,111.818,63.564,110.629,63.536z M107.571,57.437c0.501,0.083,0.979,0.277,1.039,0.816
		c0.051,0.465-0.326,0.807-0.73,0.986c-1.047,0.463-2.147,0.478-3.28,0.346C105.179,57.983,106.26,57.219,107.571,57.437z
		 M58.412,63.904c-1.486,0.398-2.505-0.39-2.463-1.906c0.052-1.908,1.113-3.565,2.563-4.002c1.518-0.457,2.62,0.396,2.533,1.962
		C60.935,61.918,59.871,63.514,58.412,63.904z"/>
	<path fill="#E22C22" d="M26.143,52.331c-0.044-1.305,0.04-2.613-0.029-3.914c-0.046-0.879,0.179-1.326,1.129-1.167
		c0.873,0.145,1.098-0.25,1.081-1.093c-0.05-2.61-0.047-5.222,0-7.832c0.014-0.794-0.208-1.165-1.02-1.02
		c-1.034,0.183-1.211-0.316-1.192-1.239c0.056-2.693,0.02-5.388,0.02-8.082c-0.09-0.051-0.181-0.102-0.272-0.151
		c-4.926,6.403-9.852,12.809-14.936,19.419c1.548,0,2.803,0.054,4.049-0.019c0.888-0.054,1.082,0.29,1.074,1.111
		c-0.039,3.698-0.028,7.398-0.007,11.097c0.004,0.689,0.063,1.395,0.218,2.064c0.683,2.964,3.506,5.004,6.588,4.808
		c2.981-0.188,5.368-2.372,5.517-5.266c0.124-2.416,0.025-4.842,0.025-7.319C26.786,54.224,26.192,53.828,26.143,52.331z"/>
	<path fill="#E22C22" d="M87.989,47.258c0.354,0.005,0.847-0.15,0.858,0.481c0.039,2.027-0.151,4.072,0.449,6.063
		c0.054,0.179-0.064,0.431-0.151,0.627c-0.317,0.719-0.385,1.451-0.193,2.272c0.587-1.723,2.112-2.372,3.98-1.634
		c0.497,0.196,0.853,0.205,1.327,0.035c3.608-1.297,5.881,0.113,6.201,3.821c0.807-1.209,0.977-2.759,0.569-5.187
		c-1.369,0.506-2.015,0.111-2.088-1.383c-0.064-1.303,0.029-2.613-0.035-3.916c-0.043-0.87,0.173-1.346,1.134-1.188
		c0.925,0.151,1.174-0.253,1.153-1.156c-0.059-2.522-0.066-5.05,0.003-7.572c0.025-0.968-0.224-1.391-1.221-1.224
		c-0.897,0.152-1.099-0.311-1.066-1.119c0.051-1.347,0.014-2.698,0.014-4.048c0-1.414,0-2.827,0-4.24
		c-0.089-0.021-0.176-0.04-0.264-0.059c-4.918,6.395-9.835,12.79-14.932,19.418C85.327,47.252,86.659,47.242,87.989,47.258z"/>
	<path fill="#E22C22" d="M80.008,35.943c1.19-1.16,1.623-2.622,1.578-4.334c0.07-1.495-0.317-2.934-1.373-4.131
		c-1.208-1.372-3.073-1.402-4.357-0.115c-2.052,2.058-2.001,6.545,0.095,8.564C77.177,37.11,78.786,37.132,80.008,35.943z"/>
	<path fill="#E22D24" d="M128.298,36c0.162,0.132,0.323,0.264,0.486,0.395c0.843-0.99,1.723-1.953,2.515-2.981
		c0.651-0.845,0.691-1.779-0.046-2.613c-0.703-0.794-1.591-0.902-2.468-0.337c-0.938,0.606-1.329,1.773-0.651,2.472
		C129.202,34.037,128.597,34.961,128.298,36z"/>
	<path fill="#E22D23" d="M66.74,35.875c1.203-0.866,2.313-1.681,3.057-2.828c0.564-0.869,0.325-1.779-0.452-2.441
		c-0.737-0.632-1.594-0.678-2.379-0.075c-0.76,0.584-1.18,1.489-0.627,2.272C67.033,33.789,67.35,34.679,66.74,35.875z"/>
	<path fill="#E22D23" d="M62.804,31.539c-0.938,1.573-1.787,2.999-2.691,4.521c1.815,0,3.458,0,5.232,0
		C64.485,34.53,63.692,33.119,62.804,31.539z"/>
	<path fill="#E33026" d="M95.059,59.21c-0.886,0.3-1.47,0.912-1.72,1.696c-0.433,1.355-0.718,2.755-1.065,4.136
		c-0.084,0.337,0.002,0.591,0.345,0.729c0.854,0.343,1.706,0.67,2.77,0.418C93.091,63.886,95.196,61.528,95.059,59.21z"/>
	<path fill="#1171B4" d="M86.446,51.948c-1.012,0.093-1.561,0.669-1.548,1.713c0.014,1.049,0.604,1.593,1.602,1.663
		c0.969,0.067,1.722-0.727,1.706-1.715C88.19,52.627,87.41,51.859,86.446,51.948z"/>
	<path fill="#E33229" d="M68.415,64.055c2.106-1.063,2.359-2.818,2.549-4.799C68.821,60.257,68.902,62.206,68.415,64.055z"/>
	<path fill="#E5443B" d="M111.902,60.356c-1.161,1.218-2.745,1.617-4.302,2.078c0.889,0.062,1.761,0.115,2.622,0.043
		c0.615-0.051,1.441,0.438,1.766-0.06c0.296-0.457,0.063-1.26,0.059-1.91C112.047,60.481,111.999,60.456,111.902,60.356z"/>
	<path fill="#E54036" d="M81.6,62.319c0.511,0.12,0.419-0.398,0.519-0.698c0.302-0.919,0.332-1.851,0.006-2.796
		c-0.207,0.912-0.431,1.817-0.606,2.735C81.47,61.806,81.146,62.214,81.6,62.319z"/>
	<path fill="#E43E35" d="M62.735,65.352c-0.249,0.092-0.497,0.323-0.628,0.558c-0.099,0.176,0.156,0.233,0.319,0.229
		c0.274-0.007,0.628,0.089,0.591-0.407C62.958,65.581,63.049,65.236,62.735,65.352z"/>
	<path fill="#E22F25" d="M59.2,58.998c-1.136,0.029-2.135,1.394-2.172,2.976c-0.014,0.556,0.089,0.93,0.746,0.935
		c1.115,0.011,2.093-1.281,2.133-2.842C59.888,59.568,60.059,58.977,59.2,58.998z"/>
</g>
</svg>
