<?xml version="1.0" encoding="utf-8"?>
<!-- Generator: Adobe Illustrator 16.0.0, SVG Export Plug-In . SVG Version: 6.00 Build 0)  -->
<!DOCTYPE svg PUBLIC "-//W3C//DTD SVG 1.1//EN" "http://www.w3.org/Graphics/SVG/1.1/DTD/svg11.dtd">
<svg version="1.1" id="Layer_1" xmlns="http://www.w3.org/2000/svg" xmlns:xlink="http://www.w3.org/1999/xlink" x="0px" y="0px"
	 width="150px" height="93.795px" viewBox="0 0 150 93.795" enable-background="new 0 0 150 93.795" xml:space="preserve">
<rect fill="#6260AB" width="150" height="93.795"/>
<g>
	<path fill="#FFFFFF" d="M35.954,51.124c-1.929,0.053-3.859,0.07-5.788,0.063c-0.506-0.004-0.673,0.147-0.651,0.656
		c0.038,0.857,0.012,1.721,0.012,2.719c-0.973-0.521-1.888-0.916-2.7-1.463c-2.201-1.488-4.548-2.213-7.245-1.934
		c-1.494,0.154-2.318-0.788-2.323-2.294c-0.007-3.06-0.009-6.118,0-9.177c0.004-1.475,0.777-2.235,2.281-2.237
		c5.245-0.009,10.492-0.004,15.738-0.003c0.353,0,0.76-0.077,1.031,0.158c0.946,0.826,2.073,0.462,3.135,0.54
		c0.479,0.033,0.542-0.15,0.343-0.568c-0.837-1.771-2.264-2.75-4.181-2.768c-5.47-0.058-10.946-0.055-16.416-0.005
		c-2.535,0.023-4.529,2.029-4.577,4.563c-0.063,3.281-0.059,6.566-0.003,9.848c0.042,2.477,1.896,4.36,4.374,4.541
		c0.897,0.066,1.801,0.063,2.7,0.034c0.635-0.021,1.18,0.138,1.735,0.442c2.861,1.587,5.741,3.137,8.766,4.785
		c0-1.205,0-2.26,0-3.314c0-1.904,0-1.896,1.888-1.907c1.141-0.009,2.314,0.146,3.426-0.497c-0.525-0.584-0.955-1.178-1.135-1.916
		C36.32,51.209,36.223,51.118,35.954,51.124z"/>
	<path fill="#FFFFFF" d="M82.616,48.308c2.112-0.691,3.305-2.512,3.108-4.748c-0.179-2.026-1.67-3.507-3.844-3.803
		c-1.441-0.193-2.896,0-4.34-0.102c-0.82-0.055-1.094,0.137-1.08,1.032c0.061,3.701,0.025,7.408,0.025,11.11
		c0,1.756,0.002,1.707,1.761,1.765c0.782,0.023,0.894-0.262,0.868-0.937c-0.051-1.356-0.016-2.715-0.016-4.074
		c1.225,1.474,2.262,2.968,3.307,4.464c0.158,0.229,0.248,0.529,0.619,0.526c0.91-0.009,1.82-0.003,2.877-0.003
		c-1.311-1.794-2.5-3.422-3.729-5.104C82.387,48.376,82.502,48.347,82.616,48.308z M79.102,44.154c0-0.096-0.033-0.209,0.004-0.288
		c0.268-0.567-0.641-1.618,0.556-1.747c2.168-0.232,3.394,0.509,3.513,1.925c0.094,1.09-0.66,1.974-1.861,2.184
		C79.102,46.611,79.102,46.611,79.102,44.154z"/>
	<path fill="#FFFFFF" d="M45.933,39.653c-0.782-0.031-1.033,0.148-1.016,0.98c0.06,2.701,0.054,5.404,0.01,8.104
		c-0.033,2.09-1.56,3.197-3.329,2.474c-1.221-0.497-1.4-1.588-1.41-2.714c-0.024-2.35-0.009-4.699-0.009-7.044
		c0-1.813,0-1.772-1.832-1.8c-0.693-0.012-0.768,0.259-0.763,0.836c0.025,2.667,0.003,5.339,0.018,8.008
		c0.001,0.479,0.067,0.961,0.148,1.436c0.423,2.452,2.518,4,5.179,3.84c2.576-0.16,4.42-1.896,4.529-4.36
		c0.065-1.511,0.012-3.025,0.012-4.534c0.018,0,0.038,0,0.055,0c0-1.189,0-2.381,0-3.57C47.524,39.671,47.523,39.714,45.933,39.653z
		"/>
	<path fill="#FFFFFF" d="M90.963,42.904c-2.388,0.465-4.176,2.703-4.23,5.303c-0.058,2.601,1.588,4.842,4.012,5.479
		c2.504,0.653,4.977-0.457,6.199-2.875c-1.314,0.071-2.5-0.119-3.721,0.525c-1.469,0.773-3.158-0.166-3.769-1.854
		c2.429,0,4.833-0.024,7.233,0.016c0.654,0.012,0.813-0.227,0.848-0.818C97.762,44.855,94.725,42.175,90.963,42.904z M94.291,47.416
		c-0.732-0.058-1.473-0.015-2.209-0.015c-0.734,0-1.471-0.012-2.206,0.006c-0.444,0.012-0.56-0.099-0.38-0.552
		c0.398-1.006,1.434-1.739,2.623-1.792c1.123-0.049,2.201,0.608,2.635,1.582C94.973,47.139,95.051,47.474,94.291,47.416z"/>
	<path fill="#FFFFFF" d="M105.406,42.875c-3.229-0.421-6.166,1.745-6.324,4.866c-0.146,2.927-0.043,5.863-0.063,8.791
		c-0.004,0.378,0.111,0.525,0.49,0.494c0.287-0.026,0.586-0.039,0.867,0c0.73,0.104,0.98-0.131,0.967-0.922
		c-0.041-2.638-0.004-5.279,0.031-7.918c0.018-1.36,0.969-2.547,2.262-2.929c1.262-0.369,2.645,0.087,3.445,1.14
		c0.824,1.087,0.861,2.568,0.092,3.699c-0.961,1.413-2.402,1.733-4.479,0.913c0,0.687,0.043,1.304-0.012,1.907
		c-0.053,0.563,0.242,0.713,0.695,0.813c3.076,0.67,6.035-1.358,6.617-4.541C110.533,46.264,108.348,43.258,105.406,42.875z"/>
	<path fill="#FFFFFF" d="M117.051,42.776c-3.031-0.012-5.504,2.471-5.51,5.536c-0.006,3.098,2.393,5.492,5.498,5.496
		c3.084,0.002,5.545-2.432,5.545-5.488C122.58,45.302,120.07,42.786,117.051,42.776z M117.061,51.534
		c-1.742,0.009-3.17-1.432-3.172-3.202c-0.004-1.782,1.393-3.207,3.148-3.218c1.711-0.012,3.193,1.468,3.199,3.192
		C120.246,50.024,118.77,51.522,117.061,51.534z"/>
	<path fill="#FFFFFF" d="M54.816,47.41c-0.628-0.238-1.284-0.404-1.916-0.634c-0.387-0.137-0.823-0.259-0.827-0.802
		c-0.003-0.46,0.271-0.704,0.667-0.838c0.5-0.168,0.927-0.003,1.141,0.442c0.193,0.403,0.465,0.436,0.833,0.427
		c0.61-0.018,1.218-0.003,1.913-0.003c-0.177-1.642-1.003-2.657-2.443-3.073c-1.97-0.57-4.101,0.445-4.645,2.212
		c-0.558,1.823,0.393,3.239,2.637,3.958c0.548,0.178,1.112,0.348,1.609,0.625c0.733,0.41,0.678,1.307-0.078,1.676
		c-0.726,0.356-1.412,0.162-1.718-0.535c-0.273-0.616-0.647-0.678-1.188-0.643c-0.416,0.025-0.838,0.034-1.254-0.004
		c-0.52-0.046-0.56,0.17-0.475,0.617c0.51,2.753,4.217,4.009,6.532,2.193c1.087-0.852,1.486-1.993,1.306-3.33
		C56.748,48.474,55.892,47.819,54.816,47.41z"/>
	<path fill="#FFFFFF" d="M135.42,44.636c-0.041-0.317-0.039-0.646,0-0.962c0.051-0.482-0.154-0.651-0.602-0.567
		c-0.807,0.154-0.996-0.241-0.914-0.954c0.047-0.414-0.045-0.844,0.02-1.253c0.154-1.009-0.234-1.273-1.238-1.268
		c-0.984,0.007-1.422,0.23-1.246,1.257c0.059,0.345,0,0.708,0.01,1.063c0.018,0.631,0.174,1.352-0.896,1.16
		c-0.314-0.054-0.344,0.201-0.34,0.442c0.006,0.323,0.018,0.646-0.004,0.965c-0.031,0.532-0.012,0.985,0.732,0.86
		c0.461-0.075,0.516,0.216,0.51,0.588c-0.014,1.156-0.004,2.315-0.004,3.474c0,0.805,0,1.609,0,2.412c0,1.709,0,1.678,1.695,1.707
		c0.645,0.008,0.795-0.184,0.783-0.801c-0.037-2.186,0-4.377-0.025-6.56c-0.006-0.582,0.076-0.954,0.773-0.823
		C135.275,45.488,135.492,45.227,135.42,44.636z"/>
	<path fill="#FFFFFF" d="M128.543,42.816c-0.438-0.174-0.953,0.031-1.363,0.305c-0.264,0.177-0.482,0.422-0.965,0.852
		c0.326-0.954-0.166-0.896-0.645-0.872c-0.256,0.014-0.52,0.038-0.771-0.003c-0.688-0.114-0.844,0.166-0.834,0.837
		c0.043,2.605,0.02,5.214,0.02,7.822c0,1.85-0.002,1.829,1.889,1.801c0.512-0.01,0.643-0.152,0.633-0.648
		c-0.025-1.803-0.014-3.607-0.008-5.411c0.002-0.939,0.305-1.829,1.27-2.044c0.959-0.212,1.137-0.704,0.998-1.515
		C128.701,43.552,129.012,43.002,128.543,42.816z"/>
	<path fill="#FFFFFF" d="M74.863,42.846c-0.564-0.237-1.183,0.065-1.674,0.474c-0.17,0.14-0.326,0.299-0.634,0.587
		c0.118-0.643-0.073-0.887-0.623-0.811c-0.282,0.041-0.583,0.046-0.865,0c-0.695-0.111-0.839,0.174-0.829,0.84
		c0.041,2.631,0.016,5.264,0.016,7.898c0,1.731,0,1.694,1.762,1.729c0.673,0.012,0.775-0.228,0.765-0.814
		c-0.031-1.766-0.018-3.532,0.003-5.298c0.012-0.979,0.372-1.852,1.396-2.053c0.871-0.168,0.952-0.634,0.856-1.311
		C74.979,43.66,75.289,43.023,74.863,42.846z"/>
	<path fill="#FFFFFF" d="M27.226,49.328c2.211,0.099,5.277-1.724,6.461-5.125c-4.226,3.28-8.397,3.302-12.606,0.015
		C21.731,46.855,24.707,49.213,27.226,49.328z"/>
	<path fill="#FFFFFF" d="M32.185,41.69c-0.009-1.098-0.943-2.019-2.047-2.019c-1.109,0.003-2.016,0.921-2.012,2.038
		c0.004,1.119,0.907,2.009,2.032,2C31.285,43.7,32.192,42.797,32.185,41.69z"/>
	<path fill="#FFFFFF" d="M26.605,41.711c0.004-1.141-0.863-2.032-1.984-2.038c-1.1-0.006-2.033,0.913-2.046,2.013
		c-0.015,1.103,0.898,2.013,2.023,2.022C25.745,43.718,26.601,42.866,26.605,41.711z"/>
	<g>
		<g>
			<g>
				<g>
					<path fill="#FFFFFF" d="M62.331,42.892c-2.371,0.413-4.196,2.526-4.322,4.994c-0.142,2.838,1.403,5.104,3.938,5.784
						c2.503,0.672,4.981-0.413,6.264-2.884c-1.305,0.143-2.454-0.157-3.643,0.506c-1.48,0.828-3.253-0.087-3.868-1.813
						c0.339,0,0.648,0,0.958,0c2.057,0,4.115-0.039,6.17,0.023c0.744,0.023,0.915-0.25,0.961-0.908
						C69.05,44.947,66.01,42.251,62.331,42.892z M61.059,47.407c-0.387,0.003-0.506-0.081-0.35-0.5
						c0.407-1.096,1.651-1.916,2.887-1.837c1.4,0.084,2.295,0.881,2.554,2.332C64.446,47.401,62.751,47.397,61.059,47.407z"/>
				</g>
			</g>
		</g>
	</g>
</g>
</svg>
