<?xml version="1.0" encoding="utf-8"?>
<!-- Generator: Adobe Illustrator 16.0.0, SVG Export Plug-In . SVG Version: 6.00 Build 0)  -->
<!DOCTYPE svg PUBLIC "-//W3C//DTD SVG 1.1//EN" "http://www.w3.org/Graphics/SVG/1.1/DTD/svg11.dtd">
<svg version="1.1" id="Layer_1" xmlns="http://www.w3.org/2000/svg" xmlns:xlink="http://www.w3.org/1999/xlink" x="0px" y="0px"
	 width="150px" height="93.795px" viewBox="0 0 150 93.795" enable-background="new 0 0 150 93.795" xml:space="preserve">
<g>
	<g>
		<defs>
			<path id="SVGID_1_" d="M97.223,29.856c-1.795,1.14-2.923,2.938-1.472,6.452c1.062,2.564,2.857,5.902,4.483,8.156
				c1.609,2.233,3.486,4.28,5.438,5.896c3.078,2.548,5.706,3.765,8.442-0.001c1.236-1.7,2.477-4,3.45-5.909
				c1.287-2.529,2.304-5.342,3.099-8.132c0.319-1.121,0.738-2.642,0.647-4.039c-0.093-1.446-0.724-2.758-2.188-3.468
				c1.512,1.008,1.681,2.377,1.216,3.924c-0.434,1.325-0.917,2.506-1.44,3.588c-1.195,2.465-2.59,4.441-4.096,6.428
				c-1.768,2.412-2.801,2.059-4.455,0.424c-2.041-2.082-3.877-4.348-5.427-6.856c-0.888-1.435-2.746-4.657-2.838-6.345
				c-0.066-1.202,0.609-2.037,2.453-2.411C102.145,27.893,99.193,28.603,97.223,29.856"/>
		</defs>
		<clipPath id="SVGID_2_">
			<use xlink:href="#SVGID_1_"  overflow="visible"/>
		</clipPath>
		
			<linearGradient id="SVGID_3_" gradientUnits="userSpaceOnUse" x1="-174.4951" y1="196.5674" x2="-173.4951" y2="196.5674" gradientTransform="matrix(-20.9222 -14.6499 -14.6499 20.9222 -655.0916 -6622.3564)">
			<stop  offset="0" style="stop-color:#006840"/>
			<stop  offset="0.4" style="stop-color:#007A48"/>
			<stop  offset="1" style="stop-color:#86C440"/>
		</linearGradient>
		<polygon clip-path="url(#SVGID_2_)" fill="url(#SVGID_3_)" points="112.485,66.857 81.82,45.386 103.216,14.83 133.881,36.302 		
			"/>
	</g>
	<g>
		<defs>
			<path id="SVGID_4_" d="M109.349,27.244c-1.51,0.006-3.167,0.098-4.815,0.319c-1.842,0.374-2.518,1.209-2.451,2.411
				c0.078,1.438,1.439,3.99,2.389,5.602c2.851-0.427,10.26-0.888,12.857,0.459c0.869,0.45,0.894,1.059,0.807,1.752
				c0.262-0.47,0.516-0.957,0.763-1.463c0.523-1.082,1.007-2.263,1.44-3.588c0.465-1.547,0.296-2.916-1.216-3.924l-0.007-0.004
				c-0.563-0.295-1.212-0.51-1.792-0.678c-1.716-0.496-3.615-0.698-5.525-0.836c-0.592-0.045-1.206-0.051-1.83-0.051
				C109.763,27.244,109.556,27.244,109.349,27.244"/>
		</defs>
		<clipPath id="SVGID_5_">
			<use xlink:href="#SVGID_4_"  overflow="visible"/>
		</clipPath>
		
			<linearGradient id="SVGID_6_" gradientUnits="userSpaceOnUse" x1="-174.5083" y1="196.3193" x2="-173.5083" y2="196.3193" gradientTransform="matrix(12.3808 8.6692 8.6692 -12.3808 563.3464 3971.2725)">
			<stop  offset="0" style="stop-color:#006840"/>
			<stop  offset="0.3" style="stop-color:#007A48"/>
			<stop  offset="1" style="stop-color:#86C440"/>
		</linearGradient>
		<polygon clip-path="url(#SVGID_5_)" fill="url(#SVGID_6_)" points="108.196,18.416 125.757,30.711 114.622,46.613 97.063,34.318 
					"/>
	</g>
	<path fill-rule="evenodd" clip-rule="evenodd" fill="#004522" d="M97.023,66.479c1.487-0.18,2.748-0.939,3.173-3.189
		c0.271-1.438,0.233-3.756-0.17-5.113c-0.187-0.629-0.469-1.162-0.885-1.51c-0.699-0.582-1.473-0.686-2.153-0.713
		c-1.151-0.043-1.771,0.156-2.604,0.826c-0.162,0.131-0.303,0.189-0.303-0.039l-0.027-4.8l-2.658,0.043l0.012,13.763
		C92.548,66.514,95.683,66.639,97.023,66.479 M25.698,66.217c0.559,0,0.449,0.049,0.79-0.418c2.312-3.17,4.499-9.932,4.469-13.703
		c-1.075-0.046-2.163,0.131-3.254,0.393c-1.044,6.186-1.96,7.82-3.63,10.977c-1.67-3.156-2.586-4.791-3.632-10.977
		c-1.09-0.262-2.178-0.438-3.253-0.393c-0.03,3.771,2.157,10.533,4.469,13.703c0.34,0.467,0.231,0.418,0.79,0.418H25.698z
		 M102.145,56.463l0.259,2.416c1.053-0.102,1.914-0.379,3.017-0.457c1.663-0.061,2.725-0.1,2.672,1.105
		c-1.243-0.004-2.494,0-3.787,0.01c-1.567,0.014-2.87,0.76-2.697,3.945c0.208,3.824,4.75,3.545,6.822,2.01v0.859h2.412
		c-0.063-3.906,0.22-8.008-0.484-9.117C109.014,55.117,104.61,55.895,102.145,56.463 M45.352,65.893
		c-0.089-0.789-0.179-1.576-0.268-2.365c-1.091,0.205-2.96,0.479-4.061,0.441c-1.27-0.041-1.743-0.65-1.737-2.461
		c0.403,0.455,0.968,0.779,1.68,0.787c1.658,0.018,3.208,0.045,4.842-0.016c0.073-3.014,0.333-5.643-2.677-6.285
		c-1.224-0.262-2.846-0.256-4.007,0.088c-1.274,0.379-1.9,0.982-2.266,2.248c-0.683,2.363-0.49,5.867,1.03,7.219
		C39.633,67.1,43.152,66.547,45.352,65.893 M40.505,58.33h1.33c0.664,0,1.207,0.543,1.207,1.207v0.535h-3.744v-0.535
		C39.298,58.873,39.841,58.33,40.505,58.33 M125.543,66.33l0.083-4.428c0.005-0.27,0.246,0.094,0.313,0.201
		c0.877,1.471,1.688,2.578,2.989,3.885c0.367,0.369,0.442,0.342,1.095,0.342h2.79c-2.036-1.686-3.168-3.029-4.254-5.072
		c-0.218-0.471-0.207-0.416,0.104-0.857c0.404-0.465,0.913-1.094,1.476-1.734l2.376-2.799c0.012-0.021,0.022-0.043,0.033-0.064
		h-2.527c-0.464,0-0.447-0.07-0.774,0.281c-0.962,1.039-2.066,2.256-2.955,3.236c-0.111,0.123-0.24,0.211-0.352,0.291
		c-0.366,0.264-0.3,0.193-0.301-0.184l-0.024-7.52l-2.692,0.02l-0.033,14.402H125.543z M63.049,65.984l-0.237-2.348
		c-1.214,0.102-2.496,0.436-3.789,0.289c-1.291-0.145-1.449-0.826-1.462-1.875c-0.007-0.635-0.026-1.35,0.011-1.977
		c0.05-0.857,0.303-1.412,1.451-1.541c1.293-0.145,2.575,0.189,3.789,0.289l0.237-2.348c-4.629-1.094-7.515-0.547-8.162,3.041
		c-0.135,0.75-0.074,3.225,0.11,3.928C55.817,66.582,58.644,67.025,63.049,65.984 M48.52,55.953h-1.693
		c-0.005,0.83-0.01,1.66-0.014,2.488c0.583,0.004,1.123,0.008,1.707,0.012c0.003,0.84-0.002,1.732-0.005,2.578
		c-0.003,0.889-0.01,1.723-0.005,2.445c0.006,1.055,0.207,1.957,0.804,2.434c0.25,0.199,0.61,0.305,1.053,0.354
		c1.045,0.119,2.36,0.063,3.255-0.229l-0.087-2.137c-1.04,0.104-2.315,0.328-2.313-0.205c0-1.814,0.001-3.42,0.003-5.234
		c0.833-0.004,1.625-0.008,2.459-0.012c-0.002-0.826-0.004-1.652-0.005-2.48c-0.818-0.004-1.635-0.008-2.452-0.012
		c-0.001-0.824-0.002-1.647-0.003-2.472c-0.902,0.001-1.805,0.003-2.707,0.004L48.52,55.953z M31.993,66.328l2.631,0.051
		l0.096-10.385l-2.738,0.014L31.993,66.328z M67.856,55.814h2.361c1.844,0,3.353,1.508,3.353,3.354v3.965
		c0,1.846-1.509,3.354-3.353,3.354h-2.361c-1.844,0-3.352-1.508-3.352-3.354v-3.965C64.504,57.322,66.012,55.814,67.856,55.814
		 M68.372,58.33c-0.664,0-1.207,0.543-1.207,1.207v3.227c0,0.662,0.543,1.205,1.207,1.205h1.329c0.665,0,1.208-0.543,1.208-1.205
		v-3.227c0-0.664-0.543-1.207-1.208-1.207H68.372z M77.965,66.328c0.024-2.645,0.05-5.291,0.073-7.938
		c0.659,0,1.318-0.002,1.978-0.002c0.524,0.006,1.042,0.34,1.042,0.902v0.365l0.007,6.672h2.656l0.074-7.945
		c0.723-0.002,1.445-0.002,2.168-0.002c0.638-0.002,1.056,0.357,1.057,0.971l0.01,6.977h2.632l0.09-7.504
		c0.02-1.596-0.86-2.914-2.666-2.896c-0.574,0.006-1.147,0.01-1.722,0.016c-0.865,0.008-1.325,0.166-1.858,0.719
		c-0.398,0.414-0.204,0.418-0.568,0.031c-0.534-0.57-1.175-0.764-1.987-0.764h-1.214c-0.737,0.029-1.208,0.262-1.762,0.822
		c-0.44,0.445-0.388,0.592-0.388-0.105v-0.65h-0.001c-0.747,0.004-1.516,0.008-2.263,0.012c0.004,3.439,0.007,6.881,0.011,10.32
		H77.965z M115.224,66.328c0.024-2.645,0.05-5.291,0.074-7.938c0.668,0,1.337-0.002,2.005-0.002c0.59,0.006,1.058,0.359,1.058,0.959
		c0.003,2.326,0.006,4.652,0.008,6.98h2.694c0.021-2.314,0.044-4.629,0.065-6.941c0.018-1.834-0.703-3.457-2.877-3.457h-1.231
		c-0.724,0.027-1.194,0.248-1.732,0.768c-0.462,0.447-0.449,0.691-0.449-0.02v-0.689l-2.3,0.002
		c0.004,3.439,0.012,6.898,0.015,10.338H115.224z M105.212,61.854h2.933v1.533c0,0.637-1.853,0.664-3.029,0.637
		c-0.863-0.02-0.762,0.004-0.8-0.766c-0.014-0.285-0.001-0.57-0.001-0.857C104.314,61.813,104.435,61.854,105.212,61.854
		 M97.576,60.002v1.424v1.426c0,0.664-0.543,1.207-1.207,1.207h-1.358c-0.948,0-0.956,0.012-0.956-1.338v-1.295v-1.764
		c0-1.352,0.008-1.338,0.956-1.338h1.358c0.664,0,1.207,0.543,1.207,1.207V60.002z"/>
</g>
</svg>
