<?xml version="1.0" encoding="utf-8"?>
<!-- Generator: Adobe Illustrator 16.0.0, SVG Export Plug-In . SVG Version: 6.00 Build 0)  -->
<!DOCTYPE svg PUBLIC "-//W3C//DTD SVG 1.1//EN" "http://www.w3.org/Graphics/SVG/1.1/DTD/svg11.dtd">
<svg version="1.1" id="Layer_1" xmlns="http://www.w3.org/2000/svg" xmlns:xlink="http://www.w3.org/1999/xlink" x="0px" y="0px"
	 width="150px" height="93.795px" viewBox="0 0 150 93.795" enable-background="new 0 0 150 93.795" xml:space="preserve">
<g>
	<path fill-rule="evenodd" clip-rule="evenodd" fill="#D4444A" d="M101.508,19.642c-0.056-0.056-0.111-0.11-0.167-0.165
		c0.183-0.146,0.365-0.293,0.649-0.52C101.964,19.406,101.72,19.513,101.508,19.642z"/>
	<g>
		<path fill="#CC2027" d="M128.794,47.344c-1.166-0.004-1.166-0.002-1.166-1.17c0-1.488,0-2.977,0-4.465
			c-0.102-0.068-0.203-0.137-0.305-0.205c-0.874,0.965-1.743,1.936-2.63,2.889c-0.171,0.184-0.206,0.367-0.206,0.596
			c0.003,5.826,0.006,11.65-0.005,17.477c-0.001,0.383,0.097,0.518,0.493,0.504c0.789-0.029,1.58-0.031,2.369,0.002
			c0.437,0.018,0.724-0.113,0.993-0.471c0.579-0.766,1.213-1.49,1.824-2.232c-0.608-0.389-1.277-0.123-1.915-0.152
			c-0.467-0.023-0.635-0.121-0.631-0.621c0.023-2.807,0.011-5.615,0.013-8.424c0.001-0.217-0.041-0.439,0.137-0.627
			c0.857-0.908,1.567-1.949,2.508-2.781c0-0.1,0-0.197,0-0.297C129.78,47.357,129.287,47.344,128.794,47.344z"/>
		<path fill="#CC2027" d="M47.588,63.672c-0.688,0.045-0.858-0.201-0.795-0.83c0.052-0.518,0.011-1.043,0.011-1.752
			c-0.654,0.846-1.173,1.504-1.676,2.172c-0.188,0.25-0.374,0.412-0.724,0.402c-0.938-0.027-1.879-0.031-2.817,0
			c-0.452,0.016-0.541-0.18-0.527-0.568c0.021-0.611,0.005-1.225,0.005-1.977c-1.035,0.705-1.961,1.334-3.011,2.049
			c0-0.434,0-0.703,0-0.973c0-4.969-0.008-9.936,0.013-14.902c0.002-0.533-0.103-0.71-0.68-0.707
			c-5.709,0.023-11.418,0.014-17.127,0.021c-0.165,0-0.391-0.124-0.533,0.177c9.616,7.04,14.973,16.851,18.299,28.054
			c4.186-3.637,8.452-7.344,12.871-11.184C49.648,63.654,48.614,63.605,47.588,63.672z"/>
		<path fill="#273889" d="M95.992,61.326c0,1.635,0,1.645,1.65,1.627c0.355-0.004,0.791,0.182,1.059-0.133
			c0.724-0.85,1.399-1.742,2.181-2.725c-0.493,0-0.816-0.037-1.128,0.008c-0.64,0.09-0.771-0.182-0.763-0.781
			c0.034-2.396-0.126-4.803,0.057-7.186c0.16-2.082-0.39-3.725-1.893-5.141c-0.381-0.357-0.521-0.328-0.843-0.014
			c-0.843,0.828-1.715,1.625-2.593,2.449c-0.673-0.842-1.342-1.635-1.96-2.467c-0.271-0.364-0.404-0.334-0.714-0.031
			c-0.768,0.756-1.589,1.455-2.368,2.158c0-0.682,0-1.48,0-2.279c-0.059-0.018-0.118-0.035-0.177-0.053
			c-0.898,0.943-1.793,1.891-2.695,2.828c-0.187,0.195-0.241,0.414-0.241,0.672c0.003,4.076,0.008,8.152-0.006,12.229
			c-0.001,0.422,0.177,0.488,0.532,0.479c0.617-0.021,1.238-0.043,1.852,0.004c0.576,0.047,0.746-0.133,0.741-0.725
			c-0.028-3.705-0.014-7.412-0.014-11.117c0-0.197-0.025-0.4,0.008-0.592c0.08-0.453,0.452-0.732,0.789-0.924
			c0.321-0.182,0.404,0.305,0.611,0.473c0.713,0.576,0.933,1.326,0.84,2.23c-0.065,0.635-0.013,1.283-0.013,1.926
			c0,2.691,0.014,5.385-0.013,8.076c-0.005,0.527,0.151,0.693,0.665,0.652c0.516-0.043,1.041-0.049,1.555,0
			c0.555,0.055,0.697-0.125,0.693-0.684c-0.027-3.73-0.015-7.461-0.014-11.191c0-0.172-0.018-0.348,0.006-0.518
			c0.051-0.379,0.833-1.08,0.952-0.9c0.459,0.691,1.271,1.143,1.258,2.162C95.966,55.002,95.992,58.164,95.992,61.326z"/>
		<path fill="#CC2027" d="M61.184,50.369c-0.124,0.146-0.31,0.316-0.313,0.479c-0.025,1.338-0.014,2.678-0.014,4.023
			c1.447-0.762,2.191-1.818,1.86-3.432c-0.285-1.393,0.356-2.361,1.345-3.271c1.072-0.988,2.024-2.107,3.169-3.316
			c0,1.283,0,2.352,0,3.332c0.815-0.758,1.647-1.515,2.458-2.295c0.231-0.223,0.413-0.365,0.606-0.002
			c0.307,0.579,0.583,0.42,0.995,0.061c6.569-5.727,13.155-11.434,19.731-17.152c3.501-3.045,6.991-6.102,10.486-9.153
			c0.035-0.147-0.016-0.208-0.167-0.165c-0.128,0.072-0.261,0.138-0.382,0.221c-12.79,8.84-25.578,17.68-38.365,26.523
			c-0.128,0.088-0.308,0.143-0.35,0.436c0.683,0,1.343,0,2.104,0C63.232,47.963,62.205,49.164,61.184,50.369z"/>
		<path fill="#CC2027" d="M44.46,46.451c3.298-0.006,5.902-2.626,5.903-5.936c0-3.395-2.627-6.041-5.983-6.027
			c-3.298,0.014-5.931,2.695-5.923,6.033C38.465,43.848,41.107,46.457,44.46,46.451z"/>
		<path fill="#273888" d="M69.147,62.842c0.39,0.387,1.218,0.1,1.853,0.111c0.279,0.004,0.608,0.129,0.832-0.158
			c0.674-0.865,1.341-1.736,2.082-2.699c-0.49,0-0.839-0.035-1.177,0.008c-0.591,0.076-0.744-0.148-0.736-0.732
			c0.032-2.52-0.094-5.047,0.049-7.559c0.106-1.867-0.307-3.4-1.64-4.738c-0.416-0.416-0.547-0.4-0.919-0.021
			c-0.957,0.973-1.962,1.898-2.951,2.848c0-1.025,0-2.08,0-3.346c-1.017,1.066-1.886,1.998-2.779,2.906
			c-0.282,0.287-0.38,0.588-0.379,0.984c0.013,3.953,0.017,7.906-0.003,11.857c-0.003,0.494,0.082,0.717,0.633,0.67
			c0.613-0.051,1.239-0.057,1.852,0c0.587,0.055,0.68-0.18,0.676-0.707c-0.022-3.533-0.012-7.066-0.011-10.598
			c0-0.52,0.83-1.654,1.297-1.814c0.124-0.043,0.198,0.002,0.247,0.066c0.426,0.57,1.001,0.986,0.98,1.879
			c-0.072,3.063-0.034,6.127-0.022,9.189C69.033,61.623,68.754,62.453,69.147,62.842z"/>
		<path fill="#CC2027" d="M104.334,62.969c0.591-0.033,1.188-0.053,1.776,0.004c0.647,0.064,0.824-0.139,0.817-0.803
			c-0.037-3.457,0.024-6.914-0.043-10.371c-0.02-1.037,0.791-1.33,1.284-1.922c0.084-0.102,0.196-0.057,0.247,0.02
			c0.37,0.551,0.997,0.91,0.987,1.732c-0.039,3.135-0.022,6.271-0.011,9.408c0.002,0.611-0.269,1.41,0.108,1.785
			c0.408,0.408,1.217,0.105,1.85,0.131c0.262,0.012,0.598,0.127,0.78-0.092c0.728-0.875,1.418-1.779,2.193-2.766
			c-0.436,0-0.714-0.039-0.977,0.008c-0.781,0.139-0.921-0.207-0.912-0.926c0.041-3.088,0.019-6.174,0.017-9.262
			c-0.001-0.291,0.042-0.584-0.17-0.846c-0.646-0.803-1.279-1.615-1.967-2.485c-1.164,1.128-2.282,2.21-3.406,3.3
			c0-0.992,0-2.02,0-2.881c-0.932,0.844-1.896,1.719-2.859,2.594c-0.223,0.201-0.245,0.461-0.245,0.742
			c0.004,4.025,0.008,8.051-0.005,12.076C103.799,62.824,103.899,62.992,104.334,62.969z"/>
		<path fill="#273888" d="M80.384,62.971c0.59-0.043,1.186-0.02,1.778-0.006c0.267,0.004,0.458-0.064,0.63-0.291
			c0.628-0.822,1.277-1.627,2.029-2.578c-0.516,0-0.884-0.039-1.241,0.008c-0.611,0.082-0.785-0.131-0.778-0.754
			c0.034-2.941,0.008-5.881,0.024-8.82c0.002-0.426-0.107-0.734-0.416-1.039c-0.824-0.816-1.628-1.654-2.402-2.518
			c-0.33-0.367-0.542-0.334-0.886-0.025c-0.697,0.625-1.438,1.203-2.16,1.805c-0.777,0.648-1.548,1.305-2.333,1.945
			c-0.219,0.178-0.325,0.379-0.244,0.639c0.083,0.271,0.333,0.148,0.507,0.15c0.766,0.016,1.533-0.021,2.297,0.018
			c0.478,0.023,0.596-0.162,0.569-0.6c-0.031-0.523-0.007-1.051-0.007-1.754c0.64,0.693,1.108,1.266,1.645,1.766
			c0.392,0.365,0.283,0.555-0.061,0.861c-1.475,1.314-2.913,2.666-4.391,3.977c-0.332,0.295-0.445,0.59-0.44,1.018
			c0.02,1.828,0.036,3.658-0.008,5.484c-0.014,0.604,0.178,0.785,0.74,0.711c0.268-0.035,0.55-0.043,0.813,0
			c0.786,0.133,1.36-0.201,1.901-0.727c0.556-0.539,1.166-1.021,1.876-1.637c0,0.709,0.026,1.244-0.008,1.775
			C79.791,62.818,79.903,63.006,80.384,62.971z M79.327,60.105c-1.701,0.064-1.701,0.076-1.701-1.594
			c0-1.234,0.017-2.471-0.009-3.703c-0.009-0.383,0.104-0.645,0.39-0.889c0.575-0.488,1.124-1.008,1.82-1.639
			c0,2.58-0.007,4.947,0.008,7.314C79.837,59.984,79.711,60.092,79.327,60.105z"/>
		<path fill="#CD252C" d="M128.715,64.645c-11.788-0.014-23.576-0.012-35.364-0.012c-11.837,0-23.675,0.004-35.512-0.008
			c-0.528,0-0.867,0.057-0.765,0.705c0.101,0.633,0.584,0.346,0.878,0.346c23.526,0.016,47.053,0.014,70.579,0.014
			c0.124,0,0.25-0.018,0.37,0.002c0.676,0.109,0.664-0.34,0.596-0.771C129.416,64.414,128.982,64.645,128.715,64.645z"/>
		<path fill="#273888" d="M57.501,62.969c0.839-0.027,1.68-0.012,2.52-0.006c0.257,0.002,0.467-0.029,0.645-0.262
			c0.642-0.836,1.306-1.656,2.06-2.605c-0.66,0-1.159-0.045-1.646,0.01c-0.715,0.08-0.972-0.109-0.95-0.902
			c0.063-2.369,0.085-4.746-0.005-7.113c-0.042-1.127,0.248-1.986,1.044-2.762c0.6-0.584,1.097-1.275,1.734-2.031
			c-0.853,0-1.52-0.025-2.184,0.008c-0.463,0.023-0.588-0.15-0.576-0.597c0.028-1.086,0.009-2.174,0.009-3.261
			c0-0.597,0-1.193,0-1.929c-1.028,0.981-1.918,1.834-2.815,2.679c-0.207,0.195-0.329,0.393-0.329,0.7
			c0.01,5.856,0.011,11.712-0.001,17.567C57.004,62.852,57.106,62.982,57.501,62.969z"/>
		<path fill="#273888" d="M50.618,58.563c-0.042-0.945,0.19-1.67,0.851-2.383c1.34-1.449,2.574-2.996,3.848-4.506
			c0.146-0.172,0.39-0.309,0.174-0.613c-1.05-1.477-2.087-2.963-3.159-4.488c-1.569,1.625-3.073,3.191-4.591,4.744
			c-0.199,0.203-0.221,0.418-0.221,0.67c0.003,3.482,0.009,6.967-0.007,10.449c-0.002,0.424,0.126,0.541,0.541,0.533
			c1.284-0.023,2.568-0.012,3.854-0.004c0.261,0,0.47-0.055,0.655-0.258c0.762-0.836,1.536-1.658,2.422-2.611
			c-1.046,0-1.932,0-2.817,0C50.636,60.096,50.685,60.094,50.618,58.563z M50.673,49.412c0.827,1.271,1.577,2.422,2.322,3.574
			c0.092,0.143,0.045,0.287-0.059,0.408c-0.725,0.854-1.45,1.703-2.264,2.658C50.673,53.805,50.673,51.701,50.673,49.412z"/>
		<path fill="#CC2027" d="M115.485,62.969c1.309-0.021,2.617-0.01,3.926-0.006c0.228,0,0.421-0.027,0.593-0.213
			c0.78-0.848,1.574-1.682,2.489-2.654c-1.004,0-1.816,0-2.63,0c-1.727,0-1.682-0.002-1.746-1.719
			c-0.032-0.854,0.226-1.479,0.791-2.105c1.323-1.463,2.581-2.986,3.853-4.496c0.163-0.193,0.493-0.354,0.221-0.732
			c-1.046-1.461-2.07-2.938-2.945-4.184c-1.594,1.488-3.177,2.971-4.768,4.445c-0.197,0.184-0.275,0.377-0.275,0.645
			c0.008,3.506,0.011,7.012-0.003,10.518C114.989,62.85,115.092,62.977,115.485,62.969z M118.158,49.457
			c0.693,1.037,1.27,1.896,1.845,2.76c0.625,0.936,0.628,0.939-0.102,1.816c-0.504,0.607-1.018,1.205-1.53,1.805
			c-0.028,0.035-0.082,0.047-0.213,0.119C118.158,53.816,118.158,51.758,118.158,49.457z"/>
		<path fill="#273889" d="M41.882,62.813c0.444,0.455,1.354,0.098,2.061,0.145c0.291,0.02,0.565,0.029,0.784-0.268
			c0.611-0.83,1.256-1.637,1.998-2.594c-0.456,0-0.752-0.033-1.037,0.006c-0.662,0.094-0.859-0.135-0.854-0.826
			c0.037-3.949,0.019-7.898,0.019-11.846c0-0.236,0-0.473,0-0.882c-0.936,1.003-1.728,1.903-2.578,2.743
			c-0.409,0.404-0.525,0.828-0.521,1.377c0.019,3.381,0.004,6.762,0.014,10.145C41.769,61.498,41.476,62.396,41.882,62.813z"/>
		<path fill="#CC2027" d="M51.614,57.088c-0.536,0.641-0.181,1.42-0.233,2.135c-0.014,0.184,0.215,0.152,0.354,0.152
			c1.281,0.004,2.563,0.018,3.843-0.008c0.396-0.008,0.714-0.215,0.715-0.676c0.004-2.307,0.002-4.613,0.002-7.131
			C54.635,53.518,53.113,55.293,51.614,57.088z"/>
		<path fill="#CD252C" d="M46.806,57.195c-0.789,0.42-1.457,0.744-1.317,1.766c0.081,0.598,0.442,0.381,0.732,0.414
			c0.331,0.037,0.633,0.049,0.594-0.459C46.773,58.383,46.806,57.842,46.806,57.195z"/>
	</g>
</g>
</svg>
