<svg xmlns="http://www.w3.org/2000/svg" width="150" height="93.8"><path fill="#FFF" d="M0 0h150v93.8H0z"/><path fill="#A1234F" d="M43.9 59H40c-.8 0-1.2-.3-1.2-1.2V42.4v-6c0-1 .2-1.4 1.3-1.5h9.1l.6-.1H59c1.1.1 1.4.4 1.5 1.5v21.4c-.2 1-.5 1.2-1.4 1.2H44.4l-.5.1z"/><path fill="#949695" d="M95.5 46.7h-1.2c1.3 1 2.6 2 3.9 3.2h-2.7c-.3 0-.6-.4-.8-.6-.8-.8-1.8-1.5-2.5-2.4-.2-.3-.5-.2-.8-.2-.4 0-1-.2-1.2 0-.3.3-.1.9-.1 1.3v1.5c0 .3-.1.4-.4.4h-1.6v-.4-7.8c0-.2 0-.4.3-.4H96c.8.2 1.3.5 1.5 1.4v2.7c-.2.6-.6 1-1.3 1.2h-.6zM115.4 46.3c-1 0-1.4-.7-1.4-1.6V43c0-1 .4-1.7 1.5-1.8h6c1.2.3 1.4.6 1.6 1.6 0 .4 0 .5-.5.6l-1.2.3c-.2-.3 0-.6-.2-1h-5.4v1.8h.5l5.5.1c1 .1 1.3.7 1.4 1.6v2c-.2 1.2-.6 1.6-1.9 1.6h-6.1c-1.2 0-1.9-1-1.6-2.1 0-.1 0-.2.2-.2l1.4-.3c.2 0 .2.2.2.4-.1.5.1.6.6.6h5.3v-2h-5.9zM127.2 42.6c.1-.9.4-1.1 1.5-1.3h6c1.3.3 1.4.8 1.5 1.7 0 .3 0 .4-.3.5l-1.2.3c-.2 0-.2 0-.2-.2v-.7H128.8v1.7h.6l5.5.1c.9.1 1.3.7 1.3 1.5v2.4c-.3.9-.6 1.2-1.5 1.3h-6.7c-.9 0-1.2-.5-1.3-1.7v-.6l1.3-.3c.3 0 .5 0 .4.4 0 .5.1.6.6.6h5c.4 0 .5-.1.5-.5 0-.5.2-1-.1-1.4-.3-.3-1 0-1.4 0l-4.4-.1c-.6 0-1-.2-1.4-.7l-.1-.6-.1-.5v-1.3-.6zM27.5 41.4l3 2.5 3.5 3s.1.2.3.2c.1-.1 0-.3 0-.4v-5.1c0-.2 0-.3.2-.3h1.6v8c0 .5-.1.6-.5.6a2 2 0 0 1-1.6-.5l-2.8-2.5-3.4-2.8v5.7h-1.3c-.4.1-.5 0-.5-.4v-8c.5-.1 1-.2 1.5 0zM107.3 46.2h-3.5c-.3 0-.4 0-.4.4v1.2c0 .4.1.5.5.5h5.8c.4 0 .6 0 .6.5 0 1 0 1-1.1 1H102c-.7 0-.6.2-.6-.6v-7.8h8.8c0 .4.1 1-.1 1.3-.3.3-.9 0-1.4 0h-4.9c-.3 0-.4.2-.4.5v1.4c1 .2 2 0 3 0 1 .1 1 0 1 1.1l-.1.5zM83.6 41.3c1 .3 1.3.6 1.4 1.6v2c0 1.1-.6 1.7-1.8 1.7h-5c-.3 0-.5 0-.5.5v2.4c0 .3 0 .4-.4.4h-1.5v-.4-7.7c0-.3-.1-.5.3-.5h7.5zM73 41.5L69.5 45c-.2.2 0 .3.2.5l3.9 3.8c0 .2.2.2.3.5h-2.5l-.4-.2-2.6-2.8c-.3-.3-.4-.2-.5 0l-2.4 2.6c-.1.3-.3.4-.6.4h-2l1.9-2.1 2-2.1v-.3l-.3-.3-3.6-3.7h2.6L68 44c.2.2.2.1.4 0l2.4-2.7h2c.2 0 .2 0 .2.2zM15 44l-1-2c-.2-.2-.4-.4-.3-.6 0-.2.3 0 .5 0H16l1.5 2.8 1.8 3.3 3.4-6.2h1.8l.1.2-2 3.5a508.2 508.2 0 0 0-3 4.9c-.8.1-1.3-.2-1.7-1l-2.3-4-.5-.9z"/><path fill="#0A0A0A" d="M133.5 54.6c.6 0 .7.6 1 .8l.3.4.9-1c0-.2.3-.2.5-.2s.1.3.1.4v1.4c0 .2 0 .3-.2.3s-.3 0-.2-.2v-.2l-.1-.8-.6.6c-.4.5-.4.5-.8 0-.1-.2-.2-.5-.6-.6v.9c0 .3 0 .4-.3.3a7 7 0 0 1 0-2.1z"/><path fill="#0E0F0F" d="M95.7 56v-1.1c0-.2 0-.3.3-.3.2 0 .2.1.2.3v1.8h-.6l-1.5-1.3v1c0 .2 0 .4-.3.3-.2 0-.2-.1-.2-.3V55v-.3l.4.1 1.3 1 .4.2z"/><path fill="#0E0E0E" d="M70.8 55.4v1c0 .1 0 .3-.3.3-.2 0-.2-.1-.2-.3V55v-.3l.4.1 1.7 1.3V55c0-.2 0-.3.3-.3.2 0 .2.1.2.3v1.5l-.1.3h-.4l-1.6-1.3z"/><path fill="#151515" d="M99.2 56v.5c0 .2-.1.2-.3.2-.2 0-.3 0-.3-.2v-1.6c0-.2 0-.3.3-.3.2 0 .3 0 .3.3-.1.5.2.6.6.5h.5c.4 0 .5 0 .5-.5 0-.1 0-.3.2-.3s.3.1.3.3v1.5c0 .2 0 .4-.3.3-.3 0-.2-.2-.2-.3v-.5h-1.6z"/><path fill="#0E0F0F" d="M116.3 55.6v.2c-.2.2-.5 0-.7 0-.3 0-.4.2-.3.5h1.4c.1 0 .3 0 .3.2 0 .3-.2.2-.3.2H115c-.3 0-.4 0-.4-.3v-1.5c0-.2 0-.3.3-.3h1.7c.3 0 .4.1.3.4h-1.3c-.2 0-.4 0-.5.2 0 .4.3.2.5.3h.6z"/><path fill="#050505" d="M123.7 54.6c.7 0 1 .6 1.5 1l.4.2c.3 0 .2-.1.2-.2v-1h.4a7 7 0 0 1 0 2.1c-.5.2-.7-.3-1-.5l-.9-.7c-.2 0-.1.2-.1.3l-.1 1h-.4a7 7 0 0 1 0-2.2zM78.8 54.6c.7.1 1 .7 1.6 1 0 0 .1.3.3.2.2 0 .2-.1.2-.2v-1h.4a7 7 0 0 1 0 2.1c-.5.2-.7-.3-1-.5l-.9-.7c-.2 0-.2.2-.2.3v1h-.4a7 7 0 0 1 0-2.2z"/><path fill="#0D0D0D" d="M84.3 56v.5c0 .2-.1.2-.3.2-.1 0-.2 0-.2-.2a83 83 0 0 0 .2-1.9c.1 0 .3 0 .3.2-.2.8.4.6.8.6h.7c.2-.3 0-.6.2-.8.3 0 .4 0 .4.4v1.3c0 .4-.1.5-.4.4-.2-.3 0-.6-.2-.8h-1.5z"/><path fill="#080808" d="M89.3 56.3c-.2.3-.3.6-.8.4l1.1-1.9c.2-.3.6-.3.8 0l1.1 1.9c-.6 0-.6 0-.8-.4a4 4 0 0 0-1.4 0z"/><path fill="#090909" d="M129.2 56.3c-.2.2-.3.6-.8.4.4-.7.7-1.4 1.2-2 .1-.2.5-.2.6 0l1.2 2c-.4.1-.7 0-.8-.4h-1.4z"/><path fill="#0D0D0D" d="M108.3 56c.5-.4.5-1.3 1.4-1.3l-1.2 1.9c-.1.2-.4.2-.5 0l-1.2-2c1.1-.1 1 1 1.5 1.4z"/><path fill="#0F0F0F" d="M118.9 55c0-.3 0-.4.3-.4h2c.3 0 .4.1.3.4-.3.2-.6 0-1 .1v1.2c0 .4 0 .5-.5.4v-1c0-.7 0-.6-.7-.7-.1 0-.3.1-.4 0z"/><path fill="#141414" d="M64.2 55.1v1.2c0 .4-.2.5-.5.4v-1c0-.6 0-.6-.7-.6-.4 0-.5-.2-.3-.5h2c.4 0 .5 0 .5.3-.3.3-.7 0-1 .2z"/><path fill="#FCFBFB" d="M83.6 41.3h-7.3c-.4 0-.5.1-.5.6v8c-.2-.2-.1-.3-.1-.5v-7.6c0-.3 0-.6.4-.6h7.2l.3.1zM95.9 41.3h-7.3c-.4 0-.5.2-.5.6v8l-.1-.5v-7.7c0-.3 0-.5.4-.5h7.2l.3.1z"/><path fill="#2E2F2E" d="M112.3 55.7v.7c0 .3-.1.3-.3.3-.3 0-.3 0-.3-.3V55c0-.2 0-.3.3-.3.2 0 .3 0 .3.3v.8zM67.3 55.6V55c0-.2 0-.3.3-.3.2 0 .3 0 .3.3v1.6c0 .2-.2.2-.3.2-.3 0-.3 0-.3-.2v-.9z"/><path fill="#FCFBFB" d="M43.9 59h12-12zM110.2 41.4h-8.9c.1-.2.3-.1.5-.1h8.4zM121.5 41.3h-6 6z"/><path fill="#FEFEFE" d="M121.8 44.7h-6 5.6c.2 0 .3-.1.4 0z"/><path fill="#FCFBFB" d="M135 44.7h-6.1 6.1zM134.7 41.3h-6H134.7z"/><path fill="#FFF" d="M115.4 46.3H121.3h-5.5c-.1 0-.3.1-.4 0z"/><path fill="#FCFBFB" d="M129 42.9h5.4-5.5z"/><path fill="#FEFEFE" d="M115.8 42.9h5.4-5.4z"/><path fill="#FCFBFB" d="M107.3 46.2c.2-1.5.2-1.5-1.2-1.5h-2.7 3.5c.4 0 .5 0 .5.4s.1.7-.1 1zM116.3 55.6c-.3-.2-.6 0-.8-.1-.2 0-.3 0-.3-.2s0-.3.3-.3h1.5c-.4.2-.9 0-1.3.1l-.4.1c0 .3.3.2.4.2.2 0 .5-.1.6.2zM62.7 54.6c-.1.3 0 .5.3.4.6 0 .7.2.7.7v1c-.2-.2-.1-.6-.1-.9 0-.5 0-.8-.7-.7-.4 0-.4-.2-.2-.5zM65.5 41.4H63v-.1h2.6zM118.9 55h.1c.3.1.8-.2 1 .2v1.5c-.2-.3 0-.6 0-1s-.2-.7-.7-.6c-.1 0-.3 0-.4-.2zM97.4 45.4zM73 41.5c-.4-.3-.8-.1-1.2-.1h-1c.7-.2 1.4-.1 2.2-.1 0 0 .1 0 0 .2zM84.3 56c.5-.3 1-.1 1.5-.2l.1.3v.6c-.2-.2.1-.6-.2-.7h-1.4zM123.7 54.6v2.1a4 4 0 0 1 0-2.1zM126.2 56.7v-2.1a4 4 0 0 1 0 2.1zM81.3 56.7v-2.1a4 4 0 0 1 0 2.1zM78.8 54.6v2.1a4 4 0 0 1 0-2.1zM85 45v-2.1c.2.7.2 1.4 0 2zM123.2 48.2v-2 2z"/><path fill="#FFF" d="M121.3 46.4c.2.6.2 1.2 0 1.8v-1.8z"/><path fill="#FEFEFE" d="M115.8 44.6c-.2-.5-.1-1.1 0-1.7v1.7z"/><path fill="#FCFBFB" d="M129 44.6c-.2-.5-.2-1.1 0-1.7v1.7zM81 54.6v1.2c-.1.2-.2.2-.3 0 .2-.2 0-.4.1-.6l.1-.6zM79.2 56.7a113.8 113.8 0 0 0 .2-1.2c-.2.2 0 .5-.1.7l-.1.5zM124 56.7l.1-1.1c0-.3.1-.3.2 0-.2.1 0 .4 0 .6-.1.2 0 .4-.2.5zM99.2 56c.5-.2 1-.2 1.5 0h-1.5zM115.3 56.3c-.2-.3-.2-.5.3-.5h.7c-.1.2-.4.1-.6.1-.3 0-.5.1-.4.4zM125.9 54.6v1.2c0 .2-.1.2-.3 0 .2-.2.1-.4.2-.6v-.6zM89.3 56.3h1.4-1.4zM129.2 56.3h1.4-1.4zM64.2 55.1c.3-.2.7 0 1-.2-.3.4-.7.1-1 .2zM120.5 55.1c.4-.2.7 0 1-.1-.3.2-.6 0-1 .1z"/><path fill="#FEFEFE" d="M121.2 42.9c.2.3 0 .6.2 1-.3-.4-.1-.7-.2-1z"/><path fill="#FCFBFB" d="M86 54.6c-.1.3 0 .5-.2.8.1-.3 0-.6.2-.8zM127.2 42.6l-.1.6v-.6zM126.8 47.6v.6c-.2-.2-.2-.4 0-.6zM95.5 46.7h.6-.6zM127 44.5c.2.2.2.4.2.5-.2-.1-.1-.3-.1-.5z"/><path fill="#FFF" d="M40.9 46.8v-9c0-.8.2-1 1.1-1h15.4c.8 0 1.1.2 1.1 1v3c0 .9-.3 1.2-1 1.2h-10c-.4 0-.6 0-.5.5 0 .5-.2 1.2 0 1.5.4.3 1.1.1 1.6.1H52c.6 0 1 .3 1 1v3.4c0 .6-.4.9-1 .9h-4.5c-.3 0-.4 0-.4.4v1.4c0 .4 0 .5.5.5h9.8c1 0 1.2.3 1.2 1.2v3c0 .8-.3 1-1 1H42c-.8 0-1.1-.2-1.1-1v-9zM92.6 45.2h-2.2c-.3 0-.4-.1-.4-.4v-1.7c0-.3.2-.3.4-.3h4.3c.4 0 .7.2.8.7v.1c0 1.4 0 1.6-1.5 1.6h-1.4zM80.2 42.8h2.1c.6 0 .8.2.8.8v.2c0 1.2-.1 1.3-1.3 1.3h-3.6c-.4 0-.5 0-.5-.4v-1.5c0-.3.1-.4.4-.4h2.1z"/><path fill="#E8E7E7" d="M90.5 55.9h-.9c0-.3.2-.5.4-.8l.5.8z"/><path fill="#E9E8E7" d="M130.4 55.9h-1l.5-.8.5.8z"/><path fill="#A1234F" d="M41.8 46.8v-8.7c0-.4 0-.5.5-.5H57c.4 0 .5.1.5.5v2.4c0 .5 0 .6-.5.6H46.6c-.4 0-.5 0-.5.5v3c0 .3 0 .5.4.4h5c.4 0 .5.1.5.5V48c0 .4-.1.5-.5.5h-4.9c-.5 0-.5 0-.5.5v3c0 .6.1.6.5.6h10.5c.4 0 .6 0 .5.6v2.3c0 .4 0 .5-.5.5H42.3c-.4 0-.5 0-.5-.4v-8.8z"/></svg>