<?xml version="1.0" encoding="utf-8"?>
<!-- Generator: Adobe Illustrator 16.0.0, SVG Export Plug-In . SVG Version: 6.00 Build 0)  -->
<!DOCTYPE svg PUBLIC "-//W3C//DTD SVG 1.1//EN" "http://www.w3.org/Graphics/SVG/1.1/DTD/svg11.dtd">
<svg version="1.1" id="Layer_1" xmlns="http://www.w3.org/2000/svg" xmlns:xlink="http://www.w3.org/1999/xlink" x="0px" y="0px"
	 width="150px" height="93.795px" viewBox="0 0 150 93.795" enable-background="new 0 0 150 93.795" xml:space="preserve">
<g>
	<polygon fill="#0000FF" points="75.701,28.522 98.776,65.272 121.147,28.522 103.825,28.522 98.776,36.377 93.725,28.522 	"/>
	<g>
		<path fill="#269719" d="M54.845,34.102c0-3.246,2.244-5.579,2.244-5.579H93.68c0,0,2.244,2.215,2.244,5.619
			c0,3.404-2.244,5.444-2.244,5.444H82.433v23.442c0,0-4.246,2.245-7.668,2.245c-3.424,0-6.992-2.245-6.992-2.245V39.585H57.088
			C57.088,39.585,54.845,37.347,54.845,34.102z"/>
	</g>
	<polygon fill="#F50000" points="28.852,28.522 51.926,65.272 74.299,28.522 56.976,28.522 51.926,36.377 46.876,28.522 	"/>
</g>
</svg>
