<?xml version="1.0" encoding="utf-8"?>
<!-- Generator: Adobe Illustrator 16.0.0, SVG Export Plug-In . SVG Version: 6.00 Build 0)  -->
<!DOCTYPE svg PUBLIC "-//W3C//DTD SVG 1.1//EN" "http://www.w3.org/Graphics/SVG/1.1/DTD/svg11.dtd">
<svg version="1.1" id="Layer_1" xmlns="http://www.w3.org/2000/svg" xmlns:xlink="http://www.w3.org/1999/xlink" x="0px" y="0px"
	 width="150px" height="93.795px" viewBox="0 0 150 93.795" enable-background="new 0 0 150 93.795" xml:space="preserve">
<g>
	<path fill-rule="evenodd" clip-rule="evenodd" fill="#DB0000" d="M35.276,34.522c0.685,0.048,0.882,0.63,1.141,1.1
		c1.194,2.165,2.345,4.354,3.544,6.517c0.745,1.343,1.047,1.35,1.778,0.028c1.158-2.094,2.303-4.197,3.386-6.331
		c0.513-1.01,1.199-1.469,2.355-1.44c2.476,0.06,4.955,0.013,7.432,0.021c1.434,0.005,1.705,0.427,1.012,1.638
		c-4.182,7.305-8.363,14.611-12.575,21.9c-1.442,2.496-3.797,2.488-5.209-0.008c-4.045-7.153-8.062-14.323-12.086-21.488
		c-0.409-0.728-0.803-1.472,0.352-1.922C29.364,34.668,32.32,34.691,35.276,34.522z"/>
	<path fill-rule="evenodd" clip-rule="evenodd" fill="#009500" d="M64.388,42.691c-0.167,0.177-0.335,0.353-0.502,0.53
		c-0.342,0.332-0.159,0.752-0.16,1.125c-0.014,4.506-0.006,9.012-0.014,13.519c0,0.503,0.141,1.053-0.328,1.456
		c-1.415,0.296-2.846,0.098-4.269,0.126c-1.865,0.037-3.732,0.012-5.598,0.013l0-0.001c-0.216-0.444-0.235-0.92-0.235-1.4
		c-0.001-4.425,0.009-8.851-0.013-13.276c-0.003-0.549,0.293-1.094,0.023-1.644c0.038-0.229,0.013-0.495,0.122-0.683
		c1.427-2.459,2.867-4.911,4.318-7.356c0.178-0.3,0.42-0.583,0.835-0.571c3.516,0.151,7.031,0.151,10.547,0
		c0.515-0.032,0.801,0.302,1.04,0.678c1.323,2.083,2.639,4.172,3.957,6.259c-0.011,0.765-0.44,0.966-1.147,0.959
		c-2.454-0.023-4.908-0.018-7.361-0.001C65.188,42.426,64.719,42.275,64.388,42.691z"/>
	<path fill-rule="evenodd" clip-rule="evenodd" fill="#000095" d="M89.276,34.519c1.102,0.201,1.26,0.828,0.761,1.725
		c-4.089,7.347-8.164,14.703-12.286,22.032c-1.202,2.138-3.644,2.02-4.96-0.222c-1.816-3.093-3.567-6.224-5.346-9.339
		c-0.712-1.245-1.439-2.482-2.13-3.74c-0.227-0.412-0.649-0.871-0.029-1.323c2.938,0.101,5.875,0.234,8.809-0.066
		c1.071-0.219,1.705-0.95,2.205-1.855c1.099-1.987,2.212-3.966,3.313-5.951c0.304-0.546,0.63-1.059,1.271-1.261
		C83.682,34.687,86.479,34.687,89.276,34.519z"/>
	<path fill-rule="evenodd" clip-rule="evenodd" fill="#DB0000" d="M99.641,58.942c-3.111,1.689-6.139,1.231-8.099-1.149
		c-1.784-2.167-1.779-5.396,0.012-7.514c2.033-2.405,5.067-2.854,7.978-1.181c0.239-0.793,1.645-1.37,2.339-0.962
		c0.263,0.153,0.202,0.409,0.201,0.637c-0.007,3.558,0.069,7.117-0.06,10.67c-0.1,2.724-2.465,4.982-5.198,5.261
		c-2.71,0.276-5.274-1.273-6.041-3.715c1.283,0.123,2.453-0.075,3.69,0.833C96.556,63.359,99.399,61.712,99.641,58.942z"/>
	<path fill-rule="evenodd" clip-rule="evenodd" fill="#DB0000" d="M109.612,48.111c3.291,0.018,5.92,2.684,5.896,5.979
		c-0.024,3.302-2.667,5.903-5.982,5.889c-3.307-0.016-5.9-2.647-5.885-5.975C103.656,50.697,106.295,48.093,109.612,48.111z"/>
	<path fill-rule="evenodd" clip-rule="evenodd" fill="#008300" d="M53.291,43.138c0.376,0.36,0.221,0.827,0.222,1.247
		c0.01,5.024,0.005,10.049,0.004,15.073c-0.384-0.204-0.383-0.585-0.383-0.931c0.003-4.896,0.016-9.792,0.035-14.688
		C53.169,43.605,53.248,43.372,53.291,43.138z"/>
	<path fill-rule="evenodd" clip-rule="evenodd" fill="#008F00" d="M64.388,42.691c0.352-0.5,0.352-0.51,1.119-0.512
		c2.475-0.006,4.951-0.027,7.426,0.015c0.616,0.011,0.966-0.192,1.178-0.729c0.52,1.109-0.214,1.198-1,1.202
		C70.203,42.683,67.295,42.685,64.388,42.691z"/>
	<path fill-rule="evenodd" clip-rule="evenodd" fill="#018F01" d="M53.516,59.459c0.429-0.267,0.907-0.245,1.385-0.244
		c2.819,0.004,5.639,0.002,8.458,0.002c0.207-0.083,0.28-0.016,0.226,0.198c-0.157,0.306-0.445,0.293-0.724,0.293
		c-2.909,0-5.819,0.001-8.728-0.003C53.9,59.705,53.644,59.734,53.516,59.459z"/>
	<path fill-rule="evenodd" clip-rule="evenodd" fill="#018E01" d="M63.584,59.415c-0.075-0.066-0.15-0.132-0.226-0.198
		c0.296-0.47,0.241-0.995,0.241-1.512c0-4.748-0.001-9.496,0.003-14.244c0-0.104,0.055-0.208,0.084-0.312
		c0.066,0.024,0.132,0.047,0.198,0.071c-0.002,4.959,0.003,9.918-0.017,14.877C63.866,58.539,64.104,59.07,63.584,59.415z"/>
	<path fill-rule="evenodd" clip-rule="evenodd" fill="#008800" d="M69.114,34.529c-0.215,0.238-0.503,0.208-0.78,0.208
		c-2.996,0-5.992,0-8.987,0c-0.277,0-0.565,0.031-0.78-0.208C62.083,34.383,65.598,34.367,69.114,34.529z"/>
	<path fill-rule="evenodd" clip-rule="evenodd" fill="#000084" d="M74.095,43.586c0.115,0.053,0.33,0.226,0.244,0.224
		c-3.018-0.06-6.044,0.307-9.053-0.158C68.221,43.378,71.158,43.509,74.095,43.586z"/>
	<path fill-rule="evenodd" clip-rule="evenodd" fill="#D60000" d="M35.276,34.522c-0.329,0.336-0.751,0.208-1.136,0.209
		c-2.196,0.011-4.393,0.011-6.59,0c-0.386-0.002-0.806,0.124-1.143-0.195C29.363,34.329,32.319,34.352,35.276,34.522z"/>
	<path fill-rule="evenodd" clip-rule="evenodd" fill="#00008A" d="M89.276,34.519c-0.403,0.379-0.902,0.205-1.356,0.209
		c-1.973,0.02-3.944,0.015-5.917,0.003c-0.38-0.002-0.798,0.125-1.119-0.213C83.682,34.365,86.479,34.432,89.276,34.519z"/>
	<path fill-rule="evenodd" clip-rule="evenodd" fill="#FEFEFE" d="M96.174,57.592c-1.983,0.012-3.57-1.574-3.565-3.564
		c0.005-1.956,1.518-3.498,3.467-3.533c2.006-0.037,3.611,1.508,3.632,3.493C99.728,55.979,98.158,57.579,96.174,57.592z"/>
	<path fill-rule="evenodd" clip-rule="evenodd" fill="#FEFEFE" d="M113.144,54.184c-0.075,2.003-1.673,3.496-3.689,3.446
		c-1.981-0.05-3.542-1.683-3.496-3.66c0.045-1.962,1.711-3.577,3.648-3.537C111.632,50.475,113.219,52.157,113.144,54.184z"/>
</g>
<rect x="117.622" y="42.528" fill-rule="evenodd" clip-rule="evenodd" fill="#DB0000" width="2.313" height="2.313"/>
<rect x="120.576" y="42.528" fill-rule="evenodd" clip-rule="evenodd" fill="#DB0000" width="2.313" height="2.313"/>
<rect x="123.536" y="42.528" fill-rule="evenodd" clip-rule="evenodd" fill="#DB0000" width="2.313" height="2.313"/>
<rect x="120.576" y="45.434" fill-rule="evenodd" clip-rule="evenodd" fill="#DB0000" width="2.313" height="2.313"/>
<rect x="123.536" y="45.434" fill-rule="evenodd" clip-rule="evenodd" fill="#DB0000" width="2.313" height="2.313"/>
<rect x="123.536" y="48.407" fill-rule="evenodd" clip-rule="evenodd" fill="#DB0000" width="2.313" height="2.313"/>
</svg>
