<?xml version="1.0" encoding="utf-8"?>
<!-- Generator: Adobe Illustrator 16.0.0, SVG Export Plug-In . SVG Version: 6.00 Build 0)  -->
<!DOCTYPE svg PUBLIC "-//W3C//DTD SVG 1.1//EN" "http://www.w3.org/Graphics/SVG/1.1/DTD/svg11.dtd">
<svg version="1.1" id="Layer_1" xmlns="http://www.w3.org/2000/svg" xmlns:xlink="http://www.w3.org/1999/xlink" x="0px" y="0px"
	 width="150px" height="93.795px" viewBox="0 0 150 93.795" enable-background="new 0 0 150 93.795" xml:space="preserve">
<rect fill="#D70F16" width="150" height="93.795"/>
<g>
	<path fill-rule="evenodd" clip-rule="evenodd" fill="#FFFFFF" d="M105.273,63.84c3.836,0,7.672,0.008,11.507-0.003
		c2.41-0.006,3.068-0.677,3.072-3.125c0.008-4.807-0.039-9.614,0.016-14.421c0.048-4.204,0.209-4.953-4.961-4.78
		c-1.94,0.065-2.654,0.79-2.671,2.759c-0.026,2.915,0.017,5.831-0.026,8.746c-0.044,2.929-0.686,3.671-3.615,3.731
		c-4.345,0.088-8.692,0.045-13.037-0.023c-1.742-0.027-3.453-0.396-5.07-1.097c-5.102-2.21-7.56-7.817-5.299-12.364
		c1.706-3.43,4.575-5.475,8.358-6.034c1.912-0.282,3.874-0.29,5.814-0.302c5.881-0.037,11.762-0.003,17.642-0.022
		c2.113-0.007,2.821-0.757,2.851-2.888c0.004-0.307,0.002-0.614,0.001-0.92c-0.01-2.625-0.602-3.211-3.283-3.213
		c-7.262-0.005-14.524,0.002-21.785-0.005c-1.696-0.001-3.369,0.172-5.017,0.572c-7.194,1.745-12.754,7.876-13.237,14.597
		c-0.582,8.062,3.465,14.529,10.953,17.505c2.214,0.879,4.522,1.272,6.896,1.281C98.013,63.848,101.644,63.837,105.273,63.84z
		 M58.515,59.983c4.048-7.802,8.343-15.475,12.542-23.198c0.708-1.302,1.463-2.58,2.125-3.904c1.048-2.101,0.516-2.962-1.792-2.996
		c-0.92-0.014-1.844,0.047-2.76-0.013c-1.977-0.13-3.249,0.746-4.173,2.479c-3.176,5.951-6.421,11.866-9.659,17.785
		c-0.439,0.803-0.92,1.603-1.507,2.299c-0.871,1.034-1.822,1.037-2.751,0.057c-0.414-0.437-0.731-0.98-1.021-1.515
		c-3.323-6.105-6.63-12.217-9.945-18.326c-0.648-1.194-1.418-2.348-2.836-2.615c-1.761-0.332-3.568-0.255-5.342-0.04
		c-1.168,0.141-1.486,0.965-1.143,2.037c0.108,0.336,0.306,0.646,0.476,0.96c5.13,9.485,10.261,18.97,15.391,28.454
		c0.85,1.571,2.106,2.464,3.954,2.396C50.683,63.819,55.631,65.175,58.515,59.983z"/>
</g>
</svg>
