<svg xmlns="http://www.w3.org/2000/svg" width="150" height="93.8"><path d="M46.5 74.8l-.3-.5c-.5-1-.4-1-1-1.1l-.1-.1v-.3H48v.3H48l-.2.1c-.5 0-.5.3-.1 1l3.3 6.8h.1l3-7v-.6l-.6-.2H53a.2.2 0 0 1-.1 0 .1.1 0 0 1 0-.1v-.3h3.3v.3c-.5 0-.8.2-1 .4-.3.1-.4.4-.6.7l-3.6 8.2c-.3.7-.7.6-1 0a359.1 359.1 0 0 1-2.5-5.4l-1-2.2z"/><path d="M51.8 72.7h-2.7v.4H49.4l.5.3v.6l-3.6 7-3.3-7.1a1.2 1.2 0 0 1 0-.4c0-.2 0-.3.4-.3h.4l.1-.1v-.3h-3.6v.3h.1l.8.3.4.7c1 2.2 2.9 6.1 3.8 8.4.3.5.6.6 1 0l2.7-5.5 1.5-2.8a13 13 0 0 1 .5-.7c.1-.3.2-.3.6-.3l.2-.1v-.3zm5.7 9.1c0 .3.2.5.7.6h.3v.4h-3.2v-.3l.1-.1h.3c.5 0 .7-.3.7-.6v-5c0-.4-.2-.5-.7-.5h-.3v-.5h3.2v.3l-.1.1h-.3c-.5.1-.7.2-.7.5v5zm4.5 0c0 .3.2.5.7.6h.1l.1.1v.3H59.8v-.3-.1h.4c.5 0 .7-.3.7-.6v-5c0-.4-.2-.5-.7-.5h-.3l-.1-.1v-.4H63v.4h-.2c-.5.1-.7.2-.7.5V79c.5 0 .8-.2 1.5-1 .6-.6 1-1.2 1-1.5 0 0 0-.2-.4-.3v-.4h2.7v.4c-.7 0-1 .1-1.6.7l-1.3 1.5-.4.6.1.2L66 82c.2.2.6.3.9.4l.2.1v.3h-2.3v-.2l-.2-.6-1.7-2c-.2-.4-.4-.5-.8-.5v2.3zm8.2 0c0 .3.2.5.7.6h.3v.4H68v-.3-.1h.4c.5 0 .7-.3.7-.6v-5c0-.4-.2-.5-.7-.5h-.3l-.1-.1v-.4h3.3v.3l-.1.1h-.3c-.5.1-.7.2-.7.5v5zm3.3-5c0-.5-.2-.5-.9-.6h-.1v-.4h3.2c2.1 0 2.5 1 2.5 1.8 0 1-.4 2.4-2.6 2.4-.3 0-.6 0-1-.2v2c0 .4.3.5.8.6h.3v.4h-3.2v-.3-.1h.4c.5-.1.6-.3.6-.5v-5.2zm1.2 2.6l1 .1c.9 0 1.3-.5 1.3-1.7 0-1.3-.6-1.6-1.4-1.6-.7 0-1 .2-1 .6v2.6zm6.2 3.4h-1.5v-.3-.1h.4c.5 0 .6-.4.6-.7v-5c0-.3-.2-.4-.6-.4h-.4v-.5h5.4l.2 1.8-.3.1c-.2-.6-.5-1.4-1.5-1.4H82c-.3 0-.4.1-.4.4v2.2h1.1c.4 0 .5-.2.6-.5v-.3h.4v2.1H83.4l-.1-.3c0-.3-.2-.5-.6-.5h-1.1v2.3c0 .3.1.6.4.6h1.4c.8 0 1.2-.5 1.4-1.3h.4l-.3 1.8h-4.1zm5.7-.4h.3c.5 0 .6-.2.6-.7v-5c0-.4 0-.4-.6-.4h-.3l-.1-.1v-.4h3.6c2.6 0 3.8 1.6 3.8 3.6 0 2.6-1.9 3.4-3.5 3.4h-3.9v-.3-.1zm3.4 0c1.7 0 2.6-.6 2.6-2.8 0-1.5-.4-3.4-3-3.4-.5 0-.9.1-.9.5v5c0 .4.1.7 1.3.7zm7.5-.6c0 .3.2.5.7.6h.3v.4h-3.2v-.3-.1h.4c.5 0 .6-.3.6-.6v-5c0-.4-.1-.5-.6-.5h-.3l-.1-.1v-.4h3.2v.4H98c-.4.1-.6.2-.6.5v5zm4.7.6h.4l.2.1v.3h-3.5v-.3l.1-.1c.7 0 1-.2 1.5-1.1l3.4-8c.2-.3.3-.5.5-.5s.3.2.4.5l3.1 8.2c.2.6.6.8 1.2.9h.1l.2.1v.3H106v-.3-.1h.5c.5 0 .8-.3.6-.7l-1-2.6H103c-.4 0-.5.1-.5.3l-1 2.2c0 .4.1.7.7.8zm3.7-3.9l-1.5-4-1.5 3.8c0 .2 0 .2.4.2h2.6z"/><radialGradient id="a" cx="-31" cy="-689.5" r="40.2" gradientTransform="matrix(1 0 0 -1 94 -651.9)" gradientUnits="userSpaceOnUse"><stop offset="0" stop-color="#fff"/><stop offset=".5" stop-color="#eaeaeb"/><stop offset=".9" stop-color="#a9abae"/><stop offset="1" stop-color="#999b9e"/></radialGradient><path fill="url(#a)" d="M74.1 23.8L74 23s-.3-.5-.8-.7c-.4-.2-.8.2-.8.2l-.3.3c-.2.2-.3.4-.7.5-.4.2-.8.2-1 0a.5.5 0 0 1-.3-.3l-.2-.6-.1-1-.3-1.9s.8 0 2.1-.4c1.4-.5 1.8-.8 1.8-.8s-.3 0-.3-.3v-.7s-.1-.3.2-.7c.4-.4.8-.5 1-.6h1.3l1 .1.1.4v.7s0 .2.2.3c0 0 .3.2 1.3 0l1-.2 2.7-.8 1-.3a19 19 0 0 0 1.3-.4 12.2 12.2 0 0 1 1.7-.5c.7-.1 1.3 0 1.7.1l.3.4c0 .2.3.5.5.6.3.2.5.2 1.1.2l-.2-.2-.6-.4-.2-.3v-.2l.5-.8.3-.1 1-.2.4-.2h.4l2.7 2.2.1-.1h.5l.6.4s1 .8 1.2 1.3l.1.4 1.2 1.6s.7 1 1 1.2l-.1-.5.2-.1v-.1l.4.1c2.1 2.9 3.8 6.1 4.8 9.6v.3l.2.3a29.9 29.9 0 0 1 1 9.6l-.3.3.2.4a29.8 29.8 0 0 1-55.3 12.8v-.2h-.2a29.6 29.6 0 0 1-3.8-11.2v-.3l-.1-.3a30.2 30.2 0 0 1 .2-8.5l.2-.4v-.2a29.6 29.6 0 0 1 3.7-9.8l.4-.2.3-.1 1-1.5.4-.3h.1l1-1.1v-.2-.4h.1s1-1.3 1.9-2l.4-.1s.8-.4 1.9-1.3l.2-.5c.3-.3.9-.7 1.3-.8h.6l.3.5.8-.4.6-.1.5.8-.6 1.1s-.4.9-1 1.3c0 0-.2.2-.6.1s-.6.2-.6.2h-.1.2l.1.1.5.7s0 .5-.2 1.2c-.2.6-.9 1.7-.9 1.7l-.6 1.3a4 4 0 0 0-.3 1.3l.4-.1c.4-.2.7 0 .7 0l.6.5c.1.2.5 1 .1 1.9 0 0-.2.6-.8 1 0 0-.1.2-.9.1-.2 0-.3-.2-.8-.1-.5 0-.7.5-.7.5-.4.5-.7 1.4-.7 1.4l-.2 1.1.2 1.8s4.6-.8 5.8 0l.3.3v.2c0 .1-.2.4-.6.7-.3.2-.7 1-.2 1.3.6.5 1 .5 2 .3s1.7-.7 1.7-.7.6-.5.5-1-.6-.7-.6-.7-.4-.2 0-.7c0 0 0-.4 1.4-.8 1.4-.3 4-.9 6.2-1.1 0 0-1.5-4.9-.4-5.5 0 0 .2-.2.7-.2h.8c.3 0 .6 0 1-.3s.4-.5.4-.5"/><linearGradient id="b" x1="172.7" x2="199.9" y1="379.4" y2="421.9" gradientTransform="translate(-98.4 -359.8)" gradientUnits="userSpaceOnUse"><stop offset="0" stop-color="#8a8a8a"/><stop offset=".6" stop-color="#606060"/><stop offset=".6" stop-color="#fff"/><stop offset=".6" stop-color="#585858"/><stop offset="1" stop-color="#303030"/></linearGradient><path fill="url(#b)" d="M93.2 60.3h.3v.2l-.9 1.3c-.2.2-.3.3-.8.4-.5 0-1 .7-1 .7s-.6.5-.3.5c.2 0 .6-.4.6-.4l.4-.1-.3.4s-.7.7-1.5 1.2h-.2s1.1-.7 1.6-1.3c0 0 .1-.2 0 0l-1 .5c-.2 0 0-.3 0-.3l1-1c.7-.6 1.3-.6 1.3-.6s.1 0 .1-.1l.2-.5 1-1.7c.7-1 1-1.2 1-1.2s1-1 1.4-2c0 0 .4-.5-.2-.1a6 6 0 0 1-2 1.2c-.7.2-.8-.5-.8-.5s-.1-1.1.6-2c.7-.7 1.5-.7 2.2-.8.7 0 1.3-1 1.3-1s.5-.5.7-2.1c.2-.8 0-1.3 0-1.7V49H97.6l-.4-.4c-.2-.1-.4-.4-.6-.8 0 0-.6-1.3-.5-3s1.7-1.7 1.7-1.7.8.1 1-.1.3-.6.4-1.3c0-.8-.3-1.4-.3-1.4s0-.4-.6-.5-.6.1-.6.1-.1 0-.4.7c-.3.6-.5.8-1 1-.5 0-1.1 0-1.5-.6a24.5 24.5 0 0 1-1.3-3.4v-.4l-.2-.3a6.2 6.2 0 0 1 0-.7 7.7 7.7 0 0 0-.4-1.9l-1-2c-.2-.4-.4-.5-.6-.5H91l-.2.3c0 .1-.2.8-.6 1-.5.3-.7.5-1.4.5 0 0-1 .1-1.6-1.2-.7-1.3-.5-2-.5-2.4.1-.3.4-.7.8-.8l.6-.1h1c.3 0 .1-.6.1-.6s-.2-1.4-1.4-2.6v-.2l-.4-.3-2.6-3.1s-.6-.6 0-1.5c0 0 .2-.5 1-.4h.4c.3.1.6.2.9-.1 0 0 .2-.5-.2-1.1-.4-.6-.5-1-1-1 0 0-.3 0-.5.2-.2.3-.8.5-1.2.5-.4 0-1.3-.3-1.8-1.2l-.5-1 .1-.2h.4l.6 1.1c.3.6.6.7.8.8.2 0 .6 0 .8-.2.3-.1.5-.4.9-.4s1 0 1.3.5c.4.4 1 1.3.9 1.7 0 .4 0 .8-.6 1H86c-.4-.2-.5-.1-.7 0-.1.2-.3.6-.2.7l.4.8c.3.5 2 2.4 2.4 2.7l-.1.4.6.2 1 1.3.4 1.7c0 .4-.2.6-.2.6s-.2.3-1.1.3c-1 0-1 .2-1 .2s-.3.3-.2 1c0 .6.4 1.3 1 1.9.4.5 1.2 0 1.5-.2.3-.2.5-.7.5-.7s0-.7.8-.7 1.2.7 1.2.7a9.6 9.6 0 0 0 1.4 3.8l.1 1-.3.5.4.2.4 1.2.9 1.9c.3.5.5.4.7.5 0 0 .5 0 .7-.2l.4-.6s.4-1.1 1.2-1c.9 0 1.1.6 1.2 1.3.2.6.2 1.9-.2 2.6-.5.8-1 .7-1 .7s-1-.1-1.3.1c-.3.2-.4.4-.4 1 0 .5 0 1.3.4 2.3.4 1 .7.8.9 1 .1.3.7.7.6 2a7 7 0 0 1-1 3.1c-.4.8-1 1.2-1 1.2l-.7.2c-.4 0-1 0-1.5.3-.4.3-.6.9-.6 1.2 0 .3 0 .9.5.8.6 0 1.5-.8 1.5-.8s.9-.7 1-.5c.1.3-.4 1-.4 1l-1 1.6c-.5.4-1 1-1.5 1.8l-.5.3z" opacity=".7"/><linearGradient id="c" x1="154.6" x2="166.1" y1="375.7" y2="429.1" gradientTransform="translate(-98.4 -359.8)" gradientUnits="userSpaceOnUse"><stop offset="0" stop-color="#a8a9ab"/><stop offset="1" stop-color="#636668"/></linearGradient><path fill="url(#c)" d="M58.7 27.1z"/><linearGradient id="d" x1="152.1" x2="163.8" y1="376" y2="430.6" gradientTransform="translate(-98.4 -359.8)" gradientUnits="userSpaceOnUse"><stop offset="0" stop-color="#a8a9ab"/><stop offset="1" stop-color="#636668"/></linearGradient><path fill="url(#d)" d="M67.3 66.3h.1a64.8 64.8 0 0 1-3-2c-.6-.3-1.6-1-2-.8-.3 0-.3.2-.5.3-.2.1-.4 0-.9-.2-.4-.3-.8-.4-1.7-1.3-.8-.7 1-.1 1-.1s.3.2.1-.2a11.9 11.9 0 0 0-1.7-2.2 11.9 11.9 0 0 1-1.5-1.7l-.3-.4v-.1s-1.1-2-1-2.8c0 0 0-.4.7-.7.5-.1.4.4 1.8.6 0 0 1.2.3 1.6-.5.3-1-.4-2-.4-2s-.8-1.6-1.9-1.6c-.5 0-.4.3-1.2.5 0 0-1.1.1-1.5-.6a5.2 5.2 0 0 1-.6-2.3v-.8c.1-.1.2-.3.2-.7v-1.1c0-1 0-2.5-.2-3.4-.1-.9-.4-2.2-1.2-2.2 0 0-.4 0-1 .5-.4.5-.9-.4-1-1 0-.7.2-1.3.3-1.6.2-.3.6-.4.7-.4l.6.3c.3.2.7.2 1 0 .2-.3.5-.5.6-1.6s.1-2 0-3.3l-.1-.3.8-.1V32L55 32V30.6v-1.1l.1-.1s.3-.9.7-1.4.3-.5.7-.5l.8.1H58.2l.5-.5V27l.1-.1v-.1h.1v-.1l.1-.2c.4-.8 0-1.7-.1-1.9l-.6-.5s-.3-.2-.6 0l-.5.1.3-1.3.7-1.3s.6-1 .8-1.7c.3-.7.3-1.2.3-1.2l-.6-.7H58.4V18s.3-.3.7-.2h.6c.6-.5 1-1.4 1-1.4l.6-1.1-.5-.8-.6.1s-.4 1.2-1 1.9c0 0-.2.3-.4.2a.9.9 0 0 0-.5 0 2 2 0 0 0-1.1.8c-.5.6-.5 1-.3 1.2.2.1.6 0 .8-.2l.5-.3v.2s0 .8-1 2.3l-.6 1.2.4.3-.6.3a3.7 3.7 0 0 0-.3 1.5c.2.6.7.6.7.6l.8-.2c.4-.2.5.7.5.9 0 .1 0 1-.6 1.4 0 0-.2.2-.6.2l-.5-.1s-.6-.2-1 0c-.3.2-.7.7-1 1.3a6.1 6.1 0 0 0-.6 2.6l.1 1.7.4.2-.3.4v2.4c0 .5 0 1.6-.6 2l-.5-.2-.8-.3c-.1 0-.7.1-1 .8a5.4 5.4 0 0 0-.1 2c0 .6.5 1.5 1 1.5 0 0 .3 0 .7-.3.3-.3.5-.4.7-.4.1 0 .4.2.6 1.7.2 1.4.2 2.6.2 4l.4.1-.5.5v.3c-.2.4-.2.8 0 1.5 0 .8.4 2.2 1 2.6.7.5 1.2.5 1.7.5s.8-.4.8-.4.2-.2.4-.2.8.4 1.2 1.2c.4.9.5 1.8-.2 2-.7.1-1.9-.5-1.9-.5s-.7-.4-1.2 0-.6 1-.3 1.8l.9 2h.4l-.1.4c.3.4.6.9 1 1.2l2.2 2.6s0 .1 0 0a2.5 2.5 0 0 0-1.1-.3c-.4 0-.3.2-.3.2s.1.8 2.3 2c0 0 .8.5 1.3.5l.4-.2c.2-.3.3-.2.4-.2l1 .7 2.6 1.6c.4.3.4.3.3.6 0 .2.4.3.4.3s1 .5 1.7.5h1.2l.8.2h-.2-1.4l.5.2 2.2.3a16.1 16.1 0 0 1-2.2-.4h1.6c.3 0-.1-.1-.1-.1s-.5-.2-1.7-.3h-.9l-.8-.2s-.6-.2-.5-.4v-.3l-.2-.2z" opacity=".5"/><linearGradient id="e" x1="165.9" x2="182.9" y1="403.2" y2="403.2" gradientTransform="translate(-98.4 -359.8)" gradientUnits="userSpaceOnUse"><stop offset="0" stop-color="#231f20"/><stop offset="1" stop-color="#474747"/></linearGradient><path fill="url(#e)" d="M81.5 64.3l-.3.3c0 .4 0 .6-.2.7 0 .1-.3.3-.2.7.2.3 1 .2 1.5 0l1.3-.3c.3-.1.4 0 .4 0s.1.1-.4.4c-.4.2-1.3.3-1.7.4l-1 .2c-.6.2 0 .4 0 .4 1.4.4 2.4 0 2.4 0h.2l.5-.1c-1.2.2-2 0-2.2 0-.2 0-.4 0-.5-.2l.3-.1s1-.1 1.9-.4c.9-.3 1.1-.6 1-.8 0-.2-.4-.2-1 0L82 66l-.5-.1v-.6c.3-.2.3-.4.3-.4v-.4l-.4-.2.4-.1c-.2-.7-.7-1.3-.8-1.5-.2-.3-.5-.5-1.4-.3-.9.1-2 .6-2 .6s-1 .6-1.9.4c-.8 0-1-.9-1-1.2 0-.2.2-.5.6-.6.5-.2 1.5-.4 3-.5s2-1 2-1c.2-.3.5-1-.3-1.4-.8-.5-.9-.3-1.3-.6a2.6 2.6 0 0 1-1-1.4l-.5-.3.2-.2-.4-.8s-.7-1-.1-2.2c.6-1 1.6-1.3 1.6-1.3s.9-.2 1.7 0c.9.2 1.3-.1 1.3-.1s.5-.3.6-1.3c.2-1 0-2.9-1.3-3.2-1.4-.4-2 .3-2 .3l-1 1-.6.2-.9.4c-.2 0-1-1-1.1-1.9-.1-.7-.3-1.4-.2-3l-.3-.3.3-.3a7.2 7.2 0 0 0-.7-3.8 3.8 3.8 0 0 0-1.6-1.4 2.9 2.9 0 0 0-1.8 0c-.6.1-.8.3-1 .7-.2.4-.5.3-.5.3s-.8 0-1-1.2c-.5-1.8.1-2.4.1-2.4s.2-.2.8-.3c.6-.1 1 0 1.5.1.5.2.8.1 1.4-.2.6-.3.9-.7.8-1.6l-1-3.5-.4-.2.3-.4c-.7-2.5-.7-4-.7-4 0-.6 0-.8.3-1h1.2c.4 0 .8 0 1-.2.3-.1 1-.5 1-1.3a3 3 0 0 0-1.2-2 1.4 1.4 0 0 0-1.5.1c-.4.3-.5.6-.7.8-.2 0-.5.3-.9.2-.3 0-.3-.8-.5-1.6l-.2-1.2h-.4a45.9 45.9 0 0 0 .5 2.8l.2.6s0 .3.3.4h1c.4-.2.5-.4.7-.6l.3-.3s.4-.4.8-.2c.5.2.8.7.8.7s.2.4.2.8 0 .1-.4.4c-.4.3-.7.3-1 .3H72c-.5 0-.8.2-.8.2-1 .7.5 5.5.5 5.5l-.2.3.5 2c.3.8.4 1.6.4 1.7 0 .2 0 .5-.2.6l-.8.4-.6-.2h-.5s-.7-.2-1.4 0-1.2 1-1.2 1.8a3.9 3.9 0 0 0 .3 2.2c.3.7 1 1.2 1.4 1.2.5 0 .9-.2 1.2-.6l.3-.5a2.5 2.5 0 0 1 1.6 0 3 3 0 0 1 1.5 1.5c.4.8.5 1.6.5 3.1l.3.3-.3.4v.5a8.6 8.6 0 0 0 .4 3.4c.2.6.6 1 1 1.3.4.3 1 .1 1.2 0L78 49c.4-.2.4-.4 1-.9s1.2-.3 1.2-.3.6 0 1 .8c.4.7.3 1.8.2 2.2-.1.4-.3.6-.6.5H78.3c-.6.2-1.3.6-2 1.7a2.4 2.4 0 0 0-.2 2.1l.6 1.1.5.2-.2.4.7 1.2c.4.4 1 .7 1.7 1 .7.3.4.8.4.8-.4.8-1.6.9-2 1-.3 0-1 0-1.7.2-.7.1-1.4.2-1.8.7-.4.4-.2.9 0 1.4.3.5.9.7 1.7.7.8 0 1.4-.3 1.9-.5l1.6-.6c.3 0 .6-.2 1 .2l.6 1.4h.3z" opacity=".3"/><path fill="#232323" d="M104.4 43.8l.3-2.6v-.4c-.3 3.4-.6 4.5-.6 4.5l.3-1.5zm-6-22.6l.2.3.1.2 1.7 2.6.5.5c.1 0 0-.4 0-.4s-.2-.6.3.2c.4.7.7 1.3.7 1.6.1.2 0 .2 0 .2v.2l.3 1a93.3 93.3 0 0 0 1.8 5.8l.2.7c0 .2 0 .2-.2 0h-.2v2.5c.2 1 .4 1.3.4 1.3s.3.4.3-.3c.1-.6.1-.1.1-.1a21.3 21.3 0 0 1 0 3.2h.1c.1-1.8 0-3.2 0-3.2l-.1-.8-.2.4v.3s-.3 0-.4-.8v-1.8c0-.1 0 0 0 0h.2c.1 0 .1-.4-.1-1.8a21.9 21.9 0 0 0-.6-2.2l-.2-.2V30l-.6-1.6c-.5-1-.5-1.4-.5-1.4V27v-.1l-.1-.6-.8-1.7c-.5-.9-.7-.9-.7-.9s-.2-.1 0 .3c.2.5 0 .2 0 .2-.6-.7-1.7-2.5-1.7-2.5l-.3-.2-.3-.8M45.9 33l-.1.2a24.8 24.8 0 0 0-.4 3.2h-.1v.5l.2-.8s0-1.6.5-3.6l.7-2.4s.1-.3.1 0l.1.1c.3 0 .5-.6.8-1.4l.4-1.6-.1-.1h-.1l.2-.7a16 16 0 0 1 1.8-3.3v-.3l-.2.4v.2l-.2.3c-1.6 2.6-1.8 3.8-1.8 3.8v.2s.2-.2 0 .2l-.3 1.3-.3.5v-.2s-.1-.3-.3.2a17 17 0 0 0-1 3v.3zm1.9 17.5l-.1-.3.3.4c.1.1.2-.2-.4-1.8-.6-1.7-.8-1.8-.8-1.8s-.1-.2-.1 0c0 .3 0 .4-.3-.6a27.4 27.4 0 0 1-.6-3l-.2-2.1a16.5 16.5 0 0 1-.2-2.5v-.5l-.1.2V38.4v.8-.2s0-.5 0 0a62 62 0 0 0 .3 3.1v.1a38 38 0 0 0 1.2 5.5c.1.2.1 0 .1-.2l.5 1 .3 1 .1.6-.1-.2s-.3-.5-.2-.2c.2.8 1 2.3 1 2.3l.7 1.4a38.1 38.1 0 0 1-1.4-3zm1.4 3l.1.1v-.2z" opacity=".1"/><path fill="#232323" d="M57.1 15.5l-.1.3v-.1l.1-.2zm-2 1.6l-.5.1h.4zm39-.4h.2l-.1-.4a1.8 1.8 0 0 0-.4 0v.2l.3.2zm2 1.8l.1-.1-.1-.4H96v.1l.2.4zm8.3 25.3l.3-2.6v-.4c-.3 3.4-.6 4.5-.6 4.5l.3-1.5z" opacity=".1"/><linearGradient id="f" x1="-18.3" x2="-1" y1="-670.7" y2="-723.4" gradientTransform="matrix(1 0 0 -1 94 -651.9)" gradientUnits="userSpaceOnUse"><stop offset="0" stop-color="#fff"/><stop offset="0" stop-color="#fcfcfc"/><stop offset=".1" stop-color="#eee"/><stop offset=".1" stop-color="#e5e5e5"/><stop offset=".3" stop-color="#e3e3e3"/><stop offset=".3" stop-color="#8a8a8a"/><stop offset=".4" stop-color="#b8b8b8"/><stop offset="1" stop-color="#3b3b3b"/></linearGradient><path fill="url(#f)" d="M91.2 63.3l.3-.4-.3.1-.1.1.2-.2-.2.4-.2.1c-.5.6-1.4 1.2-1.4 1.2l.3-.1 1.4-1.2z" opacity=".5"/><linearGradient id="g" x1="175.1" x2="203.8" y1="380.8" y2="416.3" gradientTransform="translate(-98.4 -359.8)" gradientUnits="userSpaceOnUse"><stop offset="0" stop-color="#eff0f0"/><stop offset=".6" stop-color="#f0f1f2"/><stop offset=".6" stop-color="#787878"/><stop offset=".7" stop-color="#eeeff0"/><stop offset="1" stop-color="#d8d9db"/></linearGradient><path fill="url(#g)" d="M93.5 37l.3-.4v-1l-.4-1.4c-.6-1.6-1.1-2.4-1.1-2.4s-.4-.7-1.2-.7c-.7 0-.8.7-.8.7s-.2.5-.5.7c-.3.2-1.1.7-1.6.2-.5-.6-.8-1.3-.9-2 0-.7.2-1 .2-1s0-.1 1-.1 1.1-.3 1.1-.3.2-.2.2-.6a4.8 4.8 0 0 0-.4-1.7l-1-1.4h-.6V25l-2.3-2.8a2.9 2.9 0 0 1-.4-.7c0-.2 0-.5.2-.7.2-.1.3-.2.7 0h1c.6-.2.6-.6.7-1 0-.5-.5-1.3-.9-1.8-.4-.4-1-.5-1.3-.4-.4 0-.6.3-.9.4-.2.1-.6.3-.8.2-.2-.1-.5-.2-.8-.8l-.6-1H82s.4 1 1 1.6c.6.7 1.3.5 1.3.5s.5 0 .9-.4 1-.1 1.2 0c.1.1.5.5.8 1.2.4.7-.2 1.2-.2 1.2s-.3.4-1 .1c-.6-.3-1 .1-1.1.4-.1.2-.3.5 0 1 .4.4 1.9 2.5 2.9 3.4a5.2 5.2 0 0 1 1.6 2.6c.2.7 0 1-.3 1.2h-1.3c-.5.2-.7.3-.9 1s.4 2 1 2.6c.7.6 1.4.2 1.6.1.3 0 .8-.3 1-1.2.1-.4.5-.4.5-.4h.5c.2.2.4.4.8 1.2.5.8.9 1.8 1 2.8.2.9 0 1 .2 1.7l.9 2.4.6 1.2c0 .3.3.5.8.5s.8-.2 1-.4c0-.3.3-.7.3-.8 0-.1.3-.5.7-.6.4 0 1 0 1.2.7.2.6.5 1.5 0 2.6-.4.8-.7.5-1.5.6 0 0-.7 0-1 .5s-.3 1.6-.2 2.3c0 .8.6 1.8 1 2s.4.6.6.8c.1.3.3.7.1 2-.2 1.2-.6 2.2-1.1 2.6l-.2.2c-.3.3-.2.3-.5.4-.3.2-.6.2-1.1.2-.6.1-1 .2-1.2.5-.3.3-.8.9-.6 1.9 0 .6.8.3 1.3 0l-.5.2c-.6 0-.6-.6-.5-.8 0-.3.2-1 .6-1.2.4-.2 1-.2 1.5-.3.4 0 .6-.2.6-.2s.7-.4 1.2-1.2c.4-.7.9-2 1-3.1 0-1.3-.6-1.7-.7-2-.2-.2-.5 0-.9-1a5.3 5.3 0 0 1-.4-2.4c0-.5.1-.7.4-1h1.3s.5 0 1-.7a4.1 4.1 0 0 0 .3-2.7c-.2-.6-.4-1.1-1.3-1.2-.8-.1-1.2 1-1.2 1l-.4.6c-.2.2-.7.2-.7.2-.2 0-.4 0-.7-.5l-.8-2a8.5 8.5 0 0 1-.4-1.1l-.5-.2z" opacity=".7"/><linearGradient id="h" x1="-14.5" x2="2.8" y1="-669.4" y2="-722.2" gradientTransform="matrix(1 0 0 -1 94 -651.9)" gradientUnits="userSpaceOnUse"><stop offset="0" stop-color="#fff"/><stop offset="1" stop-color="#e4e5e6"/></linearGradient><path fill="url(#h)" d="M93.2 60.3l.5-.3 1.4-1.8 1.1-1.5s.5-.9.4-1c0-.2-.4 0-1 .4-2.1 1.6-2.3.7-2.3.7.2 1.4 2.8-1 3-.8 0 .3-.3.7-.7 1.3l-.5.6-.3.3-.1.1-1 1.2-.4.7-.4.6-.3.7c0 .2 0 .3-.3.4h-.6l-.6.4-1 .9v.1s-.1.1 0 .1l.6-.1h-.2c-.3 0 .2-.4.2-.4s.6-.6 1-.7l1-.4.7-1.3v-.1l-.2-.1z" opacity=".5"/><linearGradient id="i" x1="165.9" x2="180.5" y1="379.8" y2="427.3" gradientTransform="translate(-98.4 -359.8)" gradientUnits="userSpaceOnUse"><stop offset="0" stop-color="#fff"/><stop offset=".8" stop-color="#f9f9f9"/><stop offset="1" stop-color="#d5d7d8"/></linearGradient><path fill="url(#i)" d="M77.2 56.4l.2-.2-.4-.8s-.7-1-.1-2.1 1.6-1.4 1.6-1.4.9-.2 1.7 0c.9.2 1.3-.2 1.3-.2s.5-.2.6-1.2c.2-1 0-2.9-1.3-3.2-1.4-.4-2 .3-2 .3l-1 1-.6.2-.9.4c-.2 0-1-1-1.1-1.9-.1-.7-.2-1.3-.2-3l-.3-.3.3-.3c0-1.8-.2-3-.7-3.8-.4-.8-1.2-1.3-1.6-1.4s-1.2-.3-1.8-.1c-.6.2-.8.4-1 .8-.2.4-.5.3-.5.3s-.8 0-1-1.2c-.4-1.8.1-2.4.1-2.4s.2-.2.8-.3c.7-.1 1 0 1.5.2.5 0 .9 0 1.4-.3.6-.3.9-.7.8-1.6-.1-.8-.2-1-.9-3.5l-.5-.2.3-.4c-.7-2.5-.7-4-.7-4 0-.6 0-.8.3-1h1.2c.5 0 .8 0 1-.2.3-.1 1-.5 1-1.3a2.9 2.9 0 0 0-1.2-2 1.4 1.4 0 0 0-1.5.2c-.4.2-.5.6-.7.7-.2 0-.5.3-.9.2-.3 0-.3-.8-.4-1.6l-.2-1.1-.4-.2.3 2 .2.9v.2c0 .1.2.3.6.3.6 0 1-.3 1.1-.4l.5-.6s.2-.3.8-.2c.5 0 .7.4.8.6.1 0 1 1 .4 1.6l-.1.1-.3.2c-.4.3-.7.3-1 .3H72c-.5 0-.8.2-.8.2-1 .6.5 5.5.5 5.5l.6 1.7.4 2c.2.9-.1 1.1-.3 1.2-.2.1-.6.4-1 .4-.5 0-.6-.2-1.4-.3-.8 0-1.3.2-1.6.6a2.8 2.8 0 0 0-.4 2c.2.9.3 1.2.7 1.6.3.4.6.5 1.1.4.5-.2.5-.5.7-.7.3-.3.5-.5 1.2-.5s1.2.2 1.5.5a3.6 3.6 0 0 1 1.4 2l.2 2v2.6c0 .9.1 1.7.3 2.3l.8 1.2c.3.3.6.3.8.2l1.4-.8c.4-.3.5-.6 1-.9a2 2 0 0 1 1.4-.3c.4.1 1 .4 1.2 1.1s.2 1.6.2 1.6 0 .7-.2 1.1c-.3.4-.8.4-1 .3H80h-1.5c-.7.2-1.2.6-1.6 1.1-.4.5-.6 1-.6 1.3 0 .3 0 1 .4 1.5l.8 1.6c.4.9 1.3 1.3 1.3 1.3s.8.3 1.1.6c.3.2.3.5.2.7 0 .2-.2.6-.9 1l-2 .3a7.6 7.6 0 0 0-2.2.5c-.6.3-.6.8-.6.8s0 1 .8 1.2 1.6 0 1.9-.2l.9-.3 1.6-.5c.5-.1.9-.2 1.2.5l.7 1.5c0 .5-.2.7-.3.9l-.1.2c0 .5.7.5.7.5l-.3-.1v-.6c.3-.2.3-.4.3-.4.2-.8-.6-2-.8-2.2-.2-.3-.5-.5-1.4-.3-.9.1-2 .6-2 .6s-1 .5-1.9.4c-.8 0-1-.9-1-1.2 0-.2.2-.5.6-.6.5-.2 1.5-.4 3-.5 1.4 0 2-1 2-1 .2-.3.5-1-.3-1.4-.9-.5-.9-.3-1.3-.6a2.7 2.7 0 0 1-1-1.4l-.5-.3z"/><path fill="#232323" d="M98.8 21.7l1.7 2.5.3.3v-.3l-.1-.2c0-.2.2 0 .3.2l-.4-.5s-.2-.1 0 .3c.2.5 0 .2 0 .2-.6-.7-1.7-2.5-1.7-2.5l-.3-.3.2.3zm5.6 22.2v-.1c0-.1 0 0 0 0v.1zm-.4-9.2l.2.1v-.7.3c-.1.2-.2 0-.3 0v.1a24.7 24.7 0 0 0 .2 3s.1.2.2.1l.2-.3V37c.2 0 .2.3.2.5l-.1-.8-.2.4v.3s-.3 0-.4-.8v-1.8zm-.7-4.1l.2.2c.3.8.6 2.2.6 2.5V33l-.6-2.2-.2-.2v-.4l-.6-1.7c-.5-1-.5-1.4-.5-1.4V27v-.1l-.1-.6a6.3 6.3 0 0 1 0-.2v.3l-.1.3c0 .4.3.8.3.8l1 2.6v.5z" opacity=".1"/><linearGradient id="j" x1="-13.6" x2="-24.8" y1="-671.8" y2="-726.3" gradientTransform="matrix(1 0 0 -1 94 -651.9)" gradientUnits="userSpaceOnUse"><stop offset="0" stop-color="#fff"/><stop offset="1" stop-color="#e4e5e6"/></linearGradient><path fill="url(#j)" d="M70.1 67.4l1.1.2-1-.2z"/><linearGradient id="k" x1="152.9" x2="155.7" y1="384.4" y2="419.2" gradientTransform="translate(-98.4 -359.8)" gradientUnits="userSpaceOnUse"><stop offset=".2" stop-color="#989a9c"/><stop offset=".3" stop-color="#fff"/></linearGradient><path fill="url(#k)" d="M56.9 57.7v-.1s-1.1-2-1-2.8c0 0 0-.4.7-.7.5-.1.4.4 1.8.6 0 0 1.2.3 1.6-.5.3-1-.4-2-.4-2s-.8-1.6-1.9-1.6c-.5 0-.4.3-1.2.5 0 0-1.1.1-1.5-.6a5.4 5.4 0 0 1-.6-2.3l.1-.8.1-.7V46v-.4c0-1 0-2.5-.2-3.4S54 40 53.2 40c0 0-.3 0-.9.6-.5.5-1-.4-1-1 0-.7 0-1.3.2-1.6.2-.3.6-.4.7-.4l.6.3c.3.2.7.2 1 0 .2-.3.5-.5.6-1.6a14.5 14.5 0 0 0 0-3.3l-.1-.3.8-.2a.2.2 0 0 1 0-.1v-.4H55v-1.2l.1-1.1v-.1s.3-.9.7-1.5.3-.4.7-.4l.8.1a1.3 1.3 0 0 1 .1 0H58.3l.5-.5V27a5.3 5.3 0 0 0 .1-.1v-.1h.1v-.1l.1-.2c.4-.9 0-1.7 0-1.9l-.7-.5s-.2-.1-.4 0c.2-.1.4 0 .5.2.2.5.2.8.2 1.4 0 0-.2.8-.9 1.3-.6.5-1 0-1.7 0-.5.1-.8.5-1 .8-.2.2-.8 1.3-.8 3l.2 3.2c0 .7.1 2.3-.4 3-.4.8-1 .5-1.2.3-.4-.2-.8-.2-1 0-.4.2-.6.7-.6 2 0 1.4 1 1.5 1 1.5s.1 0 .5-.3c0 0 .4-.4.7-.4.4 0 .6.4.8 1 .1.7.4 3.4.4 5.2 0 .7-.4.7-.2 2 0 0 .2 2 .8 2.5.6.5 1.4.4 1.6.4l.4-.1.3-.3c.1 0 .3-.2.6-.1.3 0 1 .5 1.5 1.5s.3 2-.2 2c-.4.1-.5.2-1.1 0-.7-.1-.9-.3-1.2-.4-.3-.2-.6-.2-.9 0-.3.2-.8.6-.2 2a9.4 9.4 0 0 0 2 3.3l-.8-1.1-.3-.4z"/><linearGradient id="l" x1="-35.2" x2="-46.4" y1="-666.7" y2="-720.8" gradientTransform="matrix(1 0 0 -1 94 -651.9)" gradientUnits="userSpaceOnUse"><stop offset="0" stop-color="#fff"/><stop offset="1" stop-color="#e4e5e6"/></linearGradient><path fill="url(#l)" d="M58.1 18.2z"/><linearGradient id="m" x1="-22.1" x2="-22.1" y1="-720" y2="-720.1" gradientTransform="matrix(1 0 0 -1 94 -651.9)" gradientUnits="userSpaceOnUse"><stop offset="0" stop-color="#fff"/><stop offset="1" stop-color="#e4e5e6"/></linearGradient><path fill="url(#m)" d="M71.9 68.2h.2-.3.1z"/><path fill="#9FA2A3" d="M59 17c-.3.3-.3 0-.6 0s-.6.2-1 .7-.3 1 .3.8l.4-.3.3-.1V18s.3-.3.7-.2h.6c.6-.5 1-1.4 1-1.4l.6-1.1-.5-.8L60 16c-.4.6-.4.8-1 1z"/><path fill="#9FA2A3" d="M56.6 23.4s-.3 1 .7 1c0-.4 0-1 .2-1.4l.7-1.3s.6-1 .8-1.7c.3-.7.3-1.2.3-1.2l-.6-.7a.5.5 0 0 0-.1 0h-.1.1c.2.2-.2 1.2-.2 1.2l-.9 1.8c-.6 1-.9 2.3-.9 2.3z"/><linearGradient id="n" x1="-16.8" x2="-28.2" y1="-670.5" y2="-725.7" gradientTransform="matrix(1 0 0 -1 94 -651.9)" gradientUnits="userSpaceOnUse"><stop offset="0" stop-color="#fff"/><stop offset="1" stop-color="#e4e5e6"/></linearGradient><path fill="url(#n)" d="M67.3 66.3h.1a1.8 1.8 0 0 0-.3-.2c.1.1.3.2.2.4-.1.3 0 .3.3.5 0 0-.1 0 0-.2v-.3l-.3-.2z"/><linearGradient id="o" x1="-25.3" x2="-36.6" y1="-668.7" y2="-724" gradientTransform="matrix(1 0 0 -1 94 -651.9)" gradientUnits="userSpaceOnUse"><stop offset="0" stop-color="#fff"/><stop offset="1" stop-color="#e4e5e6"/></linearGradient><path fill="url(#o)" d="M59.3 62.3c-.8-.7 1-.1 1-.1s.3.1.1-.2c-.1-.4-.8-1.2-1.5-2l.1.2s1.4 1.6 1.3 1.7c-.1.2-.7-.2-.7-.2s-.8-.3-.7.1c.1.3.7.7 1 1l-.6-.5z"/><linearGradient id="p" x1="-20.5" x2="-31.9" y1="-669.5" y2="-725" gradientTransform="matrix(1 0 0 -1 94 -651.9)" gradientUnits="userSpaceOnUse"><stop offset="0" stop-color="#fff"/><stop offset="1" stop-color="#e4e5e6"/></linearGradient><path fill="url(#p)" d="M60.8 63.4l.8.4s.4.2.7 0c.3-.3.3-.4.8-.2l1.4.9L67 66a65.8 65.8 0 0 1-2.7-1.8c-.5-.3-1.5-1-2-.8-.2 0-.2.2-.4.3s-.4 0-.9-.2l-.2-.2z"/><linearGradient id="q" x1="-15.3" x2="-27.1" y1="-668.8" y2="-726.2" gradientTransform="matrix(1 0 0 -1 94 -651.9)" gradientUnits="userSpaceOnUse"><stop offset="0" stop-color="#fff"/><stop offset="1" stop-color="#e4e5e6"/></linearGradient><path fill="url(#q)" d="M68.3 67.3h.5c-.4.1-.8 0-.8 0l-.1-.1.4.1z"/><linearGradient id="r" x1="-13.4" x2="-24.8" y1="-671.2" y2="-726.4" gradientTransform="matrix(1 0 0 -1 94 -651.9)" gradientUnits="userSpaceOnUse"><stop offset="0" stop-color="#fff"/><stop offset="1" stop-color="#e4e5e6"/></linearGradient><path fill="url(#r)" d="M70.9 67.8l-1.1-.1a8.6 8.6 0 0 0 1.6.2c.3 0 0-.2 0-.2h-.5z"/><path fill="#232323" d="M47.7 50.1l.3.5v-.3a2.9 2.9 0 0 1-.2-.3l-.2-.1-.1-.2c.2.8 1 2.3 1 2.3l.7 1.4a38.8 38.8 0 0 1-1.4-3v-.3zM45.9 33V32.4l.9-2.7c.2-.5.2-.2.2-.2l.1.2.3-.5.4-1.3v-.2l-.1-.2s.2-1.2 1.7-3.8l.3-.3v-.2l.3-.4v.3s-1.2 1.5-1.9 3.3l-.2.7v.3h.1a12 12 0 0 1-.8 2.6l-.1-.1v-.2c-.2 0-.3.2-.3.2v.2s-.3.5-.8 2.5c-.5 1.9-.5 3.5-.5 3.5l-.1.8c-.1.1 0 0 0 0h-.2v-.5h.1c.1 0 0 0 0 0h.1c0-.2.1-1.7.4-3.2V33zm-.7 5.4v.2l.1.2.1-.2v.2c0 .3 0 1.4.2 2.5a27.4 27.4 0 0 0 .8 5l.3 1 .2.1v-.2.3c0 .2 0 .4-.1.2-.1-.3-.5-1-.8-2.5l-.4-3v-.5l-.2-2.7c0-.5 0 0 0 0v.2c-.1 0-.2.2-.2-.2v-.6zM59.4 15l-.3-.4h-.6s.2-.1 0 0c0 .2-.3.4-.6.7-.4.4-.3.5 0 .4l1.5-.7z" opacity=".1"/><path fill="#232323" d="M58.5 14.6zm.3.3c.2-.1.3-.3.3-.4h-.6s.2 0 0 .2l-.6.7c-.4.3-.2.4 0 .3h.2l.7-.8zM93.8 16.3h-.1l.1.2v-.2h.1z" opacity=".1"/><path fill="#FFF" d="M81.6 66.7l1.9-.4c.9-.3 1.1-.6 1-.8 0-.1-.2-.2-.5-.1.2 0 .3 0 .2.2-.1.3-.5.4-.5.4l-.5.2c-.4.2-1 .2-1.3.3l-.9.2c-.2.1.6.3.6.3s.8.2 1.9.1l.5-.1c-1.2.2-2 0-2.2 0l-.5-.2c-.1-.2.3-.1.3-.1z" opacity=".5"/><path fill="#232323" d="M82 16.4h.4L84 16l1-.4a6.3 6.3 0 0 1 2-.3l.4.1.1.2s.5 1 1.8 1.1c1.3.1 1.3-.6 1.2-.8-.2-.3-.6-.5-.6-.5l-.6-.5c-.1-.2 0-.2 0-.2l1.7-.4-.4-.1-.4.2-1 .2-.3.1-.5.8v.2c0 .2.2.3.2.3l.6.4c.3.1.2.2.2.2-.6 0-.8 0-1-.2-.3-.1-.5-.4-.6-.6l-.3-.4c-.4-.2-1-.2-1.7 0l-1.7.4-1.3.4-1 .3-2.6.8-1.1.2h-1.3c-.2-.1-.2-.3-.2-.3v-.7s0-.3-.2-.4l-.9-.1h-1.2c-.2 0-.7.2-1 .6-.4.4-.3.7-.3.7v.7c0 .3.3.3.3.3s-.4.3-1.8.7a12 12 0 0 1-2.1.5l.4.1s3.2-.6 4.1-1.5c0 0 .4-.2 0-.5l-.5-.4s-.2-.2 0-.5c.3-.3.6-.5.8-.5s1-.2 1.7 0l.3.1v.6c0 .1 0 .3.2.5l.6.3s.8.1 1.7-.1l3.2-1 .1-.2z" opacity=".1"/><path fill="#616161" d="M73.3 17.7l.3.3c0 .2-.3.3-.3.3s-.3 0-.3-.4a16.3 16.3 0 0 1 0-.5l.3.3z"/><path fill="#FFF" d="M93.2 60.3h.3l1-.5 1.7-1.1s.5-.3.1.1l-.6.6s-.3.4-.2.5l.7-.4 1.3-1.5V58l.2-.3 1.2-1.2.5-.7-1.5 1.6-.5.6-.2.3-.2.3-.7.7s-.3.3-.5.3l.3-.3.6-.7c.2-.3 0-.3 0-.3l-.5.3-.8.5-1.7 1a31 31 0 0 1-3 1.4c-.7.4-1.2.4-1.1.3l.3-.2.2-.5s0-.3-1-.1c-1 .2-1.9.7-1.9.7s-1.5.7-1.1 1c0 0 0 .2.4.3.3 0-.6.3-.6.3l-2.2.6a151.4 151.4 0 0 0-2.6.5l-1.8.7c-1.2.4-3.5.8-3.5.8s-1.5.2-1.7.4l.1.3 1 .1h.3l-.1.1-1.7.4h-1v-.2s0-.2-.2-.3c0 0-.2-.2-1-.2h-4a40.3 40.3 0 0 1-3.6-.4l-.2-.1-.6-.4-1.3-.6-1-.3v.2l.7.3-.3-.2h.2l1.2.4.8.5s.5.3 1.4.4l2.2.3.3-.2.3.2 1.5.1h2.7c.4 0 .3.2.3.2s-.2.2 0 .3c0 0 .5.3 2 .1 1.5-.2 1.9-.5 1.9-.5s.2-.2-.2-.2l-.7-.1c-.4 0-.6-.1-.3-.2h.7l2.3-.6s1.2-.2 2.3-.6l1-.4.3-.3.4.2 2-.4c.6-.1 1.8-.4 2.4-.7.5-.2.8-.5.9-.6 0-.2-.3-.3-.3-.3s-.3 0-.3-.2l.7-.4 2-.7c.6-.2.4.1.4.1l-.5.6v.2h.7a21.5 21.5 0 0 0 3.2-1.5l.2-.4z" opacity=".2"/><linearGradient id="s" x1="-44.7" x2="-44.6" y1="-705.5" y2="-705.5" gradientTransform="matrix(1 0 0 -1 94 -651.9)" gradientUnits="userSpaceOnUse"><stop offset="0" stop-color="gray"/><stop offset=".1" stop-color="#7a7a7a"/><stop offset=".4" stop-color="#6b6b6b"/><stop offset=".5" stop-color="#686868"/><stop offset=".6" stop-color="#5f5f5f"/><stop offset=".7" stop-color="#4e4e4e"/><stop offset=".8" stop-color="#383838"/><stop offset=".9" stop-color="#1b1b1b"/><stop offset="1"/></linearGradient><path fill="url(#s)" d="M49.3 53.6l.1.1z" opacity=".7"/><linearGradient id="t" x1="-44.6" x2="10.8" y1="-702.8" y2="-702.8" gradientTransform="matrix(1 0 0 -1 94 -651.9)" gradientUnits="userSpaceOnUse"><stop offset="0" stop-color="gray"/><stop offset=".1" stop-color="#7a7a7a"/><stop offset=".4" stop-color="#828282"/><stop offset=".5" stop-color="gray"/><stop offset=".6" stop-color="#797979"/><stop offset=".6" stop-color="#6e6e6e"/><stop offset=".6" stop-color="#6b6b6b"/><stop offset="1" stop-color="#4e4e4e"/></linearGradient><path fill="url(#t)" d="M97.9 49h-.2l-2.3 1.6s-1 .8-2 1.3c-1 .6-2.3.5-2.3.5s-.3 0-.1-.3l.4-1c.1-.4.3-1.2-.3-1.4-.7-.2-1.8.1-1.8.1s-2.7.7-3.7 2c-1 1-.2 1.6-.2 1.6l.8.4c.4.1.3.3.2.3 0 0-1.2.8-2.6 1.2 0 0-1.9.6-3.7.7l-2.7.2-.2.2-.5-.2-3.2.6c-1.6.4-3 .7-4 1.3 0 0-.8.6-.4 1 .5.6 1 .8 1 .8l.2.2s0 .2-.2.3c0 0-.8.5-2.4.5s-2.3 0-2.8-.4c-.4-.4.1-1.1.1-1.1s.2-.4 0-.8c-.2-.5-1.3-.6-1.3-.6h-1.5a66.7 66.7 0 0 1-5.3-.4h-.4l-2.4-.7c-.5-.3-.7-.2-.6-.7 0-.4-.5-1-.5-1l-1.3-1.3c-.6-.4-.9-.3-.9-.3s-.3.1 0 .8c.2.6.5.8.5.8v.1l-.4-.2-1.5-1.4.1.2c.1.3.5.8 1.3 1.4.9.7.9.5.9.5s0-.3-.2-.5c-.2-.3-.5-.8-.4-1l.1-.2.4.1 1.2 1c.3.4.3.7.3.7s-.1.4.2.7c.3.4 1 1 3.4 1.4l.2-.3.3.4c2.1.3 3.3.3 3.3.3l3.5.1c.7 0 .6.4.6.4l-.1.4c-.1.1-.3.8-.1 1.1 0 0 .3.8 2.5.9 0 0 2 .1 3.3-.4 1.4-.6.2-1.3.2-1.3l-.7-.5c-.2-.1 0-.3 0-.4 0 0 .1-.2.3-.2.1-.1.7-.4 3.1-1a21 21 0 0 1 3.9-.7l.2-.4.5.3 1.5-.1c1 0 2.5-.3 3.4-.5A15 15 0 0 0 86 55c1-.5 1-1 1-1s.2-.2-.2-.5-.6-.2-1-.6.4-1 .4-1 .3-.4 2.3-1.2 2.3-.5 2.4-.4c.1 0 .2.3.1.5l-.4 1.2c-.1.4-.2.8.3 1a4 4 0 0 0 2-.3c1.7-.6 2.2-1.4 5-3.4V49h.5c1.1-.8 2.2-2 2.2-2s.8-.7 1.1-1.4c.4-.6 0 .5 0 .5s-.1 1 .2 1.3c.2.2.9-.5.9-.5s.4-.5.5-1.2c.3-1.1.2-1.3.2-1.3s-.2-.3 0-.5c0-.3.6-1.8 1-2.4l.4-.3-.2-.3.2-.3-.8 1.2a6 6 0 0 0-.9 2.2v.6l.1.4a2.4 2.4 0 0 1-.8 1.6s-.4.4-.5.1a1.3 1.3 0 0 1 0-.5l.2-1.2c0-.3-.3 0-.3 0l-.2.1a16.7 16.7 0 0 1-3.5 3.6l-.2.3z" opacity=".4"/><linearGradient id="u" x1="-48.6" x2="9.8" y1="-692" y2="-692" gradientTransform="matrix(1 0 0 -1 94 -651.9)" gradientUnits="userSpaceOnUse"><stop offset="0" stop-color="#555"/><stop offset="1" stop-color="#231f20"/></linearGradient><path fill="url(#u)" d="M45.7 42.3v.5l.7.7c.6.7.8.3.8.3s.1-.5 0-1.2c-.2-.8-.2-1.2.2-1.2.3 0 1.3.2 1.6 1v.9 1.3c0 .5.4.9.8 1.2.5.3 1.6.9 2.8 1h1.5l.5-.5v.4l2.2-.2c1.4-.2 2.4-.3 3.4-.2.9.1 1.2.9 1.2.9s0 .1-.2.3l-.5.5c-.1.2-.3.6 0 1.2.4.6 1.3 1 2.1.8.8 0 2-.4 2.6-.5.8-.2 1.5-.6 1.5-1.2.1-.6-.8-1.3-.8-1.3l-.6-.5.9-.3a17.3 17.3 0 0 1 5.2-1.5l2.8-.3.3-.4.3.4h.7c2.1-.1 3.2-.4 4.3-.6a11 11 0 0 0 2.9-1.4c.2-.1.7-.4.8-1.1 0-.8-.8-1.3-.8-1.3l-.9-.5c-.1-.2 0-.4 0-.4s.4-.8 1.7-1.3a10 10 0 0 1 2.7-.7c.6-.1.7 0 .8.2v.5l-.3.8c-.2.2-.3.7-.2 1s.5.3 1 .2c.4 0 1.7-.4 2.8-1l3-1.3v-.4l.5.1c.6-.3 1.6-.9 2.3-1.5l2.4-2.1c.2-.2.6-.5.8-.5.3 0 .4.2.6.9l.2 1.5c.1.3.2.7.6.8.4 0 .9-.3 1-.4.2-.2.6-.7.6-1.4 0 0 0-1-.5-1.9l-.3-.4v-.3c.1-.2.3-.5.7-.7.2-.2.5-.2.6-.2l.4-.2v-.2.1h.5l-.3-.2.1-.3h-.4c-.2 0-.2.2-.6.2-.3 0-.7.2-1.1.8-.4.6 0 1.3 0 1.3l.3.5c0 .2.6 1.3 0 2.1 0 0-.3.4-.9.5-.5.2-.4-.4-.4-.8 0 0 0-1.3-.7-2-.6-.7-1.6.5-2.2.9-.4.3-1.9 1.8-3.9 2.9l-.3.5-.2-.3a49 49 0 0 1-4.6 2s-1 .5-1.5.5c0 0-.1 0 0 0 0-.2.1-.3.3-.5.1-.3.3-.8.3-1.4 0-.5-.6-1.1-1.5-1-1 .1-1.8.4-2.9.8-1 .4-2 1.2-2 2-.2.6.6 1 .6 1s.9.5 1 .7v.5s0 .2-.4.4l-1.4.8s-1.3.7-3.3.9l-2.8.2-.4.3-.3-.3-2.1.2s-2.5.4-4.8 1.1c-2 .6-2.3 1-2.3 1s-.4.3-.1.8l.6.6c.4.3.7.6.7.8 0 .2-.2.2-.2.2s-.5.5-2.8 1c0 0-1.5.2-2-.2-.4-.5-.2-.8-.2-.8l.3-.3s.6-.4.4-1c-.2-.7-1.2-1.5-2.4-1.5 0 0-1.3 0-4.8.4l-.1.3-.4-.2h-.6c-.6.1-1.5 0-2.5-.3-1.1-.3-1.8-.9-1.9-1.2V44s.2-.8.1-1.4c-.1-.6-.3-1.1-1-1.5-.5-.4-.9-.3-.9-.3s-.5-.1-.5.8L47 43s.1.4 0 .4l-.5-.2-1-1v.4l.1.2v-.4z" opacity=".3"/><linearGradient id="v" x1="-48.4" x2="5.2" y1="-680" y2="-680" gradientTransform="matrix(1 0 0 -1 94 -651.9)" gradientUnits="userSpaceOnUse"><stop offset="0" stop-color="#a0a0a0"/><stop offset=".1" stop-color="#656767"/><stop offset="1" stop-color="#717375"/></linearGradient><path fill="url(#v)" d="M98.3 20.7v.5l-1 .4-1.2.4s-.5.2-.3.6c.2.5.5.7.5.7s.4.4.4.7c0 .3-.1.4-.4.6l-.7.2s-.7.2-1.1-.2c-.4-.4-.5-1-.5-1s0-.5-.7-.7c-.6-.2-1.4.2-1.4.2l-1.3.8c-.7.4-2 1-2.7 1.2l-.1.4-.4-.2-2 .7s-1.4.5-2.4.6c-1 .2-1.2 0-1.3 0v-.7s.4-.8.2-1.2c-.2-.4-1.4-.5-1.4-.5s-1.4-.2-2.6.5c-1.1.6-1.3 1-1.3 1s-.3.5 0 1c.5.7 1.2.7 1.2.7s.6 0 .7.3v.3s-.1.6-1.2.8c0 0-2 .5-5.4 1l-.3.4c-2.2.2-4.8.8-6.2 1.1-1.4.4-1.5.8-1.5.8-.3.5 0 .7 0 .7s.6.2.7.7c0 .6-.5 1-.5 1s-.7.6-1.7.7c-1 .2-1.4.2-2-.3-.5-.4-.2-1 .2-1.3l.6-.7v-.2l-.3-.3c-1.2-.8-5.8 0-5.8 0l-.8.2-.4-.2s-1.3.3-2.9.3c-1.5 0-.7-1.2-.7-1.2l.4-1s.2-1-.8-1-1.1.9-1.1.9v.8c0 .4 0 1-.5 1.5-.5.4-1 .3-1 .3l-.9-.4a.5.5 0 0 0-.4 0l-.1.4v-.4l-.2.3v.5-.2l.2-.2v.1h.4l1 .5c.3 0 .5 0 .7-.2.3-.2.6-.6.8-1l.2-1.5v-.2-.5c.2-.1.3-.2.7-.2.4 0 .6.2.6.2l.1.3v.2l-.3.6c-.1.1-.4.7-.3 1.2 0 .5.8.8.8.8s.7.1 1.6 0L54 33l.3-.4.1.3a23.2 23.2 0 0 1 5.5-.4s.3 0 .3.2l-.3.2-.4.4c-.4.4-.4.7-.4 1 0 .3.3 1.1 1.4 1.4 1.2.2 2.4-.2 2.4-.2s.9-.2 1.7-1c.8-.8 0-1.8 0-1.8l-.4-.3s-.1 0 0 0 .2-.5.7-.6c.6-.2 2.4-.7 6.5-1.3l.2-.3.5.2a43 43 0 0 0 4.6-.8s1.7-.3 2.1-1c.2-.4.6-.9 0-1.4l-.5-.2c-.4 0-.6-.1-1-.4-.3-.2-.3-.5-.3-.5s0-.2.5-.5c0 0 .5-.4 1.5-.7 1-.3 2.1-.2 2.1-.2s.5 0 .4.4l-.3 1.1c0 .3 0 .6.5.9.5.2 1.3.1 1.3.1s.8 0 2.2-.4l2.7-1-.1-.2h.6c.3 0 .8-.3 1.3-.5l2-1.1s1.1-.7 1.7-.7c0 0 .2 0 .2.2l.1.7c0 .1.4 1 1.6 1.2 1.2 0 1.7-.7 1.7-.7s.4-.6-.3-1.3l-.6-.7.1-.1 2.5-.8-.1-.3.3.2a.9.9 0 0 0 .3-.3c.1-.1 0-.4 0-.4l-.3-.3-.3-.2-.3.2" opacity=".3"/><path fill="#232323" d="M49.7 23.4l-.1.3h.7c.6.1 1.2-.3 1.2-.3s.6-.3.8-.8l.2-.6s.2-.6.7-.8h.4l.3.1s0 .2-.4.6l-.4.7s-.2.4.1.5h.6l2.6-.6.6-.3-.4-.3-2.8.7c-.3.2-.3 0-.3 0-.2 0 .2-.5.2-.5l.6-1c.1-.5-.6-.4-.6-.4-.4 0-.7.2-1 .7a3 3 0 0 0-.6 1l-.1.4-.3.1-.7.3-.6-.1H50v-.3l-.4.2-.2.4v.3h.1l.3-.3zm3-4.2s.2-.1.2 0l-.1.4h-.1v-.4zm-1.5 2s-.3.2 0 .3l.5-.5h-.1l-.4.2z" opacity=".1"/><path fill="#FFF" d="M90.5 64l-2 1-1.3.6v.1l-1.6.6h-.1.1l.2-.1-.7.1-1.7.6-1.6.4-2.5.5H79s.3 0-.2 0h-2.1c-.8.2-.7.3-.7.3h.7c-.8.2-2.5.2-2.5.2a24 24 0 0 0 2 0l1-.1c.3 0 0 0 0 0l-.5-.1s-.4 0 0-.1l1.4-.1h.6c.3 0 2.8-.4 4.2-.8l2.4-.7-.3.1s-.3.2.5 0h.1a30.2 30.2 0 0 0 2.2-1c-.2 0 0 0 0-.1l2-1 .7-.4z" opacity=".3"/><linearGradient id="w" x1="-46.8" x2="-46.8" y1="-695.1" y2="-695.1" gradientTransform="matrix(1 0 0 -1 94 -651.9)" gradientUnits="userSpaceOnUse"><stop offset="0" stop-color="#fff"/><stop offset=".1" stop-color="#f4f4f4"/><stop offset=".4" stop-color="#cecece"/><stop offset=".5" stop-color="#bfbfbf"/><stop offset=".8" stop-color="#7c7c7c"/><stop offset=".9" stop-color="#a8a8a8"/><stop offset=".9" stop-color="#9a9a9a"/><stop offset=".9" stop-color="#7d7d7d"/><stop offset="1" stop-color="#686868"/><stop offset="1" stop-color="#5b5b5b"/><stop offset="1" stop-color="#575757"/></linearGradient><linearGradient id="x" x1="-48.7" x2="14.8" y1="-695" y2="-687.9" gradientTransform="matrix(1 0 0 -1 94 -651.9)" gradientUnits="userSpaceOnUse"><stop offset="0" stop-color="#fff"/><stop offset=".1" stop-color="#f4f4f4"/><stop offset=".4" stop-color="#cecece"/><stop offset=".5" stop-color="#bfbfbf"/><stop offset=".8" stop-color="#7c7c7c"/><stop offset=".9" stop-color="#a8a8a8"/><stop offset=".9" stop-color="#9a9a9a"/><stop offset=".9" stop-color="#7d7d7d"/><stop offset="1" stop-color="#686868"/><stop offset="1" stop-color="#5b5b5b"/><stop offset="1" stop-color="#575757"/></linearGradient><path fill="url(#x)" d="M45.7 42.3v.5l.7.7c.6.7.8.3.8.3v-.4c0 .1 0 .3-.4 0l-.6-.6a8.2 8.2 0 0 1-.6-.7l-.1.4.1.2v-.4z"/><linearGradient id="y" x1="-49" x2="23.9" y1="-695" y2="-686.9" gradientTransform="matrix(1 0 0 -1 94 -651.9)" gradientUnits="userSpaceOnUse"><stop offset="0" stop-color="#fff"/><stop offset=".1" stop-color="#f4f4f4"/><stop offset=".4" stop-color="#cecece"/><stop offset=".5" stop-color="#bfbfbf"/><stop offset=".8" stop-color="#7c7c7c"/><stop offset=".9" stop-color="#a8a8a8"/><stop offset=".9" stop-color="#9a9a9a"/><stop offset=".9" stop-color="#7d7d7d"/><stop offset="1" stop-color="#686868"/><stop offset="1" stop-color="#5b5b5b"/><stop offset="1" stop-color="#575757"/></linearGradient><path fill="url(#y)" d="M47.2 42.6v.1a3.1 3.1 0 0 0 0-.1z"/><linearGradient id="z" x1="146.3" x2="202.5" y1="406.8" y2="395.4" gradientTransform="translate(-98.4 -359.8)" gradientUnits="userSpaceOnUse"><stop offset="0" stop-color="#ededee"/><stop offset=".4" stop-color="#fff"/><stop offset=".6" stop-color="#f8f9f9"/><stop offset="1" stop-color="#bfc0c2"/></linearGradient><path fill="url(#z)" d="M103.3 30.6l.2.1h.4l-.3-.2-1.3.3s-.8.4-.9 1v.4l.6 1c.3.7.2 1.2.1 1.7 0 .5-.7 1-1 1-.4.1-.6 0-.7-.2l-.2-1.4c-.2-.9-.4-1.3-.7-1.4-.4 0-.8.3-1 .5L97 34.6S95.7 36 93.7 37c-2 1.1-4.5 2-4.5 2s-1.7.6-2.1.6c-.4 0-.3-.4-.2-.6l.5-1c.2-.4 0-1-.2-1.1-.4-.2-.8-.3-2.1 0a7.5 7.5 0 0 0-2.2 1c-.4.1-1 .6-1.1 1-.2.2-.3.5 0 .8l1 .6c.4.4.5.4.5.9s-.4.8-.4.8-1.8 1.2-3.9 1.6c-1.4.3-4 .4-4 .4s-.8 0-3.1.3c-2.4.3-4 .9-4.6 1l-1.8.8c-.5.2-.2.5-.1.6l.9.8c.1.1.8.7 0 1.2s-2 .7-2 .7-1.9.4-2.5.2c-.6-.3-.7-.5-.8-.8-.2-.4 0-.8.4-1 .5-.4.3-.8.3-.8-.6-1-1.8-1.2-2.8-1.1a84 84 0 0 0-4.3.4A7 7 0 0 1 51 46c-.9-.2-1.8-.9-1.9-1.4a.7.7 0 0 1 0-.2v-1c.2-.4 0-1 0-1v-.1a2 2 0 0 0-1.5-1.2c-.6-.1-.6.5-.6.5l.2-.2c.4 0 1.4.2 1.7 1v.9 1.3c0 .5.4.9.8 1.2.4.3 1.6.9 2.8 1h1.5l.5-.5v.4l2.2-.2c1.4-.2 2.4-.3 3.4-.2.9.1 1.2.9 1.2.9s0 .1-.2.3l-.5.5c-.2.2-.3.6 0 1.2.4.6 1.3 1 2.1.8.8 0 2-.4 2.6-.5.8-.2 1.5-.6 1.5-1.2.1-.6-.9-1.3-.9-1.3l-.5-.5v-.1l.9-.2 2-.7c1-.4 3.2-.8 3.2-.8l2.8-.3.3-.4.3.4h.7l4.3-.6a11 11 0 0 0 2.9-1.4c.2-.2.7-.4.8-1.1 0-.8-.8-1.3-.8-1.3l-.9-.5c-.1-.2 0-.4 0-.4s.4-.8 1.7-1.3c1.3-.5 2.2-.7 2.7-.7.6-.1.7 0 .8.2v.5l-.3.8c-.2.2-.3.7-.2 1 0 .2.5.3 1 .2.4-.1 1.7-.5 2.8-1l3-1.3v-.4l.5.1c.6-.3 1.6-.9 2.3-1.5a80 80 0 0 0 3.2-2.6c.3 0 .4.2.6.9l.2 1.5c.1.3.2.7.6.8.4 0 .9-.3 1-.5.2-.1.6-.6.6-1.4 0 0 0-.9-.5-1.8l-.3-.4v-.3c.1-.2.3-.5.7-.7l.6-.3.4-.1v-.2z"/><path fill="#FFF" d="M45.9 33v.1h.4l1 .5c.3 0 .5 0 .7-.2l.4-.4c-.1.2-.4.3-.8.3 0 0-.3 0-.8-.3s-.8-.1-1 0l-.2.4.2-.2V33z"/><path fill="#FFF" d="M48.7 32.5l.1-.2V32v.5zm.3-1.9v.9V30.6z" opacity=".7"/><linearGradient id="A" x1="147.6" x2="150.3" y1="383" y2="383" gradientTransform="translate(-98.4 -359.8)" gradientUnits="userSpaceOnUse"><stop offset="0" stop-color="#e2e3e4"/><stop offset=".5" stop-color="#fff"/></linearGradient><path fill="url(#A)" d="M49.7 23.4l-.1.3h.7c.6.1 1.2-.3 1.2-.3l.4-.3c-.2.2-.8.5-1.3.4-.5-.2-.5 0-.7 0-.2 0-.2-.1-.2-.2 0-.3.2-.5.2-.5l-.4.2-.2.4v.3h.2l.2-.3z"/><path fill="#FFF" d="M55 22.6c-.7.2-1.2.5-1.5.4-.3 0 0-.5 0-.6l.1-.2.5-.8c.1-.1.1-.4-.2-.4-.5 0-1 .4-1 .4s-.3.1-.4.8V22s.2-.6.7-.8h.5c.3 0 .2.1.2.1l-.4.6-.4.7s-.2.4.1.5h.6l2.6-.6.6-.3-2 .4z"/><path fill="#231F20" d="M98 57.3zm.1-.2zm0 0z" opacity=".1"/><path fill="#231F20" d="M96.4 58.7l-.1.1-.6.6-.1.2.4-.2a.3.3 0 0 1-.1 0l.2-.2.6-.7c.2-.3 0-.3 0-.3l-.2.1s.1.1 0 .4z" opacity=".3"/><path fill="#231F20" d="M87.7 61.4s1.3-.6 2-.5c0 0 .3 0 0 .4-.5.4-.6.7.1.5h.2-.4c0-.2.3-.3.3-.3s.2-.3.2-.5c0 0 0-.4-1-.1a7.6 7.6 0 0 0-1.4.5z" opacity=".2"/><path fill="#231F20" d="M87.2 61.6zm9.3-3.3zM96.2 58.5zm2.4-1.9zm-.1.1zm0 0zm-.3.4zm-11.5 4.8zm11.7-5.1zm-.1.2zm0-.2zm0 .2zm0-.1zM87 61.7zm.1 0zm-.4.2zm.4-.3zm0 0zm0 0zm.1 0zm0 0zm-.1 0zm.1 0zm0 0zm0 0zm-.2 0zm-.2.2zm.4-.2zm-.4.2zm0 0zm0 0zm.2-.1zm11.6-5.2zM87 61.8zm0 0zm0 0zM99 56.1zm0 0H99zm0 0zm-.4.4zm.3-.3zm.1-.2zm.2-.1zm0 0zm-2.9 2.5zm2.8-2.4zm-3 2.5zm-23 8.6zm-.1 0zm0 0zm0 0zm0 0zm23.3-8.7zm0 0zm0 0h-.1zm0 0zm-.1.8l-.1.1v-.1zm2.6-3zm-37.5 8.5zM86.5 62zm-14.7 4.5zm-10.6-1.7zm-.1 0zm.2 0zm37.4-8.3zm-37.3 8.4zm37.4-8.4zm0 0v-.1zm-37.4 8.3zM86.5 62zm-14.5 4.6zm14.5-4.6zm-14.4 4.6zm0 0zm-.3 0zm.1 0zm0 0zm-.1 0zm-10.6-1.8zm11.4 2.4zm0 0zm0 0zm0 0zm0 0zm0 0zm-.5-.6zm.1 0zm1.4.6zm-1.4-.6zm.6.6zm0 0zm-1.5-.7h.1zm1.5.7z" opacity=".1"/><path fill="#231F20" d="M72.3 66.5v.2c0 .2.1.3.4.4s0-.1 0-.2 0-.2-.2-.3h-.2z" opacity=".4"/><path fill="#231F20" d="M73 67.1zm-.2 0zm0 0zm0 0zm0 0zm0 0zm-.5-.6zm-10.5-1.6zm0 0zm0 0zm9.9 1.5zM61.8 65zm-.8-.3zm0 0zm.8.3zm0 0z" opacity=".1"/><path fill="#231F20" d="M61.2 64.9a.6.6 0 0 1-.2-.3h-.3l.2.2.3.1z" opacity=".4"/><path fill="#231F20" d="M61.8 64.9zm0 0h-.1zm0 0zm-.3-.1zm10.1 1.6zm0 0zm-10-1.6h-.1zm0 0zm0 0zm0 0zm0 0zM86 63.2zm.5-.2zm0 0zm0 0zm0 0zm-.2.1zm0 0zm.1 0zm-.2 0zm0 0zm0 0zm-12.5 4zm12.5-4zm.3-1zm.1-.1zm0 0z" opacity=".1"/><path fill="#231F20" d="M86.5 62.9v.1s.4-.2.2-.4c-.2 0-.6-.1-.3-.5-.3.2-.5.4-.3.6l.4.2z" opacity=".2"/><path fill="#231F20" d="M86.3 63.1zm0 0zm0 0zm0 0zm-.1 0zm.2-1zm-13.2 5zm.1 0zm0 0z" opacity=".1"/><path fill="#231F20" d="M74.2 66.5l1 .1h.3v.1s.4-.1.2-.2h-.5v-.1h-.4s-.3 0-.5-.2c0-.2.3-.2.3-.2l1.1-.2-1.6.3c-.1.2.1.3.1.3z" opacity=".3"/><path fill="#231F20" d="M86 63.2zm0 0zm-12.5 3.9zm0 0zm0 0zm-.1 0zM86 63.2zm0 0zm0 0zm0 0zm0 0zm0 0zm0 0zm1.2-1.6zM86 63.2zm0 0z" opacity=".1"/><linearGradient id="B" x1="148.1" x2="203.3" y1="413.4" y2="400.2" gradientTransform="translate(-98.4 -359.8)" gradientUnits="userSpaceOnUse"><stop offset="0" stop-color="#ededee"/><stop offset=".4" stop-color="#fff"/><stop offset=".6" stop-color="#f8f9f9"/><stop offset=".9" stop-color="#b2b4b6"/></linearGradient><path fill="url(#B)" d="M49.4 53.7z"/><linearGradient id="C" x1="149.5" x2="205.2" y1="419.4" y2="406.2" gradientTransform="translate(-98.4 -359.8)" gradientUnits="userSpaceOnUse"><stop offset="0" stop-color="#ededee"/><stop offset=".4" stop-color="#fff"/><stop offset=".6" stop-color="#f8f9f9"/><stop offset=".9" stop-color="#b2b4b6"/></linearGradient><path fill="url(#C)" d="M97.9 49h.4l2.2-2.1s.8-.7 1.1-1.4c.2-.2.2-.2.2 0V45l-.5.5s-1.2 1.7-3.4 3.4-2.8 2.2-4.7 3.3c0 0-1.4.6-2.3.4-.7-.2 0-.9.1-1.6.2-.6 0-.9 0-1s-.6-.3-1.3 0c0 0-2.8.6-4 1.8-1.2 1.1.2 1.6.6 1.7 0 0 .4.2.4.4s-.3.4-.4.5a14.1 14.1 0 0 1-5 1.6c-2.3.4-1.8.1-4 .4-2.4.2-3 .4-4.8.8-1.8.5-3 1-3.1 1.4-.2.4.2.6.5.8s.9.5.7.8c-.2.3-1 .7-2.9.8-1.9 0-2.6-.2-3-.6-.3-.4 0-.8 0-1.2 0 0 .3-.4.2-.7-.2-.2-.5-.3-.8-.3-.3 0-1.9 0-3.1-.2-1.4 0-3 0-5-.5 0 0-1.3-.3-2.2-.7a1.6 1.6 0 0 1-.3-.2c-.2-.3 0-.5-.1-.7l-.5-.9a14.3 14.3 0 0 0-.6-.6c-.7-.5-.8-.6-1.1-.6-.4 0-.2.5-.1.7l.1.3c0-.2-.2-.4-.1-.5 0-.2.2-.2.2-.2l.3.2c.3.2.9.6 1.2 1 .3.3.3.6.3.6s-.1.4.2.7c.4.4 1 1 3.5 1.4l.1-.3.3.4a31.5 31.5 0 0 0 6.8.4c.7 0 .6.4.6.4l-.1.4c-.1.2-.3.8-.1 1.1 0 0 .3.8 2.5.9 0 0 2 .2 3.3-.4 1.4-.6.2-1.3.2-1.3l-.7-.5c-.2-.1 0-.2 0-.3l.3-.3c.1-.1.7-.4 3.1-1 2.4-.7 3.9-.7 3.9-.7l.2-.4.5.3h1.5l3.4-.6A15 15 0 0 0 86 55c1-.5 1-.9 1-.9s.2-.3-.2-.6-.6-.2-1-.6.4-1 .4-1 .3-.4 2.3-1.2c2-.8 2.3-.5 2.4-.4.1 0 .2.3.1.5l-.4 1.2c-.1.4-.2.8.3 1a4 4 0 0 0 2-.3c1.7-.6 2.2-1.3 5-3.4V49z" opacity=".8"/><linearGradient id="D" x1="148.8" x2="204.4" y1="416.4" y2="403.1" gradientTransform="translate(-98.4 -359.8)" gradientUnits="userSpaceOnUse"><stop offset="0" stop-color="#ededee"/><stop offset=".4" stop-color="#fff"/><stop offset=".6" stop-color="#f8f9f9"/><stop offset=".9" stop-color="#b2b4b6"/></linearGradient><path fill="url(#D)" d="M104 41.7c-.4.7-.7 1.5-.8 2v.2l-.1.6v.3a.2.2 0 0 1 .1.1 2.5 2.5 0 0 1-.3 1v.1c-.3.5-.7.9-1 1-.2 0-.3-.1-.3-.3 0 .2 0 .4.2.6.2.2.9-.5.9-.5s.4-.5.5-1.2c.3-1.1.2-1.3.2-1.3s-.2-.3 0-.5c0-.3.6-1.8 1-2.4l.4-.3-.2-.3-.2.2-.4.7z"/><linearGradient id="E" x1="148.4" x2="204" y1="414.7" y2="401.4" gradientTransform="translate(-98.4 -359.8)" gradientUnits="userSpaceOnUse"><stop offset="0" stop-color="#ededee"/><stop offset=".4" stop-color="#fff"/><stop offset=".6" stop-color="#f8f9f9"/><stop offset=".9" stop-color="#b2b4b6"/></linearGradient><path fill="url(#E)" d="M51.2 55.3a3 3 0 0 1-.3-.2 39.9 39.9 0 0 1-1-1l-.5-.4.1.2v.1c.1.2.5.7 1.3 1.3.9.7.9.5.9.5s0-.3-.2-.5V55s.5.9-.3.2z"/><linearGradient id="F" x1="148.5" x2="203.5" y1="415" y2="401.9" gradientTransform="translate(-98.4 -359.8)" gradientUnits="userSpaceOnUse"><stop offset="0" stop-color="#ededee"/><stop offset=".4" stop-color="#fff"/><stop offset=".6" stop-color="#f8f9f9"/><stop offset=".9" stop-color="#b2b4b6"/></linearGradient><linearGradient id="G" x1="149.1" x2="204.8" y1="417.9" y2="404.7" gradientTransform="translate(-98.4 -359.8)" gradientUnits="userSpaceOnUse"><stop offset="0" stop-color="#ededee"/><stop offset=".4" stop-color="#fff"/><stop offset=".6" stop-color="#f8f9f9"/><stop offset=".9" stop-color="#b2b4b6"/></linearGradient><path fill="url(#G)" d="M101.7 46l.1-.6s-.3.9-.2 1.3V46z"/><path fill="#232323" d="M82 16.4h.4L84 16l1.1-.4a6.3 6.3 0 0 1 2-.3l.3.1.1.2s.5 1 1.8 1.1c1.3.1 1.3-.6 1.2-.8-.2-.3-.6-.5-.6-.5l-.6-.5c-.1-.2 0-.2 0-.2l1.7-.4-.3-.1-.5.2-1 .2-.3.1c-.1.1-.1.3.1.5l.9.6c.1.1.3.4 0 .6a1 1 0 0 1-.5.2H89c-.3 0-.5 0-.7-.2a1.3 1.3 0 0 1-.5-.6l-.3-.4c-.4-.2-1-.2-1.7 0-.6 0-1.5.3-1.7.4l-1.3.4-1 .3-2.6.8-1.1.3-1.3-.1c-.2-.1-.2-.3-.2-.3v-.7s0-.3-.2-.4a2.2 2.2 0 0 0-.9-.1h-1.2c-.2 0-.7.2-1 .6-.4.4-.3.7-.3.7 0 .2.2.4.5.5.6.3-.7.8-.7.8l-1.3.5-2.1.4.4.2S73 19 73.9 18c0 0 .4-.1 0-.5l-.5-.4s-.2-.2 0-.5l.8-.5a5.2 5.2 0 0 1 1.7 0s.3 0 .3.2v.6s0 .3.2.5.6.2.6.2.8.2 1.7-.1l3.2-1 .1-.2z" opacity=".1"/><linearGradient id="H" x1="147.1" x2="199.2" y1="394.1" y2="382.1" gradientTransform="translate(-98.4 -359.8)" gradientUnits="userSpaceOnUse"><stop offset="0" stop-color="#fff"/><stop offset=".7" stop-color="#fff"/><stop offset="1" stop-color="#cbccce"/></linearGradient><path fill="url(#H)" d="M98.6 21.4l.1.3-2.5.9a21.6 21.6 0 0 0 .5.8c.7.7.3 1.3.3 1.3s-.5.8-1.7.6a1.9 1.9 0 0 1-1.7-1.8c0-.2-.2-.2-.2-.2-.6 0-1.7.6-1.7.6l-2 1.2-1.3.5h-.6v.2l-2.6 1c-1.4.4-2.2.4-2.2.4s-.7 0-1.3-.1c-.5-.3-.6-.6-.5-.9l.3-1.1c.1-.3-.4-.4-.4-.4s-1.1-.1-2.1.2c-1 .3-1.5.7-1.5.7-.5.3-.5.5-.5.5s0 .3.3.5l1 .4.5.2c.6.5.2 1 0 1.4-.3.7-2.1 1-2.1 1l-4.6.8-.5-.2-.2.3c-4.1.6-5.9 1.1-6.5 1.3-.5.1-.7.4-.8.5s0 .1 0 .1c.3 0 .5.3.5.3s.8 1 0 1.8-1.7 1-1.7 1-1.2.4-2.3.2c-1.2-.3-1.5-1.1-1.5-1.4 0-.3.1-.7.4-1l.4-.4.3-.2c0-.2-.3-.2-.3-.2h-3.4l-2 .4-.2-.3-.3.4-1.8.3h-1.5s-.8-.3-1-.8c0-.5.3-1 .4-1.3l.3-.5v-.2l-.1-.3s-.2-.2-.6-.2c-.4 0-.5 0-.6.2a1 1 0 0 1 .8-.4h.6c.4.6 0 1.2-.2 1.7l-.2.3v.1c-.2.6.2 1 .4 1s.7.3 2.5 0l2-.5s3.7-.6 5.3-.2.8.2.2.8c-.5.5-1 1-.8 1.4 0 .4.7 1 2 1l.7-.2c1-.2 1.7-.7 1.7-.7s.6-.5.5-1c-.1-.5-.6-.7-.6-.7s-.4-.2 0-.7c0 0 0-.4 1.4-.8a55.7 55.7 0 0 1 6.2-1.1c2-.3 5.6-1 6.4-1.3.7-.3.8-.8.9-1 0-.1 0-.4-.7-.6a2.7 2.7 0 0 1-1.1-.5c-.1 0-.4-.2-.4-.7s1-1 2-1.4c1-.3 2.3-.2 2.3-.2 1.2.1.6 1.2.6 1.2 0 .2-.6 1 .3 1.2.9.3 2.4-.2 3-.4a130.2 130.2 0 0 0 3.3-1l2.2-1 1.2-.8 1-.5c.3 0 1-.2 1.1.4.1.7.4 1.2.8 1.4a2 2 0 0 0 2-.2c.6-.4.1-1 .1-1v-.1a8 8 0 0 0-.7-.9c-.2-.2 0-.4.2-.5l1.4-.4c.7-.2 1-.3 1.2-.6.3-.2 0-.8-.1-.8l.3.1.3.4s.1.3 0 .4a.9.9 0 0 1-.3.3l-.3-.3z"/><path fill="#232323" d="M78.6 67.8h-1.2c-.6 0-1.1.2-1.1.2H77l.7-.1h1.6s-.7.1-.8 0zm-1.8.3s.1.1-1.7.2l2-.1c.6-.1-.3-.1-.3-.1zM52.6 19.6l.1.2.1-.3v.1h-.1c0 .1 0 0 0 0zm-1.4 1.6s-.3.2 0 .3l.3-.3v-.3l-.3.3z" opacity=".1"/><path fill="#6B6B6B" d="M57.3 27.7h1l1.6-.2c1-.1 2-.5 2-.5s1-.4 1.3-.7l-.6-.7s-.2-.3 0-.6.5-.6 1.4-1c.9-.3 1.4-.2 1.4-.2s.3 0 .5.2l.4.6v.4c0 .2-.1.1-.1.1h.2c.2 0 .7 0 1.5-.3l2-.5 3.2-1 .8-.3s.3.4.2.8 0 .1-.4.4c-.4.3-.7.3-1 .3H72c-.5 0-.7.2-.7.2-1.1.6.4 5.5.4 5.5a56 56 0 0 0-6.2 1.1c-1.4.4-1.5.8-1.5.8-.3.5.1.7.1.7s.5.2.6.7c.1.6-.5 1-.5 1s-.6.5-1.7.7c-1 .2-1.4.2-2-.3-.5-.4-.1-1 .2-1.3.4-.3.5-.5.6-.7v-.2l-.3-.3c-1.2-.8-5.8 0-5.8 0-.1-.6-.2-.6-.2-1.8 0-.7.2-1 .2-1v-.1s.3-.8.7-1.4l.8-.2.7-.2z"/><linearGradient id="I" x1="-38.8" x2="-19.9" y1="-678.2" y2="-678.2" gradientTransform="matrix(1 0 0 -1 94 -651.9)" gradientUnits="userSpaceOnUse"><stop offset="0" stop-color="#696969"/><stop offset=".4" stop-color="#2e2e2e"/><stop offset=".5" stop-color="#424242"/><stop offset=".6" stop-color="#303030"/><stop offset=".7" stop-color="#4a4a4a"/><stop offset="1" stop-color="#666"/></linearGradient><path fill="url(#I)" d="M74.1 23.8l-2.2.7h-.4l-.4.2s-1.9.8-3.7 1.1c-1.9.4-1.8-.2-1.6-.5.1-.2.5-.6-.1-.7-.6 0-1 .1-1.3.3-.3 0-1.9.8-.7 1.3 0 0 .8.4-.2 1 0 0-1.1.7-3.2 1l-1 .1a9.5 9.5 0 0 0-4.1 1l.1-.3.1-.3a10.4 10.4 0 0 1 3.4-.8c1.1 0 1.7 0 2.7-.3 1.3-.4 1.6-.6 1.7-.7.2 0 .5-.3.3-.4l-.5-.4c-.1-.2-.2-.2 0-.6.1-.6 1.2-1 1.2-1s.6-.3 1.4-.3c.7 0 .7.5.7.5l-.1.4s-.3.4 0 .4c.2 0 .9.1 3.1-.6l4.8-1.5v.4z" opacity=".5"/><linearGradient id="J" x1="-38.6" x2="-20" y1="-677.8" y2="-677.8" gradientTransform="matrix(1 0 0 -1 94 -651.9)" gradientUnits="userSpaceOnUse"><stop offset="0" stop-color="#525252"/><stop offset=".2" stop-color="#333"/><stop offset=".3" stop-color="#aeaeae"/><stop offset=".4" stop-color="#adadad"/><stop offset=".4" stop-color="#9d9d9d"/><stop offset=".4" stop-color="#818181"/><stop offset=".5" stop-color="#6a6a6a"/><stop offset=".5" stop-color="#585858"/><stop offset=".5" stop-color="#4c4c4c"/><stop offset=".5" stop-color="#444"/><stop offset=".6" stop-color="#424242"/><stop offset=".7" stop-color="#454545"/><stop offset="1" stop-color="#bdbdbd"/></linearGradient><path fill="url(#J)" d="M63.2 26.3c-.3.3-1.2.7-1.2.7s-1.1.4-2.1.5l-1.6.1-.5.1h-.5l-1.5.4-.2.3-.2.3c.7-.3 2.2-.7 3.4-.8 1.1 0 1.7 0 2.7-.3 1.3-.4 1.6-.6 1.7-.7.2 0 .5-.3.3-.4-.2 0-.5-.4-.5-.4-.1-.2-.2-.2 0-.6.1-.6 1.2-1 1.2-1s.6-.3 1.4-.3c.7 0 .7.5.7.5s0 .2-.1.4c0 0-.3.4 0 .4.2 0 .9.1 3.1-.6l4.8-1.5-.2-.4-.8.3-3.2 1-2 .5-1.5.3h-.2V25l.1-.4-.4-.6c-.2-.2-.5-.2-.5-.2s-.5-.1-1.4.3c-1 .3-1.2.6-1.4 1-.2.2 0 .5 0 .5l.6.7"/><linearGradient id="K" x1="-35.5" x2="-36.1" y1="-683.8" y2="-679.8" gradientTransform="matrix(1 0 0 -1 94 -651.9)" gradientUnits="userSpaceOnUse"><stop offset="0" stop-color="#969696"/><stop offset="1"/></linearGradient><path fill="url(#K)" d="M57.6 32.1l.1-.5c.1-.4.5-.4.8-.3.3 0 .5.2.9 0 .3-.3.2-1 0-1.8-.3-.7-.2-1.2-.2-1.2l-.4-.4v.4c0 .8.3 2 .4 2.2.1.3.2.5-.4.3-.6-.1-1 .1-1 .1-.7.5-.6 1.3-.6 1.3h.4z" opacity=".2"/><path fill="#141414" d="M61 35.3c0-1-.5-1.6-.5-1.6l-.3.4.3.9.3.2h.3zm3.4-2.2s-.5.5-.3 1.4l.4-.4v-.6l-.1-.4z" opacity=".5"/><linearGradient id="L" x1="156.6" x2="157" y1="392.2" y2="387.7" gradientTransform="translate(-98.4 -359.8)" gradientUnits="userSpaceOnUse"><stop offset="0" stop-color="#333"/><stop offset=".4"/><stop offset="1" stop-color="#2e2e2e"/></linearGradient><path fill="url(#L)" d="M57.4 32.1c0-.7.3-.8.5-1 .3-.2.8 0 .8 0s.4 0 .6-.1c.2-.2 0-.9-.1-1.2a6.3 6.3 0 0 1-.3-1.4 1.5 1.5 0 0 0 0-.4l-.2.3c0 .8.4 2 .5 2.2.1.3.2.5-.4.3-.6-.1-1 .1-1 .1-.7.5-.5 1.3-.5 1.3h.1z" opacity=".2"/><path fill="#505050" d="M60.3 34s.3.3.5 1.1c.1.2.3.2.3.2-.2-1-.6-1.6-.6-1.6a1 1 0 0 0-.2.2zm4-1s-.4.6-.1 1.5l.1-.2c-.2-.6.2-1 .2-1a.7.7 0 0 0-.1-.2z" opacity=".3"/><path fill="#231F20" d="M55 18.6c0 .3-.4.7-.5 1l-.3.4.6-.1-.3.7.4-.1.4-.8v-.1a.9.9 0 0 0-.5 0c0-.2.4-.7.6-1l.8-1c.1-.3.3-.4.5-.6l.5-.6v-.1l-.6.2v.1c0 .2-.3.4-.4.6l-.7.8-.2.4c-.1 0-.5 0-.7.2 0-.2.5-.8.6-1-.2 0-.4.2-.5.3 0 .2-.2.3-.3.4 0 .2-.1.4-.3.5v.1l1-.3zm20.4 3.2h.6c0-.3-.3-.5-.4-.7 0-.2 0-.3-.2-.4 0-.2.4-.2.6-.2l1.2-.4c.1 0 .4 0 .5-.2l.2.1v1.2a4.4 4.4 0 0 1-1 2.4l.4-.4a3.5 3.5 0 0 0 1.3-2v-1.5l-.8-.3-.3.3c-.2.1-.5 0-.7.2-.2 0-.3-.3-.2-.5-.2-.2-.5-.2-.8-.1l-.1.2h.1c.3 0 .3.4.4.5a6 6 0 0 1-1 .4h-.7c0 .2.2.2.3.2l.6 1.2zm4.6-.4l.1.3.4.8v.1c0 .2.2.2.3.3h.2c0-.5-.3-.9-.5-1.2l-.1-.4v-.2h-.1V21l.2-.3c0-.1 0-.3.2-.4 0-.2-.4-.3-.7-.3a.3.3 0 0 1-.1.1l.1.1c0 .7-.4 1.3-.7 1.7l-.4.5c.2 0 1-.7 1-1zm-27.8 5.8c-.2.1-.5.9-.8.7l-.3-.1c0-.3.4-.7.5-.8l.1-1-.3.1-.5.6h-1c0-.1.5-.6.4-.8-.5 0-1 .7-1.1 1 0 .1 0 .3-.2.4H50.7l.1-.3.6-.6v.3c0 .2-.4.4-.4.6v.2c-.2.5 0 .8.5.8.3-.3.8-.5.8-1zm-2.7-.4c0-.3.2-.6.5-.6v.2l-.3.4h-.2zm50 .1l-.4-.6c-.1-.4-.3-.8-.8-.8-.1 0-.3.1-.3.3-.5 1 .4 2.2.9 2.8l.5.5c0 .8-.7 1-1.5.7a3.5 3.5 0 0 1-1.2-1.1l-.4-.4-.3-.5.2.7c.4 1 1 1.5 1.7 2 .3.3 1 .7 1.4.3 1-.6.5-3 .1-3.9zm-.2 1.1l-.3-.3c-.3-.2-.8-.7-.5-1.1h.1l.6.8c0 .1 0 .4.2.6zM84 32.7v-.3c.1-.4 0-1 .2-1.5.1-.6 0-1.2.6-1.4v-.1l-.1-.1-1 .3h-.5v.2c.3.1.5 0 .6.2v1c0 .6 0 1.4-.2 2v1l-.4-.4-.7-.8-.4-.5.2-1.3c.1-.3.1-.6.3-.8l.4-.3v-.2c-.4 0-.6.2-1 .3-.2 0-.5 0-.7.2v.1c.9 0 .8.4.6 1l-.1.7-.6-.7-.3-.2-.2-.3c0-.3.3-.3.5-.4l-.1-.2-1.8.5v.1h.5l.6.7.8.8.4.5-.2 1.2-.1.6-1-1c-.5-.8-1.1-1.4-1.7-2.1v-.2c.1-.2.3-.3.5-.3v-.2H79c-.5 0-.9.3-1.3.4l-.8.1v.2h.6c.5.2.8.7 1 1l.5.5 1.5 2 .7.7h.1l.4-1.7.2-.8c.2 0 .3.3.4.5.4.4 1 .8 1.2 1.4h.2l.3-2.5zm-36.5 3.9c0 1.4 0 3.7 1 4 .4.1.7-.2.8-.4.5-.7.3-2-.1-2.6-.2 0-.5.5-.6.7l-.2-.1.1-1.6c.6 0 1.2.4 1.8.5v-.4a2.4 2.4 0 0 0-.7-.2c0-.8-.1-1.3-.6-1.5l-.8-.1-.3-.2.1-.6v-.2a1.7 1.7 0 0 0-.3.5c0 .5.2 1 .6 1.1l.7.1.4.4c0 .3-.3.3-.6.2l-1.1-.3-.3-.1-.1.4 1 .3c0 .8-.4 1.8 0 2.5h.2c.4 0 .5-.4.8-.6.2.4 0 1.3-.4 1.4-.2.1-.5 0-.6-.1-.4-.4-.5-1-.6-1.5v-.8c0-.2 0-.7-.2-.8zm55.6 3.9v-1.6l-.1-.9c-.1-.5 0-1.1-.2-1.5a1.5 1.5 0 0 0-.4 0h-.1c0 .3.3.3.4.6v.3l.1 1v.3c0 .2.1.6 0 .8 0 .2-.3.4-.4.6-.5.4-1 1-1.8 1v.1c0 .3.3.3.5.4h.1l.2-.3.4-.4v2.2h.1c.2-.7.2-1.5.1-2.3l.9-1V43l.2-.9v-.4-1.2zM61.5 42l-.5-.5a3.5 3.5 0 0 1-.5-2.6 2 2 0 0 1 1.4-1.4c.4-.1.9 0 1.1.1.7.4 1 1 1.2 1.8.3 1 0 2-.8 2.4l.2 1.4.7-.2 1-.1c.3-.1.7 0 .9-.2l-.2-1v-.3h-.2c0 .7-.5.6-1 .7l-1 .2V42l.5-.3.7-.8.3-.6v-1-.5c-.3-.7-.8-1.2-1.5-1.5l-1-.2c-.3-.1-.9 0-1.1.1-1.1.3-1.9.9-2.2 2-.2.4-.1 1 0 1.4.3.9 1 1.7 2.2 1.8v.2h-.4c-.2.2-1.1.4-1.3.2-.2 0-.2-.2-.3-.4h-.1l.2 1.4 2.5-.4-.4-1.3-.4-.1zm39.7-2.6l.2.4h.1c.8.2 1.1-1.2.8-2 0 0-.3-.4-.5-.3a.4.4 0 0 0-.1-.2 4.6 4.6 0 0 0-.2 0v.3c-.3.3-.6 1.1-.4 1.8zm.2-1.2c0-.2.2-.2.2-.3h.4c.2.5.2 1.2 0 1.5l-.2.1c-.5 0-.6-.9-.4-1.3zm-10.7 9.1c-.3-.2-.3-1-.4-1.4l-.5-2.1-.3-1.5.3-.3.4-.2v-.2c-.3 0-.5.2-.8.3l-1.4.5-.4.2v.2s.6-.2.8 0c.2 0 .2.3.3.4 0 .4-.4 1-.5 1.2L87 46.7l-.5 1-.2-.8c-.2-.8-.3-1.6-.6-2.3 0-.1-.1-.7 0-.8 0-.4.4-.5.7-.6V43l-1.2.5c-.4 0-.7.1-1 .3l-.6.1v.2c.1 0 .6-.2.8 0 .3 0 .3.6.4 1l.7 2.8c.1.3.3 1 .1 1.2 0 .3-.5.4-.8.5v.1c.4 0 .7-.2 1-.3l1.9-.6v-.2l-.9.2a9.5 9.5 0 0 1-.1-.2l-.1-.3c0-.3.4-.9.5-1.1a38 38 0 0 0 1.1-2.3l.5-1.1.1.4.2.9.4 1.8c0 .2.2.6 0 .8 0 .3-.4.4-.7.5v.2l.7-.2a48 48 0 0 1 2-.9v-.1c-.2 0-.6.2-.8.1zm11 2l-.4.1-.8.9-.5.7-.1.3c.2 0 .3 0 .4-.2l1.1-.7.5-.4v-.7a1.3 1.3 0 0 0-.3 0zm-.4.8l-.4.3-.4.3c.1-.3.5-.7.7-.8l.3-.2h.1c0 .2-.1.3-.3.4zm-50 .9l-.2-.9c0-.1 0-.3-.2-.4h.6v-.3l-.7-.2-.5-.8a5.5 5.5 0 0 0-1.2-1.5c-.3-.1-.4-.3-1-.4v.2c-.2.4 0 1.3.3 1.5a.7.7 0 0 1-.3-.1v.4l.4.2.5 1.8.5 1.3c0 .2.3.3.3.6h.1l-.2-.6-.6-1.6-.3-1V49l.3.1.8.3.7.2.3 1c-.4-.2-.4-.6-1-.5a.5.5 0 0 1-.1 0 .8.8 0 0 0 0 .6c.1.4.6 1.2 1 1.3.2 0 .4 0 .4-.2.2.1.2.4.3.6 0 .3.3.8.6.9l-.3-.7-.5-1.5zm-.7-1.9L50 49l-1.5-.6c0-.2-.4-1-.2-1.2h.1c.7 0 1.4.9 1.8 1.4l.4.6zm.4 2l-.2.3h-.2c-.4 0-.4-.3-.6-.6 0-.2.1-.2.2-.3h.1c.4 0 .5.1.7.3v.3zm13.6 3.6c0-.2-.3-.2-.4-.3l.9-.5.6.4v-.5c-.3-.2-.7-.5-1.2-.6 0 .2.2.4.4.4v.1c-.3 0-.5.2-.8.3l-.5.1c0-.3.4-.5.5-.7.4-.5.6-1 1.2-1.3 0-.2-.7-.7-.9-.5v.3a5.1 5.1 0 0 1-.6 1.2c-.2 0-.4-.3-.6-.4l.3-.6c.2-.4.5-.7.9-1 0-.3-.5-.6-.9-.6v.3c0 .4-.2.8-.3 1.1-.1.2-.1.5-.3.6a.7.7 0 0 1-.3 0h-.3c.4.4.8.6 1.4.8-.1.4-.5.6-.7 1l-.2-.1h-.1c0 .3.3.6.6.7l.7-.4c.3.2.3.6.4 1v.6c.1.3.3.4.5.6h.1c.1-.5-.1-1-.3-1.5v-.5zm36.6-4c-.1.2-.3.2-.5.3l-.7.6-.3.3c-.1.1 0 .4-.2.6.2 0 .3-.2.4-.3l.5-.5c.1 0 .3 0 .4-.2 0 .7-.2 1-.4 1.5l-.2.4-.2.1-.4.5-.4.7v.2h.1l.8-.8c.4-.6.6-1.2.9-1.9.2-.4.4-.8.4-1.3a.4.4 0 0 1 0-.1h-.2zm-1.6 3.7c0-.2.2-.3.3-.5a.8.8 0 0 1-.3.5zm-34.6.4c0 .2.4.6.6.8 0 0 .1.2.3.1l.1-.2c0-.3-.8-.6-1-.7zm2.2 1.8h.1l.1-.3.5-.1c.5-.2 1-.2 1.6-.3.2 0 .6.1.8 0h.1c0-.3-.6-.4-.9-.4l-.4.2h-.4l-.2-1c.4 0 .8 0 1-.2v-.2h-1c-.2-.1-.2-.5-.3-.6v-.1c.3 0 .7-.1.8-.3v-.1c-.4-.1-.5 0-.8 0-.1-.2 0-.5-.3-.6l.4-.1.7-.3-.1-.2-.8.1.2-.5.2-.2v-.2L68 51h-.4l.1.3-.2 1-1.2.4-.2-.2c.3-.3.5-1 1-1.2-.1-.2-.7-.8-1-.6v.6a5 5 0 0 1-.5 1.3l-.5.7c.4 0 .5-.5.8-.6l.3.3.1.7.4 1.5v.7c0 .2.3.6.5.7zm.7-1.8l.3 1-.9.2-.2-1 .8-.2zM66.6 53s.6-.2.7-.1c.2.1.2.5.3.7l-.8.3c0-.3 0-.8-.2-.9zm1 .9c.1.2.1.6.3.7-.1.2-.6.2-.8.3l-.2-.8.7-.2zm-4 1.3v.3c-.2.5-.3.6 0 1h.3c0-.4 0-1.1-.3-1.3zm26.4.1c-.6-.1-1.2.2-1.9.2l-.2-.3c-.5 0-1 1.1-.5 1.5.3.2 1 0 1.3 0h.6c.2.1.2.7.1 1l-.2 1.7-.2 1c.4 0 .7-.3.8-.6v-.4c.2-.5.2-1.1.3-1.6l.1-1v-1.2l-.2-.3zm-31.7 7l-.2-.2a11 11 0 0 0-.9-.7l-.8-.5v-.3c-.2-.5-.9-1.1-1.3-1.4l-.8-.3H54l.2.5.6.6.5.4c0-.3-.3-.4-.5-.5l-.4-.6c.6 0 1 .5 1.3.9.2.1.4.2.4.5h-.2c0 .3.4.3.7.5l1.4 1.2.5.5c-.3 0-.6-.2-.8-.3a5.4 5.4 0 0 1-1.2-1v-.2l-.3-.2c0 .3.2.4.3.6l1.6 1.1c.2.1.6.3.9.2 0-.3-.4-.6-.7-.8zm14.3 1.6a8.5 8.5 0 0 0-5-1.6h-.3l-.4.2c0 .6.8 1 1.3 1h.7c.1-.6-.5-.6-.7-.9 1.7 0 3 .4 4 1.2.3.2.6.4.7.7v.4c0 .3-.4.3-.7.4a2.5 2.5 0 0 1-2-.6c0 .1.1.3 0 .4 0 .3-.4.2-.8.3a2.8 2.8 0 0 1-1.7-.4l-.2-.2v-.1l.1-.2c.7 0 1 0 1.4.4l-.3.1a.8.8 0 0 0 .5 0v-.2l-.2-.2c-.4-.3-1.2-.4-1.6-.1 0 .3.1.5.3.6.4.3.7.5 1.2.6h1.2c.3 0 .7-.3.4-.7l.4.3a3 3 0 0 0 1.9.3c.3 0 .7 0 .8-.4l-.1-.5c-.3-.4-.5-.6-.9-.8zm-4.3-1.1l.2.2v.1c-.1.4-1 .1-1.2 0l-.1-.2c0-.3.2-.2.4-.3.3 0 .5 0 .7.2zm21.5.2h-.2l-.6.3c-.2 0-.3.2-.5.3l-.3.3.1.2h.1v-.2l.7-.5c.1 0 .3-.1.4 0 0 .2-.5.9-.7 1 .5 0 .7-1 1-1.2V63zM88 64.6c-.2.2-.5.2-.7.3l.2-.2.1-.2v-.1c-.6-.1-1.8.4-2.1.7l-.3.3v.2c.5 0 1.2-.3 1.3-.6l-.8.1c.1-.2.7-.4 1-.5h.4c0 .2-.3.5-.5.6.3 0 .7-.2 1-.4.2 0 .4 0 .6-.2.2 0 .6-.7.7-.9-.6.1-.6.6-1 1zm-1.9.5v.2l-.5.1h-.1c0-.2.4-.3.6-.3zm-9.6 2.2l-1.7-.2h-.3l-.3.2c.1.2 1 .2 1 0h.1c-.2 0-.7.1-.8 0H76v.1h.4v.1h-1-.6-.4v.2h.3s.7-.2.9-.1h-.3v.1h.2l-.1.2h.9l.5-.1h.2-1.3l.4-.1c.2 0 .6-.2.9 0H77.4a2.8 2.8 0 0 1-.7-.3l-.2-.1zM53 24.6l-.3.5-.4 1c-.1.4-.2.8-.4 1v.1c.3 0 .4-.3.6-.4.3-.4 1-1.3 1-2a.7.7 0 0 1 0-.2 2.2 2.2 0 0 0-.5 0zm0 1l-.2.5-.4.4.2-.5.4-1 .2.1-.1.5zm41.1-7.1l-.6-.8c-.1 0-.6.3-.6.5l-.4-.3c-.4-.3-.7-.7-1.4-.7l-.4.1c-.3.1-.6.4-.7.7-.2.4 0 .9 0 1.1l1 1.5c.3.3.6.7 1 .8.6.2 1-.5 1.1-.8.2-.2.7-.3.9-.6v-.5l-.9-1c0-.2.1-.2.2-.3l.3.4c0 .2.3.2.4.4.2 0 .4 0 .5-.2l-.4-.3zM92.8 21c-.4 0-.6-.2-.8-.4-.6-.6-1-1.3-1.4-2-.1-.2-.5-.6-.3-1h.1l.5.5 1 1.4.7.8.3.4v.3zm.4-1.7c.2.3.4.4.4.9l-.2.1-1.2-1.4-.5-.5-.7-.8-.1-.2c.4 0 .6.2.8.4.6.4 1 1 1.5 1.5z" opacity=".9"/><radialGradient id="M" cx="-26.8" cy="-678.5" r="42.6" gradientTransform="matrix(1 0 0 -1 94 -651.9)" gradientUnits="userSpaceOnUse"><stop offset="0" stop-opacity="0"/><stop offset=".8" stop-opacity=".1"/><stop offset="1" stop-opacity=".4"/></radialGradient><path fill="url(#M)" d="M74.2 23.8c0-.3-.3-.7-.3-.7s-.3-.6-.7-.8c-.5-.1-1 .2-1 .2l-.2.3c-.1.2-.3.4-.7.6h-1a.5.5 0 0 1-.3-.3l-.1-.7-.2-1-.3-1.9s.8 0 2.1-.4c1.4-.4 1.8-.7 1.8-.7s-.2-.1-.3-.4v-.7s0-.3.3-.7a2 2 0 0 1 1-.5l1.2-.1c.5 0 .7 0 1 .2l.1.3v.7s0 .2.2.3c0 0 .3.2 1.3 0l1-.2 2.7-.8 1-.3c.4 0 1.2-.3 1.3-.4l1.8-.5 1.6.1.3.4.5.7c.3 0 .5.2 1.1.1l-.2-.2-.6-.4-.2-.3v-.2l.5-.8.3-.1 1-.2.5-.2.3.1 2.7 2.1.1-.1h.5l.6.4s1 .8 1.2 1.3l.1.4 1.2 1.6s.7 1 1 1.2l-.1-.5.2-.1h.4c2.1 2.9 3.8 6.2 4.8 9.6v.3l.2.3a29.9 29.9 0 0 1 1 9.7l-.3.3.2.3A29.8 29.8 0 0 1 49.5 54v-.3h-.2a29.6 29.6 0 0 1-3.8-11.2l.1-.3-.2-.3a30 30 0 0 1 .3-8.5l.1-.3v-.2a29.6 29.6 0 0 1 3.7-9.9l.4-.2h.3v-.1l1-1.5.4-.3h.1l1-1.1v-.1-.5h.1s1-1.2 1.9-2h.4s.8-.4 1.9-1.4l.3-.5a2.6 2.6 0 0 1 1.3-.7h.5l.3.4.8-.3.6-.2.5.8-.6 1.2s-.4.8-1 1.2c0 0-.2.2-.6.1s-.6.2-.6.2l-.1.1H58.7l.6.8s0 .4-.3 1c-.2.7-.8 1.8-.8 1.8l-.7 1.3c-.2.5-.3 1-.2 1.3l.4-.1c.4-.2.6 0 .6 0l.6.5c.2.2.5 1 .1 2 0 0-.2.5-.8 1h-.9c-.2 0-.3-.1-.8 0-.4 0-.7.4-.7.4l-.7 1.4v.1l-.2 1 .2 1.9s4.6-.9 5.8 0l.3.2v.3s-.2.4-.6.6-.7 1-.2 1.4c.6.4 1 .4 2 .2 1-.1 1.7-.7 1.7-.7s.6-.4.5-1-.6-.7-.6-.7-.4-.2 0-.7c0 0 0-.4 1.4-.8 1.4-.3 4-.9 6.2-1.1 0 0-1.5-4.8-.4-5.5l.7-.2h.9c.2 0 .6 0 1-.3l.4-.4" opacity=".4"/></svg>