<?xml version="1.0" encoding="utf-8"?>
<!-- Generator: Adobe Illustrator 16.0.0, SVG Export Plug-In . SVG Version: 6.00 Build 0)  -->
<!DOCTYPE svg PUBLIC "-//W3C//DTD SVG 1.1//EN" "http://www.w3.org/Graphics/SVG/1.1/DTD/svg11.dtd">
<svg version="1.1" id="Layer_1" xmlns="http://www.w3.org/2000/svg" xmlns:xlink="http://www.w3.org/1999/xlink" x="0px" y="0px"
	 width="150px" height="93.795px" viewBox="0 0 150 93.795" enable-background="new 0 0 150 93.795" xml:space="preserve">
<g>
	<path d="M41.503,43.213c0,0.01,0,0.019,0,0.026l0.027-0.026C41.521,43.213,41.512,43.213,41.503,43.213z"/>
	<path d="M34.234,28.589c0,4.908,0,9.748,0,14.625c2.469,0,4.869,0,7.269,0c0-4.872,0-9.743,0-14.625
		C39.009,28.589,36.618,28.589,34.234,28.589z"/>
	<path d="M63.543,43.159c2.45,0,4.899,0,7.305,0c0-4.926,0-9.767,0-14.581c-2.451,0-4.818,0-7.305,0
		C63.543,33.476,63.543,38.317,63.543,43.159z"/>
	<path d="M63.543,43.192c0-0.011,0-0.022,0-0.033c-0.01,0-0.02,0-0.029,0C63.515,43.159,63.539,43.187,63.543,43.192z"/>
	<path d="M48.829,50.629c0.008,0,0.017,0,0.026,0c0-0.01,0-0.02,0-0.028C48.856,50.599,48.829,50.629,48.829,50.629z"/>
	<path d="M48.854,65.217c2.545,0,4.935,0,7.378,0c0-4.417,0.003-8.76-0.004-13.104c-0.001-0.529-0.056-1.06-0.088-1.589
		c-2.429,0.033-4.857,0.069-7.285,0.104C48.854,55.495,48.854,60.361,48.854,65.217z"/>
	<path d="M56.14,50.503l-0.001-0.002c0,0.008,0.001,0.015,0.001,0.023c0.009-0.001,0.017-0.001,0.026-0.001
		C56.167,50.524,56.139,50.501,56.14,50.503L56.14,50.503z"/>
	<path d="M41.503,43.24c0.009,0,0.018,0,0.027,0c0-0.008,0-0.017,0-0.026L41.503,43.24z"/>
	<path d="M48.83,50.628c-0.001,0.001,0.026-0.029,0.025-0.027c-0.008,0-0.017,0-0.025,0C48.83,50.609,48.83,50.619,48.83,50.628z"/>
	<path d="M41.53,43.24c0,2.425,0,4.849,0,7.362c2.505,0,4.903,0,7.3-0.001c0.001-2.446,0.001-4.892,0.001-7.361
		C46.321,43.24,43.925,43.24,41.53,43.24z"/>
	<path d="M63.515,43.159c0,0.012,0,0.023,0,0.035c0.01,0,0.02,0,0.03,0c0,0-0.001-0.001-0.001-0.001l0,0L63.515,43.159z"/>
	<path d="M56.166,50.523c0-0.008,0-0.014,0-0.021c-0.009,0-0.017,0-0.026,0C56.144,50.505,56.167,50.524,56.166,50.523z"/>
	<path d="M56.166,50.503c2.45,0.001,4.899,0.001,7.349,0.001c0-2.468,0-4.889,0-7.311c-2.418,0.002-4.839,0.002-7.351,0.002
		C56.164,45.761,56.164,48.131,56.166,50.503z"/>
	<path d="M63.543,43.192L63.543,43.192c-0.004-0.005-0.029-0.033-0.029-0.033L63.543,43.192z"/>
	<polygon points="56.14,50.503 56.166,50.523 56.14,50.503 	"/>
	<g>
		<path fill="#E21306" d="M108.533,54.188c0-1.197,0-2.394,0-3.591l0,0C108.533,51.794,108.533,52.99,108.533,54.188z"/>
		<path fill="#E21306" d="M84.807,50.596L84.807,50.596c0,1.205,0,2.41,0.001,3.613C84.807,53.006,84.807,51.801,84.807,50.596z"/>
		<path fill="#E21306" d="M84.848,57.951L84.848,57.951c3.901,0,7.804-0.001,11.705-0.001C92.651,57.95,88.749,57.951,84.848,57.951
			z"/>
		<path fill="#E21306" d="M96.61,50.566c-3.922,0-7.843-0.001-11.764-0.001l0,0C88.768,50.565,92.688,50.566,96.61,50.566z"/>
		<path fill="#E21306" d="M96.61,35.859c-3.922,0-7.843,0-11.764,0l0,0C88.768,35.859,92.688,35.859,96.61,35.859z"/>
		<path fill="#E21306" d="M84.807,35.888L84.807,35.888c0,1.205,0,2.41,0.001,3.615C84.807,38.298,84.807,37.093,84.807,35.888z"/>
		<path fill="#E21306" d="M108.533,39.481c0-1.196,0-2.394,0-3.591l0,0C108.533,37.087,108.533,38.285,108.533,39.481z"/>
		<path fill="#E21306" d="M84.848,43.243L84.848,43.243c3.901,0,7.804,0,11.705,0C92.651,43.243,88.749,43.243,84.848,43.243z"/>
		<path fill="#E21306" d="M84.847,35.859c-0.014,0-0.026,0-0.04,0C84.82,35.859,84.833,35.859,84.847,35.859L84.847,35.859z"/>
		<path fill="#E21306" d="M108.494,35.86c0-2.422,0-4.843,0-7.247c-7.968,0-15.75,0-23.647,0c0,2.451,0,4.849,0,7.246
			c3.921,0,7.842,0,11.764,0C100.571,35.859,104.532,35.859,108.494,35.86z"/>
		<path fill="#E21306" d="M84.808,43.243c0.014,0,0.026,0,0.04,0l0,0C84.834,43.243,84.821,43.243,84.808,43.243z"/>
		<path fill="#E21306" d="M96.553,43.243c-3.901,0-7.804,0-11.705,0c-0.001,2.441-0.001,4.882-0.001,7.322
			c3.921,0,7.842,0.001,11.764,0.001c3.961,0,7.922,0,11.884,0c-0.001-2.441-0.001-4.882-0.001-7.323
			C104.513,43.243,100.533,43.243,96.553,43.243z"/>
		<path fill="#E21306" d="M84.847,50.565c-0.014,0-0.026,0-0.04,0C84.82,50.565,84.833,50.565,84.847,50.565L84.847,50.565z"/>
		<path fill="#E21306" d="M84.808,57.951c0.014,0,0.026,0,0.04,0l0,0C84.834,57.951,84.821,57.951,84.808,57.951z"/>
		<path fill="#E21306" d="M84.848,57.951c0,2.421,0,4.844,0,7.245c7.969,0,15.753,0,23.646,0c0-2.451,0-4.849,0-7.246
			c-3.98,0-7.96,0-11.94,0C92.651,57.95,88.749,57.951,84.848,57.951z"/>
		<path fill="#E21306" d="M84.807,35.859c0,0.01,0,0.021,0,0.029l0,0C84.807,35.879,84.807,35.869,84.807,35.859z"/>
		<path fill="#E21306" d="M84.807,35.888c-2.412,0-4.824,0-7.23,0c0,2.524,0,4.879,0,7.325c2.455,0,4.843,0,7.231,0
			c0-1.237,0-2.474,0-3.71C84.807,38.298,84.807,37.093,84.807,35.888z"/>
		<path fill="#E21306" d="M108.533,43.211c2.412,0,4.824,0,7.232,0c0-2.518,0-4.873,0-7.321c-2.455,0-4.844,0-7.232,0
			c0,1.197,0,2.395,0,3.591C108.533,40.725,108.533,41.968,108.533,43.211z"/>
		<path fill="#E21306" d="M108.533,35.89c0-0.01,0-0.02,0-0.03C108.533,35.871,108.533,35.88,108.533,35.89L108.533,35.89z"/>
		<path fill="#E21306" d="M84.807,50.596c-2.412,0-4.824,0-7.23,0c0,2.523,0,4.879,0,7.324c2.455,0,4.843,0,7.231,0
			c0-1.236,0-2.474,0-3.711C84.807,53.006,84.807,51.801,84.807,50.596z"/>
		<path fill="#E21306" d="M84.807,50.565c0,0.01,0,0.021,0,0.03l0,0C84.807,50.586,84.807,50.575,84.807,50.565z"/>
		<path fill="#E21306" d="M108.533,50.597c0-0.01,0-0.021,0-0.03C108.533,50.576,108.533,50.587,108.533,50.597L108.533,50.597z"/>
		<path fill="#E21306" d="M108.533,57.918c2.412,0,4.824,0,7.232,0c0-2.518,0-4.872,0-7.321c-2.455,0-4.844,0-7.232,0
			c0,1.197,0,2.394,0,3.591C108.533,55.432,108.533,56.675,108.533,57.918z"/>
		<path fill="#E21306" d="M84.808,43.213c0,0.01,0,0.02,0,0.03C84.808,43.233,84.808,43.223,84.808,43.213L84.808,43.213z"/>
		<path fill="#E21306" d="M108.533,35.86c-0.014,0-0.026,0-0.039,0l0,0C108.507,35.86,108.52,35.86,108.533,35.86z"/>
		<path fill="#E21306" d="M108.493,43.243c0.014,0,0.026,0,0.04,0C108.52,43.243,108.507,43.243,108.493,43.243L108.493,43.243z"/>
		<path fill="#E21306" d="M108.533,43.243c0-0.01,0-0.021,0-0.032l0,0C108.533,43.222,108.533,43.233,108.533,43.243z"/>
		<path fill="#E21306" d="M108.494,35.89l0.039-0.03c-0.014,0-0.026,0-0.039,0C108.494,35.871,108.494,35.88,108.494,35.89z"/>
		<path fill="#E21306" d="M84.847,35.859c-0.014,0-0.026,0-0.04,0l0.04,0.029C84.847,35.879,84.847,35.869,84.847,35.859z"/>
		<path fill="#E21306" d="M108.494,35.86L108.494,35.86c-3.962-0.001-7.923-0.001-11.884-0.001
			C100.571,35.859,104.532,35.859,108.494,35.86z"/>
		<path fill="#E21306" d="M108.493,43.243c0.014,0,0.026,0,0.04,0l-0.04-0.032C108.493,43.222,108.493,43.233,108.493,43.243z"/>
		<path fill="#E21306" d="M96.553,43.243c3.98,0,7.96,0,11.94,0l0,0C104.513,43.243,100.533,43.243,96.553,43.243z"/>
		<path fill="#E21306" d="M84.848,43.213l-0.04,0.03c0.014,0,0.026,0,0.04,0C84.848,43.233,84.848,43.223,84.848,43.213z"/>
		<path fill="#E21306" d="M84.808,43.213c0,0.01,0,0.02,0,0.03l0.04-0.03C84.834,43.213,84.821,43.213,84.808,43.213z"/>
		<path fill="#E21306" d="M84.808,39.503c0,1.236,0,2.474,0,3.71l0,0C84.808,41.977,84.808,40.739,84.808,39.503z"/>
		<path fill="#E21306" d="M84.847,35.888l-0.04-0.029c0,0.01,0,0.021,0,0.029C84.82,35.888,84.833,35.888,84.847,35.888z"/>
		<path fill="#E21306" d="M108.533,35.89c0-0.01,0-0.02,0-0.03l-0.039,0.03C108.507,35.89,108.52,35.89,108.533,35.89z"/>
		<path fill="#E21306" d="M108.493,43.211l0.04,0.032c0-0.01,0-0.021,0-0.032C108.52,43.211,108.507,43.211,108.493,43.211z"/>
		<path fill="#E21306" d="M108.533,43.211L108.533,43.211c0-1.244,0-2.487,0-3.73C108.533,40.725,108.533,41.968,108.533,43.211z"/>
		<path fill="#E21306" d="M108.493,57.95c0.014,0,0.026,0,0.04,0C108.52,57.95,108.507,57.95,108.493,57.95L108.493,57.95z"/>
		<path fill="#E21306" d="M84.808,57.92c0,0.01,0,0.021,0,0.031C84.808,57.94,84.808,57.93,84.808,57.92L84.808,57.92z"/>
		<path fill="#E21306" d="M108.533,57.95c0-0.011,0-0.021,0-0.032l0,0C108.533,57.929,108.533,57.939,108.533,57.95z"/>
		<path fill="#E21306" d="M108.533,50.566c-0.014,0-0.026,0-0.039,0l0,0C108.507,50.566,108.52,50.566,108.533,50.566z"/>
		<path fill="#E21306" d="M108.494,50.566L108.494,50.566c-3.962,0-7.923,0-11.884,0C100.571,50.566,104.532,50.566,108.494,50.566z
			"/>
		<path fill="#E21306" d="M84.847,50.565c-0.014,0-0.026,0-0.04,0l0.04,0.03C84.847,50.586,84.847,50.575,84.847,50.565z"/>
		<path fill="#E21306" d="M108.494,50.597l0.039-0.03c-0.014,0-0.026,0-0.039,0C108.494,50.576,108.494,50.587,108.494,50.597z"/>
		<path fill="#E21306" d="M84.848,57.92l-0.04,0.031c0.014,0,0.026,0,0.04,0C84.848,57.94,84.848,57.93,84.848,57.92z"/>
		<path fill="#E21306" d="M96.553,57.95c3.98,0,7.96,0,11.94,0l0,0C104.513,57.95,100.533,57.95,96.553,57.95z"/>
		<path fill="#E21306" d="M108.493,57.95c0.014,0,0.026,0,0.04,0l-0.04-0.032C108.493,57.929,108.493,57.939,108.493,57.95z"/>
		<path fill="#E21306" d="M84.808,54.209c0,1.237,0,2.475,0,3.711l0,0C84.808,56.684,84.808,55.446,84.808,54.209z"/>
		<path fill="#E21306" d="M84.808,57.92c0,0.01,0,0.021,0,0.031l0.04-0.031C84.834,57.92,84.821,57.92,84.808,57.92z"/>
		<path fill="#E21306" d="M84.847,50.596l-0.04-0.03c0,0.01,0,0.021,0,0.03C84.82,50.596,84.833,50.596,84.847,50.596z"/>
		<path fill="#E21306" d="M108.493,57.918l0.04,0.032c0-0.011,0-0.021,0-0.032C108.52,57.918,108.507,57.918,108.493,57.918z"/>
		<path fill="#E21306" d="M108.533,57.918L108.533,57.918c0-1.243,0-2.486,0-3.73C108.533,55.432,108.533,56.675,108.533,57.918z"/>
		<path fill="#E21306" d="M108.533,50.597c0-0.01,0-0.021,0-0.03l-0.039,0.03C108.507,50.597,108.52,50.597,108.533,50.597z"/>
	</g>
</g>
</svg>
