<?xml version="1.0" encoding="utf-8"?>
<!-- Generator: Adobe Illustrator 16.0.0, SVG Export Plug-In . SVG Version: 6.00 Build 0)  -->
<!DOCTYPE svg PUBLIC "-//W3C//DTD SVG 1.1//EN" "http://www.w3.org/Graphics/SVG/1.1/DTD/svg11.dtd">
<svg version="1.1" id="Layer_1" xmlns="http://www.w3.org/2000/svg" xmlns:xlink="http://www.w3.org/1999/xlink" x="0px" y="0px"
	 width="150px" height="93.795px" viewBox="0 0 150 93.795" enable-background="new 0 0 150 93.795" xml:space="preserve">
<g>
	<rect fill="#5115AF" width="150" height="93.795"/>
	<path fill="#FFFFFF" d="M129.701,34.697l-0.001,0.002L129.701,34.697c-0.001,0-0.214-0.03-0.357-0.03
		c-0.823,0-1.639,0.482-1.639,1.716c-0.488,6.188-0.996,12.395-1.832,18.301l-0.003,0.003c0.001,0,0.002,0,0.003,0l0,0h0.004
		c0.505-0.088,0.896,0.045,1.277,0.198l-0.002-0.004c0.949-5.998,3.202-14.982,3.778-17.525c0.083-0.357,0.207-0.78,0.207-1.081
		C131.138,35.368,130.563,34.841,129.701,34.697z"/>
	<path fill="#FFFFFF" d="M70.125,37.139c0.166,3.196,0.255,6.395,0.267,9.596c-3.835,0.089-7.667,0.097-11.494,0l-0.001,0
		c0.012-3.202,0.101-6.4,0.268-9.597c-1.123,0.271-2.264,0.278-3.427,0c0.298,6.866,0.272,13.719,0,20.562
		c1.113-0.269,2.253-0.28,3.423,0l-0.007-0.004l0.011,0.004c-0.169-3.19-0.257-6.379-0.268-9.563h0.001
		c3.832-0.054,7.663-0.056,11.495-0.004c-0.011,3.187-0.099,6.376-0.268,9.567l0.011-0.004l-0.007,0.004
		c1.17-0.28,2.31-0.269,3.423,0c-0.272-6.843-0.299-13.696,0-20.562C72.389,37.417,71.248,37.41,70.125,37.139z"/>
	<path fill="#FFFFFF" d="M45.679,37.132l-0.002,0.001L45.679,37.132c-0.853,0.297-1.548,0.281-2.386,0l-0.004-0.002
		c-2.76,6.925-5.939,14.742-8.799,20.571l0,0l0,0.003l0.013-0.006c-0.004,0.001-0.007,0.002-0.011,0.003l0.022-0.008l-0.011,0.005
		c1.307-0.324,2.555-0.224,3.38,0c-0.002-0.001-0.004-0.003-0.006-0.004l0.004,0.002c0.729-1.842,1.56-3.93,2.39-6.029l0.004,0.003
		c2.81-0.08,5.62-0.091,8.43,0h0c0.799,2.009,1.6,4.021,2.381,6.033v0.001c1.252-0.327,2.499-0.238,3.419-0.006l-0.003-0.002
		C52.442,53.849,48.307,43.782,45.679,37.132z M44.481,40.678c1.137,3.167,2.386,6.358,3.655,9.56l-0.007-0.003
		c-2.43,0.084-4.86,0.085-7.291,0l-0.002,0.001C42.324,46.462,43.736,42.823,44.481,40.678z"/>
	<path fill="#FFFFFF" d="M39.452,34.397c-0.001,0-0.001,0.001-0.002,0.001L39.452,34.397c-1.235,0.28-2.349,0.29-3.455,0
		c-0.974,1.814-4.567,7.687-6.854,11.446c-2.319-3.841-5.065-8.276-6.854-11.446c-1.418,0.303-2.012,0.322-3.427,0
		c2.809,4.233,7.311,12.295,8.842,14.941l-0.206,11.035c0,0,0.988-0.165,1.648-0.165c0.732,0,1.642,0.165,1.642,0.165l-0.206-11.035
		C33.44,44.326,38.157,36.147,39.452,34.397z"/>
	<path fill="#FFFFFF" d="M85.625,36.861c-7.27,0-11.084,4.61-11.084,10.585c0,6.541,4.164,10.53,11.073,10.53
		c7.471,0,11.119-4.496,11.119-10.461C96.733,40.864,92.376,36.861,85.625,36.861z M85.646,56.812c-4.846,0-7.693-3.473-7.693-9.33
		c0-6.625,3.509-9.292,7.494-9.374c0.063-0.001,0.127,0,0.19,0c4.446,0,7.711,3.028,7.711,9.356
		C93.349,53.783,90.088,56.812,85.646,56.812z"/>
	<path fill="#FFFFFF" d="M110.724,35.624c-7.239,0-12.773,4.111-12.773,11.755c0,6.297,3.681,11.84,12.834,11.84
		c7.749,0,12.809-4.261,12.809-11.729C123.593,40.447,118.873,35.624,110.724,35.624z M101.372,47.333
		c0-8.049,4.95-10.431,9.36-10.431c5.438,0,9.441,3.303,9.441,10.587c0,7.919-4.844,10.487-9.433,10.487
		C105.839,57.977,101.372,55.1,101.372,47.333z"/>
	<path fill="#FFFFFF" d="M125.768,57.171c-1.078,0-1.616,0.822-1.616,1.707c0,1.042,0.833,1.576,1.862,1.576
		c0.745,0,1.558-0.452,1.558-1.681C127.571,57.788,126.799,57.171,125.768,57.171z"/>
</g>
</svg>
