<?xml version="1.0" encoding="utf-8"?>
<!-- Generator: Adobe Illustrator 16.0.0, SVG Export Plug-In . SVG Version: 6.00 Build 0)  -->
<!DOCTYPE svg PUBLIC "-//W3C//DTD SVG 1.1//EN" "http://www.w3.org/Graphics/SVG/1.1/DTD/svg11.dtd">
<svg version="1.1" id="Layer_1" xmlns="http://www.w3.org/2000/svg" xmlns:xlink="http://www.w3.org/1999/xlink" x="0px" y="0px"
	 width="150px" height="93.795px" viewBox="0 0 150 93.795" enable-background="new 0 0 150 93.795" xml:space="preserve">
<rect fill="#FFFFFF" width="150" height="93.795"/>
<g>
	<path fill="#D92632" d="M136.572,32.114c0,0-0.727-5.095-2.952-7.34c-2.825-2.944-5.99-2.959-7.44-3.132
		c-10.396-0.749-25.988-0.749-25.988-0.749h-0.031c0,0-15.592,0-25.985,0.749c-1.452,0.172-4.618,0.188-7.443,3.132
		c-2.227,2.245-2.952,7.34-2.952,7.34s-0.744,5.983-0.744,11.967v5.611c0,5.981,0.744,11.967,0.744,11.967s0.725,5.095,2.952,7.339
		c2.825,2.944,6.538,2.853,8.19,3.16c5.941,0.567,25.256,0.741,25.256,0.741s15.606-0.021,26.004-0.77
		c1.449-0.174,4.614-0.188,7.439-3.133c2.229-2.246,2.951-7.341,2.951-7.341s0.742-5.982,0.742-11.968V44.08
		C137.314,38.097,136.572,32.114,136.572,32.114"/>
	<path fill="#010101" d="M59.201,62.981h-4.727v-2.735c-1.792,2.054-3.31,3.09-4.966,3.09c-1.452,0-2.461-0.685-2.966-1.922
		c-0.307-0.753-0.524-1.931-0.524-3.655V37.857h4.725v18.658v1.74c0.11,0.698,0.408,0.953,1.008,0.953
		c0.905,0,1.724-0.786,2.723-2.197V37.857h4.727V62.981z"/>
	<path fill="#010101" d="M42.535,46.067c0-2.685-0.54-4.701-1.493-5.971c-1.258-1.718-3.232-2.422-5.223-2.422
		c-2.252,0-3.967,0.704-5.225,2.422c-0.968,1.27-1.487,3.308-1.487,5.992l-0.004,8.935c0,2.668,0.461,4.515,1.429,5.771
		c1.258,1.713,3.296,2.622,5.287,2.622c1.991,0,4.063-0.909,5.323-2.622c0.954-1.257,1.393-3.104,1.393-5.771V46.067z M37.81,55.519
		c0.248,2.488-0.524,3.724-1.992,3.724c-1.467,0-2.238-1.233-1.989-3.724v-9.95c-0.249-2.488,0.522-3.653,1.99-3.653
		c1.467,0,2.241,1.166,1.993,3.653L37.81,55.519z"/>
	<path fill="#010101" d="M23.879,49.3v13.682h-4.976V49.3c0,0-5.156-16.773-6.218-19.9h5.224L21.4,42.504L24.874,29.4h5.224
		L23.879,49.3z"/>
	<path fill="#FFFFFF" d="M131.1,51.292v-5.086c0-2.656-0.522-4.6-1.467-5.857c-1.262-1.701-3.055-2.602-5.313-2.602
		c-2.299,0-4.092,0.901-5.396,2.602c-0.957,1.257-1.515,3.31-1.515,5.967v8.707c0,2.643,0.612,4.49,1.571,5.735
		c1.302,1.697,3.095,2.546,5.449,2.546c2.354,0,4.199-0.891,5.445-2.695c0.548-0.797,0.9-1.701,1.055-2.697
		c0.041-0.451,0.159-1.479,0.159-2.93v-0.705h-4.729c0,1.808,0.012,2.883-0.03,3.127c-0.259,1.203-0.901,1.807-2.013,1.807
		c-1.547,0-2.199-1.156-2.184-3.45v-4.467L131.1,51.292L131.1,51.292z M122.137,44.813c0-2.326,0.637-2.959,2.141-2.959
		c1.492,0,2.086,0.692,2.086,2.99v2.716l-4.227,0.004V44.813z"/>
	<path fill="#FFFFFF" d="M110.221,37.707c-1.654,0-3.302,1.02-4.756,2.809l0.006-10.867h-4.479v33.333h4.479l0.004-2.504
		c1.508,1.861,3.146,2.824,4.746,2.824c1.795,0,3.104-0.959,3.707-2.807c0.301-1.057,0.496-2.678,0.496-4.977v-9.951
		c0-2.354-0.302-3.964-0.604-4.963C113.221,38.743,112.016,37.707,110.221,37.707 M109.697,55.767c0,2.488-0.586,3.441-1.885,3.441
		c-0.742,0-1.598-0.381-2.35-1.135l0.005-15.086c0.755-0.743,1.603-1.133,2.345-1.133c1.299,0,1.885,0.729,1.885,3.217V55.767z"/>
	<path fill="#FFFFFF" d="M97.259,62.981h-4.724v-2.735c-1.793,2.054-3.311,3.09-4.967,3.09c-1.452,0-2.463-0.685-2.967-1.922
		c-0.31-0.753-0.525-1.931-0.525-3.655V38.107h4.727v18.408v1.74c0.11,0.698,0.406,0.953,1.008,0.953
		c0.904,0,1.726-0.786,2.727-2.197V38.107h4.725L97.259,62.981L97.259,62.981z"/>
	<polygon fill="#FFFFFF" points="79.35,62.981 74.375,62.981 74.375,34.375 69.151,34.375 69.151,29.654 84.822,29.648 
		84.822,34.375 79.35,34.375 	"/>
</g>
</svg>
