<?xml version="1.0" encoding="utf-8"?>
<!-- Generator: Adobe Illustrator 16.0.0, SVG Export Plug-In . SVG Version: 6.00 Build 0)  -->
<!DOCTYPE svg PUBLIC "-//W3C//DTD SVG 1.1//EN" "http://www.w3.org/Graphics/SVG/1.1/DTD/svg11.dtd">
<svg version="1.1" id="Layer_1" xmlns="http://www.w3.org/2000/svg" xmlns:xlink="http://www.w3.org/1999/xlink" x="0px" y="0px"
	 width="150px" height="93.795px" viewBox="0 0 150 93.795" enable-background="new 0 0 150 93.795" xml:space="preserve">
<rect fill="#0180C7" width="150" height="93.795"/>
<g>
	<g>
		<path fill="#FFFFFF" d="M76.97,39.752c-1.181,0.23-1.9,1.065-2.592,1.958c-3.598-3.138-7.572-3.34-11.487-1.008
			c-4.722,2.765-6.478,7.255-5.874,12.523c0.577,4.866,2.678,8.868,7.803,10.538c3.195,1.036,6.161,0.662,8.781-1.468
			c0.691-0.548,0.892-0.433,1.382,0.173c0.951,1.237,2.591,1.669,4.032,1.122c1.41-0.432,2.388-1.757,2.388-3.254
			c0.058-5.758,0.088-11.516,0-17.274C81.375,40.76,79.244,39.292,76.97,39.752z M72.968,55.702c-0.288,0.374-0.605,0.691-0.95,0.95
			c-2.102,1.555-5.067,1.123-6.622-0.95c-0.749-1.008-1.152-2.217-1.209-3.483c-0.029-4.06,2.188-6.507,5.355-6.306
			c1.354,0.029,2.62,0.691,3.426,1.813C74.58,49.915,74.58,53.515,72.968,55.702z"/>
		<path fill="#FFFFFF" d="M105.875,39.263c-6.909,0.202-11.774,5.729-11.545,13.129c-0.115,7.197,5.845,12.639,13.359,11.89
			c6.881-0.69,11.344-5.845,11.113-13.128C118.572,43.955,113.217,39.032,105.875,39.263z M110.252,55.789
			c-0.26,0.287-0.52,0.575-0.836,0.806c-2.072,1.612-5.038,1.209-6.622-0.864c-0.863-1.181-1.295-2.591-1.237-4.03
			c0-3.599,2.188-5.959,5.298-5.787c1.353,0.029,2.619,0.72,3.426,1.813C111.922,49.915,111.922,53.6,110.252,55.789z"/>
	</g>
	<path fill="#FFFFFF" d="M91.797,33.159c0-2.303-1.469-3.742-3.656-3.713c-2.132,0-3.542,1.439-3.57,3.656
		c-0.029,1.354,0,2.678,0,4.031v22.889c0,1.813,1.094,3.34,2.533,3.715c0.345,0.086,0.72,0.114,1.064,0.114
		c2.045-0.058,3.657-1.756,3.629-3.8c0.028-4.463,0-8.926,0-13.388C91.797,42.17,91.825,37.65,91.797,33.159z"/>
	<path fill="#FFFFFF" d="M40.981,56.854c4.348,0,8.436-0.029,12.495,0c2.274,0.028,3.512,0.979,3.743,2.792
		c0.259,2.274-1.065,3.801-3.541,3.829c-4.665,0.058-9.299,0.028-13.964,0.028c-1.353,0-2.677,0.058-4.031-0.028
		c-1.669-0.086-3.311-0.433-4.117-2.159c-0.806-1.728-0.23-3.282,0.864-4.692c4.434-5.643,8.896-11.315,13.359-16.958
		c0.259-0.346,0.518-0.691,0.777-1.008c-0.288-0.49-0.691-0.259-1.037-0.288c-3.109-0.029-6.248,0-9.357-0.029
		c-0.719,0-1.439-0.086-2.13-0.23c-1.641-0.374-2.648-2.015-2.274-3.627c0.259-1.095,1.123-1.987,2.217-2.247
		c0.691-0.172,1.411-0.259,2.13-0.259c5.125-0.029,10.278-0.029,15.403,0c0.921-0.029,1.814,0.087,2.707,0.317
		c1.958,0.662,2.792,2.476,2.015,4.376c-0.691,1.641-1.785,3.052-2.879,4.462c-3.771,4.808-7.543,9.588-11.315,14.338
		C41.729,55.846,41.442,56.221,40.981,56.854L40.981,56.854z"/>
</g>
</svg>
