<svg xmlns="http://www.w3.org/2000/svg" width="24" height="24" viewBox="0 0 24 24">
    <defs>
        <style>
            .cls-1{fill:#fff}.cls-2{clip-path:url(#clip-path)}
        </style>
        <clipPath id="clip-path">
            <path id="Rectangle_5" d="M0 0h24v24H0z" class="cls-1" data-name="Rectangle 5"/>
        </clipPath>
    </defs>
    <g id="Mask_Group_1" class="cls-2" data-name="Mask Group 1">
        <g id="facebook-logo_1_" data-name="facebook-logo (1)" transform="translate(5.512)">
            <path id="Path_1" d="M19.837 0h-3.113c-3.5 0-5.756 2.318-5.756 5.906V8.63H7.839a.489.489 0 0 0-.489.49v3.946a.489.489 0 0 0 .489.489h3.129v9.956a.489.489 0 0 0 .489.489h4.083a.489.489 0 0 0 .489-.489v-9.957h3.659a.489.489 0 0 0 .489-.489V9.119a.49.49 0 0 0-.49-.49H16.03V6.321c0-1.11.264-1.673 1.71-1.673h2.1a.489.489 0 0 0 .489-.489V.494A.49.49 0 0 0 19.837 0z" class="cls-1" data-name="Path 1" transform="translate(-7.35)"/>
        </g>
    </g>
</svg>
