<svg xmlns="http://www.w3.org/2000/svg" width="24" height="24" viewBox="0 0 24 24">
    <defs>
        <style>
            .cls-1{fill:#fff}.cls-2{clip-path:url(#clip-path)}
        </style>
        <clipPath id="clip-path">
            <path id="Rectangle_6" d="M0 0h24v24H0z" class="cls-1" data-name="Rectangle 6"/>
        </clipPath>
    </defs>
    <g id="Mask_Group_2" class="cls-2" data-name="Mask Group 2">
        <g id="search">
            <path id="Path_2" d="M5.319 14.5l-.835 3.119-3.053.065a12.021 12.021 0 0 1-.089-11.203l2.718.5 1.191 2.7a7.162 7.162 0 0 0 .068 4.819z" class="cls-1" data-name="Path 2"/>
            <path id="Path_3" d="M23.79 9.758a12 12 0 0 1-4.278 11.6l-3.424-.175-.488-3.025a7.152 7.152 0 0 0 3.077-3.652h-6.413V9.758H23.79z" class="cls-1" data-name="Path 3"/>
            <path id="Path_4" d="M19.512 21.357a12 12 0 0 1-18.082-3.67L5.319 14.5A7.137 7.137 0 0 0 15.6 18.158z" class="cls-1" data-name="Path 4"/>
            <path id="Path_5" d="M19.66 2.763l-3.888 3.182a7.136 7.136 0 0 0-10.52 3.737l-3.909-3.2A12 12 0 0 1 19.66 2.763z" class="cls-1" data-name="Path 5"/>
        </g>
    </g>
</svg>
