<svg width="60" height="60" viewBox="0 0 60 60" fill="none" xmlns="http://www.w3.org/2000/svg">
<g clip-path="url(#clip0)">
<path d="M60 0H0V59.9995H60V0Z" fill="#7D7D7D"/>
<path d="M14 16H16.7867V43H14V16Z" fill="white"/>
<path d="M35.2299 16C38.594 16 41.23 16.8229 43.138 18.4686C45.046 20.1143 46 22.3771 46 25.2571C46 28.1371 45.046 30.4 43.138 32.0457C41.23 33.6657 38.594 34.4757 35.2299 34.4757H28.1502V43H25.3635V16H35.2299ZM35.1546 31.9686C37.7655 31.9686 39.7614 31.39 41.1421 30.2329C42.5229 29.05 43.2133 27.3914 43.2133 25.2571C43.2133 23.0714 42.5229 21.4 41.1421 20.2429C39.7614 19.06 37.7655 18.4686 35.1546 18.4686H28.1502V31.9686H35.1546Z" fill="white"/>
</g>
<defs>
<clipPath id="clip0">
<rect width="60" height="59.9995" fill="white"/>
</clipPath>
</defs>
</svg>
