<svg width="60" height="60" viewBox="0 0 60 60" fill="none" xmlns="http://www.w3.org/2000/svg">
<g clip-path="url(#clip0)">
<path d="M59.9989 0H0V59.9995H59.9989V0Z" fill="#78B43D"/>
<path d="M50.7004 28.9391C49.3703 21.4308 45.1547 16.2789 38.0257 13.5546C36.2409 12.8715 34.3682 12.5284 32.4532 12.5097C31.8475 12.5035 31.6098 12.3196 31.6708 11.684C31.7339 11.0339 31.6326 10.3673 31.6987 9.7183C31.7669 9.05687 31.4755 8.97006 30.9226 9.00726C28.9528 9.13748 27.0305 9.47853 25.165 10.1524C17.7229 12.8477 12.7032 19.7721 12.5069 27.6855C12.4955 28.1774 12.3188 28.2663 11.8909 28.2518C11.1055 28.226 10.3159 28.2715 9.5294 28.2343C9.07363 28.2125 8.97648 28.3903 9.00439 28.7985C9.07777 29.9994 9.19042 31.1942 9.46119 32.3682C11.4817 41.096 18.7181 47.053 27.7653 47.4261C28.1353 47.4416 28.2603 47.5398 28.2479 47.9118C28.2262 48.72 28.2613 49.5303 28.2334 50.3385C28.219 50.7601 28.3358 50.9338 28.7781 50.8873C29.4943 50.8108 30.2208 50.8108 30.9308 50.7074C39.8519 49.3959 46.5375 42.2886 47.3643 33.2735C47.4119 32.7599 47.201 32.0272 47.5576 31.7894C47.9327 31.5383 48.6055 31.7326 49.1491 31.7326C49.1491 31.7171 49.1491 31.7037 49.1491 31.6882C49.5439 31.6882 49.9387 31.6572 50.3294 31.6954C50.8224 31.746 50.9298 31.5259 50.8854 31.0929C50.811 30.3746 50.8244 29.645 50.7004 28.9391ZM32.51 42.7992C25.5464 44.2884 18.3554 39.429 17.14 32.4137C15.8605 25.0346 20.5195 18.35 27.8945 17.0643C30.5908 16.5941 33.2045 16.9899 35.6611 18.2435C36.2161 18.4905 36.7452 18.782 37.2258 19.1561C40.4327 21.3171 42.3405 24.3308 42.849 28.1402C43.7853 35.1462 39.3796 41.3306 32.51 42.7992Z" fill="white"/>
<path d="M35.489 18.9076C33.9553 21.5771 32.4092 24.2404 30.8683 26.9079C30.3619 27.7843 29.4958 27.7998 28.9749 26.9285C27.9652 25.2419 27.003 23.5273 26.0099 21.8314C25.5913 21.1152 25.2327 20.9343 24.7955 21.1792C24.3521 21.4273 24.3356 21.8221 24.7593 22.5497C25.7246 24.2136 26.6692 25.8868 27.6562 27.5342C27.9414 28.0116 27.99 28.3971 27.7492 28.9252C27.3286 29.8471 27.4485 30.7772 28.1109 31.5689C28.731 32.3078 29.5754 32.4887 30.49 32.3151C31.9844 32.035 32.804 30.4135 32.1519 28.9521C31.8987 28.3847 31.9245 27.9331 32.2304 27.4163C33.7021 24.9391 35.1056 22.4184 36.5752 19.9391C36.7447 19.6507 36.8325 19.2725 37.2222 19.1577C36.7426 18.7836 36.2124 18.4922 35.6575 18.2452C35.7866 18.5129 35.6047 18.7051 35.489 18.9076Z" fill="white"/>
<path d="M29.0952 26.8221C28.0607 25.028 27.0303 23.2307 25.9875 21.4408C25.5576 20.7049 24.7246 20.6481 24.3649 21.3136C24.1479 21.7126 24.2936 22.067 24.5003 22.4205C25.5514 24.2322 26.5973 26.046 27.6452 27.8577C27.7847 28.1016 27.8953 28.2855 27.7072 28.6142C27.0334 29.7944 27.299 31.1958 28.2808 31.9854C29.2606 32.7729 30.7126 32.7585 31.6603 31.9482C32.6328 31.1173 32.853 29.751 32.174 28.5666C32.0417 28.332 31.991 28.1749 32.1378 27.9238C33.8399 25.0063 35.5307 22.0815 37.2267 19.1567C36.836 19.2704 36.7492 19.6497 36.5797 19.9381C35.1091 22.4174 33.7066 24.936 32.2349 27.4143C31.928 27.931 31.9011 28.3837 32.1554 28.9501C32.8075 30.4135 31.9879 32.034 30.4935 32.3151C29.5789 32.4866 28.7355 32.3068 28.1155 31.5658C27.453 30.7762 27.3331 29.8451 27.7537 28.9232C27.9935 28.3951 27.946 28.0096 27.6607 27.5321C26.6737 25.8837 25.7281 24.2105 24.7639 22.5476C24.3391 21.818 24.3577 21.4252 24.799 21.1762C25.2372 20.9323 25.5958 21.1121 26.0133 21.8293C27.0045 23.5274 27.9687 25.2398 28.9774 26.9265C29.4993 27.7967 30.3643 27.7822 30.8718 26.9058C32.4127 24.2384 33.9578 21.5761 35.4925 18.9066C35.6082 18.7041 35.7901 18.5119 35.662 18.2462C34.0229 21.1018 32.3848 23.9552 30.7436 26.8076C30.2847 27.6065 29.553 27.6127 29.0952 26.8221Z" fill="white"/>
</g>
<defs>
<clipPath id="clip0">
<rect width="60" height="59.9995" fill="white"/>
</clipPath>
</defs>
</svg>
