<svg width="60" height="60" viewBox="0 0 60 60" fill="none" xmlns="http://www.w3.org/2000/svg">
<g clip-path="url(#clip0)">
<path d="M60 0H0V60.0013H60V0Z" fill="#ECEBE8"/>
<path d="M47.8684 27.556C45.0881 27.5724 42.9119 28.0956 41.9163 28.4351V28.3375C43.392 27.3039 44.5218 25.2569 44.7574 23.4544C46.3256 11.4474 32.017 10.6241 28.1967 12.8357C24.047 15.2374 22.4839 19.3402 23.5049 22.6754C17.1435 21.4784 12.5961 21.2238 9.1811 24.8516C8.49962 25.5761 7.77887 27.0974 7.86627 28.1209C7.94607 29.0418 8.00181 28.8581 8.87709 28.8189C10.1514 28.7619 11.5143 28.7251 12.781 28.8151C15.6222 29.0177 17.9973 30.3541 19.5046 32.695C20.8106 34.7255 21.4858 37.2044 22.1432 39.4768C22.9551 42.2851 24.2421 44.8463 26.9566 46.2308C29.1898 47.3671 39.7325 51.4027 40.4482 42.6448C40.5647 41.2249 39.7958 40.1456 38.6545 39.5098H39.0358C39.3398 39.6466 39.6514 39.8011 39.9706 39.9835C41.9872 41.1235 43.5465 41.5403 45.9215 41.5403C48.5119 41.5403 50.7578 40.1228 52.2423 37.8871C53.5863 35.8592 53.9574 27.523 47.8684 27.556Z" fill="#F85353"/>
<path d="M52.9095 29.6229C51.8772 27.7115 50.1443 26.7007 47.863 26.7007C46.6622 26.707 45.4171 26.8235 44.296 27.0021C44.9674 25.9672 45.45 24.7614 45.6045 23.5631C46.3443 17.9073 43.7248 14.8697 41.3966 13.3168C38.3704 11.3015 34.863 11 33.0402 11C30.9172 11 28.945 11.4079 27.7631 12.0919C24.3469 14.0705 22.3189 17.279 22.3379 20.6763C22.3392 20.9929 22.3658 21.302 22.4038 21.6073C20.3505 21.2475 18.548 21.0157 16.8341 21.0157C13.2709 21.0157 10.6413 22.0468 8.55501 24.2623C7.72533 25.1439 6.89818 26.8983 7.01091 28.1941C7.07678 28.9604 7.23258 29.7091 8.32067 29.7091C8.40301 29.7091 8.49168 29.7053 8.63861 29.6926C8.71841 29.6863 8.81088 29.6787 8.91602 29.6736C10.1472 29.6204 11.6242 29.59 12.7199 29.6685C15.3382 29.8547 17.4345 31.0606 18.7823 33.1557C19.954 34.976 20.5962 37.2016 21.2156 39.3549L21.3182 39.7096C22.044 42.224 23.2981 45.3249 26.5661 46.9893C27.924 47.6834 31.3251 48.997 34.4728 48.997C35.9599 48.997 37.2329 48.7082 38.2539 48.1382C40.0665 47.1261 41.0913 45.3008 41.3016 42.7117C41.3345 42.3101 41.3028 41.9238 41.2268 41.5526C42.6886 42.1569 44.0756 42.3937 45.9199 42.3937C48.6915 42.3937 51.254 40.9231 52.9539 38.3593C53.9812 36.8152 54.4878 32.5427 52.9095 29.6229ZM45.9212 40.6786C43.726 40.6786 42.2782 40.2999 40.3933 39.2333C38.7251 38.2909 37.2824 37.9096 35.7357 38.0325C34.925 38.0629 34.1283 38.2352 33.4202 38.548C33.4025 38.5544 33.3885 38.5582 33.3708 38.5645L33.0744 38.6722L33.0845 38.6988L33.0098 38.733L33.3683 39.4917L33.6545 40.2872L33.7318 40.2606L33.7445 40.286L33.9864 40.1707C34.6654 39.93 35.267 39.7881 35.8409 39.7349C36.8175 39.702 37.8068 39.9389 38.525 40.4367C39.0621 40.8066 39.684 41.4766 39.5966 42.5736C39.4319 44.5598 38.6998 45.9278 37.4192 46.6422C36.6528 47.0716 35.6635 47.2895 34.483 47.2895C31.5658 47.2895 28.342 45.9734 27.3464 45.4667C25.2538 44.3989 23.9023 42.4799 22.9662 39.2371L22.8623 38.8825C22.2074 36.6113 21.531 34.2616 20.2238 32.231C18.5961 29.7027 15.974 28.1852 12.8402 27.9598C11.6736 27.8762 10.1244 27.9066 8.83875 27.9623C8.79568 27.9636 8.75641 27.9661 8.71588 27.9686C8.69941 27.2187 9.28083 25.9964 9.80397 25.4403C11.59 23.5441 13.6649 22.7346 16.7442 22.7346C18.3238 22.7346 20.2339 22.9538 22.8623 23.4326C23.5033 25.0996 24.7168 26.5107 26.4179 27.4708C27.6935 28.1916 29.4124 28.6222 31.0135 28.6222C32.4816 28.6222 34.5868 28.2612 36.2766 26.5436C37.3647 25.4352 37.6231 23.5998 36.9036 22.081C36.2741 20.7447 35.0074 19.9935 33.5849 20.1202L33.2682 20.1481L33.4227 21.8619L33.7394 21.8315C34.6958 21.7327 35.167 22.4205 35.3532 22.817C35.7053 23.5618 35.7167 24.6689 35.0555 25.3428C33.7723 26.6449 32.1472 26.9198 31.0097 26.9198C29.7063 26.9198 28.3053 26.5689 27.2628 25.9799C25.2374 24.8374 24.0695 22.9031 24.0555 20.6725C24.0391 17.8997 25.7478 15.2485 28.6258 13.5828C29.5593 13.0419 31.1984 12.7202 33.0098 12.7202C35.7965 12.7202 38.5072 13.4612 40.4453 14.7519C43.2434 16.6165 44.4062 19.5084 43.9034 23.3465C43.6525 25.2756 42.3251 27.2985 40.881 27.9522L40.5922 28.0826L40.6492 28.2068C40.6226 28.2359 40.5859 28.2663 40.5694 28.2954L40.5276 28.3714L40.5466 29.1061L40.5935 29.1808C40.6644 29.2911 40.8684 29.5203 41.2686 29.5723L41.3016 29.647L41.4181 29.5938C41.4194 29.5938 41.4194 29.5938 41.4194 29.5938L41.7373 29.5811L41.731 29.4367C41.7601 29.4215 41.7905 29.4013 41.8196 29.3861L41.826 29.3962C42.0983 29.229 44.5418 28.4386 47.901 28.4196C49.4958 28.4196 50.6726 29.101 51.3984 30.4425C52.7246 32.8999 52.1369 36.4935 51.525 37.4156C50.1482 39.4867 48.1062 40.6786 45.9212 40.6786Z" fill="black"/>
</g>
<defs>
<clipPath id="clip0">
<rect width="60" height="59.9995" fill="white"/>
</clipPath>
</defs>
</svg>
