<svg width="60" height="60" viewBox="0 0 60 60" fill="none" xmlns="http://www.w3.org/2000/svg">
<g clip-path="url(#clip0)">
<rect width="60" height="60" fill="#ECEBE8"/>
<path d="M47.285 18.8875C45.2616 19.7018 43.1629 19.3089 40.9359 19.5247C46.7048 26.5781 46.2122 36.062 40.0158 41.5969C33.9313 47.0299 25.3024 46.7999 19.6698 41.0473C13.8602 35.1277 13.5568 25.3058 19.5355 19.3842C24.0688 14.8997 28.8199 10.3664 36.6021 9.8392C23.5762 6.42344 11.7146 13.7639 9.41436 25.8839C6.99605 38.5821 15.397 49.8187 28.4677 51.378C29.5955 51.3739 30.7191 51.3739 31.8469 51.3699C32.2153 51.3231 32.5838 51.2905 32.9522 51.2274C47.5089 48.7256 55.458 33.8351 49.1578 20.8091C48.7588 19.9888 48.5654 18.3725 47.285 18.8875Z" fill="#50A5B0"/>
<path d="M36.9621 22.6248C35.93 23.6894 34.8674 24.7235 33.815 25.7738C30.2039 29.3626 30.21 29.3545 26.6212 25.837C26.0492 25.2772 25.6319 24.4853 24.3474 24.2553C24.2069 24.469 23.9342 24.8476 23.698 25.2487C23.3011 25.9163 23.8548 26.2665 24.2273 26.639C25.8558 28.2919 27.5006 29.9184 29.1372 31.5611C29.6909 32.1209 30.2079 32.6095 30.9835 31.8237C33.5239 29.2507 36.0868 26.698 38.6537 24.1515C39.2522 23.555 39.1443 23.0624 38.5906 22.4985C37.9616 21.8695 37.4914 22.0751 36.9621 22.6248Z" fill="#54A8B2"/>
<path d="M40.3823 11.4809C35.8185 10.6239 31.7737 11.5359 27.9732 14.0295C27.7269 14.2534 27.4806 14.4794 27.2343 14.7054C27.9814 14.801 27.9814 14.801 29.162 14.4875C31.3015 14.3959 33.4409 14.4631 35.4806 15.1308C37.6709 15.8514 39.7635 16.916 41.9844 17.5084C46.5238 18.7196 50.2856 15.4972 50.1309 10.5405C47.0164 12.5232 43.6271 12.0855 40.3823 11.4809Z" fill="#DF5636"/>
</g>
<defs>
<clipPath id="clip0">
<rect width="60" height="59.9995" fill="white"/>
</clipPath>
</defs>
</svg>
