<svg width="60" height="60" viewBox="0 0 60 60" fill="none" xmlns="http://www.w3.org/2000/svg">
<g clip-path="url(#clip0)">
<path d="M60 0H0V60H60V0Z" fill="#7A4EF0"/>
<path d="M30 10C18.9538 10 10 18.9538 10 30C10 41.0462 18.9538 50 30 50C41.0462 50 50 41.0462 50 30C50 18.9538 41.0462 10 30 10ZM38.3523 19.8492C40.56 18.5738 43.3831 19.3308 44.6569 21.5385C45.9308 23.7462 45.1754 26.5692 42.9662 27.8431C40.7585 29.1185 37.9354 28.3615 36.6615 26.1538C35.3877 23.9446 36.1431 21.1231 38.3523 19.8492ZM15.3446 21.5385C16.62 19.3308 19.4415 18.5738 21.6508 19.8492C23.8569 21.1231 24.6138 23.9462 23.34 26.1538C22.0661 28.3615 19.2415 29.1185 17.0354 27.8431C14.8262 26.5692 14.0692 23.7462 15.3446 21.5385ZM21.6477 40.1508C19.44 41.4262 16.6169 40.6692 15.3431 38.4615C14.0692 36.2538 14.8246 33.4308 17.0338 32.1569C19.2415 30.8815 22.0646 31.6385 23.3385 33.8462C24.6123 36.0538 23.8569 38.8769 21.6477 40.1508ZM30 46.9231C27.4523 46.9231 25.3846 44.8569 25.3846 42.3077C25.3846 39.7585 27.4523 37.6923 30 37.6923C32.5477 37.6923 34.6154 39.7585 34.6154 42.3077C34.6154 44.8569 32.5477 46.9231 30 46.9231ZM30 22.3077C27.4523 22.3077 25.3846 20.2415 25.3846 17.6923C25.3846 15.1431 27.4523 13.0769 30 13.0769C32.5477 13.0769 34.6154 15.1431 34.6154 17.6923C34.6154 20.2415 32.5477 22.3077 30 22.3077ZM44.6554 38.4615C43.38 40.6692 40.5585 41.4262 38.3492 40.1508C36.1415 38.8769 35.3862 36.0538 36.66 33.8462C37.9339 31.6385 40.7569 30.8815 42.9646 32.1569C45.1738 33.4308 45.9292 36.2538 44.6554 38.4615Z" fill="white"/>
</g>
<defs>
<clipPath id="clip0">
<rect width="60" height="59.9995" fill="white"/>
</clipPath>
</defs>
</svg>
