<svg width="60" height="60" viewBox="0 0 60 60" fill="none" xmlns="http://www.w3.org/2000/svg">
<g clip-path="url(#clip0)">
<path d="M60 0H0V60H60V0Z" fill="#C92025"/>
<path d="M45.3282 8.568C44.3482 8.324 43.1622 8.162 41.8012 8.086C40.9152 8.028 39.6112 8 37.9172 8H24.7112L15.5352 51.205H31.0172C31.7522 51.187 32.4012 51.168 32.9622 51.148C34.3282 51.091 35.5502 50.957 36.5852 50.75C39.1092 50.279 41.5712 49.18 43.9112 47.482C46.9792 45.275 48.9622 42.14 49.8062 38.166C50.8622 33.242 49.3002 30.08 45.0342 28.499L43.8792 28.07L44.9792 27.517C48.6452 25.675 50.9172 22.802 51.7342 18.976C52.3232 16.201 51.9882 13.885 50.7392 12.092C49.5142 10.323 47.6952 9.138 45.3282 8.568ZM40.1642 37.687C39.8242 39.351 38.9622 40.601 37.6032 41.396C36.5102 42.029 35.1032 42.347 33.4192 42.347H27.1482L29.1012 33.214H35.2002C36.8742 33.214 38.1032 33.468 38.9572 33.995C39.7632 34.521 40.6132 35.58 40.1642 37.687ZM41.6262 20.864C41.0602 23.491 39.1152 24.822 35.8442 24.822H30.8902L32.5782 16.858H37.3642C38.8542 16.858 39.9212 17.1 40.6242 17.599C41.2932 18.041 42.0252 18.976 41.6262 20.864Z" fill="white"/>
<path d="M17.176 8L8 51.205H13.894L23.071 8H17.176Z" fill="white"/>
</g>
<defs>
<clipPath id="clip0">
<rect width="60" height="59.9995" fill="white"/>
</clipPath>
</defs>
</svg>
