<svg width="60" height="60" viewBox="0 0 60 60" fill="none" xmlns="http://www.w3.org/2000/svg">
<g clip-path="url(#clip0)">
<path d="M60 0H0V60H60V0Z" fill="#EC1D25"/>
<path d="M51.0385 28.6863C50.7045 27.8793 50.2385 27.2473 49.6435 26.7903C49.4095 26.6023 49.1625 26.4473 48.9015 26.3263C48.6835 26.2323 48.4665 26.1573 48.2485 26.1043C47.9705 26.0343 47.7925 25.9983 47.6945 25.9913C47.7695 25.9673 47.8915 25.9203 48.0725 25.8413C48.4415 25.6673 48.7805 25.4373 49.0915 25.1553C49.5265 24.7383 49.8665 24.2343 50.1095 23.6423C50.4205 22.8893 50.5755 22.0083 50.5755 21.0003C50.5755 19.8843 50.2985 18.9623 49.7455 18.2363C49.2845 17.6173 48.6305 17.1473 47.7845 16.8243C47.1315 16.5693 46.3645 16.4013 45.4835 16.3203C45.1565 16.2933 44.8085 16.2733 44.4405 16.2603H32.5995C34.3755 16.8273 35.3405 17.6203 35.5075 18.6653C35.8385 20.7393 32.6915 22.6383 32.3315 22.8483C31.9395 23.0803 31.6125 23.4263 31.3425 23.8603C31.3575 24.7063 31.3685 25.5823 31.3685 26.5063C31.3685 32.3013 31.1795 36.6653 30.8025 39.5973H43.9885C44.7425 39.5973 45.5095 39.4963 46.2885 39.2953C47.2355 39.0393 48.0775 38.6683 48.8155 38.1853C49.6865 37.5933 50.3645 36.8613 50.8505 35.9883C51.4045 34.9793 51.6805 33.8023 51.6805 32.4583C51.6805 30.9523 51.4665 29.6943 51.0385 28.6863ZM35.1195 20.9713C35.1195 19.8293 36.0075 18.9013 37.0975 18.9013C38.0655 18.9013 38.8695 19.6353 39.0385 20.5983H40.5565C40.9325 20.5983 41.2475 20.6113 41.4985 20.6393C41.8505 20.6933 42.1475 20.7803 42.3915 20.9013C43.0035 21.2113 43.3095 21.7963 43.3095 22.6563C43.3095 24.2833 42.2835 25.0973 40.2305 25.0973H37.6775L37.6905 22.9373C37.5015 23.0003 37.3065 23.0433 37.0975 23.0433C36.0075 23.0423 35.1195 22.1123 35.1195 20.9713ZM43.7485 34.3133C43.1865 34.9173 42.3455 35.2213 41.2225 35.2213H37.6525V29.5133H41.1975C43.3435 29.4723 44.4245 30.4133 44.4405 32.3363C44.4575 33.1443 44.2275 33.8033 43.7485 34.3133Z" fill="white"/>
<path d="M38.5165 20.9713C38.5165 20.8413 38.4955 20.7183 38.4675 20.5973C38.3105 19.9443 37.7585 19.4583 37.0975 19.4583C36.3145 19.4583 35.6785 20.1353 35.6785 20.9703C35.6785 21.8053 36.3145 22.4823 37.0975 22.4823C37.3115 22.4823 37.5115 22.4273 37.6935 22.3373C38.1775 22.0993 38.5165 21.5793 38.5165 20.9713Z" fill="white"/>
<path d="M30.2355 37.0193C30.2355 37.0193 28.2275 26.3633 31.3205 22.9713C31.5395 22.7333 31.7795 22.5283 32.0495 22.3673C32.0495 22.3673 39.2365 18.1813 31.0715 16.4373L30.8195 16.3713L30.5465 16.2993C31.2845 15.7673 31.7705 14.9053 31.7705 13.9253C31.7705 12.3063 30.4575 10.9943 28.8395 10.9943C27.2215 10.9943 25.9085 12.3063 25.9085 13.9253C25.9085 14.3663 26.0135 14.7803 26.1875 15.1543L25.4895 14.9713L11.9545 10.9243C11.9545 10.9243 7.69849 8.27332 8.39549 10.9243L11.9545 12.0413L13.4885 12.8783L16.5595 13.9243C16.5595 13.9243 21.4435 16.0873 20.6755 20.0643C20.6755 20.0643 15.8855 29.6233 20.7585 32.6233C20.7585 32.6233 21.3745 34.3683 17.8165 32.6233C17.8165 32.6233 12.9855 35.4143 14.5975 35.6943C14.5975 35.6943 21.5145 33.2523 24.3745 39.2523C24.3745 39.2523 31.0045 46.3693 29.8175 49.9973C29.8175 49.9973 32.7485 51.1843 32.7485 48.4633C32.7485 48.4633 28.0735 40.7873 27.9335 38.7643C27.9325 38.7643 30.6555 39.1833 30.2355 37.0193Z" fill="white"/>
</g>
<defs>
<clipPath id="clip0">
<rect width="60" height="59.9995" fill="white"/>
</clipPath>
</defs>
</svg>
