<svg width="60" height="60" viewBox="0 0 60 60" fill="none" xmlns="http://www.w3.org/2000/svg">
<g clip-path="url(#clip0)">
<rect width="60" height="60" fill="#424242"/>
<path d="M22.4954 9.50095C22.4762 9.50574 22.4498 9.51531 22.433 9.52489C16.8659 11.6466 12.4447 15.8062 9.99199 21.2517C7.52247 26.7428 7.34265 32.8684 9.48849 38.496C11.6367 44.1403 15.8661 48.5968 21.3829 51.049C26.8278 53.4773 32.8769 53.6401 38.4273 51.5304C38.4585 51.516 38.4897 51.5064 38.5232 51.4968C44.1168 49.3368 48.5571 45.0982 51.0194 39.564C53.4721 34.0514 53.652 27.9904 51.5301 22.4898C47.0059 10.7725 34.2531 5.06596 22.4954 9.50095Z" fill="url(#paint0_radial)"/>
<path d="M51.6157 29.2148C51.6157 29.2103 51.6157 29.199 51.6203 29.1922H51.6157C51.5001 27.0294 51.058 24.8825 50.2578 22.8172C49.2625 20.2282 47.8388 17.9567 46.1 16.0342H46.1068C46.0614 15.9889 46.0229 15.9412 45.9708 15.8959C40.2601 9.69098 31.2644 7.32192 22.8038 10.5185C22.7856 10.523 22.7607 10.5321 22.7448 10.5411C17.9976 12.3502 14.1436 15.7327 11.7338 20.1534L11.7066 20.1625C11.7111 20.167 11.7156 20.1716 11.7156 20.1784C11.4594 20.6544 11.2101 21.1419 10.9811 21.6429C8.64604 26.8412 8.47601 32.6403 10.505 37.9679C12.5363 43.3114 16.5354 47.5303 21.7519 49.8518C26.9003 52.1506 32.6201 52.3047 37.8683 50.3075C37.8978 50.2939 37.9273 50.2848 37.959 50.2757C43.248 48.2309 47.4466 44.2182 49.7749 38.979C51.1714 35.8414 51.7835 32.5089 51.6157 29.2148ZM37.8683 50.0354C37.8389 50.0536 37.8116 50.0626 37.7799 50.0762C34.0143 51.5113 30.0085 51.8173 26.1499 51.0148C25.4766 50.2576 25.0686 49.0221 24.9257 48.1764L24.6809 48.2172C24.8169 49.0107 25.1751 50.1352 25.7623 50.9354C24.436 50.6339 23.128 50.1964 21.8539 49.6296C19.5392 48.5981 17.4717 47.1903 15.7102 45.4719C16.4311 45.8164 17.3084 46.1044 18.0792 46.0908L18.0747 45.8391C17.0613 45.8572 15.8439 45.3245 15.1003 44.8552C13.2277 42.8693 11.7406 40.5138 10.7385 37.8818C10.1083 36.2336 9.69341 34.5379 9.49165 32.8308C9.64127 31.7675 11.1647 30.5977 11.1829 30.5841L11.0355 30.3824C10.9811 30.4254 9.89291 31.262 9.43724 32.2141C9.11985 28.6685 9.70928 25.082 11.2101 21.7426C11.4073 21.3119 11.6227 20.888 11.8403 20.4753C12.0307 20.8948 12.3436 21.525 12.4864 21.6928L12.6723 21.5273C12.5431 21.3799 12.16 20.6068 11.9922 20.192C14.3794 15.8619 18.1722 12.5497 22.831 10.7769C22.8514 10.7701 22.8763 10.761 22.8899 10.7542C28.2832 8.72296 34.0393 8.87258 39.1016 11.1827C41.0853 12.0895 42.8944 13.2956 44.4768 14.7465C42.2709 13.2593 38.7049 11.4638 36.796 11.0807L36.7484 11.321C39.1537 11.8107 44.0846 14.5697 45.6964 15.9458C47.5396 17.9294 49.0086 20.2826 50.022 22.9124C50.8109 24.9528 51.253 27.0815 51.3641 29.2216C51.3301 32.0486 49.9517 36.814 49.063 38.5437L49.2875 38.6571C50.0174 37.2311 50.9039 34.2885 51.3391 31.763C51.1646 34.1729 50.5661 36.5805 49.5436 38.8838C47.2426 44.0549 43.0961 48.02 37.8683 50.0354Z" fill="#8C8C8C"/>
<path d="M14.7187 32.7647L14.4738 32.7874C14.7187 35.4511 17.1036 40.4432 18.8651 41.9893L19.0306 41.8034C17.3031 40.28 14.968 35.3854 14.7187 32.7647Z" fill="#8C8C8C"/>
<path d="M24.5257 12.915L24.4192 12.686C21.2385 14.1505 18.6201 16.5921 16.6432 19.9541L16.8586 20.0811C18.8105 16.7644 21.3881 14.3545 24.5257 12.915Z" fill="#8C8C8C"/>
<path d="M46.3064 23.8052C44.8305 24.5397 43.1597 25.3672 42.3459 25.9884L42.4955 26.1879C43.2867 25.5826 44.9507 24.7551 46.4175 24.0319C47.0795 23.7009 47.7052 23.3881 48.1699 23.1387L48.0498 22.9188C47.5986 23.1682 46.9684 23.481 46.3064 23.8052Z" fill="#8C8C8C"/>
<path d="M40.8539 34.9265C42.1733 36.5271 43.9461 39.209 44.6421 41.0385L44.8779 40.9524C44.1705 39.0979 42.375 36.3842 41.0443 34.7701L40.8539 34.9265Z" fill="#8C8C8C"/>
<path d="M30.6024 48.3907L30.5321 48.6288C32.6178 49.2273 36.3969 49.0572 39.53 47.867C40.0038 47.6857 40.455 47.4862 40.8925 47.264L40.7701 47.0373C37.6098 48.6968 32.9578 49.0731 30.6024 48.3907Z" fill="#8C8C8C"/>
<path d="M31.9063 35.9395C31.1219 37.7055 28.1657 41.9766 26.8214 43.4366L27.0072 43.6089C28.3879 42.1013 31.326 37.8619 32.1353 36.0438L31.9063 35.9395Z" fill="#8C8C8C"/>
<path d="M28.2634 27.3346C26.2662 26.8835 22.5618 26.3167 19.1454 26.1558L19.1363 26.3983C22.5391 26.5684 26.2208 27.1238 28.2068 27.5749L28.2634 27.3346Z" fill="#8C8C8C"/>
<path d="M35.0468 21.1665C34.5072 18.6206 33.5505 15.2314 32.6278 13.3837L32.4056 13.4994C33.3147 15.3266 34.2692 18.6864 34.8064 21.2164L35.0468 21.1665Z" fill="#8C8C8C"/>
<path d="M12.4345 21.2203L17.2588 19.384C17.2588 19.384 17.71 22.8299 19.1382 26.2758C17.2271 28.2799 15.393 31.3087 14.7311 33.0906L10.8612 30.7827C10.8567 30.785 9.55312 26.7292 12.4345 21.2203Z" fill="#21693D"/>
<path d="M33.7905 9.52315C33.7905 9.52315 36.4294 10.3597 37.445 11.3957C36.0462 11.7562 33.9243 12.8761 32.5981 13.8691C29.6305 12.7038 25.8876 12.8126 24.0105 13.0665L24.7359 10.0151C24.7359 10.0128 29.3244 8.54378 33.7905 9.52315Z" fill="#21693D"/>
<path d="M17.8413 46.0494C17.8413 46.0494 17.6509 43.3924 18.8524 41.6332C21.1421 42.8098 24.1754 43.3289 27.3108 43.0705C28.3763 45.4577 30.0131 47.294 31.1081 48.5522C31.1081 48.5522 27.3493 50.2888 25.9097 50.3455C23.917 49.8558 20.5323 48.6248 17.8413 46.0494Z" fill="#21693D"/>
<path d="M42.5237 47.7125C42.5237 47.7125 41.4173 47.6671 40.3495 47.2477C41.9705 46.2117 44.2511 42.267 44.6343 40.6506C46.6837 39.9796 48.3681 39.2314 49.352 38.0843L49.6966 38.9866C49.6966 38.9889 47.1462 44.8356 42.5237 47.7125Z" fill="#21693D"/>
<path d="M42.7157 25.9733C43.0376 29.5348 42.09 32.2689 41.199 35.1616C38.202 35.7102 33.8719 36.2271 32.0152 35.9936C30.6255 32.6611 28.9773 29.4305 28.2292 27.4559L34.9238 21.1943C34.9261 21.1966 42.1534 24.9576 42.7157 25.9733Z" fill="#21693D"/>
<path d="M49.8817 22.2041C50.8906 24.8316 51.1354 26.3868 51.3553 28.2389C50.3918 25.9288 49.0248 23.7502 47.8368 23.1336C48.0069 20.3677 46.1139 16.176 46.1139 16.176C46.1139 16.176 48.6122 18.8715 49.8817 22.2041Z" fill="#21693D"/>
</g>
<defs>
<radialGradient id="paint0_radial" cx="0" cy="0" r="1" gradientUnits="userSpaceOnUse" gradientTransform="translate(33.8328 23.1616) rotate(-20.8389) scale(30.329 30.3017)">
<stop stop-color="white"/>
<stop offset="0.2693" stop-color="#FDFDFD"/>
<stop offset="0.4233" stop-color="#F4F4F4"/>
<stop offset="0.5482" stop-color="#E6E6E6"/>
<stop offset="0.6577" stop-color="#D3D3D3"/>
<stop offset="0.7569" stop-color="#B9B9B9"/>
<stop offset="0.8487" stop-color="#999999"/>
<stop offset="0.9332" stop-color="#747474"/>
<stop offset="1" stop-color="#525252"/>
</radialGradient>
<clipPath id="clip0">
<rect width="60" height="59.9995" fill="white"/>
</clipPath>
</defs>
</svg>
