<svg width="60" height="60" viewBox="0 0 60 60" fill="none" xmlns="http://www.w3.org/2000/svg">
<g clip-path="url(#clip0)">
<rect width="60" height="59.9995" fill="#3F51B5"/>
<rect width="60" height="60" fill="#4267B2"/>
<path d="M35.758 29.882C37.506 30.262 38.8487 31.022 39.786 32.162C40.7487 33.2767 41.23 34.7207 41.23 36.494C41.23 38.774 40.3813 40.5347 38.684 41.776C37.012 42.992 34.5293 43.6 31.236 43.6H19V17H30.476C33.44 17 35.7327 17.5953 37.354 18.786C39.0007 19.9767 39.824 21.6613 39.824 23.84C39.824 25.3093 39.4567 26.5633 38.722 27.602C38.0127 28.6153 37.0247 29.3753 35.758 29.882ZM21.812 19.318V28.97H30.286C32.4393 28.97 34.0987 28.5647 35.264 27.754C36.4293 26.918 37.012 25.7147 37.012 24.144C37.012 22.5733 36.4293 21.3827 35.264 20.572C34.0987 19.736 32.4393 19.318 30.286 19.318H21.812ZM31.198 41.282C33.5793 41.282 35.378 40.8767 36.594 40.066C37.81 39.2553 38.418 37.9887 38.418 36.266C38.418 32.9473 36.0113 31.288 31.198 31.288H21.812V41.282H31.198Z" fill="white"/>
</g>
<defs>
<clipPath id="clip0">
<rect width="60" height="59.9995" fill="white"/>
</clipPath>
</defs>
</svg>
