<svg width="60" height="60" viewBox="0 0 60 60" fill="none" xmlns="http://www.w3.org/2000/svg">
<g clip-path="url(#clip0)">
<path d="M59.9989 0H0V59.9995H59.9989V0Z" fill="#F15B38"/>
<path d="M35.758 29.8816C37.506 30.2616 38.8486 31.0216 39.786 32.1616C40.7486 33.2763 41.23 34.7203 41.23 36.4936C41.23 38.7736 40.3813 40.5343 38.684 41.7756C37.012 42.9916 34.5293 43.5996 31.236 43.5996H19V16.9996H30.476C33.44 16.9996 35.7326 17.5949 37.354 18.7856C39.0006 19.9763 39.824 21.6609 39.824 23.8396C39.824 25.3089 39.4566 26.5629 38.722 27.6016C38.0126 28.6149 37.0246 29.3749 35.758 29.8816ZM21.812 19.3176V28.9696H30.286C32.4393 28.9696 34.0986 28.5643 35.264 27.7536C36.4293 26.9176 37.012 25.7143 37.012 24.1436C37.012 22.5729 36.4293 21.3823 35.264 20.5716C34.0986 19.7356 32.4393 19.3176 30.286 19.3176H21.812ZM31.198 41.2816C33.5793 41.2816 35.378 40.8763 36.594 40.0656C37.81 39.2549 38.418 37.9883 38.418 36.2656C38.418 32.9469 36.0113 31.2876 31.198 31.2876H21.812V41.2816H31.198Z" fill="white"/>
</g>
<defs>
<clipPath id="clip0">
<rect width="60" height="59.9995" fill="white"/>
</clipPath>
</defs>
</svg>
