<svg width="60" height="60" viewBox="0 0 60 60" fill="none" xmlns="http://www.w3.org/2000/svg">
<g clip-path="url(#clip0)">
<path d="M60 0H0V60H60V0Z" fill="#F7B905"/>
<path fill-rule="evenodd" clip-rule="evenodd" d="M32.0629 17.2479C34.3549 17.3769 35.3809 19.1299 36.7629 20.3339C37.0199 20.5599 36.9769 20.9129 36.6849 21.1429C35.9989 21.6839 35.1169 22.4549 34.3769 21.9849C32.2959 20.6619 30.3699 21.1209 28.3369 21.9579C27.4259 22.3339 26.6859 21.6739 25.9469 21.2479C25.4449 20.9579 25.2429 20.4939 25.8509 20.1989C27.9489 19.1839 29.7999 17.6149 32.0629 17.2479Z" fill="#FEFEFD"/>
<path d="M43.1639 16.0659C42.5029 15.6679 41.9989 15.8119 41.5739 16.4589C40.7989 17.6399 39.9789 18.7929 39.1969 19.9699C38.5099 21.0039 39.2269 21.4329 40.0489 21.6149C41.1759 21.8649 44.5529 18.7129 44.4819 17.5649C44.4759 16.6839 43.7629 16.4259 43.1639 16.0659Z" fill="#FEFEFD"/>
<path d="M20.5899 23.7469C15.6939 23.7419 10.7979 23.7159 5.90188 23.7689C3.76088 23.7919 4.69388 24.7249 5.46788 25.5449C6.18688 26.7279 6.66388 28.3709 8.42988 28.1349C10.8289 27.8139 10.4389 29.1949 10.1659 30.5949C9.41188 34.4639 8.60888 38.3239 7.91988 42.2059C7.83288 42.6989 7.09788 43.5509 8.34388 43.9029C11.2089 44.7139 13.0759 43.5569 13.6289 40.5649C14.2739 37.0769 14.8999 33.5839 15.6399 30.1129C15.7909 29.4029 15.5539 28.0739 16.8799 28.2119C19.7699 28.5139 20.5149 26.2999 21.5929 24.4299C21.5689 23.7499 21.0529 23.7479 20.5899 23.7469Z" fill="#FEFEFD"/>
<path d="M54.0629 23.7879C49.5609 23.8009 45.0599 23.7819 40.5589 23.8049C39.9129 23.8069 38.9579 23.6299 39.3719 24.8759C40.2969 26.2309 40.5609 28.3389 42.8719 28.1599C44.4109 28.0409 44.4779 28.6459 44.1989 29.9679C43.2869 34.2829 42.5269 38.6299 41.7109 42.9649C42.6659 44.4059 44.2279 43.1999 45.3749 43.8039C46.7419 43.5109 47.1849 42.5429 47.4179 41.2699C48.1259 37.3989 48.9899 33.5549 49.6429 29.6749C49.8519 28.4339 50.3769 27.9749 51.4939 28.1889C53.8339 28.6369 54.7749 27.3409 55.2159 25.3479C55.7379 24.1549 55.1979 23.7849 54.0629 23.7879Z" fill="#FEFEFD"/>
<path fill-rule="evenodd" clip-rule="evenodd" d="M41.7119 42.9639C42.7859 43.8839 44.2879 42.9359 45.3759 43.8029C44.1519 43.5289 42.5599 44.8759 41.7119 42.9639Z" fill="#FEFEFD"/>
<path d="M33.9779 23.6149C31.7839 23.2729 29.5899 23.2859 27.3959 23.6049C23.8349 24.1799 21.7559 26.4049 20.7889 29.7269C20.2039 31.7329 19.8339 33.8009 19.3679 35.8419C19.1669 37.4079 19.0359 38.9729 19.4439 40.5299C20.1189 42.8359 21.9569 43.5099 24.0559 43.8169C26.2579 44.0549 28.4589 44.0829 30.6599 43.7999C33.9209 43.4869 35.9219 41.6239 37.0139 38.6389C38.0149 35.9029 38.7149 33.0929 38.8349 30.1749C39.0019 26.0939 38.0059 24.7939 33.9779 23.6149ZM34.7899 30.3999C32.7909 33.0249 30.7569 35.6249 28.7389 38.2349C27.8389 39.3979 26.6579 40.2359 25.3219 39.2909C23.8529 38.2519 22.5379 36.7279 22.7429 34.8229C22.8889 33.4729 24.2579 33.0799 25.1829 34.2169C26.4029 35.7129 26.9809 34.9059 27.8219 33.9219C29.5079 31.9519 31.2589 30.0349 33.0249 28.1349C33.4939 27.6309 34.0759 27.1349 34.8809 27.5789C35.3329 27.8279 35.5519 28.2169 35.5889 28.9629C35.3929 29.3269 35.1599 29.9159 34.7899 30.3999Z" fill="#FEFEFD"/>
</g>
<defs>
<clipPath id="clip0">
<rect width="60" height="59.9995" fill="white"/>
</clipPath>
</defs>
</svg>
