<svg width="60" height="60" viewBox="0 0 60 60" fill="none" xmlns="http://www.w3.org/2000/svg">
<g clip-path="url(#clip0)">
<path d="M60 0H0V60.0013H60V0Z" fill="#ECEBE8"/>
<path d="M29.4993 49.0147C40.2675 49.0147 48.9969 40.2817 48.9969 29.509C48.9969 18.7363 40.2675 10.0033 29.4993 10.0033C18.7311 10.0033 10.0017 18.7363 10.0017 29.509C10.0017 40.2817 18.7311 49.0147 29.4993 49.0147Z" fill="#36A851"/>
<path d="M29.4979 10.0013C22.8087 10.0013 16.9073 13.3716 13.396 18.5066L21.0641 31.8334L28.8034 21.1047H47.0976C43.9587 14.5378 37.258 10.0013 29.4979 10.0013Z" fill="#EA4736"/>
<path d="M47.1034 21.1039H28.8092L37.0897 33.8692L27.7356 48.9312C28.3178 48.9843 28.9067 49.0119 29.5037 49.0119C40.2723 49.0119 49.0006 40.2787 49.0006 29.5076C49.0013 26.4985 48.3216 23.6475 47.1034 21.1039Z" fill="#F7BB17"/>
<path d="M29.4963 38.2176C34.3045 38.2176 38.2023 34.3181 38.2023 29.5079C38.2023 24.6977 34.3045 20.7982 29.4963 20.7982C24.688 20.7982 20.7902 24.6977 20.7902 29.5079C20.7902 34.3181 24.688 38.2176 29.4963 38.2176Z" fill="#F7FCFD"/>
<path d="M29.5015 36.5366C33.3815 36.5366 36.5268 33.3899 36.5268 29.5083C36.5268 25.6267 33.3815 22.48 29.5015 22.48C25.6215 22.48 22.4761 25.6267 22.4761 29.5083C22.4761 33.3899 25.6215 36.5366 29.5015 36.5366Z" fill="#4285F4"/>
</g>
<defs>
<clipPath id="clip0">
<rect width="60" height="59.9995" fill="white"/>
</clipPath>
</defs>
</svg>
