<svg width="60" height="60" viewBox="0 0 60 60" fill="none" xmlns="http://www.w3.org/2000/svg">
<path d="M59.9989 0H0V60H59.9989V0Z" fill="#ECEBE8"/>
<path d="M35.3761 11.1142C34.9887 10.7021 34.4585 10.4537 33.894 10.4199L33.9827 10.4865C33.4613 10.5141 32.9663 10.7249 32.5851 11.0818C32.2039 11.4387 31.9609 11.9184 31.8991 12.4369C31.7965 14.1515 31.7133 15.8565 31.6303 17.5585C31.5876 18.4306 31.5452 19.3018 31.5001 20.1731C31.4877 20.2859 31.499 20.4004 31.5333 20.5089C31.5527 20.5703 31.5793 20.6288 31.6121 20.6837C31.6374 20.7259 31.6665 20.766 31.6991 20.803C31.7741 20.8885 31.8661 20.9573 31.9693 21.0054C32.0724 21.0533 32.1843 21.0793 32.2981 21.0817C32.4815 21.0655 32.6546 20.9895 32.7907 20.8653C32.8592 20.8028 32.9166 20.7297 32.9609 20.6493C33.0044 20.5703 33.0353 20.4846 33.0516 20.3947L35.8004 13.4567C35.9219 13.2004 35.9825 12.9198 35.9776 12.6365C35.9787 12.071 35.7634 11.5263 35.3761 11.1142Z" fill="#F08021"/>
<path d="M46.5501 20.1055C46.3843 20.0652 46.2143 20.043 46.0427 20.0397V20.0175C45.601 20.0192 45.1721 20.1672 44.8236 20.4388L38.7057 25.0715C38.5306 25.1892 38.406 25.3686 38.3568 25.5737C38.3075 25.7791 38.3372 25.9953 38.4397 26.1798C38.4853 26.2723 38.5492 26.3543 38.6271 26.4206C38.6569 26.4461 38.6887 26.4693 38.7222 26.4899C38.844 26.5646 38.9843 26.603 39.1269 26.6008C39.2516 26.6219 39.3789 26.6219 39.5037 26.6008L46.7077 24.2514C47.1666 24.0971 47.5622 23.7968 47.8344 23.3966C48.1066 22.9964 48.2403 22.518 48.215 22.0347C48.1974 21.6635 48.0786 21.3042 47.8716 20.9954C47.6645 20.687 47.377 20.4407 47.0402 20.2835C46.8836 20.2059 46.719 20.1463 46.5501 20.1055Z" fill="#F08021"/>
<path d="M28.2001 11.2861C28.1559 10.4881 27.8899 10.2 27.3136 10.2V10.2665H26.8037C21.8899 11.032 17.4516 13.6396 14.3906 17.5593C12.5824 19.7792 11.2839 22.3689 10.5869 25.1459C9.88973 27.9229 9.81113 30.819 10.3564 33.6298C11.0377 37.6791 13.004 41.4018 15.9645 44.2473C17.8132 46.1029 20.0154 47.5692 22.4406 48.559C24.8659 49.5488 27.465 50.0423 30.0844 50.0104H30.6385C32.4213 49.9866 34.191 49.703 35.8919 49.1681C38.5722 48.3645 41.0511 47.0002 43.1644 45.1659C45.2776 43.3316 46.9769 41.069 48.1497 38.5285C49.7049 35.2666 50.3192 31.6356 49.9232 28.0439C49.9261 27.9527 49.9106 27.862 49.877 27.7774C49.8436 27.6924 49.7931 27.6155 49.7287 27.5511C49.6642 27.4865 49.5872 27.4362 49.5025 27.4026C49.4177 27.3693 49.3271 27.3536 49.236 27.3566H49.0143L39.9262 29.2407C39.7416 29.2631 39.5733 29.3568 39.4572 29.5018C39.3412 29.6468 39.2868 29.8316 39.3054 30.0167C39.3275 30.4226 39.3275 30.8295 39.3054 31.2357C39.0042 33.4645 37.9025 35.5077 36.2058 36.9842C34.5092 38.4605 32.3334 39.2693 30.0844 39.2599H29.9292C29.2327 39.2496 28.5403 39.153 27.8677 38.9717C25.7911 38.467 23.9528 37.2602 22.6641 35.5556C21.3756 33.8509 20.7158 31.753 20.7967 29.6176C20.8687 27.4391 21.727 25.3605 23.2127 23.7657C24.5271 22.2691 26.2936 21.2417 28.2445 20.8399C28.316 20.8334 28.3858 20.816 28.4518 20.789C28.4721 20.7806 28.492 20.7714 28.5114 20.7611C28.5944 20.7176 28.6678 20.658 28.7276 20.5858C28.7722 20.5322 28.8084 20.4721 28.8353 20.408C28.8445 20.3861 28.8527 20.3636 28.8597 20.3409C28.8872 20.2513 28.8965 20.1572 28.8873 20.0638V19.5762L28.5549 15.7193C28.5186 15.3267 28.4757 14.9308 28.4326 14.532C28.3174 13.4673 28.2001 12.3828 28.2001 11.2861Z" fill="#62B35D"/>
<path d="M34.567 25.5115C33.378 24.3228 31.7656 23.6547 30.0842 23.6547C28.4028 23.6547 26.7904 24.3228 25.6015 25.5115C24.4127 26.7004 23.7447 28.3128 23.7447 29.9942C23.7447 31.6757 24.4127 33.2881 25.6015 34.477C26.7904 35.666 28.4028 36.3338 30.0842 36.3338C31.7656 36.3338 33.378 35.666 34.567 34.477C35.7558 33.2881 36.4237 31.6757 36.4237 29.9942C36.4237 28.3128 35.7558 26.7004 34.567 25.5115Z" fill="#62B35D"/>
<path d="M47.8174 10H42.7634C42.462 10 42.1666 10.0852 41.9116 10.2462C41.6566 10.407 41.4524 10.6367 41.3226 10.9089L35.493 21.7923C35.3631 21.9939 35.316 22.2377 35.3613 22.4731C35.4068 22.7085 35.5413 22.9171 35.7368 23.0559C35.8836 23.1855 36.073 23.2564 36.2687 23.2554C36.543 23.2481 36.8044 23.1371 37.0003 22.945L38.175 21.8145L43.229 16.9159L48.4602 11.9506C48.5833 11.8424 48.6824 11.7095 48.7512 11.5607C48.8199 11.4116 48.8567 11.2501 48.8591 11.0861C48.8651 10.9457 48.8426 10.8055 48.793 10.6738C48.7433 10.5422 48.6674 10.4221 48.5702 10.3206C48.5217 10.27 48.4684 10.2249 48.4111 10.1853C48.3533 10.1453 48.2915 10.1109 48.2265 10.0833C48.0972 10.0281 47.958 10 47.8174 10Z" fill="#62B35D"/>
</svg>
