<svg xmlns="http://www.w3.org/2000/svg" xmlns:xlink="http://www.w3.org/1999/xlink" width="60" height="60" fill="none">
  <path fill="#FFF100" d="M29.58 45.23a16.12 16.12 0 1 0 0-32.24 16.12 16.12 0 0 0 0 32.24z"/>
  <path fill="#FFF100" d="M29.69 9.04a19.97 19.97 0 0 1 19.95 19.2c.01.25-.35.57-.35.83 0 .36.36.65.34 1a19.9 19.9 0 0 1-5.73 12.96c-.35.36-1.23.38-1.6.7-.2.17-.12.49-.31.66-.15.13-.21.38-.41.66a19.87 19.87 0 0 1-11.9 3.93c-4.33 0-8.34-1.38-11.61-3.73a5.92 5.92 0 0 0-2.46-2.08A19.98 19.98 0 0 1 29.69 9.03z"/>
  <path fill="#B85D2E" d="M29.68 49.01c-4.2 0-8.23-1.29-11.63-3.73h-.01c-.6-.77-1.3-1.63-2.44-2.08h-.02A19.87 19.87 0 0 1 9.68 29c0-5.34 2.08-10.36 5.86-14.14A19.88 19.88 0 0 1 29.68 9c5.22 0 10.15 2 13.9 5.6a19.9 19.9 0 0 1 6.1 13.63c0 .14-.1.3-.18.44-.09.14-.17.28-.17.4 0 .17.08.32.16.48.1.16.18.33.17.52-.25 4.89-2.29 9.5-5.73 12.99-.2.19-.52.28-.85.37-.28.09-.58.17-.76.33-.09.07-.12.19-.14.3-.03.13-.07.26-.17.35-.07.07-.13.18-.2.3-.05.11-.11.23-.2.36h-.01a19.83 19.83 0 0 1-11.92 3.94zM18.1 45.23a19.8 19.8 0 0 0 11.6 3.71c4.31 0 8.41-1.35 11.87-3.91l.2-.34c.07-.13.12-.25.21-.33.08-.07.11-.19.14-.3.03-.13.06-.26.16-.35.2-.17.5-.25.8-.34.3-.1.63-.18.8-.36a19.9 19.9 0 0 0 5.73-12.94c0-.17-.08-.33-.17-.5-.08-.15-.17-.32-.17-.5 0-.14.09-.29.18-.43.08-.14.17-.29.17-.4A19.87 19.87 0 0 0 29.68 9.06a19.96 19.96 0 0 0-14.06 34.07c1.17.46 1.86 1.32 2.47 2.09z"/>
  <path fill="#FFF100" d="M49.73 30.58a20.07 20.07 0 0 1-5.1 11.91l-1.83-.75-1.5-.95-1.02-.3-1.68-.02-.68.2-.25-.4.79-1.63.56-.4.68-2.6-.53-2.64.44-.12s1.62-.67 1.55.82c-.08.58-.42 1.95-.35 2.38.13.27.72.05.72.05l2.99-1.95 3.14-1.97 1.81-1.63h.26z"/>
  <path fill="#B85D2E" d="M44.65 42.53l-1.86-.76-1.5-.95-1.02-.3-1.66-.02-.7.2-.27-.43v-.02l.8-1.63.56-.4.66-2.59-.53-2.65.47-.13c.01 0 .37-.16.75-.16.27 0 .48.08.62.23.17.17.24.43.22.78-.02.2-.08.48-.14.77a6.87 6.87 0 0 0-.2 1.6c.03.07.11.1.25.1.19 0 .41-.08.41-.08l3-1.94 3.13-1.97 1.82-1.63.3-.01v.04a20.22 20.22 0 0 1-5.1 11.93l-.01.02zm-6.05-2.1l1.68.03 1.04.3 1.5.95 1.81.74a20.17 20.17 0 0 0 5.07-11.84h-.21l-1.8 1.62-3.15 1.97-3 1.95c-.01 0-.24.1-.44.1-.17 0-.27-.06-.32-.16-.05-.3.09-1 .2-1.63.07-.3.12-.58.15-.77.01-.32-.06-.57-.2-.73-.14-.13-.33-.2-.58-.2-.36 0-.72.14-.73.15l-.4.11.51 2.62-.68 2.62-.57.4-.77 1.6.22.37.67-.2z"/>
  <path fill="#EC1C24" d="M29.58 45a15.89 15.89 0 1 0 0-31.78 15.89 15.89 0 0 0 0 31.78z"/>
  <path fill="#B85D2E" d="M29.58 45.04A15.94 15.94 0 0 1 13.66 29.1c0-8.78 7.14-15.92 15.92-15.92 8.78 0 15.92 7.14 15.92 15.92 0 8.78-7.14 15.93-15.92 15.93zm0-31.79a15.87 15.87 0 0 0-15.86 15.86c0 8.74 7.12 15.86 15.86 15.86 8.74 0 15.86-7.11 15.86-15.86 0-8.74-7.12-15.86-15.86-15.86z"/>
  <path fill="#FFF100" d="M29.3 14.8l1.42 4.36h4.58l-3.7 2.69L33 26.2l-3.7-2.7-3.7 2.7 1.42-4.35-3.7-2.7h4.57l1.42-4.34z"/>
  <path fill="#B85D2E" d="M32.99 26.22l-3.69-2.67-3.68 2.67-.05-.03 1.41-4.33-3.68-2.68.02-.06h4.55l1.4-4.33h.07l1.4 4.33h4.55l.02.06-3.68 2.68 1.4 4.33-.04.03zm-3.69-2.75l3.64 2.64-1.39-4.28 3.64-2.64h-4.5l-1.39-4.28-1.39 4.28H23.42l3.64 2.64-1.4 4.28 3.64-2.64z"/>
  <path fill="#B85D2E" d="M27.87 19.18l5.11 7.04.05-.04-5.11-7.04-.05.04z"/>
  <path fill="#B85D2E" d="M25.61 26.2l.06.05 5.03-7.1-.05-.04-5.04 7.1z"/>
  <path fill="#B85D2E" d="M23.3 19.2l8.28 2.68.02-.06-8.28-2.7-.02.07z"/>
  <path fill="#B85D2E" d="M27 21.77l.02.07 8.3-2.6-.02-.07-8.3 2.6z"/>
  <path fill="#B85D2E" d="M29.34 14.8h-.07v8.7h.07v-8.7z"/>
  <path fill="#B85D2E" d="M29.68 48.45c-5.2 0-10.08-2.02-13.75-5.7a19.31 19.31 0 0 1-5.7-13.74c0-5.2 2.02-10.08 5.7-13.75a19.32 19.32 0 0 1 13.75-5.7c5.19 0 10.07 2.02 13.75 5.7A19.32 19.32 0 0 1 49.13 29c0 5.2-2.03 10.07-5.7 13.75a19.31 19.31 0 0 1-13.75 5.7zm0-38.82A19.4 19.4 0 0 0 10.3 29a19.4 19.4 0 0 0 19.38 19.38A19.4 19.4 0 0 0 49.06 29 19.4 19.4 0 0 0 29.68 9.63z"/>
  <path fill="#FFF100" d="M18.72 49.28l.41-3.4 1.57-.63 3.22 2.64-5.2 1.4z"/>
  <path fill="#B85D2E" d="M18.71 49.29l.42-3.43 1.57-.62 3.23 2.66h-.01l-5.2 1.39zm.42-3.42l-.4 3.4 5.18-1.38-3.2-2.64-1.58.62z"/>
  <path fill="#FFF100" d="M27.27 49.07l-8.6 2.44-.13-1.48.15-.78c1.48-.44 3.58-1.11 3.58-1.11 1-.24 5.09-1.1 5.09-1.1l-.09 2.03z"/>
  <path fill="#B85D2E" d="M18.64 51.55l-.14-1.52.16-.81h.02c1.46-.44 3.57-1.1 3.59-1.11.99-.24 5.04-1.1 5.09-1.12h.04l-.1 2.1-8.66 2.46zm-.07-1.52l.13 1.44 8.54-2.42.09-1.98c-.44.1-4.11.88-5.05 1.1-.01 0-2.1.67-3.56 1.1l-.15.76z"/>
  <path fill="#B85D2E" d="M18.6 50.93l.02.07 8.73-2.41-.02-.06-8.73 2.4zM18.58 50.57l.02.06 8.74-2.8-.02-.07-8.74 2.81zM18.55 50.06l.02.06 8.76-2.81-.02-.06-8.76 2.81zM19.13 48.66l.02.06 3.52-1.1-.03-.07-3.51 1.1zM19.1 48l.03.06 2.96-.84-.02-.07-2.96.84zM19.27 47.65l.03.06 2.44-.8-.02-.06-2.45.8zM19.28 47.03h-.01v-.07c.32.02 2.07-.52 2.09-.53l.02.07c-.07.02-1.74.53-2.1.53zM19.54 46.64c-.05 0-.1 0-.15-.02l.02-.06c.46.12 1.72-.52 1.73-.52l.03.06c-.05.02-1.07.54-1.63.54z"/>
  <path fill="#FFF100" d="M18.79 50.92c.06-.42-.06-.78-.27-.81-.22-.03-.44.28-.5.7-.07.4.05.77.27.8.21.04.44-.27.5-.69z"/>
  <path fill="#B85D2E" d="M18.32 51.66a.2.2 0 0 1-.03 0c-.24-.04-.37-.42-.3-.86.06-.43.3-.76.53-.72.24.03.37.4.3.85-.06.41-.27.73-.5.73zm.17-1.52c-.2 0-.39.3-.44.67-.06.4.05.75.25.78.2.03.4-.28.46-.67.06-.4-.05-.75-.25-.77h-.02z"/>
  <path fill="#FFF100" d="M18.29 49.34c-.1.26-.03.52.14.57.16.06.37-.1.46-.37.08-.26.02-.52-.15-.57-.16-.06-.37.11-.45.37z"/>
  <path fill="#B85D2E" d="M18.5 49.95h-.08c-.19-.07-.26-.34-.16-.62.08-.25.25-.41.42-.41l.08.01c.09.03.16.12.19.23a.7.7 0 0 1-.03.39c-.08.24-.26.4-.42.4zm.18-.96c-.14 0-.29.15-.36.36-.08.24-.03.48.12.53.15.05.34-.12.42-.36a.64.64 0 0 0 .02-.34c-.02-.1-.07-.16-.14-.19h-.06z"/>
  <path fill="#FFF100" d="M18.61 48.4c-.06.24 0 .48.16.52.16.04.34-.12.4-.37.07-.25 0-.49-.15-.53-.16-.04-.34.12-.4.37z"/>
  <path fill="#B85D2E" d="M18.82 48.96h-.06c-.17-.06-.25-.3-.18-.58.07-.26.28-.45.45-.4.17.05.25.3.18.57-.07.24-.23.41-.39.41zm.15-.92c-.13 0-.27.16-.32.36-.06.23 0 .45.13.49.14.03.3-.13.36-.36.07-.23 0-.45-.13-.48h-.04z"/>
  <path fill="#FFF100" d="M19.04 47.9a.34.34 0 1 0 0-.68.34.34 0 0 0 0 .68z"/>
  <path fill="#B85D2E" d="M19.04 47.94a.36.36 0 0 1-.24-.1.37.37 0 0 1-.03-.52.38.38 0 0 1 .52-.04.37.37 0 0 1 .03.53.38.38 0 0 1-.28.13zm.01-.69a.31.31 0 0 0-.23.11.3.3 0 0 0 .02.44c.05.05.12.07.2.07.09 0 .17-.04.23-.1a.31.31 0 0 0-.02-.44.3.3 0 0 0-.2-.08z"/>
  <path fill="#FFF100" d="M18.89 46.45c.07-.25.25-.37.39-.27.14.1.19.4.11.64-.07.26-.25.38-.39.27-.14-.1-.2-.39-.11-.64z"/>
  <path fill="#B85D2E" d="M19.1 47.17a.22.22 0 0 1-.12-.05c-.15-.11-.2-.41-.13-.68.06-.2.19-.33.32-.33.05 0 .09.02.13.04.15.12.2.41.13.68-.06.2-.19.34-.32.34zm.07-1c-.1 0-.2.12-.25.29-.08.24-.03.51.1.6.12.1.27-.02.34-.25s.02-.5-.1-.6a.17.17 0 0 0-.09-.03z"/>
  <path fill="#FFF100" d="M40.2 49.2l-.44-3.33-1.57-.62-3.14 2.52 5.16 1.43z"/>
  <path fill="#B85D2E" d="M40.21 49.2l-5.17-1.42v-.01l3.14-2.53 1.58.63.45 3.34zm-5.15-1.43l5.14 1.43-.45-3.33-1.56-.62-3.13 2.52z"/>
  <path fill="#FFF100" d="M31.61 49.07l8.61 2.44.13-1.48-.15-.78c-1.48-.44-3.59-1.11-3.59-1.11-1-.24-5.08-1.1-5.08-1.1l.08 2.03z"/>
  <path fill="#B85D2E" d="M40.25 51.55l-8.67-2.45L31.5 47h.04c.04.02 4.1.88 5.1 1.12.01 0 2.12.68 3.58 1.1l.02.01v.02l.16.79-.14 1.52zm-8.6-2.5l8.54 2.42.13-1.44-.15-.75-3.57-1.1c-.93-.23-4.6-1.01-5.04-1.1l.08 1.97z"/>
  <path fill="#B85D2E" d="M31.56 48.52l8.7 2.54.02-.06-8.7-2.54-.02.06zM31.54 47.84l8.76 2.77.02-.07-8.76-2.76-.02.06zM31.54 47.37l8.8 2.7.02-.07-8.8-2.7-.02.07zM36.26 47.62l3.47 1.11.02-.06-3.47-1.12-.02.07zM36.8 47.22l2.96.83.02-.06-2.96-.84-.02.07zM37.14 46.91l2.44.78.02-.06-2.44-.78-.02.06zM39.57 47.05c-.35 0-2-.53-2.06-.55l.02-.07a16 16 0 0 0 2.04.55h.02v.07h-.02zM39.34 46.64c-.55 0-1.58-.52-1.63-.54l.03-.06c.02 0 1.27.64 1.73.52l.02.06a.56.56 0 0 1-.15.02z"/>
  <path fill="#FFF100" d="M40.08 50.93c.07.42.3.73.5.7.22-.04.35-.4.28-.82-.06-.41-.29-.73-.5-.7-.22.04-.34.4-.28.82z"/>
  <path fill="#B85D2E" d="M40.56 51.66c-.22 0-.44-.32-.5-.73-.07-.44.07-.82.3-.85.24-.04.48.29.55.72.02.21.01.41-.04.57-.05.16-.15.27-.27.28h-.04zm-.16-1.52h-.03c-.2.03-.3.39-.24.78.05.38.25.67.44.67h.02c.09-.02.16-.1.21-.24.05-.15.07-.34.03-.54-.05-.37-.24-.67-.43-.67z"/>
  <path fill="#FFF100" d="M40.6 49.33c-.09-.26-.3-.42-.46-.37-.16.06-.23.31-.14.57.08.26.29.43.45.38.17-.06.23-.31.15-.58z"/>
  <path fill="#B85D2E" d="M40.4 49.95c-.18 0-.35-.16-.43-.4a.69.69 0 0 1-.03-.39c.03-.11.1-.2.2-.23l.07-.01c.17 0 .34.16.42.4.1.28.02.56-.16.62a.25.25 0 0 1-.08.01zm-.2-.96h-.05c-.07.03-.12.1-.14.2-.03.1-.02.22.02.34.07.2.22.36.36.36l.06-.01c.15-.05.2-.29.12-.53-.07-.21-.22-.36-.36-.36z"/>
  <path fill="#FFF100" d="M40.28 48.4c-.07-.26-.25-.43-.4-.38-.16.04-.23.28-.16.53s.25.41.4.37c.16-.04.23-.28.16-.53z"/>
  <path fill="#B85D2E" d="M40.06 48.96c-.16 0-.32-.17-.38-.4-.08-.28 0-.53.18-.58h.06c.16 0 .32.17.38.4.07.27 0 .52-.18.57l-.06.01zm-.14-.92h-.04c-.14.04-.2.27-.14.5.06.2.2.35.32.35h.04c.14-.04.2-.26.14-.49-.06-.2-.2-.36-.32-.36z"/>
  <path fill="#FFF100" d="M39.84 47.91a.34.34 0 1 0 0-.69.34.34 0 0 0 0 .7z"/>
  <path fill="#B85D2E" d="M39.85 47.94a.38.38 0 0 1-.26-.66.38.38 0 0 1 .5.57.37.37 0 0 1-.24.09zm-.01-.69a.3.3 0 0 0-.2.08.31.31 0 0 0-.03.44c.06.06.15.1.24.1.07 0 .14-.02.2-.07a.3.3 0 0 0 .1-.21.31.31 0 0 0-.08-.23.31.31 0 0 0-.23-.1z"/>
  <path fill="#FFF100" d="M40 46.46c-.07-.26-.25-.38-.39-.28-.14.11-.2.4-.12.67.08.26.26.39.4.28.14-.1.19-.4.11-.67z"/>
  <path fill="#B85D2E" d="M39.78 47.2c-.13 0-.26-.13-.32-.34-.08-.28-.02-.59.13-.7a.2.2 0 0 1 .13-.05c.13 0 .25.13.31.34.08.28.03.59-.12.7a.22.22 0 0 1-.13.05zm-.06-1.02a.14.14 0 0 0-.09.03c-.13.1-.18.39-.1.63.05.17.15.3.25.3.03 0 .06-.02.09-.04.13-.1.17-.38.1-.63-.05-.17-.15-.3-.25-.3z"/>
  <path fill="#EC1C24" d="M24.34 42.57l-.12.04-.23-.26-.41-1.2.06-.33-.9-.16-.47.52s-.16-.02-.53-.02l-.46-.4-.6-.31-1.1.04-.84.25-1.23.56-.98.55-1.6.87s.04.44.3.54c.8.06 1.62.5 2.13 1.36.37.63 1.04 1.42 1.7 1.39l1-.04c.57-.02.73-.31.77-.53l.06.07 3.37-2.7.08-.24z"/>
  <path fill="#B85D2E" d="M19.02 46.05c-.63 0-1.28-.73-1.7-1.41a2.66 2.66 0 0 0-2.1-1.34c-.28-.11-.32-.56-.32-.58v-.02l1.61-.88.99-.55 1.22-.56.86-.25 1.1-.04.63.32.44.4.5.01.48-.53.95.18-.07.35.4 1.18.22.24.16-.05-.1.3v.02l-3.4 2.72-.04-.04c-.06.2-.23.47-.79.49l-1 .04h-.04zm-3.79-2.82c.9.07 1.68.57 2.16 1.37.4.68 1.05 1.4 1.66 1.38l1-.04c.55-.02.7-.29.75-.5v-.07l.1.1 3.34-2.68.05-.17-.08.03-.02-.02-.24-.27-.41-1.2.06-.3-.84-.16-.48.53h-.01s-.16-.03-.53-.03h-.01l-.46-.4-.6-.31-1.08.04-.84.25-1.22.56-.99.54-1.57.86c0 .08.06.4.26.49z"/>
  <path fill="#FFF100" d="M9.62 30.58a20.48 20.48 0 0 0 4.9 11.91l1.77-.75 1.44-.95.99-.3 1.6-.02.67.2.23-.4-.75-1.63-.55-.4-.65-2.6.51-2.64-.42-.12s-1.56-.67-1.49.82c.07.58.4 1.95.33 2.38-.12.27-.68.05-.68.05l-2.88-1.95-3.02-1.97-1.75-1.63h-.25z"/>
  <path fill="#B85D2E" d="M14.51 42.53l-.01-.02a20.64 20.64 0 0 1-4.91-11.93v-.04h.3v.02l1.75 1.62 3.02 1.97 2.88 1.95s.2.07.39.07c.12 0 .2-.03.24-.11.04-.27-.1-1-.2-1.59-.06-.3-.11-.58-.13-.77-.02-.35.05-.62.21-.79.14-.15.34-.22.6-.22.36 0 .7.15.72.16l.45.13V33l-.51 2.63.64 2.59.54.4.77 1.65-.26.44-.68-.21-1.6.02-.98.3-1.44.95-1.79.76zM9.66 30.61a20.56 20.56 0 0 0 4.87 11.84l1.75-.74 1.44-.95 1-.3 1.6-.03.65.2.21-.36-.74-1.6-.55-.4-.65-2.63.5-2.62-.4-.11s-.35-.15-.7-.15a.73.73 0 0 0-.54.2c-.15.15-.21.4-.2.74l.13.76c.12.62.25 1.33.2 1.62-.03.07-.1.16-.3.16-.2 0-.42-.08-.43-.09l-2.88-1.95-3.02-1.97-1.75-1.62h-.19z"/>
  <path fill="#FFF100" d="M17.06 33.28s.04-.8.4-.68c.37.12.41.5.46.75.05.24.82 3.25.82 3.25l-1.66-.8-.02-2.52z"/>
  <path fill="#B85D2E" d="M18.8 36.66l-1.76-.83v-.02l-.02-2.53c0-.03.05-.72.37-.72l.09.01c.35.12.42.48.46.73l.01.05.82 3.25.02.06zm-1.69-.87l1.58.75c-.12-.46-.76-2.96-.8-3.18l-.01-.05c-.04-.24-.1-.57-.43-.67a.21.21 0 0 0-.06-.02c-.22 0-.3.48-.3.66l.02 2.5z"/>
  <path fill="#FFF100" d="M20.36 38.59s-1.36-1.21-.58-5.07a5.89 5.89 0 0 1 4.16-4.48c-1.18-.1-3.4.6-4.76 3.95-.36.88-1.51 3.3-1.51 3.3l-.39.85.03.4 1.46 2.78 2.28.43-.7-1.68v-.48z"/>
  <path fill="#B85D2E" d="M21.1 40.8l-2.35-.45-1.48-2.8-.02-.42v-.01l.39-.84c0-.02 1.15-2.43 1.51-3.3 1.2-2.94 3.15-3.98 4.57-3.98h.22v.07a5.88 5.88 0 0 0-4.13 4.46c-.76 3.78.56 5.02.57 5.03l.01.01v.49l.72 1.73zm-2.3-.51l2.2.42-.68-1.64v-.47c-.13-.13-1.31-1.44-.57-5.09.16-.79.92-3.42 4-4.45h-.03c-1.4 0-3.32 1.04-4.5 3.94-.37.88-1.51 3.29-1.52 3.31l-.38.83.02.4 1.45 2.75z"/>
  <path fill="#FFF100" d="M15.95 32.77s-.47-3.08 0-4.99c.47-1.9 1.69-3.77 1.69-3.77s-.98.54-2.59 2.75a14.7 14.7 0 0 1 1.19-4.61c.57-1.27 1.17-3.2 3.48-5.75-1.59.43-3.8 3.03-3.8 3.03l-1.41 2.1-1.46 6.4-.1 3.48 3 1.36z"/>
  <path fill="#B85D2E" d="M16 32.83l-3.09-1.4.1-3.5 1.47-6.41 1.42-2.11c.02-.03 2.23-2.61 3.8-3.04l.04.05a16.29 16.29 0 0 0-3.2 5.12l-.27.62c-.45.95-1.1 3-1.18 4.48 1.55-2.11 2.52-2.66 2.53-2.66l.05.05c-.02.01-1.22 1.88-1.69 3.76-.46 1.88 0 4.94 0 4.97l.01.07zm-3.02-1.44l2.93 1.33c-.06-.45-.42-3.2 0-4.94.4-1.6 1.34-3.2 1.62-3.66-.31.22-1.2.92-2.45 2.66l-.06-.02a14.6 14.6 0 0 1 1.45-5.24 16.31 16.31 0 0 1 3.14-5.05c-1.54.51-3.64 2.95-3.66 2.98l-1.4 2.1-1.47 6.38-.1 3.46z"/>
  <path fill="#FFF100" d="M17.08 40.92s-3.7-4.67-4.35-7.24c-.64-2.57-.33-.59-.33-.59.03 1.15.84 3.05 1.42 3.93 1.1 1.69 2.95 4.2 2.95 4.2l.31-.3z"/>
  <path fill="#B85D2E" d="M16.77 41.27l-.02-.03c-.02-.03-1.87-2.53-2.96-4.2-.56-.87-1.4-2.77-1.43-3.95-.04-.3-.1-.7-.05-.74v-.02h.03c.04 0 .09 0 .43 1.35.63 2.53 4.3 7.18 4.34 7.22l.02.02-.36.35zm-4.41-8.8c0 .12.04.38.07.62.03 1.16.86 3.05 1.42 3.91a106.7 106.7 0 0 0 2.93 4.17l.26-.25c-.3-.37-3.73-4.78-4.34-7.23-.2-.8-.3-1.11-.34-1.23z"/>
  <path fill="#EC1C24" d="M17.31 37.36s-1.49-1.68-3.8-3.07c-2.31-1.38-3.54-2.33-3.83-2.97-.28-.56-.24-.9-.12-1.29.18-.55.21-1.26.04-1.62-.12-.26-.36-1.7-.36-1.7l.12-1.12.33-.38.4-.3c-.48 1.15-.6 2.88.32 4.01l4.04 2.48 1.78 1.24 1.2 1.73.3 1.26.07 1.02-.49.7z"/>
  <path fill="#B85D2E" d="M17.32 37.41l-.03-.03a18.03 18.03 0 0 0-3.8-3.06c-2.33-1.4-3.55-2.35-3.84-2.99a1.52 1.52 0 0 1-.12-1.3c.18-.58.2-1.27.04-1.6-.12-.26-.35-1.66-.36-1.72v-.01l.12-1.12.33-.4.4-.3.06.04c-.5 1.18-.59 2.86.31 3.98l4.04 2.47 1.78 1.25 1.22 1.75.28 1.26.09 1.04h-.01l-.51.74zM9.27 26.7c.02.1.25 1.45.36 1.7.17.34.15 1.05-.04 1.64-.12.4-.14.74.12 1.26.28.63 1.49 1.57 3.82 2.96a18.25 18.25 0 0 1 3.78 3.04l.46-.65-.08-1.02-.29-1.25-1.2-1.72-1.77-1.23-4.05-2.49c-.9-1.1-.83-2.75-.37-3.94l-.3.23-.32.37-.12 1.1z"/>
  <path fill="#FFF100" d="M14.24 31.1s-.24-3.03.06-4.78c.3-1.76 1-5.69 5.16-9.45-.2.04-.46.16-.68.27-1.46.8-2.73 3.06-3.49 4.54-1 1.93-1.6 4.04-1.83 6.46l-.03 1.3.15 1.28.66.38z"/>
  <path fill="#B85D2E" d="M14.28 31.16l-.73-.42-.15-1.3.03-1.3c.22-2.4.82-4.5 1.83-6.48.81-1.58 2.06-3.77 3.5-4.55.28-.15.51-.24.7-.28l.03.06a15.42 15.42 0 0 0-5.15 9.43c-.3 1.73-.07 4.75-.06 4.78v.06zm-.67-.46l.6.34c-.04-.45-.21-3.13.06-4.73.3-1.69.97-5.61 5.07-9.38-.15.05-.33.13-.54.24-1.43.77-2.67 2.95-3.48 4.52-1 1.96-1.6 4.07-1.83 6.45l-.03 1.3.15 1.26z"/>
  <path fill="#FFF100" d="M17.89 36.13s-.13-1.9-2.1-3.68c-.87-.63-2.37-1.74-3.16-1.98-.8-.25-3.68-2.3-3.78-3.63-.1-1.32.72-2.14 1.23-2.22l-.18.87c-.54.43-.59 1.81-.05 2.33 1.05 1.03 1.87 1.68 4.4 3.03 1.62 1.14 2.77 2.25 3 2.92.1.4.42 1.2.57 1.75.1.34.07.61.07.61z"/>
  <path fill="#B85D2E" d="M17.92 36.13h-.07c0-.02-.15-1.9-2.08-3.66l-.28-.2c-.86-.61-2.16-1.55-2.87-1.77-.83-.26-3.7-2.31-3.8-3.65-.1-1.36.75-2.18 1.25-2.26h.05l-.19.92c-.24.2-.4.6-.42 1.08-.03.5.12.97.36 1.2 1.08 1.06 1.92 1.7 4.4 3.03 1.65 1.17 2.78 2.27 3 2.94l.25.72c.12.34.25.72.33 1.03.1.34.07.61.07.62zm-7.88-11.46c-.5.11-1.25.9-1.15 2.17.1 1.29 2.95 3.35 3.75 3.6.72.22 2.03 1.16 2.9 1.78l.27.2a6.83 6.83 0 0 1 1.82 2.6l-.17-.51c-.1-.28-.2-.54-.24-.73-.23-.66-1.34-1.74-2.99-2.9-2.47-1.33-3.32-1.98-4.4-3.04-.26-.25-.41-.73-.39-1.25.02-.5.18-.91.43-1.12l.17-.8zM18.25 36.15l-.06-.04s.42-.77.38-1.1c-.01-.14-.15-1.36.32-1.86l.04.05c-.36.38-.35 1.31-.29 1.8.04.36-.37 1.11-.4 1.15z"/>
  <path fill="#FFF100" d="M22.48 40.89s-.35.76-1.14.13c-.53-.42-.6-.96-.6-1.24.63-.07.9-.05 1.2.06.55.2.54 1.05.54 1.05z"/>
  <path fill="#B85D2E" d="M21.93 41.3a1 1 0 0 1-.61-.26c-.5-.4-.61-.9-.61-1.26v-.03h.03c.25-.03.44-.04.6-.04.24 0 .42.03.61.1.56.21.56 1.04.56 1.08v.01c0 .02-.19.4-.58.4zm-1.16-1.5c.01.35.12.82.6 1.2.2.15.38.23.56.23.33 0 .5-.3.52-.35 0-.08-.03-.82-.52-1.01-.19-.07-.36-.1-.6-.1l-.56.04z"/>
  <path fill="#EC1C24" d="M35.18 42.57l.11.04.23-.26.4-1.2-.06-.33 1.35.36s.15-.02.52-.02l.45-.4.6-.31 1.06.04.83.25 1.2.56.97.55 1.57.87s-.04.44-.29.54c-.8.06-1.59.5-2.1 1.35-.36.64-1.02 1.43-1.66 1.4l-.98-.04c-.57-.02-.73-.31-.76-.53l-.06.07-3.31-2.7-.07-.24z"/>
  <path fill="#B85D2E" d="M40.4 46.05h-.04l-.98-.04c-.55-.02-.72-.3-.78-.5l-.03.05-.03-.03-3.32-2.7-.1-.31.17.05.2-.24.4-1.18-.07-.37 1.4.37c.03 0 .18-.02.5-.02l.45-.4.6-.31 1.09.04.83.25 1.2.56.97.54 1.59.89v.02c0 .02-.05.47-.31.57h-.01c-.85.07-1.6.55-2.07 1.34-.4.69-1.05 1.42-1.67 1.42zm-1.76-.68l.01.07c.04.22.2.48.73.5l.99.04h.02c.6 0 1.22-.71 1.61-1.38.47-.8 1.24-1.3 2.12-1.37.2-.08.25-.4.26-.5l-2.52-1.4-1.2-.56-.83-.25-1.05-.04-.6.31-.44.41h-.02c-.36 0-.51.02-.51.02h-.01l-1.3-.35.05.28v.01l-.4 1.21-.25.28-.08-.03.05.17 3.28 2.67.1-.1z"/>
  <path fill="#FFF100" d="M37.29 39.43s-.4-.73 1.15-1.9c.07.7-.53 1.43-.53 1.43-.25.31-.62.47-.62.47z"/>
  <path fill="#B85D2E" d="M37.28 39.48l-.02-.03c-.02-.03-.4-.77 1.16-1.95l.05-.04v.06c.07.7-.5 1.43-.53 1.46a1.8 1.8 0 0 1-.64.49h-.02zm1.13-1.89c-1.3 1-1.15 1.66-1.1 1.8.1-.05.38-.2.58-.45 0-.01.55-.7.52-1.35z"/>
  <path fill="#FFF100" d="M37.08 39.8s.2-1.14 1.47-2.15c.05.57.14 1.03-.3 1.57-.65.9-1.17.59-1.17.59z"/>
  <path fill="#B85D2E" d="M37.31 39.9c-.15 0-.24-.06-.25-.06l-.02-.01v-.03c0-.01.22-1.17 1.49-2.18l.04-.04v.07l.03.15c.05.5.09.94-.32 1.44-.4.54-.74.66-.97.66zm-.2-.1c.04 0 .1.03.2.03.21 0 .54-.11.92-.63.39-.48.35-.9.3-1.4l-.01-.09c-1.1.9-1.37 1.91-1.4 2.08z"/>
  <path fill="#FFF100" d="M37.5 39.81s.63-.66.76-1.05c.12-.38.72-.31.72-.31-.07.82-.2 1.1-.85 1.43-.65.32-.62-.07-.62-.07z"/>
  <path fill="#B85D2E" d="M37.71 40.04c-.08 0-.14-.03-.18-.07-.06-.07-.05-.16-.05-.16v-.02c.01 0 .62-.67.75-1.04.1-.3.49-.34.65-.34h.13v.04c-.07.82-.2 1.13-.86 1.45a1 1 0 0 1-.44.14zm-.17-.21c0 .02 0 .06.04.1.07.08.27.05.54-.08.63-.31.76-.59.82-1.37h-.06c-.18 0-.5.04-.59.3-.12.36-.67.96-.75 1.05z"/>
  <path fill="#FFF100" d="M38.57 38.59s1.41-1.21.6-5.07a5.97 5.97 0 0 0-4.32-4.48c1.22-.1 3.52.6 4.94 3.95.38.88 1.58 3.3 1.58 3.3l.4.85-.02.4-1.53 2.78-2.37.43.72-1.68v-.48z"/>
  <path fill="#B85D2E" d="M37.8 40.8l.74-1.74v-.49c.02-.02 1.4-1.26.6-5.04a5.94 5.94 0 0 0-4.3-4.46v-.06a3 3 0 0 1 .24-.01c1.48 0 3.5 1.04 4.75 3.97.37.88 1.56 3.29 1.57 3.31l.4.85-.03.43-1.53 2.79-2.45.44zm.8-2.2v.48l-.7 1.63 2.3-.42 1.5-2.75.03-.4-.4-.83c0-.02-1.2-2.43-1.57-3.3-1.23-2.91-3.23-3.95-4.69-3.95h-.03a6 6 0 0 1 4.16 4.45c.77 3.65-.46 4.96-.6 5.1z"/>
  <path fill="#FFF100" d="M36.63 40.9s.36.75 1.19.12c.55-.42.62-.96.62-1.24-.65-.06-.94-.05-1.24.06-.57.21-.57 1.05-.57 1.05z"/>
  <path fill="#B85D2E" d="M37.21 41.3c-.41 0-.6-.38-.6-.4 0-.04 0-.88.58-1.09.2-.07.38-.1.64-.1.16 0 .35.01.62.04h.03v.03c0 .35-.11.86-.64 1.26-.22.18-.44.27-.63.27zm-.54-.41c.02.05.2.35.54.35a1 1 0 0 0 .59-.24c.49-.38.6-.85.61-1.19a6.2 6.2 0 0 0-.58-.03c-.25 0-.43.03-.62.1-.51.18-.54.92-.54 1z"/>
  <path fill="#FFF100" d="M29.58 46.64a6.72 6.72 0 1 0 0-13.43 6.72 6.72 0 0 0 0 13.43z"/>
  <path fill="#B85D2E" d="M29.58 46.67a6.76 6.76 0 1 1 .01-13.51 6.76 6.76 0 0 1-.01 13.51zm0-13.43a6.69 6.69 0 1 0 .01 13.38 6.69 6.69 0 0 0-.01-13.38z"/>
  <path fill="#FFF100" d="M34.57 35.43l.36.43.23.32-.3.57h-.01l-.2-.29a5.8 5.8 0 0 0-.73-.9c-.01 0 0 0 0 0l.63-.15.02.02z"/>
  <path fill="#B85D2E" d="M34.84 36.8l-.2-.32a6.22 6.22 0 0 0-.76-.93l.01-.02.67-.16.04.04c.12.14.25.28.35.43l.25.34-.3.6-.06.01zm-.86-1.22a6.72 6.72 0 0 1 .71.86l.17.26.26-.51-.22-.3a5.94 5.94 0 0 0-.35-.44h-.01l-.56.13z"/>
  <path fill="#FFF100" d="M29.58 33.2c.19 0 .37.02.56.03l.07.17.18.4h-.01c-.02 0-.01.02-.03.02a6.52 6.52 0 0 0-1.47 0c-.05 0-.03-.02-.01-.05l.18-.37.07-.17c.15-.02.3-.02.46-.02z"/>
  <path fill="#B85D2E" d="M30.36 33.86h-.01c-.5-.07-1-.07-1.47-.01h-.02c-.02 0-.03 0-.04-.02l.01-.06.01-.02.26-.56h.02c.35-.03.68-.02 1.02 0h.02l.08.2.2.43-.05.02-.03.02zm-.78-.12c.25 0 .5.02.77.05l-.24-.53a6.88 6.88 0 0 0-.96 0l-.07.15-.17.37c.21-.03.44-.04.67-.04z"/>
  <path fill="#FFF100" d="M26.64 33.89l.52-.23.14.12.33.28c.03.02.03.02 0 .03a6.14 6.14 0 0 0-1.32.63c-.04.02-.03.02-.03-.03v-.42l-.01-.19.37-.2z"/>
  <path fill="#B85D2E" d="M26.28 34.77h-.01l-.02-.02-.01-.04v-.02l-.01-.63h.02a6.41 6.41 0 0 1 .9-.43l.02-.01.15.13.34.29c.02 0 .03.02.03.04 0 .03-.03.03-.05.04a6.54 6.54 0 0 0-1.31.62h-.01l-.04.03zm.02-.67V34.67a5.4 5.4 0 0 1 1.3-.6l-.45-.37c-.18.07-.37.15-.5.22l-.35.18z"/>
  <path fill="#FFF100" d="M24.29 35.8c.1-.14.26-.34.39-.47l.18.05.44.1v.02a7.78 7.78 0 0 0-.94 1.17c-.01.02-.01.02-.02 0l-.2-.4-.08-.17c.07-.1.14-.2.23-.3z"/>
  <path fill="#B85D2E" d="M24.35 36.72c-.02 0-.03-.03-.04-.03l-.29-.6h.01a5.56 5.56 0 0 1 .63-.78v-.02l.21.06.46.12.01.02v.02l-.01.02a7.2 7.2 0 0 0-.94 1.17l-.04.02zm-.25-.62l.08.15.18.36a5.94 5.94 0 0 1 .89-1.1l-.56-.14a7.6 7.6 0 0 0-.6.73z"/>
  <path fill="#FFF100" d="M23 38.53l.15-.54.02-.08.19-.03.42-.1.02.01-.01.06a6.42 6.42 0 0 0-.33 1.42s0 .01 0 0l-.52-.4.07-.34z"/>
  <path fill="#B85D2E" d="M23.46 39.3h-.02l-.53-.41v-.02a6.48 6.48 0 0 1 .2-.9l.04-.1.2-.03.43-.09.06.02-.02.1a6.31 6.31 0 0 0-.33 1.4c0 .03-.02.04-.03.04zm-.48-.44l.45.35a6.36 6.36 0 0 1 .33-1.37v-.02l-.56.12-.02.06a6.18 6.18 0 0 0-.2.86z"/>
  <path fill="#FFF100" d="M23.06 41.55a7.48 7.48 0 0 1-.11-.55l-.02-.1.5-.38h.02l.01.08a6.5 6.5 0 0 0 .32 1.38h-.01l-.63-.13-.08-.3z"/>
  <path fill="#B85D2E" d="M23.78 42.02h-.01l-.65-.14v-.02a6.28 6.28 0 0 1-.2-.85l-.02-.13.52-.4.06.02.02.1a6.28 6.28 0 0 0 .31 1.37V42l-.03.01zm-.61-.2l.56.12a6.6 6.6 0 0 1-.3-1.34v-.04l-.46.34.01.1a6.75 6.75 0 0 0 .19.82z"/>
  <path fill="#FFF100" d="M24.43 44.24l-.34-.44-.08-.12.28-.56h.03l.06.1a6.2 6.2 0 0 0 .85 1.05c.02.03.03.03 0 .04l-.43.1-.18.04-.19-.2z"/>
  <path fill="#B85D2E" d="M24.6 44.49v-.02a5.14 5.14 0 0 1-.54-.65l-.1-.14.31-.6h.07l.07.11a6.13 6.13 0 0 0 .84 1.06l.01.01c.01.01.03.02.02.05 0 .02-.02.02-.04.03l-.63.15zm-.56-.81l.08.1c.1.15.22.3.34.44l.17.2.16-.04.4-.1a6 6 0 0 1-.84-1.05l-.04-.07-.27.52z"/>
  <path fill="#FFF100" d="M26.85 46.06a6.26 6.26 0 0 1-.5-.25l-.17-.09.02-.63.02-.01.12.08a6.33 6.33 0 0 0 1.22.57c.02.01.02 0 0 .03l-.35.28-.14.11a3.33 3.33 0 0 1-.22-.09z"/>
  <path fill="#B85D2E" d="M27.08 46.2l-.02-.01a7.42 7.42 0 0 1-.73-.35l-.18-.1.02-.67.05-.03.14.1a6.37 6.37 0 0 0 1.21.57c.02 0 .04 0 .04.02v.03l-.02.02-.51.42zm-.86-.5l.14.08.5.25.2.09.13-.11.32-.26a5.65 5.65 0 0 1-1.18-.56l-.1-.07-.01.58z"/>
  <path fill="#FFF100" d="M29.81 46.64h-.55l-.23-.02-.25-.58.01-.01.18.02c.27.02.55.03.82.02.17 0 .33-.02.5-.03.01 0 .01-.01 0 0l-.19.42-.08.16-.2.02z"/>
  <path fill="#B85D2E" d="M29.58 46.68l-.33-.01-.24-.02-.27-.62.04-.04.2.02a6.39 6.39 0 0 0 1.3 0h.04c.02.03.01.04 0 .05l-.27.6h-.02l-.21.01h-.24zm-.52-.1l.2.02c.19.01.37.01.56 0H30l.07-.16.17-.36a5.89 5.89 0 0 1-1.27 0l-.15-.02.24.53z"/>
  <path fill="#FFF100" d="M32.73 45.86a7 7 0 0 1-.5.24l-.24.1-.48-.41v-.02l.2-.07a6.48 6.48 0 0 0 1.15-.57c.02-.01.02-.02.02 0v.64l-.15.09z"/>
  <path fill="#B85D2E" d="M31.99 46.24l-.52-.44.01-.06.22-.08a6.17 6.17 0 0 0 1.14-.56l.03-.01c.02 0 .04 0 .04.03v.68l-.16.09-.5.24-.26.1zm-.43-.45l.44.37.22-.1a6.01 6.01 0 0 0 .63-.3V45.18a6.1 6.1 0 0 1-1.12.55l-.17.05z"/>
  <path fill="#FFF100" d="M35.02 43.87l-.35.44-.2.22-.62-.16v-.01l.18-.19a6.2 6.2 0 0 0 .76-.99c.02-.01.01 0 .02.01l.2.4.08.17-.07.11z"/>
  <path fill="#B85D2E" d="M34.49 44.57l-.67-.17-.01-.04.01-.02.18-.19a6.16 6.16 0 0 0 .8-1h.03l.01.02.3.59-.02.02-.08.11c-.1.15-.22.3-.35.44l-.2.24zm-.59-.22l.56.14.18-.2.35-.44.07-.1-.08-.14-.18-.37a8.67 8.67 0 0 1-.75.96l-.15.15z"/>
  <path fill="#FFF100" d="M36.2 41.1l-.12.54-.1.31-.62.13h-.01l.1-.29a6.52 6.52 0 0 0 .25-1.2c0-.01 0-.01 0 0l.51.4-.01.1z"/>
  <path fill="#B85D2E" d="M35.35 42.11l-.05-.02.11-.3a6.5 6.5 0 0 0 .25-1.2v-.03H35.73l.53.42-.02.12a6.6 6.6 0 0 1-.12.55l-.1.33-.66.13zm.37-1.46a5.9 5.9 0 0 1-.25 1.16l-.08.23.57-.12.08-.3c.05-.17.09-.35.12-.53l.02-.08-.46-.36z"/>
  <path fill="#FFF100" d="M36.04 38.07c.05.18.1.37.13.55l.07.35-.52.39h-.02l-.03-.32a6.25 6.25 0 0 0-.29-1.16c0-.02 0-.01.01-.01l.63.13.02.07z"/>
  <path fill="#B85D2E" d="M35.72 39.4l-.05-.03-.03-.33a6.5 6.5 0 0 0-.29-1.19l.01-.01h.03l.66.14.02.08c.05.18.1.36.13.55l.07.38-.55.41zm-.3-1.49c.04.1.08.2.1.31.08.27.14.54.18.81l.03.28.46-.35-.06-.34a7.12 7.12 0 0 0-.13-.54l-.01-.05-.56-.12z"/>
  <path fill="#FFF100" d="M32.1 33.7c.17.07.34.14.5.23l.38.2-.02.63-.02.01-.31-.19a6.03 6.03 0 0 0-.75-.36l-.27-.1c-.02 0-.02 0 0-.02l.49-.4z"/>
  <path fill="#B85D2E" d="M32.94 34.8l-.33-.19a5.68 5.68 0 0 0-1.05-.5l.02-.03.5-.4.02-.02h.02l.5.24.4.21-.02.67-.06.03zm-1.28-.7l.24.1c.25.1.5.21.74.35l.3.18.01-.58-.36-.2a5.41 5.41 0 0 0-.48-.21l-.45.36z"/>
  <path fill="#FFF100" d="M29.13 33.21l-.08.19-.18.38h-.05l-.2-.38-.07-.13.28-.55h.02l.28.5z"/>
  <path fill="#B85D2E" d="M28.89 33.81h-.09l-.3-.54.3-.59h.07l.3.53-.09.2-.2.4zm-.05-.07l.25-.52-.25-.45-.26.5.07.12.2.35z"/>
  <path fill="#FFF100" d="M27.63 34.05l-.33-.27-.15-.13.05-.57.01-.01.5.4-.02.14-.02.43-.04.01z"/>
  <path fill="#B85D2E" d="M27.62 34.1l-.5-.43.05-.61.04-.03.53.42-.02.16-.02.46-.08.02zm-.43-.46l.13.12.31.26.04-.54-.44-.36-.04.52z"/>
  <path fill="#FFF100" d="M27.2 33.04a7.2 7.2 0 0 1 1.63-.36l-.28.6c-.28.05-.56.11-.83.2h-.02v-.02l-.5-.4v-.02z"/>
  <path fill="#B85D2E" d="M27.72 33.5h-.05v-.02l-.5-.4v-.06h.02c.52-.19 1.06-.31 1.62-.37h.08l-.3.62.02.04-.05.01c-.28.04-.56.1-.83.18zm-.46-.44l.46.37c.27-.07.53-.13.8-.17l.25-.54c-.52.06-1.03.17-1.51.34z"/>
  <path fill="#FFF100" d="M26.26 34.07v.2l.01.43-.04.01-.34-.25-.13-.08.01-.62.02-.01.47.32z"/>
  <path fill="#B85D2E" d="M26.22 34.75l-.49-.35.01-.66.05-.04.5.36.01.21v.45l-.08.03zm-.42-.39l.1.08.34.23v-.58l-.44-.3v.57z"/>
  <path fill="#FFF100" d="M25.3 35.5l-.44-.12-.2-.05-.2-.55h.01l.61.13.06.14.17.43v.01z"/>
  <path fill="#B85D2E" d="M25.32 35.53l-.67-.17-.23-.6.05-.02.64.15.06.15.18.45-.03.04zm-.62-.23l.17.05.4.1-.21-.5-.55-.13.19.48z"/>
  <path fill="#FFF100" d="M24.45 34.75c.39-.38.83-.73 1.31-1.03v.66h.01a6.9 6.9 0 0 0-.67.54h-.01l-.64-.15v-.02z"/>
  <path fill="#B85D2E" d="M25.07 34.97l-.01-.02-.63-.15-.02-.05.02-.02c.38-.39.82-.73 1.3-1.02l.02-.01.04-.03v.7l.04.02-.04.02c-.23.17-.46.34-.67.53l-.05.03zm-.57-.22l.59.13c.2-.18.42-.35.64-.5v-.6c-.45.28-.86.6-1.23.97z"/>
  <path fill="#FFF100" d="M24.05 36.09l.1.18.2.4-.02.02-.45-.08-.14-.03-.26-.55.02-.03.55.09z"/>
  <path fill="#B85D2E" d="M24.34 36.72l-.63-.1-.27-.6.05-.05.59.1.1.18.2.43-.04.04zm-.58-.17l.13.02.4.07-.26-.52-.5-.08.23.51z"/>
  <path fill="#FFF100" d="M23.8 37.78l-.45.1-.19.03-.41-.39v-.02l.6-.14.11.1.34.3v.02z"/>
  <path fill="#B85D2E" d="M23.15 37.95l-.43-.41v-.07l.64-.15.13.12.34.3v.07l-.68.14zm-.35-.43l.37.35.18-.03.4-.08-.4-.36-.55.12z"/>
  <path fill="#FFF100" d="M22.72 37.49c.18-.52.43-1.02.73-1.5l.29.6h.01c-.14.25-.27.5-.38.77h-.01l-.63.15-.01-.02z"/>
  <path fill="#B85D2E" d="M22.72 37.54l-.04-.04v-.02a7.4 7.4 0 0 1 .74-1.5l.03.01.03-.01.28.57h.04l-.02.05c-.14.25-.27.5-.38.77l-.04.05-.01-.02-.63.14zm.73-1.48c-.28.44-.51.91-.69 1.4l.59-.13c.1-.25.22-.5.36-.73l-.26-.54z"/>
  <path fill="#FFF100" d="M22.94 38.87l.15.12.37.28v.01l-.45.13-.15.04-.49-.4v-.02l.57-.16z"/>
  <path fill="#B85D2E" d="M22.86 39.48l-.52-.42V39l.6-.18.17.13.38.3v.04l-.63.18zm-.42-.43l.43.36.13-.04.4-.11-.47-.36-.5.15z"/>
  <path fill="#FFF100" d="M23.43 40.51l-.35.27-.16.11-.55-.17v-.02l.49-.39.14.05.42.12.01.03z"/>
  <path fill="#B85D2E" d="M22.93 40.93l-.59-.18v-.06l.51-.41.16.04.44.13.02.08-.54.4zm-.5-.23l.49.16.14-.1.32-.25-.52-.16-.44.35z"/>
  <path fill="#FFF100" d="M22.34 40.7a7.32 7.32 0 0 1 .01-1.66l.51.4h.02c-.03.29-.03.58-.01.86v.01h-.01l-.5.4h-.02z"/>
  <path fill="#B85D2E" d="M22.36 40.75l-.05-.02v-.02a7.3 7.3 0 0 1 0-1.67l.01-.06.04.02.03.02.48.39.04-.02v.05a6.5 6.5 0 0 0 0 .86l-.02.06-.02-.01-.5.4zm.02-1.64a7.2 7.2 0 0 0-.01 1.55l.47-.37a6.57 6.57 0 0 1 0-.82l-.46-.36z"/>
  <path fill="#FFF100" d="M23.13 41.85l.2.04.45.1-.35.32-.1.1-.62-.15v-.02l.42-.39z"/>
  <path fill="#B85D2E" d="M23.33 42.44l-.64-.15-.02-.06.46-.42.2.05.48.1v.05l-.48.43zm-.57-.2l.55.13.1-.09.3-.27-.56-.12-.39.35z"/>
  <path fill="#FFF100" d="M24.3 43.12l-.2.39-.1.17-.58.09v-.02l.27-.56.14-.02.45-.08.01.03z"/>
  <path fill="#B85D2E" d="M23.4 43.8l-.02-.05.29-.6.16-.02.47-.07.03.06-.3.6-.63.08zm.31-.58l-.24.5.51-.07.08-.16.19-.36-.54.09z"/>
  <path fill="#FFF100" d="M23.4 43.77a7.3 7.3 0 0 1-.72-1.5l.64.14.01-.01c.1.26.23.52.37.77v.02l-.29.58h-.02z"/>
  <path fill="#B85D2E" d="M23.38 43.8l-.01-.01a7.3 7.3 0 0 1-.68-1.4l-.04-.12.04-.04.62.14.03-.03.02.04c.1.27.23.53.37.78v.02l.01.04h-.03l-.28.58h-.05zm-.65-1.5l.02.06c.17.47.39.93.65 1.35l.26-.54a7.22 7.22 0 0 1-.35-.73l-.58-.13z"/>
  <path fill="#FFF100" d="M24.6 44.46l.2-.05.43-.1h.02l-.18.43-.06.13-.62.14V45l.22-.54z"/>
  <path fill="#B85D2E" d="M24.37 45.05l-.02-.05.23-.57.21-.06.45-.1.05.03-.25.6-.67.15zm.26-.57l-.19.48.55-.12.05-.11.16-.38-.57.13z"/>
  <path fill="#FFF100" d="M26.2 45.09v.44l-.02.2-.47.31h-.02v-.62l.12-.08.37-.26h.02z"/>
  <path fill="#B85D2E" d="M25.72 46.08l-.07-.02v-.66l.14-.1.38-.26.07.02-.02.69-.5.33zm0-.64V46l.43-.29v-.18l.02-.4-.45.3z"/>
  <path fill="#FFF100" d="M25.67 46.07a7.41 7.41 0 0 1-1.27-1.03c-.04-.04.54-.15.62-.17a7 7 0 0 0 .67.53v.66l-.02.01z"/>
  <path fill="#B85D2E" d="M25.67 46.11l-.01-.01c-.46-.3-.9-.64-1.28-1.03l-.02-.02v-.03c.02-.04.1-.07.57-.16l.06-.02.02-.04.03.03c.21.2.44.38.67.54v.01l.03.04-.02.02v.64l-.05.03zm-1.22-1.07c.37.37.77.7 1.2.98v-.6a7.31 7.31 0 0 1-.63-.51l-.08.01c-.1.02-.4.08-.5.12z"/>
  <path fill="#FFF100" d="M27.06 46.16l.16-.12.34-.28h.02l.02.46.01.14-.5.4v-.01l-.05-.59z"/>
  <path fill="#B85D2E" d="M27.12 46.79l-.05-.02-.04-.62.52-.44.07.03.03.64-.53.4zm-.02-.61l.03.51.45-.35-.01-.12-.02-.41-.45.37z"/>
  <path fill="#FFF100" d="M28.77 46.04l.19.4.08.19-.29.49h-.03l-.26-.56.07-.12.22-.4h.02z"/>
  <path fill="#B85D2E" d="M28.77 47.15h-.07l-.28-.6.08-.13.22-.4.07-.02.28.63-.3.52zm-.28-.59l.25.51.26-.45-.07-.16-.17-.37-.27.47z"/>
  <path fill="#FFF100" d="M28.73 47.16c-.29-.03-1.63-.39-1.61-.4l.5-.4v-.01c.27.08.55.15.83.2h.01v.01l.27.58v.02z"/>
  <path fill="#B85D2E" d="M28.75 47.2h-.03c-.02-.01-1.62-.36-1.63-.43l-.01-.02.02-.01.48-.4v-.04l.04.01c.27.09.55.15.83.2h.01l.05.03-.01.02.27.58-.02.05zm-1.56-.45c.24.07 1.2.32 1.5.37l-.26-.54a6.8 6.8 0 0 1-.8-.2l-.44.37z"/>
  <path fill="#FFF100" d="M30.02 46.64l.08-.18.2-.4.01-.01.22.4.07.13-.28.57h-.01l-.3-.51z"/>
  <path fill="#B85D2E" d="M30.34 47.19l-.05-.01-.3-.54.08-.2.2-.42.06-.01.3.57-.3.6zm-.28-.55l.25.44.25-.5-.06-.11-.2-.36-.24.53z"/>
  <path fill="#FFF100" d="M31.5 45.79l.35.28.15.13-.05.57-.01.02-.5-.4.02-.14.03-.45.02-.01z"/>
  <path fill="#B85D2E" d="M31.93 46.83l-.52-.42.02-.16.02-.47.06-.03.52.44-.05.6-.05.04zm-.45-.45l.44.35.04-.51-.13-.12-.31-.26-.04.54z"/>
  <path fill="#FFF100" d="M31.95 46.82a7.4 7.4 0 0 1-1.63.35l.28-.59v-.01c.28-.04.56-.1.83-.18h.02l.5.4v.03z"/>
  <path fill="#B85D2E" d="M30.26 47.21l.3-.63-.02-.04h.05c.28-.05.56-.1.83-.19h.06v.03l.5.4v.06h-.03c-.51.19-1.06.3-1.61.36h-.02l-.06.01zm.37-.61l-.25.53a7.36 7.36 0 0 0 1.52-.33l-.47-.38a6.7 6.7 0 0 1-.8.18z"/>
  <path fill="#FFF100" d="M32.89 45.78v-.2l-.01-.45h.01l.37.27.12.08v.63h-.01l-.48-.33z"/>
  <path fill="#B85D2E" d="M33.36 46.15l-.5-.35-.01-.21v-.48l.04-.03.53.38v.68l-.06.01zm-.44-.39l.42.3.01-.56-.1-.08-.34-.24v.58z"/>
  <path fill="#FFF100" d="M33.86 44.37l.43.11.2.05.2.54-.01.02-.61-.15-.06-.13-.17-.42.02-.02z"/>
  <path fill="#B85D2E" d="M34.69 45.12l-.65-.15-.06-.15-.18-.44.05-.04.65.16.22.58-.03.04zm-.6-.2l.55.12-.19-.48-.17-.05-.4-.1.2.5z"/>
  <path fill="#FFF100" d="M34.7 45.1c-.39.39-.83.73-1.3 1.03h-.01v-.65h-.02c.24-.17.47-.35.68-.54h.01l.63.15v.02z"/>
  <path fill="#B85D2E" d="M33.39 46.17h-.02l-.02-.03v-.64l-.04-.03.04-.03c.23-.16.46-.33.68-.52l.02-.01.03-.02v.02l.64.15.02.05-.02.02c-.39.39-.83.73-1.3 1.02l-.03-.02.02.03h-.02zm.03-.69v.6c.44-.28.85-.6 1.22-.97l-.58-.14a6 6 0 0 1-.64.51z"/>
  <path fill="#FFF100" d="M35.1 43.77L35 43.6l-.2-.4.02-.02.44.08.15.02.26.56v.02h-.02l-.56-.09z"/>
  <path fill="#B85D2E" d="M35.71 43.9h-.06l-.57-.1-.1-.2-.2-.4.03-.06.63.11.27.59v.05zm-.59-.16l.51.08-.24-.51-.12-.02-.41-.07.26.52z"/>
  <path fill="#FFF100" d="M35.34 42.08l.46-.1.2-.03.42.4v.01l-.62.14-.11-.1-.35-.31z"/>
  <path fill="#B85D2E" d="M35.79 42.54l-.12-.11-.36-.33v-.04l.03-.01.67-.14.44.43v.05l-.66.15zm-.38-.44l.4.36.55-.12-.38-.35-.17.03-.4.08z"/>
  <path fill="#FFF100" d="M36.44 42.37a7.26 7.26 0 0 1-.74 1.5l-.28-.6h-.02c.15-.24.27-.5.38-.76l.01-.02.01.01.63-.14.01.01z"/>
  <path fill="#B85D2E" d="M35.7 43.94l-.3-.63h-.05l.02-.05c.15-.24.27-.5.38-.77l.04-.04.02.02.63-.15.04.04v.02a7.36 7.36 0 0 1-.75 1.5l-.03.06zm-.25-.67l.26.53c.27-.44.5-.91.68-1.4l-.58.13c-.1.26-.23.5-.36.74z"/>
  <path fill="#FFF100" d="M36.22 41l-.16-.12-.35-.28v-.02l.44-.12.14-.04.49.4v.01l-.56.17z"/>
  <path fill="#B85D2E" d="M36.21 41.03l-.17-.13-.37-.29.02-.06.61-.17.52.43-.01.05-.6.17zm-.44-.43l.46.36.5-.15-.44-.36-.13.04-.4.11z"/>
  <path fill="#FFF100" d="M35.71 39.36l.37-.28.16-.11.56.18-.5.4-.14-.05-.45-.13z"/>
  <path fill="#B85D2E" d="M36.3 39.59l-.15-.05-.47-.14v-.05l.55-.42.6.2.01.03-.02.02-.51.4zm-.52-.23l.51.15.45-.35-.5-.15-.14.1-.32.25z"/>
  <path fill="#FFF100" d="M36.82 39.16c.06.54.06 1.1-.02 1.67l-.5-.41h-.02a6.8 6.8 0 0 0 0-.86l.01-.01h.01l.5-.4h.02z"/>
  <path fill="#B85D2E" d="M36.83 40.88l-.54-.43-.05.02v-.05a6.5 6.5 0 0 0 .02-.86l.01-.06.03.01.5-.4.05.02v.02c.07.55.06 1.1 0 1.66v.02h-.01v.05zm-.51-.49l.46.37a7.3 7.3 0 0 0 .01-1.56l-.47.37c.02.28.02.55 0 .82z"/>
  <path fill="#FFF100" d="M36.03 38.01l-.2-.04-.44-.1.34-.31.11-.1.62.15-.43.4z"/>
  <path fill="#B85D2E" d="M36.04 38.05l-.21-.05-.46-.1-.03-.05.5-.43.66.16v.05l-.02.01-.44.4zm-.6-.2l.58.13.38-.36-.55-.13-.1.09-.3.27z"/>
  <path fill="#FFF100" d="M34.86 36.76l.21-.4.1-.18.57-.09v.01l-.27.57-.14.02-.46.08v-.01z"/>
  <path fill="#B85D2E" d="M34.85 36.8l-.02-.04.31-.62.61-.08.04.04-.3.6-.16.03-.48.07zm.34-.6l-.09.17-.18.36.53-.09.25-.5-.51.07z"/>
  <path fill="#FFF100" d="M35.77 36.1c.29.46.53.97.71 1.5l-.64-.14h-.01c-.1-.26-.23-.52-.36-.77v-.02l.28-.58h.02z"/>
  <path fill="#B85D2E" d="M36.53 37.64l-.68-.15-.03.03-.02-.04c-.1-.27-.22-.53-.36-.78l-.01-.06h.02l.28-.58.06-.01v.02c.3.47.54.98.72 1.52l.02.05zm-.68-.21l.58.12c-.17-.5-.4-.96-.66-1.4l-.26.54a7 7 0 0 1 .34.74z"/>
  <path fill="#FFF100" d="M34.56 35.4l-.2.05-.44.1.18-.43.05-.14.62-.13-.21.55z"/>
  <path fill="#B85D2E" d="M33.9 35.6l-.02-.05.25-.6.64-.13h.04v.05l-.23.56-.2.06-.47.1zm.28-.59l-.05.12-.17.38.57-.13.2-.48-.55.11z"/>
  <path fill="#FFF100" d="M32.97 34.76l.01-.44v-.2l.5-.32v.64l-.12.08-.37.26-.02-.02z"/>
  <path fill="#B85D2E" d="M32.98 34.82l-.05-.04.02-.67.51-.34h.06v.69l-.14.09-.4.27zm.04-.68v.18l-.02.4.45-.3v-.56l-.43.28z"/>
  <path fill="#FFF100" d="M33.5 33.79c.46.3.9.64 1.3 1.05h-.01l-.64.15c-.21-.19-.44-.37-.67-.53v-.66l.02-.01z"/>
  <path fill="#B85D2E" d="M34.16 35.06l-.04-.04c-.2-.2-.43-.37-.66-.54l-.03-.04.02-.02v-.64l.05-.03h.02c.46.3.9.65 1.28 1.05l.02.02.04.04-.68.15-.02.05zm-.65-.62c.22.15.44.33.64.51l.57-.13c-.36-.37-.77-.7-1.2-.98v.6z"/>
  <path fill="#FFF100" d="M32.1 33.7l-.14.12-.36.29h-.01l-.02-.47-.01-.15.48-.37.02-.01.05.58z"/>
  <path fill="#B85D2E" d="M31.6 34.15l-.05-.03-.03-.64.53-.41.05.02.04.62-.16.13-.38.3zm0-.64v.13l.02.4.45-.36-.03-.52-.45.35z"/>
  <path fill="#FFF100" d="M30.39 33.79l-.18-.39-.07-.18.29-.5h.01l.28.57-.08.13-.21.37h-.04z"/>
  <path fill="#B85D2E" d="M30.45 33.82h-.08l-.27-.6.3-.53.06-.01.3.6-.09.15-.22.4zm-.04-.06l.27-.47-.25-.51-.26.44.07.17.17.37z"/>
  <path fill="#FFF100" d="M30.45 32.7c.54.06 1.09.19 1.62.38l-.51.41v.02a6.61 6.61 0 0 0-.83-.2l-.02-.01-.27-.6z"/>
  <path fill="#B85D2E" d="M31.6 33.55l-.05-.01a6.64 6.64 0 0 0-.83-.2h-.01l-.05-.03.02-.02-.28-.59.03-.04h.02c.55.06 1.1.2 1.63.39l.06.02-.55.43v.05zm-.86-.28c.27.05.54.12.8.2l.46-.38c-.5-.17-1-.3-1.52-.35l.26.53zM29.58 40.85a.93.93 0 1 1 0-1.85.93.93 0 0 1 0 1.85zm0-1.79a.86.86 0 1 0 0 1.73.86.86 0 0 0 0-1.73z"/>
  <path fill="#B85D2E" d="M29.58 41.38a1.45 1.45 0 1 1 0-2.9 1.45 1.45 0 0 1 0 2.9zm0-2.84a1.38 1.38 0 1 0 0 2.77 1.38 1.38 0 0 0 0-2.77z"/>
  <path fill="#B85D2E" d="M29.58 42.91a3 3 0 1 1 0-5.98 3 3 0 0 1 0 5.98zm0-5.9a2.93 2.93 0 1 0 0 5.84 2.93 2.93 0 0 0 0-5.85z"/>
  <path fill="#B85D2E" d="M29.58 44.25a4.33 4.33 0 1 1 0-8.66 4.33 4.33 0 0 1 0 8.66zm0-8.58a4.26 4.26 0 1 0 0 8.52 4.26 4.26 0 0 0 0-8.52z"/>
  <path fill="#B85D2E" d="M29.58 44.7a4.8 4.8 0 1 1 0-9.57 4.8 4.8 0 0 1 0 9.58zm0-9.5a4.72 4.72 0 1 0 0 9.45 4.72 4.72 0 0 0 0-9.44z"/>
  <path fill="#EC1C24" d="M29.57 46.82s2.69.07 5.52.91c.74.22 1.94-.24 2.58-1.17.24-.35.56-.76.88-1.13l.16-.33c.14-.33.21-.66.12-1l-1.39-.56-1.38-.47h-.02l-1.64-.5-1.8-.32-1.6-.3-1.43.01-1.43-.02-1.6.3-1.8.32c-1.3.4-3.09 1.03-4.38 1.47l-.18.1c.18.23.01.63.21.9.33.45.7.96 1.08 1.53.65.94 1.85 1.39 2.58 1.17 2.84-.84 5.52-.9 5.52-.9z"/>
  <path fill="#B85D2E" d="M35.5 47.82c-.16 0-.3-.02-.42-.06-2.8-.83-5.48-.9-5.5-.9-.03 0-2.72.07-5.51.9a1.5 1.5 0 0 1-.41.06c-.8 0-1.7-.51-2.21-1.25l-1.08-1.52c-.1-.15-.11-.33-.12-.5 0-.16-.01-.3-.09-.4l-.02-.04.21-.1.9-.32c1.16-.4 2.47-.84 3.49-1.15l1.8-.32 1.6-.3 1.44.01 1.42-.02 1.62.3 1.8.32 1.66.51 1.38.47 1.4.58v.01c.09.3.05.63-.11 1.02l-.17.33c-.3.36-.63.77-.87 1.12a2.91 2.91 0 0 1-2.22 1.25zm-5.93-1.03c.03 0 2.73.08 5.53.9.12.04.25.06.4.06.77 0 1.65-.5 2.14-1.21.25-.36.57-.77.88-1.13l.16-.32c.16-.37.2-.67.12-.96l-1.37-.56-1.4-.47-1.64-.5-1.79-.32-1.6-.3-1.42.02-1.43-.02-1.6.3-1.8.32c-1.01.3-2.32.76-3.47 1.15-.32.11-.62.22-.9.3l-.15.08c.08.12.08.27.09.41 0 .17 0 .33.1.47l1.08 1.52c.5.72 1.38 1.22 2.16 1.22.14 0 .27-.02.39-.05 2.8-.83 5.5-.91 5.52-.91z"/>
  <path fill="#FFF100" d="M31.66 49.02s-.3.8-.63.16c-.52.37-.77.31-1.06-.12-.37.54-.58.68-.93.14-.37.56-.93.38-.95.03-.56.45-.82.2-.84-.23l.11-2.02c.85-.04 1.97-.18 2.24-.16.27.03 1.73.1 1.92.19.02.58.14 2 .14 2z"/>
  <path fill="#B85D2E" d="M28.48 49.6c-.2 0-.38-.13-.42-.31-.18.14-.34.21-.48.21-.21 0-.35-.19-.37-.5l.12-2.05h.03c.4-.02.85-.06 1.25-.1.46-.04.85-.07 1-.06l.21.02c.8.05 1.57.1 1.71.17h.02v.03c.02.57.15 1.99.15 2v.02c-.01.02-.17.44-.4.44-.1 0-.2-.08-.29-.23-.22.15-.4.22-.54.22-.18 0-.33-.1-.5-.34-.2.29-.36.46-.53.46-.13 0-.25-.1-.4-.32-.15.21-.35.33-.56.33zm-.36-.44v.07c.01.17.17.3.36.3.2 0 .39-.13.54-.34l.02-.05.03.05c.14.21.26.32.37.32.15 0 .3-.18.5-.47l.03-.04.02.04c.17.25.31.35.48.35.14 0 .3-.07.53-.23l.03-.03.02.04c.08.15.16.23.24.23.15 0 .3-.27.34-.39a63 63 0 0 1-.15-1.98c-.2-.06-1.22-.13-1.67-.16l-.22-.02-.98.07-1.22.1-.11 1.98c0 .12.05.43.3.43.13 0 .3-.08.49-.23l.05-.04z"/>
  <path fill="#B85D2E" d="M30.5 49.12l-.04-2.27h.04l.62.06h.03v.03l.02 2.15-.67.03zm.03-2.2l.04 2.13.53-.02-.01-2.06-.56-.05zM29.48 49.04v-.03c.04-.56.03-1.3.03-1.78v-.4c0-.02 0-.04.05-.04h.04l.26.02.16.01.02 2.2-.56.02zm.1-2.19v.38c0 .47 0 1.2-.03 1.74l.42-.02-.02-2.07h-.1l-.26-.03h-.02zM28.53 49.08l-.04-2.22.5-.04v2.24l-.46.02zm.03-2.15l.03 2.08.33-.02v-2.1l-.36.04zM28.1 49.19h-.46l-.01-2.25h.03l.45-.04h.03l-.03 2.29zm-.39-.07h.33l.04-2.15-.39.03.02 2.12zM26.55 48.02l.02.07.69-.22-.02-.06-.69.21zM25.64 47.82l.01.06.75-.22-.02-.06-.74.22z"/>
  <path fill="#FFF100" d="M43.15 32.77s.5-3.08 0-4.99a14.3 14.3 0 0 0-1.75-3.77s1.02.54 2.69 2.75a14.23 14.23 0 0 0-1.23-4.61c-.6-1.27-1.23-3.2-3.62-5.75 1.64.43 3.94 3.03 3.94 3.03l1.47 2.1 1.52 6.4.1 3.48-3.12 1.36z"/>
  <path fill="#B85D2E" d="M43.11 32.83l.01-.06c0-.04.49-3.1 0-4.98a14.32 14.32 0 0 0-1.75-3.76l.05-.05s1.01.55 2.63 2.67a14.28 14.28 0 0 0-1.5-5.1 16.14 16.14 0 0 0-3.34-5.13l.04-.05c1.63.43 3.93 3 3.96 3.03l1.48 2.13 1.52 6.39.1 3.5-3.2 1.4zm-1.6-8.71c.29.45 1.26 2.05 1.68 3.65.44 1.75.07 4.5 0 4.94l3.05-1.33-.1-3.46-1.52-6.37-1.47-2.1c-.02-.03-2.2-2.48-3.8-2.99 1.97 2.13 2.71 3.82 3.26 5.05l.28.62c.48.98 1.17 3.13 1.23 4.62l-.06.02a11.6 11.6 0 0 0-2.55-2.65z"/>
  <path fill="#B85D2E" d="M41.73 37.41l-.54-.74v-.02l.09-1.02.3-1.28 1.27-1.74 1.85-1.24 4.2-2.47c.93-1.12.83-2.8.32-3.98l.05-.04.42.3.35.4.12 1.12c0 .06-.25 1.47-.38 1.72-.16.34-.14 1.02.05 1.6.13.42.16.77-.13 1.31-.3.64-1.56 1.59-4 3a18.59 18.59 0 0 0-3.94 3.05l-.03.03zm-.47-.76l.48.65c.22-.23 1.73-1.76 3.94-3.04 2.41-1.39 3.67-2.33 3.96-2.96.28-.52.26-.86.12-1.26-.19-.59-.2-1.3-.03-1.64.11-.25.35-1.6.37-1.7l-.12-1.1-.34-.37-.31-.23c.48 1.2.54 2.84-.39 3.94v.01l-4.2 2.48-1.85 1.23-1.25 1.72-.3 1.25-.08 1.02z"/>
  <path fill="#FFF100" d="M44.93 31.1s.25-3.03-.07-4.78a15.22 15.22 0 0 0-5.36-9.45c.22.04.48.16.7.27 1.53.8 2.85 3.06 3.64 4.53a16.94 16.94 0 0 1 1.9 6.47l.03 1.3-.15 1.28-.7.38z"/>
  <path fill="#B85D2E" d="M44.89 31.16v-.06c0-.03.25-3.05-.06-4.78-.3-1.7-1-5.65-5.35-9.43l.03-.06c.19.04.43.13.71.28 1.5.78 2.8 2.97 3.65 4.55a16.94 16.94 0 0 1 1.9 6.47l.04 1.31-.16 1.3-.76.42zm-5.26-14.23a15.25 15.25 0 0 1 5.27 9.38c.28 1.6.1 4.29.07 4.73l.62-.34.15-1.26-.03-1.3a16.87 16.87 0 0 0-1.9-6.45c-.84-1.57-2.13-3.75-3.62-4.52-.22-.11-.4-.2-.56-.24z"/>
  <path fill="#FFF100" d="M41.14 36.13s.13-1.9 2.18-3.68c.9-.63 2.46-1.74 3.29-1.98.82-.25 3.82-2.3 3.92-3.63.11-1.32-.74-2.14-1.27-2.22l.18.87c.56.43.61 1.81.06 2.33-1.1 1.03-1.95 1.68-4.58 3.03-1.68 1.14-2.88 2.25-3.12 2.92-.11.4-.44 1.2-.6 1.75-.1.34-.06.61-.06.61z"/>
  <path fill="#B85D2E" d="M41.1 36.13s-.02-.28.08-.62c.08-.31.22-.69.35-1.02.1-.28.2-.55.25-.73.24-.67 1.4-1.77 3.12-2.94 2.58-1.32 3.46-1.98 4.58-3.03.25-.23.4-.7.38-1.2-.02-.47-.19-.88-.44-1.08l-.2-.93.04.01c.53.08 1.42.9 1.3 2.26-.1 1.34-3.08 3.4-3.94 3.65-.74.22-2.1 1.16-3 1.78l-.28.2c-2 1.75-2.16 3.63-2.17 3.65h-.06zm8.37-10.66c.26.2.43.63.45 1.12.02.52-.13 1-.4 1.25-1.12 1.06-2 1.71-4.58 3.04-1.7 1.16-2.87 2.24-3.1 2.9a14.2 14.2 0 0 1-.45 1.27 6.78 6.78 0 0 1 2.2-2.83c.9-.62 2.26-1.56 3-1.79.84-.24 3.8-2.3 3.91-3.6.1-1.26-.69-2.05-1.2-2.17l.17.81z"/>
  <path fill="#FFF100" d="M20.94 43.67c-1.64.7-2.67.29-2.88-.3-.15-.44-.13-.93.34-1.11a.77.77 0 0 1 .65.08c.54.32.53.88 1.32.97.33.04.67-.05.9-.3.54-.6.7-1.68.03-2.35-.67-.66-2.44-.61-3.78.21-1.6.88-2.8 2.21-4.04 1.08-.54-.56-.2-1.35-.2-1.35l-.52-.7c-.37 1.68.11 2.1.34 2.39.49.51 1.28 1.02 2.18.59.9-.44 2.19-1.32 2.19-1.32.72-.46 3-1.51 3.78-.05.1.28.04.73-.2 1-.7.8-1.44-.49-2.02-.7-.37-.14-.8-.12-1.2.3-.64.62-.4 1.79.41 2.16.57.26 1.93.38 2.93-.24a20.36 20.36 0 0 1 8.45-1.92c3.79.03 6.98 1.29 8.37 1.92 1 .62 2.36.5 2.93.24.81-.37 1.05-1.54.42-2.17-.42-.4-.84-.43-1.2-.3-.6.22-1.34 1.52-2.04.71-.23-.27-.3-.72-.2-1 .78-1.46 3.07-.4 3.79.05 0 0 1.28.88 2.18 1.32.9.43 1.7-.08 2.19-.6.22-.27.72-.57.4-2.17l-.47.72c.06.3.07.72-.31 1.12-1.24 1.13-2.45-.2-4.04-1.08-1.34-.82-3.11-.87-3.78-.2-.67.66-.51 1.74.03 2.34.27.29.67.35 1.04.27.66-.14.67-.59 1.11-.9.2-.13.47-.22.73-.12.46.18.48.67.33 1.1-.2.6-1.23 1-2.88.31a20.26 20.26 0 0 0-8.6-1.95c-3.05.08-5.88.61-8.68 1.95z"/>
  <path fill="#B85D2E" d="M39.71 44.51c-.46 0-1.14-.08-1.74-.45a21.24 21.24 0 0 0-8.35-1.92c-2.7-.02-5.7.66-8.43 1.92-.6.37-1.28.45-1.74.45-.47 0-.92-.08-1.22-.21-.4-.19-.7-.57-.78-1.04-.08-.45.05-.89.35-1.18.37-.37.79-.47 1.24-.3.19.06.39.24.6.42.3.27.61.54.92.54.17 0 .32-.08.47-.25.24-.28.29-.72.19-.96-.26-.49-.7-.73-1.34-.73-.91 0-1.96.52-2.4.8 0 0-1.3.87-2.18 1.3-.23.12-.47.17-.7.17-.66 0-1.2-.42-1.53-.77a1.17 1.17 0 0 0-.04-.05c-.25-.3-.65-.77-.3-2.37l.01-.07.58.78-.01.02s-.32.77.2 1.31c.3.29.63.43.99.43.62 0 1.25-.41 1.99-.89.32-.21.66-.43 1.01-.62.7-.43 1.54-.67 2.34-.67.65 0 1.18.16 1.48.47.68.67.53 1.77-.02 2.38-.25.27-.56.32-.78.32h-.15c-.5-.06-.69-.3-.89-.55-.12-.15-.24-.3-.45-.42a.83.83 0 0 0-.4-.12.62.62 0 0 0-.22.04c-.57.21-.39.87-.32 1.06.11.31.5.65 1.28.65.47 0 .99-.12 1.56-.36a20.66 20.66 0 0 1 8.68-1.96h.22c1.01 0 4.61.14 8.4 1.96.57.24 1.1.36 1.56.36.77 0 1.17-.34 1.28-.65.06-.2.24-.85-.32-1.06a.6.6 0 0 0-.21-.04.86.86 0 0 0-.48.16c-.17.12-.27.25-.37.38-.17.22-.34.43-.75.53l-.3.03c-.22 0-.54-.06-.78-.32-.56-.61-.7-1.72-.02-2.4.3-.3.83-.46 1.48-.46.8 0 1.64.25 2.34.67.35.2.69.41 1.01.62.74.48 1.37.89 2 .89.35 0 .67-.14.98-.42.4-.42.36-.83.3-1.1v-.01l.48-.73.06.01c.3 1.44-.08 1.85-.32 2.11a1.4 1.4 0 0 0-.08.1c-.33.34-.87.76-1.52.76-.24 0-.48-.06-.7-.17-.9-.43-2.18-1.3-2.2-1.3a5.15 5.15 0 0 0-2.39-.8c-.63 0-1.08.24-1.34.73-.1.24-.05.68.2.96.14.16.3.25.46.25.31 0 .62-.27.92-.54.21-.18.42-.36.6-.43.45-.16.87-.06 1.24.3.3.3.43.74.35 1.19-.08.46-.37.85-.78 1.03-.3.14-.75.22-1.22.22zm-10.23-2.44h.14c3.88.04 7.15 1.36 8.38 1.93.6.37 1.26.44 1.71.44.46 0 .9-.07 1.2-.2.38-.18.65-.55.73-1 .07-.42-.05-.84-.33-1.11-.35-.35-.74-.45-1.17-.3-.17.07-.37.24-.58.42-.3.27-.63.55-.96.55-.2 0-.36-.08-.52-.27a1.11 1.11 0 0 1-.2-1.03c.27-.51.74-.77 1.4-.77.92 0 2 .53 2.42.8.02.02 1.3.88 2.19 1.32.22.1.44.16.67.16.63 0 1.15-.4 1.47-.75l.08-.09c.23-.25.58-.63.32-1.97l-.41.64c.06.28.08.71-.32 1.14-.33.3-.67.44-1.04.44-.64 0-1.28-.41-2.03-.9-.32-.2-.66-.42-1.01-.62a4.5 4.5 0 0 0-2.3-.66c-.64 0-1.15.16-1.44.45-.65.65-.5 1.7.02 2.3.23.24.53.3.74.3.09 0 .18-.02.28-.04.4-.08.55-.28.71-.5.1-.13.21-.27.39-.39.12-.08.3-.17.51-.17a.7.7 0 0 1 .24.04c.5.2.5.72.36 1.15-.12.33-.53.7-1.35.7-.47 0-1-.13-1.58-.37a20.35 20.35 0 0 0-8.59-1.95c-3.3.08-6.06.7-8.66 1.95a4.1 4.1 0 0 1-1.58.36c-.81 0-1.23-.36-1.34-.7-.15-.42-.14-.95.35-1.14.21-.08.46-.05.69.09.21.12.34.28.46.44.2.24.37.46.84.52h.15c.2 0 .5-.05.73-.3.53-.58.67-1.64.03-2.29-.3-.29-.8-.45-1.44-.45-.78 0-1.62.24-2.3.66-.36.2-.7.41-1.01.62-.75.49-1.39.9-2.03.9a1.5 1.5 0 0 1-1.04-.44c-.5-.53-.26-1.25-.22-1.37l-.46-.64c-.32 1.51.07 1.97.3 2.24l.05.06c.32.34.83.74 1.47.74.22 0 .45-.05.67-.16.89-.43 2.17-1.3 2.18-1.3.44-.29 1.5-.82 2.43-.82.66 0 1.13.26 1.4.77.12.3.03.77-.2 1.04-.16.18-.33.27-.52.27-.33 0-.65-.28-.97-.55-.2-.18-.4-.35-.57-.42-.43-.15-.82-.06-1.17.29-.28.28-.4.7-.33 1.12.08.45.35.81.74.99.29.13.73.2 1.19.2.45 0 1.11-.07 1.7-.43a20.24 20.24 0 0 1 8.33-1.94z"/>
  <path fill="#FFF100" d="M25.2 45.34l.05.16-.11.03c-.03.01-.05.03-.04.06 0 .02.04.07.06.1l.36.5.01-.62v-.12c-.02-.02-.04-.03-.07-.02l-.1.03-.05-.15.5-.16.06.15-.04.01c-.08.03-.1.06-.1.15l-.02.99-.31.1-.58-.8c-.06-.08-.1-.09-.18-.06l-.04.01-.05-.15.65-.2zM26.74 45.16l-.1.02c-.05 0-.08.02-.06.08l.13.73c0 .05.04.07.08.06l.11-.02.03.16-.7.12-.02-.15.1-.03c.05 0 .07-.03.06-.08l-.13-.75c-.01-.03-.04-.04-.08-.03l-.11.02-.03-.16.7-.13.02.16zM27.06 45.18c0-.04-.03-.07-.07-.06l-.12.01-.01-.16 1.2-.13.05.46-.17.02c-.03-.26-.13-.29-.36-.26l-.18.02.04.34h.05c.1-.01.14-.06.13-.17v-.04l.14-.02.06.55-.15.02v-.05c-.01-.07-.04-.15-.11-.14l-.1.01.03.38.22-.02c.19-.03.29-.08.26-.37l.16-.01.06.49-1.2.12-.02-.16.1-.01c.06 0 .08-.03.07-.08l-.08-.74zm.26-.35h-.12l.16-.29.2-.02.21.26-.12.01-.18-.12-.15.16zM27.5 46.44a.11.11 0 1 0 0-.22.11.11 0 0 0 0 .22zM28.3 45.3v-.47l1.2-.04.01.46h-.17c0-.18-.06-.3-.27-.29l.03.82c0 .04.03.07.07.07h.11V46l-.7.03v-.16h.11c.05 0 .07-.04.07-.08l-.03-.81c-.2 0-.26.12-.25.3l-.17.01zM31.26 45.68l.04-.59c0-.05-.02-.08-.07-.08h-.1v-.16l.56.03v.16h-.12c-.04-.01-.07.01-.07.06l-.06.97-.37-.02-.45-.93-.04.67c0 .04.02.07.07.07l.1.01v.16l-.56-.03v-.16h.12c.04 0 .07-.02.07-.07l.05-.73c0-.05-.03-.08-.07-.08h-.11v-.17l.6.04.41.85zM32.29 44.95l-.42.86c-.06.1-.08.13-.15.12l-.06-.01-.02.16.53.07.02-.16h-.05c-.05-.01-.11-.03-.1-.05 0-.03 0-.06.03-.12l.03-.07.37.05.02.14V46c0 .02-.05.02-.1 0h-.06l-.02.16.66.09.02-.16h-.06c-.07-.02-.08-.04-.1-.16l-.19-.94-.35-.05zm.07.29l.08.4-.26-.03.18-.37zM33.98 45.26v.77l.41-.65.62.17-.04.15-.1-.02c-.04-.01-.07 0-.08.05l-.2.71c-.01.04 0 .08.05.09l.1.03-.05.15-.64-.18.05-.15.07.02c.04.01.07 0 .09-.05l.2-.74-.54.89-.26-.07v-1.06l-.21.75c-.02.05 0 .08.04.1l.08.01-.05.16-.5-.14.04-.16.1.03c.05.02.08 0 .1-.05l.2-.71c0-.05-.01-.08-.05-.1l-.11-.02.04-.16.64.18zM23.17 45.1l.02.06c.05.14.05.27-.11.34-.24.1-.32-.04-.41-.25l-.05-.11c-.09-.2-.13-.36.1-.46.13-.05.24-.02.3.11l.03.06-.14.06c-.03-.04-.06-.14-.14-.1-.11.04-.04.17-.02.23l.1.22c.02.07.08.17.18.12.07-.03.01-.16 0-.21l.14-.06zM23.19 44.26l-.06.2.12-.05.03-.11.1.06.12-.05-.18-.1-.13.05zm.07.73l-.05-.11c-.08-.2-.11-.36.12-.45.24-.1.32.04.4.24l.05.12c.08.21.13.37-.12.47-.24.1-.32-.05-.4-.27zm.1-.2l-.1.2.1-.2.08.22c.03.06.08.16.18.13.1-.05.06-.16.03-.23l-.08-.2c-.03-.07-.08-.21-.19-.17-.12.05-.05.19-.03.25zM23.75 45.4a.06.06 0 1 0 0-.13.06.06 0 0 0 0 .13zM24.14 44.14l.15-.06.3.8-.16.06-.22-.24a3.07 3.07 0 0 1-.22-.28l.1.22.09.22.05.15-.15.06-.3-.8.16-.06.22.25c.08.08.14.16.23.28l-.1-.22a5.38 5.38 0 0 1-.09-.23l-.06-.15zM24.56 44.37c-.08-.2-.1-.37.14-.45.13-.04.23-.04.3.09.03.03.04.06.05.1l-.15.05c-.03-.08-.06-.15-.16-.12-.12.04-.06.18-.04.24l.07.22c.03.07.07.18.17.14.08-.02.08-.12.04-.25l-.1.04-.05-.12.25-.09.15.44-.11.04-.03-.1c0 .1-.05.15-.1.17-.25.08-.33-.07-.4-.28l-.03-.12zM25.83 44.48l-.1-.38.2-.06.11.37.16-.04-.24-.82-.16.04.1.33-.22.06-.1-.32-.14.04.24.82.15-.04zM26.23 43.85c-.06-.22-.07-.38.17-.44.25-.06.31.09.36.3l.03.12c.06.22.09.38-.17.44-.25.07-.3-.09-.36-.3l-.03-.12zm.2.15c.02.07.05.18.16.15s.08-.14.06-.22l-.05-.2c-.02-.08-.05-.22-.17-.2-.12.04-.07.18-.05.24l.05.23zM26.39 43.19l.14.13-.11.03-.2-.12.17-.04zM26.97 44.17l.02-.87.2-.05.38.8-.17.03-.09-.2-.18.03v.22l-.16.04zm.16-.38l.13-.03-.1-.23-.03-.11-.02-.06v.06l.01.12v.25zM28.2 43.5l.13-.45-.18.03-.04.15c0 .05-.03.1-.02.16a.25.25 0 0 0-.05-.1l-.12-.17-.17.02.26.39-.14.45.17-.02.04-.17c.02-.05.03-.1.03-.16l.05.1.12.2.18-.03-.27-.4zM28.65 43.88l.03-.22.18-.02.06.21.17-.01-.27-.83-.21.02-.12.87.16-.02zm.06-.6v-.11-.06h.01l.01.06.03.11.07.24-.14.02.02-.25zM28.83 42.8c0 .03-.02.05-.04.05l-.06-.02c-.03-.01-.04-.02-.07-.01-.04 0-.1.05-.1.14h.06s0-.04.02-.05c.02-.01.05 0 .07 0l.08.03c.04 0 .09-.03.1-.14h-.06zM29.45 43.82v-.85h.17v.34h.22v-.34H30v.85h-.17v-.39h-.22v.4l-.16-.01zM30.18 43.34c.02-.21.06-.37.31-.35.26.02.27.18.25.4l-.01.12c-.02.22-.05.39-.31.36-.26-.02-.27-.19-.25-.41l.01-.12zm.15.21c0 .08-.01.19.1.2.11.01.12-.1.13-.19l.02-.21c0-.07.02-.22-.1-.23-.12-.01-.12.13-.13.2l-.02.23zm.25-.77l-.25.77.25-.77-.14-.01-.14.15.12.01.08-.08.07.1h.13l-.12-.17zM30.45 43.92c-.04 0-.07.02-.08.05 0 .04.03.07.06.07.04.01.07-.02.07-.05 0-.04-.02-.07-.05-.07zM30.95 43.05l-.11.85.16.02.11-.85-.16-.02zM31.83 43.76c-.02.05-.03.2-.12.18-.1-.03-.09-.14-.07-.2l.04-.24c.02-.06.03-.21.16-.19.07.02.05.12.05.17l.15.03.01-.06c.02-.15-.05-.24-.18-.27-.26-.05-.31.1-.35.32l-.03.12c-.04.22-.06.39.2.44.17.03.25-.07.29-.22l.01-.05-.16-.03zM32.2 44.16l.1-.38.21.05-.1.38.16.04.2-.83-.15-.04-.08.33-.21-.05.08-.33-.16-.04-.2.83.15.04zM33.32 43.58l.15.04-.17.57c-.05.18-.14.25-.34.2-.2-.07-.23-.17-.18-.35l.17-.57.15.04-.16.56c-.02.08-.04.16.06.19s.13-.05.15-.13l.17-.55zM34.23 44.06l-.07.23-.07.23v-.69l-.16-.06-.29.8.15.06.06-.15.07-.23.07-.23V44.7l.16.06.29-.8-.15-.06-.06.16zM34.43 44.33c.08-.2.17-.34.4-.25.13.06.2.12.18.27l-.02.1-.15-.06c.02-.08.05-.14-.05-.19-.12-.05-.16.1-.19.16l-.08.22c-.03.07-.07.18.03.22.09.03.15-.05.2-.17l-.1-.04.04-.12.24.1-.16.42-.11-.04.03-.09c-.06.07-.13.07-.18.06-.25-.1-.2-.26-.12-.47l.04-.12zM35.05 45.12l.16-.36.2.09-.15.36.14.06.34-.78-.14-.07-.14.32-.2-.1.13-.3-.14-.07-.34.79.14.06zM35.68 45.4l.36-.77-.14-.07-.36.77.14.07zm.47-.95l.06.03c-.07.1-.12.1-.16.08a.3.3 0 0 1-.06-.06c-.02-.02-.03-.04-.06-.03l-.04.02-.05-.02c.05-.08.12-.1.16-.08l.05.05.04.04c.02.01.04 0 .06-.03zM35.9 45.5l.14-.16.17.08-.06.21.15.08.21-.85-.2-.1-.56.67.16.08zm.37-.46l.07-.1.03-.05-.02.06a.73.73 0 0 0-.04.1l-.07.25-.12-.07.15-.2zM33.26 43.5l.06.01c0-.01.02-.02.05-.02.03-.01.06-.02.07-.06.01-.05-.04-.09-.09-.1-.05-.02-.11-.01-.13.04 0 .02 0 .05.04.06.02.01.04 0 .05-.02 0-.02 0-.03-.02-.04h-.02c.01-.01.03-.02.05 0 .02 0 .03.02.03.03-.01.03-.03.04-.06.05l-.03.04z"/>
  <path fill="#B85D2E" d="M38.5 45.53l-.06-.04s.39-.5.4-1.08h.07c-.02.6-.4 1.1-.41 1.12zM20.84 45.51c-.02-.02-.41-.52-.43-1.12h.07c.02.58.4 1.07.4 1.08l-.04.04z"/>
  <g id="a">
    <path fill="#fff100" d="M12.38 20c-.32.65-.6 1.3-.85 1.99l.46.63.72-1.03-.14-1.58z"/>
    <path fill="#b85d2e" d="M11.99 22.68l-.5-.69v-.02c.25-.67.54-1.34.86-1.98v-.02h.25l.14 1.63v.01zm-.42-.7l.42.58.68-.98-.13-1.54h-.14c-.31.63-.6 1.28-.83 1.94z"/>
    <path fill="#fff100" d="M27.32 11.98c.37-.15 1.11-.46 1.33-.76-.57-.32-1.07-.55-1.07-.55l-1.29.18-.85.21-.3.44.82.81c.46-.1.93-.16 1.36-.33z"/>
    <path fill="#b85d2e" d="M25.95 12.35l-.86-.84.33-.48.86-.2 1.3-.2h.01c0 .01.51.24 1.08.56l.03.02-.02.03c-.21.28-.85.57-1.35.77-.32.12-.66.2-1 .26l-.36.07zm-.77-.85l.8.77.35-.07c.33-.06.67-.13.98-.25a3.7 3.7 0 0 0 1.3-.71c-.52-.29-.97-.5-1.03-.53l-1.28.18-.84.2z"/>
    <path fill="#fff100" d="M25.79 12.33s.6-.3.94-.94c-.33-.23-1.05-.33-1.05-.33l-.74.33z"/>
    <path fill="#b85d2e" d="M25.78 12.37l-.9-1 .8-.34a3 3 0 0 1 1.06.33l.03.02-.02.02c-.33.65-.93.95-.95.96zm-.79-.97l.8.9c.12-.07.6-.36.9-.9a3.1 3.1 0 0 0-1-.3z"/>
    <path fill="#fff100" d="M23.45 12.2s.72-1.32 2.42-.88c-.02.9-.45 1.52-.45 1.52l-1.56.7-.74-.58z"/>
    <path fill="#b85d2e" d="M23.86 13.57l-.78-.6.34-.79c0-.01.55-.99 1.78-.99.22 0 .45.03.68.1h.03v.03c-.02.9-.46 1.53-.47 1.54zm-.7-.62l.71.55 1.52-.69c.05-.07.42-.65.45-1.47a2.65 2.65 0 0 0-.64-.08c-1.19 0-1.71.94-1.72.95z"/>
    <path fill="#fff100" d="M23.82 13.19s.6-.49.61-.97c-.45-.23-1.7-.6-2.22.71.15.37.43.51.43.51z"/>
    <path fill="#b85d2e" d="M22.64 13.48h-.01c-.01-.01-.3-.15-.46-.53v-.02c.32-.8.9-.97 1.33-.97.45 0 .84.17.95.23h.02v.03c-.03.5-.6.98-.63 1h-.01zm-.4-.55a1 1 0 0 0 .4.48l1.17-.25c.06-.06.55-.5.59-.92a2.16 2.16 0 0 0-.9-.22c-.59 0-1.01.3-1.26.91z"/>
    <path fill="#fff100" d="M22.07 13.88s.64-.46.66-1.02c-.63-.09-2.18.05-2.56.97-.37.93 1.05.6 1.05.6z"/>
    <path fill="#b85d2e" d="M20.72 14.52c-.3 0-.49-.07-.58-.2-.08-.12-.08-.29 0-.5.3-.75 1.38-1.01 2.2-1.01.15 0 .28 0 .4.02h.02v.04c-.02.56-.64 1.02-.67 1.04l-.86.56s-.25.05-.5.05zm1.63-1.65c-.81 0-1.86.26-2.14.98-.08.18-.08.33-.02.43.1.15.35.18.53.18.23 0 .45-.05.49-.06l.85-.55s.6-.44.63-.96l-.34-.02z"/>
    <path fill="#fff100" d="M22.08 14.57s.26-.43.24-.76a2.59 2.59 0 0 0-1.47.46c-.32.24-.24.88-.24.88l.5.05z"/>
    <path fill="#b85d2e" d="M21.12 15.23l-.54-.05v-.02c0-.03-.09-.67.25-.91.35-.25.95-.5 1.49-.47h.03v.03c.02.33-.24.76-.25.78v.01zm-.48-.11l.47.04.94-.61c.03-.05.24-.42.23-.7a2.57 2.57 0 0 0-1.4.45c-.28.2-.25.7-.24.82z"/>
    <path fill="#fff100" d="M23.34 14.16s.68-.49.77-1c-.55-.16-1.6-.25-1.97.81-.26.72-.04.72-.04.72z"/>
    <path fill="#b85d2e" d="M22.1 14.72s-.05 0-.08-.05c-.08-.1-.04-.34.09-.7.27-.78.88-.94 1.34-.94.27 0 .51.06.67.1l.02.01v.03c-.09.52-.75 1-.78 1.02zm1.35-1.62c-.44 0-1.02.15-1.28.89-.17.46-.13.6-.1.64 0 .02.02.02.02.03l1.24-.53s.63-.46.74-.94a2.34 2.34 0 0 0-.62-.09z"/>
    <path fill="#fff100" d="M24.9 12.86s.63-1.8 3.14-.6c-.77.37-.94.95-.94.95l-1.05.19-.94.16-.48-.26z"/>
    <path fill="#b85d2e" d="M25.1 13.6l-.52-.28.28-.47s.38-1.03 1.63-1.03c.46 0 .99.14 1.56.41l.07.03-.07.03c-.74.36-.92.92-.92.93v.02l-1.07.19zm-.42-.3l.44.22 1.95-.34c.04-.1.24-.58.9-.92a3.57 3.57 0 0 0-1.48-.38c-1.2 0-1.56.99-1.57 1z"/>
    <path fill="#fff100" d="M23.71 13.47s.77-1.3 2.08-.8c-.68.93-1.05 1-1.05 1l-1.33.4z"/>
    <path fill="#b85d2e" d="M23.34 14.12l.34-.67c.01-.01.56-.92 1.5-.92.2 0 .41.04.62.12l.04.01-.02.04c-.68.92-1.06 1-1.07 1zm1.85-1.52c-.91 0-1.44.87-1.45.88l-.27.53 1.26-.37s.37-.08 1-.94c-.18-.07-.36-.1-.54-.1z"/>
    <path fill="#fff100" d="M14.75 42.44l-1.62-2.2-.38.5.13 1.03.62.65z"/>
    <path fill="#b85d2e" d="M27.54 9.76l-.03-.06s.63-.27.96-.68l.05.04c-.34.42-.96.7-.98.7zM10.9 29.04l-.64-.59v-.01c.03-.77.09-1.54.2-2.3a.92.92 0 0 1 .04-.1l.02-.03.03.02c.37.23.35 1.5.35 1.56zm-.57-.61l.5.46v-1.3c0-.01.02-1.21-.29-1.48l-.02.05c-.1.75-.17 1.5-.19 2.27zM11.84 21.94l-.04-.05s.27-.29.32-.57l.07.01c-.06.3-.33.6-.35.6z"/>
    <path fill="#fff100" d="M11.54 21.94c-.1.27-.19.53-.27.8 0 .09.02.19.05.3l.64-.74s.08-.36-.03-.53a.94.94 0 0 0-.39.17z"/>
    <path fill="#b85d2e" d="M11.3 23.1l-.01-.06-.06-.3v-.01l.28-.8.01-.01c.14-.11.3-.16.4-.19h.03l.01.02c.12.19.03.54.03.55v.02s-.42.5-.64.73zm0-.36a2 2 0 0 0 .04.22l.59-.68c.01-.05.06-.32-.01-.47a.92.92 0 0 0-.35.16c-.1.25-.18.52-.27.77z"/>
    <path fill="#fff100" d="M11.38 24.05s1.02-.26 1.08-2.14c-.51.13-1.36.64-1.3 1.88.07.23.22.26.22.26z"/>
    <path fill="#b85d2e" d="M11.38 24.08h-.01s-.17-.04-.24-.28c-.05-1.16.68-1.76 1.32-1.92l.05-.01v.04c-.06 1.89-1.07 2.16-1.11 2.17zm1.05-2.13c-.61.17-1.28.75-1.23 1.84.05.17.15.21.18.22.1-.03.98-.35 1.05-2.06z"/>
    <path fill="#fff100" d="M10.95 23.85c-.16.61-.3 1.23-.4 1.86l-.02.64.97-1.12s.18-1.21-.18-1.76c-.14.05-.26.2-.37.38z"/>
    <path fill="#b85d2e" d="M10.56 26.37l-.06-.03.02-.63c.1-.63.24-1.26.4-1.87.13-.23.26-.36.39-.4h.02l.01.01c.37.55.2 1.73.2 1.78l-.01.01v.01zm.42-2.5c-.16.6-.3 1.22-.4 1.85l-.01.53.9-1.04c.01-.1.15-1.18-.17-1.7-.1.05-.21.17-.32.35z"/>
    <path fill="#fff100" d="M15.36 15.61c-.3.33-.58.67-.86 1.03l-.02.04-.2 1.01.09.81.63-.67.26-.64s.46-.88.16-1.62z"/>
    <path fill="#b85d2e" d="M14.34 18.58l-.1-.89.2-1.03.03-.04c.28-.36.57-.7.86-1.03l.1-.08.01.04c.31.75-.13 1.61-.15 1.65l-.27.65zm-.03-.89l.08.73.58-.6.26-.65s.43-.84.17-1.55l-.02.02c-.3.32-.58.67-.85 1.02l-.02.03z"/>
    <path fill="#fff100" d="M27.83 9.61c-.73.04-1.46.12-2.18.24l-.3.3.4.96 1.84-.5.49-.54.1-.1z"/>
    <path fill="#b85d2e" d="M25.73 11.15l-.42-1 .33-.33h.01c.72-.13 1.46-.2 2.18-.24h.02l.37.38-.6.68h-.02zm-.34-.99l.38.9 1.8-.48.56-.62-.3-.31c-.73.03-1.45.1-2.16.23z"/>
    <path fill="#fff100" d="M26.3 9.75c-.85.11-1.67.29-2.47.52l-.07.07.22 1.23 1.8-.58s.95-.8.95-1.14a1.4 1.4 0 0 0-.44-.1z"/>
    <path fill="#b85d2e" d="M23.95 11.61l-.22-1.28.09-.1c.81-.23 1.64-.4 2.47-.51.2.02.35.05.45.1h.02v.03c0 .35-.91 1.14-.95 1.17h-.01zm-.15-1.26l.2 1.17 1.77-.56c.26-.21.9-.81.92-1.1a1.4 1.4 0 0 0-.4-.07c-.81.1-1.63.28-2.44.5z"/>
    <path fill="#fff100" d="M24.24 10.16c-.67.17-1.32.38-1.95.63l.2.24.37.88 1.34-.53s.68-.58.83-1c-.2-.13-.49-.2-.8-.22z"/>
    <path fill="#b85d2e" d="M22.84 11.96l-.37-.91-.24-.28.04-.01c.64-.25 1.3-.46 1.96-.63.37.02.65.1.82.22l.02.02-.01.02c-.15.43-.82.99-.84 1.01h-.01zm-.5-1.16l.19.22.35.85 1.3-.52c.05-.05.66-.57.8-.95-.16-.11-.4-.18-.74-.2-.64.16-1.28.37-1.9.6z"/>
    <path fill="#fff100" d="M22.97 10.54c-.61.21-1.21.45-1.8.73l.52.4-.12 1.03 1.3-.92s.9-.66 1-1.02c-.3-.14-.55-.22-.9-.22z"/>
    <path fill="#b85d2e" d="M21.53 12.77l.12-1.08-.54-.43.05-.02c.58-.28 1.19-.52 1.8-.73h.01c.36 0 .63.09.92.22l.03.01-.01.03c-.12.37-.98 1-1.02 1.03zm-.3-1.5l.49.4v.01l-.1.95 1.23-.88c.01 0 .84-.62.98-.97-.27-.12-.52-.2-.85-.2-.6.2-1.18.43-1.74.7z"/>
    <path fill="#fff100" d="M21.7 11.03c-.73.32-1.42.68-2.1 1.08l.97 1.02 1.2-.82s.62-.85.71-1.19c-.2-.08-.5-.1-.78-.09z"/>
    <path fill="#b85d2e" d="M20.56 13.18l-1.01-1.08.03-.02c.68-.4 1.38-.77 2.1-1.08H21.8a2 2 0 0 1 .7.1h.02v.03c-.1.34-.7 1.16-.72 1.2zm-.9-1.06l.91.97 1.18-.8c.05-.07.58-.81.7-1.15a2.05 2.05 0 0 0-.65-.07h-.1c-.7.3-1.39.65-2.05 1.05z"/>
    <path fill="#fff100" d="M20.31 11.7c-.53.3-1.05.6-1.55.95-.05.22-.04.4-.04.4l.82.71 1.03-.75s.52-.65.59-1.35c-.21-.03-.52 0-.85.04z"/>
    <path fill="#b85d2e" d="M19.54 13.8l-.86-.73v-.01s0-.2.04-.42v-.01h.02c.5-.35 1.02-.67 1.56-.96.36-.06.67-.08.86-.05h.04v.04c-.08.7-.59 1.34-.6 1.37h-.01zm-.8-.76l.8.68 1-.73c.04-.05.5-.66.58-1.3-.19-.03-.47 0-.8.05-.52.28-1.04.6-1.53.93-.04.17-.04.33-.04.37z"/>
    <path fill="#fff100" d="M18.62 12.74c-.15.1-.3.2-.44.32l-.1.31.2 1.21 1.37-1.01s.55-.6.6-1.12c-.54-.04-1.21.15-1.63.3z"/>
    <path fill="#b85d2e" d="M18.26 14.64l-.22-1.27.11-.34h.01l.44-.32h.01a4.78 4.78 0 0 1 1.64-.29h.03v.04c-.05.5-.58 1.1-.6 1.13zm-.15-1.26l.2 1.14 1.32-.98s.52-.57.58-1.06h-.14c-.49 0-1.05.16-1.43.3l-.43.3z"/>
    <path fill="#fff100" d="M28.26 10.33c-1.73.14-4.72 1.1-6 1.68a29.6 29.6 0 0 0-4.35 2.66l.37.5c.46-.56 2-1.73 3.98-2.7a24.9 24.9 0 0 1 6.12-1.86z"/>
    <path fill="#b85d2e" d="M18.27 15.23l-.41-.57.02-.02a30.4 30.4 0 0 1 4.36-2.66 23.8 23.8 0 0 1 6.01-1.68h.03l.14.33-.04.01c-1.61.24-4.4 1.01-6.1 1.85-1.92.94-3.48 2.1-3.98 2.7zm-.32-.56l.33.45c.53-.62 2.08-1.76 3.96-2.69 1.7-.83 4.46-1.6 6.09-1.85l-.1-.22a24.26 24.26 0 0 0-5.97 1.68c-1.41.63-3.3 1.91-4.31 2.63z"/>
    <path fill="#fff100" d="M17.94 13.23l-.82.67c-.06.3-.07.6-.07.6l.26.72.48-.3s.94-.7 1.12-1.64c-.25-.1-.63-.1-.97-.05z"/>
    <path fill="#b85d2e" d="M17.3 15.27l-.28-.76c0-.01 0-.32.07-.62v-.02c.28-.23.56-.46.84-.67h.01a3 3 0 0 1 .42-.03c.23 0 .42.03.56.08h.02v.03c-.17.95-1.12 1.66-1.13 1.67zm-.22-.77l.25.67.45-.28s.9-.68 1.09-1.59c-.13-.04-.3-.07-.5-.07-.14 0-.28.01-.41.03-.27.2-.54.43-.81.66-.05.26-.06.53-.07.58z"/>
    <path fill="#fff100" d="M17.23 13.8c-.42.35-.82.72-1.2 1.11l.14.7s1.12-.02 1.58-1.66a1 1 0 0 0-.52-.15z"/>
    <path fill="#b85d2e" d="M16.15 15.65l-.16-.75.01-.01c.39-.4.8-.77 1.21-1.12h.03a1 1 0 0 1 .53.15l.02.02v.02c-.47 1.65-1.6 1.69-1.61 1.69zm-.09-.73l.14.66c.17-.02 1.1-.18 1.51-1.61a.95.95 0 0 0-.46-.14c-.41.34-.8.71-1.19 1.1z"/>
    <path fill="#fff100" d="M16.1 14.84c-.28.27-.55.56-.81.86l-.01.02-.24 1.17-.1.71.45.51.83-1.57s.35-1.02.2-1.8c-.1 0-.2.03-.32.1z"/>
    <path fill="#b85d2e" d="M15.4 18.17l-.5-.56.1-.73.25-1.17v-.03h.01c.26-.3.54-.59.82-.87a.63.63 0 0 1 .34-.1h.03v.02c.15.78-.2 1.8-.2 1.82zm-.43-.58l.42.46.8-1.53s.34-.99.2-1.75a.6.6 0 0 0-.27.1c-.27.27-.55.55-.8.84v.01l-.24 1.17z"/>
    <path fill="#fff100" d="M14.6 16.51c-.47.59-.9 1.2-1.3 1.85l.02.63.24.69.3-.35.53-.85s.34-1.22.21-1.97z"/>
    <path fill="#b85d2e" d="M13.55 19.74l-.26-.75-.03-.64h.01c.4-.65.84-1.27 1.3-1.86l.05-.06.02.07a5.7 5.7 0 0 1-.22 1.99l-.53.86zm-.2-.76l.22.64.27-.3.52-.85c.02-.08.31-1.16.22-1.88-.45.57-.87 1.16-1.25 1.78z"/>
    <path fill="#fff100" d="M12.62 21.6s1.48-1.3.96-3.38c-.46.33-1.1 1.5-1.1 2.38 0 .51.14 1 .14 1z"/>
    <path fill="#b85d2e" d="M12.6 21.66l-.02-.05s-.13-.5-.13-1c0-.87.62-2.07 1.1-2.41l.05-.03.01.05a3.55 3.55 0 0 1-.97 3.4zm.96-3.38a3.63 3.63 0 0 0-1.04 2.32c0 .4.08.8.12.93a3.48 3.48 0 0 0 .92-3.25z"/>
    <path fill="#fff100" d="M13.03 18.81c-.29.48-.55.97-.79 1.48.37-.1.94-.4.79-1.48z"/>
    <path fill="#b85d2e" d="M12.18 20.34l.03-.06c.24-.5.5-1 .78-1.49l.07.02c.16 1.1-.44 1.42-.81 1.51zm.82-1.43c-.24.43-.48.88-.7 1.33.34-.1.8-.42.7-1.33z"/>
    <path fill="#fff100" d="M21.84 29.94c.6.23 1.19.92 1.19.92-.3.15-1.1-.55-1.26-.82 0-.12.07-.1.07-.1z"/>
    <path fill="#b85d2e" d="M22.93 30.91c-.38 0-1.05-.6-1.2-.85v-.02c0-.12.07-.13.1-.13h.02c.6.22 1.18.9 1.2.93l.03.03-.04.02a.25.25 0 0 1-.11.02zm-1.13-.88c.15.24.8.82 1.13.82h.04a3.4 3.4 0 0 0-1.14-.87c-.02 0-.03.02-.03.05z"/>
    <path fill="#fff100" d="M21.6 30.12s-.02.82 1.36 1.08a3.05 3.05 0 0 0-1.3-1.27c-.02.16-.05.19-.05.19z"/>
    <path fill="#b85d2e" d="M23 31.24h-.05c-1.4-.27-1.38-1.12-1.38-1.12v-.02h.01s.03-.04.05-.18l.01-.04.04.02c.47.2 1.2.9 1.31 1.29zm-1.36-1.11c0 .1.05.78 1.27 1.02a3.13 3.13 0 0 0-1.22-1.18.53.53 0 0 1-.05.16zM20.96 30.56s-.51-.32-1.01-.38v-.06c.52.06 1.02.37 1.04.38zM14.27 36.17l-.95-.56c-.03-.04-.55-.95-.67-1.24-.1-.22-.06-.48-.03-.6l.01-.05.04.02.86.52.18.12h.02v.03c-.01.17 0 .5.19.77.29.4.34.9.34.92zm-.9-.6l.81.47c-.02-.14-.1-.51-.32-.82a1.28 1.28 0 0 1-.2-.8l-.17-.1c-.3-.18-.57-.34-.81-.5a.98.98 0 0 0 .03.53c.12.27.6 1.12.65 1.21z"/>
    <path fill="#fff100" d="M17.8 35.12s.4-1.25-.08-2.34c-.42.33-.44 1.27-.4 1.88.05.6.48.46.48.46z"/>
    <path fill="#b85d2e" d="M17.68 35.17c-.13 0-.36-.07-.4-.51-.03-.56-.03-1.56.41-1.9l.04-.03.02.04c.49 1.09.08 2.34.08 2.36v.01h-.02s-.06.03-.13.03zm.02-2.34c-.4.37-.37 1.4-.34 1.82.02.37.19.45.32.45l.1-.01a3.6 3.6 0 0 0-.08-2.26z"/>
    <path fill="#fff100" d="M16.93 20.4s1.66-1.42 1.84-2.98c-.6.39-1.84 2.98-1.84 2.98z"/>
    <path fill="#b85d2e" d="M16.95 20.43l-.05-.04c.05-.1 1.25-2.6 1.86-3l.06-.04-.01.08c-.19 1.55-1.84 2.98-1.86 3zm1.78-2.93c-.52.43-1.42 2.21-1.7 2.76.4-.36 1.51-1.52 1.7-2.76z"/>
    <path fill="#fff100" d="M17.64 18s-.2-1.67 1.64-2.06c.07.5-.24.94-.24.94l-.72.95z"/>
    <path fill="#b85d2e" d="M17.61 18.03V18c0-.02-.18-1.7 1.66-2.1h.04v.03c.07.52-.23.95-.24.97l-.73.96h-.01zm1.64-2.05a1.85 1.85 0 0 0-1.58 1.97l.63-.15.71-.94s.29-.4.24-.88z"/>
    <path fill="#fff100" d="M16.7 37.1s0-1.17-1.03-1.91c-1.02-.74-1.37.03-1.37.03l.06 1.48.96 1.09.64-.19z"/>
    <path fill="#b85d2e" d="M15.32 37.8v-.01l-.97-1.08-.06-1.5s.17-.35.58-.35c.24 0 .5.1.8.32a2.47 2.47 0 0 1 1.02 1.92l-.73.5zm-.96-1.1l.96 1.08.64-.18.73-.5c0-.03 0-.31-.13-.68a2.48 2.48 0 0 0-.9-1.23 1.4 1.4 0 0 0-.78-.32c-.4 0-.57.33-.58.35z"/>
    <path fill="#fff100" d="M17.5 38.92l-.07-1.54-.6-.65c-.5-.13-.62-.1-.67.57 0 .4.71 1.26.71 1.26z"/>
    <path fill="#b85d2e" d="M17.54 38.98l-.7-.4c-.02-.03-.7-.87-.7-1.28.02-.45.08-.66.35-.66.1 0 .2.02.34.06h.01l.62.67v.01zm-.65-.45l.57.34-.07-1.47-.58-.64a1.5 1.5 0 0 0-.32-.06c-.18 0-.26.09-.3.6 0 .37.65 1.17.7 1.23z"/>
    <path fill="#fff100" d="M15.34 37.8c-.03 0-.3-1.64-1.7-2.05-.07.37.07.74.07.74l.56.85.3.39.77.06z"/>
    <path fill="#b85d2e" d="M15.34 37.83h-.01l-.76-.07h-.01l-.31-.4-.57-.85c-.01-.02-.14-.39-.07-.77v-.03h.04c.82.24 1.39.91 1.7 2l.01.05h.02v.07zm-.74-.13l.7.05-.02-.03c-.3-1.04-.84-1.69-1.6-1.92-.07.34.06.68.06.68l.56.84z"/>
    <path fill="#b85d2e" d="M15.9 39.63l-.04-.05c0-.01-1-1.44-1.33-2.05l-.03-.05h.05c.5-.07 1 .2 1.29.7.28.45.3.98.08 1.4zm-1.29-2.1c.31.57 1.1 1.72 1.28 1.97.18-.4.14-.88-.1-1.3-.28-.45-.72-.7-1.18-.66z"/>
    <path fill="#fff100" d="M12.81 36.31s-.75-.35-.7-1.98c.95.83 1.37 1.72 1.37 1.72l.56 1.12-.78-.33z"/>
    <path fill="#b85d2e" d="M14.03 37.2l-.8-.34-.44-.52c-.08-.05-.76-.45-.7-2v-.08l.05.05c.94.82 1.37 1.71 1.37 1.72l.56 1.12zm-.75-.38l.7.28-.53-1.04s-.4-.86-1.3-1.66c-.03 1.53.67 1.88.68 1.88l.01.01z"/>
    <path fill="#fff100" d="M12.71 34.19s.08-.57-.83-1.02c-.26.41-.1 1.02.28 1.49.39.47.7.76.7.76l.22-.43z"/>
    <path fill="#b85d2e" d="M12.87 35.47l-.03-.03s-.32-.3-.7-.76c-.43-.51-.54-1.13-.28-1.53l.01-.03.03.02c.86.43.85.96.85 1.04l.37.8zm-.97-2.26c-.22.38-.1.95.29 1.42.3.38.57.65.66.73l.2-.37-.37-.8c0-.01.06-.55-.78-.98zM15.3 29.2h-.07c0-.03.13-3.17 1.96-4.78l.04.05c-1.8 1.6-1.93 4.7-1.93 4.73z"/>
    <path fill="#fff100" d="M13.37 22.53s-.94.38-1.16 1.09c-.23.7.05 1.2.05 1.2l.78-.5.44-1.32z"/>
    <path fill="#b85d2e" d="M12.25 24.87l-.02-.03c0-.02-.28-.52-.05-1.23.22-.71 1.14-1.1 1.18-1.1l.04-.02.12.51v.01l-.45 1.34zm1.1-2.3c-.17.09-.92.45-1.11 1.06-.18.58-.02 1.02.04 1.15l.73-.48.44-1.3z"/>
    <path fill="#fff100" d="M13.62 24.87s.05-1.15-.34-1.76c-.48.43-1.27 1.26-.7 2.66.58-.43 1.04-.9 1.04-.9z"/>
    <path fill="#b85d2e" d="M12.57 25.82l-.02-.04c-.62-1.52.38-2.4.71-2.69l.03-.02.02.03c.39.6.35 1.72.35 1.77v.01l-.01.01s-.48.48-1.04.9zm.7-2.65c-.54.48-1.18 1.27-.67 2.54.5-.38.92-.79.99-.86 0-.12.02-1.12-.31-1.68z"/>
    <path fill="#fff100" d="M13.57 22.15s.14-1.53.03-1.82a3.7 3.7 0 0 0-1.33 2.03c-.17.73-.28 1.4-.28 1.4l.78-.26z"/>
    <path fill="#b85d2e" d="M11.95 23.82v-.06s.12-.68.28-1.41c.18-.76.64-1.47 1.35-2.05l.03-.03.02.05c.11.3-.02 1.77-.03 1.83v.02l-.81 1.36zm1.63-3.43a3.65 3.65 0 0 0-1.28 1.97c-.14.6-.24 1.18-.27 1.36l.71-.25.8-1.33c0-.11.12-1.4.04-1.75z"/>
    <path fill="#fff100" d="M13.35 23.65s-.36-1.65.66-2.53c.33.82-.03 2.03-.03 2.03l-.27.7-.2.27z"/>
    <path fill="#b85d2e" d="M13.5 24.19l-.18-.53c0-.02-.36-1.68.67-2.56l.04-.03.01.04c.34.82 0 2-.02 2.05l-.29.72zm.5-3.01c-.96.86-.62 2.45-.62 2.46l.14.4.16-.2.27-.7c0-.01.34-1.16.05-1.96z"/>
    <path fill="#fff100" d="M14.68 23.97l-.34-1.23c-.52.2-.97 1-1.02 1.44-.06.44.16 1.3.16 1.3l.73.11z"/>
    <path fill="#b85d2e" d="M14.23 25.63l-.77-.13v-.02c-.02-.04-.23-.87-.17-1.3.05-.45.5-1.26 1.04-1.47l.04-.02.34 1.28zm-.72-.19l.67.11.46-1.58-.32-1.19c-.49.22-.91.98-.97 1.4-.05.4.13 1.13.16 1.26z"/>
    <path fill="#fff100" d="M13.24 26.7s-1.1-1.09.58-2.24c.45 1.06.29 2.17.29 2.17l-.27.63-.31-.08z"/>
    <path fill="#b85d2e" d="M13.86 27.3l-.35-.1-.3-.48a1.33 1.33 0 0 1-.36-.99c.05-.46.36-.9.95-1.3l.03-.03.02.04a4.6 4.6 0 0 1 .29 2.2zm-.3-.15l.26.08.25-.6c.01-.08.14-1.12-.27-2.12-.54.38-.84.8-.88 1.23-.05.54.34.93.35.94z"/>
    <path fill="#b85d2e" d="M13.15 26.38c0-.04-.1-.85.36-1.23l.04.05c-.43.35-.34 1.16-.33 1.17z"/>
    <path fill="#fff100" d="M14.56 18.6s-.08-1.05.79-1.72c.09.6-.05 1.28-.05 1.28z"/>
    <path fill="#b85d2e" d="M14.53 18.65v-.05c0-.01-.08-1.07.8-1.74l.04-.04.01.06c.09.6-.04 1.28-.04 1.28v.02zm.8-1.7a2.06 2.06 0 0 0-.74 1.59l.69-.4c.01-.1.1-.67.04-1.2z"/>
    <path fill="#fff100" d="M16.03 18.25s-.1-.83-.29-1.09c-.7.51-1.18 1.25-1.35 1.71-.18.46-.07.86-.07.86l.11.64.99-.88z"/>
    <path fill="#b85d2e" d="M14.4 20.44l-.11-.71c0-.01-.11-.4.07-.87.19-.5.68-1.23 1.36-1.73l.03-.02.02.03c.2.26.29 1.07.29 1.1v.02l-.62 1.26zm1.33-3.23a4.11 4.11 0 0 0-1.31 1.67c-.17.45-.07.83-.07.84l.1.59.94-.84.6-1.23a3.4 3.4 0 0 0-.26-1.03z"/>
    <path fill="#fff100" d="M14.23 22s-.86-1.35.89-2.55c.55.76.22 1.67.22 1.67z"/>
    <path fill="#b85d2e" d="M14.22 22.05l-.02-.03c0-.01-.85-1.4.9-2.6l.03-.02.02.03c.55.77.23 1.7.22 1.7v.01zm.9-2.56c-1.55 1.08-1 2.25-.88 2.46l1.07-.85c.03-.1.28-.91-.2-1.6z"/>
    <path fill="#fff100" d="M14.26 23.06s-.66-.94.55-2.14c.09.73-.25 2.08-.25 2.08z"/>
    <path fill="#b85d2e" d="M14.24 23.1v-.02c-.01-.01-.68-.98.55-2.19l.05-.05v.07c.09.73-.23 2.05-.24 2.1v.02zm.55-2.11c-1.04 1.07-.6 1.9-.51 2.03l.26-.05c.04-.16.3-1.3.25-1.98z"/>
    <path fill="#fff100" d="M14.51 23.85s-.72-2.23.89-3.2c.3.65.2 1.18.2 1.18z"/>
    <path fill="#b85d2e" d="M14.5 23.94l-.02-.08c0-.02-.71-2.26.9-3.24l.03-.02.02.04c.3.65.2 1.17.2 1.2zm.88-3.24c-1.36.85-.97 2.67-.86 3.07l1.04-1.96a2 2 0 0 0-.18-1.11z"/>
    <path fill="#fff100" d="M17.88 16.33s.5-.28.44-.88c-.33-.04-.72.14-.9.81-.17.67.46.07.46.07z"/>
    <path fill="#b85d2e" d="M17.48 16.61a.11.11 0 0 1-.1-.04c-.03-.06-.03-.16 0-.32.2-.76.66-.84.84-.84h.1l.03.01v.03c.06.58-.4.88-.45.9-.04.04-.28.26-.42.26zm.74-1.13c-.35 0-.63.29-.76.79-.05.18-.03.24-.02.26l.04.01c.1 0 .3-.17.38-.23.02-.02.47-.28.43-.83h-.07z"/>
    <path fill="#fff100" d="M20.81 14.71s.3-.78.33-1.04c-.57-.09-2.47.12-2.38 1.32.65.42 2.05-.28 2.05-.28z"/>
    <path fill="#b85d2e" d="M19.3 15.16c-.23 0-.42-.05-.56-.14l-.02-.01v-.02a.96.96 0 0 1 .26-.75c.46-.49 1.39-.62 1.87-.62.11 0 .21 0 .3.02h.02v.03a6.77 6.77 0 0 1-.33 1.05v.02h-.02c-.03.02-.84.42-1.52.42zm-.51-.19a1 1 0 0 0 .51.12 4.1 4.1 0 0 0 1.48-.4c.04-.1.28-.73.32-.99l-.25-.01c-.47 0-1.37.12-1.82.6a.9.9 0 0 0-.24.68z"/>
    <path fill="#fff100" d="M20.92 15.36s.08-.67-.03-.8c-.74.08-1.57.36-1.74.75-.18.4-.18 1.18-.18 1.18l1.12-.44z"/>
    <path fill="#b85d2e" d="M18.94 16.54v-.05c0-.03 0-.8.18-1.19.18-.41 1.02-.69 1.77-.78h.02l.01.01c.12.15.04.76.03.83v.02l-.85.7zm1.94-1.95c-.7.09-1.53.36-1.7.74a3.6 3.6 0 0 0-.17 1.11l1.06-.42.82-.68c.03-.25.05-.64-.01-.75z"/>
    <path fill="#fff100" d="M19.17 16.1s.33-.79.13-1.3c-.44-.02-1.5.21-1.7 1.4-.2 1.17.57.66.57.66z"/>
    <path fill="#b85d2e" d="M17.85 17a.27.27 0 0 1-.22-.1c-.1-.11-.12-.36-.07-.72a1.66 1.66 0 0 1 1.74-1.4h.02l.01.01c.2.52-.12 1.29-.13 1.32v.01l-1.01.77c-.01 0-.18.11-.34.11zm1.4-2.16a1.6 1.6 0 0 0-1.62 1.36c-.06.33-.04.56.05.67.04.04.1.07.17.07.14 0 .3-.1.3-.1l1-.76c.03-.09.3-.78.13-1.24h-.04z"/>
    <path fill="#fff100" d="M17.7 17.5s.36-.2.36-1.52c-.53 0-1.36.4-1.36.4l-.39 1.01-.02.67.33.53z"/>
    <path fill="#b85d2e" d="M16.6 18.65l-.35-.58.03-.69.4-1.03c.04-.02.85-.4 1.38-.4h.03v.03c0 1.32-.35 1.55-.36 1.56zm-.28-.6l.3.49 1.06-1.06c.01 0 .34-.22.34-1.46a4.3 4.3 0 0 0-1.3.38l-.38 1z"/>
    <path fill="#fff100" d="M15.22 20.07c0-.02-.6-1.06 1.35-2.65 0 1.34-.74 2.38-.96 2.58-.22.21-.4.1-.4.07z"/>
    <path fill="#b85d2e" d="M15.35 20.16c-.08 0-.16-.04-.16-.08-.12-.28-.36-1.28 1.36-2.7l.06-.04v.08a4.1 4.1 0 0 1-.98 2.6c-.11.12-.21.14-.28.14zm-.1-.1c.01.01.05.03.1.03.06 0 .14-.02.24-.11.18-.18.92-1.17.95-2.5-1.62 1.36-1.4 2.3-1.3 2.56l.01.02z"/>
    <path fill="#fff100" d="M15.43 21.47s-.75-2.05.74-2.43c.11.73.11 1.26.11 1.26l-.75 1.38z"/>
    <path fill="#b85d2e" d="M15.54 21.75l-.14-.26c-.02-.05-.41-1.15-.02-1.9.16-.3.42-.5.79-.59h.03v.03c.12.73.12 1.26.12 1.27v.02zm.6-2.67c-.32.09-.56.27-.7.55-.38.71.01 1.82.02 1.83l.08.15.71-1.32c0-.07 0-.56-.1-1.21z"/>
    <path fill="#fff100" d="M12.85 30.3c-.02.04.17-1.77-.04-2.03-.2-.26-.33-.48-.33-.48-.18.26-.33.3-.4.54-.1.24-.05 1.44-.05 1.44s.84.48.82.52z"/>
    <path fill="#b85d2e" d="M12.85 30.33h-.03v-.03c-.06-.06-.45-.3-.8-.5H12v-.03c0-.05-.04-1.2.04-1.45.05-.15.13-.23.22-.32l.2-.23.03-.04.02.04s.13.22.33.48c.15.18.11 1.03.06 1.84l-.01.19-.01.05zm-.79-.58c.17.1.6.34.76.46v-.12c.04-.44.12-1.6-.04-1.8-.15-.2-.26-.36-.3-.44l-.18.2c-.08.09-.15.16-.2.3a8.8 8.8 0 0 0-.04 1.4z"/>
    <path fill="#fff100" d="M13.12 30.25c0 .02.04-1.16-.1-1.46-.29.46-.27 1.35-.27 1.35s.37.09.37.11z"/>
    <path fill="#b85d2e" d="M13.14 30.28h-.05v-.01l-.35-.1h-.02v-.03c0-.03-.02-.9.27-1.37l.03-.05.03.06c.12.26.12 1.28.1 1.46v.03zm-.36-.16a3 3 0 0 1 .3.08c.02-.23.02-1.02-.07-1.33-.22.41-.23 1.1-.23 1.25zM12.42 30.05l-1.2-.67v-.01c0-.01-.09-.87-.11-1.42-.02-.43.13-.66.32-.96l.21-.36.04-.07.02.07s.13.38.4.55c.28.18.5 1.04.52 1.07v.01zm-1.14-.7l1.08.59.19-1.68c-.02-.07-.24-.86-.5-1.03a1.18 1.18 0 0 1-.38-.5l-.18.3c-.2.3-.33.51-.32.92.02.5.1 1.27.1 1.4z"/>
    <path fill="#fff100" d="M14.97 28.99s.27-1.6.14-2.44c-.47.41-.94.59-1.05.7-.12.13-.43 1-.3 1.7.12.69.26.95.26.95z"/>
    <path fill="#b85d2e" d="M14.02 29.96l-.03-.04c0-.01-.14-.28-.27-.97-.12-.7.19-1.59.32-1.73.04-.04.13-.1.25-.16.2-.11.5-.28.8-.54l.05-.04v.06c.13.85-.14 2.44-.14 2.45V29zm1.07-3.35c-.29.24-.57.4-.76.5-.12.07-.2.12-.24.16-.1.1-.43.96-.3 1.67.1.53.2.8.24.9l.9-.87c.03-.14.25-1.55.16-2.36z"/>
    <path fill="#fff100" d="M15.15 31.06c-.04.04.1-.7 0-1.22-.1-.53-.12-1.05-.12-1.05-.68.28-1.44.85-1.2 2.03.48.35 1.08.87 1.08.87s.28-.68.24-.63z"/>
    <path fill="#b85d2e" d="M14.92 31.74l-.03-.03s-.6-.52-1.07-.87h-.01v-.02c-.2-.95.2-1.64 1.21-2.06l.04-.02v.05s.03.53.13 1.04c.07.35.03.8 0 1.05v.15c.01.03.02.04-.25.67zm-1.05-.94c.4.3.9.72 1.03.83.1-.23.2-.48.22-.56v-.2c.03-.24.07-.68 0-1.03a7.88 7.88 0 0 1-.12-1c-.93.4-1.31 1.06-1.13 1.96z"/>
    <path fill="#b85d2e" d="M14.53 31.25h-.07c0-.02.05-.54.2-.76l.05.04c-.14.2-.18.72-.18.72z"/>
    <path fill="#fff100" d="M15.36 31.75s.14-.32-.1-.96c-.41.13-.54.64-.54.64z"/>
    <path fill="#b85d2e" d="M15.38 31.8l-.7-.36.01-.02c0-.02.13-.52.56-.66h.03v.02c.26.64.12.97.1.99zm-.62-.4l.58.3c.03-.09.08-.38-.1-.86-.32.12-.45.47-.48.57zM10.75 28.76c0-.04-.17-1.1.05-1.37l.05.04c-.2.25-.04 1.31-.04 1.32zM10.84 25.62l-.07-.02s.33-.93.33-1.52h.07c0 .6-.32 1.5-.33 1.54z"/>
    <path fill="#fff100" d="M11.24 24.3s.5-1 1.14-1c-.28.82-.4 1.55-.4 1.55l-.69.36z"/>
    <path fill="#b85d2e" d="M11.26 25.26l-.05-.97v-.01c.02-.04.52-1.02 1.17-1.02h.04l-.01.05c-.27.8-.39 1.54-.39 1.55v.01zm.01-.96l.05.85.64-.32c.02-.11.13-.77.37-1.5-.56.05-1.01.88-1.06.97z"/>
    <path fill="#fff100" d="M11.83 27.2s.1-1.75-.06-2.29c-.75.16-1.36.86-1.3 1.4.06.55.3 1.67.3 1.67l.58.1z"/>
    <path fill="#b85d2e" d="M11.36 28.1l-.61-.1v-.02c-.01-.01-.25-1.12-.31-1.66-.07-.58.58-1.28 1.32-1.44h.03l.01.02c.15.54.07 2.24.06 2.31v.02zm-.56-.15l.53.08.47-.83c0-.13.08-1.7-.06-2.25-.7.16-1.3.82-1.23 1.36.05.5.26 1.47.3 1.64z"/>
    <path fill="#b85d2e" d="M11.04 27.45l-.05-.03s.18-.35.16-1.22h.07c.02.9-.17 1.23-.18 1.25z"/>
    <path fill="#fff100" d="M11.3 29.18c-.05 0 .31-1.28-.39-2-.34.5-.49 1.2-.21 1.64.27.45.63.36.6.36z"/>
    <path fill="#b85d2e" d="M11.24 29.22c-.1 0-.36-.03-.57-.38-.3-.5-.1-1.21.21-1.68l.03-.03.02.03c.58.6.45 1.55.4 1.9v.14c-.01.01-.02.02-.09.02zm-.33-1.98c-.3.45-.45 1.13-.18 1.57.19.31.42.35.51.35h.02v-.1c.05-.35.18-1.25-.35-1.82z"/>
    <path fill="#fff100" d="M12.7 25.8l-.1-1.65s-.48-.12-.61.53c-.14.64-.17 2-.17 2v.88l.72-.6z"/>
    <path fill="#b85d2e" d="M11.79 27.63v-.96c0-.01.03-1.36.16-2 .11-.5.43-.56.56-.56h.1l.02.01v.03l.11 1.64-.17 1.2zm.72-3.46c-.14 0-.4.07-.49.51a14.8 14.8 0 0 0-.16 2v.8l.65-.53.17-1.16-.11-1.62h-.06z"/>
    <path fill="#fff100" d="M12.51 26.06s.14-.35-.05-.91c-.45.23-.7 1-.3 1.58.38.6.35-.67.35-.67z"/>
    <path fill="#b85d2e" d="M12.33 26.92c-.06 0-.13-.05-.2-.17a1.22 1.22 0 0 1-.16-.97c.07-.3.25-.55.47-.66l.04-.02.01.04c.18.52.08.87.06.92 0 .1 0 .68-.14.83a.11.11 0 0 1-.08.03zm.11-1.72a.98.98 0 0 0-.4.6c-.09.31-.03.65.14.92.08.12.13.14.15.14 0 0 .02 0 .03-.02.11-.1.12-.6.12-.78v-.01s.13-.34-.04-.85z"/>
    <path fill="#fff100" d="M11.99 29.77s-.13-4.88.42-6.52c-.61.45-.63 2.4-.69 3.09a18.4 18.4 0 0 0-.11 3.07c.15.38.38.36.38.36z"/>
    <path fill="#b85d2e" d="M11.98 29.8c-.04 0-.26-.02-.4-.38-.1-.23 0-1.75.11-3.09l.03-.37c.05-.87.13-2.34.68-2.74l.05.04c-.54 1.62-.43 6.46-.42 6.5v.04zm.37-6.44c-.44.47-.52 1.85-.57 2.6l-.02.38a17.48 17.48 0 0 0-.12 3.06c.1.27.25.32.32.33-.01-.44-.1-4.73.39-6.37z"/>
    <path fill="#fff100" d="M16.76 31.7s.65-.26.15-1.75c-.54.65-.52.76-.34 1.52.1.23.2.23.2.23z"/>
    <path fill="#b85d2e" d="M16.77 31.73c-.02 0-.13 0-.23-.25v-.01c-.18-.76-.2-.88.35-1.54l.04-.05.02.06c.5 1.5-.14 1.78-.17 1.8zm.13-1.71c-.49.6-.47.7-.3 1.44.07.17.14.2.16.2.07-.03.55-.35.14-1.64z"/>
    <path fill="#fff100" d="M16.7 33.11s.39-.57.07-1.96c-.47.65-.62.92-.67 1.47.42.52.6.5.6.5z"/>
    <path fill="#b85d2e" d="M16.69 33.15c-.05 0-.24-.04-.62-.51v-.03c.05-.57.21-.84.67-1.48l.04-.06.02.07c.32 1.39-.06 1.97-.08 1.99v.01zm-.56-.55c.33.4.5.47.54.48.06-.1.34-.67.08-1.85-.44.62-.57.87-.62 1.37z"/>
    <path fill="#fff100" d="M18.9 35.52s.18.67 1.6 0c-.52-.38-1.18-.64-1.39-.32-.18.23-.2.32-.2.32z"/>
    <path fill="#b85d2e" d="M19.45 35.85c-.49 0-.58-.3-.58-.32v-.02s.03-.1.22-.33c.06-.1.18-.16.34-.16.28 0 .7.18 1.08.47l.05.04-.05.02c-.42.2-.78.3-1.06.3zm-.51-.33c.01.05.12.26.51.26.26 0 .59-.09.98-.26a1.98 1.98 0 0 0-1-.43c-.14 0-.23.05-.29.13-.14.18-.2.27-.2.3z"/>
    <path fill="#fff100" d="M19.23 35.14s.66-.41.57-2.03c-.06-.3-.15-.36-.15-.36-.72.39-1.5.93-1 2.26.19.35.58.13.58.13z"/>
    <path fill="#b85d2e" d="M18.97 35.24a.37.37 0 0 1-.34-.21c-.5-1.3.2-1.87 1-2.3l.03-.01h.01c.01.02.1.09.17.38.09 1.63-.56 2.05-.59 2.07 0 0-.13.07-.28.07zm.67-2.44c-.72.38-1.44.91-.95 2.2a.3.3 0 0 0 .28.18c.13 0 .24-.07.24-.07.01 0 .65-.43.56-2a.71.71 0 0 0-.13-.31z"/>
    <path fill="#fff100" d="M18.9 33.04s1.02.83 1.74-.1c-.36-.63-1.05-.6-1.5-.21l-.24.31z"/>
    <path fill="#b85d2e" d="M19.81 33.42c-.5 0-.91-.34-.93-.35l-.03-.02.02-.03.24-.31c.22-.2.48-.3.74-.3.34 0 .63.2.82.52l.01.02-.01.02c-.23.3-.52.45-.86.45zm-.86-.38c.1.07.46.31.86.31a1 1 0 0 0 .8-.4.86.86 0 0 0-.76-.47c-.24 0-.49.1-.69.27l-.21.29zM19.17 35.16c0-.01-.3-.63.15-1.34l.06.04a1.34 1.34 0 0 0-.15 1.26zM19.99 38.53c-.01 0-.88-.97-.88-2.05h.07c0 1.06.85 2 .86 2.01z"/>
    <path fill="#fff100" d="M18.22 37.82s.17-1.1-.82-1.76c-.09.64-.02 1.38.39 1.6.26.19.43.16.43.16z"/>
    <path fill="#b85d2e" d="M18.2 37.86a.77.77 0 0 1-.43-.17c-.43-.24-.5-1-.4-1.63V36l.05.02c1 .67.83 1.79.83 1.8v.02h-.03-.02zm-.78-1.74c-.07.6 0 1.3.38 1.52.2.13.33.15.39.15.02-.17.06-1.08-.77-1.67z"/>
    <path fill="#fff100" d="M18.84 30.55s.4.34 1.6-.78c-.32-.32-1.3-.08-1.63.28-.32.37.03.5.03.5z"/>
    <path fill="#b85d2e" d="M19.03 30.63a.35.35 0 0 1-.2-.05c-.03-.01-.15-.07-.18-.19-.02-.1.02-.22.14-.36.21-.24.74-.44 1.17-.44.23 0 .4.05.5.15l.03.03-.03.02c-.74.7-1.19.84-1.43.84zm.93-.98c-.41 0-.92.2-1.12.43-.1.11-.15.21-.13.3.03.1.14.14.14.14h.01s.05.04.17.04c.19 0 .6-.1 1.36-.8-.1-.07-.24-.1-.43-.1z"/>
    <path fill="#b85d2e" d="M19.06 30.29l-.05-.05c.02-.02.39-.35.82-.35v.07c-.4 0-.77.32-.77.33z"/>
    <path fill="#fff100" d="M19.09 29.9s.12-.5.24-1.18c-.64.34-.84.92-.79 1.39.05.47.2.15.2.15z"/>
    <path fill="#b85d2e" d="M18.64 30.4c-.07 0-.11-.1-.13-.3-.06-.58.24-1.11.8-1.4l.07-.04-.02.07c-.12.67-.24 1.17-.24 1.17v.01l-.01.01-.34.36c-.02.03-.07.12-.13.12zm.65-1.62a1.34 1.34 0 0 0-.71 1.32c.02.22.06.23.06.23.02 0 .05-.04.07-.08v-.01l.34-.36c.02-.07.13-.5.24-1.1z"/>
    <path fill="#fff100" d="M19.36 31.6s-.5.39-1.19-.53c-.27-.42-.22-.86-.22-.86s.1-.18.3-.05c.2.13.54.39.54.62 0 .24.57.82.57.82z"/>
    <path fill="#b85d2e" d="M19.07 31.71c-.2 0-.54-.1-.92-.62a1.46 1.46 0 0 1-.23-.88v-.02s.06-.11.19-.11c.05 0 .1.02.15.05.26.17.56.42.56.65 0 .19.4.63.56.79l.03.03-.03.02s-.12.1-.31.1zm-1.09-1.49c0 .06-.02.46.22.83.37.5.68.6.87.6.1 0 .19-.04.23-.06-.12-.13-.55-.59-.55-.8 0-.17-.19-.38-.53-.6a.22.22 0 0 0-.11-.05c-.07 0-.12.06-.13.08z"/>
    <path fill="#b85d2e" d="M18 30.31l.84 1.05.05-.05-.84-1.04z"/>
    <path fill="#fff100" d="M18.91 30.68s.12-.78-.64-.6c-.02.4.15.6.4.63.24.02.24-.03.24-.03z"/>
    <path fill="#b85d2e" d="M18.79 30.75l-.13-.01c-.28-.03-.45-.28-.42-.66v-.03h.02c.26-.07.45-.03.57.11.16.2.12.51.11.53 0 0 0 .02-.03.04a.31.31 0 0 1-.12.02zm-.49-.64c-.01.33.12.54.37.56l.12.01.09-.01c0-.06.03-.31-.1-.47-.1-.1-.26-.14-.48-.1z"/>
    <path fill="#fff100" d="M17.7 32.93s.62-.42.67-1.05c.05-.63-.4-.78-.62-.47a2.4 2.4 0 0 0-.24 1.3c.05.22.2.22.2.22z"/>
    <path fill="#b85d2e" d="M17.71 32.96c-.01 0-.18 0-.24-.23-.05-.23.03-1.03.25-1.34.08-.1.19-.17.3-.17.09 0 .17.04.24.11.11.12.16.32.14.56-.05.63-.65 1.05-.68 1.07zm.31-1.67c-.09 0-.18.05-.24.14a2.37 2.37 0 0 0-.24 1.28c.03.15.12.18.15.18.08-.05.6-.45.65-1 .01-.23-.03-.4-.13-.51a.26.26 0 0 0-.19-.1z"/>
    <path fill="#b85d2e" d="M17.76 32.65l-.06-.01c0-.03.12-.7.22-.85l.06.03c-.1.15-.22.82-.22.83zM17.8 31.39s-.4-.27-.7-.13l-.03-.06c.33-.16.76.12.77.13zM16.45 32.67h-.06c0-.32.17-.59.18-.6l.05.04s-.17.26-.17.56zM18.53 38.02l-.69-.64-.32-.63-.03-.48.02-.01s.2-.12.37-.1c.7.28.8 1.5.8 1.54v.01zm-.63-.67l.61.56.1-.2c0-.12-.12-1.23-.75-1.48h-.03c-.1 0-.22.05-.27.08l.02.43z"/>
    <path fill="#b85d2e" d="M19.09 38.81a.41.41 0 0 1-.17-.04c-.53-.25-.81-.64-.84-1.15v-.05l.04.02c1.07.27 1.15 1.1 1.15 1.1v.01c0 .01-.05.11-.18.11zm-.94-1.15c.04.46.31.82.8 1.05.05.03.1.04.14.04.07 0 .1-.05.11-.06-.01-.1-.12-.77-1.05-1.03z"/>
    <path fill="#fff100" d="M14.49 36.35s.03-.9.12-1.33c-.25-.19-.52-.36-.8-.54a2.8 2.8 0 0 0 .25 1.64c.26.4.43.23.43.23z"/>
    <path fill="#b85d2e" d="M14.39 36.42c-.12 0-.24-.1-.36-.28a2.81 2.81 0 0 1-.25-1.67v-.05l.05.03c.27.16.54.35.8.54l.02.01v.02c-.1.43-.13 1.32-.13 1.33v.02c-.01 0-.06.05-.13.05zm-.55-1.88a2.7 2.7 0 0 0 .25 1.57c.13.2.23.25.3.25.03 0 .05-.02.07-.03 0-.11.03-.9.12-1.3l-.74-.5zM18.48 37.29v-.07c.21-.02.44-.44.44-.44l.06.03c0 .02-.25.45-.5.48zM18.32 36.74l-.04-.04c-.01-.01-.31-.36-.14-.88h.06c.24.58.14.86.13.87zm-.14-.8c-.07.31.04.55.1.66.02-.1.03-.32-.1-.66zM19.5 37.86s-.57-.12-.89-.07v-.07c.32-.05.89.07.91.07z"/>
    <path fill="#b85d2e" d="M18.77 37.76l-.07-.01a2 2 0 0 1 .27-.45l.05.04c-.06.09-.23.33-.25.42zM19.86 39.75l-.05-.02c-.01 0-.74-.22-.7-.97v-.04l.04.01c.44.12.62.4.63.4v.02zm-.68-.94c-.01.56.44.78.6.84l-.06-.49a1.03 1.03 0 0 0-.54-.35z"/>
    <path fill="#fff100" d="M19 40.27s.1-1.1-.74-1.46c-.32.43-.06 1.33.17 1.53.24.2.57-.07.57-.07z"/>
    <path fill="#b85d2e" d="M18.64 40.45a.34.34 0 0 1-.23-.08c-.25-.22-.5-1.13-.17-1.58l.01-.02h.02c.86.38.76 1.5.76 1.5v.02l-.01.01s-.18.15-.38.15zm-.37-1.6c-.29.43-.03 1.28.19 1.47.05.04.11.07.18.07a.6.6 0 0 0 .32-.13c.01-.13.05-1.07-.69-1.41z"/>
    <path fill="#b85d2e" d="M18.58 40.29c-.01-.02-.22-.42-.22-.68h.07c0 .24.2.64.2.65zM18.78 39.3a.6.6 0 0 1-.4-.17v-.01a1.4 1.4 0 0 1-.28-.95v-.05l.04.02c1.03.37.93 1.03.93 1.04v.02c-.01 0-.12.1-.29.1zm-.61-1.09c0 .5.14.7.26.87h.01c.11.1.23.16.34.16.12 0 .2-.06.23-.08 0-.09.02-.61-.84-.95z"/>
    <path fill="#fff100" d="M18.06 39.34s.51-1.12-.75-1.85c-.17.86-.02 1.51.45 1.81.2.1.3.04.3.04z"/>
    <path fill="#b85d2e" d="M17.96 39.4a.49.49 0 0 1-.22-.06c-.47-.31-.64-.97-.47-1.85l.01-.05.04.02c1.28.74.77 1.88.77 1.9h-.01s-.05.03-.12.03zm-.63-1.85c-.15.83 0 1.44.45 1.73.06.03.12.04.18.04a.2.2 0 0 0 .07 0c.05-.13.42-1.1-.7-1.77z"/>
    <path fill="#b85d2e" d="M17.95 39.29c-.3-.22-.29-.8-.28-.83h.06s0 .58.26.77z"/>
    <path fill="#fff100" d="M18.4 40.42s-.07-1.18-1.56-1.18c.08 1.04.36 1.45.76 1.5.39.04.8-.32.8-.32z"/>
    <path fill="#b85d2e" d="M17.67 40.78l-.08-.01c-.45-.06-.71-.55-.78-1.52v-.04h.03c1.5 0 1.58 1.2 1.58 1.2v.03c-.02.02-.38.34-.75.34zm-.8-1.5c.08.9.32 1.37.73 1.42.33.04.69-.24.76-.3-.02-.14-.15-1.1-1.48-1.12z"/>
    <path fill="#b85d2e" d="M18.11 40.46c-.03-.02-.7-.58-.79-.86l.06-.02c.09.26.77.82.78.83zM16.42 39.12c0-.02-.18-.3-.23-.62l.07-.01c.04.3.22.59.22.59z"/>
    <path fill="#fff100" d="M16.75 38.32s-.44-1.51-1.25-1.99c-.15.4-.34.9-.22 1.32-.02.34.2.6.2.6l.64.09z"/>
    <path fill="#b85d2e" d="M16.12 38.37l-.66-.08-.01-.01c-.01-.01-.22-.28-.2-.62-.12-.43.06-.91.2-1.3l.04-.07.03.02c.82.48 1.25 1.94 1.26 2l.02.04zm-.63-.14l.63.07.59-.01c-.08-.24-.5-1.47-1.19-1.91-.14.38-.32.86-.2 1.26v.01c-.02.29.14.52.17.58z"/>
    <path fill="#fff100" d="M17.64 39.27s-.95-1.59-1.88-1.29c.2.86.5 1.21 1.17 1.32.68.15.7-.03.7-.03z"/>
    <path fill="#b85d2e" d="M17.37 39.4a2.3 2.3 0 0 1-.44-.06c-.69-.12-1-.47-1.2-1.35l-.01-.03h.03a.9.9 0 0 1 .25-.04c.86 0 1.63 1.28 1.67 1.34v.02c0 .02-.03.12-.3.12zM15.8 38c.2.83.5 1.16 1.14 1.27.17.04.32.06.43.06.16 0 .22-.04.23-.06-.1-.15-.83-1.29-1.6-1.29a.86.86 0 0 0-.2.03z"/>
    <path fill="#fff100" d="M16.52 35.5s.25-1.44-.52-1.87c-.12.43-.13.78-.09 1.05.06.36.23.76.6.82z"/>
    <path fill="#b85d2e" d="M16.55 35.54l-.04-.01c-.44-.07-.58-.56-.63-.84-.05-.33-.02-.69.1-1.06v-.04l.04.02c.78.42.54 1.83.53 1.9zm-.52-1.85c-.1.35-.13.68-.08.99.04.26.17.7.54.78.03-.22.17-1.38-.46-1.77z"/>
    <path fill="#fff100" d="M17.45 36.48s-.42-1.17-1.11-1.59c.06.73.63 1.53.9 1.72.28.19.3.16.3.16z"/>
    <path fill="#b85d2e" d="M17.54 36.8c-.01 0-.06 0-.31-.17-.3-.2-.86-1-.92-1.73v-.07l.05.03c.7.42 1.1 1.56 1.12 1.6l.1.32-.02.03h-.02zm-1.16-1.84c.09.69.61 1.43.89 1.62l.22.14-.08-.23s-.4-1.1-1.03-1.53z"/>
    <path fill="#fff100" d="M15.1 40.3s.14-1.8-1.78-2.48c.04.48.66 2.73 1.78 2.48z"/>
    <path fill="#b85d2e" d="M14.93 40.35c-1.05 0-1.6-2.08-1.65-2.53v-.05l.05.02c1.92.68 1.8 2.5 1.8 2.51v.03h-.02a.92.92 0 0 1-.18.02zm-1.57-2.48c.07.51.62 2.41 1.57 2.42l.14-.02c0-.22 0-1.77-1.71-2.4z"/>
    <path fill="#b85d2e" d="M15.05 40.3c-.03-.03-.7-.56-.71-.91-.02-.33-.2-.48-.2-.48l.03-.06c.01.01.22.17.23.53.02.33.69.86.7.86z"/>
    <path fill="#fff100" d="M14.15 38.38s.2-1.6-1.47-2.28c.02.86.25 1.72.83 2.07.59.36.64.2.64.2z"/>
    <path fill="#b85d2e" d="M14.08 38.44c-.12 0-.32-.08-.58-.24-.7-.42-.84-1.5-.86-2.1v-.05l.05.02c1.68.68 1.5 2.3 1.5 2.31 0 .02-.03.06-.11.06zm-1.37-2.28c.03.6.17 1.59.82 1.98.32.2.47.24.54.24l.05-.01c.01-.13.1-1.57-1.4-2.21z"/>
    <path fill="#b85d2e" d="M13.12 37.68a2.66 2.66 0 0 1-.2-1.08l.07.01c-.05.43.19 1.04.2 1.05zM15.9 41.85l-1.33-1.6.34-.14.02.02 1.4 1.39zm-1.22-1.57l1.23 1.48.31-.25-1.32-1.32zM12.95 36.37s-.06-.4-.3-.69a.94.94 0 0 1-.23-.64h.07s-.03.32.21.6c.26.3.31.7.32.73z"/>
    <path fill="#fff100" d="M12 33.56s-.12-.78-1.35-1.37c-.13.63-.04.92.18 1.27.23.36.52.86.52.86l.63.47.31-.06z"/>
    <path fill="#b85d2e" d="M11.97 34.83l-.65-.5-.52-.85c-.23-.36-.32-.67-.19-1.3l.01-.04.04.02c1.24.59 1.36 1.36 1.37 1.4l.3 1.2zm-.6-.53l.62.46.26-.05-.29-1.14c0-.02-.12-.76-1.29-1.33-.11.58-.02.86.19 1.2l.52.86zM14.35 29.05h-.07c0-.04.02-.97.33-1.46l.06.04c-.3.47-.32 1.41-.32 1.42z"/>
    <path fill="#fff100" d="M14.3 27.2s1.29-.52 1.14-2.33c-.4.15-.88.4-1.05 1.05-.16.65-.1 1.28-.1 1.28z"/>
    <path fill="#b85d2e" d="M14.26 27.25v-.05s-.06-.64.1-1.3c.17-.65.63-.9 1.07-1.06l.04-.02v.05c.15 1.8-1.15 2.35-1.17 2.36zm1.15-2.33c-.42.16-.83.4-.98 1a4.24 4.24 0 0 0-.1 1.23c.2-.11 1.19-.7 1.08-2.23z"/>
    <path fill="#b85d2e" d="M14.49 26.7l-.07-.01c.01-.04.32-1.06.78-1.26l.03.06c-.43.19-.74 1.2-.74 1.22z"/>
    <path fill="#fff100" d="M15.4 24.91s1.13.11 1.6-1.74c-.7.26-1.41.8-1.58 1.15-.16.35-.02.6-.02.6z"/>
    <path fill="#b85d2e" d="M15.44 24.95h-.06v-.02c-.01-.01-.16-.26.01-.62.18-.37.92-.92 1.6-1.17l.06-.02-.01.06c-.43 1.68-1.41 1.77-1.6 1.77zm-.02-.07c.14 0 1.1-.03 1.53-1.65-.64.25-1.34.76-1.5 1.11-.13.28-.06.48-.03.54z"/>
    <path fill="#fff100" d="M15.4 24.76s.25-.59-.14-1.11c-.46.28-1.05 1.05-.76 2.2l.71-.74z"/>
    <path fill="#b85d2e" d="M14.48 25.92l-.02-.06c-.3-1.2.35-1.97.78-2.24l.02-.01.02.02c.4.53.15 1.14.15 1.15l-.2.35-.71.74zm.77-2.22c-.4.26-.98.98-.74 2.08l.68-.69.18-.34s.23-.56-.12-1.05zM15.78 24.43l-.06-.04c.02-.02.36-.5.7-.62l.02.06c-.32.1-.66.6-.66.6z"/>
    <path fill="#fff100" d="M12.6 28.14s-1.43-2.1.42-2.75c.02.53.26 1.24.26 1.24z"/>
    <path fill="#b85d2e" d="M12.61 28.2l-.03-.04c-.03-.05-.76-1.11-.48-1.97.13-.38.43-.66.9-.83l.05-.01v.04c.02.51.26 1.23.27 1.23v.02zm.37-2.76c-.43.16-.7.42-.81.77-.24.72.29 1.64.43 1.86l.65-1.44c-.03-.1-.23-.71-.27-1.19z"/>
    <path fill="#fff100" d="M13.06 28.99s.82-1.05.37-2.55c-.45.1-.85.35-.93 1.74.27.59.56.8.56.8z"/>
    <path fill="#b85d2e" d="M13.06 29.03l-.02-.02c-.01 0-.3-.23-.57-.82v-.01c.09-1.45.52-1.67.95-1.77l.03-.01.01.03a2.99 2.99 0 0 1-.38 2.58zm-.52-.86c.21.47.44.7.51.77.13-.18.74-1.14.36-2.46-.42.1-.79.33-.87 1.7zM12.87 25.52h-.06v.72h.06zM12.87 24.78c0-.04-.12-1.1.26-1.44l.05.05c-.36.32-.25 1.37-.24 1.38zM11.31 25.89l-.05-.04s.42-.6.45-.91h.06c-.03.33-.44.92-.46.95zM14.49 20.98h-.07c0-.05.12-1.06.6-1.41l.04.05c-.46.34-.57 1.35-.57 1.36z"/>
    <path fill="#fff100" d="M13.4 20.77s-.42-1.06 1.2-2.68c.21 1.06-.15 2.03-.15 2.03z"/>
    <path fill="#b85d2e" d="M13.38 20.82l-.01-.04c-.02-.04-.4-1.1 1.2-2.7l.04-.05.02.06c.22 1.05-.14 2.03-.14 2.04v.01zm1.2-2.66c-1.36 1.39-1.21 2.35-1.16 2.56l1-.62c.04-.1.33-.98.15-1.94z"/>
    <path fill="#fff100" d="M13.73 21.74s-.69-1.3.86-1.97c.14.65 0 1.32-.27 1.73-.28.41-.59.24-.59.24z"/>
    <path fill="#b85d2e" d="M13.9 21.81c-.1 0-.18-.04-.18-.04h-.01v-.01c-.02-.03-.29-.54-.1-1.1.14-.4.46-.7.97-.92l.04-.02v.04c.14.62.03 1.31-.28 1.76-.16.24-.33.29-.44.29zm-.14-.1c.02.01.07.03.14.03.1 0 .24-.04.39-.25.29-.43.4-1.08.28-1.67-.47.2-.76.5-.89.86-.17.49.04.96.08 1.03zM12.3 23.1l-.06-.03s.69-1.17.77-1.49l.06.02c-.08.32-.75 1.46-.78 1.5zM11.56 23.43l.06.02.4-.9-.06-.03z"/>
    <path fill="#b85d2e" d="M13.76 20.31c-.01-.02-.28-.56.53-1.36l.05.05c-.77.76-.52 1.28-.52 1.28zM13.62 22.89c0-.01-.11-.93.33-1.64l.06.04c-.43.68-.33 1.58-.33 1.6z"/>
    <path fill="#fff100" d="M16.42 19.1s-.22-1.82 1.5-1.87c-.06 1.11-.7 1.9-1.5 1.87z"/>
    <path fill="#b85d2e" d="M16.45 19.14h-.06v-.03c0-.04-.1-.87.38-1.43.27-.3.65-.47 1.15-.48h.04v.03c-.07 1.1-.7 1.9-1.5 1.9zm0-.07c.77 0 1.37-.76 1.44-1.8-.46.02-.82.17-1.07.45-.41.48-.38 1.2-.37 1.35z"/>
    <path fill="#b85d2e" d="M16.48 18.74l-.03-.06s.39-.19.56-.3l.04.06c-.18.11-.56.3-.57.3zM15.76 19.22l-.04-.05c.15-.13.54-.5.58-.68l.06.02c-.04.24-.57.69-.6.7zM15.73 19.63l-.06-.03c0-.02.2-.4.36-.48l.03.06c-.11.05-.28.34-.33.45z"/>
    <path fill="#fff100" d="M16.88 16.51s1.26-.5 1.09-1.7c-.55-.05-1.64.34-1.8 1.77.42-.02.7-.07.7-.07z"/>
    <path fill="#b85d2e" d="M16.14 16.62v-.04c.16-1.43 1.2-1.81 1.74-1.81H18v.03c.18 1.21-1.1 1.74-1.11 1.74-.01 0-.3.05-.71.08zm1.74-1.79c-.5 0-1.5.36-1.67 1.72.4-.03.66-.07.66-.07s1.22-.5 1.07-1.64h-.06z"/>
    <path fill="#fff100" d="M15.76 17.74s1.07-.07 1.36-1.53c-.5 0-.98-.25-1.44 1.16-.05.25.08.37.08.37z"/>
    <path fill="#b85d2e" d="M15.75 17.77c-.01-.01-.15-.14-.1-.4.32-1 .66-1.2 1.08-1.2h.2l.19.01h.04v.04c-.3 1.46-1.38 1.55-1.4 1.55zm.97-1.54c-.3 0-.67.09-1.01 1.15-.03.19.04.3.07.32.12-.01 1.03-.17 1.3-1.45l-.16-.01-.2-.01z"/>
    <path fill="#b85d2e" d="M16.49 16.63l.04.05.59-.41-.04-.06zM17.3 16.7l.04.05.48-.49-.05-.05zM16.82 18.2l-.06-.04c.01-.02.3-.36.4-.43l.04.06c-.1.07-.38.4-.38.41zM18.47 16.74l.04.05.66-.65-.05-.04zM18.04 16.1l-.05-.05c.26-.31.9-1.05 1.03-1.02v.06c-.09 0-.57.52-.98 1zM17.1 15.5l.04.05.74-.6-.04-.05zM16.8 14.5l.03.06.85-.55-.03-.06zM19.68 15.57l-.05-.05c.02-.03.69-.8 1.07-.84v.06c-.35.05-1.02.82-1.02.83zM19.87 14.53l-.05-.05c.04-.03.8-.7 1.16-.72v.06c-.33.02-1.1.7-1.11.7zM17.93 13.73l.03.06.61-.27-.03-.06zM21.62 13.53l-.05-.04c.02-.03.56-.61.92-.61v.06c-.33 0-.87.59-.87.6zM22.6 13.7l-.04-.05c.03-.03.71-.54 1.1-.47l-.02.06c-.35-.06-1.04.45-1.04.46zM24 13.39l-.05-.03c0-.01.38-.67 1.2-.67v.07c-.78 0-1.14.62-1.15.63zM23.23 12.69l-.04-.06c.03-.02.8-.47 1.16-.38l-.02.07c-.33-.09-1.1.36-1.1.37zM21.11 14.42l-.04-.06c.03-.02.67-.51 1.14-.49v.07c-.45-.02-1.1.47-1.1.48zM17.86 16.04l.05.03.26-.4-.05-.03zM25.64 12.76v-.07c.31-.02 1.18-.1 1.35-.24l.04.05c-.22.19-1.35.26-1.4.26zM24.7 11.88v-.07c.22-.02.96-.43.96-.43l.03.06a4.8 4.8 0 0 1-.99.44zM26.25 11.46h-.46v.06h.46zM28.44 11.31c-.3 0-1-.09-1.08-.1v-.07a7.8 7.8 0 0 0 1.2.1l.01.06a.6.6 0 0 1-.13.01zM18.7 13.22l.03.06.89-.38-.03-.07zM19.99 11.91l.01.07 1.05-.17-.01-.06z"/>
    <path fill="#b85d2e" d="M21.06 11.83l-.03-.06a2.58 2.58 0 0 1 .93-.34v.06h-.03c-.3 0-.86.34-.87.34zM22.86 11l-.02-.05c.01-.01.42-.2.69-.07l-.03.06c-.24-.12-.63.07-.64.07zM24.32 10.56l-.03-.05c.01-.01.38-.24.58-.08l-.05.05c-.15-.13-.5.08-.5.08zM25.5 10.11v.07l1.1-.18-.02-.07zM26.92 10.03l-.02-.06c.03-.02.89-.35 1.19-.07l-.05.05c-.27-.25-1.11.08-1.12.08zM15.86 15.57l-.07-.02c.12-.31.54-.69.55-.7l.05.05s-.43.38-.53.67z"/>
    <path fill="#fff100" d="M13.6 39.03s-.2-1.39-1.43-1.77c-.02 1 .87 1.48.87 1.48.36.26.56.29.56.29z"/>
    <path fill="#b85d2e" d="M13.64 39.07h-.05c0-.01-.2-.04-.57-.31 0 0-.9-.5-.88-1.5v-.05l.04.01c1.24.39 1.45 1.79 1.45 1.8zM12.2 37.3c0 .94.84 1.4.85 1.4.25.19.42.26.5.28-.05-.25-.33-1.33-1.35-1.68z"/>
    <path fill="#fff100" d="M12.73 36.31s-.25-.56-1.28-.7c.3 1.26.95 1.91 1.23 2.06.27.15.78.38.78.38z"/>
    <path fill="#b85d2e" d="M13.44 38.09l-.78-.39c-.23-.13-.92-.74-1.24-2.1l-.01-.04h.05c1.03.16 1.3.71 1.3.74l.73 1.74zm-1.94-2.45c.32 1.3.97 1.88 1.2 2l.7.35-.7-1.66c0-.01-.25-.53-1.2-.69z"/>
    <path fill="#fff100" d="M11.3 34.13s-.02-.56-.66-1.07c.08.86.61 1.24.61 1.24z"/>
    <path fill="#b85d2e" d="M11.27 34.36l-.04-.03a1.8 1.8 0 0 1-.62-1.26l-.01-.08.06.05c.65.5.68 1.06.68 1.09zm-.59-1.22c.1.65.44 1 .56 1.1l.04-.12c0-.06-.07-.54-.6-.98z"/>
    <path fill="#fff100" d="M12.37 35.19s-.42-1-1.45-1.21c.11 1.06.28 1.36.75 1.74.47.38.92.5.92.5l-.05-.53z"/>
    <path fill="#b85d2e" d="M12.63 36.27l-.05-.02c-.02 0-.46-.12-.93-.5-.48-.4-.65-.69-.76-1.77v-.04h.04c1.03.21 1.47 1.22 1.47 1.24l.17.5zm-1.67-2.25c.1 1.02.27 1.3.73 1.68.38.3.74.43.86.48l-.05-.48-.16-.5s-.41-.96-1.38-1.18z"/>
    <path fill="#b85d2e" d="M12.2 35.5c-.02-.02-.67-.56-.81-1.04l.06-.02c.14.46.8 1.01.8 1.02zM17.66 34.03a5.1 5.1 0 0 1 0-1.01h.07c0 .01-.06.76 0 1zM12.93 28.34l-.07-.02s.12-.41.14-.67l.01-.18c.01-.2.02-.38.1-.49l.06.04c-.08.1-.08.27-.09.45l-.01.19c-.02.26-.14.66-.14.68z"/>
    <path fill="#fff100" d="M20.07 38.94s-.2-.32-.65-.32c.1.46.06.32.19.5.13.17 0 .38 0 .38.23.28.46.5.96.6 0-.24-.22-.55-.22-.55z"/>
    <path fill="#b85d2e" d="M20.6 40.14h-.04c-.5-.12-.74-.33-.98-.62l-.01-.03.01-.02s.12-.18 0-.34a1.38 1.38 0 0 0-.06-.07c-.05-.06-.05-.07-.1-.3l-.05-.17h.05a.8.8 0 0 1 .68.33l.28.6c0 .01.22.33.22.58zm-.95-.65c.21.27.44.46.89.57-.03-.22-.22-.5-.22-.5l-.27-.6a.73.73 0 0 0-.6-.3l.03.1c.05.2.05.2.1.25 0 .02.03.04.06.08.12.16.04.34.01.4z"/>
    <path fill="#fff100" d="M21.85 39.43s.39-.73-1.11-1.91c-.06.7.5 1.43.5 1.43.25.32.6.48.6.48z"/>
    <path fill="#b85d2e" d="M21.86 39.47l-.02-.01c-.02-.01-.38-.17-.62-.49-.02-.03-.58-.75-.51-1.45v-.07l.05.04c1.5 1.18 1.13 1.92 1.12 1.95zm-1.1-1.88c-.01.66.51 1.33.52 1.34.19.26.46.4.55.45.05-.14.17-.8-1.06-1.8z"/>
    <path fill="#fff100" d="M22.05 39.8s-.19-1.15-1.4-2.16c-.06.57-.15 1.03.27 1.57.63.9 1.13.6 1.13.6z"/>
    <path fill="#b85d2e" d="M21.83 39.89c-.22 0-.56-.11-.94-.66-.39-.5-.34-.93-.3-1.44l.02-.15v-.06l.05.04a4 4 0 0 1 1.42 2.18v.02l-.01.01s-.1.06-.24.06zm-1.16-2.18v.09c-.05.5-.1.91.28 1.4.36.51.68.62.88.62a.5.5 0 0 0 .19-.03 4 4 0 0 0-1.35-2.08z"/>
    <path fill="#fff100" d="M21.64 39.8s-.6-.66-.72-1.04-.69-.32-.69-.32c.06.83.18 1.11.81 1.43.63.32.6-.06.6-.06z"/>
    <path fill="#b85d2e" d="M21.44 40.03c-.1 0-.24-.04-.42-.13-.64-.32-.76-.63-.82-1.46v-.03h.13c.15 0 .52.03.62.34.12.37.71 1.03.72 1.04v.02s.01.1-.05.16a.24.24 0 0 1-.18.06zm-1.17-1.56c.06.78.17 1.06.79 1.37.16.08.29.12.38.12.06 0 .1-.01.13-.04a.15.15 0 0 0 .04-.1c-.08-.08-.6-.69-.72-1.05-.08-.26-.4-.3-.57-.3h-.05zM20.6 32.95c-.01-.01-.83-.47-1.41 0l-.04-.06c.61-.49 1.47 0 1.48 0z"/>
  </g>
  <path fill="#FFF100" d="M27.98 9.59l.06-.03.27-.07.4-.02 1.32-.04.3.05.08.04.09.1.02.08-.02.01-.4.1-1.37.03-.63-.09-.12-.16z"/>
  <path fill="#EC1C24" d="M41.74 37.36s1.55-1.68 3.95-3.07c2.4-1.38 3.69-2.33 3.98-2.97.3-.56.25-.9.13-1.29-.18-.55-.22-1.26-.05-1.62.13-.26.38-1.7.38-1.7l-.12-1.12-.34-.38-.42-.3c.5 1.15.62 2.88-.34 4.01l-4.2 2.48-1.84 1.24-1.26 1.73-.3 1.26-.08 1.02.5.7z"/>
  <use width="100%" height="100%" transform="matrix(-1 0 0 1 58.86 0)" xlink:href="#a"/>
</svg>
