<svg width="60" height="60" viewBox="0 0 60 60" fill="none" xmlns="http://www.w3.org/2000/svg">
<g clip-path="url(#clip0)">
<rect width="60" height="59.9995" fill="#007137"/>
<rect width="60" height="60" fill="#007137"/>
<path fill-rule="evenodd" clip-rule="evenodd" d="M46 13H13V47H46V13ZM10 10V50H49V10H10Z" fill="white"/>
<path d="M19 42.6328V17H28.4463C32.0654 17 35.1423 18.234 37.6768 20.7021C40.2113 23.1702 41.4785 26.2083 41.4785 29.8164C41.4785 33.4134 40.2057 36.4515 37.6602 38.9307C35.1257 41.3988 32.0544 42.6328 28.4463 42.6328H19ZM25.6572 22.6445V36.9883H27.168C29.4368 36.9883 31.2298 36.3574 32.5469 35.0957C33.875 33.834 34.5391 32.0742 34.5391 29.8164C34.5391 27.5918 33.8805 25.8431 32.5635 24.5703C31.2464 23.2865 29.4701 22.6445 27.2344 22.6445H25.6572Z" fill="white"/>
</g>
<defs>
<clipPath id="clip0">
<rect width="60" height="59.9995" fill="white"/>
</clipPath>
</defs>
</svg>
