<svg width="60" height="60" viewBox="0 0 60 60" fill="none" xmlns="http://www.w3.org/2000/svg">
<g clip-path="url(#clip0)">
<rect width="60" height="60" fill="#518EF8" fill-opacity="0.36"/>
<path d="M45.0709 19.7775V48.2299C45.0709 49.76 43.8298 50.9999 42.3008 50.9999H16.6976C15.1675 50.9999 13.9276 49.76 13.9276 48.2299V10.7701C13.9275 9.23995 15.1674 8 16.6976 8H33.2934L45.0709 19.7775Z" fill="#518EF8"/>
<path d="M37.4627 27.5889H21.5371V29.3585H37.4627V27.5889Z" fill="white"/>
<path d="M37.4627 31.5414H21.5371V33.311H37.4627V31.5414Z" fill="white"/>
<path d="M37.4627 35.4931H21.5371V37.2627H37.4627V35.4931Z" fill="white"/>
<path d="M32.8628 39.4457H21.5371V41.2153H32.8628V39.4457Z" fill="white"/>
<path d="M34.9002 19.5216L45.0709 23.7117V19.7775L39.3045 18.0749L34.9002 19.5216Z" fill="#3A5BBC"/>
<path d="M45.071 19.7775H36.0635C34.5333 19.7775 33.2935 18.5376 33.2935 17.0075V8L45.071 19.7775Z" fill="#ACD1FC"/>
</g>
<defs>
<clipPath id="clip0">
<rect width="60" height="59.9995" fill="white"/>
</clipPath>
</defs>
</svg>
