<svg width="60" height="60" viewBox="0 0 60 60" fill="none" xmlns="http://www.w3.org/2000/svg">
<g clip-path="url(#clip0)">
<rect width="60" height="60" fill="white"/>
<rect width="60" height="60" fill="#3C5A9A"/>
<path d="M46.9515 11C46.9515 13.0528 46.9515 14.8838 46.9515 16.7122C46.9515 17.4951 46.9311 18.2755 46.9541 19.0558C46.9719 19.5327 46.8113 19.7035 46.3293 19.6933C44.988 19.6729 43.639 19.678 42.295 19.6984C41.8335 19.7086 41.3668 19.7673 40.9205 19.8769C40.0561 20.0911 39.5001 20.6751 39.4746 21.5906C39.4211 23.3884 39.4568 25.1914 39.4568 27.0835C41.8972 27.0835 44.3938 27.0835 47 27.0835C46.8699 28.4606 46.7577 29.7407 46.6277 31.0158C46.5002 32.3011 46.3319 33.5812 46.2248 34.8716C46.1814 35.4581 46.0208 35.7182 45.3577 35.708C43.3814 35.6596 41.4051 35.6902 39.3599 35.6902C39.3599 43.8505 39.3599 51.9548 39.3599 60.1227C35.9351 60.1227 32.5766 60.1227 29.1186 60.1227C29.0906 59.7912 29.0498 59.4342 29.0498 59.0849C29.0472 51.5875 29.037 44.08 29.0651 36.575C29.0651 35.8891 28.9223 35.6341 28.1853 35.6723C26.8261 35.7386 25.4618 35.6902 24.0057 35.6902C24.0057 35.3433 24.0057 35.0807 24.0057 34.8231C24.0057 32.6224 23.9929 30.4242 24.0057 28.2234C24.0108 26.9943 23.8578 27.1141 25.0895 27.1039C26.1911 27.0963 27.2902 27.0733 28.3919 27.1141C28.9223 27.132 29.0574 26.9203 29.0574 26.4358C29.0702 24.4085 29.0345 22.3786 29.1518 20.3538C29.3048 17.8164 29.9959 15.4499 31.9263 13.619C33.362 12.2572 35.1394 11.4794 37.0495 11.3392C40.3009 11.0893 43.5701 11.0995 46.9515 11Z" fill="white"/>
</g>
<defs>
<clipPath id="clip0">
<rect width="60" height="60" fill="white"/>
</clipPath>
</defs>
</svg>
