<svg width="60" height="60" viewBox="0 0 60 60" fill="none" xmlns="http://www.w3.org/2000/svg">
<g clip-path="url(#clip0)">
<rect width="60" height="59.9995" fill="#F66200"/>
<path d="M41.4467 9.12534C34.6024 7.71981 27.7008 7.63529 20.8461 8.84709C13.3686 10.1733 10.2273 13.4121 8.86204 20.7935C8.44077 23.0779 8.28085 25.4105 8 27.7223C8 29.8416 8 31.9636 8 34.0829C8.25354 35.8356 8.54219 37.5883 8.75412 39.3449C9.63307 46.5078 13.0422 50.3512 20.0283 51.7567C27.0429 53.1688 34.0823 53.0673 41.1112 51.7359C47.1078 50.5982 50.6249 46.9993 51.773 41.0313C53.1421 33.8931 53.1161 26.7458 51.7392 19.6181C50.6275 13.8737 47.2092 10.3072 41.4467 9.12534ZM42.4128 33.0389C36.3096 36.3908 30.1972 39.7246 24.0745 43.0362C21.7472 44.2909 20.2831 43.4016 20.2805 40.7816C20.2701 33.8073 20.2688 26.8368 20.2831 19.8664C20.2857 18.167 21.0828 17.2699 22.7249 17.331C23.0006 17.4519 23.5245 17.6365 24.003 17.9057C30.1725 21.3707 36.3408 24.8332 42.4921 28.3295C44.8156 29.6544 44.7765 31.7438 42.4128 33.0389Z" fill="white"/>
</g>
<defs>
<clipPath id="clip0">
<rect width="60" height="59.9995" fill="white"/>
</clipPath>
</defs>
</svg>
