<svg width="60" height="60" viewBox="0 0 60 60" fill="none" xmlns="http://www.w3.org/2000/svg">
<g clip-path="url(#clip0)">
<rect width="60" height="60" fill="#FEDB43"/>
<path d="M50.8038 28.4687C49.4379 20.7612 45.1103 15.4726 37.7945 12.675C35.9626 11.9717 34.0396 11.623 32.0758 11.6039C31.4528 11.5955 31.2108 11.4086 31.2695 10.7556C31.3342 10.0882 31.2324 9.4041 31.3007 8.73914C31.3689 8.0598 31.0718 7.96994 30.5015 8.00709C28.4791 8.14247 26.5057 8.49233 24.5923 9.18365C16.9519 11.9489 11.8023 19.0598 11.5974 27.1783C11.5843 27.6827 11.4045 27.7762 10.9648 27.7606C10.1585 27.7355 9.34855 27.7798 8.54221 27.7414C8.07494 27.7199 7.97669 27.9032 8.00425 28.3213C8.07973 29.553 8.19475 30.7859 8.47392 31.9876C10.5455 40.946 17.9751 47.0589 27.2642 47.4411C27.644 47.4566 27.7722 47.5597 27.7602 47.9407C27.735 48.7722 27.7758 49.6037 27.7446 50.4304C27.729 50.8665 27.8488 51.0438 28.3041 50.9935C29.0386 50.9132 29.7838 50.918 30.5147 50.8102C39.6744 49.4635 46.5336 42.1669 47.3819 32.9138C47.431 32.3878 47.2142 31.6366 47.5808 31.3897C47.9654 31.131 48.6579 31.331 49.2139 31.331C49.2139 31.3131 49.2139 31.3059 49.2139 31.2843C49.6188 31.2843 50.0262 31.2556 50.4276 31.2951C50.932 31.3478 51.0434 31.1202 50.9967 30.6829C50.9164 29.94 50.9308 29.1936 50.8038 28.4687ZM32.1334 42.6965C24.9841 44.2265 17.6025 39.2375 16.3552 32.0367C15.0433 24.4598 19.825 17.6017 27.396 16.2814C30.1612 15.7985 32.8438 16.2071 35.3671 17.4915C35.9362 17.7443 36.479 18.045 36.9726 18.4284C40.2638 20.6461 42.2228 23.7397 42.744 27.6492C43.7037 34.8439 39.1819 41.1844 32.1334 42.6965Z" fill="#FF8E10"/>
<path d="M36.9755 18.4292C35.2334 21.4293 33.4997 24.433 31.748 27.4295C31.5995 27.6835 31.6498 27.8453 31.7864 28.0885C32.4825 29.3022 32.2585 30.71 31.2604 31.5606C30.2875 32.3921 28.7983 32.4065 27.793 31.5954C26.7854 30.7855 26.5134 29.3453 27.2035 28.134C27.3976 27.7973 27.2826 27.6092 27.1388 27.36C26.0605 25.4993 24.9906 23.6362 23.9111 21.7791C23.6978 21.4149 23.5505 21.0519 23.7721 20.6421C24.1435 19.9592 24.9966 20.0155 25.4387 20.7727C26.5098 22.6094 27.5654 24.4558 28.6281 26.2961C29.1002 27.106 29.8502 27.1024 30.3199 26.2817C32.0033 23.3499 33.6854 20.4193 35.3712 17.491C32.8491 16.2066 30.1653 15.7981 27.4 16.2797C19.8279 17.5989 15.0461 24.4593 16.3581 32.0339C17.6053 39.2371 24.987 44.2237 32.1362 42.6948C39.186 41.1876 43.7078 34.8399 42.7469 27.6488C42.2245 23.7381 40.2655 20.6445 36.9755 18.4292Z" fill="white"/>
<path d="M35.1927 18.1702C33.6184 20.9092 32.0309 23.6457 30.4494 26.3798C29.9306 27.2808 29.0404 27.2976 28.506 26.4026C27.4696 24.6713 26.4812 22.9112 25.4604 21.1704C25.0314 20.4359 24.6624 20.2514 24.2155 20.5018C23.7602 20.7546 23.7422 21.1596 24.176 21.9096C25.168 23.6169 26.1397 25.3326 27.1509 27.0268C27.4456 27.518 27.4924 27.9122 27.2468 28.455C26.8142 29.4027 26.9376 30.3564 27.6194 31.1675C28.2544 31.9319 29.1218 32.1141 30.0588 31.9403C31.5936 31.6516 32.4335 29.9838 31.7649 28.4837C31.5049 27.9002 31.5337 27.4354 31.8464 26.9082C33.3584 24.3634 34.7986 21.7778 36.307 19.2306C36.4819 18.9358 36.5706 18.5488 36.9732 18.4314C36.4795 18.048 35.9368 17.7473 35.3665 17.4945C35.4995 17.7641 35.3114 17.9618 35.1927 18.1702Z" fill="#5F6163"/>
<path d="M28.6259 26.2943C27.562 24.4528 26.5053 22.6076 25.4365 20.7697C24.9944 20.0137 24.1402 19.9562 23.7699 20.6391C23.5471 21.0489 23.6969 21.4131 23.9089 21.7773C24.9884 23.6356 26.062 25.4963 27.1355 27.357C27.2793 27.605 27.3943 27.7967 27.2014 28.1334C26.5065 29.3459 26.782 30.7837 27.7909 31.5948C28.7961 32.4071 30.2854 32.388 31.2582 31.5565C32.2551 30.7058 32.4815 29.2992 31.7842 28.0855C31.6476 27.8447 31.5973 27.6829 31.7459 27.4253C33.4975 24.43 35.23 21.4263 36.9721 18.4262C36.5707 18.5424 36.4809 18.9294 36.3059 19.2241C34.7963 21.769 33.3562 24.3569 31.8441 26.9005C31.5302 27.4289 31.5027 27.8938 31.7626 28.4761C32.4336 29.9773 31.5913 31.6427 30.0577 31.9327C29.1196 32.1076 28.2521 31.9243 27.6171 31.1623C26.939 30.3511 26.812 29.395 27.2433 28.4461C27.4913 27.9058 27.4422 27.5092 27.1499 27.0192C26.1374 25.3274 25.167 23.6105 24.1773 21.9019C23.7424 21.1543 23.7604 20.7481 24.2156 20.4953C24.6625 20.2449 25.0328 20.4282 25.4605 21.1651C26.4801 22.9084 27.4674 24.6672 28.5037 26.3973C29.0381 27.2923 29.9283 27.2755 30.4495 26.377C32.0298 23.6416 33.6185 20.9039 35.1929 18.1662C35.3139 17.9577 35.4984 17.7624 35.3678 17.488C33.6844 20.4163 32.0011 23.3481 30.3177 26.2763C29.8468 27.1018 29.0968 27.1054 28.6259 26.2943Z" fill="#5F6163"/>
</g>
<defs>
<clipPath id="clip0">
<rect width="60" height="59.9995" fill="white"/>
</clipPath>
</defs>
</svg>
