<svg width="60" height="60" viewBox="0 0 60 60" fill="none" xmlns="http://www.w3.org/2000/svg">
<g clip-path="url(#clip0)">
<path d="M60 0H0V60.0013H60V0Z" fill="#ECEBE8"/>
<path fill-rule="evenodd" clip-rule="evenodd" d="M51.1223 25.835C51.7323 28.431 52.3883 29.795 51.7193 33.663C48.9633 44.236 44.4253 46.613 40.5333 48.392C30.2723 53.082 17.4103 49.768 11.6873 40.558C5.80334 31.088 8.30034 18.603 17.8143 11.687C22.0903 8.57898 27.1113 7.65498 32.3713 9.12398C33.3133 9.38698 34.4613 9.63698 34.4873 10.804C34.5173 12.15 33.2603 12.155 32.3353 12.166C30.4493 12.189 28.7673 12.938 27.0763 13.565C20.5593 15.983 16.2523 24.168 17.7623 31.075C19.4163 38.638 25.1873 42.887 32.9043 42.221C38.8103 41.712 43.2783 37.635 43.8273 32.253C44.1633 28.961 43.2713 27.954 40.2533 28.965C36.8213 30.115 33.7223 26.785 35.0823 23.34C38.4303 14.851 46.7933 19.991 48.4643 21.647C50.6063 23.77 49.7773 22.928 51.1223 25.835Z" fill="url(#paint0_linear)"/>
<path d="M42.5333 25.094C44.2123 25.094 45.5733 23.7329 45.5733 22.054C45.5733 20.375 44.2123 19.014 42.5333 19.014C40.8544 19.014 39.4933 20.375 39.4933 22.054C39.4933 23.7329 40.8544 25.094 42.5333 25.094Z" fill="#FDFDFD"/>
<path d="M49.5293 21.217C49.5233 21.206 49.5193 21.196 49.5133 21.185L49.5103 21.186C48.0183 18.91 45.6363 17.443 42.7853 17.314C39.0763 17.146 36.2043 18.783 34.3103 22.007C32.9923 24.251 33.3213 26.486 34.6613 28.568C36.5973 31.577 39.4243 30.776 42.1653 30.02C42.4543 34.673 40.6613 37.88 36.8903 39.605C32.0773 41.808 26.1593 41.019 22.9353 37.615C19.1973 33.667 17.8513 28.974 19.6993 23.813C21.7333 18.136 25.6853 14.432 31.9423 13.74C33.8273 13.532 36.0043 13.323 36.1673 11.1C36.3403 8.74698 34.1853 7.98098 32.2243 7.53098C25.9763 6.09598 20.2813 7.60398 15.5153 11.638C6.63035 19.159 4.44235 31.996 10.1643 41.056C16.2443 50.681 28.6743 54.721 39.3863 50.391C42.1613 49.268 44.7843 47.822 46.6933 45.618L46.7003 45.623C46.6993 45.624 57.1183 34.708 49.5293 21.217ZM11.6873 40.557C5.80335 31.087 8.30035 18.602 17.8143 11.686C22.0903 8.57798 27.1113 7.65398 32.3713 9.12298C33.3133 9.38598 34.4613 9.63598 34.4873 10.803C34.5173 12.149 33.2603 12.154 32.3353 12.165C30.4493 12.188 28.7673 12.937 27.0763 13.564C20.5593 15.982 16.2523 24.167 17.7623 31.074C19.4163 38.637 25.1873 42.886 32.9043 42.22C38.8103 41.711 43.2783 37.634 43.8273 32.252C44.1633 28.96 43.4873 27.909 40.3483 28.933C36.9073 30.056 34.3483 26.897 35.2573 23.678C36.0093 21.015 42.4683 15.907 48.0303 21.683C49.4333 23.35 54.4483 33.57 45.5753 44.73C44.1263 46.198 42.4673 47.506 40.5323 48.39C30.2723 53.082 17.4103 49.767 11.6873 40.557Z" fill="#392C29"/>
</g>
<defs>
<linearGradient id="paint0_linear" x1="30.2635" y1="7.91108" x2="30.2635" y2="43.394" gradientUnits="userSpaceOnUse">
<stop stop-color="#FEA06F"/>
<stop offset="1" stop-color="#F51D51"/>
</linearGradient>
<clipPath id="clip0">
<rect width="60" height="59.9995" fill="white"/>
</clipPath>
</defs>
</svg>
