<svg width="60" height="60" viewBox="0 0 60 60" fill="none" xmlns="http://www.w3.org/2000/svg">
<g clip-path="url(#clip0)">
<rect width="60" height="59.9995" fill="#AB131F"/>
<path fill-rule="evenodd" clip-rule="evenodd" d="M17.3549 40.2459C17.3519 42.6809 19.4169 44.0039 21.6379 42.9899C22.1949 42.7359 22.5729 42.3119 22.8079 41.7549C23.0049 41.2869 23.1209 40.7969 23.1229 40.2929C23.1319 37.9659 23.1259 35.6419 23.1259 33.3149C23.1649 33.1759 23.1269 33.1109 22.9739 33.1529C22.3479 33.1439 21.7229 33.1399 21.0969 33.1239C20.9089 33.1199 20.6999 33.1939 20.5449 33.0149C20.5489 31.3429 20.5529 29.6689 20.5569 27.9959C20.5949 27.9909 20.6159 27.9689 20.6199 27.9309C23.2569 27.9369 25.8929 27.9439 28.5309 27.9499C28.5369 31.9929 28.5579 36.0369 28.5349 40.0809C28.5309 40.8499 28.4049 41.6269 28.2439 42.3809C27.4919 45.9049 25.1839 47.9709 21.5409 48.4289C21.3819 48.4489 21.2249 48.4709 21.0659 48.4919C20.4369 48.4949 19.8069 48.4969 19.1779 48.4989C17.9369 48.3629 16.7199 48.1389 15.6019 47.5429C13.0729 46.1949 12.0479 43.9179 11.6989 41.2249C11.6109 40.5479 11.5869 39.8689 11.5879 39.1859C11.5949 32.9499 11.5889 26.7139 11.6019 20.4779C11.6049 18.6979 11.8719 16.9629 12.7219 15.3649C13.7099 13.5059 15.2529 12.3599 17.2839 11.8489C17.4549 11.8069 17.6179 11.7329 17.7839 11.6739C17.9689 11.6829 18.1709 11.7429 18.2679 11.5039C18.2869 11.5689 18.3259 11.5839 18.3849 11.5519C18.6489 11.6379 18.9039 11.5629 19.1589 11.5089C19.7619 11.5089 20.3639 11.5079 20.9659 11.5069C21.0969 11.5229 21.2269 11.5399 21.3569 11.5559C21.5589 11.7909 21.7919 11.7729 22.0399 11.6439C22.1369 11.6559 22.2329 11.6679 22.3289 11.6809C22.7669 11.8169 23.2139 11.9309 23.6419 12.0929C25.7279 12.8859 27.1159 14.3419 27.8799 16.4499C28.3149 17.6509 28.5119 18.8739 28.5439 20.1319C28.5739 21.3129 28.5369 22.4959 28.5639 23.6769C28.5719 24.0529 28.4589 24.1499 28.0909 24.1449C26.6089 24.1249 25.1259 24.1249 23.6439 24.1479C23.2529 24.1539 23.1259 24.0529 23.1369 23.6489C23.1659 22.6079 23.1479 21.5659 23.1459 20.5239C23.1459 20.2639 23.1449 20.0029 23.1329 19.7429C23.0139 17.0989 21.2589 16.3469 19.1319 16.8359C17.9729 17.1019 17.3509 18.1519 17.3569 19.6869C17.3429 19.9669 17.3149 20.2459 17.3149 20.5259C17.3129 26.8399 17.3129 33.1549 17.3159 39.4689C17.3119 39.7259 17.3399 39.9859 17.3549 40.2459Z" fill="white"/>
<path fill-rule="evenodd" clip-rule="evenodd" d="M48.4159 11.9059C47.4379 13.9019 46.4559 15.8949 45.4829 17.8929C43.8789 21.1869 42.2849 24.4859 40.6699 27.7739C40.5389 28.0419 40.6279 28.2269 40.7149 28.4469C43.2249 34.8109 45.7339 41.1759 48.2389 47.5409C48.3019 47.7029 48.4239 47.8549 48.3749 48.0869C46.5579 48.0869 44.7359 48.0749 42.9139 48.0959C42.4929 48.0999 42.4929 47.7889 42.4009 47.5509C41.0279 43.9809 39.6619 40.4059 38.2939 36.8329C37.9089 35.8259 37.5199 34.8199 37.1049 33.7429C36.6099 34.3519 36.4229 35.0729 36.0239 35.6669C35.4399 36.5319 35.2899 37.4689 35.3069 38.5069C35.3609 41.5149 35.3179 44.5239 35.3399 47.5319C35.3419 47.9739 35.2439 48.1089 34.7819 48.0989C33.2589 48.0669 31.7329 48.0619 30.2099 48.1019C29.6979 48.1159 29.6349 47.9329 29.6349 47.4899C29.6559 35.9569 29.6619 24.4229 29.6789 12.8889C29.6799 12.5589 29.5589 12.2099 29.7599 11.8929C31.6059 11.9069 33.4489 11.9219 35.2929 11.9359L35.3169 11.9619C35.3259 17.0569 35.3349 22.1529 35.3429 27.2489C35.3429 27.3199 35.3449 27.3899 35.3449 27.4599C35.4589 27.4349 35.4999 27.3559 35.5049 27.2479C35.5719 27.0959 35.6409 26.9449 35.7089 26.7929C36.8419 24.4129 37.9589 22.0239 39.1129 19.6539C39.8619 18.1159 40.5829 16.5649 41.3519 15.0359C41.8559 14.0349 42.3309 12.9909 42.7479 11.9359C44.6379 11.9279 46.5269 11.9169 48.4159 11.9059Z" fill="white"/>
</g>
<defs>
<clipPath id="clip0">
<rect width="60" height="59.9995" fill="white"/>
</clipPath>
</defs>
</svg>
