<svg width="60" height="60" viewBox="0 0 60 60" fill="none" xmlns="http://www.w3.org/2000/svg">
<g clip-path="url(#clip0)">
<path d="M59.9989 0H0V59.9995H59.9989V0Z" fill="#ECEBE8"/>
<path d="M46.8477 26.5909C41.215 26.5877 35.584 26.5885 29.9513 26.5909C29.9529 28.9255 29.9489 31.2626 29.9545 33.5971C33.2155 33.5963 36.4774 33.5947 39.7376 33.5971C39.3606 35.8351 38.0281 37.8813 36.1439 39.142C34.9572 39.9387 33.5958 40.4575 32.1892 40.7032C30.777 40.9433 29.3157 40.9747 27.9067 40.6887C26.4728 40.4028 25.1041 39.8058 23.9062 38.9624C21.9993 37.6211 20.542 35.6595 19.7944 33.4505C19.0299 31.2037 19.0235 28.7032 19.7976 26.4588C20.335 24.8766 21.2292 23.4145 22.4037 22.2255C23.8514 20.7432 25.7356 19.683 27.7649 19.2488C29.5018 18.8766 31.3353 18.9475 33.0375 19.4623C34.4819 19.9013 35.8152 20.694 36.9067 21.7365C38.0112 20.6392 39.1076 19.5356 40.2113 18.436C40.7897 17.8447 41.3955 17.2791 41.9546 16.6693C40.283 15.1218 38.3222 13.8763 36.1777 13.0909C32.3197 11.6706 27.9679 11.6408 24.0858 12.9837C19.7066 14.4829 15.98 17.756 13.9128 21.8936C13.1934 23.3194 12.6706 24.8412 12.354 26.4065C11.5597 30.3055 12.1131 34.464 13.912 38.0158C15.0809 40.3335 16.7566 42.395 18.7907 44.011C20.7088 45.5392 22.9419 46.6694 25.3135 47.3002C28.3047 48.1018 31.4883 48.0832 34.4972 47.3977C37.2185 46.7717 39.794 45.4731 41.8482 43.5752C44.0209 41.5773 45.57 38.9479 46.3901 36.1219C47.2843 33.0389 47.4068 29.7472 46.8477 26.5909Z" fill="#D1D2D3"/>
<path d="M24.0858 12.9838C19.7066 14.483 15.98 17.7561 13.9128 21.8937C13.1934 23.3195 12.6706 24.8413 12.354 26.4066C11.5597 30.3056 12.1131 34.4641 13.912 38.0159C15.0809 40.3336 16.7566 42.3951 18.7907 44.0111C20.7088 45.5393 22.9419 46.6695 25.3135 47.3003C28.3047 48.1019 31.4883 48.0833 34.4972 47.3978C37.2185 46.7718 39.794 45.4732 41.8482 43.5753C44.0209 41.5774 45.57 38.948 46.3901 36.122C47.2851 33.0382 47.4076 29.7465 46.8485 26.5902C41.2158 26.587 35.5848 26.5878 29.9521 26.5902C29.9537 28.9248 29.9497 31.2618 29.9553 33.5964C33.2163 33.5956 36.4782 33.594 39.7384 33.5964C39.3614 35.8344 38.0289 37.8806 36.1447 39.1413C34.958 39.938 33.5966 40.4568 32.19 40.7025C30.7778 40.9426 29.3165 40.974 27.9075 40.688C26.4736 40.4021 25.1049 39.8051 23.907 38.9617C22.0001 37.6204 20.5428 35.6587 19.7952 33.4498C19.0307 31.203 19.0243 28.7025 19.7984 26.4581C20.3358 24.8759 21.23 23.4138 22.4045 22.2247C23.8522 20.7425 25.7365 19.6823 27.7657 19.2481C29.5026 18.8759 31.3361 18.9468 33.0383 19.4616C34.4827 19.9006 35.816 20.6933 36.9075 21.7358C38.012 20.6385 39.1084 19.5349 40.2121 18.4353C40.7905 17.844 41.3963 17.2784 41.9554 16.6686C40.2838 15.1211 38.323 13.8756 36.1785 13.0902C32.3189 11.6707 27.9671 11.6409 24.0858 12.9838Z" fill="white"/>
<path d="M24.0889 12.984C27.9702 11.6411 32.3228 11.6709 36.1808 13.0911C38.3252 13.8774 40.286 15.122 41.9576 16.6696C41.3986 17.2794 40.7928 17.8441 40.2143 18.4362C39.1115 19.5358 38.0151 20.6395 36.9098 21.7367C35.8191 20.6943 34.485 19.9016 33.0406 19.4625C31.3384 18.9478 29.5048 18.8769 27.768 19.249C25.7379 19.6841 23.8544 20.7434 22.4068 22.2257C21.2323 23.4156 20.338 24.8777 19.8007 26.4591C17.8399 24.9381 15.8783 23.4147 13.9159 21.8938C15.983 17.7563 19.7097 14.484 24.0889 12.984Z" fill="#EA4736"/>
<path d="M12.3549 26.4071C12.6715 24.8426 13.1943 23.3201 13.9137 21.8942C15.8761 23.4151 17.8377 24.9385 19.7985 26.4595C19.0243 28.7038 19.0308 31.2044 19.7953 33.4512C17.8353 34.9721 15.8761 36.4963 13.9129 38.0164C12.114 34.4646 11.5606 30.3061 12.3549 26.4071Z" fill="#F7BB17"/>
<path d="M29.9531 26.5922C35.585 26.5897 41.2161 26.5889 46.8495 26.5922C47.4078 29.7484 47.2862 33.0401 46.3912 36.1239C45.5711 38.9507 44.0227 41.5793 41.8493 43.5772C39.9505 42.0957 38.0437 40.6247 36.1457 39.1432C38.03 37.8825 39.3624 35.8363 39.7394 33.5984C36.4792 33.5959 33.2174 33.5976 29.9563 33.5984C29.9507 31.263 29.9547 28.9267 29.9531 26.5922Z" fill="#567FC0"/>
<path d="M13.9134 38.0156C15.8766 36.4962 17.8358 34.972 19.7958 33.4503C20.5442 35.6592 22.0007 37.6216 23.9075 38.9621C25.1046 39.8048 26.4741 40.4017 27.9081 40.6885C29.317 40.9737 30.7784 40.9423 32.1906 40.703C33.5972 40.4573 34.9594 39.9385 36.1452 39.1418C38.0432 40.6233 39.95 42.0943 41.8488 43.5757C39.7945 45.4729 37.2191 46.7723 34.4978 47.3982C31.4889 48.0838 28.3044 48.1023 25.3141 47.3008C22.9432 46.6692 20.7093 45.5398 18.7912 44.0116C16.7579 42.3947 15.0823 40.3332 13.9134 38.0156Z" fill="#36A851"/>
</g>
<defs>
<clipPath id="clip0">
<rect width="60" height="59.9995" fill="white"/>
</clipPath>
</defs>
</svg>
