<svg width="60" height="60" viewBox="0 0 60 60" fill="none" xmlns="http://www.w3.org/2000/svg">
<g clip-path="url(#clip0)">
<rect width="60" height="60" fill="#F48120"/>
<path d="M38.09 29.528H40.788V39.674C39.5467 40.7633 38.0773 41.5993 36.38 42.182C34.6827 42.7647 32.8967 43.056 31.022 43.056C28.362 43.056 25.968 42.4733 23.84 41.308C21.712 40.1427 20.04 38.534 18.824 36.482C17.608 34.4047 17 32.0867 17 29.528C17 26.9693 17.608 24.664 18.824 22.612C20.04 20.5347 21.712 18.9133 23.84 17.748C25.968 16.5827 28.3747 16 31.06 16C33.0867 16 34.9487 16.3293 36.646 16.988C38.3433 17.6213 39.7747 18.5713 40.94 19.838L39.192 21.624C37.0893 19.5467 34.4167 18.508 31.174 18.508C29.0207 18.508 27.07 18.9893 25.322 19.952C23.5993 20.8893 22.244 22.2067 21.256 23.904C20.268 25.576 19.774 27.4507 19.774 29.528C19.774 31.6053 20.268 33.48 21.256 35.152C22.244 36.824 23.5993 38.1413 25.322 39.104C27.0447 40.0667 28.9827 40.548 31.136 40.548C33.872 40.548 36.19 39.864 38.09 38.496V29.528Z" fill="white"/>
<path d="M36.0234 28.8281H43.0234V31.8281H36.0234V28.8281Z" fill="white"/>
</g>
<defs>
<clipPath id="clip0">
<rect width="60" height="59.9995" fill="white"/>
</clipPath>
</defs>
</svg>
