<svg width="60" height="60" viewBox="0 0 60 60" fill="none" xmlns="http://www.w3.org/2000/svg">
<g clip-path="url(#clip0)">
<path d="M60 0H0V60H60V0Z" fill="#ECEBE8"/>
<path d="M32.1245 54.3945C43.1015 54.3945 52.0001 45.4959 52.0001 34.5189C52.0001 23.542 43.1015 14.6434 32.1245 14.6434C21.1476 14.6434 12.249 23.542 12.249 34.5189C12.249 45.4959 21.1476 54.3945 32.1245 54.3945Z" fill="#79C042"/>
<path d="M43.9769 42.0092C40.368 41.9944 37.503 39.1153 37.5038 35.4983C37.5038 31.8671 40.4222 28.9762 44.0704 28.9903C47.6666 29.0036 50.5176 31.9598 50.4879 35.6421C50.4605 39.2102 47.5858 42.0204 43.9769 42.0092Z" fill="#FEFEFE"/>
<path d="M24.317 35.5221C24.317 37.3821 24.3014 39.2437 24.3281 41.1015C24.3355 41.5769 24.2028 41.7082 23.7244 41.7112C21.9363 41.7245 21.9363 41.7431 21.9363 39.9586C21.9363 38.924 21.9103 37.8902 21.9481 36.8585C21.9659 36.3483 21.759 36.257 21.3118 36.2704C20.3321 36.2993 19.3486 36.3038 18.3682 36.2689C17.8787 36.2519 17.7571 36.4269 17.7652 36.8889C17.7912 38.2565 17.7533 39.6264 17.7852 40.9955C17.7964 41.5057 17.6985 41.7171 17.12 41.7141C15.3341 41.7023 15.3333 41.7297 15.3333 39.9646C15.3333 36.6575 15.3437 33.352 15.3229 30.045C15.32 29.5162 15.3823 29.2714 16.0171 29.2818C17.7749 29.3115 17.7749 29.2781 17.7749 31.0692C17.7749 31.8687 17.7904 32.6712 17.7689 33.4707C17.7593 33.8444 17.898 33.9616 18.2629 33.9542C19.3219 33.9372 20.381 33.9297 21.4401 33.9572C21.8814 33.969 21.9481 33.7658 21.9437 33.3965C21.9281 32.2351 21.9578 31.0714 21.9281 29.91C21.917 29.4494 22.0438 29.2929 22.5303 29.2862C24.3207 29.261 24.3199 29.2417 24.3199 31.0269C24.317 32.5265 24.317 34.0239 24.317 35.5221Z" fill="#FEFEFE"/>
<path d="M25.8101 35.3835C25.8101 33.4974 25.813 31.6129 25.8079 29.7269C25.8071 29.3998 25.79 29.1083 26.2684 29.1269C27.969 29.1951 29.6778 28.9963 31.3725 29.2715C34.0298 29.7046 35.7304 31.4112 36.1991 34.1026C36.702 36.9936 35.4174 39.8289 33.0545 41.0267C32.2142 41.4509 31.3206 41.6927 30.3772 41.7031C29.0615 41.715 27.7413 41.6831 26.4264 41.7216C25.8746 41.7387 25.7975 41.5058 25.8019 41.0393C25.8219 39.1555 25.8101 37.2695 25.8101 35.3835Z" fill="#FEFEFE"/>
<path d="M39.9416 35.4742C39.9549 33.0943 41.6926 31.3173 44.0051 31.318C46.2901 31.321 48.0745 33.1477 48.079 35.4883C48.0834 37.8817 46.2946 39.7009 43.9621 39.6757C41.6659 39.6535 39.9297 37.8386 39.9416 35.4742Z" fill="#78C042"/>
<path d="M26.8025 35.2485C26.8025 34.1405 26.7862 33.0325 26.807 31.9244C26.8359 30.4367 27.7786 29.8804 29.0787 30.611C31.0552 31.719 33.0206 32.8493 34.9674 34.0077C36.2193 34.7523 36.2134 35.8433 34.9615 36.585C33.0339 37.7264 31.0952 38.8492 29.1439 39.9484C27.7608 40.7293 26.8218 40.1672 26.8018 38.5733C26.787 37.4653 26.7988 36.3573 26.7988 35.2493C26.8011 35.2485 26.8011 35.2485 26.8025 35.2485Z" fill="#78C042"/>
<path d="M20.5592 24.4943L22.4397 25.2343L23.1809 23.351L21.3003 22.6109L20.5592 24.4943Z" fill="white"/>
<path d="M22.4282 17.5881L25.0482 18.6202L26.0803 16.0001L23.4602 14.968L22.4282 17.5881Z" fill="white"/>
<path d="M22.0702 17.2615L24.6896 18.2936L25.7217 15.6742L23.1023 14.6421L22.0702 17.2615Z" fill="#79C042"/>
<path d="M16.3438 22.9689L18.5995 23.8575L19.4881 21.6018L17.2323 20.7132L16.3438 22.9689Z" fill="white"/>
<path d="M15.1036 26.0417L17.3593 26.9303L18.2481 24.6739L15.9924 23.7853L15.1036 26.0417Z" fill="white"/>
<path d="M12.2325 8.60625L14.1144 9.34729L14.8557 7.46467L12.9738 6.72364L12.2325 8.60625Z" fill="#79C042"/>
<path d="M20.4039 10.1133L22.2858 10.8543L23.0271 8.97172L21.1452 8.23069L20.4039 10.1133Z" fill="#79C042"/>
<path d="M20.0611 6.77801L21.9421 7.51898L22.6836 5.63657L20.8026 4.8956L20.0611 6.77801Z" fill="#79C042"/>
<path d="M18.3295 16.5191L20.2109 17.2593L20.9516 15.3765L19.0702 14.6363L18.3295 16.5191Z" fill="#79C042"/>
<path d="M9.73499 23.8176L11.6169 24.5587L12.3582 22.676L10.4763 21.935L9.73499 23.8176Z" fill="#79C042"/>
<path d="M5.00192 22.8932L6.60694 23.5255L7.23973 21.9191L5.63471 21.2868L5.00192 22.8932Z" fill="#79C042"/>
<path d="M10.2446 17.2824L11.8496 17.9146L12.4824 16.3082L10.8774 15.676L10.2446 17.2824Z" fill="#79C042"/>
<path d="M11.55 13.273L12.5583 13.6699L12.9555 12.661L11.9472 12.2641L11.55 13.273Z" fill="#79C042"/>
<path d="M10.4934 10.6965L11.5016 11.0934L11.8988 10.0845L10.8906 9.68757L10.4934 10.6965Z" fill="#79C042"/>
<path d="M12.4594 20.6407L13.4676 21.0376L13.8648 20.0286L12.8566 19.6317L12.4594 20.6407Z" fill="#79C042"/>
<path d="M16.2613 11.3609L18.6847 12.3155L19.6396 9.8914L17.2162 8.93678L16.2613 11.3609Z" fill="#79C042"/>
<path d="M5.17039 18.8263L8.1396 19.9959L9.30923 17.0267L6.34001 15.857L5.17039 18.8263Z" fill="#79C042"/>
<path d="M20.7558 13.5955L23.0116 14.4843L23.9004 12.2285L21.6446 11.3397L20.7558 13.5955Z" fill="#79C042"/>
<path d="M13.6838 16.9001L15.9395 17.7887L16.8281 15.533L14.5724 14.6444L13.6838 16.9001Z" fill="#79C042"/>
<path d="M15.1033 22.4117L17.3591 23.3003L18.2479 21.0439L15.9922 20.1553L15.1033 22.4117Z" fill="#79C042"/>
<path d="M13.0413 26.0393L15.297 26.9281L16.1861 24.6717L13.9304 23.7829L13.0413 26.0393Z" fill="#79C042"/>
<path d="M18.3973 19.9602L20.653 20.8487L21.5416 18.593L19.2859 17.7045L18.3973 19.9602Z" fill="white"/>
<path d="M17.1528 19.4039L19.4085 20.2927L20.2973 18.037L18.0416 17.1481L17.1528 19.4039Z" fill="#79C042"/>
</g>
<defs>
<clipPath id="clip0">
<rect width="60" height="59.9995" fill="white"/>
</clipPath>
</defs>
</svg>
