<svg width="60" height="60" viewBox="0 0 60 60" fill="none" xmlns="http://www.w3.org/2000/svg">
<g clip-path="url(#clip0)">
<path d="M60 0H0V60H60V0Z" fill="#0D9775"/>
<path fill-rule="evenodd" clip-rule="evenodd" d="M48.5168 29.8926C48.5038 35.2916 48.5088 40.6896 48.4698 46.0886C48.4448 49.5676 45.9678 51.7056 42.5298 51.2826C40.3148 51.0106 38.6748 49.4586 38.0358 47.0116C37.1878 43.7566 35.0368 41.8166 31.8198 41.1616C28.3328 40.4516 25.3958 41.5096 23.1778 44.3676C22.4438 45.3126 22.2268 46.4666 21.8568 47.5606C20.8128 50.6486 17.5368 52.2046 14.6468 50.9946C12.7968 50.2216 11.5398 48.3026 11.5408 46.2706C11.5448 39.9336 11.5468 33.5966 11.5458 27.2606C11.5458 26.9246 11.5078 26.5896 11.4878 26.2536C11.4458 24.0586 12.2938 22.1806 13.9408 20.8396C15.1448 19.8606 16.2838 18.8276 17.4388 17.7976C19.4488 16.0056 21.5278 14.2916 23.5748 12.5426C25.0628 11.2736 26.3638 9.67057 28.1818 8.94857C29.7118 8.34057 31.4718 8.48857 32.8648 9.57257C34.6028 10.9266 36.2438 12.4106 37.9108 13.8546C40.4468 16.0526 42.9348 18.3076 45.5118 20.4566C47.5038 22.1176 48.7228 24.0476 48.4848 26.7506C48.3908 27.7906 48.4988 28.8456 48.5168 29.8926ZM44.3838 25.3746L44.3708 25.3426C44.2518 24.7646 43.8838 24.3646 43.4528 23.9896C39.4228 20.4856 35.4008 16.9706 31.3748 13.4636C30.2288 12.4666 29.8048 12.4636 28.6868 13.4776C26.1778 15.7536 23.5778 17.9246 21.0758 20.2106C19.6788 21.4876 18.1788 22.6876 16.7038 23.8956C16.0548 24.4266 15.5158 25.0506 15.5268 25.9676C15.5368 26.9796 15.5538 27.9906 15.5688 29.0026C15.5568 34.5486 15.5498 40.0966 15.5278 45.6436C15.5248 46.4416 15.5648 47.2346 16.5588 47.3306C17.4838 47.4226 17.9878 46.8286 18.2028 45.9706C19.2338 41.8366 21.7118 39.0526 25.7758 37.6346C30.8288 35.8726 36.5358 37.4426 39.8198 41.6176C40.8518 42.9306 41.5378 44.4136 41.8898 46.0516C42.0458 46.7746 42.4568 47.2546 43.2498 47.3346C43.8668 47.3966 44.2148 47.1076 44.3908 46.5496C44.5968 46.3776 44.5358 46.1426 44.5358 45.9236C44.5358 39.2846 44.5338 32.6466 44.5328 26.0076C44.5328 25.7836 44.5688 25.5526 44.3838 25.3746Z" fill="#F9FBFB"/>
<path fill-rule="evenodd" clip-rule="evenodd" d="M22.0418 27.6396C21.9998 24.6846 23.0348 22.3026 25.4528 20.4536C27.5998 18.8106 31.5698 18.5726 33.9708 20.0726C37.1228 22.0406 38.3198 24.9056 37.8658 28.5306C37.8318 28.6806 37.7968 28.8296 37.7628 28.9806C37.7628 28.9806 37.8088 28.9386 37.8078 28.9386C37.6768 28.9866 37.5988 29.0666 37.6348 29.2186C37.4918 29.6626 37.3518 30.1066 37.2098 30.5496C35.7888 33.3386 33.3828 35.0266 30.4098 35.2046C26.8788 35.4176 23.2628 32.9056 22.3118 28.9596C22.2068 28.5226 22.1308 28.0796 22.0418 27.6396ZM26.1028 27.0296C26.0988 29.3006 27.8118 30.9556 30.0318 31.0526C32.1598 31.1446 34.0468 28.6926 34.0068 26.9816C33.9568 24.8536 32.2148 23.0716 30.0648 23.0646C27.8078 23.0556 26.1048 24.7586 26.1028 27.0296Z" fill="#F9FBFB"/>
</g>
<defs>
<clipPath id="clip0">
<rect width="60" height="59.9995" fill="white"/>
</clipPath>
</defs>
</svg>
