<svg width="60" height="60" viewBox="0 0 60 60" fill="none" xmlns="http://www.w3.org/2000/svg">
<g clip-path="url(#clip0)">
<path d="M59.9989 0H0V59.9995H59.9989V0Z" fill="#9844A1" fill-opacity="0.36"/>
<path d="M50.4668 18.7185V40.7478C50.4668 46.1154 46.1156 50.4665 40.7477 50.4665H18.7185C13.3513 50.4665 8.99982 46.1154 8.99982 40.7478V18.7185C8.99982 13.3513 13.3513 8.9998 18.7185 8.9998H40.7477C46.1156 8.9998 50.4668 13.3513 50.4668 18.7185Z" fill="url(#paint0_linear)"/>
<path d="M36.1362 14.5522H23.2805C18.4328 14.5522 14.5031 18.482 14.5031 23.3297V36.1853C14.5031 41.0334 18.4328 44.963 23.2805 44.963H36.1362C40.9837 44.963 44.9138 41.0334 44.9138 36.1853V23.3297C44.9138 18.482 40.9837 14.5522 36.1362 14.5522ZM42.1131 36.4113C42.1131 39.6294 39.5045 42.2378 36.2863 42.2378H23.1301C19.9124 42.2378 17.3035 39.6294 17.3035 36.4113V23.2551C17.3035 20.0366 19.9124 17.4285 23.1301 17.4285H36.2863C39.5045 17.4285 42.1131 20.0366 42.1131 23.2551V36.4113Z" fill="white"/>
<path d="M29.7066 21.9423C25.3487 21.9423 21.8159 25.4747 21.8159 29.8328C21.8159 34.1907 25.3486 37.7237 29.7066 37.7237C34.0646 37.7237 37.5974 34.1908 37.5974 29.8328C37.5973 25.4745 34.0644 21.9423 29.7066 21.9423ZM29.7066 34.9478C26.8816 34.9478 24.5916 32.6578 24.5916 29.8327C24.5916 27.0076 26.8816 24.718 29.7066 24.718C32.5317 24.718 34.8215 27.0076 34.8215 29.8327C34.8215 32.6578 32.5315 34.9478 29.7066 34.9478Z" fill="white"/>
<path d="M37.8614 19.8044C36.8462 19.8044 36.0232 20.6275 36.0232 21.6426C36.0232 22.6578 36.8462 23.4806 37.8614 23.4806C38.8768 23.4806 39.6999 22.6578 39.6999 21.6426C39.6999 20.6275 38.8768 19.8044 37.8614 19.8044Z" fill="white"/>
</g>
<defs>
<linearGradient id="paint0_linear" x1="39.9141" y1="11.4335" x2="18.91" y2="49.1877" gradientUnits="userSpaceOnUse">
<stop stop-color="#4845A2"/>
<stop offset="0.189" stop-color="#8744A1"/>
<stop offset="0.3002" stop-color="#A844A1"/>
<stop offset="0.3509" stop-color="#AB429A"/>
<stop offset="0.423" stop-color="#B43C88"/>
<stop offset="0.5078" stop-color="#C33269"/>
<stop offset="0.6017" stop-color="#D7243F"/>
<stop offset="0.6036" stop-color="#D7243E"/>
<stop offset="0.8766" stop-color="#F9A326"/>
<stop offset="1" stop-color="#F9DD26"/>
</linearGradient>
<clipPath id="clip0">
<rect width="60" height="59.9995" fill="white"/>
</clipPath>
</defs>
</svg>
