<svg width="60" height="60" viewBox="0 0 60 60" fill="none" xmlns="http://www.w3.org/2000/svg">
<g clip-path="url(#clip0)">
<path d="M60 0H0V60H60V0Z" fill="#05AFEE"/>
<path d="M48.9592 21.5423C46.6962 20.4933 44.2692 19.8073 42.9582 17.1983C42.1662 15.6213 40.2582 15.1453 38.4282 15.1453C32.8172 15.1453 27.2062 15.1403 21.5952 15.1473C19.5752 15.1503 17.6952 15.7963 16.7362 17.5723C15.8252 19.2613 14.4802 20.0563 12.8552 20.7143C11.6362 21.2093 10.4482 21.7923 9.27722 22.3933C6.03222 24.0613 4.95422 26.9453 6.40922 30.2553C7.53622 32.8173 8.74922 35.3443 9.98322 37.8583C11.7542 41.4663 14.6912 42.5233 18.3902 40.9033C20.2002 40.1093 21.9582 39.1933 23.7832 38.4343C26.5302 37.2913 27.8912 37.8283 29.4422 40.3373C30.3422 41.7943 30.8702 43.5383 32.5682 44.8573C32.2982 41.7153 32.0692 38.9253 31.8172 36.1363C31.6472 34.2573 30.6642 33.3383 28.7142 33.4313C27.1502 33.5053 25.5792 33.4643 24.0122 33.4413C21.2462 33.4003 20.2572 32.4623 20.2022 29.7673C20.1592 27.7063 20.1632 25.6423 20.1982 23.5793C20.2452 20.7533 21.2462 19.7613 24.1292 19.7203C26.9342 19.6803 29.7392 19.7103 32.5462 19.7103C39.8502 19.7103 39.8502 19.7103 39.8502 26.9373C39.8502 33.1353 39.8502 33.1353 33.7042 33.5803C33.8362 34.6513 33.9722 35.6253 34.0682 36.6023C34.1352 37.2793 34.2332 37.7423 35.0552 38.0553C37.3602 38.9323 39.5772 40.0343 41.8512 40.9973C45.3042 42.4593 48.2392 41.4053 49.9162 38.0783C50.9182 36.0933 51.8312 34.0633 52.7792 32.0523C55.4362 26.4163 54.5922 24.1533 48.9592 21.5423ZM11.1562 29.1183C10.6352 25.9933 13.3072 25.7403 15.4422 24.6813C16.1302 28.6943 14.5662 32.7003 16.9212 36.2353C14.4882 36.3423 11.8272 33.1373 11.1562 29.1183ZM47.9032 31.4383C47.3082 32.6973 46.7542 33.9833 46.0462 35.1753C45.4632 36.1533 44.5222 36.6363 43.0252 36.2783C45.5242 32.7093 43.8802 28.6793 44.5832 24.9573C49.0942 26.0733 49.7922 27.4323 47.9032 31.4383Z" fill="white"/>
</g>
<defs>
<clipPath id="clip0">
<rect width="60" height="59.9995" fill="white"/>
</clipPath>
</defs>
</svg>
