<svg xmlns="http://www.w3.org/2000/svg" width="60" height="60" fill="none"><g clip-path="url(#clip0)"><path fill="#F8A608" d="M60 0H0v60h60V0z"/><path fill="#F89F16" d="M28.27 50.18c-.97-.01-1.92-.22-2.86-.42a19.22 19.22 0 0 1-4.45-1.6 20.73 20.73 0 0 1-4.31-2.9 20.69 20.69 0 0 1-3.21-3.6 18 18 0 0 1-2.73-5.82c-.24-.82-.37-1.65-.55-2.47-.04-.2-.01-.4-.01-.6-.06-.48-.05-.96-.09-1.44 0-.1.03-.21-.04-.3a5.63 5.63 0 0 1 0-1.02c.08-.5.05-1 .13-1.5-.05-.63.14-1.24.26-1.85a18.58 18.58 0 0 1 2.58-6.39c.05-.08.1-.15.2-.2.76-.05 1.53-.03 2.3 0 .3 0 .07.23.04.36-.1.27-.3.48-.46.72a17.76 17.76 0 0 0-1.64 17.67 18.25 18.25 0 0 0 2.76 4.24c.34.39.7.74 1.06 1.1.13.12.26.23.35.37.29.4.69.65 1.06.94a18.37 18.37 0 0 0 7.93 3.58 16.67 16.67 0 0 0 6.33.07c.93-.16 1.84-.37 2.73-.64a19.01 19.01 0 0 0 6.88-4 .69.69 0 0 0 .2-.26c.4-.5.9-.92 1.3-1.42 1.75-2.13 3-4.5 3.68-7.18a17.76 17.76 0 0 0-3.34-15.22c-.07-.09-.15-.18-.12-.31l.05-.01c.84-.05 1.68-.04 2.52 0 .37.33.54.8.78 1.21.51.9.92 1.84 1.26 2.8.4 1.13.71 2.26.89 3.44.05.33.14.65.1 1 .08.48.03.99.13 1.48v1.01c-.07.5-.05 1-.1 1.5 0 .06 0 .12-.02.18.02.63-.13 1.22-.25 1.83-.12.63-.28 1.24-.48 1.85-.16.52-.37 1.03-.57 1.55-.32.87-.76 1.68-1.22 2.48a17.88 17.88 0 0 1-2.33 3.2 20.5 20.5 0 0 1-6.95 5.02c-.95.42-1.94.77-2.94 1.02-1.11.27-2.23.52-3.38.53-.45.04-.9.01-1.35.11h-.77c-.45-.1-.9-.06-1.35-.11z"/><path fill="#E0581C" d="M17.54 44.57c-.36-.36-.72-.72-1.06-1.09a17.44 17.44 0 0 1-4.75-11.58c0-1.4.05-2.79.35-4.15a17.49 17.49 0 0 1 2.77-6.42l.59-.87c.1-.13.2-.26.32-.37.11-.07.23-.1.36-.08h.32c8.24-.25 16.5-.08 24.74-.1.93 0 1.87.08 2.8.1.1 0 .18.05.27.08.78 1 1.5 2.04 2.08 3.17a17.2 17.2 0 0 1 1.94 7.52c0 1.19.02 2.37-.2 3.54a18.32 18.32 0 0 1-1.58 4.88 19.48 19.48 0 0 1-2.1 3.3c-.48.63-1.06 1.17-1.6 1.76A18.16 18.16 0 0 1 32 49.28c-1.1.12-2.22.17-3.35.06-.86-.08-1.72-.2-2.56-.37-.94-.19-1.86-.46-2.75-.82a18.04 18.04 0 0 1-5.8-3.58zM21.41 9.02h8.24c.1 0 .24-.04.3.1.1.14.1.29.1.43v8.97c0 .15 0 .3-.1.42l-.05.13c-.11.04-.23.02-.35.02h-7.61c-.14 0-.28-.04-.4.07l-.34.03h-7.06c-.49 0-.84-.2-1.05-.64a.15.15 0 0 1 .12-.02c.1.04.17.13.24.2.21.2.46.3.75.3h6.83c.33 0 .36-.03.36-.36V9.14c0-.04 0-.08.02-.12z"/><path fill="#F89F16" d="M29.95 18.94V9.13c.28-.09.58-.06.87-.06h7.58c.1.12.1.26.1.4v9.15c0 .4-.04.44-.44.44H30.5c-.12 0-.26.03-.37-.06-.04-.07-.12-.06-.18-.06z"/><path fill="#FDCF4B" d="M46.29 9.08c.2 0 .3.15.39.3.04.18.25.3.18.53-.04.1-.03.21-.03.32v7.76l.01.25.04.11c-.07.33-.24.58-.58.68-.21.07-.43.1-.66.1h-6.6c-.13 0-.3.05-.4-.1-.02-3.16 0-6.32-.01-9.47 0-.4.06-.45.48-.45h6.76c.06-.02.11-.03.17-.03.08-.01.16.06.25 0z"/><path fill="#FBBA31" d="M38.66 19c.09.1.22.06.33.06h6.64c.27 0 .52-.1.79-.06.01.01.02.02.01.03l-.01.02c-.17.06-.32.2-.51.13-.07-.03-.15-.02-.22-.02h-6.81c-.08 0-.15-.01-.22.02-.1 0-.19.02-.27-.05.02-.07.08-.13.07-.21V9.5c0-.15-.02-.3.06-.44.04-.01.08 0 .1.04.06.12.03.25.03.38l.01 9.46V19z"/><path fill="#F9A30E" d="M30.13 19h7.92c.28 0 .36-.06.36-.35V9.08h.06c.05.07.03.16.03.24v9.52c0 .08 0 .15-.02.22-.08.05-.17.03-.25.03h-7.85c-.08 0-.17.02-.25-.03V19z"/><path fill="#B94818" d="M13.15 18.55h-.06l-.02-.1c-.04-.09-.02-.17-.02-.26V10c0-.08-.01-.17.02-.25.1-.4.47-.74.84-.74l7.5.01v.06c-.14.12-.32.08-.48.08h-6.91l-.1.02c-.1.03-.21.06-.3.12l-.08.05c-.17.14-.31.29-.3.53v8.08c0 .16 0 .32-.02.48a.24.24 0 0 1-.07.1z"/><path fill="#FBBD3F" d="M46.86 9.84a.9.9 0 0 1-.18-.47c.2.18.3.38.3.66v8.06c0 .1.02.19-.04.28-.03.03-.05.03-.08 0-.09-.12-.06-.25-.06-.38V10.2c0-.12-.03-.25.06-.36z"/><path fill="#FAA916" d="M38.47 19.06V9.07a.06.06 0 0 1 .05 0v10h-.05z"/><path fill="#E0581C" d="M13.07 9.75l.01 7.04v1.65c-.08-.11-.05-.25-.05-.37v-7.92c0-.13-.03-.27.04-.4z"/><path fill="#F89A09" d="M38.46 19.06h.07c-.03.06-.09.06-.14.07h-7.94c-.1 0-.24.07-.32-.07h8.33z"/><path fill="#E46109" d="M21.54 19.16c.04-.13.15-.1.24-.1h8.12c-.08.14-.21.08-.32.08h-7.63l-.4.02z"/><path fill="#FAB036" d="M38.6 9.07h-.08c.1-.1.22-.06.33-.06h6.95c.17 0 .33 0 .49.07-.05.07-.12.05-.19.06-.17-.06-.33 0-.5 0h-6.9a.3.3 0 0 1-.1-.07z"/><path fill="#F9AF2D" d="M38.66 19.18c.09-.09.2-.05.3-.05h6.64c.1 0 .22-.04.3.05h-7.24z"/><path fill="#F8980F" d="M15.76 20.09c-.04.18-.19.27-.32.37-.02-.13.15-.2.13-.39h-2.38c.03-.02.07-.05.1-.05h2.3c.06 0 .11.04.17.07z"/><path fill="#F8980E" d="M46.82 20.07H44.3c.03-.07.1-.06.16-.06h2.18c.06 0 .13 0 .17.06z"/><path fill="#F89C10" d="M10.02 31.02c.13.44.14.88.14 1.33l-.01.41c-.17-.57-.14-1.15-.13-1.74z"/><path fill="#F89C0F" d="M49.86 32.7c-.02-.56 0-1.13.12-1.68.02.57.06 1.13-.12 1.68zM49.98 30c-.2-.48-.12-.98-.12-1.48.15.49.14.99.12 1.49z"/><path fill="#F89B0F" d="M10.15 28.52c.02.5.01 1-.13 1.49-.01-.5-.05-1 .13-1.5z"/><path fill="#F89C0D" d="M28.27 50.18c.45.02.91-.1 1.35.11-.46.03-.9-.02-1.36-.11zM30.39 50.29c.43-.2.9-.1 1.35-.11-.45.1-.9.14-1.35.11z"/><path fill="#FBB836" d="M46.86 18.36h.08c-.03.34-.23.55-.52.69V19c.17-.2.33-.4.44-.64z"/><path fill="#F18B18" d="M17.54 44.57c.47.29.84.7 1.29 1.02a18.96 18.96 0 0 0 7.28 3.34c.97.2 1.95.33 2.95.38.88.04 1.75-.03 2.62-.04.51-.01 1.03-.11 1.53-.2a19 19 0 0 0 9.58-4.81c-.18.38-.55.6-.86.85-1 .84-2.09 1.57-3.24 2.19a19.79 19.79 0 0 1-4.6 1.69c-.8.16-1.62.34-2.46.37-.63.02-1.25.16-1.89.1-.9-.06-1.8-.11-2.7-.27-.55-.1-1.11-.19-1.66-.33-.65-.17-1.3-.35-1.94-.61a20.43 20.43 0 0 1-5.2-3.01c-.26-.2-.52-.4-.7-.67z"/><path fill="#8C0E19" d="M41.52 20.01c.36.19.6.5.86.79a16.33 16.33 0 0 1 2.79 4.08c.02.06.06.11.1.16.19.47.4.93.57 1.4.06.18.14.37.16.57.04.06-.16.15.03.19.05.1.14.2.07.32-.08.1 0 .22-.02.28 0-.06-.04-.17.03-.28.13.2.18.43.2.66 0 .04-.02.06-.05.06-.03 0-.04 0-.03-.03 0-.02-.03 0-.03 0 .07.17.02.35.08.52.02.11.03.22.07.33l.02.19c-.02.34.07.67.06 1.01-.01 1-.11 2-.27 3a14.64 14.64 0 0 1-1.23 3.93 16.43 16.43 0 0 1-13.33 9.34 18.08 18.08 0 0 1-4.2-.14 16.7 16.7 0 0 1-8.13-3.7 16.1 16.1 0 0 1-4.5-6.23c-.13-.49-.36-.94-.49-1.43-.23-.91-.47-1.81-.53-2.76-.03-.48-.13-.95-.13-1.45 0-.76.01-1.51.16-2.26v-.28.21c.01.15-.06.27-.1.4-.01.13 0 .26-.03.38l-.1.45v.08c-.02.06-.02.12-.05.18a.1.1 0 0 1-.07.04L13.4 30c0-.69.18-1.36.34-2.02a15.68 15.68 0 0 1 1.79-4.37 16.4 16.4 0 0 1 2.61-3.33c.1-.1.22-.2.35-.27h.07a38888.62 38888.62 0 0 0 22.97 0z"/><path fill="#740D16" d="M13.59 29.3v-.44c.3-.03.16.22.15.3-.11.63-.05 1.26-.05 1.9 0 1.01.17 2.02.4 3.02a16.18 16.18 0 0 0 6.86 9.75 16.82 16.82 0 0 0 8.62 2.67 15.76 15.76 0 0 0 7.83-1.72 16.98 16.98 0 0 0 6.07-5.22 15.12 15.12 0 0 0 2.76-7.51c.05-.6.14-1.2.12-1.8-.01-.33-.09-.67-.06-1 .08-.06.04-.21.18-.22a14.6 14.6 0 0 1 .27 3.7c-.05.69-.1 1.36-.24 2.02-.06.09-.14-.03-.14-.02-.03.09.04.15.09.2-.05.5-.16.96-.3 1.42a17.13 17.13 0 0 1-2.99 5.74c-.44.44-.81.94-1.25 1.37-.86.85-1.82 1.58-2.81 2.25-.7.47-1.44.86-2.22 1.18-.28.05-.5.25-.78.32-.4.18-.81.3-1.22.45-.25 0-.47.15-.72.16-.15.03-.3.02-.46.01-.05 0-.12-.03-.15.01-.02.04.13.01.07.11-.64.18-1.3.23-1.96.31-.7.09-1.4.18-2.1.12-.8-.07-1.6-.1-2.39-.28-.04-.01-.05-.04-.05-.08.12-.08.25-.04.36-.03-.14-.03-.3-.02-.46.02-.4-.03-.77-.24-1.17-.18a17 17 0 0 1-7.55-4.15c-.81-.84-1.59-1.7-2.23-2.67-.54-.74-.94-1.55-1.34-2.36l-.13-.31c-.33-.87-.64-1.75-.87-2.65-.04-.16-.04-.33-.08-.5-.02-.11-.06-.22-.1-.33.02-.14-.03-.27-.03-.4l-.06-.48c-.04-.34.01-.68-.07-1.02-.03-.67-.03-1.35 0-2.03.07-.37.04-.74.07-1.11v-.07c.14-.12.06-.3.13-.45z"/><path fill="#8C0E19" d="M18.48 20.01c.1-.1.23-.05.34-.05h22.37c.11 0 .24-.04.33.05v.01c-.12.05-.24.03-.35.03H18.84c-.11 0-.23.02-.34-.03h-.02z"/><path fill="#C1441A" d="M46.42 34.78c.06-.26.16-.53.17-.8.01-.66.17-1.33.15-2-.03-.9-.1-1.8-.25-2.7l-.01-.22c-.04-.05-.03-.1 0-.14.27.59.25 1.23.3 1.85a14 14 0 0 1 0 2.28c-.03.54-.07 1.1-.2 1.62-.14.54-.23 1.09-.36 1.62A16.34 16.34 0 0 1 43.3 42c-.03.05-.08.07-.12.1.27-.51.66-.94.97-1.43a15.7 15.7 0 0 0 2.28-5.76c-.04-.04-.03-.08 0-.12z"/><path fill="#C6451B" d="M18.3 43.68c.5.41 1 .83 1.52 1.23.92.73 1.93 1.3 2.99 1.82.86.41 1.76.72 2.68.99.1.03.2.03.31.04.4.1.83.1 1.2.28.03.03.03.06.01.1-.37.03-.73-.1-1.08-.2a17.73 17.73 0 0 1-5.68-2.58c-.62-.43-1.2-.9-1.74-1.41-.09-.08-.2-.14-.21-.27z"/><path fill="#912118" d="M13.59 34.46v.44c.07.08.08.18.13.26-.02.42.17.8.25 1.2.16.68.5 1.3.64 1.98-.3-.48-.44-1.02-.62-1.55-.15-.45-.26-.93-.36-1.4-.14-.6-.22-1.22-.3-1.84-.12-.93-.12-1.87-.05-2.8.02-.26.01-.51.12-.75.12.24.04.5.06.73 0 .08-.02.15-.04.22-.04.22-.01.45-.02.67-.03.68.05 1.36.07 2.04.04.1.02.21.02.32l.1.48z"/><path fill="#BA3E1A" d="M27.01 48.13v-.06c.04-.03.08-.04.13-.01 1.1.17 2.2.32 3.3.25 1.07-.07 2.16-.1 3.2-.42.15-.13.35-.05.5-.13.27.05.5-.19.76-.14.02.02.03.03.02.05l-.02.02c-.5.12-1 .23-1.48.39-.25.08-.51-.01-.74.12-.1.07-.23-.02-.32.06-.3-.02-.6.03-.9.07-.11.08-.26-.02-.37.06h-.2c-.59.05-1.18.05-1.78 0h-.19c-.12-.08-.26.02-.38-.06-.3 0-.59-.1-.89-.07-.1-.08-.22.01-.32-.06l-.32-.07z"/><path fill="#BE401A" d="M46.49 28.92l-.01.14a.4.4 0 0 0-.06-.02.22.22 0 0 1-.08-.13c.02-.23-.2-.44-.05-.69l-.19-.7a.73.73 0 0 0-.12-.32c-.04-.04-.04-.08 0-.12-.14-.6-.4-1.17-.64-1.74a.67.67 0 0 1-.07-.3c.27.32.35.72.5 1.1.22.56.42 1.14.54 1.73.08.34.19.69.18 1.05z"/><path fill="#AE361A" d="M14.74 38.66l.9 1.63c.14.24.35.44.43.72-.18-.1-.25-.28-.35-.44-.37-.57-.67-1.18-.98-1.79v-.12z"/><path fill="#C0411A" d="M36.87 46.86c.73-.32 1.43-.7 2.11-1.1.04-.03.08-.03.12-.05-.23.33-.6.44-.93.61-.42.23-.82.5-1.3.6-.02 0-.02-.02-.02-.04l.02-.02z"/><path fill="#BF421A" d="M34.9 47.69v-.07l1.2-.44c.12-.02.2-.13.33-.06-.08.2-.3.13-.44.19-.35.14-.7.31-1.09.38z"/><path fill="#C6451B" d="M29.11 48.4h1.78c-.2.12-.42.05-.64.05-.38-.02-.77.08-1.14-.06z"/><path fill="#972618" d="M36.43 47.12l-.32.06c.22-.19.5-.23.77-.31v.06l-.45.19z"/><path fill="#C6451B" d="M28.54 48.33c.13.02.27-.05.38.06-.13-.02-.27.05-.38-.06zM31.09 48.39c.1-.12.25-.04.38-.06-.11.11-.26.04-.38.06zM27.33 48.2c.1.01.23-.04.32.06-.1-.01-.23.04-.32-.06zM32.36 48.26c.09-.1.2-.05.32-.06-.1.1-.21.05-.32.06z"/><path fill="#8C0E19" d="M13.16 9.71c.1-.17.18-.35.37-.44.02 0 .04.05.07.01.03-.03-.02.02-.02-.02a.4.4 0 0 1 .26-.12c.11.06.23.03.34.03h6.69c.12 0 .23-.01.35.01.12.08.1.2.1.32v9.17c0 .11 0 .23-.04.34-.43.04-.87.02-1.3.02h-5.72H21c.1 0 .23.07.3-.07.03-1.08.02-2.16.02-3.24V9.27c-.09-.17-.25-.1-.37-.1h-6.76c-.12 0-.24.02-.35-.04.11-.1.24-.05.37-.05h7.2c.1.08.06.19.07.3v9.37c0 .29-.08.38-.38.38a528 528 0 0 0-6.7 0c-.53 0-.96-.13-1.25-.59v-.06c.08-.11.06-.24.06-.37v-8.03c0-.12.02-.25-.05-.37z"/><path fill="#FEFDFD" d="M25.42 15.7c.61 0 1.23.02 1.84 0 .25 0 .33.1.32.34-.02.71.07.6-.6.6l-2.74.01c-.24 0-.3-.07-.3-.3v-4.52c0-.23.08-.28.29-.28h3.05c.24 0 .32.07.3.31-.01.73.1.62-.61.63h-1.43c-.22-.01-.33.04-.32.3.03.86-.13.74.76.75h.92c.21 0 .3.08.31.3.02.62.03.62-.59.62l-1.1-.01c-.22-.01-.3.07-.3.27v.76c0 .1 0 .2.14.21.02-.04.04-.03.06 0z"/><path fill="#E05412" d="M25.42 15.7h-.06v-.87c0-.1 0-.22.15-.22l1.6.02.09.1H25.92c-.45 0-.44 0-.44.43 0 .2.06.29.27.28h1.4c.1 0 .2-.03.35.06h-1.94v.06h1.96v.07h-1.77c-.12 0-.24-.05-.33.07z"/><path fill="#E1581B" d="M27.6 16.8h-3.66v-.06h3.66v.07z"/><path fill="#E05511" d="M27.57 12.64h-1.71c-.28-.02-.39.05-.38.35 0 .3.1.36.36.35.46-.02.9 0 1.4 0a.46.46 0 0 1-.32.12h-1.34c-.16 0-.21-.06-.22-.22-.04-.67-.04-.67.63-.67h1.59l-.01.07z"/><path fill="#DF4800" d="M23.96 11.4h3.57v.07h-3.57v-.06z"/><path fill="#E05617" d="M23.65 16.5v-4.86h.03v4.87a.3.3 0 0 0-.03-.01z"/><path fill="#DE4A01" d="M27.38 13.6v.8h-.03v-.8h.03z"/><path fill="#DF510A" d="M27.8 12.37v-.75h.02v.74l-.03.01z"/><path fill="#DF5310" d="M27.8 16.58v-.75h.02v.75h-.03z"/><path fill="#FBCD8B" d="M33.24 16.64c-.41.13-.84.02-1.25.06-.23-.03-.23-.21-.23-.38v-1.84-2.6c0-.2.04-.37.3-.38h1.1c.11.04.16.1.06.2-.26.02-.53 0-.8.01-.33 0-.35.02-.35.36v4.13c0 .06-.01.14.03.18.23.24.53.07.8.1.18.03.19-.14.19-.26v-2.07c0-.15-.01-.31.02-.47.02-.1.05-.2.16-.21.1-.02.16.05.2.12.17.3.4.55.53.87 0 .06-.01.11-.06.16l-.18-.2a.16.16 0 0 1-.07-.13l-.12-.2c-.13 0-.15-.14-.24-.19-.04.8 0 1.6-.02 2.38 0 .12.04.26-.07.36z"/><path fill="#F9B143" d="M35.22 11.56c.43-.14.87-.05 1.3-.06.14 0 .16.12.16.24v4.72c0 .18-.08.25-.25.25h-1.05c-.16 0-.28-.08-.28-.27.34.15.7.1 1.06.12.21 0 .3-.07.3-.3l.01-4.35c0-.21-.1-.27-.3-.27h-.69l-.15.01a.2.2 0 0 1-.1-.01c-.03-.02-.03-.05-.01-.08z"/><path fill="#FCE4C3" d="M35.35 11.57l1-.02c.16 0 .23.06.23.23-.01 1.51-.02 3.02-.01 4.53 0 .26-.07.37-.34.35-.2-.02-.4-.02-.6 0-.22.01-.4-.05-.53-.22l-.2-.3-.13-.2a3.65 3.65 0 0 0-.58-.87v-.02c0-.13-.1-.21-.18-.3a3.55 3.55 0 0 0-.07-.13l.01-.14c.2.01.25.18.33.31.27.45.58.86.84 1.3.22.37.75.53 1.14.38.15-.07.14-.2.14-.32v-1.43-2.58c0-.41-.01-.43-.42-.43h-.38c-.1-.02-.23 0-.25-.14z"/><path fill="#F89B00" d="M31.79 16.7c-.14-.05-.13-.17-.13-.29v-4.6c0-.1-.03-.23.12-.25.05.06.04.14.04.21v4.72c0 .08.01.15-.03.22z"/><path fill="#FAC881" d="M35.23 11.62h.05c.1.1.1.23.1.35v2.35c0 .07 0 .15-.02.22-.05.17-.14.2-.28.1a150.04 150.04 0 0 1-1.68-2.58.36.36 0 0 1-.06-.18c0-.03.02-.06.05-.09.16.03.23.12.23.28l.58.9c.05-.01.05.03.07.06l.06.12c.02 0 .03.02.03.03 0 .02-.01.02-.02.02l.12.14c.05.03.06.07.06.13l.25.38c.05.03.07.08.06.13.08.13.15.27.27.37.09-.11.06-.24.06-.37v-2c0-.12-.04-.25.07-.36z"/><path fill="#F9A40E" d="M35.22 11.62v2.47c0 .1.07.25-.13.26v-2.48c0-.11-.07-.27.13-.31v.06z"/><path fill="#F9A21D" d="M31.78 16.7v-5.14c.08-.1.18-.06.27-.06-.16.05-.21.15-.2.33v4.55c0 .14 0 .25.14.32h-.2z"/><path fill="#F89B00" d="M36.76 16.56v-4.93h.03v4.94h-.03z"/><path fill="#F89C03" d="M33.37 13.79l.2.3c0 .17-.05.23-.2.07v2.48h-.06c-.07-.5-.02-.99-.03-1.48v-1.18c0-.06-.05-.18.09-.2z"/><path fill="#F9A21D" d="M33.37 13.79c-.1.1-.05.22-.06.33v2.52h-.07v-2.99c.1.02.1.08.13.14zM33.45 11.8l-.08.02c-.1 0-.12-.07-.11-.15 0-.08-.05-.12-.1-.17a.4.4 0 0 1 .28.05.3.3 0 0 1 .03.22.58.58 0 0 1-.02.04z"/><path fill="#F89E03" d="M33.62 12.07l-.18-.26h.01c.04-.04.08-.04.11 0 .2.05.16.15.06.26z"/><path fill="#F89D01" d="M34.83 13.98c-.05-.03-.06-.08-.06-.13l.03-.14c.03 0 .06.01.07.03.05.09.05.17-.04.24z"/><path fill="#F89E03" d="M34.52 13.47c-.06-.03-.06-.08-.07-.13.02-.04.02-.13.08-.1.09.07.07.16-.01.23z"/><path fill="#F89C02" d="M34.78 15.95c-.02.05.01.12-.06.15l-.06-.05c-.01-.08.05-.1.12-.1z"/><path fill="#F89C01" d="M33.56 11.81h-.1l-.02-.25c.08.06.12.15.12.25z"/><path fill="#F89D01" d="M33.7 14.3c.04.02.06.06.06.12-.05 0-.07.1-.11.06-.05-.06-.03-.14.04-.19z"/><path fill="#F89D02" d="M34 14.74v.32c-.06-.16-.15-.24 0-.32zM34.2 15.05l.02.05c-.03.05-.05.1-.11.1-.02 0-.03-.08-.03-.12.02-.08.08-.04.12-.03z"/><path fill="#F89E02" d="M34.27 13.02l-.07-.05.02-.24c.08.11.04.2.05.3z"/><path fill="#F89D02" d="M34.9 16.14c-.01.06.03.14-.04.21-.1-.1-.01-.15.04-.21z"/><path fill="#F89C00" d="M34.34 13.2a.08.08 0 0 1-.01-.05l.05-.1.05.01c.02.08-.03.11-.09.14z"/><path fill="#F89B01" d="M34.39 15.64c-.01-.02-.03-.05-.03-.08s.04-.05.06-.02c.02.01.02.05.03.08l-.06.02z"/><path fill="#FDD04B" d="M45.21 16.58c0 .13-.1.13-.2.13-.42.1-.84.1-1.26 0-.19.01-.2-.1-.2-.25v-1.33c.02-.25 0-.37-.32-.34-.44.04-.89.01-1.33.01-.1.08-.06.2-.06.3v1.2c0 .12.01.24-.07.34-.46.14-.93.06-1.4.04-.03 0-.05-.07-.06-.1-.08-.1-.06-.2-.06-.3v-4.35c0-.1-.02-.22.06-.3 0-.06.01-.11.07-.14.44-.05.88-.05 1.33 0l.06.07c.12.26.05.54.06.81.02.3 0 .61 0 .92 0 .13.02.24.19.23.48 0 .97.02 1.45 0 .04 0 .06-.04.08-.06V11.8c0-.15 0-.28.2-.3a5.7 5.7 0 0 1 1.26 0c.1 0 .2 0 .2.13.04.07.03.14.03.21v4.53c0 .08.02.15-.03.22z"/><path fill="#FDD34F" d="M38.66 9.08h.06c.11.05.23.02.34.02h6.57c.11 0 .23-.02.34.04-.1.1-.24.06-.36.06h-6.54c-.28 0-.36.07-.36.35v9.02c0 .14.14.31-.05.43-.06-.1-.03-.19-.03-.28V9.35c0-.09-.03-.19.03-.27z"/><path fill="#FDD24E" d="M46.86 9.84v8.52c-.15-.02-.12-.15-.12-.25v-8.03c0-.1-.03-.22.12-.24z"/><path fill="#FDCC3A" d="M40.3 11.62v4.96c-.25.04-.11-.16-.11-.23v-3.58-1.02c0-.08-.04-.2.12-.13z"/><path fill="#FDCC37" d="M43.55 13.46c.05.1 0 .13-.1.13h-1.49c-.2 0-.19-.12-.19-.25v-1.78c.16.06.13.2.13.33 0 .4.02.82 0 1.23-.02.3.09.36.36.35.43-.02.86 0 1.3 0z"/><path fill="#FDCC48" d="M45.97 9.14h-6.89c-.12 0-.25.04-.36-.06h7.08c.1 0 .22-.04.3.06h-.13z"/><path fill="#FDCD43" d="M45.2 16.58v-4.96c.1.07.07.17.07.26v4.43c0 .1.03.2-.06.27z"/><path fill="#FDCB32" d="M41.78 16.64v-1.76c0-.09-.03-.22.12-.08v1.51c0 .13.03.26-.12.33z"/><path fill="#FDCC38" d="M43.75 16.71h1.27c-.04.07-.1.12-.17.12h-.93c-.09 0-.14-.05-.17-.12z"/><path fill="#FDCE37" d="M41.7 11.49h-1.32c.44-.1.88-.1 1.33 0zM45.01 11.49h-1.26c.42-.1.84-.1 1.26 0z"/><path fill="#FDCC48" d="M38.66 9.08V19c-.11-.1-.06-.24-.07-.36V9.07h.07z"/><path fill="#85001A" d="M13.16 9.71c.16.03.11.16.11.26v8.26c0 .1.05.22-.11.25l-.01-.79v-7.57-.4z"/><path fill="#88011A" d="M13.58 9.26l.15.03c-.01.02-.02.06-.04.07-.1.04-.13-.03-.16-.09a.3.3 0 0 1 .05 0z"/><path fill="#C3888C" d="M27.02 35.1c.1-.14.18-.3.27-.44.04-.01.07 0 .08.04a.3.3 0 0 1 0 .17c-.25.53-.08 1.1-.13 1.63-.01.11.08.14.17.15h6.52c.8 0 .88.08.88.87v2.2c0 .33.04.36.37.36h3.11c.25 0 .34-.08.34-.33-.02-.77-.01-1.55 0-2.32 0-.61.16-.77.77-.78.78-.01.75.17.75-.74V34c0-.34-.05-.38-.4-.4h-.66c-.35-.02-.44-.12-.46-.47v-.38-8.59l-.01-.29c-.01-.34-.04-.38-.39-.38h-3.72c-.25 0-.45.07-.57.3-.06.11-.12.2-.24.25-.18-.06-.07-.14-.02-.2v-.07c0-.08.02-.14.1-.18.05 0 .1 0 .1-.07-.02-.03-.01-.04.01-.06.07-.11.16-.15.3-.15h4.41c.21 0 .3.08.3.3v9.7c.2.12.42.05.64.07.21.02.44-.05.65.05l.1.02c.15.05.12.17.12.27v2.88c0 .23-.09.35-.3.36-.36.01-.71.05-1.07-.02-.12-.02-.16.02-.16.16.02 1 .02 2 .03 3.01-.07.14-.18.2-.33.2h-3.72c-.07 0-.14-.01-.2-.07-.07-.06-.07-.15-.07-.23v-2.73c0-.07 0-.15.05-.21-.03-.23-.22-.13-.33-.13h-6.87c-.17 0-.34 0-.42-.2-.15-.3-.05-.64-.06-.96 0-.22-.08-.46.06-.67z"/><path fill="#AC565D" d="M25.35 40.24l-4 .02c-.3 0-.26-.2-.26-.38V27.36v-.4c-.2-.12-.41-.05-.62-.07-.2-.02-.4.04-.58-.06-.19 0-.31-.06-.31-.27v-3.13c0-.04.04-.08.05-.11.1-.12.24-.12.38-.12h4.9c.12 0 .27-.06.33.12-.14.19-.36.17-.55.17h-4.42c-.45 0-.47.01-.47.46v2.16c0 .45.03.48.5.48l.57.01c.29.03.41.15.45.44V39.7c.02.35.04.38.4.38h3.01c.44 0 .46-.02.46-.47V28.48v-4.86c0-.09 0-.17.02-.26.03-.08.09-.07.15-.04.1.12.09.26.09.4v16.13c0 .14 0 .28-.1.4z"/><path fill="#89001A" d="M18.5 20.02H41.5c-.1.1-.22.06-.33.06H18.83c-.11 0-.24.04-.33-.06z"/><path fill="#8E0000" d="M25.42 23.32l.07.07c.09.1.06.24.06.37V39.8c0 .13.03.26-.06.37l-.06.06c-.07-.1-.04-.22-.04-.34V23.67c0-.12-.02-.24.03-.35z"/><path fill="#931F21" d="M25.42 23.32v16.92h-.06v-.28V23.6v-.28h.06z"/><path fill="#8D101B" d="M25.49 40.18v-16.8h.06c.06.12.03.24.03.35v16.11c0 .12.03.23-.03.34h-.06z"/><path fill="#8A0615" d="M25.55 40.18v-16.8c.1.1.06.23.06.34v16.13c0 .11.04.24-.06.33z"/><path fill="#860202" d="M19.89 26.84l.97-.01c.09 0 .22-.05.23.12-.1.11-.05.25-.05.37v12.52c0 .12.02.23-.04.35-.06-.12-.03-.23-.03-.35V27.35c0-.32-.06-.44-.4-.4-.28.02-.57 0-.93 0l.25-.11z"/><path fill="#850000" d="M40.18 33.43h-1.1c-.08 0-.2.05-.2-.12.16-.1.1-.25.1-.38v-9.18-.34h.06V32.92c-.01.3.06.42.37.39.3-.03.6 0 .9 0 0 .09-.11.05-.13.11z"/><path fill="#810202" d="M25.36 23.32l-.13.01c-.08-.1-.2-.06-.3-.06h-4.89c-.13 0-.27.03-.4.05 0-.18.14-.19.27-.19h5.18c.14 0 .26.02.27.2z"/><path fill="#7E0E17" d="M14.86 36.5c-.32-.52-.47-1.1-.63-1.68a23.5 23.5 0 0 1-.4-1.74 8.8 8.8 0 0 1-.17-1.31c-.03-.67 0-1.34 0-2 0-.18 0-.36.04-.54.03-.12.1-.3-.1-.37.04-.13.13-.24.12-.38.04-.04.08-.04.12 0a15.43 15.43 0 0 0 .96 7.71c.04.1.06.2.06.3z"/><path fill="#8A0615" d="M34.52 37.13c-.1.1-.06.22-.06.33v2.35c0 .1.03.21-.07.36v-2.59c0-.45 0-.45-.43-.45h-6.52c-.12 0-.26.05-.36-.06.05-.04.12-.03.18-.03h7.22c.05.01.06.04.04.09z"/><path fill="#810102" d="M33.96 23.17h4.88v.07h-4.89v-.07z"/><path fill="#D7AEB1" d="M30.13 29.87l.18-.31c-.01-.02 0-.04.02-.05l.1-.14c-.05-.12-.03-.2.1-.24 0-.03.02-.05.03-.08.06-.1.16-.15.2-.25.1-.15.13-.33.26-.45.05-.12.12-.22.2-.32.13-.26.25-.53.44-.75.03-.03.05-.03.08 0 .08.14-.01.24-.08.35-.73 1.26-1.48 2.51-2.22 3.77-.06.1-.1.24-.28.2-.06-.12 0-.19.09-.26l.12-.25c-.06-.11.06-.13.1-.2a.27.27 0 0 1 .04-.1l.12-.17a.1.1 0 0 1 .07-.03l.16-.27c-.01-.02 0-.04.02-.05.13-.1.17-.26.25-.4z"/><path fill="#860000" d="M34.52 37.07h-7.44c.1-.1.22-.07.33-.07h6.84c.11 0 .24-.04.33.07-.02.02-.04.02-.06 0z"/><path fill="#942226" d="M39.04 36.93h.98c.25-.02.37-.13.36-.4v-2.76c0-.11 0-.23-.09-.32.17 0 .15.12.15.22v3.04c0 .13-.02.26-.16.27-.42.02-.83.09-1.24-.05zM34.66 40.24l3.94.01a.4.4 0 0 0 .3-.14c.02.1-.03.16-.12.2-.06.05-.14.03-.21.03h-3.7c-.08 0-.15.02-.22-.03v-.07z"/><path fill="#8E0000" d="M34.65 40.31h4.13c-.07.09-.17.06-.26.06h-3.6c-.1 0-.2.03-.27-.06zM21.3 40.33h3.99v.03h-4v-.03z"/><path fill="#8A0615" d="M25.21 40.5h-3.9v-.04h3.91v.03zM34.8 40.45h3.9v.03h-3.92l.02-.03z"/><path fill="#8C0000" d="M27.02 35.1v1.64c-.12.21-.13 0-.13-.05v-1-.63c0-.05.02-.13.09-.1.03.02.03.1.04.15z"/><path fill="#9C2F34" d="M33.68 23.83l-.04.2v.1c-.31.57-.6 1.17-1.02 1.68a.07.07 0 0 1-.08-.02l.01-.23c.07-.05.05-.15.13-.2.05 0 .1-.01.12-.07-.05-.09 0-.14.06-.18.15-.06.13-.2.14-.32.08-.07.08-.2.18-.25.06-.06.06-.15.13-.2l.07-.05c0-.08-.01-.15.06-.2.15-.03.09-.24.24-.26z"/><path fill="#8E0000" d="M34.52 37.07h.06c.07.66.03 1.32.03 1.98 0 .4.05.8-.03 1.2-.1-.1-.06-.22-.06-.33v-2.79-.06z"/><path fill="#942226" d="M34.58 40.25v-3.18a.6.6 0 0 0 .06 0l.02 3.17h-.08z"/><path fill="#962025" d="M29.25 31.34c.01.1-.11.15-.07.26.03.06 0 .12-.03.17-.24.4-.45.81-.71 1.2-.05.07-.1.2-.24.14-.04-.06-.03-.12.02-.18l.2-.26c.05-.07.03-.19.12-.25.15-.06.13-.19.13-.31.07-.05.05-.15.13-.2h.06c.06-.08.04-.19.13-.25l.06-.06c0-.1-.01-.19.07-.26h.13z"/><path fill="#CB989C" d="M27.33 34.77v-.12c-.04-.04-.03-.08.02-.11l.1-.15c-.01-.01-.02-.03 0-.03h.02l.3-.48c-.08-.16 0-.25.14-.3l.12-.16c.03 0 .06 0 .08.03.03.1 0 .19-.06.27-.17.28-.32.58-.5.86-.06.08-.07.21-.22.2z"/><path fill="#740D16" d="M46.29 28.22c-.02.25.16.46.13.7-.13-.04-.07.1-.13.13-.1-.09-.05-.21-.06-.32a.9.9 0 0 1 0-.5h.06z"/><path fill="#93171E" d="M31.72 27.27h-.03l-.03.01c.07-.28.17-.54.42-.71l.04.02c-.06.27-.15.52-.4.68z"/><path fill="#6B0015" d="M13.47 29.82c.1.36.1.72 0 1.07-.05-.04-.04-.1-.04-.16.02-.24-.03-.49.03-.73v-.18z"/><path fill="#8B040A" d="M27.91 33.59a.73.73 0 0 0-.15.3c-.12-.03-.13-.11-.1-.2.06-.09.12-.19.2-.25.03-.02.03.1.05.15z"/><path fill="#901215" d="M28.1 33.43a.14.14 0 0 0-.07-.01v-.05c-.06-.09 0-.14.06-.18.02-.1-.04-.24.13-.26v.2c.07.15-.02.23-.13.3z"/><path fill="#7E0E17" d="M13.46 30v.77c-.02.03-.04.03-.06 0v-.76a.4.4 0 0 1 .06 0z"/><path fill="#9D2E33" d="M32.08 26.57c.04-.09 0-.2.09-.26.04-.05-.02-.14.06-.18l.11-.02a.1.1 0 0 1 .05.06c-.02.18-.08.35-.28.4h-.03z"/><path fill="#720016" d="M46.29 29.05c0-.08-.03-.2.13-.13v.12c0 .1 0 .2-.13.2v-.19z"/><path fill="#840419" d="M14.1 27.01c.09.12.07.2 0 .32-.09-.12-.07-.2 0-.32z"/><path fill="#790317" d="M46.23 28.22v.51c-.13-.17-.04-.36-.07-.54l.02-.03c.04 0 .04.04.05.06z"/><path fill="#740D16" d="M13.84 28.48h-.12c0-.12-.02-.24.12-.36v.36z"/><path fill="#820319" d="M45.97 27.08v.12c-.01.03-.03.1-.05.1-.1-.01-.07-.1-.07-.17 0-.1.07-.07.12-.05z"/><path fill="#9C2F34" d="M32.41 25.87l.13-.08.02.03c.05.17-.01.28-.19.32l-.03-.03v-.06c-.03-.08 0-.14.07-.18z"/><path fill="#8F0F15" d="M30.53 29.12l-.1.25c-.08-.02-.12-.07-.1-.16.02-.12.11-.1.2-.09z"/><path fill="#890004" d="M33.44 24.09c0 .07 0 .14-.06.2-.08-.07-.09-.15-.04-.22.03-.04.07-.02.1.02z"/><path fill="#7E0E17" d="M13.59 29.3c-.02.16.07.34-.12.45.06-.14.02-.31.12-.45z"/><path fill="#8B0004" d="M29.56 30.82l-.07.07c-.02.03-.04.03-.06 0 0-.12-.02-.25.13-.31l.03.03c.02.07.01.15-.03.2z"/><path fill="#890003" d="M29.12 31.34c-.02.09.02.19-.07.26-.09-.11-.12-.21.07-.26z"/><path fill="#8C0C11" d="M29.56 30.58c0-.08-.02-.17.08-.2.08.05.03.14.06.21-.05.03-.1.03-.14-.01z"/><path fill="#8C0C0F" d="M29.43 30.9h.06c0 .09-.1.11-.12.19-.08-.05-.08-.13-.05-.2h.11z"/><path fill="#8E0D10" d="M28.98 31.66c0 .1-.04.19-.12.25.05-.08-.12-.27.12-.25z"/><path fill="#880007" d="M28.8 31.91c0 .1 0 .19-.13.2.02-.09-.05-.22.13-.2z"/><path fill="#8E0C12" d="M28.54 32.42c-.01.1-.04.19-.12.25.05-.08-.12-.27.12-.25z"/><path fill="#880002" d="M33.18 24.53c-.07.08-.02.25-.19.26.02-.12.04-.24.2-.26z"/><path fill="#890005" d="M32.68 25.36c0 .1 0 .19-.13.2.02-.09-.05-.22.13-.2z"/><path fill="#790017" d="M13.96 27.6v.4c-.06-.2-.06-.3 0-.4z"/><path fill="#7A0117" d="M46.1 27.52v.37c-.05-.12-.11-.25 0-.37z"/><path fill="#972127" d="M31.22 28.03a.7.7 0 0 1-.2.32c-.01-.16.06-.25.2-.32z"/><path fill="#931920" d="M30.77 28.8a.7.7 0 0 1-.2.3c-.04-.06-.04-.12 0-.18l.2-.12z"/><path fill="#8F0E16" d="M30.13 29.87c-.15-.06-.13-.15-.03-.27.06.1.02.19.03.27z"/><path fill="#8B070D" d="M29.88 30.27c0 .02 0 .04-.02.05-.08 0-.12-.06-.1-.15 0-.02.03-.05.04-.05.07.02.07.09.08.15z"/><path fill="#8A0608" d="M33.77 23.58l-.09.19a.14.14 0 0 1-.03-.19c.03-.06.08 0 .12 0z"/><path fill="#8E0E14" d="M33.31 24.34c0 .1-.04.16-.13.2.05-.07-.1-.26.13-.2z"/><path fill="#8F0F16" d="M27.47 34.35l-.01.04c-.07-.03-.13-.07-.1-.16l.06-.04.05.16zM27.34 34.54v.11l-.05.01c-.06-.04-.1-.09-.06-.15.05-.07.08-.01.11.03z"/><path fill="#880004" d="M32.23 26.12c0 .07.01.15-.06.2-.02-.09-.16-.2.06-.2z"/><path fill="#890003" d="M30.58 28.92v.18a.07.07 0 0 1-.05.03.2.2 0 0 1 0-.26c.04-.06.03.03.05.05z"/><path fill="#890000" d="M33.89 23.46l-.01.05c-.07 0-.13-.03-.11-.11 0-.02.02-.04.03-.04.08-.01.07.05.09.1z"/><path fill="#880005" d="M32.42 25.87l-.07.18c-.07-.05-.07-.12-.04-.18 0-.02.07 0 .1 0z"/><path fill="#880108" d="M32.86 25.1l-.06.19c-.07-.05-.07-.12-.04-.19h.1z"/><path fill="#8F0F15" d="M30.33 29.51c0 .02 0 .04-.02.05-.05 0-.1-.02-.1-.09-.01-.03 0-.07.04-.05l.08.09z"/><path fill="#8B080D" d="M28.09 33.19l-.06.18c-.08-.05-.08-.12-.05-.19.03-.04.07 0 .1 0z"/><path fill="#790D16" d="M13.4 30.77h.06v2.22c.05.24.05.47 0 .7-.11-.4-.07-.8-.12-1.2-.03-.3 0-.6 0-.9.09-.2-.03-.43.06-.63v-.2z"/><path fill="#780A16" d="M27.14 48.06l-.13.01c-.4-.14-.83-.11-1.21-.31.42-.07.81.1 1.21.19.03.04.1.02.13.06v.05z"/><path fill="#6C0115" d="M46.53 29.79v1.04c.04-.32-.2-.63 0-1.04z"/><path fill="#770A16" d="M34.14 47.76a.77.77 0 0 1-.5.13l-.2-.02-.01-.08c.23-.07.48-.02.71-.03z"/><path fill="#6C0015" d="M46.53 33.07v.87c-.1-.12-.1-.12 0-.87z"/><path fill="#6D0015" d="M28.97 48.12h-.94v-.03h.94v.03z"/><path fill="#6F0416" d="M46.42 34.78v.12c-.1.04-.13.01-.13-.09v-.42c.19.13.1.28.13.4z"/><path fill="#6D0015" d="M31.97 48.12h-.93v-.03h.93v.03z"/><path fill="#6C0015" d="M13.46 33.7V33c.14.33.03.67.07 1.01-.02.03-.04.03-.06 0v-.31z"/><path fill="#6B0015" d="M32.46 48.02c.16-.1.31-.08.47-.03l-.47.03zM27.14 48c-.05 0-.1 0-.13-.05h.5V48h-.37z"/><path fill="#790D16" d="M13.47 34.01h.06c.08.14.06.3.06.45a.96.96 0 0 1-.12-.45zM13.72 35.16a.34.34 0 0 1-.13-.26c.12.05.13.15.13.26z"/><path fill="#7E0E17" d="M13.4 30.96c-.03.21.06.43-.06.63.02-.2-.07-.43.06-.63z"/><path fill="#FEFDFD" d="M19 15.7c.06.14.13.28.25.38 0 .1.08.13.13.18.07.06.12.12.15.2.04.13.01.21-.14.22-.46 0-.92.01-1.38-.01-.23-.01-.25-.25-.35-.4a7.95 7.95 0 0 1-.76-1.22c-.15-.1-.16-.39-.43-.35-.15.07-.12.21-.12.33v1.24c0 .36-.1.45-.45.46h-.57c-.32-.01-.42-.1-.43-.42v-1.75V12c0-.43.05-.46.48-.46h.6c.27-.02.37.1.37.35V13c0 .13-.06.32.1.37.14.04.23-.1.32-.21l.12-.13c.09-.1.08-.25.2-.32.13-.12.17-.3.25-.45.06-.1.16-.17.2-.28.1-.37.37-.47.73-.45.33.02.66 0 .98 0 .22.01.2.15.1.26-.21.26-.37.56-.6.8a.3.3 0 0 0-.05.07c-.04.09-.12.16-.16.24a.85.85 0 0 1-.07.1c-.03.03-.06.05-.1.04l-.35.43c0 .03-.01.05-.04.07-.12.04-.15.16-.19.26-.08.17.15.23.13.38 0 .07.06.1.12.13.06.2.18.35.32.5.1.16.18.32.31.45.15.12.24.29.32.46z"/><path fill="#9C333C" d="M16.77 13.14c0 .12-.1.19-.14.28-.04.1-.15.12-.25.1-.12-.03-.12-.12-.12-.23v-1.46c0-.21-.07-.28-.28-.27h-.76c-.16 0-.23.06-.23.22v4.64c0 .17.07.23.24.22h.76c.21.01.27-.08.27-.28v-1.5c0-.22.07-.34.31-.25a.3.3 0 0 1-.04.13.51.51 0 0 0-.06.14c-.05.47 0 .94-.02 1.4 0 .13.03.26-.06.36l-.07.07c-.47.1-.93.1-1.4 0v-.07c-.1-.12-.09-.26-.09-.4v-4.29c0-.13 0-.27.08-.4.5-.1.98-.1 1.47 0 .12.17.06.35.07.53.01.37-.02.73.01 1.1 0 .13.06.08.12.03l.19-.07z"/><path fill="#87001A" d="M21.29 19c-.06-.16 0-.31 0-.47V9.6c0-.14.01-.27-.07-.4.05-.04.09-.04.13 0V19c-.02.02-.04.02-.06 0z"/><path fill="#81001A" d="M21.35 9.2H14.2c-.12 0-.25.05-.36-.06h7.5l.02.03v.03z"/><path fill="#910714" d="M21.29 19h.06c-.07.09-.17.06-.26.06h-6.86c-.04 0-.08 0-.12-.06h7.18z"/><path fill="#90111D" d="M14.86 16.64l-.06-.06c-.05-.07-.03-.14-.03-.22v-4.53c0-.07-.02-.15.03-.21l.06-.07c.05.07.03.15.03.22v4.66c0 .07.02.15-.03.21z"/><path fill="#950008" d="M14.86 16.64v-5.08h.06v5.08h-.06z"/><path fill="#890013" d="M14.8 11.62v4.96c-.1-.08-.06-.2-.06-.3v-4.36c0-.1-.04-.22.06-.3z"/><path fill="#931D23" d="M17.66 16.26c.18.38.5.43.86.4.2-.03.4-.01.6-.01.45 0 .45 0 .26-.39h.06c.06 0 .1.03.13.06.1.39.1.4-.3.4-.37 0-.74-.03-1.11 0-.35.02-.47-.16-.5-.46z"/><path fill="#BA757A" d="M19.31 11.56c-.36 0-.72.03-1.07.01-.31-.02-.5.1-.64.35-.07.14-.16.27-.25.4-.03.03-.05.03-.07 0v-.06c0-.05.02-.1.07-.13l.1-.14c0-.02 0-.04.03-.04l.06-.13c.05-.06.04-.16.12-.2.11-.1.24-.12.38-.12h1.26c.05.01.05.03.01.06z"/><path fill="#840000" d="M14.92 16.7h1.4c0 .1-.05.13-.14.13h-1.06c-.1 0-.16-.04-.2-.13z"/><path fill="#90161A" d="M19.31 11.56l-.01-.06c.11-.03.22-.08.16.13-.07.24-.28.4-.34.63-.05.02-.08.08-.12.12l-.07.07c-.05.05-.06.14-.12.19h-.07c-.03.02-.05.01-.07-.01.15-.33.43-.57.62-.86.06-.08.11-.13.02-.21z"/><path fill="#931A21" d="M16.9 15.05c.28.39.54.79.76 1.21-.04 0-.1 0-.12-.02l-.64-1.06c-.02-.04 0-.09 0-.13z"/><path fill="#890506" d="M16.59 13.21c-.02.09 0 .2-.12.23-.07.01-.07-.05-.08-.1.07-.47.01-.94.03-1.41 0-.13-.03-.26.03-.38.13.2.04.43.07.64.03.34-.08.7.07 1.02z"/><path fill="#880203" d="M16.45 14.73l.06-.06c.12 0 .11.05.07.13-.13.49-.03.99-.06 1.48-.01.12.04.26-.07.36-.05-.63-.04-1.27 0-1.9z"/><path fill="#8F1718" d="M16.45 14.73v1.91h-.06v-1.6c0-.1-.03-.22.06-.3zM16.45 11.56v1.48c0 .1.04.21-.05.3l-.01-1.78h.06z"/><path fill="#921A1E" d="M19 15.7c-.16-.11-.24-.29-.33-.45l.02-.03a.09.09 0 0 1 .11.02c-.02.2.31.24.2.47z"/><path fill="#8F1718" d="M16.58 14.8c0-.05-.01-.1-.07-.13l.07-.06c.17.1.23.28.32.44-.18.01-.14-.26-.32-.25z"/><path fill="#8D0810" d="M18.36 13.03l.06-.07c.14-.06.18-.02.13.12-.08.02-.04.2-.15.15-.07-.03-.03-.13-.04-.2z"/><path fill="#8F1015" d="M16.9 12.89c-.05.01-.1.05-.12-.02-.02-.1 0-.17.12-.17.03-.04.07-.04.1-.01h.02c.03.12-.04.16-.12.2z"/><path fill="#CE9CA0" d="M17.27 12.31l.08.02c-.08.13-.1.3-.27.37-.03-.14.14-.19.12-.32-.01-.03 0-.05.03-.06h.04z"/><path fill="#93161D" d="M17.91 14.17c-.05-.13-.28-.19-.12-.38 0 .08.04.12.12.12.06.06.06.12.02.18l-.02.08z"/><path fill="#CE9CA0" d="M16.9 12.9l.12-.2a.1.1 0 0 1 .07 0c-.01.14-.06.25-.2.31v-.12z"/><path fill="#8B0001" d="M17.35 12.13c0 .05 0 .1-.07.13-.07-.07-.1-.16-.01-.22.06-.04.06.05.08.1z"/><path fill="#8A0009" d="M18.55 13.08c0-.08-.04-.13-.13-.13-.02-.04 0-.06.04-.07.07-.02.1-.11.19-.08l.03.03c-.01.1-.04.19-.13.25z"/><path fill="#8F0A0B" d="M17.98 13.53c-.02-.04 0-.06.04-.08.05.01.12-.05.16.01.02.03.01.09 0 .11-.09.09-.13-.08-.2-.04z"/><path fill="#890001" d="M17.01 12.69l-.11.01c0-.08-.02-.2.08-.2.08 0 .03.12.03.19z"/><path fill="#8A010C" d="M19.57 16.32c-.05 0-.1-.01-.12-.06 0-.05-.02-.14.03-.14.11.02.08.12.09.2z"/><path fill="#8A0001" d="M18.8 15.24l-.1-.02c0-.06-.06-.17.02-.17.1 0 .08.12.08.2z"/><path fill="#8B0003" d="M18.36 14.8c.02-.07-.03-.15.04-.2.01 0 .06.03.07.05.04.1-.02.14-.1.15z"/><path fill="#8B0004" d="M17.93 14.1l-.02-.2c.11.01.14.08.13.17-.02.08-.07.05-.11.03z"/><path fill="#8A0003" d="M17.66 11.62c0 .08-.02.17-.12.2.03-.08-.1-.24.12-.2z"/><path fill="#880005" d="M17.47 11.94c0 .02 0 .04-.02.05-.06-.04-.12-.07-.07-.16 0-.02.04-.02.07-.03l.02.14z"/><path fill="#8A0001" d="M19.25 16.08c.02-.05-.02-.13.06-.17.03-.01.05.02.06.06 0 .08-.06.1-.12.1v.01z"/><path fill="#890005" d="M18.67 12.63l.07.01c.05.09.1.17-.06.19-.06-.07-.04-.13 0-.2z"/><path fill="#8A0307" d="M18.8 12.64c0-.1.05-.16.13-.2 0 .1 0 .2-.12.2z"/><path fill="#8B0508" d="M18.03 14.3c.04-.05.05-.12.13-.1.02.01.04.06.03.08-.04.08-.1.02-.16.02z"/><path fill="#890007" d="M19 12.38c0-.08.04-.12.12-.12l-.06.16c-.01.02-.02.05-.05.02l-.01-.06z"/><path fill="#8A090D" d="M17.23 12.32l-.02.06c-.05.02-.1.06-.14 0v-.05c.05-.08.1-.02.16 0z"/><path fill="#FEFEFD" d="M33.26 11.67l.1.15c.54.93 1.16 1.82 1.74 2.72.03.06.06.13.14.1.07-.03.06-.1.06-.16l-.02-2.86.07-.05c.29.1.58.04.88.04.2 0 .27.08.26.28v4.39c0 .21-.06.28-.29.3-.64.09-1.06-.1-1.34-.73-.22-.5-.6-.92-.9-1.37l-.52-.8c-.05-.06-.06-.19-.16-.17-.13.03-.1.15-.1.24v2.2c0 .64 0 .64-.62.64-.59 0-.59 0-.58-.58l-.01-4.1c0-.25.06-.35.33-.3.31.05.65-.08.96.06zM45.03 14.11v2.23c0 .23-.06.3-.3.31-.98 0-.98.01-.98-.95v-.86c0-.17-.06-.25-.24-.25h-1.59c-.2 0-.21.12-.21.27v1.53c0 .18-.05.27-.25.26h-.83c-.19 0-.26-.08-.26-.27V11.8c0-.18.08-.25.25-.24h.03c.34.02.76-.14.99.06.22.2.05.62.07.94v.9c0 .14.05.2.2.2h1.63c.2 0 .21-.1.21-.27v-1.55c0-.2.06-.28.27-.29 1-.03 1-.04 1 .97v1.6z"/><path fill="#FEFEFE" d="M32.37 26.14c.1-.08.14-.21.2-.32.35-.6.7-1.2 1.07-1.79.04-.04.11-.08.13-.13.14-.48.5-.53.93-.52 1.21.02 2.42.02 3.63 0 .31 0 .41.06.41.4v9.31c0 .42 0 .42.42.42h.82c.2 0 .27.07.27.26v2.76c0 .2-.08.25-.27.24-.28-.02-.55 0-.83-.01-.27 0-.42.12-.42.4 0 .92 0 1.84.02 2.76 0 .21-.06.26-.24.26h-3.56c-.22 0-.24-.1-.24-.27v-2.7c0-.4-.03-.45-.43-.45l-6.9.01c-.23 0-.29-.05-.27-.27.03-.3.03-.6.01-.9-.02-.3.03-.58.21-.83.26-.44.57-.86.76-1.34l.14-.3.95-1.54c.28-.24.41-.6.6-.9.62-1.03 1.22-2.08 1.82-3.11.06-.1.16-.18.12-.32l.4-.69c.11-.12.19-.27.25-.43zM25.23 23.33c.1.1.07.24.07.36l.01 16.18c0 .28-.1.33-.35.33H21.6c-.29 0-.38-.06-.38-.37V27.18c0-.46 0-.47-.45-.47H20c-.22.01-.3-.09-.3-.3v-2.77c0-.23.1-.28.32-.28h4.77l.44-.03z"/><path fill="#8C0E19" d="M29.56 30.58l.14.01-.14.23v-.24zM18.67 12.63v.2l-.2.05c.04-.1.11-.18.2-.25z"/><path fill="#E1BFC3" d="M34.9 31.21v1.97c.01.28-.07.39-.35.39h-2.16c-.12 0-.26 0-.32-.1-.08-.13.06-.22.12-.31L34.65 29c.03-.05.04-.13.12-.12.1 0 .1.1.12.17.02.08.01.16.01.25v1.9z"/><path fill="#8C0E19" d="M33.13 31.79l.11-.14c.06 0 .1 0 .14-.05l.05-.06c.05-.07.04-.14.02-.22v-.04l.1-.15c.1 0 .07-.07.06-.12l.07-.06c.1-.02.08-.07.02-.12l.16-.27c.04 0 .07-.04.1-.05.1-.04.13-.1.06-.19l.12-.19a.05.05 0 0 1 .06-.02c.1.01-.01-.06.03-.07.05-.07.06-.15.1-.22.05-.15.14-.28.23-.4.05-.02.08-.01.12.03.06.1.06.22.06.33v3.15c0 .4-.04.44-.44.44h-1.55c-.14 0-.29.01-.32-.18v-.1c.05-.12.23-.18.17-.35-.03-.13.09-.17.14-.25.01-.05.18-.02.07-.13.05-.2.2-.35.3-.53.04.01 0 .03.03.01.01 0 .02-.01.01-.03 0-.01 0-.02-.02-.02z"/><path fill="#8A0709" d="M32.48 33.06c-.02.19.06.26.25.26.54-.02 1.08-.02 1.62 0 .24 0 .3-.08.3-.31v-3.58c-.07-.11.03-.17.06-.26.1 0 .1.07.1.14v4.06l-.03.05c-.83.07-1.65.01-2.47.03-.05 0-.13.01-.13-.05-.02-.14.12-.19.18-.28.03-.03.05-.1.12-.06z"/><path fill="#880D0E" d="M34.77 33.42v-3.91c0-.11.04-.24-.06-.33.02-.05 0-.13.08-.08.03.01.02.08.02.12v4.12c0 .03-.02.06-.04.08z"/><path fill="#8A030B" d="M33.44 31.6c0 .05 0 .12-.07.14-.08.03-.1-.04-.13-.1 0-.04 0-.1.05-.12.08-.03.12 0 .15.07z"/><path fill="#8C070E" d="M32.8 32.36c.08-.03.17-.08.16.05-.02.15-.14.08-.22.08-.01-.07.04-.1.07-.13z"/><path fill="#8C0104" d="M33.61 31c.09.07.13.16.04.23-.06.05-.07-.05-.1-.1 0-.05 0-.1.06-.12z"/><path fill="#8A0004" d="M34.01 30.32c.07.01.12.04.12.12 0 .09-.04.13-.12.14-.06-.07-.04-.14 0-.21-.02-.02-.01-.04 0-.05z"/><path fill="#8A0001" d="M33.13 31.79c.11.01.13.08.1.17 0 .02-.04.03-.07.04l-.05-.17c0-.02 0-.03.02-.04z"/><path fill="#901317" d="M32.48 33.06l-.12.06c0-.14.1-.22.19-.31.07.08.04.17 0 .25h-.07z"/><path fill="#8A070D" d="M33.7 30.83c.08.02.2.03.13.15-.07.15-.1-.05-.15-.03l.02-.12z"/><path fill="#992529" d="M34.33 29.82c.01.09-.02.17-.06.25-.02.02-.03.06-.07.06h-.06c.01-.14.11-.22.2-.31z"/><path fill="#880002" d="M32.55 33.06v-.25l.05-.07c.15.13.02.22-.05.32z"/><path fill="#8C0E19" d="M33.44 31.6l-.15-.08.15-.24.02.02c.05.1.05.2-.02.3z"/><path fill="#992529" d="M34.71 29.18l-.06.25h-.08c.02-.1.05-.2.14-.25z"/><path fill="#941E24" d="M34 30.37v.2h-.14l.14-.2z"/><path fill="#880006" d="M33.44 31.6l.02-.3c.18.1.12.2-.02.3z"/><path fill="#870004" d="M34.2 30.13l.07-.06c.03.07.05.16-.02.18-.09.03-.02-.08-.05-.12z"/></g><defs><clipPath id="clip0"><path fill="#fff" d="M0 0h60v60H0z"/></clipPath></defs></svg>