<svg width="60" height="60" viewBox="0 0 60 60" fill="none" xmlns="http://www.w3.org/2000/svg">
<g clip-path="url(#clip0)">
<path d="M60 0H0V60H60V0Z" fill="#ACD1FC"/>
<circle cx="30" cy="30" r="22" fill="white"/>
<path d="M21.9774 27.3873L25.0407 36.8151H34.9539L38.0173 27.3873L29.9973 21.5608L21.9774 27.3873Z" fill="#9BC9FF"/>
<path d="M37.5653 9.08911C32.6761 7.3205 27.3219 7.3205 22.4327 9.08911L29.999 14.5855L37.5653 9.08911Z" fill="#9BC9FF"/>
<path d="M12.4594 16.3417C9.41176 20.2394 7.75993 25.0467 7.76779 29.9947C7.76779 30.2398 7.77528 30.485 7.79062 30.7227L15.3416 25.2338L12.4594 16.3417Z" fill="#9BC9FF"/>
<path d="M11.5861 42.4587C14.5031 46.7632 18.8343 49.9116 23.8287 51.3586L20.9461 42.4587H11.5861Z" fill="#9BC9FF"/>
<path d="M36.1686 51.3586C41.163 49.9116 45.4941 46.7632 48.4111 42.4587H39.0511L36.1686 51.3586Z" fill="#9BC9FF"/>
<path d="M44.6568 25.2338L52.2078 30.7227C52.2231 30.485 52.2306 30.2398 52.2306 29.9947C52.2384 25.0467 50.5866 20.2394 47.539 16.3417L44.6568 25.2338Z" fill="#9BC9FF"/>
<path d="M53 29.9976C53 29.3514 52.9745 28.7097 52.9233 28.0722C52.8529 27.2732 52.7409 26.4788 52.5875 25.6915C51.917 22.1094 50.3942 18.7414 48.1477 15.8718C45.4891 12.4428 41.9107 9.84046 37.8291 8.36839C34.0493 7.00675 29.9802 6.65371 26.0225 7.34333C24.7116 7.57058 23.4234 7.91351 22.1731 8.36764C13.0704 11.6689 7.00599 20.3138 7 29.9976C7 30.2604 7.00861 30.5218 7.02358 30.749V30.7812C7.15535 35.1098 8.51649 39.3119 10.9483 42.8955C13.9681 47.3477 18.4483 50.6048 23.6144 52.1038L23.6664 52.1169C27.8048 53.2944 32.1892 53.2944 36.3272 52.1169C36.3456 52.1136 36.3639 52.1087 36.3826 52.1031C37.6637 51.7332 38.9099 51.2521 40.107 50.6647C43.7117 48.895 46.7937 46.217 49.0502 42.8947C51.4835 39.3119 52.845 35.1094 52.9745 30.7805C52.9914 30.5218 53 30.2604 53 29.9976V29.9976ZM46.4137 43.8165C46.158 44.1201 45.8952 44.4159 45.6253 44.7041C45.4883 44.8498 45.3494 44.9924 45.209 45.1343C44.9309 45.4136 44.6449 45.6824 44.3522 45.9456C44.2185 46.0665 44.0875 46.1901 43.9509 46.3069C43.5447 46.6539 43.1284 46.9882 42.699 47.3035C42.6728 47.3226 42.6485 47.3439 42.6223 47.3634C42.1671 47.6951 41.6954 48.0043 41.2155 48.2986C41.0624 48.3922 40.9089 48.4764 40.7554 48.5663C40.4166 48.7632 40.0734 48.9496 39.7237 49.1312C39.5425 49.2233 39.3606 49.3124 39.1772 49.3989C38.829 49.5636 38.4764 49.7179 38.1189 49.8643C37.9441 49.9358 37.7711 50.0099 37.5944 50.0777C37.518 50.105 37.4413 50.126 37.3717 50.154L39.6133 43.2321H46.8895C46.8461 43.2882 46.8068 43.3477 46.7615 43.4039C46.6488 43.5443 46.5301 43.6791 46.4137 43.8165V43.8165ZM47.992 41.6978H39.4478L35.8069 36.6863L38.6287 27.9992L44.5221 26.0823L51.4184 31.0953C51.2391 34.8713 50.0565 38.5313 47.992 41.6978V41.6978ZM21.8909 49.8691C21.5307 49.7209 21.1732 49.5621 20.8213 49.3982C20.6405 49.3124 20.4612 49.2248 20.2849 49.1346C19.9323 48.9541 19.5852 48.7639 19.2438 48.564C19.0903 48.4764 18.9369 48.3929 18.7897 48.3016C18.3083 48.0058 17.8359 47.6958 17.3799 47.3641C17.3567 47.3473 17.3361 47.3286 17.3133 47.3117C16.8802 46.9939 16.4605 46.6569 16.0521 46.3076C15.9155 46.1901 15.7845 46.0665 15.6505 45.9463C15.3581 45.6832 15.0721 45.4143 14.7947 45.1358C14.6524 44.9932 14.5128 44.849 14.3754 44.7026C14.107 44.4174 13.8472 44.1231 13.5942 43.8232C13.4751 43.6821 13.3535 43.5443 13.2378 43.4002C13.194 43.3455 13.1554 43.2863 13.112 43.2313H20.3905L22.6324 50.1533C22.5557 50.1267 22.479 50.105 22.4078 50.0769C22.2323 50.0091 22.0627 49.9388 21.8909 49.8691ZM20.5522 41.6978H12.008C9.94538 38.5313 8.76318 34.8725 8.58237 31.0976L15.4779 26.0872L21.3713 28.004L24.1931 36.6912L20.5522 41.6978ZM8.63291 27.9879C8.66885 27.596 8.71976 27.2081 8.77629 26.8217C8.80024 26.663 8.81634 26.5028 8.84292 26.3448C8.93501 25.8042 9.04544 25.2714 9.17796 24.739C9.20117 24.6473 9.23262 24.5575 9.2547 24.4654C9.36963 24.0292 9.49691 23.5968 9.63804 23.1689C9.69793 22.9903 9.76681 22.8147 9.8312 22.6376C9.95474 22.3003 10.0835 21.9645 10.2246 21.6332C10.3059 21.4407 10.3924 21.2498 10.4807 21.0603C10.6248 20.7466 10.7768 20.4363 10.9367 20.1296C11.0344 19.9432 11.1317 19.756 11.235 19.5722C11.4113 19.2569 11.6 18.9473 11.7939 18.6388C11.8961 18.4764 11.9934 18.3116 12.1005 18.1514C12.1297 18.1076 12.1634 18.0657 12.1933 18.0219L14.4368 24.9431L8.56553 29.2144C8.57227 29.0107 8.57713 28.8067 8.59023 28.6012C8.60296 28.3956 8.61382 28.1927 8.63291 27.9879ZM25.6003 36.0548L22.8806 27.6836L30 22.5111L37.1194 27.6836L34.3997 36.0548H25.6003ZM24.3267 9.29573C24.4798 9.25343 24.6333 9.21898 24.7868 9.18042C25.2016 9.07784 25.6186 8.985 26.0379 8.90675C26.2026 8.87605 26.3673 8.84722 26.5324 8.82027C26.9685 8.74951 27.4065 8.69447 27.8449 8.65067C27.9823 8.63682 28.1185 8.61847 28.2559 8.60762C29.413 8.51514 30.5761 8.51514 31.7336 8.60762C31.8691 8.61847 32.0039 8.63682 32.1398 8.64992C32.5815 8.69373 33.0214 8.74951 33.4594 8.82102C33.6226 8.84685 33.7858 8.87605 33.9483 8.906C34.3709 8.98275 34.7917 9.07784 35.2072 9.18192C35.3607 9.22048 35.5138 9.25418 35.6673 9.29573C35.7399 9.31558 35.8106 9.34216 35.8825 9.36312L30 13.6382L24.1152 9.36387C24.1871 9.34291 24.2567 9.31632 24.3267 9.29573V9.29573ZM47.8003 18.0211C47.8302 18.0645 47.8639 18.1068 47.8931 18.1506C48.0013 18.3124 48.0994 18.4786 48.1997 18.643C48.3914 18.9496 48.5831 19.2562 48.7549 19.5699C48.8593 19.7552 48.9574 19.9439 49.0555 20.1326C49.2138 20.4392 49.3651 20.7474 49.5092 21.0574C49.5975 21.249 49.6848 21.4407 49.7679 21.6347C49.9071 21.9645 50.0352 22.2977 50.1579 22.6313C50.2231 22.8102 50.2931 22.9873 50.3534 23.1681C50.496 23.5931 50.6218 24.0221 50.7367 24.4564C50.7614 24.5507 50.7936 24.6432 50.8134 24.7383C50.9459 25.2665 51.0564 25.8019 51.1485 26.3418C51.1754 26.5005 51.1915 26.6615 51.2151 26.821C51.272 27.2043 51.3233 27.5945 51.3585 27.9857C51.3776 28.1901 51.3884 28.3956 51.4015 28.5989C51.4146 28.8022 51.4191 29.0051 51.4259 29.2122L45.5632 24.9431L47.8003 18.0211ZM46.6795 16.5075L44.0508 24.6249L38.1552 26.5417L30.7667 21.1745V14.977L37.6753 9.95727C41.2043 11.305 44.3121 13.5659 46.6817 16.5082L46.6795 16.5075ZM22.3247 9.95802L29.2333 14.977V21.173L21.8448 26.5402L15.9492 24.6234L13.3183 16.5082C15.6875 13.5659 18.7957 11.3054 22.3247 9.95802ZM24.4263 50.7238L21.7965 42.5971L25.4337 37.5882H34.5663L38.2035 42.5971L35.5714 50.7246C31.9197 51.6946 28.0781 51.6942 24.4263 50.7238V50.7238Z" fill="#1E81CE"/>
</g>
<defs>
<clipPath id="clip0">
<rect width="60" height="59.9995" fill="white"/>
</clipPath>
</defs>
</svg>
