<svg xmlns="http://www.w3.org/2000/svg" width="60" height="60" fill="none"><g clip-path="url(#clip0)"><path fill="#ECEBE8" d="M60 0H0v60h60V0z"/><path fill="#D5271E" d="M29.27 32.35c-.05.02-.1.03-.13.06-.06.07-.1.16-.16.24a18.9 18.9 0 0 1-3.23 3.9c-.36.32-.76.46-1.24.46H21.7c-.08 0-.2.03-.23.08-.11.19-.2.4-.3.62l.17.02h3.45c.3-.01.62-.08.85-.3.4-.37.8-.75 1.16-1.16.98-1.12 1.74-2.4 2.5-3.68.02-.05 0-.13 0-.21l-.03-.03zM31.5 28.46h-.02l.12.18.03-.1c.53-.81 1.04-1.64 1.59-2.44.49-.72 1.04-1.4 1.76-1.91.36-.25.75-.4 1.2-.38l3.81.03h.1c.04-.03.1-.07.1-.1v-.45l-.18-.01a3859.43 3859.43 0 0 0-4.51.02c-.57.1-1 .45-1.37.86-.68.72-1.18 1.56-1.67 2.4l-.5.86-.04-.03c.31-.65.62-1.31.95-1.96.39-.75.82-1.48 1.4-2.12.49-.55 1.08-.83 1.85-.8 1.28.05 2.56.03 3.85.04l.2-.01v-.57H35.42c-.4 0-.78.1-1.06.4-.33.34-.67.7-.9 1.11-.47.86-.86 1.75-1.28 2.64-.13.26-.23.53-.34.8-.02-.03-.02-.06-.01-.08.35-1.18.74-2.34 1.26-3.46.26-.56.57-1.1 1-1.55a1.5 1.5 0 0 1 1.22-.48l.57.03h4.12l.2-.01v-.25c0-.34.06-.32-.31-.32-1.66 0-3.32.02-4.98 0a1.64 1.64 0 0 0-1.44.75 6.34 6.34 0 0 0-.92 1.88c-.42 1.38-.8 2.78-1.22 4.16-.08.28-.04.5.11.72.03.04.04.1.06.15z"/><path fill="#D5271E" d="M25.24 38.91c.34 0 .68-.1.92-.37.42-.47.85-.92 1.22-1.42a20.46 20.46 0 0 0 2.01-3.72l.25-.57a1.27 1.27 0 0 1-.18-.23c.01.1-.03.22-.1.35-.24.4-.43.84-.66 1.26a14.15 14.15 0 0 1-2.77 3.7c-.2.19-.4.27-.68.27h-4.1c-.06 0-.17 0-.2.04-.12.21-.21.44-.32.67l.1.02h4.5z"/><path fill="#D5271E" d="M29.93 33.25a1.84 1.84 0 0 1-.12-.26l-.02-.02a2.14 2.14 0 0 1-.1-.09l.14.2c-.05.06-.13.1-.15.17-.32.76-.6 1.54-.95 2.3a11.15 11.15 0 0 1-2.26 3.33c-.34.34-.72.48-1.19.48h-4.67c-.07 0-.19.01-.21.06-.12.21-.21.44-.32.68H25.43c.49 0 .91-.17 1.24-.52a9.46 9.46 0 0 0 1.4-1.85 24.2 24.2 0 0 0 1.8-4.36c.02-.07-.02-.15-.02-.23l.08.1z"/><path fill="#01458E" d="M40.39 39.22c-.55-.25-1.1-.49-1.64-.76a1.26 1.26 0 0 1-.44-.38l-3.79-5.29-4.36-6.09-4.45-6.21c-.27-.37-.62-.6-1.09-.6h-5.17c.3.16.61.29.91.42.32.13.59.31.8.6l6 8.38a631.09 631.09 0 0 1 2.69 3.85l.34.43 3.69 5.1c.2.29.48.49.83.55.25.05.5.1.76.1h5.12c-.07-.05-.13-.07-.2-.1z"/><path fill="#D5271E" fill-rule="evenodd" d="M29.83 33.08l.02.06c0 .08.04.16.02.23a24.2 24.2 0 0 1-1.8 4.36 9.46 9.46 0 0 1-1.4 1.85c-.33.35-.75.52-1.24.52H20.08c.1-.24.2-.47.32-.68.02-.05.14-.06.21-.06h4.67c.47 0 .85-.14 1.19-.48.97-.96 1.7-2.1 2.26-3.34.34-.75.63-1.53.95-2.3.02-.06.1-.1.15-.16z" clip-rule="evenodd"/><path fill="#D5271E" d="M29.14 32.41c-.06.07-.1.16-.16.24a18.9 18.9 0 0 1-3.23 3.9c-.36.32-.76.46-1.24.46H21.7c-.08 0-.2.03-.23.08-.11.19-.2.4-.3.62l.17.02h3.45c.3-.01.62-.08.85-.3.4-.37.8-.75 1.16-1.16.98-1.12 1.74-2.4 2.5-3.68.03-.06 0-.16 0-.25-.06.02-.12.04-.16.07z"/><path fill="#D5271E" d="M33.04 13.87V6.18l-.57-.07c-.44-.04-.87-.08-1.3-.1a20 20 0 0 0-8.72 1.58 20.08 20.08 0 0 0-10.14 9.34 20 20 0 0 0-2.12 12.18 20.26 20.26 0 0 0 13.88 16.6c1.7.55 3.46.86 5.25.96.13 0 .22 0 .26-.1v-.26a15.84 15.84 0 1 1 3.45-31.45v-.34-.65z"/><path fill="#01458E" d="M49.58 28.14a19.68 19.68 0 0 0-15.26-13.4c-.4-.08-.8-.14-1.21-.21v.33a15.94 15.94 0 0 1 13.2 16.09 15.88 15.88 0 0 1-8.24 13.47 15.6 15.6 0 0 1-8.43 1.9v8.55h.18c1.06-.15 2.13-.26 3.18-.45 3.26-.6 6.33-1.73 9.1-3.58a18.9 18.9 0 0 0 8.53-15.26c.1-2.54-.24-5.02-1.05-7.44z"/></g><defs><clipPath id="clip0"><path fill="#fff" d="M0 0h60v60H0z"/></clipPath></defs></svg>