<svg width="60" height="60" viewBox="0 0 60 60" fill="none" xmlns="http://www.w3.org/2000/svg">
<g clip-path="url(#clip0)">
<rect width="60" height="60" fill="#EA6E1A"/>
<path d="M16.2547 36.7974V21.1716H14.4753V38.5796H22.6671L23.5058 36.7974H16.2547Z" fill="white"/>
<path d="M33.9163 21.1715L34.7568 22.9518H43.0056L37.8356 31.437C37.7933 31.4158 37.7537 31.391 37.7096 31.3698C37.3427 31.1933 36.9473 31.0379 36.5362 30.9073L32.3585 21.3104L32.2987 21.1724H30.6774L23.1009 38.5804H24.9217L26.896 34.0468C27.0864 33.6826 27.5453 33.3203 28.258 32.9736C29.4038 32.42 30.945 32.1156 32.5976 32.1156C33.2541 32.1156 35.2993 32.1837 36.9077 32.9589L34.1544 37.4796L34.0937 37.579L34.5085 38.5795H44.0383L44.8769 36.7973H36.4452L45.2411 22.8442L45.2761 22.7872V21.1706H33.9163V21.1715ZM34.5204 30.4603C33.8951 30.3748 33.2505 30.3316 32.5976 30.3316C31.0039 30.3316 29.4636 30.59 28.1918 31.0673L31.4885 23.4953L34.5204 30.4603Z" fill="white"/>
<path d="M29.875 52.75C17.2618 52.75 7 42.4882 7 29.875C7 17.2618 17.2618 7 29.875 7C42.4891 7 52.75 17.2618 52.75 29.875C52.75 42.4882 42.4882 52.75 29.875 52.75ZM29.875 8.8392C18.2761 8.8392 8.8392 18.2761 8.8392 29.875C8.8392 41.4739 18.2761 50.9108 29.875 50.9108C41.4739 50.9108 50.9108 41.4739 50.9108 29.875C50.9108 18.2761 41.4739 8.8392 29.875 8.8392Z" fill="white"/>
</g>
<defs>
<clipPath id="clip0">
<rect width="60" height="59.9995" fill="white"/>
</clipPath>
</defs>
</svg>
