<svg width="60" height="60" viewBox="0 0 60 60" fill="none" xmlns="http://www.w3.org/2000/svg">
<g clip-path="url(#clip0)">
<path d="M60 0H0V60H60V0Z" fill="#5115AF"/>
<path d="M30 47.5488C31.904 47.5488 33.742 47.6348 35.492 47.7878C43.008 48.2358 49.174 49.5848 52.166 51.3678V8.63184C49.177 10.4128 43.022 11.7598 35.52 12.2108C33.762 12.3658 31.915 12.4528 29.999 12.4528C28.083 12.4528 26.236 12.3658 24.478 12.2108C16.976 11.7598 10.821 10.4128 7.83203 8.63184V51.3678C10.825 49.5848 16.991 48.2358 24.507 47.7878C26.258 47.6348 28.096 47.5488 30 47.5488Z" fill="white"/>
<path d="M39.1321 19.4717C39.1321 19.4717 39.1311 19.4727 39.1291 19.4727L39.1321 19.4717C38.0361 19.7197 37.0481 19.7287 36.0681 19.4717C35.2031 21.0837 32.0171 26.3047 29.9871 29.6457C27.9311 26.2327 25.4951 22.2907 23.9091 19.4717C22.6501 19.7407 22.1241 19.7577 20.8691 19.4717C23.3601 23.2327 27.3531 30.4007 28.7111 32.7517L28.5281 42.5607C28.5281 42.5607 29.4031 42.4137 29.9901 42.4137C30.6411 42.4137 31.4471 42.5607 31.4471 42.5607L31.2651 32.7517C33.7981 28.2967 37.9821 21.0287 39.1321 19.4717Z" fill="#5115AF"/>
</g>
<defs>
<clipPath id="clip0">
<rect width="60" height="59.9995" fill="white"/>
</clipPath>
</defs>
</svg>
