<svg width="60" height="60" viewBox="0 0 60 60" fill="none" xmlns="http://www.w3.org/2000/svg">
<g clip-path="url(#clip0)">
<rect width="60" height="59.9995" fill="white"/>
<rect width="60" height="60" fill="#ECEBE8"/>
<path d="M36.1161 28.8689C36.1207 28.713 36.0549 28.4579 35.7741 28.4579C35.5123 28.4579 35.4048 28.6948 35.3874 28.8689H36.1161ZM35.3874 29.1634C35.395 29.4647 35.6334 29.5911 35.899 29.5911C36.0949 29.5911 36.2357 29.5661 36.3613 29.5162L36.4196 29.8091C36.2773 29.8667 36.0806 29.9098 35.8415 29.9098C35.2989 29.9098 34.9849 29.5805 34.9849 29.068C34.9849 28.607 35.2626 28.1725 35.7953 28.1725C36.3371 28.1725 36.5157 28.6191 36.5157 28.984C36.5157 29.0642 36.5058 29.1286 36.5006 29.1634H35.3874V29.1634Z" fill="#828282"/>
<path d="M51.8921 42.9799C51.8921 44.5674 50.605 45.855 49.0152 45.855H10.8762C9.28714 45.855 8 44.5674 8 42.9799V16.8774C8 15.2899 9.28714 14 10.8762 14H49.0152C50.605 14 51.8921 15.2899 51.8921 16.8774V42.9799Z" fill="#E5E6D8"/>
<path d="M51.8913 17.7691V42.9806C51.8913 44.5681 50.6041 45.8557 49.0143 45.8557H45.5244L29.4847 34.138L51.8913 17.7691Z" fill="#AEAEA4"/>
<path d="M14.9518 45.8549L51.893 18.8645V17.7691L13.449 45.8549H14.9518Z" fill="#AFAFA4"/>
<path d="M51.8948 16.8774V42.9799C51.8948 43.26 51.8517 43.5325 51.7775 43.7907C51.4294 44.9807 50.3269 45.855 49.0186 45.855H46.8976V15.4557L47.0338 15.3558L48.89 14H49.0186C50.6076 14 51.8948 15.2892 51.8948 16.8774Z" fill="#AC3024"/>
<path d="M49.0152 14H48.8865L47.0303 15.3558L46.8941 15.4557L30.0978 27.7292L12.9995 15.24L11.3075 14.0008H10.8762C9.28714 14.0008 8 15.2907 8 16.8782V18.4376V42.9807C8 43.2608 8.0401 43.5333 8.11652 43.7914C8.46839 44.9814 9.57089 45.8558 10.8754 45.8558H12.9995V22.0932L25.407 31.1584L29.4849 34.138L30.2385 34.6876L34.9278 31.2591L46.8934 22.5194L47.0296 22.4157L51.8914 18.8645V16.8782C51.8921 15.2892 50.605 14 49.0152 14Z" fill="#E34D41"/>
</g>
<defs>
<clipPath id="clip0">
<rect width="60" height="59.9995" fill="white"/>
</clipPath>
</defs>
</svg>
