<svg width="60" height="60" viewBox="0 0 60 60" fill="none" xmlns="http://www.w3.org/2000/svg">
<g clip-path="url(#clip0)">
<path d="M0 0H60V60H0V0Z" fill="#35A85B"/>
<path d="M-5.85938 60L60 -5.85938L63.75 64.4531L-5.85938 60Z" fill="#FADB2A"/>
<path d="M3.75 60L60 3.75V60H3.75Z" fill="white"/>
<path d="M30 33.75L3.75 60H56.25L30 33.75Z" fill="#5881CA"/>
<path d="M33.75 30L60 3.75V56.25L33.75 30Z" fill="#C1C0BE"/>
<path d="M11.6799 6.90948C15.1487 5.19813 19.3715 5.97601 22.2371 8.62082L19.5224 11.2656C16.8077 8.46525 11.5291 9.70986 10.1718 13.5993C8.5128 17.3331 11.3783 22.156 15.2995 22.3116C18.0142 22.6228 20.5781 20.7558 21.1813 18.111H15.6012V14.5328C18.7683 14.6883 21.9354 14.3772 24.9517 14.6883C25.1026 17.022 24.9517 19.5112 23.7452 21.5337C21.9354 25.112 17.4109 26.6678 13.6405 25.7343C8.96525 24.8008 5.34567 19.8224 6.09975 14.9995C6.40138 11.4212 8.66362 8.30967 11.6799 6.90948Z" fill="#F2F2F2"/>
<path d="M48.9844 7.73438C47.8125 7.96875 46.875 9.02344 46.7578 10.0781C46.6406 11.25 47.2266 12.3047 48.2813 12.7734C49.2188 13.3594 50.7422 13.2422 51.5625 12.4219C52.3828 11.7188 52.7344 10.3125 52.2656 9.375C51.7969 8.08594 50.2734 7.38281 48.9844 7.73438ZM49.1016 2.46094H50.0391C52.3828 2.57812 54.7266 3.86719 56.25 5.74219C57.1875 6.91406 57.6563 8.4375 57.7735 9.96094V10.5469C57.7735 13.4766 55.8985 15.8203 54.2578 18.2812C52.3828 20.7422 50.7422 23.5547 50.1563 26.8359C50.0391 27.4219 50.2734 28.125 49.5703 28.3594L49.1016 28.0078C48.9844 26.25 48.5156 24.4922 47.8125 22.8516C46.875 20.9766 45.7031 19.1016 44.4141 17.4609C43.7109 16.4062 43.0078 15.4688 42.4219 14.2969C41.5445 12.8065 41.1838 11.0682 41.3957 9.35176C41.6076 7.63536 42.3803 6.03694 43.5938 4.80469C45.1172 3.51562 47.1094 2.57812 49.1016 2.46094Z" fill="#EA4736"/>
<path d="M49.5703 13.3594C51.1883 13.3594 52.5 12.0477 52.5 10.4297C52.5 8.81167 51.1883 7.5 49.5703 7.5C47.9523 7.5 46.6406 8.81167 46.6406 10.4297C46.6406 12.0477 47.9523 13.3594 49.5703 13.3594Z" fill="#7D2426"/>
</g>
<defs>
<clipPath id="clip0">
<rect width="60" height="59.9995" fill="white"/>
</clipPath>
</defs>
</svg>
