<svg width="60" height="60" viewBox="0 0 60 60" fill="none" xmlns="http://www.w3.org/2000/svg">
<g clip-path="url(#clip0)">
<path d="M60 0H0V60.0013H60V0Z" fill="#ECEBE8"/>
<path d="M30.3125 6C18.542 6 9 15.1901 9 26.5268C9 32.8852 12.0021 38.5679 16.7149 42.333V50L23.9704 46.1294C25.9738 46.7301 28.1039 47.0536 30.3125 47.0536C42.0832 47.0536 51.625 37.8635 51.625 26.5268C51.625 15.1901 42.0832 6 30.3125 6ZM32.5305 33.6964L26.9372 27.6071L16.1363 33.5L27.7087 20.9286L33.302 26.625L44.1029 20.7321L32.5305 33.6964Z" fill="url(#paint0_linear)"/>
</g>
<defs>
<linearGradient id="paint0_linear" x1="30.3096" y1="5.79196" x2="30.3096" y2="51.575" gradientUnits="userSpaceOnUse">
<stop stop-color="#03C6FF"/>
<stop offset="1" stop-color="#0370FF"/>
</linearGradient>
<clipPath id="clip0">
<rect width="60" height="59.9995" fill="white"/>
</clipPath>
</defs>
</svg>
