<svg width="60" height="60" viewBox="0 0 60 60" fill="none" xmlns="http://www.w3.org/2000/svg">
<g clip-path="url(#clip0)">
<rect width="60" height="59.9995" fill="#6D6E71"/>
<path d="M60 0H0V60H60V0Z" fill="#DC4E01"/>
<path d="M41.7908 21.2098C43.8408 20.6548 45.3538 18.8028 45.3538 16.5778C45.3538 13.9138 43.1967 11.7578 40.5357 11.7578C37.8717 11.7578 35.7148 13.9148 35.7148 16.5778C35.7148 16.7998 35.7527 17.0128 35.7797 17.2268C34.4837 16.8088 33.1037 16.5778 31.6707 16.5778C25.7387 16.5778 20.7017 20.4488 18.9317 25.7938C18.0707 24.9978 16.9297 24.4988 15.6637 24.4988C13.0007 24.4988 10.8438 26.6568 10.8438 29.3188C10.8438 31.9808 13.0007 34.1388 15.6637 34.1388C16.7847 34.1388 17.8027 33.7408 18.6217 33.0998C20.0257 39.0098 25.3357 43.4248 31.6707 43.4248C33.0047 43.4248 34.2948 43.2228 35.5128 42.8578C35.4898 43.0458 35.4558 43.2308 35.4558 43.4248C35.4558 46.0878 37.6107 48.2428 40.2737 48.2428C42.9377 48.2428 45.0947 46.0878 45.0947 43.4248C45.0947 41.2758 43.6768 39.4758 41.7348 38.8548C43.8188 36.4888 45.0947 33.3948 45.0947 30.0008C45.0947 26.6378 43.8408 23.5678 41.7908 21.2098ZM21.6978 30.0008C21.6978 24.5018 26.1708 20.0298 31.6698 20.0298C37.1678 20.0298 41.6438 24.5028 41.6438 30.0008C41.6438 35.5008 37.1678 39.9738 31.6698 39.9738C26.1708 39.9738 21.6978 35.5008 21.6978 30.0008Z" fill="white"/>
</g>
<defs>
<clipPath id="clip0">
<rect width="60" height="59.9995" fill="white"/>
</clipPath>
</defs>
</svg>
