<svg width="60" height="60" viewBox="0 0 60 60" fill="none" xmlns="http://www.w3.org/2000/svg">
<g clip-path="url(#clip0)">
<path d="M60 0H0V60H60V0Z" fill="#324358"/>
<path fill-rule="evenodd" clip-rule="evenodd" d="M26.3607 40.1251C22.9667 40.1251 19.5737 40.1281 16.1797 40.1231C14.8047 40.1221 13.4977 39.8071 12.2997 39.1321C11.0337 38.4171 10.0287 37.4281 9.29269 36.1591C8.34569 34.5291 8.05969 32.7691 8.33769 30.9371C8.63469 28.9701 9.59769 27.3431 11.1317 26.0671C11.9137 25.4181 12.7987 24.9491 13.7607 24.6361C14.7327 24.3221 15.7397 24.2331 16.7557 24.3111C16.9997 24.3291 17.1117 24.2291 17.1757 24.0321C17.3937 23.3601 17.7037 22.7331 18.0687 22.1281C18.7207 21.0481 19.5577 20.1361 20.5567 19.3711C21.2617 18.8311 22.0307 18.3951 22.8547 18.0711C24.2667 17.5171 25.7337 17.3001 27.2517 17.4041C27.9607 17.4531 28.6567 17.5681 29.3347 17.7651C30.1947 18.0141 31.0037 18.3821 31.7687 18.8531C32.7507 19.4581 33.5997 20.2131 34.3157 21.1161C34.9047 21.8581 35.3787 22.6691 35.7347 23.5511C36.2227 24.7571 36.4697 26.0021 36.4547 27.3011C36.4527 27.5561 36.5207 27.6301 36.7787 27.6291C37.4717 27.6271 38.1417 27.7551 38.7847 27.9981C39.8977 28.4171 40.8237 29.1001 41.5557 30.0421C42.0967 30.7391 42.4787 31.5211 42.6777 32.3751C42.8677 33.1911 42.9157 34.0191 42.7717 34.8641C42.5507 36.1581 41.9967 37.2741 41.0997 38.2181C40.5237 38.8241 39.8357 39.2811 39.0647 39.6161C38.1107 40.0321 37.1087 40.1291 36.0837 40.1261C32.8427 40.1221 29.6007 40.1261 26.3607 40.1251C26.3607 40.1261 26.3607 40.1261 26.3607 40.1251ZM26.3137 37.7301C29.6687 37.7301 33.0247 37.7281 36.3787 37.7331C37.2517 37.7341 38.0547 37.5171 38.7757 37.0231C39.5007 36.5281 39.9957 35.8511 40.2627 35.0241C40.4847 34.3351 40.5077 33.6271 40.3167 32.9131C40.1527 32.3011 39.8617 31.7621 39.4437 31.2961C38.9877 30.7871 38.4287 30.4221 37.7687 30.2171C37.3167 30.0771 36.8607 29.9801 36.3857 30.0021C36.2247 30.0091 36.0637 30.0621 36.0207 30.2231C35.9397 30.5331 35.8157 30.8261 35.6967 31.1181C35.5887 31.3821 35.4897 31.6531 35.3197 31.8881C35.2837 31.9371 35.2627 32.0051 35.1627 31.9501C34.5547 31.6181 33.9387 31.2981 33.3317 30.9661C33.2607 30.9261 33.1417 30.8731 33.2127 30.7461C33.3987 30.4151 33.5367 30.0641 33.6637 29.7101C33.8227 29.2671 33.9387 28.8051 33.9897 28.3401C34.0867 27.4471 34.0807 26.5561 33.8797 25.6671C33.7387 25.0361 33.5197 24.4381 33.2317 23.8671C32.9697 23.3511 32.6417 22.8721 32.2597 22.4301C31.6017 21.6651 30.8277 21.0541 29.9287 20.5971C29.3937 20.3251 28.8347 20.1261 28.2507 19.9841C27.6487 19.8371 27.0377 19.7631 26.4247 19.7771C25.5267 19.7971 24.6517 19.9621 23.8097 20.3001C23.0967 20.5871 22.4447 20.9671 21.8437 21.4461C21.0837 22.0501 20.4747 22.7801 19.9947 23.6181C19.7917 23.9721 19.6137 24.3411 19.4847 24.7301C19.4437 24.8521 19.4097 24.9771 19.5807 25.0551C20.0257 25.2631 20.4397 25.5261 20.8437 25.8051C21.0707 25.9611 21.0717 26.0001 20.9007 26.2181C20.5257 26.6901 20.1527 27.1631 19.7887 27.6451C19.6147 27.8741 19.5887 27.8831 19.3497 27.7101C18.7107 27.2461 17.9987 26.9141 17.2247 26.7891C16.4317 26.6601 15.6277 26.6541 14.8287 26.8581C14.0737 27.0501 13.3947 27.3811 12.7867 27.8561C12.1197 28.3751 11.5827 29.0141 11.2097 29.7751C10.9797 30.2451 10.7997 30.7381 10.7307 31.2611C10.6737 31.6961 10.6527 32.1321 10.6707 32.5741C10.6987 33.3031 10.8917 33.9861 11.2117 34.6251C11.5747 35.3521 12.0757 35.9771 12.7227 36.4941C13.7257 37.2971 14.8677 37.7161 16.1327 37.7251C19.5257 37.7491 22.9197 37.7321 26.3137 37.7301Z" fill="white"/>
<path fill-rule="evenodd" clip-rule="evenodd" d="M51.7647 33.3811C51.7747 34.6731 51.6617 35.6181 51.4517 36.5451C51.0847 38.1561 50.4407 39.6551 49.4827 41.0141C49.1177 41.5331 48.7207 42.0241 48.2937 42.4921C48.1407 42.6591 48.0197 42.6641 47.8617 42.5091C47.3997 42.0511 46.9317 41.5981 46.4637 41.1481C46.3627 41.0511 46.3767 40.9631 46.4627 40.8771C47.0657 40.2761 47.5567 39.5921 47.9807 38.8611C48.3177 38.2791 48.5847 37.6631 48.7997 37.0221C49.1077 36.1171 49.2747 35.1881 49.3347 34.2371C49.3867 33.4381 49.3297 32.6391 49.1787 31.8541C48.9917 30.8871 48.6897 29.9541 48.2337 29.0711C47.7627 28.1591 47.1957 27.3221 46.4797 26.5861C46.4077 26.5111 46.3817 26.4271 46.4797 26.3321C46.9747 25.8581 47.4677 25.3811 47.9537 24.8971C48.0797 24.7721 48.1677 24.8101 48.2637 24.9131C48.6827 25.3691 49.0767 25.8431 49.4337 26.3481C49.8717 26.9651 50.2507 27.6161 50.5677 28.3011C50.8337 28.8761 51.0467 29.4741 51.2337 30.0831C51.5937 31.2701 51.7307 32.4851 51.7647 33.3811Z" fill="white"/>
<path fill-rule="evenodd" clip-rule="evenodd" d="M47.2137 33.7611C47.1857 34.9491 46.9387 36.1481 46.4007 37.2861C46.0167 38.0991 45.5247 38.8341 44.9177 39.4941C44.8307 39.5891 44.7727 39.6011 44.6807 39.5111C44.1827 39.0301 43.6867 38.5491 43.1817 38.0751C43.0727 37.9741 43.0637 37.9071 43.1627 37.8011C43.6617 37.2751 44.0567 36.6741 44.3217 36.0031C44.7177 35.0011 44.9127 33.9661 44.7367 32.8821C44.6607 32.4231 44.5707 31.9751 44.4077 31.5361C44.1217 30.7691 43.7117 30.0821 43.1467 29.4921C42.9887 29.3251 42.9897 29.2321 43.1587 29.0731C43.6157 28.6411 44.0557 28.1931 44.4897 27.7401C44.6317 27.5941 44.7327 27.5941 44.8597 27.7381C45.3947 28.3451 45.8797 28.9881 46.2527 29.7141C46.8977 30.9661 47.2007 32.2951 47.2137 33.7611Z" fill="white"/>
</g>
<defs>
<clipPath id="clip0">
<rect width="60" height="59.9995" fill="white"/>
</clipPath>
</defs>
</svg>
