<svg width="60" height="60" viewBox="0 0 60 60" fill="none" xmlns="http://www.w3.org/2000/svg">
<path d="M59.9989 0H0V60H59.9989V0Z" fill="#711798"/>
<path fill-rule="evenodd" clip-rule="evenodd" d="M30.0231 50.0888C19.1093 50.163 9.9824 41.1607 10 30.0699C10.0177 18.9847 18.989 9.98637 30.0459 10.0005C41.1539 10.0148 50.1262 19.0277 50.07 30.1977C50.0136 41.3626 40.8193 50.1753 30.0231 50.0888Z" fill="#040707"/>
<path fill-rule="evenodd" clip-rule="evenodd" d="M30.0263 49.79C19.1303 49.7851 10.3115 40.9395 10.3181 30.0212C10.3244 19.1292 19.1799 10.3057 30.0942 10.3165C40.9345 10.3273 49.7747 19.2135 49.7644 30.0893C49.7538 40.9487 40.8913 49.7949 30.0263 49.79Z" fill="#FEFEFE"/>
<path fill-rule="evenodd" clip-rule="evenodd" d="M30.0348 12.4563C39.7341 12.4608 47.6475 20.387 47.6202 30.0702C47.5929 39.8029 39.7294 47.6455 30.0047 47.6389C20.3183 47.6323 12.4513 39.7561 12.4517 30.0662C12.4522 20.3496 20.3383 12.4516 30.0348 12.4563Z" fill="#040707"/>
<path fill-rule="evenodd" clip-rule="evenodd" d="M25.5541 13.9278C26.6356 13.5333 27.7683 13.3634 28.9029 13.3032C34.2206 13.021 38.7468 14.8002 42.3976 18.6825C44.2325 20.6332 45.5116 22.9238 46.1689 25.5392C46.0345 25.7542 45.8061 25.808 45.5864 25.8673C42.6822 26.6505 39.7864 27.4672 36.8839 28.2563C36.6479 28.3205 36.4125 28.4058 36.1596 28.3757C35.8971 28.3019 35.8463 28.0594 35.7608 27.8538C34.7482 25.4219 32.8773 24.206 30.2981 24.0105C29.8596 23.9771 29.4258 24.108 28.9903 24.1679C28.784 24.1964 28.5774 24.2768 28.3694 24.1724C28.204 24.0215 28.1492 23.8147 28.0942 23.6115C27.2816 20.6036 26.4288 17.6068 25.6279 14.5957C25.5705 14.3798 25.461 14.1631 25.5541 13.9278Z" fill="#47A942"/>
<path fill-rule="evenodd" clip-rule="evenodd" d="M34.4523 46.1119C29.0037 47.5085 24.0481 46.4635 19.6305 43.0124C16.9336 40.9056 15.1198 38.1551 14.1187 34.8772C14.0679 34.7111 14.0489 34.5356 14.0153 34.3642C14.1072 34.1243 14.3401 34.1158 14.5351 34.063C17.5878 33.2355 20.63 32.3676 23.6857 31.5512C23.8719 31.5016 24.0554 31.4302 24.253 31.492C24.4888 31.6001 24.5381 31.8332 24.6194 32.0445C25.5136 34.3678 27.639 35.88 30.1242 35.9653C30.4621 35.9771 30.7855 35.88 31.1182 35.8612C31.3234 35.8499 31.5349 35.7578 31.733 35.8951C32.0178 36.3526 32.0665 36.8887 32.2063 37.3909C32.9525 40.077 33.7045 42.7614 34.4231 45.4548C34.4802 45.6696 34.5968 45.8861 34.4523 46.1119Z" fill="#ED2375"/>
<path fill-rule="evenodd" clip-rule="evenodd" d="M34.4526 46.1119C33.5485 42.8164 32.6442 39.5207 31.7413 36.2247C31.7138 36.1237 31.6997 36.0191 31.6793 35.9162C31.7646 35.7366 31.9427 35.6946 32.1053 35.6325C34.6641 34.6561 35.9752 32.7641 36.1676 30.066C36.1963 29.6653 36.0877 29.2634 36.0419 28.862C36.0203 28.671 35.9627 28.4787 36.0953 28.3032C39.4537 27.3817 42.8119 26.4605 46.1704 25.5391C46.7241 27.3056 46.9055 29.1222 46.779 30.9569C46.4721 35.4111 44.7023 39.1994 41.4404 42.2583C39.4441 44.1301 37.1112 45.424 34.4526 46.1119Z" fill="#F47B20"/>
<path fill-rule="evenodd" clip-rule="evenodd" d="M24.2852 31.5566C20.9963 32.4558 17.7077 33.3547 14.4188 34.254C14.2839 34.2909 14.149 34.3276 14.0141 34.3645C13.6146 33.3551 13.5025 32.2854 13.4212 31.2215C12.8353 23.5554 17.6351 16.4298 24.9458 14.0817C25.1447 14.018 25.3512 13.9787 25.554 13.928C26.0487 15.6785 26.5474 17.4284 27.0374 19.1806C27.4994 20.8324 27.9525 22.4871 28.4093 24.1404C28.3266 24.3486 28.121 24.3819 27.9492 24.4609C25.6217 25.5328 24.3983 27.3592 24.2345 29.9048C24.2096 30.2918 24.3398 30.67 24.3501 31.0575C24.3548 31.2283 24.4368 31.4069 24.2852 31.5566Z" fill="#009CDB"/>
<path fill-rule="evenodd" clip-rule="evenodd" d="M24.2852 31.556C24.0531 30.3819 24.0187 29.2109 24.4185 28.0655C25.1028 26.1057 26.4581 24.8172 28.4093 24.1397C31.6865 23.2121 34.9956 24.9002 36.0938 28.3028C36.4127 29.7084 36.388 31.0947 35.7892 32.4262C34.9754 34.236 33.5762 35.3741 31.678 35.9156C28.411 36.6551 25.2633 34.8444 24.2852 31.556Z" fill="#FEFEFE"/>
<path fill-rule="evenodd" clip-rule="evenodd" d="M39.8483 37.7314C39.9975 37.5615 40.1432 37.3977 40.2865 37.2315C42.2131 35.0058 42.9233 32.4405 42.4333 29.5405C42.4042 29.3676 42.2531 29.1248 42.61 29.1448C42.8354 29.1575 43.1559 28.9725 43.2128 29.4209C43.6332 32.7462 42.5762 35.5068 40.0635 37.7161C40.0278 37.7478 39.9728 37.7593 39.9251 37.7746C39.9143 37.7784 39.896 37.7594 39.8483 37.7314Z" fill="#FEFDFD"/>
<path fill-rule="evenodd" clip-rule="evenodd" d="M38.6028 37.0282C39.9139 35.7378 40.7683 34.2178 41.0381 32.3916C41.173 31.4788 41.1359 30.5682 40.9519 29.6636C40.9147 29.4813 40.7336 29.2134 41.1286 29.2223C41.3989 29.2282 41.7638 29.0037 41.8416 29.5504C42.1518 31.7331 41.6614 33.7027 40.3336 35.4603C39.8582 36.0896 39.3054 36.6414 38.6028 37.0282Z" fill="#FEFDFD"/>
<path fill-rule="evenodd" clip-rule="evenodd" d="M20.0726 23.2391C18.7608 24.7272 17.9054 26.4255 17.6784 28.4158C17.572 29.3497 17.6096 30.2761 17.7915 31.1978C17.8262 31.3738 17.9498 31.6086 17.6173 31.6243C17.3807 31.6356 17.0676 31.7898 17.011 31.3566C16.5795 28.0656 17.5369 25.2865 20.0524 23.0791C20.1086 23.1263 20.1154 23.1797 20.0726 23.2391Z" fill="#FCFDFE"/>
<path fill-rule="evenodd" clip-rule="evenodd" d="M20.8166 24.5116C19.6014 26.1106 18.9641 27.8938 19.111 29.9202C19.1375 30.2875 19.2193 30.6504 19.2555 31.0177C19.2738 31.2038 19.5298 31.4957 19.119 31.5418C18.8236 31.5747 18.4551 31.7234 18.3745 31.178C18.155 29.6946 18.3044 28.2644 18.8983 26.888C19.3136 25.9256 19.8708 25.0573 20.6749 24.3659C20.7976 24.3415 20.8456 24.3889 20.8166 24.5116Z" fill="#FCFDFE"/>
<path fill-rule="evenodd" clip-rule="evenodd" d="M20.8161 24.5117C20.7689 24.4631 20.7216 24.4146 20.6744 24.366C20.8046 24.1942 20.9346 24.0222 21.2182 23.9641C21.1625 24.2513 20.9773 24.3731 20.8161 24.5117Z" fill="#E2F3FB"/>
<path fill-rule="evenodd" clip-rule="evenodd" d="M20.0729 23.2394C20.0661 23.186 20.0595 23.1327 20.0527 23.0796C20.1288 22.9409 20.2548 22.8674 20.4917 22.731C20.3735 23.022 20.2268 23.1336 20.0729 23.2394Z" fill="#E1F3FA"/>
<path fill-rule="evenodd" clip-rule="evenodd" d="M30.2088 34.3295C27.7796 34.329 25.8596 32.4044 25.8629 29.9723C25.8662 27.5468 27.8019 25.6242 30.2302 25.6341C32.6289 25.6437 34.5468 27.5673 34.5517 29.9674C34.5564 32.3978 32.6331 34.3295 30.2088 34.3295Z" fill="#040707"/>
<path fill-rule="evenodd" clip-rule="evenodd" d="M30.2273 28.247C31.2017 28.2581 31.9523 29.0277 31.9408 30.0046C31.9295 30.9785 31.1547 31.7359 30.1843 31.7225C29.2124 31.7084 28.4547 30.9317 28.4676 29.9621C28.4808 28.9885 29.253 28.2358 30.2273 28.247Z" fill="#FEFEFE"/>
</svg>
