<svg width="60" height="60" viewBox="0 0 60 60" fill="none" xmlns="http://www.w3.org/2000/svg">
<g clip-path="url(#clip0)">
<path d="M59.9989 0H0V59.9995H59.9989V0Z" fill="#159CD8" fill-opacity="0.36"/>
<path d="M24.8381 49.0077C23.763 49.0077 22.6879 48.9948 21.6153 48.9513C18.3246 48.8244 16.0295 47.4917 14.7942 44.989C13.5179 42.4044 13.7831 39.6941 15.5618 37.1504C17.5211 34.3505 19.5099 31.5762 21.5 28.7993L24.068 25.2112C24.1257 25.1305 24.1897 25.0485 24.2551 24.9677C24.2013 24.9703 24.1487 24.9703 24.0962 24.9703L23.9027 24.9665C23.6374 24.9511 23.3683 24.9485 23.0979 24.9485L22.4675 24.9511C21.8639 24.9511 21.1604 24.9396 20.4441 24.8114C16.4101 24.0836 14.3136 21.4579 14.5404 17.42C14.7429 13.8422 17.6339 11.1858 21.4128 11.1012C24.7971 11.0308 27.3767 11 29.7768 11C32.3102 11 34.6027 11.0346 36.7876 11.1102C39.8259 11.2127 42.3619 12.6941 43.5729 15.0724C44.7992 17.4777 44.4968 20.4417 42.7643 23.002C40.9574 25.679 39.025 28.3251 37.1554 30.8842C36.3276 32.0208 35.4985 33.1549 34.6771 34.2967L34.4977 34.5542C34.3759 34.7298 34.2568 34.9041 34.1286 35.0745L34.3067 35.0758C34.6604 35.0758 35.0167 35.0681 35.3716 35.0617C36.2494 35.0438 37.1246 35.0309 37.9934 35.1001C42.6067 35.4871 44.8761 37.6899 45.1362 42.0328C45.2285 43.6115 44.6288 45.1838 43.4447 46.4614C42.03 47.9889 39.9131 48.9231 37.7807 48.9615C36.6966 48.9846 35.61 48.9897 34.522 48.9897L29.7115 48.9731C28.9042 48.9731 28.0943 48.9807 27.2857 48.9884C26.4694 49 25.6531 49.0077 24.8381 49.0077Z" fill="#A7A9AC"/>
<path d="M29.7123 47.6973C27.0277 47.6973 24.343 47.7793 21.6661 47.6717C19.248 47.5794 17.0965 46.7606 15.9432 44.4232C14.8155 42.1409 15.1961 39.9112 16.6108 37.8853C19.4107 33.8846 22.2722 29.9326 25.1093 25.9563C25.463 25.4578 26.0435 25.0234 25.7526 24.2994C25.4092 23.4318 24.6173 23.7215 23.9701 23.6856C22.8707 23.6279 21.7443 23.7432 20.6704 23.5497C17.2669 22.9359 15.6305 20.8305 15.8189 17.4911C15.9778 14.6847 18.2805 12.4524 21.4406 12.3832C26.5394 12.2769 31.646 12.2179 36.7449 12.3909C42.2487 12.578 44.7987 17.7051 41.7028 22.285C39.1194 26.1088 36.3348 29.8006 33.6361 33.5501C33.4528 33.8077 33.2811 34.073 33.0902 34.3241C32.7352 34.7944 32.3623 35.2698 32.6916 35.8926C32.9992 36.4705 33.5848 36.3527 34.1012 36.3578C35.3622 36.368 36.6321 36.277 37.8879 36.3808C41.9001 36.7166 43.6365 38.4504 43.8569 42.1127C44.0273 45.0216 41.1082 47.6242 37.7572 47.6845C35.0777 47.7396 32.3944 47.6999 29.7123 47.6973Z" fill="white"/>
<path d="M32.2477 20.8181C28.5956 20.8181 25.2357 20.8437 21.8719 20.8104C19.8818 20.7899 18.8015 19.9711 18.6426 18.4948C18.4542 16.7085 19.5588 15.2835 21.4759 15.2528C26.6337 15.1721 31.7992 15.1118 36.9506 15.2771C40.0543 15.3758 41.1281 18.1783 39.2277 20.918C37.3107 23.6847 35.2963 26.3847 33.328 29.1142C30.9676 32.3831 28.6123 35.6547 26.0327 39.235C28.8775 39.235 31.3751 39.2222 33.8687 39.2402C35.4475 39.2478 37.0275 39.2427 38.5986 39.3478C40.0773 39.4477 40.8987 40.3563 40.959 41.8184C41.0141 43.2575 40.2375 44.1981 38.8792 44.6197C38.391 44.7721 37.8502 44.8324 37.3325 44.8349C32.2798 44.8503 27.2245 44.8349 22.1692 44.8478C20.6711 44.8503 19.2731 44.5722 18.4991 43.1639C17.6738 41.6646 18.3223 40.3153 19.2167 39.0672C23.3481 33.2904 27.4807 27.5136 31.6121 21.7382C31.7646 21.5293 31.9043 21.3166 32.2477 20.8181Z" fill="#159CD8"/>
</g>
<defs>
<clipPath id="clip0">
<rect width="60" height="59.9995" fill="white"/>
</clipPath>
</defs>
</svg>
