<svg width="60" height="60" viewBox="0 0 60 60" fill="none" xmlns="http://www.w3.org/2000/svg">
<g clip-path="url(#clip0)">
<path d="M60 0H0V60.0013H60V0Z" fill="#3457A6"/>
<path d="M49.3798 44.596C49.6718 45.257 49.1878 46 48.4651 46H39.7989C39.3849 46 39.0137 45.7449 38.8653 45.3585L36.8832 40.197C36.7347 39.8106 36.3636 39.5555 35.9496 39.5555H24.0636C23.664 39.5555 23.3027 39.7935 23.1449 40.1606L20.8945 45.395C20.7367 45.7621 20.3754 46 19.9758 46H11.5428C10.8181 46 10.334 45.2532 10.63 44.5917L24.4965 13.5917C24.6576 13.2317 25.0151 13 25.4094 13H34.7725C35.1685 13 35.5272 13.2337 35.6872 13.596L49.3798 44.596ZM40.1019 43.5926C40.2504 43.9789 40.6215 44.2339 41.0354 44.2339H45.7288C46.4515 44.2339 46.9356 43.4909 46.6436 42.8298L34.5118 15.3636C34.3518 15.0013 33.993 14.7676 33.597 14.7676H26.5774C26.183 14.7676 25.8255 14.9993 25.6645 15.3593L13.3782 42.8255C13.0823 43.487 13.5663 44.2339 14.291 44.2339H18.7869C19.1865 44.2339 19.5478 43.9959 19.7056 43.6288L21.956 38.3944C22.1138 38.0273 22.4751 37.7894 22.8747 37.7894H37.185C37.5989 37.7894 37.97 38.0444 38.1184 38.4307L40.1019 43.5926ZM35.6665 32.8271C35.9251 33.4832 35.4414 34.1938 34.7361 34.1938H25.0932C24.3844 34.1938 23.9005 33.4768 24.1658 32.8195L29.0979 20.6003C29.2418 20.2436 29.5879 20.0101 29.9725 20.0101V20.0101C30.36 20.0101 30.708 20.247 30.8501 20.6074L35.6665 32.8271ZM26.8094 31.0519C26.5442 31.7092 27.028 32.4261 27.7367 32.4261H32.1181C32.8233 32.4261 33.307 31.7157 33.0485 31.0596L30.8841 25.5662C30.5529 24.7254 29.3646 24.7204 29.0264 25.5585L26.8094 31.0519Z" fill="white"/>
</g>
<defs>
<clipPath id="clip0">
<rect width="60" height="59.9995" fill="white"/>
</clipPath>
</defs>
</svg>
