<svg width="60" height="60" viewBox="0 0 60 60" fill="none" xmlns="http://www.w3.org/2000/svg">
<g clip-path="url(#clip0)">
<path d="M60 0H0V60H60V0Z" fill="#2582BE"/>
<path d="M44.6539 34.1654C44.7505 41.7646 38.411 48.1412 30.6676 48.2283C22.8807 48.3174 16.4606 42.1042 16.3672 34.3851C16.2749 26.6364 22.4913 20.2194 30.1858 20.1207C38.2126 20.0178 44.5541 26.1737 44.6539 34.1654Z" fill="#FEFEFE"/>
<path d="M40.4292 47.8335C43.3029 46.0985 44.4553 43.2789 45.1355 40.2174C46.0831 35.9642 45.8444 31.7417 44.4659 27.6084C43.913 25.9487 43.0959 24.427 41.6368 23.3265C42.0783 23.2395 42.0931 23.2384 42.611 23.5059C44.3046 24.3782 45.664 25.6442 46.6158 27.2699C49.7474 32.6172 50.0742 38.0791 46.9628 43.5506C45.8221 45.5562 44.1751 47.0822 41.8798 47.7571C41.1869 47.9619 40.9386 47.9704 40.4292 47.8335Z" fill="#FEFEFE"/>
<path d="M19.3485 23.2828C17.05 25.2046 16.2361 27.8215 15.7299 30.5594C15.0211 34.3796 15.0805 38.1861 16.2828 41.9161C16.8898 43.7955 17.7578 45.5411 19.2488 46.9069C19.6425 47.2677 20.0914 47.5489 20.6633 47.8312C20.0542 48.0095 19.5735 47.898 19.0992 47.7611C16.8781 47.1128 15.3235 45.6218 14.1116 43.7403C12.4615 41.1829 11.7866 38.3516 11.9044 35.3272C12.0402 31.8943 13.0335 28.7543 15.2354 26.0578C16.1438 24.9446 17.2315 24.0416 18.541 23.4208C18.7766 23.3072 19.0153 23.2053 19.3485 23.2828Z" fill="#FEFEFE"/>
<path d="M48.7677 40.9102C49.7641 40.3552 50.144 39.4055 50.3881 38.4027C50.8274 36.6114 50.7425 34.8307 50.1663 33.0755C49.9095 32.2977 49.5232 31.5856 48.8653 31.0052C49.1508 30.8884 49.3248 31.054 49.4946 31.1612C50.802 31.991 51.5055 33.2411 51.8164 34.7108C52.2123 36.587 52.0234 38.3719 50.733 39.9011C50.2247 40.5017 49.5646 40.8561 48.7677 40.9102Z" fill="#FEFEFE"/>
<path d="M12.0801 30.9908C9.76884 33.0633 9.69138 39.3328 12.0429 40.8736C11.3107 40.8089 10.7048 40.4608 10.2411 39.9058C8.83607 38.2164 8.71828 36.2808 9.26691 34.2614C9.61709 32.9689 10.31 31.8864 11.4741 31.1564C11.6429 31.0524 11.8095 30.8964 12.0801 30.9908Z" fill="#FEFEFE"/>
<path d="M43.4909 16.2786C35.8696 9.2069 23.5632 9.64941 16.4703 17.2401C13.8545 20.0405 12.3359 23.362 11.9836 27.195C11.8011 27.9867 11.8892 28.7878 11.9051 29.5859C11.9168 29.6612 11.8796 29.7981 12.0123 29.761C12.1226 29.7281 12.0887 29.5869 12.0908 29.4861C12.0908 29.346 12.0908 29.206 12.0908 29.0659C12.597 25.113 14.2906 21.7225 17.1791 19.0186C22.3375 14.1902 28.4785 12.6515 35.2849 14.343C41.3728 15.8563 45.6886 19.6044 47.9935 25.5226C48.4572 26.7154 48.6981 27.9718 48.887 29.3078C48.9496 29.19 48.9878 29.1487 48.9931 29.103C49.008 28.9651 49.0154 28.825 49.0154 28.6881C48.973 23.7525 47.0873 19.615 43.4909 16.2786Z" fill="#FEFEFE"/>
<path d="M26.7663 33.6229C26.7663 32.011 26.7631 30.4001 26.7684 28.7871C26.7705 27.9403 27.1982 27.6835 27.9251 28.0963C30.769 29.7167 33.6076 31.3424 36.4463 32.9692C37.1753 33.3884 37.1753 33.8935 36.4463 34.3148C33.5939 35.9522 30.7393 37.5864 27.8816 39.2154C27.2066 39.5984 26.7747 39.3416 26.7705 38.5649C26.762 36.9158 26.7663 35.2699 26.7663 33.6229Z" fill="#2581BD"/>
</g>
<defs>
<clipPath id="clip0">
<rect width="60" height="60" fill="white"/>
</clipPath>
</defs>
</svg>
