<svg width="60" height="60" viewBox="0 0 60 60" fill="none" xmlns="http://www.w3.org/2000/svg">
<g clip-path="url(#clip0)">
<path d="M59.9989 0H0V59.9995H59.9989V0Z" fill="#ECEBE8"/>
<path d="M46.9407 25.0898C46.9407 25.0255 46.9407 24.9613 46.9084 24.897C46.8438 24.64 46.5852 24.4152 46.2943 24.4152H46.2619L46.1003 24.4473C46.1003 24.4473 40.8638 25.5395 40.7345 25.5395C40.5729 25.5716 40.3466 25.7965 40.3466 26.0856C40.379 26.3105 40.3466 26.4711 40.3466 26.6959C40.3466 32.4782 35.6597 37.1361 29.906 37.1361C24.12 37.1361 19.4653 32.446 19.4653 26.6959C19.4653 21.6847 22.9886 17.4765 27.7079 16.4807C27.9019 16.4486 28.0958 16.4164 28.2898 16.3843C28.6453 16.3201 28.8393 16.031 28.807 15.774C28.807 15.5491 28.3544 10.57 28.3544 10.57L28.3221 10.313C28.2575 10.056 28.0312 9.86325 27.7403 9.86325C27.6756 9.86325 27.5787 9.89537 27.514 9.89537C19.336 11.0518 13.0005 18.1511 13.0005 26.7281C13.0005 40.9587 30.003 51.3667 30.003 51.3667C30.003 51.3667 47.0054 41.0872 47.0054 26.7281C47.0054 26.182 47.0054 25.6359 46.9407 25.0898Z" fill="#62B35D"/>
<path d="M33.1373 30.838C30.907 32.6048 27.6746 32.2193 25.8967 29.9706C24.1512 27.722 24.5068 24.5097 26.7372 22.7429C28.9675 20.9761 32.1999 21.3616 33.9777 23.6102C35.7556 25.8588 35.3677 29.0712 33.1373 30.838Z" fill="#62B35D"/>
<path d="M39.151 21.6522L44.3552 17.6368C45.1633 17.0264 46.3269 17.1549 46.9411 17.958C47.5553 18.7611 47.426 19.9175 46.6179 20.5279C46.4562 20.6564 46.2623 20.7527 46.0684 20.817L39.8298 22.8729C39.4743 23.0014 39.054 22.8086 38.9571 22.4231C38.8278 22.134 38.9247 21.8449 39.151 21.6522Z" fill="#62B35D"/>
<path d="M31.9395 16.0318L32.1335 9.76776C32.1658 8.73981 33.0062 7.96884 34.0406 8.00097C35.0749 8.03309 35.8507 8.8683 35.8184 9.89625C35.8184 10.1211 35.7537 10.346 35.6891 10.5387L33.2971 16.3209C33.1355 16.6743 32.7476 16.8349 32.3921 16.7064C32.1011 16.6101 31.9395 16.3209 31.9395 16.0318Z" fill="#62B35D"/>
<path d="M47.0385 8.25699C46.8446 8.09637 46.6183 8 46.3597 8C46.1011 8 42.5455 8 42.5455 8C41.9313 8 41.3172 8.32123 41.0263 8.89946L36.1453 18.0868C36.1453 18.0868 36.113 18.151 36.113 18.1831C36.0483 18.408 36.0807 18.6971 36.2746 18.8898C36.4039 19.0183 36.5655 19.0826 36.7271 19.1147C36.7595 19.1147 36.7595 19.1147 36.7918 19.1147H36.8241C37.0181 19.1147 37.1797 19.0183 37.309 18.8577L47.0385 9.67042L47.0709 9.6383C47.4264 9.22069 47.4264 8.64247 47.0385 8.25699Z" fill="#62B35D"/>
</g>
<defs>
<clipPath id="clip0">
<rect width="60" height="59.9995" fill="white"/>
</clipPath>
</defs>
</svg>
