<svg width="60" height="60" viewBox="0 0 60 60" fill="none" xmlns="http://www.w3.org/2000/svg">
<g clip-path="url(#clip0)">
<path d="M60 0H0V60H60V0Z" fill="#2B4A5F"/>
<path d="M16.8505 42.811C22.3265 42.811 26.7655 38.372 26.7655 32.896C26.7655 27.4201 22.3265 22.981 16.8505 22.981C11.3746 22.981 6.93555 27.4201 6.93555 32.896C6.93555 38.372 11.3746 42.811 16.8505 42.811Z" fill="#9EB504"/>
<path d="M34.1685 51.001C38.4084 51.001 41.8455 47.5639 41.8455 43.324C41.8455 39.0841 38.4084 35.647 34.1685 35.647C29.9287 35.647 26.4915 39.0841 26.4915 43.324C26.4915 47.5639 29.9287 51.001 34.1685 51.001Z" fill="#AE597A"/>
<path d="M40.2276 34.672C47.3172 34.672 53.0646 28.9247 53.0646 21.835C53.0646 14.7454 47.3172 8.99805 40.2276 8.99805C33.1379 8.99805 27.3906 14.7454 27.3906 21.835C27.3906 28.9247 33.1379 34.672 40.2276 34.672Z" fill="#F4BC2A"/>
</g>
<defs>
<clipPath id="clip0">
<rect width="60" height="59.9995" fill="white"/>
</clipPath>
</defs>
</svg>
