<svg width="60" height="60" viewBox="0 0 60 60" fill="none" xmlns="http://www.w3.org/2000/svg">
<g clip-path="url(#clip0)">
<path d="M60 0H0V60H60V0Z" fill="#263C8F"/>
<path d="M11.1626 29.1229C10.6292 29.1229 10.1927 29.5595 10.1927 30.0929C10.1927 33.5848 11.3566 36.8342 13.4906 39.5986C14.5575 40.9566 15.8185 42.072 17.2734 42.9935C17.7099 43.2845 18.2919 43.139 18.5829 42.7025C18.8739 42.266 18.7284 41.684 18.2919 41.393C17.0309 40.5686 15.9155 39.5986 14.994 38.3861C13.1026 36.0097 12.1326 33.1483 12.1326 30.0929C12.1326 29.5595 11.6961 29.1229 11.1626 29.1229ZM22.2203 43.042C21.7838 43.042 21.3958 43.333 21.2988 43.7695C21.2018 44.3029 21.4928 44.7879 22.0263 44.9334C23.1417 45.2244 24.3542 45.3214 25.5182 45.3214C26.0516 45.3214 26.4881 44.8849 26.4881 44.3514C26.4881 43.818 26.0516 43.3815 25.5182 43.3815C24.4997 43.3815 23.4327 43.2845 22.4628 43.042C22.3657 43.0905 22.2687 43.042 22.2203 43.042Z" fill="white"/>
<path d="M26.0006 49.0597C30.1229 49.0597 34.0029 47.7502 37.3008 45.3253C40.0166 43.3369 42.1021 40.7179 43.46 37.6625L34.6818 34.8011C32.9359 37.905 29.6865 39.8935 26.0006 39.8935C20.5202 39.9419 16.0585 35.4802 16.0585 29.9998C16.0585 24.5194 20.5202 20.0577 26.0006 20.0577C29.638 20.0577 32.9359 22.0461 34.6818 25.1499L43.46 22.2886C42.1505 19.2331 40.0166 16.6143 37.3008 14.6258C34.0029 12.2009 30.0745 10.8914 26.0006 10.8914C15.4764 10.94 6.94073 19.4756 6.94073 29.9998C6.94073 40.524 15.4764 49.0597 26.0006 49.0597ZM26.0006 50.9996C14.4095 50.9996 5.00079 41.5909 5.00079 29.9998C5.00079 18.4087 14.4095 8.99999 26.0006 8.99999C35.3122 8.99999 43.2175 15.1108 45.9819 23.501L33.6149 27.5264C32.5964 24.3255 29.541 21.9975 26.0006 21.9975C21.5873 21.9975 17.9983 25.5865 17.9983 29.9998C17.9983 34.4131 21.5873 38.0021 26.0006 38.0021C29.541 38.0021 32.5964 35.6741 33.6149 32.4732L45.9819 36.4986C43.2175 44.8888 35.3122 50.9996 26.0006 50.9996Z" fill="white"/>
<path d="M51.852 34.0275C52.1431 32.718 52.2886 31.3601 52.2886 30.0021C52.2886 28.6441 52.1431 27.2862 51.852 25.9767L41.4249 29.3716L39.4365 30.0021L41.3764 30.6326L51.852 34.0275ZM53.1615 36.5009L40.7944 32.4755L33.1802 30.0021L40.7944 27.5287L53.1615 23.5033C53.8405 25.5402 54.18 27.7227 54.18 30.0021C54.18 32.2815 53.8405 34.464 53.1615 36.5009Z" fill="#43B5C3"/>
</g>
<defs>
<clipPath id="clip0">
<rect width="60" height="59.9995" fill="white"/>
</clipPath>
</defs>
</svg>
