<svg width="60" height="60" viewBox="0 0 60 60" fill="none" xmlns="http://www.w3.org/2000/svg">
<g clip-path="url(#clip0)">
<path d="M60 0H0V59.9995H60V0Z" fill="#232323"/>
<path d="M30.0144 50.0254C18.9793 50.0254 9.99965 41.0478 9.99965 30.0127C9.99965 18.9776 18.9793 10.0001 30.0144 10.0001C41.0495 10.0001 50.0271 18.9776 50.0271 30.0127C50.0271 41.0478 41.0495 50.0254 30.0144 50.0254ZM30.0144 11.4907C19.7989 11.4907 11.4924 19.7994 11.4924 30.0127C11.4924 40.2303 19.8011 48.539 30.0144 48.539C40.2278 48.539 48.5386 40.2303 48.5386 30.0127C48.5386 19.7994 40.2299 11.4907 30.0144 11.4907Z" fill="white"/>
<path d="M37.7578 26.1521L40.6859 29.3626H36.2375L33.3136 26.1521H30.3876L33.3136 29.3626H28.8673L25.9434 26.1521H23.6906L26.6166 29.3626H22.1724L19.2464 26.1521H19.051V41.8819H41.1085V26.1521H37.7578Z" fill="white"/>
<path d="M33.5934 23.3868L38.0057 22.8581L40.5304 19.3227L36.1181 19.8514L33.5934 23.3868Z" fill="white"/>
<path d="M26.9481 24.1845L31.3604 23.6537L33.8851 20.1183L29.4727 20.6449L26.9481 24.1845Z" fill="white"/>
<path d="M19.6278 25.0525L24.0401 24.5259L26.5648 20.9905L22.1503 21.5171L19.6278 25.0525Z" fill="white"/>
</g>
<defs>
<clipPath id="clip0">
<rect width="60" height="59.9995" fill="white"/>
</clipPath>
</defs>
</svg>
