<svg width="60" height="60" viewBox="0 0 60 60" fill="none" xmlns="http://www.w3.org/2000/svg">
<g clip-path="url(#clip0)">
<path d="M60.4991 -6.10352e-05H0.00012207V60.8683H60.4991V-6.10352e-05Z" fill="#3F3F3F"/>
<path d="M51.1879 29.7141C50.613 29.1264 50.3739 27.6393 48.7403 28.4988C47.8509 28.9642 46.7537 28.0961 47.2489 26.9093C47.9007 25.3625 46.5431 25.0337 45.9156 24.419C45.0077 23.5324 44.6633 24.8544 44.2037 25.2628C42.8304 26.4824 41.5369 27.7987 40.2946 29.1548C39.5076 30.0172 38.9413 30.1097 38.0803 29.2061C35.886 26.8993 33.6248 24.6481 31.3323 22.4438C30.5311 21.6725 30.4771 21.1617 31.3138 20.3946C32.6699 19.1495 33.945 17.8189 35.2172 16.4912C35.7167 15.9733 36.801 15.4268 36.0767 14.6427C35.4819 13.9938 35.1944 12.447 33.5024 13.2837C32.5333 13.7676 31.5571 12.8113 31.994 11.8365C32.7368 10.1744 31.3479 9.75318 30.6265 9.18965C29.7897 8.5379 29.3614 9.73752 28.8861 10.2071C22.2348 16.7602 15.622 23.3517 8.99918 29.9375C8.99918 30.077 8.99918 30.2178 8.99918 30.3601C10.1177 30.9294 10.6428 32.6484 12.4287 32.0123C12.766 31.8942 13.644 32.7153 13.4504 33.145C12.7105 34.7815 14.189 35.1472 14.8607 35.9797C15.4071 36.8136 15.7728 36.1462 16.1243 35.799C17.516 34.4471 18.8907 33.0739 20.2597 31.6935C20.7976 31.1528 21.2629 30.501 22.1822 30.7799C24.5786 33.1863 26.9522 35.6168 29.3884 37.9805C30.1668 38.7376 30.2593 39.2527 29.4169 40.0169C28.112 41.2094 26.8697 42.4787 25.6729 43.7794C25.199 44.2931 24.0193 44.6987 24.5458 45.5141C25.0624 46.2967 25.4495 47.6088 27.0788 47.1804C27.9939 46.9414 28.8263 47.5803 28.5375 48.787C28.2158 50.1645 29.4126 50.6 30.1213 51.1848C30.9196 51.8423 31.3081 50.7394 31.7364 50.3182C37.9693 44.1351 44.1795 37.9364 50.3625 31.712C50.882 31.1884 52.11 30.6505 51.1879 29.7141ZM20.3977 23.4456C21.2045 23.225 21.8293 23.9494 21.9218 24.5883C22.0441 25.4393 21.1633 25.8093 20.5414 26.2433C19.7587 26.0825 19.1212 25.63 19.0714 24.9128C19.0145 24.1514 19.7531 23.6235 20.3977 23.4456ZM14.8507 29.0481C14.9062 28.3466 15.5693 27.7617 16.2638 27.6692C17.0621 27.5582 17.3908 28.338 17.8263 28.8674C17.4349 29.6316 16.9938 30.3801 16.1784 30.3929C15.4697 30.4028 14.7924 29.7895 14.8507 29.0481ZM27.5598 16.3304C27.6765 15.5933 28.3197 14.896 29.1451 14.9316C29.8509 14.9629 30.1967 15.6872 30.571 16.2066C30.0459 16.9651 29.6389 17.7762 28.8149 17.7193C28.1475 17.6781 27.4488 17.0505 27.5598 16.3304ZM23.3092 20.7063C23.2793 19.8994 23.9965 19.279 24.7607 19.1808C25.5121 19.084 26.1681 19.7955 26.188 20.4245C26.2108 21.1944 25.421 21.6512 24.7451 22.0155C23.9738 21.8589 23.3348 21.3794 23.3092 20.7063ZM28.9985 33.4723C27.6082 32.0749 26.2037 30.6903 24.8105 29.2915C24.4704 28.9471 24.1659 28.5629 23.8585 28.2114C24.1929 27.2892 24.9301 26.8225 25.5107 26.2376C28.2343 23.4983 28.2386 23.5068 30.9879 26.2533C32.6856 27.9438 34.3577 29.6629 36.098 31.3065C36.9134 32.0735 36.8153 32.5915 36.0938 33.3727C32.6344 37.1381 32.6543 37.1551 28.9985 33.4723ZM32.9275 44.2404C32.7923 44.9206 32.1947 45.7346 31.3465 45.6677C30.6407 45.6165 29.9519 44.9135 30.0516 44.2404C30.1597 43.5389 30.8228 42.9526 31.6525 42.7633C32.2786 43.1162 33.0656 43.5446 32.9275 44.2404ZM35.5786 41.4214C34.8885 41.3673 34.1741 40.6957 34.2851 40.0083C34.4032 39.3167 35.045 38.5554 35.8803 38.6024C36.5833 38.6379 36.9874 39.3352 37.2863 39.9685C36.7953 40.6387 36.4253 41.4926 35.5786 41.4214ZM39.8662 37.1879C39.1618 37.1964 38.4589 36.5418 38.5072 35.8388C38.5613 35.0761 39.2515 34.3902 40.0484 34.366C40.7812 34.3404 41.211 35.0362 41.5027 35.7278C41.1128 36.4052 40.6859 37.1864 39.8662 37.1879ZM45.5982 31.601C45.4744 32.2784 44.854 32.9302 44.1339 32.9344C43.4124 32.9401 42.95 32.2955 42.6753 31.5754C43.098 30.9123 43.5206 30.1197 44.3616 30.1808C45.0319 30.2307 45.7462 30.807 45.5982 31.601Z" fill="#F6F6F6"/>
</g>
<defs>
<clipPath id="clip0">
<rect width="60" height="59.9995" fill="white"/>
</clipPath>
</defs>
</svg>
