<svg width="60" height="60" viewBox="0 0 60 60" fill="none" xmlns="http://www.w3.org/2000/svg">
<g clip-path="url(#clip0)">
<rect width="60" height="59.9995" fill="#F5F5F5"/>
<rect width="60" height="60" fill="#ECEBE8"/>
<path d="M29.9009 7C17.2103 7 6.93367 17.2766 6.93367 29.9672C6.93367 39.6921 12.9686 48.0031 21.521 51.3482C21.3141 49.5204 21.1416 46.7616 21.5899 44.7615C22.0038 42.9682 24.2798 33.3468 24.2798 33.3468C24.2798 33.3468 23.5901 31.9674 23.5901 29.9328C23.5901 26.7256 25.4523 24.3461 27.7283 24.3461C29.694 24.3461 30.6251 25.829 30.6251 27.5877C30.6251 29.5534 29.3836 32.5192 28.7284 35.2435C28.1766 37.5195 29.8664 39.3817 32.1425 39.3817C36.2117 39.3817 39.3499 35.0711 39.3499 28.8637C39.3499 23.3805 35.3841 19.5182 29.763 19.5182C23.2452 19.5182 19.3829 24.4151 19.3829 29.4844C19.3829 31.4501 20.1416 33.5882 21.1071 34.7262C21.2796 34.9676 21.3141 35.14 21.2796 35.3814C21.1071 36.1056 20.7278 37.6575 20.6588 37.9678C20.5554 38.3817 20.314 38.4851 19.9002 38.2782C17.0379 36.9333 15.2446 32.7606 15.2446 29.381C15.2446 22.1391 20.5209 15.4834 30.4182 15.4834C38.3843 15.4834 44.5572 21.1735 44.5572 28.7258C44.5572 36.6229 39.5568 43.0027 32.6597 43.0027C30.3492 43.0027 28.1422 41.7957 27.3835 40.3818C27.3835 40.3818 26.2455 44.7615 25.9696 45.8305C25.4523 47.8306 24.0384 50.3136 23.1073 51.8654C25.2454 52.5207 27.5214 52.9 29.9009 52.9C42.5915 52.9 52.8681 42.6234 52.8681 29.9328C52.8681 17.2766 42.5915 7 29.9009 7Z" fill="#BD081C"/>
</g>
<defs>
<clipPath id="clip0">
<rect width="60" height="59.9995" fill="white"/>
</clipPath>
</defs>
</svg>
