<svg width="60" height="60" viewBox="0 0 60 60" fill="none" xmlns="http://www.w3.org/2000/svg">
<g clip-path="url(#clip0)">
<path d="M60 0H0V60H60V0Z" fill="#F5F5F5"/>
<path d="M47.197 48.277C47.197 49.858 45.972 51.14 44.461 51.14H12.078C10.565 51.14 9.34 49.858 9.34 48.277V11.201C9.34 9.62 10.565 8.34 12.078 8.34H44.461C45.973 8.34 47.197 9.62 47.197 11.201V48.277Z" fill="white"/>
<path d="M44.461 52.481H12.078C9.83 52.481 8 50.596 8 48.277V11.201C8 8.885 9.83 7 12.078 7H44.461C46.709 7 48.537 8.884 48.537 11.201V48.277C48.537 50.596 46.709 52.481 44.461 52.481ZM12.078 9.681C11.308 9.681 10.681 10.363 10.681 11.202V48.278C10.681 49.116 11.309 49.801 12.078 49.801H44.461C45.229 49.801 45.857 49.115 45.857 48.278V11.201C45.857 10.362 45.228 9.68 44.461 9.68H12.078V9.681Z" fill="url(#paint0_linear)"/>
<path d="M33.827 41.761H25.702V52.482H33.827V41.761Z" fill="#0066C8"/>
<path d="M41.949 41.761H33.826V52.482H41.949V41.761Z" fill="#FFAC1C"/>
<path d="M52.336 33.678H41.949V41.803H52.336V33.678Z" fill="#F1C418"/>
<path d="M52.336 41.803H41.949V52.482H52.336V41.803Z" fill="#16B734"/>
<path d="M52.336 25.553H41.949V33.678H52.336V25.553Z" fill="#D0240E"/>
<path d="M28.4 18.886C26.701 20.972 20.676 28.463 20.752 31.631C20.828 33.558 22.066 35.416 23.995 35.804C25.154 36.034 26.314 35.725 27.162 35.186L25 38.971C24.846 39.28 25.076 39.667 25.385 39.667H32.414C32.803 39.667 33.033 39.279 32.803 38.971L30.641 35.186C31.487 35.804 32.649 36.035 33.805 35.804C35.739 35.416 36.973 33.642 37.051 31.631C37.127 28.078 31.102 20.894 29.403 18.886C29.094 18.577 28.63 18.577 28.4 18.886Z" fill="#3D3D3D"/>
<path d="M20.341 40.42H15.148V45.78H20.341V40.42Z" fill="#56585A"/>
<path d="M41.615 13.727H36.422V19.087H41.615V13.727Z" fill="#56585A"/>
</g>
<defs>
<linearGradient id="paint0_linear" x1="28.2685" y1="7" x2="28.2685" y2="52.481" gradientUnits="userSpaceOnUse">
<stop stop-color="#939393"/>
<stop offset="1"/>
</linearGradient>
<clipPath id="clip0">
<rect width="60" height="59.9995" fill="white"/>
</clipPath>
</defs>
</svg>
