<svg id="Layer_1" xmlns="http://www.w3.org/2000/svg" viewBox="0 0 60 60"><style>.st3{fill:#6d6f70}</style><switch><g><path d="M60 0H0v60h60V0z" fill="#f4f4f4"/><path d="M41.2 31.7c0 1.7-.3 3.2-.9 4.6-.9 2.1-2.4 4-4.3 5.3-.9.6-2 1.1-3.1 1.5-1.1.3-2.3.5-3.6.5-1.8 0-3.4-.4-4.9-1s-2.8-1.7-3.9-2.9l-2.9 2.6 2.9-2.6c-1-1.1-1.7-2.3-2.3-3.6-.5-1.4-.8-2.8-.8-4.4 0-1.7.3-3.2.9-4.6.9-2.1 2.4-4 4.3-5.3.9-.6 2-1.1 3.1-1.5 1.1-.3 2.3-.5 3.6-.5v-7.9c-2.7 0-5.3.6-7.7 1.6-3.6 1.5-6.6 4-8.7 7.2-1.1 1.6-1.9 3.3-2.5 5.2-.6 1.9-.9 3.9-.9 5.9 0 2.5.5 5 1.4 7.3.9 2.3 2.2 4.3 3.8 6.1 1.8 2 4 3.6 6.5 4.8 2.5 1.1 5.3 1.8 8.2 1.8 2.7 0 5.3-.6 7.7-1.6 3.6-1.5 6.6-4 8.7-7.2 1.1-1.6 1.9-3.3 2.5-5.2.6-1.9.9-3.9.9-5.9h-8z" fill="#f17f21"/><path d="M49.9 23c-1.7-4-4.5-7.4-8.1-9.8-1.8-1.2-3.7-2.2-5.9-2.8-1.4-.4-2.9-.7-4.4-.9V20c.8.2 1.6.4 2.4.7 2.1.9 4 2.4 5.3 4.3.6.9 1.1 2 1.5 3.1.1.4.2.9.3 1.3h10.5c-.2-2.2-.8-4.4-1.6-6.4z" fill="#60b15d"/><path class="st3" d="M29.6 27.8h-.8v2.5h.8v1.1h-.8v2.5h.8c.2 0 .4-.1.5-.2.1-.1.2-.3.2-.7v-4.5c0-.3-.1-.5-.2-.7h-.5z"/><path class="st3" d="M29.3 23.6c-4.5 0-8.1 3.6-8.1 8.1s3.6 8.1 8.1 8.1 8.1-3.6 8.1-8.1-3.6-8.1-8.1-8.1zm2.3 13.2H27v-.7h4.6v.7zm0-3.7c0 .7-.2 1.2-.5 1.6-.3.4-.8.5-1.5.5h-2.2v-3.8H27v-1.1h.5v-3.8h2.2c.7 0 1.2.2 1.5.5.3.4.5.9.5 1.6-.1.1-.1 4.5-.1 4.5z"/></g></switch></svg>