<svg width="60" height="60" viewBox="0 0 60 60" fill="none" xmlns="http://www.w3.org/2000/svg">
<g clip-path="url(#clip0)">
<rect width="60" height="60" fill="#E22826"/>
<path d="M25.4073 40.5974C22.1416 40.5974 18.8746 40.5871 15.6089 40.6026C14.8112 40.6078 14.117 40.3983 13.5598 39.8204C13.0892 39.333 12.8785 38.7577 13.0711 38.0777C13.9063 35.1262 14.7414 32.1746 15.5792 29.2205C15.7563 28.5934 16.2256 28.2638 16.8035 28.0698C17.2909 27.9057 17.8016 27.8617 18.3174 27.8617C22.2179 27.8643 26.1171 27.8733 30.0163 27.8527C30.633 27.8501 30.7946 27.9781 30.527 28.5818C30.0926 29.5605 29.6944 30.5586 29.335 31.567C29.1553 32.0738 28.8657 32.2108 28.3563 32.2056C25.6995 32.1862 23.0427 32.2108 20.386 32.1888C19.8404 32.1849 19.5327 32.3207 19.4125 32.896C19.2819 33.5153 19.0867 34.1216 18.8591 34.7099C18.6264 35.3201 18.8255 35.4532 19.4254 35.4429C23.5922 35.3899 27.7603 35.3718 31.9284 35.3175C33.388 35.2981 34.8541 35.4429 36.306 35.1856C37.0093 35.0628 37.6686 34.8197 38.2491 34.3931C39.7462 33.2903 39.922 31.3368 38.6447 29.991C37.9117 29.2179 36.9976 28.702 36.0719 28.2082C34.9524 27.6109 33.8509 26.9865 32.8502 26.2004C29.5496 23.6096 28.7519 20.1667 30.5722 16.3787C32.655 12.0438 37.5122 9.43748 42.284 10.1033C43.127 10.2209 43.9634 10.3903 44.8051 10.5248C45.2472 10.5946 45.3726 10.7652 45.1658 11.2087C44.5879 12.4446 44.0294 13.6896 43.5019 14.9488C43.3196 15.3832 43.0714 15.4311 42.6512 15.3755C41.7113 15.2488 40.7662 15.1105 39.8134 15.2462C37.9207 15.5151 36.2801 17.263 36.1482 19.1687C36.0823 20.1344 36.5787 20.8416 37.2756 21.4324C38.306 22.3064 39.5044 22.9166 40.6732 23.5695C41.4411 23.9987 42.1832 24.4615 42.8787 25.0007C46.509 27.8113 47.1348 32.7215 44.3332 36.3841C42.3965 38.9142 39.6996 40.0027 36.6602 40.4345C34.6951 40.7151 32.717 40.538 30.7455 40.5703C28.9665 40.5974 27.1876 40.5755 25.4073 40.5755C25.4073 40.5832 25.4073 40.5897 25.4073 40.5974Z" fill="white"/>
<path d="M18.2504 49.6908C16.2969 49.6882 14.7636 48.1756 14.7571 46.2467C14.7507 44.2919 16.3085 42.7599 18.2917 42.7702C20.2142 42.778 21.7798 44.3488 21.7617 46.2518C21.7449 48.1743 20.1909 49.6985 18.2504 49.6908Z" fill="white"/>
<path d="M34.8569 49.6959C32.8983 49.6934 31.3882 48.173 31.3921 46.2118C31.396 44.2647 32.9267 42.7625 34.897 42.7702C36.8143 42.778 38.3566 44.288 38.376 46.1794C38.3967 48.1484 36.844 49.6985 34.8569 49.6959Z" fill="white"/>
</g>
<defs>
<clipPath id="clip0">
<rect width="60" height="59.9995" fill="white"/>
</clipPath>
</defs>
</svg>
