<svg width="60" height="60" viewBox="0 0 60 60" fill="none" xmlns="http://www.w3.org/2000/svg">
<rect width="60" height="60" fill="#E54318"/>
<path d="M11.9469 20.4637H20.9799C21.2544 17.4055 22.1068 14.6576 23.3308 12.5357C24.9499 9.72757 27.2536 8 29.8555 8C32.4599 8 34.7496 9.73894 36.3819 12.5357C37.6041 14.6463 38.4565 17.4055 38.7319 20.4637H47.7526C48.8236 20.4637 49.7809 21.3397 49.6979 22.4081L47.8864 47.6852C47.6573 50.8509 45.6684 52.6624 42.7772 52.6624H16.9364C13.7217 52.6624 12.0186 50.419 11.8263 47.6852L10.0034 22.4212C9.93088 21.3528 10.8786 20.4637 11.9469 20.4637ZM23.2346 20.4637H36.4544C36.1895 17.8129 35.4587 15.4619 34.4157 13.6636C33.2153 11.5636 31.5848 10.2565 29.8563 10.2565C28.1165 10.2565 26.4974 11.5636 25.2734 13.6758C24.2313 15.4619 23.51 17.8251 23.2346 20.4637Z" fill="white"/>
<path d="M23.2904 43.7972C22.8707 43.5087 22.7623 42.9448 23.05 42.5251C23.3385 42.1063 23.9024 41.9971 24.3229 42.2864C24.5878 42.4674 24.8623 42.6466 25.1613 42.8259C27.2736 44.1102 29.2171 44.7449 30.8353 44.7449C32.2989 44.7449 33.487 44.1915 34.2415 43.0768C34.2896 42.9929 34.3368 42.9456 34.349 42.9115C34.5641 42.5618 34.7215 42.1894 34.8307 41.8309C35.0458 41.0861 35.01 40.3193 34.7092 39.6243C34.3849 38.8925 33.7615 38.1852 32.7902 37.5977C32.1432 37.2016 31.3389 36.8537 30.3676 36.5905C27.8969 35.8946 26.0732 34.9102 25.0896 33.5909C24.0108 32.1396 23.9269 30.3875 25.0774 28.2639C25.8441 26.8616 27.4169 25.9847 29.4077 25.8299C31.1221 25.697 33.1862 26.1044 35.2854 27.1728C35.7409 27.401 35.9227 27.9527 35.6814 28.4082C35.4427 28.8645 34.9007 29.0446 34.4452 28.8042C32.6573 27.8923 30.9551 27.5444 29.5397 27.6528C28.1837 27.7612 27.1529 28.2884 26.6965 29.1286C25.9298 30.5318 25.9421 31.6351 26.5654 32.4753C27.2858 33.4466 28.7852 34.2029 30.8721 34.7904C31.999 35.1147 32.9607 35.5213 33.751 36.0021C35.0589 36.7934 35.9349 37.7892 36.4027 38.8689C36.8827 39.9836 36.9421 41.1604 36.6178 42.3109C36.4744 42.8285 36.2453 43.3443 35.9349 43.8479C35.8633 43.9572 35.8134 44.0411 35.7776 44.0988C34.6629 45.7442 32.9484 46.5582 30.8598 46.5721C28.9049 46.5721 26.6249 45.8517 24.2276 44.3873C23.926 44.2177 23.6139 44.0227 23.2904 43.7972Z" fill="#E54318"/>
</svg>
