<svg width="60" height="60" viewBox="0 0 60 60" fill="none" xmlns="http://www.w3.org/2000/svg">
<g clip-path="url(#clip0)">
<rect width="60" height="60" fill="#237F75"/>
<path d="M31.2451 9.99991C34.9746 10.1368 39.214 10.8898 42.8279 13.7696C44.0931 14.7822 44.4377 15.573 42.9955 16.7603C41.6075 17.9051 40.3447 19.2198 39.1196 20.5464C38.2297 21.5071 37.5357 21.5945 36.4783 20.7211C34.5804 19.1561 32.2908 18.7289 29.8855 19.0145C28.6958 19.1561 27.6147 19.6707 27.4188 20.9666C27.2205 22.2743 28.1034 23.1146 29.2222 23.5206C31.2734 24.2618 33.3672 24.8802 35.4467 25.5364C37.6797 26.2422 39.8537 27.0707 41.8058 28.3949C48.7219 33.0852 48.1602 43.5561 40.7743 47.5477C33.4758 51.4967 21.1613 49.7972 15.1303 44.0967C13.7966 42.8362 13.4024 42.0266 15.2908 40.9455C17.047 39.9399 18.6828 38.7031 20.3044 37.4756C21.3218 36.7061 22.0346 36.6683 22.9977 37.6385C25.5729 40.2468 28.7855 41.0446 32.3427 40.4687C33.6363 40.2586 34.9298 39.8101 35.1328 38.2593C35.3287 36.7934 34.2169 36.0452 33.0886 35.6156C30.629 34.6761 28.1081 33.9137 25.6202 33.0521C22.5752 31.9994 19.7993 30.4958 17.9794 27.7317C14.4599 22.3852 16.2586 15.3015 21.8599 12.1149C24.5579 10.5853 27.4873 10.0377 31.2451 9.99991Z" fill="white"/>
</g>
<defs>
<clipPath id="clip0">
<rect width="60" height="59.9995" fill="white"/>
</clipPath>
</defs>
</svg>
