<svg width="60" height="60" viewBox="0 0 60 60" fill="none" xmlns="http://www.w3.org/2000/svg">
<g clip-path="url(#clip0)">
<path d="M60 0H0V60H60V0Z" fill="#EF4600"/>
<path d="M53.2089 31.824C51.8829 28.793 48.5909 26.507 44.9819 27.29C44.5359 27.387 44.0959 27.509 43.6159 27.629C43.4949 27.157 43.4039 26.734 43.2769 26.321C43.1469 25.903 43.0229 25.476 42.8299 25.086C40.1749 19.724 35.7859 17.124 29.8649 17.001C28.4769 16.972 27.8679 17.604 27.8699 19.008C27.8709 20.425 27.8949 21.842 27.8969 23.26C27.9039 29.076 27.9039 34.893 27.9119 40.71C27.9139 42.383 28.4539 42.921 30.0899 42.921C35.4179 42.921 40.7459 42.922 46.0739 42.916C46.5369 42.916 47.0079 42.916 47.4589 42.831C52.4429 41.891 55.2509 36.489 53.2089 31.824Z" fill="white"/>
<path d="M24.0479 17.735C23.1519 17.76 22.4689 18.452 22.4229 19.387C22.4129 19.582 22.4209 19.778 22.4209 19.973C22.4209 23.417 22.4209 26.862 22.4209 30.306C22.4299 30.306 22.4399 30.306 22.4499 30.306C22.4499 33.774 22.4499 37.242 22.4509 40.713C22.4509 40.933 22.4399 41.153 22.4629 41.371C22.5519 42.254 23.2039 42.89 24.0339 42.918C24.9029 42.948 25.6119 42.333 25.7309 41.427C25.7639 41.162 25.7489 40.89 25.7489 40.622C25.7539 33.684 25.7569 26.747 25.7609 19.809C25.7609 19.638 25.7719 19.465 25.7549 19.296C25.6629 18.353 24.9549 17.71 24.0479 17.735Z" fill="white"/>
<path d="M14.7699 26.6519C14.7689 25.5039 14.1609 24.7909 13.1789 24.7769C12.2099 24.7639 11.4529 25.5009 11.4509 26.5749C11.4479 31.1699 11.4599 35.7629 11.4989 40.3579C11.5089 41.4539 12.2909 42.2089 13.2179 42.1569C14.1519 42.1049 14.7609 41.3789 14.7629 40.2889C14.7669 38.0159 14.7639 35.7429 14.7639 33.4699C14.7659 33.4699 14.7689 33.4699 14.7709 33.4699C14.7709 31.1969 14.7719 28.9239 14.7699 26.6519Z" fill="white"/>
<path d="M20.1599 23.7639C19.9139 22.9849 19.1869 22.5999 18.2929 22.7239C17.5559 22.8279 17.0109 23.4629 17.0019 24.2599C16.9929 25.1139 17.0069 29.6379 17.0069 30.4919C17.0089 34.0779 17.0049 37.664 17.0149 41.252C17.0169 42.123 17.5859 42.789 18.3699 42.906C19.1159 43.017 19.8879 42.5989 20.1229 41.8869C20.2429 41.5259 20.2769 41.122 20.2799 40.738C20.2959 38.713 20.2869 36.6869 20.2869 34.6629C20.2909 34.6629 20.2959 34.6629 20.3009 34.6629C20.3009 32.5889 20.3069 26.8439 20.2949 24.7699C20.2939 24.4339 20.2599 24.0829 20.1599 23.7639Z" fill="white"/>
<path d="M7.66889 29.473C6.71989 29.477 6.01089 30.204 6.00589 31.23C5.99589 33.474 5.99889 35.717 6.01289 37.959C6.01889 39.053 6.71589 39.812 7.66889 39.813C8.61389 39.816 9.30789 39.048 9.32189 37.956C9.33589 36.834 9.32489 35.713 9.32489 34.591C9.32789 34.591 9.32989 34.591 9.33389 34.591C9.33389 33.469 9.34689 32.348 9.32989 31.226C9.31389 30.186 8.61989 29.469 7.66889 29.473Z" fill="white"/>
</g>
<defs>
<clipPath id="clip0">
<rect width="60" height="59.9995" fill="white"/>
</clipPath>
</defs>
</svg>
