<svg width="60" height="60" viewBox="0 0 60 60" fill="none" xmlns="http://www.w3.org/2000/svg">
<g clip-path="url(#clip0)">
<path d="M60 0H0V60.0013H60V0Z" fill="#FFD200"/>
<path fill-rule="evenodd" clip-rule="evenodd" d="M43.2805 17.8473L41.8149 23.298H47.2729L48.7361 17.8473H43.2805Z" fill="#000001"/>
<path fill-rule="evenodd" clip-rule="evenodd" d="M28.2604 23.2859H22.806L21.3465 28.7378H26.796L28.2604 23.2859Z" fill="#000001"/>
<path fill-rule="evenodd" clip-rule="evenodd" d="M40.3712 28.7378L41.8307 23.2859H36.3824L34.9193 28.7378H40.3712Z" fill="#000001"/>
<path fill-rule="evenodd" clip-rule="evenodd" d="M21.3587 28.7233H15.9079L14.4484 34.1715H19.8955L21.3587 28.7233Z" fill="#000001"/>
<path fill-rule="evenodd" clip-rule="evenodd" d="M33.5824 28.7378L35.0468 23.2859H29.5924L28.1353 28.7378H33.5824Z" fill="#000001"/>
<path fill-rule="evenodd" clip-rule="evenodd" d="M33.3238 30.0213H27.867L26.4075 35.472H31.8655L33.3238 30.0213Z" fill="#000001"/>
<path fill-rule="evenodd" clip-rule="evenodd" d="M40.3639 28.7378L41.8307 23.2859H36.3824L34.9156 28.7378H40.3639Z" fill="#000001"/>
<path fill-rule="evenodd" clip-rule="evenodd" d="M17.9029 42.2146H23.35L24.812 36.7578H19.3612L17.9029 42.2146Z" fill="#000001"/>
<path fill-rule="evenodd" clip-rule="evenodd" d="M38.3835 36.7578H32.9316L31.4708 42.2146H36.9252L38.3835 36.7578Z" fill="#000001"/>
<path fill-rule="evenodd" clip-rule="evenodd" d="M11 47.6483H16.4483L17.9078 42.1927H12.4656L11 47.6483Z" fill="#000001"/>
<path fill-rule="evenodd" clip-rule="evenodd" d="M35.4487 47.6483H40.8994L42.3577 42.1927H36.907L35.4487 47.6483Z" fill="#000001"/>
<path fill-rule="evenodd" clip-rule="evenodd" d="M37.9112 17.5218C37.9112 20.0098 35.887 22.0328 33.3869 22.0328C30.8989 22.0328 28.876 20.0098 28.876 17.5218C28.876 15.0181 30.9001 13 33.3869 13C35.887 13 37.9112 15.0193 37.9112 17.5218Z" fill="#000001"/>
</g>
<defs>
<clipPath id="clip0">
<rect width="60" height="59.9995" fill="white"/>
</clipPath>
</defs>
</svg>
