<svg width="60" height="60" viewBox="0 0 60 60" fill="none" xmlns="http://www.w3.org/2000/svg">
<g clip-path="url(#clip0)">
<path d="M60 0H0V60H60V0Z" fill="#ECEBE8"/>
<path fill-rule="evenodd" clip-rule="evenodd" d="M44.3549 13.8611C44.5847 13.8611 44.8154 13.8741 45.0441 13.8601C46.8781 13.7453 48.3354 14.6453 49.6929 15.6891C50.8426 16.5741 51.1732 17.9076 51.2691 19.29C51.395 21.1359 50.9645 22.9119 50.5469 24.6879C50.4131 25.2603 50.2473 25.8297 50.1664 26.41C50.1024 26.8635 49.8887 27.1712 49.5371 27.4299C49.1675 27.7006 48.7929 27.9723 48.5342 28.3658C47.9708 29.2198 48.2146 30.3126 49.1685 30.5434C51.6787 31.1467 52.2241 33.521 51.9254 35.6736C51.6547 37.6214 50.9105 39.4344 50.2812 41.2783C50.2253 41.4411 50.1634 41.6029 50.1204 41.7687C50.0006 42.2432 49.8897 42.7187 49.2963 42.8265C49.2464 42.8365 49.1855 42.8805 49.1585 42.9254C48.6061 43.8464 47.4654 43.9732 46.7672 44.6994C46.6693 44.8023 46.5225 44.7783 46.3976 44.7843C45.2949 44.8363 44.3279 45.2258 43.5019 45.955C43.2891 46.1428 43.0973 46.1927 42.8097 46.1198C41.57 45.8052 40.3394 45.4706 39.2097 44.8503C37.3838 43.8484 36.5027 42.2632 36.3699 40.2285C36.307 39.2506 36.323 39.2476 37.2599 38.9948C38.4306 38.6792 39.6112 38.4854 40.8339 38.6063C41.1545 38.6382 41.3403 38.7571 41.4242 39.0578C41.5421 39.4863 41.6669 39.9128 41.7818 40.3423C41.8487 40.592 41.9216 40.8408 42.0505 41.0665C42.3811 41.6489 42.9585 41.7947 43.5079 41.4151C43.7066 41.2773 43.8994 41.1115 44.0463 40.9217C45.3348 39.2635 46.013 37.3787 45.8812 35.28C45.7673 33.4541 44.9462 32.675 43.1133 32.3953C42.8007 32.3473 42.49 32.2814 42.1754 32.2654C41.7379 32.2434 41.4512 31.9997 41.2394 31.6621C40.5792 30.6113 40.5742 29.4646 40.7819 28.2919C40.8159 28.1011 40.9457 28.0911 41.1036 28.1041C42.7487 28.2459 43.8565 27.313 44.8773 26.2092C44.9482 26.1313 44.9782 26.0414 44.9902 25.9385C45.195 24.3593 45.5665 22.8041 45.6544 21.2089C45.6994 20.3848 45.6445 19.5727 45.3458 18.7946C45.2639 18.5808 45.162 18.3711 45.0381 18.1803C44.232 16.9397 43.6857 16.9277 42.8606 18.1223C42.2703 18.9804 41.8677 19.9333 41.4861 20.8932C41.3293 21.2888 41.1445 21.4646 40.687 21.4346C39.9579 21.3877 39.2217 21.4326 38.4905 21.4346C38.3607 21.4346 38.2298 21.4276 38.1039 21.4056C37.4896 21.2988 37.4896 21.2968 37.4896 20.6675C37.4886 18.8895 37.9631 17.2643 39.0699 15.8529C40.2156 14.3925 41.7548 13.8082 43.5768 13.8781C43.8355 13.8881 44.0942 13.8791 44.3519 13.8791C44.3549 13.8721 44.3549 13.8671 44.3549 13.8611Z" fill="#84C349"/>
<path fill-rule="evenodd" clip-rule="evenodd" d="M21.5286 23.1487C21.5266 20.0282 24.0218 17.3652 27.1443 17.1294C29.3718 16.9616 31.3476 17.542 33.0207 19.0483C33.4402 19.4258 33.7788 19.8693 34.0406 20.3728C34.3732 21.0151 34.4671 21.6753 34.2224 22.3695C33.9746 23.0727 33.7189 23.7729 33.4842 24.4812C33.3304 24.9456 33.2235 25.4301 33.2664 25.9205C33.3014 26.3181 33.1845 26.6497 32.9787 26.9713C32.5392 27.6616 32.0977 28.3508 31.6632 29.044C31.2337 29.7282 30.8851 30.4534 30.6853 31.2365C30.6034 31.5602 30.4616 31.5612 30.1929 31.4813C29.5876 31.2995 29.16 30.874 28.7225 30.4614C28.4179 30.1747 28.1232 29.8671 27.7257 29.7252C27.439 29.6224 27.415 29.4506 27.433 29.1968C27.5199 27.9363 27.9135 26.7546 28.323 25.5739C28.6376 24.6659 28.9583 23.759 29.0801 22.796C29.234 21.5764 28.8744 20.5336 28.0533 19.6296C27.8635 19.4198 27.7047 19.4438 27.4949 19.5707C26.9066 19.9303 26.534 20.4627 26.2553 21.076C25.8867 21.8901 25.691 22.7611 25.4083 23.6031C24.8869 25.1594 24.8859 25.1614 23.2857 24.9266C22.8601 24.8637 22.4346 24.7968 22.0081 24.7469C21.8023 24.7239 21.7174 24.628 21.6765 24.4282C21.5876 24.0047 21.5157 23.5832 21.5286 23.1487Z" fill="#F89D1D"/>
<path fill-rule="evenodd" clip-rule="evenodd" d="M30.2938 44.559C27.1484 44.5031 24.1268 44.3343 21.1192 43.9467C20.9763 43.9267 20.8365 43.8958 20.6946 43.8778C19.8486 43.7659 19.8436 43.7549 19.7957 42.9099C19.7377 41.9 19.9315 40.9061 19.9745 39.9033C19.9785 39.8074 20.0164 39.7424 20.0863 39.6835C21.6336 38.347 22.6604 36.612 23.7282 34.9089C24.5223 33.6433 25.3234 32.3867 26.3293 31.27C26.561 31.0133 26.7438 30.9503 27.0575 31.1161C27.7467 31.4787 28.4289 31.8433 28.9094 32.4836C29.3619 33.0869 29.4718 33.7532 29.291 34.4824C29.24 34.6901 29.1042 34.804 28.9324 34.8799C28.4869 35.0767 28.0364 35.2615 27.5879 35.4503C27.2573 35.5901 26.9256 35.73 26.637 35.9467C26.2764 36.2174 26.0406 36.5031 26.1405 37.0295C26.2544 37.6248 25.9777 38.1802 25.731 38.7166C25.5811 39.0442 25.4223 39.3709 25.4903 39.7454C25.5392 40.0181 25.6111 40.1769 25.9677 39.9962C27.7667 39.0862 30.4946 39.4218 31.9799 40.7044C33.2295 41.7841 33.0128 43.2535 32.2427 44.4332C32.1508 44.574 32.0279 44.555 31.902 44.555C31.3267 44.559 30.7523 44.559 30.2938 44.559Z" fill="#F89D1D"/>
<path fill-rule="evenodd" clip-rule="evenodd" d="M8.01385 43.0557C8.01385 42.6831 8.02684 42.3085 8.00886 41.9349C7.99587 41.6642 8.08877 41.5554 8.36646 41.5274C8.86489 41.4754 9.36833 41.4385 9.85178 41.2887C10.4391 41.1069 10.535 40.946 10.4981 40.3487C10.4151 39.0412 10.4971 37.7347 10.4971 36.4261C10.4971 35.677 10.4611 34.9338 10.2433 34.2096C10.2104 34.1007 10.1704 33.9809 10.2543 33.88C10.8157 33.2028 10.8137 32.3657 10.9216 31.5596C10.9376 31.4467 10.9615 31.3339 10.9845 31.221C11.2003 30.1392 11.7157 29.7996 12.7985 30.0263C12.9243 30.0523 13.0482 30.0943 13.175 30.1132C13.4617 30.1542 13.5726 30.302 13.5936 30.6007C13.7184 32.3767 13.8053 34.1547 13.8753 35.9337C13.9352 37.4829 14.0381 39.0292 14.108 40.5775C14.118 40.7972 14.2129 40.8931 14.4027 40.9231C14.6434 40.961 14.8851 40.992 15.1278 41.015C15.4275 41.0439 15.7312 41.0409 16.0278 41.0889C16.6112 41.1828 16.6921 41.2857 16.7011 41.87C16.7101 42.4464 16.6641 43.0147 16.4853 43.5701C16.3964 43.8468 16.2536 43.9976 15.9429 44.0066C14.3477 44.0515 12.7665 44.2523 11.1783 44.3852C10.2913 44.4591 9.40229 44.494 8.51429 44.566C8.1467 44.5949 7.95392 44.52 8.00486 44.0905C8.04582 43.7509 8.01385 43.4013 8.01385 43.0557Z" fill="#E63C17"/>
<path fill-rule="evenodd" clip-rule="evenodd" d="M14.1074 24.2168C13.6979 24.2397 13.3323 24.1279 13.0646 23.8562C12.7959 23.5815 12.5621 23.6394 12.2675 23.7743C11.6192 24.0699 10.9899 24.4305 10.2537 24.4805C10.1968 24.4845 10.1389 24.5074 10.0849 24.5024C9.78227 24.4775 9.42567 24.4735 9.26685 24.2058C9.13101 23.976 9.38372 23.7383 9.50758 23.5265C10.1379 22.4448 11.1268 21.8095 12.2575 21.365C12.8318 21.1392 13.4312 20.9974 14.0295 20.8545C14.2602 20.7996 14.428 20.8585 14.5319 21.0623C15.0054 21.9913 15.0783 22.9422 14.6878 23.9211C14.5749 24.2098 14.3431 24.2278 14.1074 24.2168Z" fill="#E63C17"/>
<path fill-rule="evenodd" clip-rule="evenodd" d="M12.3414 25.7339C13.3333 25.7329 13.9796 26.3422 13.9466 27.2322C13.9396 27.4339 13.8837 27.5029 13.6779 27.5029C12.732 27.5039 11.834 27.7136 11.0069 28.1811C10.8092 28.292 10.7133 28.247 10.5904 28.0762C10.1089 27.394 10.2518 26.6189 10.963 26.1404C11.3555 25.8747 11.83 25.7349 12.3414 25.7339Z" fill="#E63C17"/>
</g>
<defs>
<clipPath id="clip0">
<rect width="60" height="59.9995" fill="white"/>
</clipPath>
</defs>
</svg>
