<svg width="60" height="60" viewBox="0 0 60 60" fill="none" xmlns="http://www.w3.org/2000/svg">
<g clip-path="url(#clip0)">
<rect width="60" height="60" fill="#31A7DF"/>
<path d="M24.2662 24.7547C26.6838 24.7547 28.6436 22.7949 28.6436 20.3773C28.6436 17.9598 26.6838 16 24.2662 16C21.8487 16 19.8889 17.9598 19.8889 20.3773C19.8889 22.7949 21.8487 24.7547 24.2662 24.7547Z" fill="white"/>
<path d="M45.6227 24.7547C48.0402 24.7547 50 22.7949 50 20.3773C50 17.9598 48.0402 16 45.6227 16C43.2051 16 41.2453 17.9598 41.2453 20.3773C41.2453 22.7949 43.2051 24.7547 45.6227 24.7547Z" fill="white"/>
<path d="M20.0376 19.1554C20.0248 19.2552 20.0843 19.3679 19.9765 19.4451C19.9716 19.3453 19.9652 19.2423 20.0376 19.1554Z" fill="#35AED1"/>
<path d="M48.8013 19.512C49.2134 20.7146 48.6693 22.2408 47.6663 23.0168C46.3655 24.023 44.6123 23.9232 43.4821 22.9379C42.4888 22.0718 42.133 20.9786 42.3874 19.6859C42.3987 19.6295 42.4083 19.5748 42.4212 19.5201C42.4792 19.4444 42.5613 19.4766 42.6321 19.4766C44.6155 19.475 46.5989 19.475 48.5839 19.4766C48.6564 19.4782 48.7353 19.4525 48.8013 19.512Z" fill="#31A7DF"/>
<path d="M48.8014 19.5117C46.6731 19.5133 44.5464 19.5165 42.4213 19.5197C42.4809 19.4102 42.5871 19.4489 42.6741 19.4489C44.6285 19.4473 46.5861 19.4473 48.5438 19.4489C48.6291 19.4473 48.7354 19.4119 48.8014 19.5117Z" fill="#3DA4CA"/>
<path d="M38.7346 37.6718C37.7847 36.6785 36.8333 35.6884 35.8786 34.6999C35.7836 34.6001 35.7498 34.5357 35.8657 34.4262C36.3954 33.9207 36.917 33.4071 37.4434 32.8936C37.5755 32.797 37.6865 32.6875 37.7815 32.5555H37.7831C37.9892 32.3881 38.1727 32.1965 38.3466 31.9952C38.7539 31.5911 39.1677 31.1935 39.5701 30.7846C40.1626 30.1809 40.8114 29.6287 41.312 28.9396C41.5181 28.6563 41.6727 28.3472 41.6839 27.9833C41.7065 27.2058 41.3684 26.6294 40.6794 26.2962C39.9694 25.9516 39.2642 26.0064 38.6428 26.5183C38.1566 26.9208 37.7606 27.4167 37.3307 27.8755C35.9221 29.3759 34.5134 30.8828 33.0999 32.3784C32.8343 32.6601 32.53 32.9064 32.245 33.164C32.208 33.1061 32.2354 32.9966 32.2354 32.9016C32.2338 31.2724 32.2354 29.6448 32.2338 28.0155C32.2338 27.9045 32.2644 27.7869 32.1919 27.6855C32.1968 27.6694 32.1951 27.6517 32.1887 27.6388C32.1855 27.5728 32.1887 27.5052 32.1742 27.4456C31.9569 26.5135 31.2018 26.0337 30.0652 26.1078C29.2265 26.1642 28.5535 26.8548 28.465 27.7515C28.4602 27.8449 28.4473 27.9383 28.4473 28.0316C28.4473 32.8163 28.4473 37.5993 28.4489 42.3808C28.4489 42.5176 28.4151 42.6641 28.4924 42.7945C28.5101 42.8718 28.4956 42.9603 28.56 43.0231V43.0247C28.5745 43.0778 28.5793 43.1358 28.6018 43.1873C28.9319 43.9585 29.8173 44.3642 30.7591 44.1838C31.6027 44.0229 32.2306 43.2839 32.2322 42.4258C32.2354 40.4424 32.2322 38.4542 32.2338 36.4676C32.2338 36.3694 32.208 36.2647 32.2611 36.1649C32.3658 36.1874 32.4141 36.2744 32.4737 36.3388C32.9099 36.8072 33.343 37.2773 33.7777 37.749C34.5891 38.6264 35.3908 39.5103 36.2103 40.3812C37.2277 41.4663 38.1985 42.5884 39.2626 43.6333C39.7472 44.1082 40.322 44.2965 40.9917 44.1967C41.9174 44.0534 42.5678 43.4449 42.542 42.4693C42.5243 41.8575 42.2619 41.3842 41.8675 40.964C40.8307 39.858 39.7826 38.7665 38.7346 37.6718Z" fill="white"/>
<path d="M19.9184 26.2293C16.8772 26.2277 13.8329 26.2293 10.7918 26.2293C9.50225 26.2293 8.67798 27.4158 9.1207 28.6329C9.38473 29.359 9.94175 29.718 10.8192 29.7212C11.6096 29.7244 12.4017 29.7212 13.1922 29.7228C13.3016 29.7228 13.4272 29.6922 13.4771 29.8371C13.4755 29.8661 13.4675 29.8934 13.4675 29.9192C13.4675 34.1017 13.4675 38.2843 13.4675 42.4668C13.4675 42.6713 13.4819 42.8774 13.593 43.0625C13.6816 43.3957 13.8731 43.6565 14.1517 43.8481C14.8198 44.3069 15.541 44.3327 16.2445 44.0027C16.9465 43.6694 17.2089 43.0303 17.2089 42.2801C17.2105 38.2038 17.2121 34.1259 17.2057 30.048C17.2057 29.8017 17.2507 29.7035 17.5276 29.7115C18.2907 29.7325 19.0538 29.726 19.8137 29.7164C20.2999 29.7115 20.7716 29.6278 21.1403 29.2656C21.6329 28.7842 21.7826 27.9455 21.4993 27.2419C21.2514 26.6237 20.646 26.2309 19.9184 26.2293Z" fill="white"/>
<path d="M46.0991 26.1313C45.8302 26.0733 45.5566 26.083 45.2861 26.1103C44.4023 26.1989 43.718 26.9845 43.7631 27.7959C43.6891 27.9166 43.7148 28.0535 43.7148 28.1823C43.7132 32.8301 43.7132 37.4763 43.7148 42.1241C43.7148 42.2529 43.6891 42.3849 43.7631 42.5105C43.7696 42.6119 43.7663 42.7149 43.7889 42.8147C44.0062 43.7742 44.7613 44.2733 45.8641 44.1976C46.7704 44.1316 47.4096 43.4619 47.4884 42.4927C47.4917 42.409 47.5013 42.3253 47.5013 42.2384C47.5013 37.5053 47.5013 32.7705 47.5013 28.0358C47.5013 27.9601 47.4949 27.8861 47.4917 27.8104C47.4579 26.9668 46.9137 26.3067 46.0991 26.1313Z" fill="white"/>
<path d="M26.1924 27.6407C26.1666 27.3429 26.062 27.0757 25.8897 26.8326C25.4582 26.2192 24.84 26.0614 24.1301 26.0984C23.3251 26.1419 22.7069 26.6474 22.5153 27.4314C22.4477 27.7003 22.4542 27.974 22.4542 28.2444C22.4542 32.7232 22.4542 37.2004 22.4542 41.6791C22.4542 41.9593 22.4445 42.2426 22.4622 42.5227C22.5347 43.5337 23.2414 44.1906 24.2637 44.2067C25.3584 44.2228 26.0845 43.6255 26.194 42.6113C26.2085 42.3488 26.2374 42.0848 26.2374 41.8256C26.2391 37.5095 26.2423 33.1933 26.2342 28.8771C26.231 28.465 26.2777 28.0497 26.1924 27.6407Z" fill="white"/>
<path d="M20.719 20.1844C20.719 22.1436 22.3064 23.731 24.2656 23.731C26.2249 23.731 27.8122 22.1436 27.8122 20.1844C27.8122 20.1731 27.809 20.1618 27.809 20.1505H20.7222C20.7222 20.1618 20.719 20.1731 20.719 20.1844Z" fill="#31A7DF"/>
</g>
<defs>
<clipPath id="clip0">
<rect width="60" height="59.9995" fill="white"/>
</clipPath>
</defs>
</svg>
