<svg width="60" height="60" viewBox="0 0 60 60" fill="none" xmlns="http://www.w3.org/2000/svg">
<rect width="60" height="60" fill="#518EF8" fill-opacity="0.36"/>
<path d="M46.4303 17.2194H30.1936L38.8308 43.2115L31.9829 50.4717H46.4311C48.5385 50.4717 50.2648 48.7454 50.2648 46.6393V21.051C50.2648 18.9443 48.5378 17.2194 46.4303 17.2194Z" fill="#DCDCDC"/>
<path d="M28.9099 43.2115L31.7194 50.7905L39.1304 42.9551L28.9099 43.2115Z" fill="#3C4DA1"/>
<path d="M46.4325 50.4711C48.5399 50.4711 50.2663 48.7447 50.2663 46.6387V36.0986L30.2524 17.2995L30.2326 17.3363L38.833 43.2108L31.9851 50.4711H46.4325Z" fill="url(#paint0_linear)"/>
<path opacity="0.8" d="M47.0397 29.2015V27.3483H40.4617V25.0815H38.4797V27.3483H33.3708V29.2015H42.572C42.3524 29.8978 41.6568 31.5469 39.5323 34.0192C38.6065 32.8475 37.8875 31.8076 37.3937 31.0532H35.2785C35.7099 31.7771 36.7399 33.4071 38.3061 35.3644C37.6098 36.0877 36.8051 36.8662 35.8728 37.7L37.0636 39.0339C37.9704 38.2256 38.7616 37.4634 39.4622 36.7458C40.8194 38.3021 42.4756 39.9668 44.4095 41.4955L45.5174 40.0936C43.6331 38.6017 42.0152 36.9526 40.6898 35.419C43.6785 32.023 44.2933 29.8921 44.4187 29.2015H47.0397Z" fill="#65828F"/>
<path d="M27.7622 10H13.008C10.8985 10 9.17426 11.7256 9.17426 13.8324V39.4207C9.17426 41.5288 10.8992 43.2523 13.008 43.2523H37.2976C37.8381 43.2523 38.3531 43.1362 38.8199 42.9329L27.7622 10Z" fill="#518EF8"/>
<path d="M28.4859 26.2504C26.1214 26.2497 23.7589 26.2497 21.3958 26.2497C21.3972 27.2308 21.3951 28.2112 21.3972 29.1902C22.7644 29.1895 24.1322 29.1895 25.503 29.1902C25.3414 30.1302 24.7847 30.9888 23.9913 31.518C23.4961 31.8523 22.923 32.0705 22.333 32.1732C21.7407 32.2738 21.1273 32.2866 20.5379 32.1661C19.933 32.0457 19.3592 31.7971 18.8576 31.4429C18.0579 30.8797 17.4459 30.0566 17.1313 29.1293C16.8097 28.1857 16.8069 27.1373 17.1334 26.1944C17.3573 25.53 17.7342 24.9172 18.2265 24.4178C18.8343 23.7951 19.6255 23.351 20.477 23.1689C21.2059 23.0117 21.9752 23.0428 22.6893 23.2575C23.2949 23.4424 23.8546 23.7746 24.315 24.2131C24.7754 23.7533 25.2387 23.2886 25.6999 22.8275C25.9436 22.5795 26.1979 22.3422 26.4302 22.0865C25.7303 21.4369 24.9051 20.9141 24.0069 20.584C22.3882 19.9876 20.562 19.9762 18.932 20.5394C17.0945 21.1698 15.5304 22.5427 14.6619 24.2783C14.3616 24.8768 14.1413 25.5151 14.0074 26.1725C13.6744 27.8089 13.9082 29.5529 14.6619 31.044C15.1528 32.0181 15.857 32.8823 16.7098 33.5609C17.5153 34.202 18.4532 34.6759 19.4477 34.9409C20.703 35.2774 22.039 35.2703 23.3027 34.982C24.4432 34.7199 25.5249 34.1744 26.3863 33.3775C27.2994 32.5395 27.9504 31.4358 28.294 30.2492C28.6694 28.9571 28.7204 27.5744 28.4859 26.2504Z" fill="white"/>
<defs>
<linearGradient id="paint0_linear" x1="30.2328" y1="33.885" x2="50.2667" y2="33.885" gradientUnits="userSpaceOnUse">
<stop stop-color="#C9C7C8"/>
<stop offset="0.3501" stop-color="#CECCCD"/>
<stop offset="0.7738" stop-color="#DBDADA"/>
<stop offset="1" stop-color="#E6E6E5"/>
</linearGradient>
</defs>
</svg>
