<svg width="60" height="60" viewBox="0 0 60 60" fill="none" xmlns="http://www.w3.org/2000/svg">
<g clip-path="url(#clip0)">
<path d="M60 0H0V60H60V0Z" fill="#303895"/>
<path fill-rule="evenodd" clip-rule="evenodd" d="M31.228 47.718C31.228 48.705 31.228 47.372 31.228 48.2C31.228 49.535 31.213 50.867 31.235 52.199C31.243 52.675 31.11 52.854 30.596 52.876C28.643 52.954 28.667 52.976 28.638 51.057C28.581 47.347 28.814 47.962 28.478 44.258C28.235 41.599 27.752 38.989 26.879 36.458C25.366 32.083 22.464 28.872 18.467 26.66C17.402 26.072 16.998 25.431 17.089 24.225C17.207 22.631 17.116 22.623 18.616 23.244C22.156 24.705 25.701 26.153 29.228 27.638C29.778 27.87 30.21 27.847 30.747 27.621C34.482 26.052 38.24 24.534 41.972 22.964C42.664 22.671 42.73 22.829 42.824 23.53C43.048 25.21 42.449 26.169 40.932 27.018C35.523 30.056 32.899 35.001 31.917 40.95C31.676 42.421 31.529 43.904 31.363 45.386" fill="white"/>
<path fill-rule="evenodd" clip-rule="evenodd" d="M29.959 18.39C28.279 18.39 26.6 18.371 24.922 18.4C24.375 18.41 24.13 18.295 24.127 17.679C24.127 14.486 26.795 11.854 30.052 11.876C33.272 11.898 35.881 14.52 35.879 17.682C35.877 18.298 35.639 18.41 35.089 18.4C33.382 18.371 31.672 18.39 29.959 18.39Z" fill="white"/>
<path fill-rule="evenodd" clip-rule="evenodd" d="M23.659 14.98C23.34 15.981 23.068 16.928 23.151 17.918C23.19 18.38 22.999 18.522 22.572 18.566C20.336 18.806 18.108 19.09 15.872 19.323C14.503 19.466 14.008 18.991 13.996 17.629C13.992 16.903 13.974 16.171 14.004 15.446C14.038 14.491 14.586 13.945 15.525 14.043C18.229 14.326 20.929 14.662 23.659 14.98Z" fill="white"/>
<path fill-rule="evenodd" clip-rule="evenodd" d="M46.01 16.725C46.01 19.378 45.858 19.508 43.159 19.194C41.305 18.978 39.45 18.762 37.595 18.586C37.054 18.534 36.783 18.395 36.858 17.792C36.938 17.127 36.862 16.436 36.597 15.834C36.243 15.03 36.611 14.917 37.274 14.846C39.632 14.596 41.988 14.299 44.347 14.049C45.446 13.931 45.98 14.451 46.01 15.585C46.019 15.964 46.01 16.344 46.01 16.725Z" fill="white"/>
<path fill-rule="evenodd" clip-rule="evenodd" d="M30.063 19.4C31.71 19.4 33.358 19.395 35.002 19.405C35.291 19.405 35.61 19.292 35.709 19.793C36.25 22.562 34.588 25.591 31.956 26.557C28.343 27.881 24.544 25.316 24.323 21.397C24.21 19.4 24.21 19.4 26.171 19.4C27.468 19.4 28.768 19.4 30.063 19.4ZM29.925 25.625C32.304 25.665 34.36 23.702 34.41 21.388C34.423 20.862 34.298 20.676 33.742 20.682C31.242 20.71 28.742 20.715 26.246 20.681C25.647 20.673 25.594 20.924 25.605 21.411C25.673 23.658 27.634 25.591 29.925 25.625Z" fill="white"/>
<path fill-rule="evenodd" clip-rule="evenodd" d="M34.688 12.582C31.559 10.255 28.521 10.238 25.383 12.543C25.193 10.797 25.634 9.35501 26.928 8.26301C28.486 6.95001 30.286 6.76401 32.088 7.61701C34.06 8.55001 34.794 10.268 34.688 12.582Z" fill="white"/>
</g>
<defs>
<clipPath id="clip0">
<rect width="60" height="59.9995" fill="white"/>
</clipPath>
</defs>
</svg>
