<svg width="60" height="60" viewBox="0 0 60 60" fill="none" xmlns="http://www.w3.org/2000/svg">
<g clip-path="url(#clip0)">
<path d="M60 0H0V60H60V0Z" fill="#383737"/>
<path d="M22.932 48.7164C23.203 48.2274 23.367 47.6304 23.367 46.9774C23.367 46.8164 23.313 46.6524 23.313 46.4884C23.203 46.4884 22.389 46.3814 21.519 46.9244C21.03 47.2494 20.325 47.5214 19.618 47.6854C21.139 48.8794 22.769 48.6074 22.932 48.7164Z" fill="#E6E6E6"/>
<path d="M16.25 47.6844C16.14 47.6304 16.033 47.5764 15.924 47.5204C16.195 49.3694 17.716 50.7264 19.618 50.7264C20.432 50.7264 21.193 50.4554 21.791 50.0194C21.031 49.9654 19.89 49.6944 18.64 48.6624C18.422 48.4454 18.206 48.2274 18.043 47.9564C17.934 47.9564 17.825 47.9564 17.716 47.9564C17.173 47.9554 16.629 47.8474 16.25 47.6844Z" fill="#E6E6E6"/>
<path d="M22.824 45.0764C22.171 43.9884 20.976 43.2274 19.618 43.2274C19.075 43.2274 18.586 43.2834 18.151 43.4984C18.206 43.6084 18.422 45.5094 18.804 46.4864C19.565 46.3794 20.325 46.1074 20.814 45.7804C21.737 45.1844 22.389 45.0214 22.824 45.0764Z" fill="#E6E6E6"/>
<path d="M17.39 46.5984C17.119 45.7274 17.011 44.9124 16.955 44.3694C16.575 44.7494 16.249 45.1834 16.086 45.7264C16.195 46.2694 16.629 46.3794 16.793 46.4334C16.956 46.5414 17.173 46.5414 17.39 46.5984Z" fill="#E6E6E6"/>
<path d="M15.38 24.0524L20.65 28.5064C21.303 29.0494 22.335 28.9944 22.932 28.2884C22.986 28.1804 23.096 28.0724 23.15 27.9084C23.204 27.7994 23.204 27.7454 23.258 27.6904L24.779 24.4854L27.876 31.0054C27.93 31.1694 27.983 31.2764 28.093 31.3864C28.037 31.4414 27.93 31.5484 27.876 31.6574L24.018 37.7964V37.8504C23.42 38.3934 23.257 39.3714 23.692 40.1324L28.201 48.1734C28.744 49.0414 29.885 49.3684 30.809 48.8794C31.679 48.3364 32.004 47.1944 31.515 46.2704L27.603 39.2634L31.135 33.6684C31.298 33.3974 31.406 33.0154 31.406 32.6894L35.806 38.8284C35.861 38.8824 35.915 38.9914 35.969 39.0464C36.349 39.5344 36.892 39.8064 37.436 39.8064C37.491 39.8064 37.545 39.8064 37.599 39.8064H37.653C37.979 39.8064 38.36 39.6974 38.632 39.4814C38.686 39.4814 38.74 39.4254 38.795 39.3724L44.444 35.0804C45.314 34.4834 45.423 33.2874 44.825 32.4194C44.227 31.5494 42.977 31.3874 42.163 32.0374L37.979 35.2434L33.471 28.9414C33.415 28.8874 33.361 28.8334 33.307 28.7784C33.307 28.7234 33.307 28.6164 33.253 28.5604L29.503 20.6834L33.47 19.4334L38.249 23.0744C38.956 23.6174 39.988 23.4544 40.531 22.7494C41.075 22.0424 40.911 21.0104 40.205 20.4674L35.045 16.5554C34.719 16.1754 34.338 15.9574 33.849 15.9574C33.742 15.9574 33.686 15.9574 33.631 15.9574H33.577C33.359 15.9574 33.142 16.0124 32.98 16.1204L26.677 18.1314C26.569 18.1314 26.514 18.1864 26.406 18.2394C26.352 18.2394 26.243 18.2394 26.189 18.2934L24.342 19.1624C24.233 19.2184 24.178 19.2714 24.071 19.3254C23.744 19.4894 23.419 19.7064 23.256 20.0864L21.083 24.6494L17.443 21.5524C16.791 21.0094 15.759 21.0634 15.161 21.7704C14.619 22.4214 14.674 23.4534 15.38 24.0524Z" fill="#E6E6E6"/>
<path d="M23.312 16.5544C25.3223 16.5544 26.952 14.9247 26.952 12.9144C26.952 10.9041 25.3223 9.27441 23.312 9.27441C21.3017 9.27441 19.672 10.9041 19.672 12.9144C19.672 14.9247 21.3017 16.5544 23.312 16.5544Z" fill="#E6E6E6"/>
</g>
<defs>
<clipPath id="clip0">
<rect width="60" height="59.9995" fill="white"/>
</clipPath>
</defs>
</svg>
