<svg width="60" height="60" viewBox="0 0 60 60" fill="none" xmlns="http://www.w3.org/2000/svg">
<g clip-path="url(#clip0)">
<path d="M60 0H0V60H60V0Z" fill="#3383BD"/>
<path d="M29.9991 17.2367C29.9991 17.2367 22.4801 11.5897 9.57812 12.1607V42.8507C9.57812 42.8507 22.1481 42.2357 30.1181 47.8797C30.1181 47.8797 36.2841 42.9947 50.4201 42.9467V12.1607C50.4201 12.1607 35.8111 11.8277 29.9991 17.2367ZM27.6991 41.0027C24.1891 38.8187 14.8911 37.9187 14.8911 37.9187V17.1887C22.1481 17.3307 27.6991 20.5567 27.6991 20.5567V41.0027ZM45.3451 37.6377C41.0291 37.4007 32.5371 40.7687 32.5371 40.7687V33.2737C37.8501 30.2367 45.3451 29.9997 45.3451 29.9997V37.6377ZM45.3451 24.8257C41.0291 24.5887 32.5371 27.9567 32.5371 27.9567V20.4617C37.8501 17.4257 45.3451 17.1887 45.3451 17.1887V24.8257Z" fill="white"/>
</g>
<defs>
<clipPath id="clip0">
<rect width="60" height="59.9995" fill="white"/>
</clipPath>
</defs>
</svg>
