<svg xmlns="http://www.w3.org/2000/svg" width="60" height="60" fill="none"><g clip-path="url(#clip0)"><path fill="#6E9A78" d="M60 0H0v60h60V0z"/><path fill="#6E9A78" fill-rule="evenodd" d="M6.96 30c0 7.73.02 15.46-.02 23.18 0 1.13.22 1.6 1.48 1.58 5.06-.07 10.12-.05 15.18 0 1.08 0 1.48-.27 1.48-1.42-.04-15.56-.04-31.12 0-46.68 0-1.16-.41-1.42-1.48-1.41-5.01.04-10.02.07-15.03-.01-1.4-.03-1.65.49-1.64 1.75.05 7.67.03 15.34.03 23.01zm34.89-.62c2.45 0 4.9-.04 7.36.01a2.61 2.61 0 0 0 2.57-1.55c.81-1.63.85-3.4.84-5.16 0-.2-.1-.54-.2-.57a7.61 7.61 0 0 0-3.17-.07c-.9.15-.53 1.06-.53 1.62.01 1.3-.53 1.8-1.83 1.78-3.3-.04-6.61-.03-9.92.04-1.43.04-1.85-.59-1.82-1.92.06-2.99.07-5.98-.01-8.96-.03-1.26.35-1.69 1.63-1.66 3.35.07 6.72.08 10.07 0 1.3-.03 1.93.32 1.75 1.67-.15 1.09.29 1.6 1.4 1.5.43-.03.86 0 1.28.05 1.01.13 1.3-.32 1.27-1.28-.06-1.54-.07-3.1.02-4.63.07-1.12-.4-1.36-1.4-1.33-1.86.06-3.73-.02-5.6.04-1.07.03-1.8-.13-1.6-1.44.12-.87-.37-1.13-1.15-1.08-.48.02-.96.04-1.44-.01-1.12-.13-1.58.33-1.42 1.44.14 1.02-.38 1.28-1.31 1.25-1.92-.06-3.85.04-5.76-.1-1.55-.1-2.14.28-2.08 1.99.13 4.31.03 8.64.05 12.96.01.79.07 1.6.25 2.37.48 2.09 1.73 3.03 3.87 3.04h6.88zm-5.8 21.51c1.88 2.68 4.22 2.99 6.79 2.85 2.07-.11 4.16-.1 6.23 0 1.27.07 1.62-.35 1.6-1.6-.07-4.58-.02-9.16-.03-13.75 0-.94.1-1.73 1.31-1.73 1.57 0 1-1.17 1.06-1.97.07-.92-.2-1.52-1.33-1.44-1.28.09-2.57.1-3.84 0-1.35-.12-1.71.4-1.69 1.71.07 4.37.04 8.74.01 13.12 0 .54.2 1.2-.45 1.58-1.82 1.1-5.28-.1-5.94-2.13-1.2-3.75-2.32-7.53-3.5-11.3-1.13-3.6-.31-2.82-4.06-2.97-1.27-.05-1.4.39-1.06 1.48 1.34 4.43 2.62 8.89 3.92 13.33.5 1.75.51 1.75-1.35 1.76-1.2 0-2.62-.46-2.4 1.76.2 2.11.04 2.13 2.18 2.13.48 0 .96-.04 1.43 0 .77.07 1.07-.26 1.02-1-.02-.42.05-.84.1-1.83zm3.78-31.87c0 2.3 0 2.3 1.88 2.3 2.4-.01 2.4-.01 2.4-2.23 0-2.26 0-2.26-2.2-2.26-2.08 0-2.08 0-2.08 2.2zm3.03 16.69c0-2.44 0-2.33-1.91-2.48-1.62-.12-2.15.38-2.04 2.01.15 2.16.04 2.07 1.97 2.2 1.54.1 2.38-.25 1.98-1.73z" clip-rule="evenodd"/><path fill="#FBFCFB" fill-rule="evenodd" d="M6.96 30c0-7.67.02-15.34-.03-23.01 0-1.26.24-1.78 1.64-1.75 5 .08 10.02.05 15.03 0 1.07 0 1.48.26 1.48 1.42-.04 15.56-.04 31.12 0 46.68 0 1.15-.4 1.43-1.48 1.42-5.06-.05-10.12-.07-15.18 0-1.26.02-1.49-.45-1.48-1.57.04-7.73.02-15.46.02-23.19zm2.27 14.05c0 1.28.06 2.56-.02 3.83-.06 1.08.36 1.34 1.38 1.34 2.84 0 2.84.05 2.9 2.77.01.16.02.32.01.48-.05.74.38.87 1 .87 1.34 0 .85-1 .86-1.61.07-2.3.04-2.31 2.23-2.53.44-.04.9-.02.9-.63 0-.44.25-1.06-.33-1.27a4.2 4.2 0 0 0-1.57-.13c-.85.04-1.25-.2-1.23-1.15.01-.99.57-.97 1.24-.96 1.02.02 2.03.06 3.04-.01.98-.07 1.32.3 1.3 1.27-.06 1.97-.01 3.94-.02 5.92 0 .66.11 1.1.95 1.12.88 0 .92-.48.92-1.13 0-2.56-.06-5.12.02-7.67.04-1.2-.34-1.58-1.53-1.54-2.98.07-5.97.01-8.96.02-.72 0-1.22-.08-1.24-1-.03-1 .46-1.15 1.28-1.13 1.7.04 3.4-.01 5.11.02.73 0 1.06-.21 1.06-1 0-.77-.3-1.03-1.04-1.03-2.4.02-4.8.03-7.2 0-.86-.02-1.1.36-1.07 1.15.04 1.33.01 2.66.01 4zm-.48-16.2c0 1.4.03 2.78-.01 4.17-.03.83.33 1.14 1.14 1.12 1.12-.04 2.24 0 3.36 0 2.87 0 2.87 0 3.01 2.89l.02.48c0 .54.3.73.81.74.56.02.94-.13.94-.78 0-.74.04-1.49.02-2.24-.02-.68.17-1.04.97-1.11 2.78-.26 2.78-.3 2.77-3.09 0-.75-.02-1.5 0-2.24.04-.7-.27-.93-.95-.92-.67.01-.96.28-.94.96.03.7 0 1.39.01 2.08.02.65-.04 1.12-.91 1.11-.84-.01-.96-.43-.96-1.1.02-1.98.02-3.95 0-5.92 0-.57.11-1.21-.8-1.25-.98-.05-.98.57-.98 1.25 0 2.02-.02 4.05 0 6.08 0 .68-.29.92-.96.93-.71.01-.94-.28-.91-.95.03-.74-.03-1.5 0-2.24.03-.68-.26-.94-.94-.95-.66 0-.98.22-.95.92.03.7 0 1.39 0 2.08.02.62.04 1.14-.87 1.15-.93.01-1.02-.48-1.01-1.2.02-1.98 0-3.95 0-5.92.01-.64-.02-1.17-.9-1.15-.8 0-.98.42-.97 1.11.02 1.33 0 2.66 0 4zm9.1-10.64c.97 0 1.54-.06 2.1.01 1.24.17 1.74-.3 1.62-1.58-.1-1-.1-2.03 0-3.03.13-1.32-.45-1.64-1.65-1.58-1.6.08-3.2 0-4.8.02-.76.02-1.01-.31-1-1.05 0-.7.16-1.13.97-1.08.59.04 1.18-.02 1.76 0 .71.04 1.07-.18 1.06-.98 0-.75-.25-1.04-1.01-1.04-2.45.03-4.9.04-7.35 0-.83 0-.96.4-.96 1.1 0 .68.27.97.95.92.37-.02.75.05 1.11 0 1.25-.18 1.66.31 1.63 1.58-.08 3.25-.02 6.5-.03 9.75 0 .67.12 1.1.95 1.1.86.02.96-.43.93-1.1a15.1 15.1 0 0 1 .01-1.75c.04-.43-.25-1.03.38-1.24.56-.18 1.01.05 1.4.5.8.94 1.64 1.83 2.46 2.74.37.42.68.81 1.26.19.5-.53.59-.93.03-1.46-.56-.54-1.04-1.15-1.82-2.02zM41.85 29.38h-6.88c-2.14 0-3.38-.95-3.87-3.04-.18-.77-.24-1.58-.24-2.37-.03-4.32.08-8.65-.06-12.96-.05-1.71.53-2.1 2.08-1.99 1.91.14 3.84.04 5.76.1.93.03 1.45-.23 1.3-1.25-.15-1.11.31-1.57 1.43-1.44.48.06.96.03 1.44 0 .78-.04 1.27.22 1.15 1.09-.19 1.32.54 1.47 1.6 1.44 1.87-.06 3.74.02 5.6-.04 1-.03 1.47.21 1.4 1.33a47.2 47.2 0 0 0-.02 4.64c.03.95-.26 1.4-1.26 1.27a6.07 6.07 0 0 0-1.28-.04c-1.12.08-1.56-.42-1.41-1.5.18-1.36-.45-1.71-1.75-1.68-3.35.08-6.72.07-10.07 0-1.27-.03-1.66.4-1.63 1.66.08 2.98.07 5.97 0 8.96-.02 1.34.4 1.96 1.83 1.92 3.3-.07 6.62-.08 9.92-.04 1.3.01 1.84-.47 1.83-1.78 0-.55-.36-1.47.53-1.62a7.61 7.61 0 0 1 3.16.08c.12.03.2.37.2.56.02 1.77-.01 3.54-.83 5.16a2.62 2.62 0 0 1-2.57 1.55c-2.45-.05-4.9-.01-7.36-.01zM36.06 50.9c-.06.98-.13 1.4-.1 1.81.04.75-.26 1.08-1.03 1.01-.47-.04-.96 0-1.44 0-2.14 0-1.97-.02-2.17-2.13-.22-2.22 1.19-1.75 2.4-1.76 1.86-.02 1.86 0 1.35-1.76-1.3-4.44-2.58-8.9-3.92-13.33-.33-1.1-.21-1.53 1.06-1.48 3.75.15 2.93-.62 4.06 2.98 1.18 3.76 2.3 7.53 3.5 11.28.66 2.04 4.12 3.23 5.94 2.14.65-.39.45-1.04.45-1.59.03-4.37.06-8.74-.01-13.1-.02-1.32.34-1.84 1.7-1.72 1.26.1 2.55.09 3.83 0 1.13-.08 1.4.52 1.33 1.44-.05.8.5 1.97-1.06 1.97-1.2 0-1.32.79-1.31 1.73.01 4.58-.04 9.17.03 13.75.02 1.25-.33 1.67-1.6 1.6-2.08-.1-4.16-.11-6.23 0-2.57.14-4.9-.17-6.78-2.85z" clip-rule="evenodd"/><path fill="#FBFCFB" fill-rule="evenodd" d="M39.83 19.02c0-2.2 0-2.2 2.08-2.2 2.2 0 2.2 0 2.2 2.27 0 2.22 0 2.22-2.4 2.22-1.88 0-1.88 0-1.88-2.29zM42.86 35.7c.4 1.48-.44 1.83-1.98 1.74-1.93-.13-1.82-.04-1.97-2.2-.1-1.63.42-2.13 2.04-2 1.9.14 1.91.03 1.91 2.47z" clip-rule="evenodd"/><path fill="#709C7B" fill-rule="evenodd" d="M9.23 44.05c0-1.34.03-2.67 0-4-.03-.79.2-1.17 1.07-1.15 2.4.04 4.8.02 7.2 0 .73 0 1.03.26 1.03 1.03 0 .79-.33 1-1.06 1-1.7-.03-3.4.02-5.11-.02-.82-.02-1.31.14-1.28 1.12.02.93.53 1.02 1.24 1.01 2.99-.01 5.98.05 8.96-.02 1.2-.03 1.57.34 1.53 1.54-.08 2.55-.03 5.11-.02 7.67 0 .65-.04 1.14-.92 1.13-.84-.02-.95-.46-.95-1.12.01-1.98-.04-3.95.02-5.92.02-.98-.32-1.34-1.3-1.27-1 .07-2.02.03-3.04.01-.67 0-1.23-.03-1.24.96-.02.96.38 1.2 1.23 1.15a4.2 4.2 0 0 1 1.57.13c.58.21.32.83.33 1.27.01.62-.46.59-.9.63-2.19.22-2.16.23-2.22 2.53-.02.61.47 1.62-.86 1.62-.63 0-1.06-.14-1-.87L13.5 52c-.07-2.73-.07-2.77-2.9-2.77-1.03 0-1.45-.27-1.39-1.34.08-1.28.02-2.56.02-3.84zm3.14 1.03c-.78-.1-1.32 0-1.3 1.02.02.86.36 1.1 1.15 1.08.76-.02 1.32-.06 1.3-1.09-.02-.87-.36-1.14-1.15-1zM8.75 27.86v-4c-.02-.7.16-1.1.96-1.12.88-.01.9.52.9 1.15 0 1.98.02 3.95 0 5.92 0 .73.07 1.22 1.01 1.2.9 0 .89-.52.88-1.14-.02-.7.02-1.39-.01-2.08-.04-.7.29-.93.95-.92.68 0 .97.27.94.95-.03.75.02 1.5 0 2.24-.03.67.2.96.9.95.68-.01.97-.25.97-.94-.02-2.02 0-4.05 0-6.07 0-.69 0-1.3.97-1.26.92.05.8.68.81 1.25.02 1.98.02 3.95 0 5.92 0 .68.12 1.1.95 1.1.88.02.94-.45.92-1.1-.02-.7.02-1.39 0-2.08-.03-.68.26-.95.93-.96.68-.01.99.22.96.92-.03.74 0 1.5 0 2.24 0 2.8 0 2.83-2.79 3.09-.8.07-.98.43-.96 1.11.02.75-.02 1.5-.02 2.24 0 .65-.39.8-.94.78-.5-.01-.81-.2-.82-.75l-.01-.48c-.14-2.89-.14-2.89-3.01-2.9-1.12 0-2.24-.02-3.36.01-.81.03-1.17-.28-1.14-1.12.04-1.38 0-2.77 0-4.15zM17.85 17.2c.78.88 1.26 1.5 1.82 2.03.56.54.47.93-.03 1.46-.58.62-.9.23-1.27-.19-.81-.91-1.65-1.8-2.45-2.73-.39-.46-.84-.69-1.4-.5-.63.2-.34.8-.38 1.23a15.1 15.1 0 0 0 0 1.76c.02.66-.08 1.11-.94 1.1-.83-.01-.95-.44-.95-1.11.01-3.25-.05-6.5.03-9.75.03-1.27-.38-1.76-1.63-1.58-.36.05-.74-.02-1.11 0-.68.05-.95-.24-.95-.93 0-.69.13-1.1.96-1.09 2.45.04 4.9.03 7.35 0 .76 0 1 .3 1.01 1.04 0 .8-.35 1.02-1.06.99-.59-.03-1.17.03-1.76 0-.8-.06-.97.37-.97 1.07-.01.74.24 1.07 1 1.05 1.6-.03 3.2.06 4.8-.02 1.2-.06 1.78.26 1.65 1.58-.1 1-.1 2.03 0 3.03.12 1.28-.38 1.75-1.62 1.58-.56-.07-1.13-.01-2.1-.01zm-1-2.03c.64 0 1.27-.02 1.91 0 .77.04 1-.35 1-1.07.01-.72-.23-1.06-1-1.04-1.22.04-2.44.04-3.66 0-.79-.03-.98.34-.98 1.05 0 .73.22 1.1.99 1.06.58-.02 1.16 0 1.74 0z" clip-rule="evenodd"/><path fill="#FBFCFB" fill-rule="evenodd" d="M12.37 45.08c.8-.13 1.13.14 1.15 1.01.02 1.03-.54 1.07-1.3 1.09-.8.01-1.13-.22-1.15-1.08-.02-1.03.52-1.12 1.3-1.02zM16.85 15.17c-.58 0-1.16-.02-1.74 0-.77.04-1-.33-1-1.06 0-.71.2-1.08 1-1.05 1.2.04 2.43.04 3.64 0 .77-.03 1.02.31 1.02 1.04 0 .72-.24 1.1-1.01 1.07-.64-.02-1.27 0-1.9 0z" clip-rule="evenodd"/></g><defs><clipPath id="clip0"><path fill="#fff" d="M0 0h60v60H0z"/></clipPath></defs></svg>