<svg width="60" height="60" viewBox="0 0 60 60" fill="none" xmlns="http://www.w3.org/2000/svg">
<g clip-path="url(#clip0)">
<path d="M60 0H0V60H60V0Z" fill="#E22C22"/>
<path d="M26.9104 35.0238C26.8694 33.7758 26.9494 32.5248 26.8824 31.2798C26.8394 30.4398 27.0544 30.0118 27.9644 30.1628C28.7974 30.3008 29.0144 29.9238 28.9984 29.1158C28.9504 26.6198 28.9544 24.1228 28.9984 21.6248C29.0114 20.8668 28.7984 20.5108 28.0234 20.6508C27.0334 20.8248 26.8654 20.3488 26.8814 19.4638C26.9364 16.8898 26.9024 14.3108 26.9024 11.7348C26.8164 11.6878 26.7294 11.6378 26.6414 11.5908C21.9304 17.7138 17.2194 23.8408 12.3574 30.1618C13.8384 30.1618 15.0384 30.2158 16.2304 30.1438C17.0794 30.0918 17.2654 30.4218 17.2584 31.2078C17.2204 34.7428 17.2304 38.2798 17.2514 41.8198C17.2544 42.4768 17.3124 43.1508 17.4584 43.7928C18.1134 46.6268 20.8124 48.5778 23.7594 48.3938C26.6114 48.2128 28.8934 46.1248 29.0364 43.3558C29.1534 41.0448 29.0614 38.7258 29.0614 36.3558C27.5254 36.8348 26.9574 36.4538 26.9104 35.0238Z" fill="white"/>
<path d="M45.4614 35.0238C45.4204 33.7758 45.4994 32.5248 45.4334 31.2798C45.3904 30.4398 45.6054 30.0118 46.5144 30.1628C47.3484 30.3008 47.5644 29.9238 47.5474 29.1158C47.4994 26.6198 47.5034 24.1228 47.5474 21.6248C47.5614 20.8668 47.3484 20.5108 46.5734 20.6508C45.5834 20.8248 45.4154 20.3488 45.4304 19.4638C45.4864 16.8898 45.4514 14.3108 45.4514 11.7348C45.3654 11.6878 45.2784 11.6378 45.1904 11.5908C40.4794 17.7138 35.7684 23.8408 30.9074 30.1618C32.3884 30.1618 33.5884 30.2158 34.7794 30.1438C35.6294 30.0918 35.8144 30.4218 35.8074 31.2078C35.7704 34.7428 35.7794 38.2798 35.8004 41.8198C35.8034 42.4768 35.8614 43.1508 36.0074 43.7928C36.6614 46.6268 39.3614 48.5778 42.3084 48.3938C45.1604 48.2128 47.4424 46.1248 47.5844 43.3558C47.7004 41.0448 47.6094 38.7258 47.6094 36.3558C46.0764 36.8348 45.5084 36.4538 45.4614 35.0238Z" fill="white"/>
</g>
<defs>
<clipPath id="clip0">
<rect width="60" height="59.9995" fill="white"/>
</clipPath>
</defs>
</svg>
