<svg width="60" height="60" viewBox="0 0 60 60" fill="none" xmlns="http://www.w3.org/2000/svg">
<rect width="60" height="60" fill="white"/>
<path fill-rule="evenodd" clip-rule="evenodd" d="M0.00706912 30.0006C0.00706912 20.1152 0.00824464 10.231 1.56388e-05 0.344442C-0.00115993 0.0634806 0.0634962 0 0.344458 0C20.114 0.008229 39.886 0.008229 59.6556 0C59.9365 0 60 0.0634806 60 0.344442C59.9929 20.114 59.9929 39.886 60 59.6556C60 59.9365 59.9365 60 59.6556 60C39.886 59.9929 20.114 59.9929 0.344458 60C0.0634962 60 -0.00115993 59.9365 1.56388e-05 59.6556C0.00824464 49.7714 0.00706912 39.886 0.00706912 30.0006Z" fill="#76B243"/>
<path d="M36.9566 42.4873H20.6714L39.3524 16.1992C39.5463 15.9205 39.6486 15.6725 39.7133 15.435C39.9449 14.9554 40.0847 14.424 40.0847 13.8551C40.0847 11.8343 38.4472 10.1979 36.4275 10.1979H14.6901C12.6693 10.1979 11.0329 11.8354 11.0329 13.8551C11.0329 15.8747 12.6704 17.5123 14.6901 17.5123H29.5305L11.7323 42.4379C11.6712 42.5249 11.6324 42.6201 11.5795 42.7106L10.6426 44.1648L10.6484 44.166C10.257 44.7362 10.0254 45.4145 10.0254 46.1445C10.0254 48.1653 11.7617 49.8017 13.9036 49.8017H36.9566C39.0984 49.8017 40.8348 48.1641 40.8348 46.1445C40.8348 44.1249 39.0984 42.4873 36.9566 42.4873Z" fill="white"/>
<path d="M38.7886 29.118H33.274C32.7568 29.118 32.3359 29.5377 32.3359 30.0561C32.3359 30.5745 32.7556 30.9942 33.274 30.9942H34.9457C34.9398 31.0365 34.921 31.0741 34.921 31.1188V38.606C34.921 39.2185 35.4195 39.7158 36.0319 39.7158C36.6456 39.7158 37.1428 39.2185 37.1428 38.606V31.1188C37.1428 31.0741 37.1217 31.0365 37.1182 30.9942H38.7898C39.3071 30.9942 39.7279 30.5745 39.7279 30.0561C39.7279 29.5377 39.3059 29.118 38.7886 29.118Z" fill="white"/>
<path d="M49.2823 28.9878C48.7157 28.7527 48.0727 29.0054 47.8458 29.5497L45.2654 35.7709L42.685 29.5497C42.4593 29.0054 41.8163 28.7527 41.2485 28.9878C40.683 29.2229 40.4056 29.8566 40.6313 30.4008L44.2168 39.0436C44.2732 39.1976 44.3555 39.3434 44.4778 39.461C44.6823 39.6702 44.9656 39.7901 45.2666 39.7866C45.5675 39.7901 45.8508 39.669 46.0554 39.461C46.1776 39.3422 46.2599 39.1965 46.3164 39.0436L49.9019 30.4008C50.1252 29.8566 49.849 29.2229 49.2823 28.9878Z" fill="white"/>
</svg>
