<svg width="60" height="60" viewBox="0 0 60 60" fill="none" xmlns="http://www.w3.org/2000/svg">
<g clip-path="url(#clip0)">
<path d="M60 0H0V60H60V0Z" fill="#424242"/>
<path d="M47.1562 19.2702H34.2339L38.4199 15.1513C38.9202 14.6592 38.9202 13.8614 38.4199 13.3688C37.921 12.8771 37.1086 12.8771 36.6088 13.3688L30.6099 19.2702H30.3897L24.3917 13.3688C23.8914 12.8771 23.079 12.8771 22.5788 13.3688C22.0789 13.8614 22.0789 14.6596 22.5788 15.1513L26.7661 19.2702H13.8438C11.7207 19.2702 10 20.9629 10 23.0515V43.2187C10 45.3059 11.7207 47 13.8438 47H47.1562C49.2798 47 51 45.3059 51 43.2187V23.0515C51 20.9633 49.2798 19.2702 47.1562 19.2702ZM39.4687 40.6977C39.4687 42.0898 38.3211 43.2187 36.9065 43.2187H17.6876C16.2725 43.2187 15.1253 42.0893 15.1253 40.6977V26.8328C15.1253 25.4407 16.2725 24.3122 17.6876 24.3122H36.9065C38.3216 24.3122 39.4687 25.4411 39.4687 26.8328V40.6977ZM45.8747 40.6977C44.4595 40.6977 43.3124 39.5688 43.3124 38.1771C43.3124 36.7836 44.46 35.6566 45.8747 35.6566C47.2893 35.6566 48.4373 36.7841 48.4373 38.1771C48.4378 39.5692 47.2898 40.6977 45.8747 40.6977ZM45.8747 31.8748C44.4595 31.8748 43.3124 30.7463 43.3124 29.3533C43.3124 27.9612 44.46 26.8323 45.8747 26.8323C47.2893 26.8323 48.4373 27.9612 48.4373 29.3533C48.4378 30.7468 47.2898 31.8748 45.8747 31.8748Z" fill="#F5F5F5"/>
</g>
<defs>
<clipPath id="clip0">
<rect width="60" height="59.9995" fill="white"/>
</clipPath>
</defs>
</svg>
