<svg width="60" height="60" viewBox="0 0 60 60" fill="none" xmlns="http://www.w3.org/2000/svg">
<g clip-path="url(#clip0)">
<rect width="60" height="59.9995" fill="#6D6E71"/>
<path d="M60 0H0V60H60V0Z" fill="#50ABF1"/>
<path d="M7.94995 44.4763C11.9431 47.0089 16.6798 48.4745 21.7574 48.4745C36.0223 48.4745 47.5858 36.9096 47.5858 22.6461C47.5858 22.29 47.5783 21.9365 47.5646 21.584C48.0806 21.178 51.2717 18.6203 52.0539 16.976C52.0539 16.976 49.4625 18.053 46.9262 18.3067C46.9212 18.3067 46.915 18.3079 46.91 18.3079C46.91 18.3079 46.915 18.3054 46.9237 18.2992C47.1574 18.143 50.4246 15.919 50.867 13.269C50.867 13.269 49.0341 14.2473 46.4677 15.1032C46.0428 15.2444 45.5981 15.3831 45.1395 15.5118C43.4853 13.7462 41.1339 12.6443 38.5238 12.6443C33.5173 12.6443 29.4604 16.7 29.4604 21.7026C29.4604 22.4086 29.5416 23.0957 29.6953 23.7554C28.9957 23.7267 18.3416 23.1294 11.0936 14.3521C11.0936 14.3521 6.76188 20.2657 13.675 26.3467C13.675 26.3467 11.5735 26.263 9.76049 25.1797C9.76049 25.1797 9.09457 32.3439 16.9235 34.1757C16.9235 34.1757 15.383 34.7592 12.9254 34.3431C12.9254 34.3431 14.2997 40.1318 21.2554 40.6728C21.2554 40.6728 15.7552 45.6415 7.94745 44.4757L7.94995 44.4763Z" fill="white"/>
</g>
<defs>
<clipPath id="clip0">
<rect width="60" height="59.9995" fill="white"/>
</clipPath>
</defs>
</svg>
