<svg xmlns="http://www.w3.org/2000/svg" width="60" height="60" fill="none"><g clip-path="url(#clip0)"><path fill="#ECEBE8" d="M0 0h60v60H0z"/><path fill="url(#paint0_linear)" d="M39.67 46.27a75.78 75.78 0 0 0 10.56-22.64c.52-1.8 1.2-4.26 1.05-6.5-.15-2.34-1.17-4.46-3.53-5.6a4.87 4.87 0 0 1 2.18 2.84 6.44 6.44 0 0 1-.22 3.49 46.5 46.5 0 0 1-3.43 7.92l-.12.22V26A67.6 67.6 0 0 1 40.8 34c-2.85 3.89-4.52 3.32-7.19.68a63.55 63.55 0 0 1-11.3-15.6l-.05-.09c-.2-.39-.38-.78-.56-1.17l-.03-.05a29.23 29.23 0 0 1-.91-2.26l-.05-.15a11.1 11.1 0 0 1-.3-1.08 6 6 0 0 1-.12-.88c-.03-.49.02-.93.15-1.34.4-1.22 1.57-2.1 3.78-2.54-3.85.53-8.6 1.67-11.77 3.69-2.9 1.84-4.71 4.73-2.37 10.4a72.3 72.3 0 0 0 7.23 13.15 51.8 51.8 0 0 0 8.77 9.5c4.96 4.11 9.2 6.07 13.6 0z"/><path fill="url(#paint1_linear)" d="M20.43 12.07c-.13.4-.18.85-.15 1.33.01.27.06.57.12.89l.03.11a11.1 11.1 0 0 0 .32 1.11 18.88 18.88 0 0 0 .9 2.27l.03.05c.18.4.37.78.57 1.17l.04.1a58.4 58.4 0 0 0 1.84 3.33c4.6-.68 16.54-1.43 20.73.74 1.39.73 1.43 1.7 1.3 2.82l.12-.22a48.58 48.58 0 0 0 1.6-3.2c.65-1.45 1.27-3 1.83-4.72.37-1.24.5-2.42.21-3.48a4.88 4.88 0 0 0-2.17-2.84h-.02c-.9-.48-1.95-.83-2.89-1.1a43.88 43.88 0 0 0-8.9-1.35c-.96-.07-1.95-.08-2.95-.08h-1c-2.44.01-5.1.16-7.77.52h-.02.03c-2.23.45-3.4 1.32-3.8 2.55z"/><path fill="url(#paint2_linear)" d="M21.68 17.83l-.02-.05.02.05z"/><path fill="url(#paint3_linear)" d="M21.68 17.83l-.02-.05.02.05z"/><path fill="url(#paint4_linear)" d="M46.16 26l.12-.22-.12.2V26z"/><path fill="url(#paint5_linear)" d="M46.16 26l.12-.22-.12.2V26z"/><path fill="url(#paint6_linear)" d="M22.3 19.1z"/><path fill="url(#paint7_linear)" d="M22.3 19.1z"/><path fill="url(#paint8_linear)" d="M20.43 14.4l-.03-.11.03.11z"/><path fill="url(#paint9_linear)" d="M20.43 14.4l-.03-.11.03.11z"/><path fill="url(#paint10_linear)" d="M49.7 17.86z"/><path fill="url(#paint11_linear)" d="M49.7 17.86z"/><path fill="url(#paint12_linear)" d="M21.15 16.61z"/><path fill="url(#paint13_linear)" d="M21.15 16.61z"/><path fill="url(#paint14_linear)" d="M20.43 12.07c.4-1.23 1.57-2.1 3.8-2.55h-.03c-2.2.46-3.37 1.33-3.77 2.55z"/><path fill="url(#paint15_linear)" d="M20.43 12.07c.4-1.23 1.57-2.1 3.8-2.55h-.03c-2.2.46-3.37 1.33-3.77 2.55z"/><path fill="url(#paint16_linear)" d="M20.75 15.52l-.05-.15.05.15z"/><path fill="url(#paint17_linear)" d="M20.75 15.52l-.05-.15.05.15z"/></g><defs><linearGradient id="paint0_linear" x1="46.14" x2="12.43" y1="35.39" y2="11.78" gradientUnits="userSpaceOnUse"><stop stop-color="#006840"/><stop offset=".4" stop-color="#007A48"/><stop offset="1" stop-color="#86C440"/></linearGradient><linearGradient id="paint1_linear" x1="24.99" x2="44.95" y1="9.31" y2="23.29" gradientUnits="userSpaceOnUse"><stop stop-color="#006840"/><stop offset=".3" stop-color="#007A48"/><stop offset="1" stop-color="#86C440"/></linearGradient><linearGradient id="paint2_linear" x1="46.35" x2="12.64" y1="35.09" y2="11.49" gradientUnits="userSpaceOnUse"><stop stop-color="#006840"/><stop offset=".4" stop-color="#007A48"/><stop offset="1" stop-color="#86C440"/></linearGradient><linearGradient id="paint3_linear" x1="19.9" x2="39.87" y1="16.57" y2="30.54" gradientUnits="userSpaceOnUse"><stop stop-color="#006840"/><stop offset=".3" stop-color="#007A48"/><stop offset="1" stop-color="#86C440"/></linearGradient><linearGradient id="paint4_linear" x1="50.63" x2="16.91" y1="28.98" y2="5.37" gradientUnits="userSpaceOnUse"><stop stop-color="#006840"/><stop offset=".4" stop-color="#007A48"/><stop offset="1" stop-color="#86C440"/></linearGradient><linearGradient id="paint5_linear" x1="24.18" x2="44.15" y1="10.46" y2="24.43" gradientUnits="userSpaceOnUse"><stop stop-color="#006840"/><stop offset=".3" stop-color="#007A48"/><stop offset="1" stop-color="#86C440"/></linearGradient><linearGradient id="paint6_linear" x1="45.96" x2="12.25" y1="35.64" y2="12.04" gradientUnits="userSpaceOnUse"><stop stop-color="#006840"/><stop offset=".4" stop-color="#007A48"/><stop offset="1" stop-color="#86C440"/></linearGradient><linearGradient id="paint7_linear" x1="19.52" x2="39.48" y1="17.12" y2="31.09" gradientUnits="userSpaceOnUse"><stop stop-color="#006840"/><stop offset=".3" stop-color="#007A48"/><stop offset="1" stop-color="#86C440"/></linearGradient><linearGradient id="paint8_linear" x1="47.57" x2="13.85" y1="33.35" y2="9.75" gradientUnits="userSpaceOnUse"><stop stop-color="#006840"/><stop offset=".4" stop-color="#007A48"/><stop offset="1" stop-color="#86C440"/></linearGradient><linearGradient id="paint9_linear" x1="21.12" x2="41.08" y1="14.83" y2="28.8" gradientUnits="userSpaceOnUse"><stop stop-color="#006840"/><stop offset=".3" stop-color="#007A48"/><stop offset="1" stop-color="#86C440"/></linearGradient><linearGradient id="paint10_linear" x1="55" x2="21.28" y1="22.75" y2="-.86" gradientUnits="userSpaceOnUse"><stop stop-color="#006840"/><stop offset=".4" stop-color="#007A48"/><stop offset="1" stop-color="#86C440"/></linearGradient><linearGradient id="paint11_linear" x1="28.55" x2="48.52" y1="4.21" y2="18.19" gradientUnits="userSpaceOnUse"><stop stop-color="#006840"/><stop offset=".3" stop-color="#007A48"/><stop offset="1" stop-color="#86C440"/></linearGradient><linearGradient id="paint12_linear" x1="45.5" x2="13.42" y1="33.66" y2="11.2" gradientUnits="userSpaceOnUse"><stop stop-color="#006840"/><stop offset=".4" stop-color="#007A48"/><stop offset="1" stop-color="#86C440"/></linearGradient><linearGradient id="paint13_linear" x1="20.34" x2="39.33" y1="16.03" y2="29.32" gradientUnits="userSpaceOnUse"><stop stop-color="#006840"/><stop offset=".3" stop-color="#007A48"/><stop offset="1" stop-color="#86C440"/></linearGradient><linearGradient id="paint14_linear" x1="49.87" x2="16.15" y1="30.07" y2="6.46" gradientUnits="userSpaceOnUse"><stop stop-color="#006840"/><stop offset=".4" stop-color="#007A48"/><stop offset="1" stop-color="#86C440"/></linearGradient><linearGradient id="paint15_linear" x1="23.42" x2="43.38" y1="11.55" y2="25.53" gradientUnits="userSpaceOnUse"><stop stop-color="#006840"/><stop offset=".3" stop-color="#007A48"/><stop offset="1" stop-color="#86C440"/></linearGradient><linearGradient id="paint16_linear" x1="47.15" x2="13.44" y1="33.95" y2="10.34" gradientUnits="userSpaceOnUse"><stop stop-color="#006840"/><stop offset=".4" stop-color="#007A48"/><stop offset="1" stop-color="#86C440"/></linearGradient><linearGradient id="paint17_linear" x1="20.71" x2="40.67" y1="15.42" y2="29.4" gradientUnits="userSpaceOnUse"><stop stop-color="#006840"/><stop offset=".3" stop-color="#007A48"/><stop offset="1" stop-color="#86C440"/></linearGradient><clipPath id="clip0"><path fill="#fff" d="M0 0h60v60H0z"/></clipPath></defs></svg>