<svg xmlns="http://www.w3.org/2000/svg" width="60" height="60" fill="none"><g clip-path="url(#clip0)"><path fill="#FAA822" d="M60 0H0v60h60V0z"/><path fill="#231F20" fill-rule="evenodd" d="M19.32 14.08c-.66-.15-1.3-.33-1.97-.45-.47-.07-.77.13-.77.67v14.95c0 .26.11.42.26.6.35.46.3.98-.11 1.31-.4.33-.82.34-1.22.01s-.48-.86-.13-1.3c.2-.24.22-.48.22-.76l.01-15.32c0-.44-.14-.58-.54-.65-.81-.14-1.62-.33-2.43-.5-.29-.06-.63-.1-.64-.49 0-.4.32-.44.62-.5l11.72-2.63c2.04-.46 4.09-.91 6.13-1.38a2.4 2.4 0 0 1 1.12 0l16.64 3.9.31.08c.24.06.46.17.46.45 0 .31-.24.43-.5.48l-3.23.71c-.86.2-1.73.42-2.6.57-.48.08-.6.28-.6.75.02 8.2 0 16.4.02 24.61 0 .52-.14.9-.49 1.3-3.38 3.83-6.73 7.68-10.1 11.53-.61.7-.68.7-1.3 0L19.9 40.4c-.29-.32-.4-.64-.4-1.07V14.78c0-.22.1-.46-.1-.66-.05.04-.07.02-.08-.04z" clip-rule="evenodd"/><path fill="#FBAD23" fill-rule="evenodd" d="M19.32 14.08c.04-.01.07 0 .09.04v25.93c-.19-.35-.13-.59-.13-.81V14.95c0-.31.12-.7-.57-.8l.61-.07z" clip-rule="evenodd"/><path fill="#282525" fill-rule="evenodd" d="M41.16 16.01v4.26c0 .38-.07.52-.5.6-2.71.49-5.47.7-8.18 1.16-1.66.3-3.21-.04-4.8-.24-1.88-.23-3.75-.54-5.62-.82l-.68-.11c-.96-.15-.96-.15-.96-1.14v-3.3c0-.22-.08-.47.13-.66.25-.2.53-.1.79-.05 2.88.58 5.77 1.14 8.64 1.75.7.15 1.35.06 2-.05 2.78-.47 5.54-1 8.32-1.43.29-.05.58-.19.86.03z" clip-rule="evenodd"/><path fill="#FEDCB5" fill-rule="evenodd" d="M40.4 40.3c-.14.5-.56.8-.89 1.15-.24.16-.5.3-.54.63-.12.21-.28.4-.47.53-.21.1-.4.22-.42.5a.9.9 0 0 1-.35.38c-.24.16-.5.3-.55.63l-.34.39c-.24.16-.5.3-.55.63l-.34.38c-.24.17-.5.31-.55.64-.12.2-.27.38-.47.52-.21.1-.4.22-.42.5-.12.2-.27.38-.47.52-.21.1-.4.22-.42.5l-.35.38c-.29.23-.62.32-1 .3-.84-.02-1.69.02-2.53-.01-.7-.18-1-.83-1.41-1.3-1.92-2.2-3.85-4.36-5.74-6.58-.27-.31-.57-.55-1.02-.54-.15 0-.36.02-.36-.24l5.57-.04c.14-.12.32-.11.48-.11h6.8c.11 0 .22.01.31.05.67.15 1.35.06 2.02.07h3.34c.23 0 .47-.06.67.12z" clip-rule="evenodd"/><path fill="#282525" fill-rule="evenodd" d="M32 8.5c.13.34.46.28.7.34l8.44 1.95 5.35 1.27c-.97.24-1.76.45-2.56.62-1.45.33-2.92.64-4.37.96l-8.33 1.84c-.4.09-.8-.02-1.19-.1-3.45-.73-6.91-1.45-10.38-2.28l4.4-.9 5.31-1.11c.2-.04.58.02.53-.31a.57.57 0 0 0-.65-.49c-.56.07-1.13.16-1.68.27l-9.88 2.1c-.36.08-.67 0-.95-.21.36-.3.82-.32 1.24-.42L30.9 9.01c.17-.04.33-.07.5-.07.05 0 .09 0 .1-.02 0-.02-.02-.03-.04-.05.07-.13.18-.25.2-.41.11-.01.23-.04.34.05z" clip-rule="evenodd"/><path fill="#FCC017" fill-rule="evenodd" d="M28.68 22.9c1.32.2 2.63.3 3.96.13.16.06.33.04.5.02.68-.07.81.02.81.69.01 4.68.02 9.36 0 14.04l-.02.19c-.27 1.12-.27 1.11-1.44 1.12-1.14 0-2.28-.02-3.42.01a.22.22 0 0 1-.18-.14c-.02-5.2 0-10.39-.03-15.59-.05-.08-.16.03-.09 0 .04-.02.06-.02.06.02.1 5.2.04 10.4.03 15.6-.06.07-.13.08-.21.02-.2-.26-.17-.56-.17-.86V23.81c0-.31-.04-.64.2-.9z" clip-rule="evenodd"/><path fill="#F89A20" fill-rule="evenodd" d="M21.67 22c.91.08 1.82.16 2.72.36.48.18 1 .2 1.5.25.4.05.55.25.56.62v14.86c0 .33.07.69-.16.99-.16.12-.35.13-.54.13h-3.28c-.19 0-.38-.01-.54-.13-.23-.3-.16-.65-.16-.98V23.3c0-.32.04-.64-.1-.94-.06-.12-.07-.24 0-.36z" clip-rule="evenodd"/><path fill="#1D1A1B" fill-rule="evenodd" d="M41.16 16.01c-2.1.37-4.21.75-6.32 1.11-1.32.23-2.64.51-3.98.64-.62.05-1.27-.2-1.91-.33l-7.72-1.55-.68-.12c-.03-.08-.08-.16-.1-.24-.19-1.02-.05-1.21.94-1.02 1.92.36 3.83.78 5.75 1.18 1.13.24 2.26.49 3.4.7.79.14 1.53-.2 2.3-.36l7.88-1.7c.76-.17.45.5.53.78.09.27-.05.6-.1.91z" clip-rule="evenodd"/><path fill="#F26E24" fill-rule="evenodd" d="M39.52 22.04c1.62-.25 1.61-.25 1.62 1.33v15.9c-.5.32-1.03.27-1.55.03-.16-.22-.14-.48-.14-.73v-16.3c0-.08.03-.16.07-.23z" clip-rule="evenodd"/><path fill="#FBF9F8" fill-rule="evenodd" d="M21.67 22l.03.24c.19.25.12.53.12.8a14421.46 14421.46 0 0 1 0 16.09.44.44 0 0 1-.13.2c-.42.11-.85.17-1.26-.04l-.03-7.25v-9.47c0-.78 0-.78.78-.67.16.02.33.07.5.1z" clip-rule="evenodd"/><path fill="#FBF9F6" fill-rule="evenodd" d="M28.68 22.9v15.37c0 .26.02.5.03.76.03.04.05.08.05.13a.14.14 0 0 1-.09.1c-1.27.04-1.27.04-1.27-1.2V23.59c0-.92 0-.92.91-.77l.37.09z" clip-rule="evenodd"/><path fill="#FEFEFE" fill-rule="evenodd" d="M21.21 40.2c1.36-.05 1.84 1.13 2.55 1.9 1.73 1.89 3.36 3.85 5.06 5.76.25.28.42.64.76.84.07.06.18.09.17.21a.24.24 0 0 1-.14.14c-.3.05-.59.03-.89.01-.21-.1-.41-.2-.43-.48-1.33-1.67-2.8-3.21-4.2-4.82-.65-.75-1.33-1.48-2-2.21-.31-.16-.55-.4-.67-.73-.03-.2-.22-.29-.33-.44-.11-.15-.06-.21.12-.17z" clip-rule="evenodd"/><path fill="#FAFAFA" fill-rule="evenodd" d="M31.58 8.53l.24.17-.38.16c-.73.36-1.53.44-2.3.62-2.85.66-5.7 1.34-8.54 1.99-1.46.33-2.9.7-4.36 1.01-.36.08-.71.11-1-.17l-.5-.17.38-.18c.96-.45 2.02-.53 3.04-.76 3.5-.8 6.98-1.6 10.48-2.37l2.04-.45c.32-.07.62-.07.9.15z" clip-rule="evenodd"/><path fill="#F9A11F" fill-rule="evenodd" d="M39.52 22.04v.08c.07.14.05.29.05.43v16.4c0 .11 0 .22-.03.32-.12.15-.28.19-.45.19-1.33-.01-2.65.07-3.97-.05a1.18 1.18 0 0 1-.21-.12c.02-1.41.05-2.83-.04-4.24V23.73c0-.33-.07-.68.18-.97l4.47-.72z" clip-rule="evenodd"/><path fill="#211D21" fill-rule="evenodd" d="M35.04 35.13l-.04 3.4c0 .25-.05.5-.07.74.03.04.04.07.03.1-.01.03-.03.05-.04.05-.17-.15-.12-.35-.12-.54-.18-5.15-.12-10.3-.13-15.45l.01-.45c.01-.15.12-.2.26-.22.1.22.04.46.05.69v11c0 .22-.05.46.05.68z" clip-rule="evenodd"/><path fill="#1A1722" fill-rule="evenodd" d="M34.06 23c.44-.06.21.29.21.41.02 1.4.02 2.8.02 4.2l-.01 11c0 .24.17.59-.26.67-.19-.2-.17-.47-.17-.72.12-4.94.02-9.89.06-14.84 0-.24-.08-.51.15-.71z" clip-rule="evenodd"/><path fill="#1E1B1B" fill-rule="evenodd" d="M15.23 12.31c.53.28 1.07.09 1.56-.04 4.6-1.16 9.23-2.16 13.84-3.26l.8-.15.53.07-14.85 3.5c-.12.03-.25.01-.38.02-.69.37-1.36.08-2.03-.1l.53-.04z" clip-rule="evenodd"/><path fill="#1C1A1A" fill-rule="evenodd" d="M31.58 8.53c-1.05-.17-2.02.25-3 .47-4.41.96-8.81 1.97-13.21 2.95-.08.02-.17 0-.25 0-.15 0-.29-.02-.43-.04v-.07l7.49-1.68c2.78-.62 5.57-1.25 8.36-1.86a2 2 0 0 1 1.46.2l-.42.03z" clip-rule="evenodd"/><path fill="#FDD40E" fill-rule="evenodd" d="M28.7 39.16l.01-.13h.11c.04-.06.08-.06.13 0h.13c1.17-.14 2.36-.03 3.54-.06 1.01-.01 1.01 0 1.16-.95l.01-14.03c0-.6-.07-1-.8-.86a.37.37 0 0 1-.35-.1l1.26-.14c.12.18.07.37.07.56V38.7c0 .18.05.38-.07.55l-.06.01h-.06c-1.46-.1-2.93-.02-4.4-.05-.22 0-.46.05-.68-.06z" clip-rule="evenodd"/><path fill="#171417" fill-rule="evenodd" d="M34.4 40.2l-7.62-.03c-.2-.2-.44-.11-.66-.12h-4.45c-.2 0-.41.06-.7-.13h12.78c.23 0 .48-.07.66.13.03.03.04.07.03.1 0 .03-.02.05-.03.05z" clip-rule="evenodd"/><path fill="#F8A823" fill-rule="evenodd" d="M26.27 39.03l.01-15.55c0-.47-.05-.76-.6-.79-.6-.03-1.2-.16-1.81-.25.15-.14.35-.03.52-.08.68.03 1.35.1 2.02.26.16.22.12.49.12.74v15.19c0 .24.05.5-.14.73h.01c-.04.05-.09.06-.14.04a.27.27 0 0 1-.06-.15c0-.05.03-.1.07-.14z" clip-rule="evenodd"/><path fill="#0C090A" fill-rule="evenodd" d="M20.26 21.9v17.25h-.06V21.9h.06z" clip-rule="evenodd"/><path fill="#0E1320" fill-rule="evenodd" d="M26.53 22.62c.26.06.12.27.12.4V38.7c0 .2.07.43-.13.59-.09-.16-.05-.33-.05-.5V23.12c0-.17-.04-.34.06-.5z" clip-rule="evenodd"/><path fill="#7D5627" fill-rule="evenodd" d="M26.53 22.62V39.3l-.14-.01.01-15.64.01-1.02a.5.5 0 0 1 .12 0z" clip-rule="evenodd"/><path fill="#060404" fill-rule="evenodd" d="M27.27 22.92v16.2h-.06V22.9l.06.02z" clip-rule="evenodd"/><path fill="#BB9E2D" fill-rule="evenodd" d="M33.9 39.26V22.89c.1-.02.13.05.16.12l-.02 15.07-.02 1.2-.12-.02z" clip-rule="evenodd"/><path fill="#151721" fill-rule="evenodd" d="M16.44 14.12v15.33h-.04V14.12h.04z" clip-rule="evenodd"/><path fill="#181921" fill-rule="evenodd" d="M34.92 39.41l.01-.14.13.06c1.8.05 3.61 0 5.42.03.23 0 .46-.07.68.06-.05.31-.3.25-.5.25h-5.14c-.24 0-.47.01-.6-.26z" clip-rule="evenodd"/><path fill="#F89A20" fill-rule="evenodd" d="M35.04 35.13c-.12-.2-.07-.4-.07-.62l-.03-11.75a.2.2 0 0 1 .11 0l-.01 12.37z" clip-rule="evenodd"/><path fill="#0A0A0E" fill-rule="evenodd" d="M34.41 40.2v-.15l5.57.01c.15 0 .48-.17.42.24-1.8 0-3.59-.02-5.38-.03-.2 0-.42.07-.61-.07z" clip-rule="evenodd"/><path fill="#15141D" fill-rule="evenodd" d="M27.6 39.44h6.28v.06h-6.32l.05-.06z" clip-rule="evenodd"/><path fill="#67391E" fill-rule="evenodd" d="M41.16 39.42h-5.63c-.16 0-.34.05-.48-.09l4.45-.03c.04-.09.08-.09.13 0 .5.01 1 .06 1.5-.04l.03.16z" clip-rule="evenodd"/><path fill="#191A21" fill-rule="evenodd" d="M26.4 39.42c.04.2-.12.12-.2.12h-5.37c-.15 0-.3.01-.4-.12 1.8-.23 3.62-.2 5.43-.18.2 0 .38.08.54.18z" clip-rule="evenodd"/><path fill="#403029" fill-rule="evenodd" d="M26.4 39.41h-5.98v-.12l1.25-.03c.27-.16.57-.1.86-.1h3.08c.22 0 .46-.03.67.1l.12.03v.12z" clip-rule="evenodd"/><path fill="#1D1C1D" fill-rule="evenodd" d="M28.29 48.58l.4.38c.97.16 1.93-.18 2.9-.06.47.06.97-.12 1.42.16-.07.05-.13.13-.2.13-1.32.01-2.65.03-3.97 0-.31 0-.67-.14-.55-.61z" clip-rule="evenodd"/><path fill="#BB9E2D" fill-rule="evenodd" d="M28.7 39.16l4.42.01c.22 0 .46-.07.66.1-1.7.04-3.4.05-5.1 0-.01-.04 0-.08.02-.1z" clip-rule="evenodd"/><path fill="#544641" fill-rule="evenodd" d="M33 49.06l-3.9.02c-.15 0-.3.02-.4-.12l1.01-.03c.98-.22 1.98-.05 2.96-.1.13 0 .24.03.34.11a.6.6 0 0 1 0 .12z" clip-rule="evenodd"/><path fill="#FDE9BF" fill-rule="evenodd" d="M33 48.94h-.24c-.8-.1-1.59-.02-2.38-.05-.23-.01-.46.06-.68-.06l-.12-.13h2.32c.46 0 .92.02 1.38-.12l-.27.36z" clip-rule="evenodd"/><path fill="#1E1D1D" fill-rule="evenodd" d="M21.42 40.82c.24.22.5.43.67.73-.4-.08-.7-.25-.67-.73z" clip-rule="evenodd"/><path fill="#F6ECC6" fill-rule="evenodd" d="M38.97 42.08c-.05-.4.19-.56.54-.63l-.54.63z" clip-rule="evenodd"/><path fill="#F6EDC6" fill-rule="evenodd" d="M37.18 44.12c-.05-.41.2-.57.55-.63l-.55.63z" clip-rule="evenodd"/><path fill="#F6ECC6" fill-rule="evenodd" d="M35.4 46.15c-.05-.4.2-.56.55-.63l-.55.63z" clip-rule="evenodd"/><path fill="#F7EDC6" fill-rule="evenodd" d="M36.3 45.14c-.06-.41.19-.57.54-.63l-.55.63z" clip-rule="evenodd"/><path fill="#F9EFC7" fill-rule="evenodd" d="M38.07 43.1c-.08-.35.09-.5.42-.5l-.42.5z" clip-rule="evenodd"/><path fill="#F8EFC7" fill-rule="evenodd" d="M34.51 47.17c-.07-.35.1-.5.42-.5l-.42.5z" clip-rule="evenodd"/><path fill="#F9EFC7" fill-rule="evenodd" d="M33.62 48.19c-.07-.35.09-.5.42-.5l-.42.5z" clip-rule="evenodd"/><path fill="#FBBB16" fill-rule="evenodd" d="M28.95 39.03h-.13V23.3h.13v15.74zM33.78 38.02c0 1.17.12 1-1 1.01h-3.7c.16-.19.39-.12.59-.12 1.07 0 2.14-.02 3.21 0 .5.02.9-.02.79-.68-.01-.06.07-.14.1-.21z" clip-rule="evenodd"/><path fill="#F7931E" fill-rule="evenodd" d="M21.7 39.03c-.01-1.07-.03-2.15-.03-3.23V22.94l.03-.7c.41.1.24.45.24.69l.01 16.1c-.08.07-.17.08-.25 0z" clip-rule="evenodd"/><path fill="#FAA320" fill-rule="evenodd" d="M21.7 39.03h4.57v.13c-1.52.1-3.05.11-4.58 0v-.13z" clip-rule="evenodd"/><path fill="#F89A20" fill-rule="evenodd" d="M39.63 39.3h-.13l.01-17.18c.2.22.11.48.11.73l.01 16.44z" clip-rule="evenodd"/><path fill="#E59525" fill-rule="evenodd" d="M21.7 39.16h4.57l.01.1h-4.61c0-.04 0-.07.03-.1z" clip-rule="evenodd"/><path fill="#F3DBB6" fill-rule="evenodd" d="M29.7 48.83c1.02.06 2.05-.13 3.06.1H29.7v-.1z" clip-rule="evenodd"/><path fill="#F89A20" fill-rule="evenodd" d="M39.38 30.72c0 2.57-.02 5.13.01 7.7.01.62-.2.78-.79.75-.95-.05-1.9-.02-2.86 0-.38 0-.57-.08-.57-.52a4260 4260 0 0 0 0-15.26c0-.32.06-.48.44-.53 1.14-.16 2.28-.37 3.42-.57.4-.07.34.2.34.43v8z" clip-rule="evenodd"/></g><defs><clipPath id="clip0"><path fill="#fff" d="M0 0h60v60H0z"/></clipPath></defs></svg>