<svg width="60" height="60" viewBox="0 0 60 60" fill="none" xmlns="http://www.w3.org/2000/svg">
<g clip-path="url(#clip0)">
<rect width="60" height="59.9995" fill="#F5F5F5"/>
<rect width="60" height="60" fill="#ECEBE8"/>
<path d="M54.6381 13.0085C54.5598 13.0521 54.4801 13.093 54.4051 13.1434C47.9951 17.5727 21.147 36.1242 21.147 36.1242L20.9658 36.2496L16.1474 39.5793C16.1474 39.3156 16.1474 39.1507 16.1474 38.9872C16.1474 35.9648 16.1419 32.9444 16.1542 29.9247C16.1555 29.6004 16.0915 29.4927 15.742 29.4948C12.2685 29.5091 8.79709 29.5036 5.325 29.5077C5.22552 29.5077 5.08653 29.4328 5 29.6154C10.8486 33.8976 14.1074 39.8634 16.129 46.6767C17.4739 45.5096 18.8346 44.3268 20.2115 43.1304C20.2115 43.1304 52.6125 14.9653 54.739 13.11C54.7601 13.0187 54.7281 12.9812 54.6381 13.0085Z" fill="#CC2027"/>
<path d="M20.045 29.4126C22.0502 29.4085 23.6343 27.8155 23.6357 25.8022C23.6357 23.7377 22.0372 22.1277 19.996 22.1366C17.9908 22.1455 16.3896 23.7752 16.3951 25.8056C16.3992 27.8285 18.0051 29.416 20.045 29.4126Z" fill="#CC2027"/>
<path d="M20.9655 36.2491L21.1467 36.1238C21.0813 36.164 21.0214 36.2055 20.9655 36.2491Z" fill="#CD252C"/>
</g>
<defs>
<clipPath id="clip0">
<rect width="60" height="59.9995" fill="white"/>
</clipPath>
</defs>
</svg>
