<svg width="60" height="60" viewBox="0 0 60 60" fill="none" xmlns="http://www.w3.org/2000/svg">
<g clip-path="url(#clip0)">
<path d="M60 0H0V60H60V0Z" fill="#68B52B"/>
<path fill-rule="evenodd" clip-rule="evenodd" d="M15.9124 23.9865C20.5384 27.9745 21.8154 33.2285 23.1574 38.7665C25.7904 32.4605 30.9644 29.6955 37.0654 27.6775C36.8354 28.5505 36.2744 28.6045 35.8724 28.8125C28.1804 32.8105 23.9734 39.0735 23.6894 47.7915C23.6284 49.6685 22.4204 49.0975 21.4434 49.2125C20.2364 49.3535 20.3744 48.5345 20.4824 47.8305C21.7604 39.5465 20.0434 31.8535 15.9464 24.6225C15.9084 24.5585 15.9344 24.4575 15.9124 23.9865Z" fill="white"/>
<path fill-rule="evenodd" clip-rule="evenodd" d="M45.4714 25.0365C44.1904 25.6025 42.9054 26.1495 41.4504 25.8285C42.0444 22.2115 45.3294 20.2325 48.5034 20.3745C50.8104 20.4795 53.1344 20.7095 55.4354 19.9365C54.0354 24.2365 47.8284 27.7015 42.7104 26.9965C43.7744 26.3925 45.0174 26.3235 45.6674 25.2965C45.7314 25.1965 45.7964 25.0965 45.8604 24.9965C45.7294 25.0085 45.6004 25.0225 45.4714 25.0365Z" fill="white"/>
<path fill-rule="evenodd" clip-rule="evenodd" d="M20.4484 21.7335C20.0874 23.0865 19.7104 24.4305 18.5464 25.3645C16.1004 22.6345 16.6144 18.8345 18.7134 16.4505C20.2394 14.7175 21.8744 13.0495 22.7134 10.7715C25.1874 14.5575 24.0014 21.5655 20.2464 25.1115C20.4424 23.9035 21.1664 22.8925 20.7734 21.7425C20.7344 21.6295 20.6974 21.5165 20.6604 21.4045C20.5894 21.5135 20.5184 21.6235 20.4484 21.7335Z" fill="white"/>
<path fill-rule="evenodd" clip-rule="evenodd" d="M39.0574 23.1505C39.0844 23.9465 39.1234 24.7385 39.6964 25.3435C41.5634 23.9265 41.7884 21.7185 40.8524 20.2285C40.1724 19.1435 39.4164 18.0905 39.2314 16.7355C37.1984 18.7555 36.9284 22.8405 38.7044 25.0975C38.7554 24.3935 38.4604 23.7715 38.8604 23.1355C38.8974 23.0725 38.9364 23.0105 38.9754 22.9485C39.0024 23.0165 39.0294 23.0835 39.0574 23.1505Z" fill="white"/>
<path fill-rule="evenodd" clip-rule="evenodd" d="M11.2384 19.5925C11.7404 20.2115 12.2494 20.8195 13.0714 20.9565C13.7074 18.7015 12.5574 16.8045 10.9124 16.1775C9.71641 15.7215 8.47941 15.3365 7.51441 14.3665C7.10841 17.2035 9.35441 20.6265 12.1284 21.3585C11.7464 20.7655 11.1354 20.4475 11.0724 19.6995C11.0664 19.6265 11.0594 19.5525 11.0524 19.4795C11.1134 19.5175 11.1764 19.5535 11.2384 19.5925Z" fill="white"/>
<path fill-rule="evenodd" clip-rule="evenodd" d="M11.8264 27.2215C12.7684 27.8815 15.3494 28.0845 16.5214 27.8905C16.4314 24.3005 12.4354 22.5295 9.93941 22.4075C8.12541 22.3185 6.28441 22.3505 4.56641 21.4025C5.21541 25.7285 8.85841 29.7915 15.3574 28.7635C14.5884 28.0835 12.0484 28.5175 11.6464 27.4585C11.6064 27.3555 11.5654 27.2525 11.5264 27.1495C11.6264 27.1725 11.7274 27.1955 11.8264 27.2215Z" fill="white"/>
</g>
<defs>
<clipPath id="clip0">
<rect width="60" height="59.9995" fill="white"/>
</clipPath>
</defs>
</svg>
