<svg width="60" height="60" viewBox="0 0 60 60" fill="none" xmlns="http://www.w3.org/2000/svg">
<g clip-path="url(#clip0)">
<path d="M60 0H0V60H60V0Z" fill="#1668B3"/>
<path d="M51.7028 44.5182C51.8615 44.1435 51.9462 43.7339 51.9462 43.3053V42.2426C51.9462 41.6341 51.7546 41.0435 51.4149 40.5418V24.9898C52.5664 24.3992 53.2904 23.1958 53.2565 21.8633C53.2184 20.3847 52.2415 19.1114 50.8296 18.6976L33.274 13.4935C31.1541 12.8373 28.8214 12.8362 26.6612 13.4861L9.14158 18.6965C7.6937 19.122 6.71892 20.427 6.7168 21.9448C6.71468 23.4646 7.68629 24.7749 9.13735 25.2057L14.3404 26.7467V35.1038C14.3404 37.2946 15.7512 39.1828 17.85 39.8041L22.2085 41.0911C24.7984 41.8616 27.474 42.2522 30.1602 42.2522C32.8464 42.2522 35.5199 41.8616 38.1024 41.0922L42.4651 39.8051C43.9511 39.367 45.0815 38.2895 45.6244 36.9274V40.5418C45.2847 41.0445 45.0931 41.6341 45.0931 42.2426V43.3053C45.0931 43.7381 45.1778 44.153 45.3355 44.5288L44.8888 45.5692C44.5755 46.3354 44.6295 47.1747 45.0381 47.8733C45.4466 48.5739 46.1578 49.0365 47.0532 49.1476L48.0344 49.2407L48.9044 49.2503L50.0908 49.1359C50.8465 49.0259 51.5133 48.5962 51.9208 47.9569C52.3336 47.3081 52.4405 46.5069 52.215 45.7597L51.7028 44.5182Z" fill="white"/>
<path d="M29.9826 31.7639C28.7687 31.7639 27.5674 31.585 26.418 31.2717L16.4564 28.2913V35.102C16.4564 36.3488 17.247 37.4178 18.4493 37.7724L22.812 39.0604C27.6224 40.4914 32.6985 40.4914 37.5025 39.0604L41.8663 37.7724C43.0739 37.4167 43.8698 36.3478 43.8698 35.102V28.2024L33.5441 31.2706C32.3799 31.6284 31.1903 31.7639 29.9826 31.7639Z" fill="#F36B22"/>
<path d="M50.2294 20.7261L32.6484 15.5135C30.9233 14.979 29.0457 14.979 27.2676 15.5135L9.74057 20.7261C8.53401 21.0807 8.53401 22.8164 9.74057 23.1752L27.3131 28.3794C29.0457 28.9138 30.9233 28.9138 32.7003 28.3794L47.7433 23.933V41.3902C47.4353 41.5701 47.2119 41.8866 47.2119 42.2422V43.3048C47.2119 43.7081 47.4353 44.0616 47.7835 44.196L46.851 46.371C46.7208 46.6896 46.8944 46.9954 47.2553 47.041L48.2365 47.1341C48.4111 47.1341 48.6291 47.1341 48.8069 47.1341L49.7912 47.041C50.1056 46.9954 50.2887 46.6896 50.1924 46.371L49.2652 44.196C49.6082 44.0161 49.8315 43.7081 49.8315 43.3048V42.2422C49.8315 41.8866 49.6081 41.5701 49.3002 41.3902V23.479L50.2887 23.1742C51.4371 22.772 51.4371 21.0807 50.2294 20.7261Z" fill="#F36B22"/>
</g>
<defs>
<clipPath id="clip0">
<rect width="60" height="59.9995" fill="white"/>
</clipPath>
</defs>
</svg>
