<svg width="60" height="60" viewBox="0 0 60 60" fill="none" xmlns="http://www.w3.org/2000/svg">
<g clip-path="url(#clip0)">
<path d="M60 0H0V60.0013H60V0Z" fill="#A1234F"/>
<path d="M9 11.875C9 8.9755 11.3505 6.625 14.25 6.625H45.75C48.6495 6.625 51 8.97551 51 11.875V48.625C51 51.5245 48.6495 53.875 45.75 53.875H14.25C11.3505 53.875 9 51.5245 9 48.625V11.875Z" fill="#A1234F"/>
<path d="M12.938 29.7775C12.938 24.0044 12.9369 18.2313 12.938 12.4581C12.938 10.8535 13.4273 10.3779 15.0607 10.3779C24.9345 10.3779 34.8061 10.3779 44.6799 10.3779C46.2099 10.3779 46.7555 10.9098 46.7636 12.4421C46.7739 14.4086 46.7785 16.3785 46.7624 18.3461C46.7475 19.8658 46.1823 20.416 44.673 20.4183C38.3095 20.4206 31.9459 20.4344 25.5824 20.4011C24.8105 20.3976 24.5325 20.5895 24.6164 21.3717C24.7301 22.402 24.1822 23.7919 24.8369 24.3823C25.4044 24.8946 26.7667 24.5466 27.7786 24.55C29.8462 24.5615 31.9115 24.55 33.9768 24.5546C35.2518 24.5569 35.8755 25.0416 35.9099 26.2615C35.9697 28.4577 35.9697 30.6585 35.9122 32.8536C35.8824 34.062 35.2391 34.5869 33.9928 34.5927C31.1396 34.6042 28.284 34.6168 25.4319 34.5801C24.7783 34.5732 24.5785 34.7604 24.6152 35.4036C24.6669 36.3203 24.6773 37.2438 24.6141 38.157C24.5624 38.9105 24.7703 39.1483 25.5698 39.1437C31.8345 39.108 38.0993 39.123 44.364 39.123C46.2926 39.123 46.7659 39.5847 46.7682 41.48C46.7693 43.3489 46.775 45.2189 46.7647 47.0889C46.7555 48.6327 46.2168 49.1645 44.6925 49.1645C34.7854 49.168 24.8794 49.168 14.9734 49.1645C13.4354 49.1645 12.9392 48.6625 12.938 47.0969C12.9369 41.3226 12.938 35.5495 12.938 29.7775Z" fill="white"/>
<path d="M14.671 29.7607C14.671 24.1851 14.6859 18.6084 14.6526 13.0317C14.648 12.2988 14.8352 12.1059 15.5749 12.107C25.0869 12.1334 34.6001 12.1323 44.1132 12.107C44.838 12.1059 45.0781 12.269 45.0471 13.0248C44.9851 14.564 44.9805 16.1089 45.0471 17.6492C45.0816 18.4568 44.8656 18.6934 44.0328 18.6876C37.3419 18.6532 30.651 18.6865 23.9567 18.6474C23.0929 18.6417 22.8321 18.8496 22.8654 19.7272C22.9355 21.627 22.916 23.5315 22.8735 25.4348C22.8574 26.1217 23.0653 26.3239 23.7568 26.3158C26.9397 26.2814 30.1203 26.3262 33.301 26.2825C34.0602 26.271 34.2383 26.5008 34.2153 27.2233C34.1613 28.8279 34.1671 30.4372 34.2141 32.043C34.2325 32.7001 34.0212 32.8678 33.3791 32.8609C30.2318 32.8299 27.081 32.8884 23.9337 32.8207C23.0159 32.8 22.8448 33.0998 22.8677 33.9291C22.9252 35.8956 22.939 37.8667 22.8643 39.8332C22.8287 40.7452 23.1469 40.8968 23.9762 40.8923C30.6338 40.8589 37.2937 40.8888 43.9547 40.8543C44.7852 40.8498 45.1045 41.0014 45.0505 41.9134C44.9632 43.417 44.9897 44.9298 45.0436 46.4368C45.0678 47.1765 44.9081 47.4384 44.0926 47.4361C34.5806 47.4063 25.0674 47.4063 15.5543 47.4361C14.7835 47.4361 14.648 47.1961 14.6526 46.4919C14.6824 40.9152 14.671 35.3374 14.671 29.7607Z" fill="#A1234F"/>
</g>
<defs>
<clipPath id="clip0">
<rect width="60" height="59.9995" fill="white"/>
</clipPath>
</defs>
</svg>
