<svg width="60" height="60" viewBox="0 0 60 60" fill="none" xmlns="http://www.w3.org/2000/svg">
<g clip-path="url(#clip0)">
<rect width="60" height="60" fill="#B92000"/>
<path d="M53.1104 20.9434L42.359 38.6054L31.2701 20.9434H39.4658L41.945 24.7985L42.3656 25.4526L42.7862 24.7985L45.2648 20.9434H53.1104Z" fill="#0000FF" stroke="white"/>
<path d="M33.3673 26.1978V38.0791C33.3411 38.0916 33.313 38.1048 33.2833 38.1186C33.0573 38.224 32.7375 38.3646 32.3646 38.5051C31.6066 38.7907 30.6778 39.0566 29.8797 39.0566C29.0871 39.0566 28.2503 38.7938 27.5895 38.5129C27.2637 38.3744 26.9906 38.2358 26.7997 38.1323C26.7801 38.1217 26.7614 38.1114 26.7436 38.1016V26.1972V25.6972H26.2436H20.9111C20.9052 25.6901 20.8992 25.6827 20.8931 25.675C20.7967 25.5556 20.6662 25.3784 20.5355 25.1533C20.2724 24.7003 20.0202 24.0745 20.0202 23.3458C20.0202 22.6158 20.2732 21.9762 20.5384 21.5085C20.67 21.2764 20.8014 21.0924 20.8986 20.9679C20.9049 20.9597 20.9111 20.9519 20.9171 20.9443H39.4918C39.4975 20.9512 39.5034 20.9584 39.5094 20.9659C39.6052 21.0847 39.7353 21.2623 39.8659 21.4902C40.1281 21.9478 40.3834 22.5927 40.3834 23.3666C40.3834 24.1389 40.1291 24.7585 39.871 25.1888C39.7421 25.4038 39.6137 25.5688 39.5196 25.6782C39.5138 25.685 39.5081 25.6915 39.5026 25.6978H33.8673H33.3673V26.1978Z" fill="#269719" stroke="white"/>
<path d="M28.7458 20.9434L17.9938 38.6055L6.90432 20.9434H15.1012L17.5798 24.7985L18.0003 25.4526L18.4209 24.7985L20.9001 20.9434H28.7458Z" fill="#F50000" stroke="white"/>
</g>
<defs>
<clipPath id="clip0">
<rect width="60" height="59.9995" fill="white"/>
</clipPath>
</defs>
</svg>
