<svg width="60" height="60" viewBox="0 0 60 60" fill="none" xmlns="http://www.w3.org/2000/svg">
<g clip-path="url(#clip0)">
<path d="M60 0H0V60.0013H60V0Z" fill="#212121"/>
<path d="M47.9902 30.4984C47.9902 35.9746 45.86 41.1241 41.9875 44.9946C38.115 48.8678 32.9674 51 27.4906 51C22.0163 51 16.8662 48.8678 12.9943 44.9946C5.0019 37.0023 5.0019 23.9964 12.9943 16.0047C16.8675 12.1322 22.0163 10 27.4899 10C32.9668 10 38.1143 12.1315 41.9868 16.0047C45.86 19.8766 47.9902 25.0241 47.9902 30.4984ZM24.3112 46.2859C26.0678 48.0419 28.9146 48.0419 30.6706 46.2859C32.4272 44.5299 32.4272 41.6825 30.6706 39.9265C28.9146 38.1712 26.0678 38.1712 24.3112 39.9265C22.5552 41.6825 22.5552 44.5299 24.3112 46.2859ZM11.4954 32.3546C10.3675 34.5675 11.2481 37.2756 13.4603 38.4029C15.6738 39.5295 18.3807 38.6509 19.5079 36.438C20.6352 34.2245 19.7553 31.5163 17.543 30.389C15.3295 29.2624 12.6227 30.1424 11.4954 32.3546ZM20.7849 15.8609C18.3319 15.4723 16.0285 17.1469 15.6393 19.5987C15.2508 22.0524 16.9241 24.3537 19.3771 24.7429C21.8308 25.1315 24.1341 23.4582 24.5227 21.0058C24.9113 18.5521 23.2366 16.2501 20.7849 15.8609ZM28.5723 28.3773C27.4001 27.7804 25.9663 28.2471 25.3695 29.418C24.7726 30.5914 25.238 32.0246 26.4102 32.6221C27.5823 33.2196 29.0161 32.7529 29.6136 31.5814C30.2098 30.4099 29.7438 28.9754 28.5723 28.3773ZM39.3412 19.5987C38.9532 17.1463 36.648 15.473 34.1962 15.8609C31.7438 16.2494 30.0712 18.5521 30.4591 21.0051C30.847 23.4588 33.1516 25.1315 35.6033 24.7429C38.0564 24.3557 39.7291 22.051 39.3412 19.5987ZM37.4387 30.3903C35.2265 31.5163 34.3466 34.2271 35.4738 36.438C36.5998 38.6509 39.3086 39.5288 41.5202 38.4029C43.7331 37.2756 44.6124 34.5662 43.4864 32.3546C42.3598 30.1417 39.6516 29.2624 37.4387 30.3903ZM52.998 15.322C52.9583 15.4053 52.8731 15.4606 52.7807 15.4606L42.7965 15.4645C42.7516 15.4189 42.7138 15.3675 42.6689 15.322C41.09 13.743 39.3047 12.4517 37.3808 11.4494L49.8903 11.4455C50.0113 11.4455 50.077 11.5321 50.077 11.5321L52.9668 15.0655C53.0254 15.1378 53.0371 15.238 52.998 15.322Z" fill="#ECEBE8"/>
</g>
<defs>
<clipPath id="clip0">
<rect width="60" height="59.9995" fill="white"/>
</clipPath>
</defs>
</svg>
