<svg width="60" height="60" viewBox="0 0 60 60" fill="none" xmlns="http://www.w3.org/2000/svg">
<g clip-path="url(#clip0)">
<path d="M60 0H0V59.9995H60V0Z" fill="#D70F16"/>
<path d="M44.2948 37.9998C46.1056 37.9998 47.9174 38.0046 49.7282 37.9988C50.8659 37.9956 51.1765 37.6791 51.1786 36.5235C51.1823 34.2528 51.1601 31.9833 51.1866 29.7132C51.2093 27.7283 51.2855 27.3743 48.844 27.4557C47.9275 27.4864 47.5909 27.8288 47.5825 28.7585C47.5703 30.1354 47.5909 31.5118 47.5703 32.8886C47.5491 34.2708 47.2464 34.6211 45.8632 34.6502C43.8117 34.6915 41.7585 34.6714 39.7075 34.6391C38.8841 34.6259 38.0766 34.4518 37.313 34.1211C34.9038 33.077 33.7428 30.4291 34.8106 28.2828C35.6155 26.6631 36.9707 25.6979 38.7571 25.4338C39.6599 25.3005 40.5864 25.2968 41.5024 25.2909C44.2794 25.2735 47.0565 25.2899 49.8325 25.2804C50.831 25.2777 51.1654 24.9232 51.1786 23.9172C51.1808 23.7723 51.1797 23.6273 51.1797 23.4828C51.1749 22.243 50.8955 21.9668 49.6293 21.9657C46.2008 21.9636 42.7708 21.9668 39.3424 21.9636C38.5412 21.9631 37.7517 22.0445 36.9728 22.2335C33.5761 23.0574 30.9504 25.9524 30.7229 29.1263C30.4477 32.9331 32.3585 35.9869 35.8944 37.3929C36.94 37.8077 38.0295 37.9935 39.1503 37.9972C40.8663 38.0046 42.5814 37.9988 44.2948 37.9998ZM22.215 36.1795C24.1263 32.4944 26.1541 28.8713 28.1374 25.2248C28.4723 24.6099 28.8279 24.0067 29.1407 23.3812C29.636 22.389 29.3841 21.9821 28.2951 21.9662C27.8606 21.9599 27.4241 21.9885 26.9912 21.9604C26.0572 21.899 25.4572 22.3128 25.0206 23.1309C23.521 25.9408 21.9891 28.7337 20.4598 31.5287C20.2523 31.9081 20.0253 32.2865 19.7481 32.6145C19.3369 33.103 18.8882 33.1045 18.449 32.6421C18.2532 32.4357 18.104 32.179 17.9669 31.9261C16.3974 29.0432 14.8359 26.1572 13.2706 23.2722C12.9642 22.7086 12.6007 22.1636 11.9313 22.0377C11.1 21.881 10.2464 21.917 9.40878 22.0186C8.85686 22.0848 8.70711 22.4742 8.8685 22.9806C8.9193 23.1394 9.01296 23.2854 9.0934 23.4336C11.5159 27.9124 13.9389 32.3912 16.3614 36.8695C16.7625 37.6125 17.3557 38.0337 18.2283 38.0014C18.5167 37.9903 20.8529 38.6301 22.215 36.1795Z" fill="white"/>
</g>
<defs>
<clipPath id="clip0">
<rect width="60" height="59.9995" fill="white"/>
</clipPath>
</defs>
</svg>
