<svg width="60" height="60" viewBox="0 0 60 60" fill="none" xmlns="http://www.w3.org/2000/svg">
<g clip-path="url(#clip0)">
<path d="M60 0H0V60H60V0Z" fill="#FF8E10"/>
<path fill-rule="evenodd" clip-rule="evenodd" d="M50.5844 29.9778C50.5844 26.5098 50.5924 23.0418 50.5774 19.5748C50.5754 19.0068 50.5364 18.4288 50.4254 17.8738C50.0314 15.8998 48.9604 14.3658 47.2854 13.2588C46.0464 12.4398 44.6634 12.1038 43.1884 12.1038C41.5614 12.1038 39.9354 12.1008 38.3104 12.1048C37.3594 12.1068 36.4324 12.2548 35.5394 12.5938C35.4484 12.6288 35.3224 12.6328 35.2334 12.5998C34.2984 12.2488 33.3324 12.1018 32.3374 12.1028C30.7364 12.1048 29.1354 12.0998 27.5344 12.1048C26.5924 12.1088 25.6744 12.2578 24.7894 12.5928C24.6984 12.6268 24.5724 12.6328 24.4834 12.5998C23.5414 12.2458 22.5664 12.1008 21.5634 12.1028C19.9134 12.1058 18.2624 12.0948 16.6104 12.1068C15.7964 12.1138 14.9924 12.2348 14.2244 12.5128C11.3324 13.5588 9.43142 16.1918 9.42042 19.3268C9.40742 23.5738 9.40442 27.8208 9.42542 32.0678C9.43142 33.1578 9.49942 34.2528 9.62042 35.3368C9.83342 37.2368 10.3934 39.0398 11.3204 40.7218C12.3274 42.5508 13.7064 44.0348 15.4374 45.1958C16.9264 46.1908 18.5634 46.8518 20.2944 47.2858C22.0054 47.7118 23.7524 47.8828 25.5094 47.8878C31.4574 47.9048 37.4044 47.8988 43.3524 47.8878C43.8704 47.8858 44.3964 47.8278 44.9024 47.7208C48.1604 47.0218 50.5684 44.1818 50.5794 40.6548C50.5934 37.0958 50.5844 33.5358 50.5844 29.9778Z" fill="white"/>
<path fill-rule="evenodd" clip-rule="evenodd" d="M50.5844 29.9778C50.5844 33.5358 50.5934 37.0958 50.5824 40.6538C50.5714 44.1808 48.1634 47.0208 44.9054 47.7198C44.3994 47.8268 43.8734 47.8848 43.3554 47.8868C37.4074 47.8978 31.4594 47.9038 25.5124 47.8868C23.7554 47.8818 22.0084 47.7108 20.2974 47.2848C18.5664 46.8508 16.9284 46.1898 15.4404 45.1948C13.7094 44.0348 12.3304 42.5498 11.3234 40.7208C10.3964 39.0388 9.83641 37.2368 9.62341 35.3358C9.50241 34.2518 9.43441 33.1568 9.42841 32.0668C9.40741 27.8198 9.40941 23.5718 9.42341 19.3258C9.43341 16.1908 11.3354 13.5578 14.2274 12.5118C14.9964 12.2338 15.7994 12.1128 16.6134 12.1058C18.2654 12.0928 19.9154 12.1048 21.5664 12.1018C22.5684 12.0998 23.5444 12.2458 24.4864 12.5988C24.5754 12.6318 24.7014 12.6258 24.7924 12.5918C25.6774 12.2568 26.5954 12.1078 27.5374 12.1038C29.1394 12.0988 30.7404 12.1038 32.3404 12.1018C33.3344 12.1008 34.3014 12.2478 35.2364 12.5988C35.3254 12.6318 35.4514 12.6278 35.5424 12.5928C36.4354 12.2548 37.3614 12.1068 38.3134 12.1038C39.9384 12.0998 41.5644 12.1028 43.1914 12.1028C44.6664 12.1028 46.0484 12.4388 47.2884 13.2578C48.9634 14.3648 50.0344 15.8988 50.4284 17.8728C50.5394 18.4278 50.5784 19.0058 50.5804 19.5738C50.5924 23.0418 50.5844 26.5098 50.5844 29.9778ZM48.8424 30.0108C48.8424 26.3358 48.8494 22.6608 48.8314 18.9858C48.8294 18.5298 48.7384 18.0628 48.6134 17.6218C48.3234 16.6008 47.7604 15.7408 46.9364 15.0648C46.0394 14.3288 45.0064 13.8788 43.8464 13.8578C41.7734 13.8218 39.6984 13.8338 37.6244 13.8548C36.8824 13.8628 36.1684 14.0478 35.5184 14.4378C35.4494 14.4808 35.3094 14.4828 35.2404 14.4408C34.5924 14.0478 33.8784 13.8628 33.1364 13.8558C31.0454 13.8338 28.9544 13.8328 26.8654 13.8558C26.1234 13.8638 25.4074 14.0488 24.7614 14.4438C24.6954 14.4838 24.5674 14.4878 24.5034 14.4488C23.8174 14.0358 23.0644 13.8568 22.2764 13.8508C20.2694 13.8368 18.2604 13.8448 16.2534 13.8498C16.0244 13.8498 15.7904 13.8708 15.5634 13.9138C12.8864 14.4098 11.1484 16.6558 11.1584 19.2128C11.1744 23.5508 11.1654 27.8898 11.1604 32.2288C11.1594 33.3228 11.1904 34.4108 11.3554 35.4968C11.6554 37.4638 12.2874 39.2998 13.4254 40.9468C14.5394 42.5598 16.0074 43.7588 17.7634 44.6028C19.9794 45.6698 22.3454 46.1288 24.7844 46.1398C31.0644 46.1688 37.3444 46.1528 43.6244 46.1418C44.0584 46.1418 44.5044 46.0848 44.9214 45.9708C47.3294 45.3188 48.8494 43.1778 48.8444 40.8358C48.8354 37.2288 48.8424 33.6178 48.8424 30.0108Z" fill="white"/>
<path fill-rule="evenodd" clip-rule="evenodd" d="M48.8424 30.0108C48.8424 33.6178 48.8354 37.2288 48.8444 40.8368C48.8494 43.1788 47.3294 45.3188 44.9214 45.9718C44.5044 46.0858 44.0584 46.1428 43.6244 46.1428C37.3444 46.1538 31.0644 46.1698 24.7844 46.1408C22.3454 46.1298 19.9784 45.6708 17.7634 44.6038C16.0074 43.7588 14.5394 42.5608 13.4254 40.9478C12.2874 39.3008 11.6554 37.4648 11.3554 35.4978C11.1894 34.4118 11.1584 33.3238 11.1604 32.2298C11.1654 27.8908 11.1734 23.5528 11.1584 19.2138C11.1484 16.6568 12.8864 14.4098 15.5634 13.9148C15.7904 13.8728 16.0234 13.8518 16.2534 13.8508C18.2604 13.8458 20.2694 13.8388 22.2764 13.8518C23.0644 13.8568 23.8174 14.0368 24.5034 14.4498C24.5674 14.4888 24.6954 14.4838 24.7614 14.4448C25.4074 14.0498 26.1234 13.8648 26.8654 13.8568C28.9554 13.8338 31.0464 13.8348 33.1364 13.8568C33.8784 13.8638 34.5924 14.0498 35.2404 14.4418C35.3094 14.4838 35.4494 14.4818 35.5184 14.4388C36.1684 14.0478 36.8824 13.8628 37.6244 13.8558C39.6974 13.8348 41.7724 13.8228 43.8464 13.8588C45.0064 13.8798 46.0384 14.3298 46.9364 15.0658C47.7604 15.7408 48.3234 16.6018 48.6134 17.6228C48.7384 18.0638 48.8294 18.5308 48.8314 18.9868C48.8494 22.6608 48.8424 26.3358 48.8424 30.0108ZM32.6654 37.1758C32.6654 37.0448 32.6654 36.9328 32.6654 36.8188C32.6654 31.0938 32.6654 25.3698 32.6654 19.6468C32.6654 19.2728 32.6654 19.2728 32.2814 19.2728C30.7554 19.2728 29.2284 19.2728 27.7014 19.2728C27.3384 19.2728 27.3384 19.2728 27.3384 19.6418C27.3384 25.3738 27.3384 31.1068 27.3384 36.8388C27.3384 36.9498 27.3384 37.0628 27.3384 37.1918C26.6554 37.1918 26.0174 37.2028 25.3804 37.1898C24.5774 37.1738 23.8774 36.8818 23.2864 36.3408C22.3194 35.4538 21.9284 34.3058 21.9214 33.0388C21.9014 28.5598 21.9144 24.0808 21.9124 19.6008C21.9124 19.2738 21.9124 19.2728 21.5834 19.2728C20.0314 19.2728 18.4804 19.2728 16.9294 19.2728C16.5864 19.2728 16.5864 19.2728 16.5864 19.6128C16.5864 23.6188 16.5774 27.6268 16.5924 31.6338C16.5964 32.6418 16.6444 33.6538 16.7454 34.6568C16.8494 35.7028 17.1814 36.6948 17.7434 37.5948C18.5184 38.8378 19.6554 39.6088 21.0204 40.0808C22.4064 40.5608 23.8494 40.7118 25.2984 40.7178C31.2464 40.7388 37.1934 40.7248 43.1414 40.7308C43.3684 40.7308 43.4194 40.6548 43.4194 40.4428C43.4154 33.4818 43.4154 26.5228 43.4204 19.5618C43.4204 19.3298 43.3484 19.2668 43.1214 19.2678C41.5614 19.2768 40.0034 19.2728 38.4434 19.2728C38.0894 19.2728 38.0894 19.2728 38.0894 19.6268C38.0894 25.3588 38.0894 31.0918 38.0894 36.8238C38.0894 36.9368 38.0894 37.0508 38.0894 37.1778C36.2744 37.1758 34.4944 37.1758 32.6654 37.1758Z" fill="#FF8E10"/>
<path fill-rule="evenodd" clip-rule="evenodd" d="M32.6654 37.1758C34.4944 37.1758 36.2744 37.1758 38.0904 37.1758C38.0904 37.0488 38.0904 36.9358 38.0904 36.8218C38.0904 31.0908 38.0904 25.3578 38.0904 19.6248C38.0904 19.2708 38.0914 19.2708 38.4444 19.2708C40.0044 19.2708 41.5624 19.2748 43.1224 19.2658C43.3494 19.2648 43.4214 19.3278 43.4214 19.5598C43.4164 26.5198 43.4164 33.4798 43.4204 40.4408C43.4204 40.6528 43.3684 40.7288 43.1424 40.7288C37.1944 40.7228 31.2464 40.7378 25.2994 40.7158C23.8504 40.7098 22.4074 40.5598 21.0214 40.0788C19.6564 39.6058 18.5194 38.8358 17.7444 37.5928C17.1824 36.6928 16.8494 35.6998 16.7464 34.6548C16.6454 33.6508 16.5984 32.6388 16.5934 31.6318C16.5774 27.6248 16.5874 23.6178 16.5874 19.6108C16.5874 19.2708 16.5874 19.2708 16.9304 19.2708C18.4814 19.2708 20.0324 19.2708 21.5844 19.2708C21.9134 19.2708 21.9134 19.2708 21.9134 19.5988C21.9144 24.0788 21.9024 28.5578 21.9224 33.0368C21.9284 34.3038 22.3204 35.4518 23.2874 36.3388C23.8774 36.8798 24.5784 37.1718 25.3814 37.1878C26.0184 37.2008 26.6574 37.1898 27.3394 37.1898C27.3394 37.0608 27.3394 36.9488 27.3394 36.8368C27.3394 31.1048 27.3394 25.3718 27.3394 19.6398C27.3394 19.2708 27.3394 19.2708 27.7024 19.2708C29.2294 19.2708 30.7554 19.2708 32.2824 19.2708C32.6664 19.2708 32.6664 19.2708 32.6664 19.6448C32.6664 25.3678 32.6664 31.0928 32.6664 36.8168C32.6654 36.9328 32.6654 37.0448 32.6654 37.1758Z" fill="white"/>
</g>
<defs>
<clipPath id="clip0">
<rect width="60" height="59.9995" fill="white"/>
</clipPath>
</defs>
</svg>
