<svg width="60" height="60" viewBox="0 0 60 60" fill="none" xmlns="http://www.w3.org/2000/svg">
<g clip-path="url(#clip0)">
<rect width="60" height="60" fill="#F5F5F5"/>
<path d="M25.2771 21.8094C25.2771 21.8094 24.6864 20.6058 24.4858 20.2102C23.1503 17.553 23.1723 17.4074 21.8176 17.2315C21.4384 17.1766 21.2433 17.1353 21.2433 16.9457V16.1021L21.356 16.0225C23.8071 16.017 29.2532 16.017 29.2532 16.017L29.4621 16.0857V16.9238C29.4621 17.1161 29.3247 17.2095 29.0499 17.2095L28.4756 17.2947C27.0303 17.4074 27.2693 17.9981 28.2256 19.9134L37.3538 38.5849L37.6616 38.6701L45.7649 19.4408C46.0507 18.6631 46.0012 18.1163 45.6385 17.7866C45.2758 17.4761 45.0203 17.2865 44.0833 17.2508L43.3249 17.2123C43.2342 17.2123 43.1463 17.1793 43.0556 17.1161C42.9759 17.0584 42.9292 16.976 42.9292 16.8853V16.0802L43.0446 16.0005C45.328 16.0005 52.1976 16.0005 52.1976 16.0005L52.291 16.0802V16.8853C52.291 17.0941 52.1674 17.2068 51.9228 17.2068C50.7193 17.2617 49.8345 17.5173 49.2574 17.9844C48.6804 18.4515 48.2297 19.0945 47.9082 19.9326C47.9082 19.9326 40.4561 36.9884 37.9034 42.6599C36.9307 44.5229 35.9689 44.3443 35.1226 42.6049C33.342 38.9283 28.3162 27.7914 28.3162 27.7914L25.2771 21.8094Z" fill="#000001"/>
<path d="M39.8995 16.0078C39.8995 16.0078 34.7501 15.9913 32.4557 16.0078L32.343 16.0875V16.8871C32.343 16.9833 32.3842 17.0602 32.4666 17.1234C32.5518 17.1811 32.6398 17.2141 32.7332 17.2141L33.1069 17.2581C34.0439 17.2966 34.4698 17.5438 34.6017 17.6922C34.827 17.967 34.9369 18.261 34.3956 19.4481L24.781 38.6252L24.5282 38.562C24.5282 38.562 17.6394 24.0397 15.6499 19.1816C15.4439 18.676 15.3504 18.3077 15.3504 18.0769C15.3504 17.5823 15.7956 17.3158 16.6859 17.2773L17.7246 17.2333C18.0021 17.2333 18.1395 17.1317 18.1395 16.9119V16.1122L18.046 16.027C18.046 16.027 9.79707 16.0215 8.09342 16.027L8 16.1122V16.9503C8 17.1015 8.19235 17.1921 8.57704 17.2361C9.62396 17.2938 10.3109 17.4614 10.6434 17.7362C10.9731 18.022 11.3221 18.7282 11.7838 19.841C14.287 25.8533 19.6096 36.5863 22.1953 42.692C22.9399 44.3599 23.8769 44.6182 25.0173 42.637C26.9875 38.9879 32.332 27.818 32.332 27.818L36.5362 19.9455C37.0308 19.1129 37.5034 18.3737 37.7397 18.0302C38.1794 17.3982 38.4267 17.2801 39.6275 17.2196C39.8748 17.2196 39.9984 17.1179 39.9984 16.8926V16.0985L39.8995 16.0078Z" fill="#000001"/>
</g>
<defs>
<clipPath id="clip0">
<rect width="60" height="59.9995" fill="white"/>
</clipPath>
</defs>
</svg>
