<svg width="60" height="60" viewBox="0 0 60 60" fill="none" xmlns="http://www.w3.org/2000/svg">
<g clip-path="url(#clip0)">
<path d="M60 0H0V60H60V0Z" fill="#ECEBE8"/>
<path d="M29.618 52.236C42.1096 52.236 52.236 42.1096 52.236 29.618C52.236 17.1264 42.1096 7 29.618 7C17.1264 7 7 17.1264 7 29.618C7 42.1096 17.1264 52.236 29.618 52.236Z" fill="#C22769"/>
<path d="M20.971 22.988C23.1299 22.988 24.88 21.2379 24.88 19.079C24.88 16.9201 23.1299 15.17 20.971 15.17C18.8121 15.17 17.062 16.9201 17.062 19.079C17.062 21.2379 18.8121 22.988 20.971 22.988Z" fill="white"/>
<path d="M38.267 22.988C40.4259 22.988 42.176 21.2379 42.176 19.079C42.176 16.9201 40.4259 15.17 38.267 15.17C36.1081 15.17 34.358 16.9201 34.358 19.079C34.358 21.2379 36.1081 22.988 38.267 22.988Z" fill="white"/>
<path d="M10.7422 29.6182C10.7422 40.0432 19.1932 48.4942 29.6182 48.4942C40.0432 48.4942 48.4942 40.0432 48.4942 29.6182H10.7422Z" fill="white"/>
</g>
<defs>
<clipPath id="clip0">
<rect width="60" height="59.9995" fill="white"/>
</clipPath>
</defs>
</svg>
