<svg width="60" height="60" viewBox="0 0 60 60" fill="none" xmlns="http://www.w3.org/2000/svg">
<g clip-path="url(#clip0)">
<path d="M60 0H0V60.0013H60V0Z" fill="#ECEBE8"/>
<path d="M30 55C43.8071 55 55 43.8071 55 30C55 16.1929 43.8071 5 30 5C16.1929 5 5 16.1929 5 30C5 43.8071 16.1929 55 30 55Z" fill="#6EBEC4"/>
<path d="M16.4803 24.4304L43.394 16.7811L42.1787 13.5641L15.7003 21.0739L15.5868 21.1072L16.4803 24.4304Z" fill="white"/>
<path d="M44.1805 24.9321H16.4087V28.6136H44.1805V24.9321Z" fill="white"/>
<path d="M18.1232 24.412L43.8716 17.1314L42.7062 13L15 20.8336L16.0123 24.412H15.9883V27.9487V28.7058V45.4999H44.7787V28.7069V27.9497V24.413H18.1232V24.412ZM42.9364 16.6086L40.3536 17.3396L42.2063 14.0237L42.9364 16.6086ZM37.1929 15.3474L35.2735 18.7768L31.74 19.7766L33.6562 16.3451L37.1929 15.3474ZM28.5771 17.7812L26.6599 21.2117L22.7285 22.3229L24.6457 18.8924L28.5771 17.7812ZM19.5667 20.3296L17.6494 23.7601L16.6902 24.0319L15.9362 21.3585L19.5667 20.3296ZM38.8519 25.1702L36.0733 27.9477H32.3981L35.1777 25.1702H38.8519ZM29.8997 25.1702L27.1202 27.9477H23.0367L25.8153 25.1702H29.8997ZM17.7587 27.9477H16.7465V25.1702H20.5362L17.7587 27.9477ZM44.0215 27.9477H41.3513L44.0215 25.2795V27.9477Z" fill="#3C4251"/>
<path d="M44.7784 40.0502H15.988V41.1937H44.7784V40.0502Z" fill="white"/>
<path d="M44.7784 33.2594H15.9881V34.4039H44.7784V33.2594Z" fill="white"/>
<path d="M24.0215 34.4024H22.5916V40.0501H24.0215V34.4024Z" fill="white"/>
<path d="M36.7453 34.4024H35.3155V40.0501H36.7453V34.4024Z" fill="white"/>
</g>
<defs>
<clipPath id="clip0">
<rect width="60" height="59.9995" fill="white"/>
</clipPath>
</defs>
</svg>
