<svg width="60" height="60" viewBox="0 0 60 60" fill="none" xmlns="http://www.w3.org/2000/svg">
<g clip-path="url(#clip0)">
<rect width="60" height="59.9995" fill="black"/>
<path d="M12.0086 27.9679C12.0086 27.9739 12.0086 27.9787 12.0086 27.9829L12.023 27.9679C12.0188 27.9679 12.0134 27.9679 12.0086 27.9679Z" fill="white"/>
<path d="M8 19.905C8 22.6114 8 25.2807 8 27.9697C9.36131 27.9697 10.6848 27.9697 12.0078 27.9697C12.0078 25.2831 12.0078 22.5977 12.0078 19.905C10.6321 19.905 9.31453 19.905 8 19.905Z" fill="white"/>
<path d="M24.1599 27.9388C25.511 27.9388 26.8609 27.9388 28.188 27.9388C28.188 25.2222 28.188 22.553 28.188 19.8987C26.8363 19.8987 25.5308 19.8987 24.1599 19.8987C24.1599 22.5998 24.1599 25.269 24.1599 27.9388Z" fill="white"/>
<path d="M24.1617 27.9572C24.1617 27.9512 24.1617 27.9446 24.1617 27.9392C24.1563 27.9392 24.1509 27.9392 24.1455 27.9392C24.1467 27.9392 24.1599 27.9548 24.1617 27.9572Z" fill="white"/>
<path d="M16.0476 32.0583C16.0521 32.0583 16.0572 32.0583 16.0629 32.0583C16.0629 32.0525 16.0629 32.0468 16.0629 32.043C16.0636 32.0411 16.0476 32.0583 16.0476 32.0583Z" fill="white"/>
<path d="M16.0602 40.1014C17.4635 40.1014 18.7816 40.1014 20.1291 40.1014C20.1291 37.6666 20.1303 35.2714 20.1273 32.8762C20.1261 32.5848 20.0961 32.2921 20.0787 32.0007C18.739 32.0187 17.4005 32.0385 16.062 32.0577C16.0602 34.7413 16.0602 37.4243 16.0602 40.1014Z" fill="white"/>
<path d="M20.0789 31.9884L20.0777 31.9872C20.0777 31.9914 20.0789 31.9962 20.0789 31.9998C20.0831 31.9986 20.0879 31.9986 20.0927 31.9986C20.0933 32.0004 20.0777 31.9872 20.0789 31.9884Z" fill="white"/>
<path d="M12.0086 27.9844C12.0137 27.9844 12.0194 27.9844 12.0239 27.9844C12.0239 27.9799 12.0239 27.9748 12.0239 27.9697L12.0086 27.9844Z" fill="white"/>
<path d="M16.0477 32.0582C16.047 32.0582 16.0623 32.0416 16.0623 32.0429C16.0578 32.0429 16.0515 32.0429 16.0477 32.0429C16.0477 32.0467 16.0477 32.0525 16.0477 32.0582Z" fill="white"/>
<path d="M12.0229 27.9832C12.0229 29.3205 12.0229 30.6572 12.0229 32.0431C13.4046 32.0431 14.7269 32.0431 16.0487 32.0425C16.0493 30.6938 16.0493 29.3445 16.0493 27.9832C14.6646 27.9832 13.344 27.9832 12.0229 27.9832Z" fill="white"/>
<path d="M24.1455 27.9392C24.1455 27.9458 24.1455 27.9518 24.1455 27.9584C24.1509 27.9584 24.1563 27.9584 24.1617 27.9584L24.1611 27.9578L24.1455 27.9392Z" fill="white"/>
<path d="M20.0942 32C20.0942 31.9955 20.0942 31.9917 20.0942 31.9872C20.0891 31.9872 20.084 31.9872 20.0795 31.9872C20.0814 31.9892 20.0948 32.0013 20.0942 32Z" fill="white"/>
<path d="M20.0915 31.9892C21.4426 31.9892 22.7925 31.9892 24.1442 31.9892C24.1442 30.6285 24.1442 29.2936 24.1442 27.958C22.8111 27.9592 21.4756 27.9592 20.0903 27.9592C20.0903 29.3739 20.0903 30.6807 20.0915 31.9892Z" fill="white"/>
<path d="M24.1617 27.9572C24.1599 27.9548 24.1455 27.9392 24.1455 27.9392L24.1617 27.9572Z" fill="white"/>
<path d="M20.0795 31.989L20.0942 32.0005L20.0795 31.989Z" fill="white"/>
<path d="M35.8848 32.0398C35.8848 32.703 35.8848 33.3675 35.886 34.0307C35.8848 33.3675 35.8848 32.7036 35.8848 32.0398Z" fill="#E21306"/>
<path d="M35.8848 23.9302C35.8848 24.5947 35.8848 25.2592 35.886 25.9236C35.8848 25.2592 35.8848 24.5947 35.8848 23.9302Z" fill="#E21306"/>
<path d="M48.9467 23.9135C48.9467 22.578 48.9467 21.2431 48.9467 19.9172C44.5527 19.9172 40.2625 19.9172 35.9081 19.9172C35.9081 21.2689 35.9081 22.5912 35.9081 23.9129C38.0694 23.9129 40.2319 23.9129 42.3944 23.9129C44.5779 23.9129 46.7626 23.9129 48.9467 23.9135Z" fill="#E21306"/>
<path d="M42.3626 27.9846C40.2115 27.9846 38.0592 27.9846 35.9081 27.9846C35.9081 29.3303 35.9081 30.676 35.9081 32.0217C38.0694 32.0217 40.2319 32.0217 42.3944 32.0217C44.5785 32.0217 46.7626 32.0217 48.9473 32.0217C48.9467 30.676 48.9467 29.3303 48.9467 27.9846C46.7518 27.9846 44.5575 27.9846 42.3626 27.9846Z" fill="#E21306"/>
<path d="M35.9081 36.095C35.9081 37.4305 35.9081 38.7654 35.9081 40.0901C40.3021 40.0901 44.5947 40.0901 48.9467 40.0901C48.9467 38.7384 48.9467 37.4161 48.9467 36.095C46.7518 36.095 44.5581 36.095 42.3632 36.095C40.2109 36.095 38.0592 36.095 35.9081 36.095Z" fill="#E21306"/>
<path d="M35.8857 23.9302C34.5556 23.9302 33.2255 23.9302 31.8995 23.9302C31.8995 25.3215 31.8995 26.6205 31.8995 27.9686C33.2536 27.9686 34.57 27.9686 35.8869 27.9686C35.8869 27.2867 35.8869 26.6049 35.8869 25.923C35.8857 25.2592 35.8857 24.5947 35.8857 23.9302Z" fill="#E21306"/>
<path d="M48.9705 27.9668C50.3006 27.9668 51.6307 27.9668 52.9585 27.9668C52.9585 26.5785 52.9585 25.2802 52.9585 23.9302C51.6043 23.9302 50.2868 23.9302 48.9705 23.9302C48.9705 24.5905 48.9705 25.2508 48.9705 25.9104C48.9705 26.5965 48.9705 27.2819 48.9705 27.9668Z" fill="#E21306"/>
<path d="M35.8857 32.0398C34.5556 32.0398 33.2255 32.0398 31.8995 32.0398C31.8995 33.4298 31.8995 34.73 31.8995 36.0769C33.2536 36.0769 34.57 36.0769 35.8869 36.0769C35.8869 35.3962 35.8869 34.7138 35.8869 34.0307C35.8857 33.3675 35.8857 32.7036 35.8857 32.0398Z" fill="#E21306"/>
<path d="M48.9705 36.0766C50.3006 36.0766 51.6307 36.0766 52.9585 36.0766C52.9585 34.6889 52.9585 33.3906 52.9585 32.0407C51.6043 32.0407 50.2868 32.0407 48.9705 32.0407C48.9705 32.7009 48.9705 33.3606 48.9705 34.0214C48.9705 34.7069 48.9705 35.3917 48.9705 36.0766Z" fill="#E21306"/>
<path d="M48.9472 23.93L48.9688 23.9132C48.961 23.9132 48.9544 23.9132 48.9472 23.9132C48.9472 23.9198 48.9472 23.9246 48.9472 23.93Z" fill="#E21306"/>
<path d="M35.9076 23.9132C35.8992 23.9132 35.8926 23.9132 35.8848 23.9132L35.9076 23.9294C35.9076 23.9246 35.9076 23.9192 35.9076 23.9132Z" fill="#E21306"/>
<path d="M48.947 23.9138C46.7623 23.9132 44.5783 23.9132 42.3936 23.9132C44.5783 23.9132 46.7629 23.9132 48.947 23.9138Z" fill="#E21306"/>
<path d="M48.9472 27.9846C48.955 27.9846 48.9616 27.9846 48.9694 27.9846L48.9472 27.9666C48.9472 27.9732 48.9472 27.9792 48.9472 27.9846Z" fill="#E21306"/>
<path d="M35.9082 27.9675L35.8866 27.9843C35.8944 27.9843 35.9004 27.9843 35.9082 27.9843C35.9082 27.9789 35.9082 27.9735 35.9082 27.9675Z" fill="#E21306"/>
<path d="M35.8866 27.9675C35.8866 27.9735 35.8866 27.9789 35.8866 27.9843L35.9082 27.9675C35.901 27.9675 35.8932 27.9675 35.8866 27.9675Z" fill="#E21306"/>
<path d="M35.9076 23.9294L35.8848 23.9132C35.8848 23.9192 35.8848 23.9252 35.8848 23.9294C35.8926 23.9294 35.8998 23.9294 35.9076 23.9294Z" fill="#E21306"/>
<path d="M48.9688 23.93C48.9688 23.9246 48.9688 23.9186 48.9688 23.9132L48.9472 23.93C48.9538 23.93 48.961 23.93 48.9688 23.93Z" fill="#E21306"/>
<path d="M48.9472 27.9666L48.9694 27.9846C48.9694 27.9786 48.9694 27.9726 48.9694 27.9666C48.9616 27.9666 48.9544 27.9666 48.9472 27.9666Z" fill="#E21306"/>
<path d="M35.9076 32.0227C35.8992 32.0227 35.8926 32.0227 35.8848 32.0227L35.9076 32.0389C35.9076 32.0335 35.9076 32.0287 35.9076 32.0227Z" fill="#E21306"/>
<path d="M48.9472 32.0407L48.9688 32.0245C48.961 32.0245 48.9544 32.0245 48.9472 32.0245C48.9472 32.0293 48.9472 32.0353 48.9472 32.0407Z" fill="#E21306"/>
<path d="M35.9082 36.0779L35.8866 36.0953C35.8944 36.0953 35.9004 36.0953 35.9082 36.0953C35.9082 36.0893 35.9082 36.0839 35.9082 36.0779Z" fill="#E21306"/>
<path d="M48.9472 36.0956C48.955 36.0956 48.9616 36.0956 48.9694 36.0956L48.9472 36.077C48.9472 36.083 48.9472 36.089 48.9472 36.0956Z" fill="#E21306"/>
<path d="M35.8866 36.0779C35.8866 36.0845 35.8866 36.0899 35.8866 36.0953L35.9082 36.0779C35.901 36.0779 35.8932 36.0779 35.8866 36.0779Z" fill="#E21306"/>
<path d="M35.9076 32.0401L35.8848 32.0227C35.8848 32.0287 35.8848 32.0353 35.8848 32.0401C35.8926 32.0401 35.8998 32.0401 35.9076 32.0401Z" fill="#E21306"/>
<path d="M48.9472 36.077L48.9694 36.0956C48.9694 36.089 48.9694 36.083 48.9694 36.077C48.9616 36.077 48.9544 36.077 48.9472 36.077Z" fill="#E21306"/>
<path d="M48.9688 32.0407C48.9688 32.0353 48.9688 32.0287 48.9688 32.0245L48.9472 32.0407C48.9538 32.0407 48.961 32.0407 48.9688 32.0407Z" fill="#E21306"/>
</g>
<defs>
<clipPath id="clip0">
<rect width="60" height="59.9995" fill="white"/>
</clipPath>
</defs>
</svg>
