<svg width="60" height="60" viewBox="0 0 60 60" fill="none" xmlns="http://www.w3.org/2000/svg">
<g clip-path="url(#clip0)">
<path d="M60 0H0V60H60V0Z" fill="#F68626"/>
<path d="M32.671 21.6415H29.3267C28.271 21.6415 27.4343 22.592 26.9509 23.1004L22.9352 27.7091C22.4515 28.2177 21.6639 28.2207 21.1765 27.7154L17.5506 23.1004C17.0624 22.5957 16.3887 21.6415 15.0406 21.6415H7.52251C6.48035 21.6415 6.3078 22.5095 6.68741 23.1004L12.96 32.4715C13.3396 33.062 13.2547 33.9528 12.7706 34.4604L6.87666 40.6434C6.17922 41.2837 6.00037 42.1325 6.00037 42.8348V47.8812C6.00037 48.5829 6.19054 49.1518 7.27166 49.1518H10.8622C11.8893 49.1518 12.673 48.4211 13.1222 47.8812L33.4586 23.1004C33.9082 22.5609 33.7818 21.6415 32.671 21.6415Z" fill="white"/>
<path d="M16.5489 49.1517H21.2814C22.9395 49.1517 23.7236 48.4829 24.3802 47.6582L30.3982 40.095C31.0554 39.2695 31.5879 39.4762 31.5879 40.5108V43.0641C31.5879 44.4102 31.2905 44.5028 30.3979 44.5028H29.7769C29.0665 44.5028 28.7397 45.1375 28.036 45.9865L27.0486 47.2422C26.3843 48.0608 26.7003 49.1516 27.7558 49.1516H33.3705C34.8997 49.1516 35.2803 48.2972 35.2803 47.2422V33.9721C35.2803 32.9171 34.9443 32.0627 33.3705 32.0627H30.2578C28.5733 32.0627 27.8069 32.7244 27.1387 33.5411L15.6364 47.2422C14.9696 48.0593 15.4284 49.1517 16.5489 49.1517Z" fill="white"/>
<path d="M45.8021 29.7478L40.7741 25.8858C40.4301 25.622 39.8388 25.568 39.4529 25.7664L32.7238 29.2192C32.5709 29.2966 32.4073 29.3353 32.2435 29.3353C31.9323 29.3353 31.6282 29.198 31.4227 28.9422C31.1091 28.554 31.1111 27.9985 31.4284 27.6124L35.4273 22.743C35.7017 22.408 35.6468 21.9219 35.3028 21.6575L31.5447 18.7683C31.1868 18.4931 31.0438 18.0217 31.1891 17.5931C31.3338 17.166 31.7353 16.8788 32.1861 16.8788H39.4939C39.9275 16.8788 40.5028 16.6074 40.7781 16.2726L45.6307 10.3839C45.834 10.1364 46.135 10.0002 46.4448 10.0002C46.5635 10.0002 46.6838 10.0206 46.7999 10.062C47.2192 10.2127 47.4979 10.6095 47.4979 11.0544V16.0936C47.4979 16.5272 47.8497 16.8788 48.2833 16.8788H52.4849C52.972 16.8788 53.3944 17.2128 53.5093 17.6866C53.623 18.1594 53.3981 18.6497 52.9645 18.8711L48.1972 21.31C47.8107 21.5077 47.4975 22.0196 47.4975 22.4532V28.9119C47.4975 29.3131 47.2697 29.6797 46.9099 29.8572C46.7622 29.9298 46.6027 29.9658 46.4444 29.9658C46.2173 29.9658 45.9902 29.8908 45.8021 29.7478Z" fill="white"/>
<path d="M51.627 32.0659H51.1984C50.4075 32.0659 49.9294 32.3668 49.9294 33.4232V38.5459C49.9294 39.4782 49.4023 39.783 48.752 38.9517L44.6742 33.9771C43.502 32.5922 42.9729 32.0657 41.5754 32.0657H38.7068C37.6515 32.0657 36.7954 31.938 36.7954 33.4231V47.793C36.7954 48.8584 37.4318 49.1539 38.7068 49.1539H41.5754C43.2564 49.1539 43.4883 48.8484 43.4883 47.793V42.6733C43.4883 41.8655 44.0152 41.4358 44.6661 42.2676L48.7432 47.793C49.9155 49.1779 49.7813 49.1539 51.1788 49.1539H51.627C52.6824 49.1539 53.539 49.2768 53.539 47.793V33.4231C53.539 32.049 52.902 32.0659 51.627 32.0659Z" fill="white"/>
</g>
<defs>
<clipPath id="clip0">
<rect width="60" height="59.9995" fill="white"/>
</clipPath>
</defs>
</svg>
