<svg width="60" height="60" viewBox="0 0 60 60" fill="none" xmlns="http://www.w3.org/2000/svg">
<rect width="60" height="60" fill="white"/>
<rect width="60" height="60" fill="#FF0000"/>
<path d="M52.9663 24.9198C52.9478 24.3751 52.9193 23.8308 52.8774 23.2868C52.7009 20.9814 52.4437 18.3407 50.9205 16.4963C49.6169 14.9181 47.5975 14.5614 45.6804 14.3442C43.253 14.0696 40.8141 13.9037 38.3732 13.8105C33.4295 13.6217 28.481 13.7311 23.5364 13.8413C20.9964 13.8978 18.4548 13.9543 15.9219 14.1557C12.8118 14.4034 9.61288 14.8593 8.16432 17.967C6.86389 20.7567 7.02545 24.2985 7.00886 27.2999C6.99385 29.9912 6.98516 32.6833 7.093 35.3723C7.23284 38.8623 7.44024 43.4087 11.2076 44.939C13.2187 45.7563 15.6473 45.9388 17.7951 46.0783C20.072 46.2264 22.3545 46.2086 24.6346 46.2426C29.4164 46.3137 34.1974 46.1498 38.9784 46.0546C42.2986 45.9886 45.7069 45.9511 48.8845 44.8671C51.6272 43.9313 52.3426 40.9587 52.7135 38.3804C53.0821 35.8186 52.988 33.2194 52.9841 30.6394C52.9809 28.7338 53.0319 26.8251 52.9663 24.9198Z" fill="white"/>
<path d="M37.2484 29.9328C33.2321 27.5741 29.304 25.2667 25.3375 22.9372C25.3375 27.638 25.3375 32.2599 25.3375 36.9319C29.3166 34.5933 33.2463 32.2844 37.2484 29.9328Z" fill="#FF0000"/>
</svg>
