<svg width="60" height="60" viewBox="0 0 60 60" fill="none" xmlns="http://www.w3.org/2000/svg">
<g clip-path="url(#clip0)">
<rect width="60" height="60" fill="#018FE5"/>
<path d="M6 23.1876C6 31.0839 9.08749 38.2873 14.1657 43.7444L14.0969 43.7184L12.3013 54.0407L23.7032 50.8157L23.7244 50.778C28.0524 52.8655 32.9393 54.0407 38.1119 54.0407C46.5703 54.0407 54.2647 50.8987 60 45.7631V7.68834C60 3.44216 60 5 60 0H16.9285C10.229 5.65456 6 13.9464 6 23.1876ZM50.2228 21.4784C53.7221 21.3686 56.2745 23.7167 56.3843 27.1496C56.4941 30.6237 54.367 33.0816 51.0873 33.4112C47.5057 33.7683 44.6652 31.173 44.7201 27.7401C44.6103 24.211 46.9294 21.5745 50.2228 21.4784ZM40.0681 18.5399C40.0818 17.4825 40.7542 16.7959 41.7697 16.7959C42.8126 16.7822 43.5125 17.4688 43.5125 18.5673C43.5262 20.7095 43.5125 22.8653 43.5125 25.0074C43.5125 27.1358 43.5262 29.2643 43.5125 31.3927C43.5262 32.3676 42.7577 33.1778 41.7834 33.2052C41.6188 33.2052 41.4404 33.1915 41.2757 33.1503C40.5896 32.9718 40.0681 32.244 40.0681 31.379V20.4623C40.0681 19.8169 40.0544 19.1852 40.0681 18.5399ZM29.735 22.165C31.6013 21.0528 33.495 21.1489 35.2103 22.6456C35.5396 22.22 35.8827 21.8218 36.4453 21.7119C37.5294 21.4922 38.5449 22.1925 38.5586 23.291C38.5998 26.0373 38.586 28.7837 38.5586 31.53C38.5586 32.244 38.092 32.8757 37.4196 33.0817C36.7335 33.3426 35.9513 33.1366 35.4985 32.5462C35.2652 32.2578 35.1691 32.2029 34.8398 32.4638C33.591 33.4799 32.1776 33.6584 30.6544 33.1641C28.2118 32.3677 27.21 30.459 26.9356 28.1383C26.6474 25.6254 27.4845 23.4833 29.735 22.165ZM15.9575 18.1279C16.2868 18.0455 16.6299 18.0043 16.973 18.0043C19.4156 17.9906 21.8719 17.9906 24.3145 18.0043C24.7537 17.9906 25.1791 18.0455 25.6045 18.1553C26.5376 18.4711 26.9356 19.3363 26.5651 20.2425C26.2357 21.0253 25.7143 21.6981 25.1928 22.371C23.3952 24.6641 21.5975 26.9436 19.7998 29.2093C19.6489 29.3878 19.5117 29.5663 19.2921 29.8684C21.3642 29.8684 23.3128 29.8547 25.2477 29.8684C26.3318 29.8821 26.9219 30.3353 27.0316 31.2004C27.1551 32.2852 26.5239 33.013 25.3438 33.0267C23.1207 33.0541 20.9114 33.0404 18.6883 33.0404C18.0433 33.0404 17.4121 33.0679 16.7671 33.0267C15.9712 32.9855 15.189 32.8207 14.8048 31.9968C14.4206 31.1729 14.695 30.4314 15.2165 29.7586C17.3298 27.0672 19.4568 24.362 21.5838 21.6706C21.7073 21.5058 21.8308 21.341 21.9543 21.19C21.817 20.9566 21.6249 21.0664 21.4603 21.0527C19.9782 21.039 18.4825 21.0527 17.0004 21.039C16.6573 21.039 16.3143 20.9978 15.9849 20.9291C15.2027 20.7506 14.7225 19.9679 14.9009 19.1989C15.0244 18.6771 15.436 18.2515 15.9575 18.1279Z" fill="white"/>
<path d="M31.3638 29.7729C31.7727 30.0756 32.2501 30.2202 32.7223 30.2184C33.1947 30.2202 33.6721 30.0756 34.0809 29.7729C34.2456 29.6494 34.3965 29.4983 34.5338 29.3198C35.3022 28.2763 35.3022 26.5598 34.5338 25.5162C34.2679 25.1456 33.8969 24.8803 33.4799 24.7475C33.2901 24.6834 33.0906 24.646 32.887 24.6373C31.3913 24.5549 30.3346 25.7221 30.3483 27.6583C30.3758 28.2625 30.5679 28.8392 30.911 29.3198C31.0482 29.4983 31.1992 29.6494 31.3638 29.7729Z" fill="white"/>
<path d="M49.1392 29.7307C49.3493 29.8966 49.5806 30.0187 49.8217 30.099C49.8229 30.0994 49.824 30.0998 49.8252 30.1002C49.8389 30.1048 49.8527 30.1087 49.8665 30.113C50.3216 30.256 50.817 30.2524 51.2772 30.0907C51.6717 29.9553 52.033 29.7102 52.309 29.3599C52.7075 28.8443 52.9065 28.1428 52.9076 27.4398C52.9098 26.7387 52.7142 26.0375 52.3228 25.5151C51.9385 24.9933 51.3347 24.6637 50.6898 24.65C49.2077 24.5676 48.1648 25.6936 48.1648 27.4101C48.1374 28.0966 48.3432 28.7695 48.7549 29.3325C48.8647 29.4835 48.9882 29.6209 49.1392 29.7307Z" fill="white"/>
<path d="M36.4471 21.7121C35.8844 21.822 35.5414 22.2202 35.2121 22.6459C33.4967 21.1491 31.603 21.053 29.7367 22.1653C27.4862 23.4835 26.6491 25.6256 26.9373 28.1385C27.2118 30.4592 28.2135 32.3679 30.6561 33.1643C32.1793 33.6586 33.5928 33.4801 34.8415 32.464C35.1709 32.203 35.2669 32.258 35.5002 32.5464C35.953 33.1368 36.7352 33.3428 37.4214 33.0819C38.0938 32.8759 38.5603 32.2442 38.5603 31.5302C38.5878 28.7839 38.6015 26.0375 38.5603 23.2912C38.5466 22.1927 37.5312 21.4924 36.4471 21.7121ZM34.5397 29.3195C34.4024 29.4979 34.2515 29.649 34.0868 29.7726C33.678 30.0752 33.2006 30.2198 32.7282 30.218C32.256 30.2198 31.7786 30.0752 31.3697 29.7726C31.205 29.649 31.0541 29.4979 30.9169 29.3195C30.5738 28.8388 30.3817 28.2621 30.3542 27.6579C30.3405 25.7217 31.3972 24.5546 32.8929 24.6369C33.0965 24.6456 33.296 24.6831 33.4858 24.7471C33.9028 24.8799 34.2738 25.1452 34.5397 25.5158C35.3081 26.5594 35.3081 28.2759 34.5397 29.3195Z" fill="#018FE5"/>
<path d="M43.5141 18.5675C43.5141 17.469 42.8142 16.7824 41.7713 16.7961C40.7559 16.7961 40.0835 17.4827 40.0697 18.54C40.056 19.1854 40.0697 19.8171 40.0697 20.4625V31.3792C40.0697 32.2442 40.5912 32.972 41.2773 33.1505C41.442 33.1917 41.6204 33.2054 41.7851 33.2054C42.7593 33.178 43.5278 32.3678 43.5141 31.3929C43.5278 29.2645 43.5141 27.1361 43.5141 25.0076C43.5141 22.8655 43.5278 20.7097 43.5141 18.5675Z" fill="#018FE5"/>
<path d="M56.3847 27.1503C56.2749 23.7174 53.7225 21.3693 50.2233 21.4791C46.9299 21.5753 44.6107 24.2118 44.7205 27.7408C44.6657 31.1737 47.5062 33.769 51.0878 33.4119C54.3675 33.0824 56.4945 30.6244 56.3847 27.1503ZM52.3091 29.3611C52.033 29.7114 51.6718 29.9564 51.2772 30.0918C50.8171 30.2536 50.3217 30.2572 49.8666 30.1142C49.8528 30.1099 49.839 30.1059 49.8253 30.1014C49.8241 30.101 49.823 30.1006 49.8218 30.1002C49.5807 30.0199 49.3493 29.8977 49.1392 29.7319C48.9883 29.622 48.8648 29.4847 48.755 29.3336C48.3433 28.7706 48.1375 28.0978 48.1649 27.4112C48.1649 25.6948 49.2078 24.5688 50.6899 24.6512C51.3348 24.6649 51.9386 24.9944 52.3229 25.5163C52.7144 26.0386 52.9099 26.7399 52.9077 27.4409C52.9066 28.1439 52.7076 28.8455 52.3091 29.3611Z" fill="#018FE5"/>
<path d="M25.2485 29.8681C23.3136 29.8544 21.365 29.8681 19.2929 29.8681V29.8681C19.5125 29.566 19.6497 29.3875 19.8006 29.209C21.5983 26.9433 23.396 24.6638 25.1936 22.3706C25.7151 21.6978 26.2365 21.025 26.5659 20.2422C26.9364 19.336 26.5384 18.4709 25.6053 18.155C25.1799 18.0452 24.7545 17.9903 24.3154 18.004C21.8727 17.9903 19.4164 17.9903 16.9738 18.004C16.6307 18.004 16.2876 18.0452 15.9583 18.1276C15.4368 18.2512 15.0252 18.6769 14.9017 19.1987C14.7233 19.9677 15.2035 20.7503 15.9857 20.9289C16.3151 20.9976 16.6581 21.0387 17.0012 21.0387C18.4833 21.0525 19.979 21.0387 21.4611 21.0525C21.6258 21.0662 21.8178 20.9564 21.9551 21.1898C21.8316 21.3408 21.7081 21.5056 21.5846 21.6704C19.4576 24.3618 17.3306 27.0669 15.2173 29.7583C14.6958 30.4312 14.4214 31.1727 14.8056 31.9966C15.1898 32.8205 15.972 32.9853 16.7679 33.0265C17.4129 33.0677 18.0441 33.0402 18.6891 33.0402C20.9122 33.0402 23.1215 33.0539 25.3446 33.0265C26.5247 33.0127 27.156 32.2849 27.0325 31.2001C26.9227 30.335 26.3326 29.8818 25.2485 29.8681Z" fill="#018FE5"/>
</g>
<defs>
<clipPath id="clip0">
<rect width="60" height="59.9995" fill="white"/>
</clipPath>
</defs>
</svg>
