<svg width="60" height="60" viewBox="0 0 60 60" fill="none" xmlns="http://www.w3.org/2000/svg">
<g clip-path="url(#clip0)">
<path d="M59.9989 0H0V59.9995H59.9989V0Z" fill="#159CD8" fill-opacity="0.36"/>
<path d="M24.8385 49.0077C23.7634 49.0077 22.6882 48.9948 21.6157 48.9513C18.3249 48.8244 16.0299 47.4917 14.7945 44.989C13.5182 42.4044 13.7835 39.6941 15.5621 37.1504C17.5215 34.3505 19.5103 31.5762 21.5003 28.7993L24.0684 25.2112C24.126 25.1305 24.1901 25.0485 24.2554 24.9677C24.2016 24.9703 24.1491 24.9703 24.0965 24.9703L23.903 24.9665C23.6378 24.9511 23.3687 24.9485 23.0983 24.9485L22.4678 24.9511C21.8643 24.9511 21.1608 24.9396 20.4444 24.8114C16.4104 24.0836 14.314 21.4579 14.5408 17.42C14.7433 13.8422 17.6342 11.1858 21.4132 11.1012C24.7975 11.0308 27.377 11 29.7772 11C32.3106 11 34.6031 11.0346 36.788 11.1102C39.8263 11.2127 42.3623 12.6941 43.5732 15.0724C44.7996 17.4777 44.4971 20.4417 42.7646 23.002C40.9578 25.679 39.0254 28.3251 37.1558 30.8842C36.3279 32.0208 35.4988 33.1549 34.6774 34.2967L34.498 34.5542C34.3763 34.7298 34.2571 34.9041 34.129 35.0745L34.3071 35.0758C34.6608 35.0758 35.017 35.0681 35.372 35.0617C36.2498 35.0438 37.125 35.0309 37.9938 35.1001C42.607 35.4871 44.8765 37.6899 45.1366 42.0328C45.2289 43.6115 44.6291 45.1838 43.4451 46.4614C42.0304 47.9889 39.9134 48.9231 37.7811 48.9615C36.697 48.9846 35.6103 48.9897 34.5224 48.9897L29.7118 48.9731C28.9045 48.9731 28.0947 48.9807 27.2861 48.9884C26.4698 49 25.6535 49.0077 24.8385 49.0077Z" fill="#A7A9AC"/>
<path d="M29.7127 47.6973C27.028 47.6973 24.3434 47.7793 21.6665 47.6717C19.2484 47.5794 17.0968 46.7606 15.9435 44.4232C14.8159 42.1409 15.1965 39.9112 16.6112 37.8853C19.4111 33.8846 22.2726 29.9326 25.1097 25.9563C25.4634 25.4578 26.0439 25.0234 25.753 24.2994C25.4096 23.4318 24.6176 23.7215 23.9705 23.6856C22.871 23.6279 21.7446 23.7432 20.6708 23.5497C17.2673 22.9359 15.6309 20.8305 15.8192 17.4911C15.9781 14.6847 18.2809 12.4524 21.4409 12.3832C26.5398 12.2769 31.6464 12.2179 36.7452 12.3909C42.249 12.578 44.7991 17.7051 41.7031 22.285C39.1198 26.1088 36.3352 29.8006 33.6365 33.5501C33.4532 33.8077 33.2815 34.073 33.0906 34.3241C32.7356 34.7944 32.3627 35.2698 32.692 35.8926C32.9996 36.4705 33.5852 36.3527 34.1016 36.3578C35.3626 36.368 36.6325 36.277 37.8883 36.3808C41.9005 36.7166 43.6368 38.4504 43.8573 42.1127C44.0277 45.0216 41.1086 47.6242 37.7576 47.6845C35.0781 47.7396 32.3947 47.6999 29.7127 47.6973Z" fill="white"/>
<path d="M32.2481 20.8181C28.596 20.8181 25.236 20.8437 21.8722 20.8104C19.8821 20.7899 18.8019 19.9711 18.643 18.4948C18.4546 16.7085 19.5592 15.2835 21.4762 15.2528C26.6341 15.1721 31.7996 15.1118 36.951 15.2771C40.0546 15.3758 41.1285 18.1783 39.2281 20.918C37.3111 23.6847 35.2966 26.3847 33.3283 29.1142C30.9679 32.3831 28.6126 35.6547 26.0331 39.235C28.8779 39.235 31.3754 39.2222 33.8691 39.2402C35.4478 39.2478 37.0279 39.2427 38.5989 39.3478C40.0777 39.4477 40.8991 40.3563 40.9593 41.8184C41.0144 43.2575 40.2379 44.1981 38.8795 44.6197C38.3913 44.7721 37.8505 44.8324 37.3328 44.8349C32.2801 44.8503 27.2248 44.8349 22.1695 44.8478C20.6715 44.8503 19.2734 44.5722 18.4994 43.1639C17.6742 41.6646 18.3226 40.3153 19.2171 39.0672C23.3484 33.2904 27.4811 27.5136 31.6125 21.7382C31.765 21.5293 31.9046 21.3166 32.2481 20.8181Z" fill="#159CD8"/>
</g>
<defs>
<clipPath id="clip0">
<rect width="60" height="59.9995" fill="white"/>
</clipPath>
</defs>
</svg>
