<svg xmlns="http://www.w3.org/2000/svg" width="30" height="30" fill="none" viewBox="0 0 30 30"><path fill="#fff" d="M30 15c0 8.3-6.7 15-15 15S0 23.3 0 15C0 6.8 6.6.1 14.8 0h14.05c.45 0 .8.35.8.8 0 .15-.05.25-.1.4l-2.2 5.3C29 8.9 30 11.85 30 15z"/><path fill="#67B459" d="M19.5 15c0 2.5-2 4.5-4.5 4.5s-4.5-2-4.5-4.5 2-4.5 4.5-4.5 4.5 2 4.5 4.5z"/><path fill="#F17D21" d="M19.25 2.65c0 .1 0 .2-.05.3l-.2.5-1.95 4.8c-.1.2-.3.35-.55.35-.3 0-.6-.25-.6-.6v-.1l.25-5.55c.1-.7.75-1.3 1.5-1.3.95.05 1.6.75 1.6 1.6zm7.35 8.3l-4.9 1.6c-.05.05-.15.05-.25.05-.3 0-.6-.25-.6-.6 0-.2.1-.35.25-.45h.05L25.4 8.3c.25-.2.6-.35.95-.35.85 0 1.5.7 1.5 1.5.05.75-.5 1.4-1.25 1.5z"/><path fill="#67B459" d="M28.3 1.6c0 .2-.05.35-.15.5l-.15.15-8 7.5c-.1.2-.3.3-.5.3-.3 0-.6-.25-.6-.6 0-.1.05-.25.1-.35l3.95-7.65C23.2 1.1 23.6.8 24.1.8h3.45c.4 0 .75.4.75.8z"/><path fill="#67B459" d="M29.2 15c0 7.85-6.35 14.2-14.2 14.2S.8 22.85.8 15C.8 7.85 6.1 1.95 12.95.95c.05 0 .1 0 .2-.05.25 0 .4.15.5.4v.2l.55 6.35V8c0 .2-.2.4-.4.45h-.1c-3.05.6-5.3 3.25-5.3 6.45 0 3.65 2.95 6.6 6.6 6.6 3.6 0 6.55-2.95 6.6-6.55v-.1c0-.2.15-.4.35-.45h.1l6.4-1.3.15-.05h.05c.25 0 .45.15.5.4v.15c0 .5.05.95.05 1.4z"/></svg>