<svg xmlns="http://www.w3.org/2000/svg" width="21" height="15"><path fill="#f48120" fill-rule="evenodd" d="M17.017 14.693a1 1 0 0 1-.708.292 1 1 0 0 1-.709-.292.99.99 0 0 1 0-1.406 8.109 8.109 0 0 0 0-11.519.99.99 0 0 1 0-1.406 1.006 1.006 0 0 1 1.417 0 10.091 10.091 0 0 1 0 14.331zm-3.251-3.236a1.004 1.004 0 0 1-1.417 0 .99.99 0 0 1 0-1.406 3.56 3.56 0 0 0 0-5.057.99.99 0 0 1 0-1.406 1.008 1.008 0 0 1 1.417 0 5.54 5.54 0 0 1 0 7.869zm-4.912 2.849a2.016 2.016 0 0 1-2.141-.297l-2.777-2.362h-1.93A1.997 1.997 0 0 1 .002 9.658V5.397c0-1.098.897-1.989 2.004-1.989h1.93l2.777-2.362A2.012 2.012 0 0 1 8.854.749a1.989 1.989 0 0 1 1.167 1.807v9.943a1.99 1.99 0 0 1-1.167 1.807zm-.837-11.75l-3.34 2.841H2.006v4.261h2.671l3.34 2.841V2.556z"/></svg>