<svg xmlns="http://www.w3.org/2000/svg" viewBox="0 0 20 14"><defs><style>.cls-1{fill:#62b35d}.cls-2{fill:#f2f2f2}.cls-3{fill:#fff}</style></defs><title>ic_dictionary</title><g id="Layer_2" data-name="Layer 2"><g id="Layer_1-2" data-name="Layer 1"><path class="cls-1" d="M17.85 3.15a.48.48 0 0 0-.7 0l-.15.14V1.5a.5.5 0 0 0-.5-.5h-2a.5.5 0 0 0 0 1H16v1.29l-.15-.14a.49.49 0 0 0-.7.7l1 1a.48.48 0 0 0 .7 0l1-1a.48.48 0 0 0 0-.7z"/><path class="cls-2" d="M11 0H2a1 1 0 0 0-1 1v2L0 4l1 1v2a1 1 0 0 0 1 1h9a1 1 0 0 0 1-1V1a1 1 0 0 0-1-1z"/><path class="cls-1" d="M9.5 3h-6a.5.5 0 0 1 0-1h6a.5.5 0 0 1 0 1zM6.5 6h-3a.5.5 0 0 1 0-1h3a.5.5 0 0 1 0 1zM19 8V7a1.18 1.18 0 0 0-1-1H9a1.18 1.18 0 0 0-1 1v6a1.18 1.18 0 0 0 1 1h9a1.18 1.18 0 0 0 1-1v-3l1-1.07z"/><path class="cls-3" d="M10.48 8.74h1.1l.68 2.26.68-2.26H14L12.79 12h-1.1zM15.89 7.41a.53.53 0 0 1 .16.41.55.55 0 0 1-.56.57.6.6 0 0 1-.41-.16.59.59 0 0 1-.15-.41.53.53 0 0 1 .56-.57.52.52 0 0 1 .4.16zM15 8.74h1V12h-1z"/></g></g></svg>